<?xml version="1.0" encoding="utf-8" standalone="no"?>
<!DOCTYPE svg PUBLIC "-//W3C//DTD SVG 1.1//EN"
  "http://www.w3.org/Graphics/SVG/1.1/DTD/svg11.dtd">
<svg xmlns:xlink="http://www.w3.org/1999/xlink" width="658.66375pt" height="257.857476pt" viewBox="0 0 658.66375 257.857476" xmlns="http://www.w3.org/2000/svg" version="1.1">
 <metadata>
  <rdf:RDF xmlns:dc="http://purl.org/dc/elements/1.1/" xmlns:cc="http://creativecommons.org/ns#" xmlns:rdf="http://www.w3.org/1999/02/22-rdf-syntax-ns#">
   <cc:Work>
    <dc:type rdf:resource="http://purl.org/dc/dcmitype/StillImage"/>
    <dc:date>2025-08-11T16:23:19.473669</dc:date>
    <dc:format>image/svg+xml</dc:format>
    <dc:creator>
     <cc:Agent>
      <dc:title>Matplotlib v3.5.3, https://matplotlib.org/</dc:title>
     </cc:Agent>
    </dc:creator>
   </cc:Work>
  </rdf:RDF>
 </metadata>
 <defs>
  <style type="text/css">*{stroke-linejoin: round; stroke-linecap: butt}</style>
 </defs>
 <g id="figure_1">
  <g id="patch_1">
   <path d="M -0 257.857476 
L 658.66375 257.857476 
L 658.66375 0 
L -0 0 
L -0 257.857476 
z
" style="fill: none"/>
  </g>
  <g id="axes_1">
   <g id="patch_2">
    <path d="M 575.29375 211.689507 
L 647.83375 211.689507 
L 647.83375 23.936719 
L 575.29375 23.936719 
z
" style="fill: #ffffff"/>
   </g>
   <g id="patch_3">
    <path d="M 575.29375 203.15529 
L 629.518804 203.15529 
L 629.518804 189.221873 
L 575.29375 189.221873 
z
" clip-path="url(#p91fb56dfe2)" style="fill: #48af17; opacity: 0.2; stroke: #48af17; stroke-width: 2; stroke-linejoin: miter"/>
   </g>
   <g id="patch_4">
    <path d="M 575.29375 185.738519 
L 629.518804 185.738519 
L 629.518804 171.805102 
L 575.29375 171.805102 
z
" clip-path="url(#p91fb56dfe2)" style="fill: #48af17; opacity: 0.2; stroke: #48af17; stroke-width: 2; stroke-linejoin: miter"/>
   </g>
   <g id="patch_5">
    <path d="M 575.29375 168.321748 
L 629.518804 168.321748 
L 629.518804 154.388332 
L 575.29375 154.388332 
z
" clip-path="url(#p91fb56dfe2)" style="fill: #48af17; opacity: 0.2; stroke: #48af17; stroke-width: 2; stroke-linejoin: miter"/>
   </g>
   <g id="patch_6">
    <path d="M 575.29375 150.904977 
L 630.681648 150.904977 
L 630.681648 136.971561 
L 575.29375 136.971561 
z
" clip-path="url(#p91fb56dfe2)" style="fill: #48af17; opacity: 0.2; stroke: #48af17; stroke-width: 2; stroke-linejoin: miter"/>
   </g>
   <g id="patch_7">
    <path d="M 575.29375 133.488207 
L 630.681648 133.488207 
L 630.681648 119.55479 
L 575.29375 119.55479 
z
" clip-path="url(#p91fb56dfe2)" style="fill: #48af17; opacity: 0.2; stroke: #48af17; stroke-width: 2; stroke-linejoin: miter"/>
   </g>
   <g id="patch_8">
    <path d="M 575.29375 116.071436 
L 632.720924 116.071436 
L 632.720924 102.138019 
L 575.29375 102.138019 
z
" clip-path="url(#p91fb56dfe2)" style="fill: #48af17; opacity: 0.2; stroke: #48af17; stroke-width: 2; stroke-linejoin: miter"/>
   </g>
   <g id="patch_9">
    <path d="M 575.29375 98.654665 
L 632.720924 98.654665 
L 632.720924 84.721249 
L 575.29375 84.721249 
z
" clip-path="url(#p91fb56dfe2)" style="fill: #48af17; opacity: 0.2; stroke: #48af17; stroke-width: 2; stroke-linejoin: miter"/>
   </g>
   <g id="patch_10">
    <path d="M 575.29375 81.237894 
L 632.720924 81.237894 
L 632.720924 67.304478 
L 575.29375 67.304478 
z
" clip-path="url(#p91fb56dfe2)" style="fill: #48af17; opacity: 0.2; stroke: #48af17; stroke-width: 2; stroke-linejoin: miter"/>
   </g>
   <g id="patch_11">
    <path d="M 575.29375 63.821124 
L 644.379464 63.821124 
L 644.379464 49.887707 
L 575.29375 49.887707 
z
" clip-path="url(#p91fb56dfe2)" style="fill: #48af17; opacity: 0.2; stroke: #48af17; stroke-width: 2; stroke-linejoin: miter"/>
   </g>
   <g id="patch_12">
    <path d="M 575.29375 46.404353 
L 644.379464 46.404353 
L 644.379464 32.470936 
L 575.29375 32.470936 
z
" clip-path="url(#p91fb56dfe2)" style="fill: #48af17; opacity: 0.2; stroke: #48af17; stroke-width: 2; stroke-linejoin: miter"/>
   </g>
   <g id="patch_13">
    <path d="M 575.29375 203.15529 
L 629.518804 203.15529 
L 629.518804 189.221873 
L 575.29375 189.221873 
L 575.29375 203.15529 
z
" clip-path="url(#p91fb56dfe2)" style="fill: none; opacity: 0.7; stroke: #48af17; stroke-width: 2; stroke-linejoin: miter"/>
   </g>
   <g id="patch_14">
    <path d="M 575.29375 185.738519 
L 629.518804 185.738519 
L 629.518804 171.805102 
L 575.29375 171.805102 
L 575.29375 185.738519 
z
" clip-path="url(#p91fb56dfe2)" style="fill: none; opacity: 0.7; stroke: #48af17; stroke-width: 2; stroke-linejoin: miter"/>
   </g>
   <g id="patch_15">
    <path d="M 575.29375 168.321748 
L 629.518804 168.321748 
L 629.518804 154.388332 
L 575.29375 154.388332 
L 575.29375 168.321748 
z
" clip-path="url(#p91fb56dfe2)" style="fill: none; opacity: 0.7; stroke: #48af17; stroke-width: 2; stroke-linejoin: miter"/>
   </g>
   <g id="patch_16">
    <path d="M 575.29375 150.904977 
L 630.681648 150.904977 
L 630.681648 136.971561 
L 575.29375 136.971561 
L 575.29375 150.904977 
z
" clip-path="url(#p91fb56dfe2)" style="fill: none; opacity: 0.7; stroke: #48af17; stroke-width: 2; stroke-linejoin: miter"/>
   </g>
   <g id="patch_17">
    <path d="M 575.29375 133.488207 
L 630.681648 133.488207 
L 630.681648 119.55479 
L 575.29375 119.55479 
L 575.29375 133.488207 
z
" clip-path="url(#p91fb56dfe2)" style="fill: none; opacity: 0.7; stroke: #48af17; stroke-width: 2; stroke-linejoin: miter"/>
   </g>
   <g id="patch_18">
    <path d="M 575.29375 116.071436 
L 632.720924 116.071436 
L 632.720924 102.138019 
L 575.29375 102.138019 
L 575.29375 116.071436 
z
" clip-path="url(#p91fb56dfe2)" style="fill: none; opacity: 0.7; stroke: #48af17; stroke-width: 2; stroke-linejoin: miter"/>
   </g>
   <g id="patch_19">
    <path d="M 575.29375 98.654665 
L 632.720924 98.654665 
L 632.720924 84.721249 
L 575.29375 84.721249 
L 575.29375 98.654665 
z
" clip-path="url(#p91fb56dfe2)" style="fill: none; opacity: 0.7; stroke: #48af17; stroke-width: 2; stroke-linejoin: miter"/>
   </g>
   <g id="patch_20">
    <path d="M 575.29375 81.237894 
L 632.720924 81.237894 
L 632.720924 67.304478 
L 575.29375 67.304478 
L 575.29375 81.237894 
z
" clip-path="url(#p91fb56dfe2)" style="fill: none; opacity: 0.7; stroke: #48af17; stroke-width: 2; stroke-linejoin: miter"/>
   </g>
   <g id="patch_21">
    <path d="M 575.29375 63.821124 
L 644.379464 63.821124 
L 644.379464 49.887707 
L 575.29375 49.887707 
L 575.29375 63.821124 
z
" clip-path="url(#p91fb56dfe2)" style="fill: none; opacity: 0.7; stroke: #48af17; stroke-width: 2; stroke-linejoin: miter"/>
   </g>
   <g id="patch_22">
    <path d="M 575.29375 46.404353 
L 644.379464 46.404353 
L 644.379464 32.470936 
L 575.29375 32.470936 
L 575.29375 46.404353 
z
" clip-path="url(#p91fb56dfe2)" style="fill: none; opacity: 0.7; stroke: #48af17; stroke-width: 2; stroke-linejoin: miter"/>
   </g>
   <g id="matplotlib.axis_1">
    <g id="xtick_1">
     <g id="line2d_1">
      <defs>
       <path id="m04a811e674" d="M 0 0 
L 0 3.5 
" style="stroke: #000000; stroke-width: 0.8"/>
      </defs>
      <g>
       <use xlink:href="#m04a811e674" x="575.29375" y="211.689507" style="stroke: #000000; stroke-width: 0.8"/>
      </g>
     </g>
     <g id="text_1">
      <!-- 0 -->
      <g transform="translate(571.123047 229.426226)scale(0.15 -0.15)">
       <defs>
        <path id="ArialMT-30" d="M 266 2259 
Q 266 3072 433 3567 
Q 600 4063 929 4331 
Q 1259 4600 1759 4600 
Q 2128 4600 2406 4451 
Q 2684 4303 2865 4023 
Q 3047 3744 3150 3342 
Q 3253 2941 3253 2259 
Q 3253 1453 3087 958 
Q 2922 463 2592 192 
Q 2263 -78 1759 -78 
Q 1097 -78 719 397 
Q 266 969 266 2259 
z
M 844 2259 
Q 844 1131 1108 757 
Q 1372 384 1759 384 
Q 2147 384 2411 759 
Q 2675 1134 2675 2259 
Q 2675 3391 2411 3762 
Q 2147 4134 1753 4134 
Q 1366 4134 1134 3806 
Q 844 3388 844 2259 
z
" transform="scale(0.015625)"/>
       </defs>
       <use xlink:href="#ArialMT-30"/>
      </g>
     </g>
    </g>
    <g id="xtick_2">
     <g id="line2d_2">
      <g>
       <use xlink:href="#m04a811e674" x="645.576597" y="211.689507" style="stroke: #000000; stroke-width: 0.8"/>
      </g>
     </g>
     <g id="text_2">
      <!-- 2 -->
      <g transform="translate(641.405894 229.426226)scale(0.15 -0.15)">
       <defs>
        <path id="ArialMT-32" d="M 3222 541 
L 3222 0 
L 194 0 
Q 188 203 259 391 
Q 375 700 629 1000 
Q 884 1300 1366 1694 
Q 2113 2306 2375 2664 
Q 2638 3022 2638 3341 
Q 2638 3675 2398 3904 
Q 2159 4134 1775 4134 
Q 1369 4134 1125 3890 
Q 881 3647 878 3216 
L 300 3275 
Q 359 3922 746 4261 
Q 1134 4600 1788 4600 
Q 2447 4600 2831 4234 
Q 3216 3869 3216 3328 
Q 3216 3053 3103 2787 
Q 2991 2522 2730 2228 
Q 2469 1934 1863 1422 
Q 1356 997 1212 845 
Q 1069 694 975 541 
L 3222 541 
z
" transform="scale(0.015625)"/>
       </defs>
       <use xlink:href="#ArialMT-32"/>
      </g>
     </g>
    </g>
    <g id="text_3">
     <!-- -log$_{10}$(FDR) -->
     <g transform="translate(571.66375 247.357476)scale(0.15 -0.15)">
      <defs>
       <path id="ArialMT-2d" d="M 203 1375 
L 203 1941 
L 1931 1941 
L 1931 1375 
L 203 1375 
z
" transform="scale(0.015625)"/>
       <path id="ArialMT-6c" d="M 409 0 
L 409 4581 
L 972 4581 
L 972 0 
L 409 0 
z
" transform="scale(0.015625)"/>
       <path id="ArialMT-6f" d="M 213 1659 
Q 213 2581 725 3025 
Q 1153 3394 1769 3394 
Q 2453 3394 2887 2945 
Q 3322 2497 3322 1706 
Q 3322 1066 3130 698 
Q 2938 331 2570 128 
Q 2203 -75 1769 -75 
Q 1072 -75 642 372 
Q 213 819 213 1659 
z
M 791 1659 
Q 791 1022 1069 705 
Q 1347 388 1769 388 
Q 2188 388 2466 706 
Q 2744 1025 2744 1678 
Q 2744 2294 2464 2611 
Q 2184 2928 1769 2928 
Q 1347 2928 1069 2612 
Q 791 2297 791 1659 
z
" transform="scale(0.015625)"/>
       <path id="ArialMT-67" d="M 319 -275 
L 866 -356 
Q 900 -609 1056 -725 
Q 1266 -881 1628 -881 
Q 2019 -881 2231 -725 
Q 2444 -569 2519 -288 
Q 2563 -116 2559 434 
Q 2191 0 1641 0 
Q 956 0 581 494 
Q 206 988 206 1678 
Q 206 2153 378 2554 
Q 550 2956 876 3175 
Q 1203 3394 1644 3394 
Q 2231 3394 2613 2919 
L 2613 3319 
L 3131 3319 
L 3131 450 
Q 3131 -325 2973 -648 
Q 2816 -972 2473 -1159 
Q 2131 -1347 1631 -1347 
Q 1038 -1347 672 -1080 
Q 306 -813 319 -275 
z
M 784 1719 
Q 784 1066 1043 766 
Q 1303 466 1694 466 
Q 2081 466 2343 764 
Q 2606 1063 2606 1700 
Q 2606 2309 2336 2618 
Q 2066 2928 1684 2928 
Q 1309 2928 1046 2623 
Q 784 2319 784 1719 
z
" transform="scale(0.015625)"/>
       <path id="DejaVuSans-31" d="M 794 531 
L 1825 531 
L 1825 4091 
L 703 3866 
L 703 4441 
L 1819 4666 
L 2450 4666 
L 2450 531 
L 3481 531 
L 3481 0 
L 794 0 
L 794 531 
z
" transform="scale(0.015625)"/>
       <path id="DejaVuSans-30" d="M 2034 4250 
Q 1547 4250 1301 3770 
Q 1056 3291 1056 2328 
Q 1056 1369 1301 889 
Q 1547 409 2034 409 
Q 2525 409 2770 889 
Q 3016 1369 3016 2328 
Q 3016 3291 2770 3770 
Q 2525 4250 2034 4250 
z
M 2034 4750 
Q 2819 4750 3233 4129 
Q 3647 3509 3647 2328 
Q 3647 1150 3233 529 
Q 2819 -91 2034 -91 
Q 1250 -91 836 529 
Q 422 1150 422 2328 
Q 422 3509 836 4129 
Q 1250 4750 2034 4750 
z
" transform="scale(0.015625)"/>
       <path id="ArialMT-28" d="M 1497 -1347 
Q 1031 -759 709 28 
Q 388 816 388 1659 
Q 388 2403 628 3084 
Q 909 3875 1497 4659 
L 1900 4659 
Q 1522 4009 1400 3731 
Q 1209 3300 1100 2831 
Q 966 2247 966 1656 
Q 966 153 1900 -1347 
L 1497 -1347 
z
" transform="scale(0.015625)"/>
       <path id="ArialMT-46" d="M 525 0 
L 525 4581 
L 3616 4581 
L 3616 4041 
L 1131 4041 
L 1131 2622 
L 3281 2622 
L 3281 2081 
L 1131 2081 
L 1131 0 
L 525 0 
z
" transform="scale(0.015625)"/>
       <path id="ArialMT-44" d="M 494 0 
L 494 4581 
L 2072 4581 
Q 2606 4581 2888 4516 
Q 3281 4425 3559 4188 
Q 3922 3881 4101 3404 
Q 4281 2928 4281 2316 
Q 4281 1794 4159 1391 
Q 4038 988 3847 723 
Q 3656 459 3429 307 
Q 3203 156 2883 78 
Q 2563 0 2147 0 
L 494 0 
z
M 1100 541 
L 2078 541 
Q 2531 541 2789 625 
Q 3047 709 3200 863 
Q 3416 1078 3536 1442 
Q 3656 1806 3656 2325 
Q 3656 3044 3420 3430 
Q 3184 3816 2847 3947 
Q 2603 4041 2063 4041 
L 1100 4041 
L 1100 541 
z
" transform="scale(0.015625)"/>
       <path id="ArialMT-52" d="M 503 0 
L 503 4581 
L 2534 4581 
Q 3147 4581 3465 4457 
Q 3784 4334 3975 4021 
Q 4166 3709 4166 3331 
Q 4166 2844 3850 2509 
Q 3534 2175 2875 2084 
Q 3116 1969 3241 1856 
Q 3506 1613 3744 1247 
L 4541 0 
L 3778 0 
L 3172 953 
Q 2906 1366 2734 1584 
Q 2563 1803 2427 1890 
Q 2291 1978 2150 2013 
Q 2047 2034 1813 2034 
L 1109 2034 
L 1109 0 
L 503 0 
z
M 1109 2559 
L 2413 2559 
Q 2828 2559 3062 2645 
Q 3297 2731 3419 2920 
Q 3541 3109 3541 3331 
Q 3541 3656 3305 3865 
Q 3069 4075 2559 4075 
L 1109 4075 
L 1109 2559 
z
" transform="scale(0.015625)"/>
       <path id="ArialMT-29" d="M 791 -1347 
L 388 -1347 
Q 1322 153 1322 1656 
Q 1322 2244 1188 2822 
Q 1081 3291 891 3722 
Q 769 4003 388 4659 
L 791 4659 
Q 1378 3875 1659 3084 
Q 1900 2403 1900 1659 
Q 1900 816 1576 28 
Q 1253 -759 791 -1347 
z
" transform="scale(0.015625)"/>
      </defs>
      <use xlink:href="#ArialMT-2d" transform="translate(0 0.203125)"/>
      <use xlink:href="#ArialMT-6c" transform="translate(33.300781 0.203125)"/>
      <use xlink:href="#ArialMT-6f" transform="translate(55.517578 0.203125)"/>
      <use xlink:href="#ArialMT-67" transform="translate(111.132812 0.203125)"/>
      <use xlink:href="#DejaVuSans-31" transform="translate(167.705078 -16.203125)scale(0.7)"/>
      <use xlink:href="#DejaVuSans-30" transform="translate(212.241211 -16.203125)scale(0.7)"/>
      <use xlink:href="#ArialMT-28" transform="translate(259.511719 0.203125)"/>
      <use xlink:href="#ArialMT-46" transform="translate(292.8125 0.203125)"/>
      <use xlink:href="#ArialMT-44" transform="translate(353.896484 0.203125)"/>
      <use xlink:href="#ArialMT-52" transform="translate(426.113281 0.203125)"/>
      <use xlink:href="#ArialMT-29" transform="translate(498.330078 0.203125)"/>
     </g>
    </g>
   </g>
   <g id="matplotlib.axis_2">
    <g id="ytick_1">
     <g id="line2d_3">
      <defs>
       <path id="m9861ca61fe" d="M 0 0 
L -3.5 0 
" style="stroke: #000000; stroke-width: 0.8"/>
      </defs>
      <g>
       <use xlink:href="#m9861ca61fe" x="575.29375" y="196.188581" style="stroke: #000000; stroke-width: 0.8"/>
      </g>
     </g>
     <g id="text_4">
      <!-- negative reg. of amyloid-beta formation -->
      <g transform="translate(308.172656 201.648347)scale(0.15 -0.15)">
       <defs>
        <path id="ArialMT-6e" d="M 422 0 
L 422 3319 
L 928 3319 
L 928 2847 
Q 1294 3394 1984 3394 
Q 2284 3394 2536 3286 
Q 2788 3178 2913 3003 
Q 3038 2828 3088 2588 
Q 3119 2431 3119 2041 
L 3119 0 
L 2556 0 
L 2556 2019 
Q 2556 2363 2490 2533 
Q 2425 2703 2258 2804 
Q 2091 2906 1866 2906 
Q 1506 2906 1245 2678 
Q 984 2450 984 1813 
L 984 0 
L 422 0 
z
" transform="scale(0.015625)"/>
        <path id="ArialMT-65" d="M 2694 1069 
L 3275 997 
Q 3138 488 2766 206 
Q 2394 -75 1816 -75 
Q 1088 -75 661 373 
Q 234 822 234 1631 
Q 234 2469 665 2931 
Q 1097 3394 1784 3394 
Q 2450 3394 2872 2941 
Q 3294 2488 3294 1666 
Q 3294 1616 3291 1516 
L 816 1516 
Q 847 969 1125 678 
Q 1403 388 1819 388 
Q 2128 388 2347 550 
Q 2566 713 2694 1069 
z
M 847 1978 
L 2700 1978 
Q 2663 2397 2488 2606 
Q 2219 2931 1791 2931 
Q 1403 2931 1139 2672 
Q 875 2413 847 1978 
z
" transform="scale(0.015625)"/>
        <path id="ArialMT-61" d="M 2588 409 
Q 2275 144 1986 34 
Q 1697 -75 1366 -75 
Q 819 -75 525 192 
Q 231 459 231 875 
Q 231 1119 342 1320 
Q 453 1522 633 1644 
Q 813 1766 1038 1828 
Q 1203 1872 1538 1913 
Q 2219 1994 2541 2106 
Q 2544 2222 2544 2253 
Q 2544 2597 2384 2738 
Q 2169 2928 1744 2928 
Q 1347 2928 1158 2789 
Q 969 2650 878 2297 
L 328 2372 
Q 403 2725 575 2942 
Q 747 3159 1072 3276 
Q 1397 3394 1825 3394 
Q 2250 3394 2515 3294 
Q 2781 3194 2906 3042 
Q 3031 2891 3081 2659 
Q 3109 2516 3109 2141 
L 3109 1391 
Q 3109 606 3145 398 
Q 3181 191 3288 0 
L 2700 0 
Q 2613 175 2588 409 
z
M 2541 1666 
Q 2234 1541 1622 1453 
Q 1275 1403 1131 1340 
Q 988 1278 909 1158 
Q 831 1038 831 891 
Q 831 666 1001 516 
Q 1172 366 1500 366 
Q 1825 366 2078 508 
Q 2331 650 2450 897 
Q 2541 1088 2541 1459 
L 2541 1666 
z
" transform="scale(0.015625)"/>
        <path id="ArialMT-74" d="M 1650 503 
L 1731 6 
Q 1494 -44 1306 -44 
Q 1000 -44 831 53 
Q 663 150 594 308 
Q 525 466 525 972 
L 525 2881 
L 113 2881 
L 113 3319 
L 525 3319 
L 525 4141 
L 1084 4478 
L 1084 3319 
L 1650 3319 
L 1650 2881 
L 1084 2881 
L 1084 941 
Q 1084 700 1114 631 
Q 1144 563 1211 522 
Q 1278 481 1403 481 
Q 1497 481 1650 503 
z
" transform="scale(0.015625)"/>
        <path id="ArialMT-69" d="M 425 3934 
L 425 4581 
L 988 4581 
L 988 3934 
L 425 3934 
z
M 425 0 
L 425 3319 
L 988 3319 
L 988 0 
L 425 0 
z
" transform="scale(0.015625)"/>
        <path id="ArialMT-76" d="M 1344 0 
L 81 3319 
L 675 3319 
L 1388 1331 
Q 1503 1009 1600 663 
Q 1675 925 1809 1294 
L 2547 3319 
L 3125 3319 
L 1869 0 
L 1344 0 
z
" transform="scale(0.015625)"/>
        <path id="ArialMT-20" transform="scale(0.015625)"/>
        <path id="ArialMT-72" d="M 416 0 
L 416 3319 
L 922 3319 
L 922 2816 
Q 1116 3169 1280 3281 
Q 1444 3394 1641 3394 
Q 1925 3394 2219 3213 
L 2025 2691 
Q 1819 2813 1613 2813 
Q 1428 2813 1281 2702 
Q 1134 2591 1072 2394 
Q 978 2094 978 1738 
L 978 0 
L 416 0 
z
" transform="scale(0.015625)"/>
        <path id="ArialMT-2e" d="M 581 0 
L 581 641 
L 1222 641 
L 1222 0 
L 581 0 
z
" transform="scale(0.015625)"/>
        <path id="ArialMT-66" d="M 556 0 
L 556 2881 
L 59 2881 
L 59 3319 
L 556 3319 
L 556 3672 
Q 556 4006 616 4169 
Q 697 4388 901 4523 
Q 1106 4659 1475 4659 
Q 1713 4659 2000 4603 
L 1916 4113 
Q 1741 4144 1584 4144 
Q 1328 4144 1222 4034 
Q 1116 3925 1116 3625 
L 1116 3319 
L 1763 3319 
L 1763 2881 
L 1116 2881 
L 1116 0 
L 556 0 
z
" transform="scale(0.015625)"/>
        <path id="ArialMT-6d" d="M 422 0 
L 422 3319 
L 925 3319 
L 925 2853 
Q 1081 3097 1340 3245 
Q 1600 3394 1931 3394 
Q 2300 3394 2536 3241 
Q 2772 3088 2869 2813 
Q 3263 3394 3894 3394 
Q 4388 3394 4653 3120 
Q 4919 2847 4919 2278 
L 4919 0 
L 4359 0 
L 4359 2091 
Q 4359 2428 4304 2576 
Q 4250 2725 4106 2815 
Q 3963 2906 3769 2906 
Q 3419 2906 3187 2673 
Q 2956 2441 2956 1928 
L 2956 0 
L 2394 0 
L 2394 2156 
Q 2394 2531 2256 2718 
Q 2119 2906 1806 2906 
Q 1569 2906 1367 2781 
Q 1166 2656 1075 2415 
Q 984 2175 984 1722 
L 984 0 
L 422 0 
z
" transform="scale(0.015625)"/>
        <path id="ArialMT-79" d="M 397 -1278 
L 334 -750 
Q 519 -800 656 -800 
Q 844 -800 956 -737 
Q 1069 -675 1141 -563 
Q 1194 -478 1313 -144 
Q 1328 -97 1363 -6 
L 103 3319 
L 709 3319 
L 1400 1397 
Q 1534 1031 1641 628 
Q 1738 1016 1872 1384 
L 2581 3319 
L 3144 3319 
L 1881 -56 
Q 1678 -603 1566 -809 
Q 1416 -1088 1222 -1217 
Q 1028 -1347 759 -1347 
Q 597 -1347 397 -1278 
z
" transform="scale(0.015625)"/>
        <path id="ArialMT-64" d="M 2575 0 
L 2575 419 
Q 2259 -75 1647 -75 
Q 1250 -75 917 144 
Q 584 363 401 755 
Q 219 1147 219 1656 
Q 219 2153 384 2558 
Q 550 2963 881 3178 
Q 1213 3394 1622 3394 
Q 1922 3394 2156 3267 
Q 2391 3141 2538 2938 
L 2538 4581 
L 3097 4581 
L 3097 0 
L 2575 0 
z
M 797 1656 
Q 797 1019 1065 703 
Q 1334 388 1700 388 
Q 2069 388 2326 689 
Q 2584 991 2584 1609 
Q 2584 2291 2321 2609 
Q 2059 2928 1675 2928 
Q 1300 2928 1048 2622 
Q 797 2316 797 1656 
z
" transform="scale(0.015625)"/>
        <path id="ArialMT-62" d="M 941 0 
L 419 0 
L 419 4581 
L 981 4581 
L 981 2947 
Q 1338 3394 1891 3394 
Q 2197 3394 2470 3270 
Q 2744 3147 2920 2923 
Q 3097 2700 3197 2384 
Q 3297 2069 3297 1709 
Q 3297 856 2875 390 
Q 2453 -75 1863 -75 
Q 1275 -75 941 416 
L 941 0 
z
M 934 1684 
Q 934 1088 1097 822 
Q 1363 388 1816 388 
Q 2184 388 2453 708 
Q 2722 1028 2722 1663 
Q 2722 2313 2464 2622 
Q 2206 2931 1841 2931 
Q 1472 2931 1203 2611 
Q 934 2291 934 1684 
z
" transform="scale(0.015625)"/>
       </defs>
       <use xlink:href="#ArialMT-6e"/>
       <use xlink:href="#ArialMT-65" x="55.615234"/>
       <use xlink:href="#ArialMT-67" x="111.230469"/>
       <use xlink:href="#ArialMT-61" x="166.845703"/>
       <use xlink:href="#ArialMT-74" x="222.460938"/>
       <use xlink:href="#ArialMT-69" x="250.244141"/>
       <use xlink:href="#ArialMT-76" x="272.460938"/>
       <use xlink:href="#ArialMT-65" x="322.460938"/>
       <use xlink:href="#ArialMT-20" x="378.076172"/>
       <use xlink:href="#ArialMT-72" x="405.859375"/>
       <use xlink:href="#ArialMT-65" x="439.160156"/>
       <use xlink:href="#ArialMT-67" x="494.775391"/>
       <use xlink:href="#ArialMT-2e" x="550.390625"/>
       <use xlink:href="#ArialMT-20" x="578.173828"/>
       <use xlink:href="#ArialMT-6f" x="605.957031"/>
       <use xlink:href="#ArialMT-66" x="661.572266"/>
       <use xlink:href="#ArialMT-20" x="689.355469"/>
       <use xlink:href="#ArialMT-61" x="717.138672"/>
       <use xlink:href="#ArialMT-6d" x="772.753906"/>
       <use xlink:href="#ArialMT-79" x="856.054688"/>
       <use xlink:href="#ArialMT-6c" x="906.054688"/>
       <use xlink:href="#ArialMT-6f" x="928.271484"/>
       <use xlink:href="#ArialMT-69" x="983.886719"/>
       <use xlink:href="#ArialMT-64" x="1006.103516"/>
       <use xlink:href="#ArialMT-2d" x="1061.71875"/>
       <use xlink:href="#ArialMT-62" x="1095.019531"/>
       <use xlink:href="#ArialMT-65" x="1150.634766"/>
       <use xlink:href="#ArialMT-74" x="1206.25"/>
       <use xlink:href="#ArialMT-61" x="1234.033203"/>
       <use xlink:href="#ArialMT-20" x="1289.648438"/>
       <use xlink:href="#ArialMT-66" x="1317.431641"/>
       <use xlink:href="#ArialMT-6f" x="1345.214844"/>
       <use xlink:href="#ArialMT-72" x="1400.830078"/>
       <use xlink:href="#ArialMT-6d" x="1434.130859"/>
       <use xlink:href="#ArialMT-61" x="1517.431641"/>
       <use xlink:href="#ArialMT-74" x="1573.046875"/>
       <use xlink:href="#ArialMT-69" x="1600.830078"/>
       <use xlink:href="#ArialMT-6f" x="1623.046875"/>
       <use xlink:href="#ArialMT-6e" x="1678.662109"/>
      </g>
     </g>
    </g>
    <g id="ytick_2">
     <g id="line2d_4">
      <g>
       <use xlink:href="#m9861ca61fe" x="575.29375" y="178.771811" style="stroke: #000000; stroke-width: 0.8"/>
      </g>
     </g>
     <g id="text_5">
      <!-- vesicle-mediated transport in synapse -->
      <g transform="translate(316.51875 184.14017)scale(0.15 -0.15)">
       <defs>
        <path id="ArialMT-73" d="M 197 991 
L 753 1078 
Q 800 744 1014 566 
Q 1228 388 1613 388 
Q 2000 388 2187 545 
Q 2375 703 2375 916 
Q 2375 1106 2209 1216 
Q 2094 1291 1634 1406 
Q 1016 1563 777 1677 
Q 538 1791 414 1992 
Q 291 2194 291 2438 
Q 291 2659 392 2848 
Q 494 3038 669 3163 
Q 800 3259 1026 3326 
Q 1253 3394 1513 3394 
Q 1903 3394 2198 3281 
Q 2494 3169 2634 2976 
Q 2775 2784 2828 2463 
L 2278 2388 
Q 2241 2644 2061 2787 
Q 1881 2931 1553 2931 
Q 1166 2931 1000 2803 
Q 834 2675 834 2503 
Q 834 2394 903 2306 
Q 972 2216 1119 2156 
Q 1203 2125 1616 2013 
Q 2213 1853 2448 1751 
Q 2684 1650 2818 1456 
Q 2953 1263 2953 975 
Q 2953 694 2789 445 
Q 2625 197 2315 61 
Q 2006 -75 1616 -75 
Q 969 -75 630 194 
Q 291 463 197 991 
z
" transform="scale(0.015625)"/>
        <path id="ArialMT-63" d="M 2588 1216 
L 3141 1144 
Q 3050 572 2676 248 
Q 2303 -75 1759 -75 
Q 1078 -75 664 370 
Q 250 816 250 1647 
Q 250 2184 428 2587 
Q 606 2991 970 3192 
Q 1334 3394 1763 3394 
Q 2303 3394 2647 3120 
Q 2991 2847 3088 2344 
L 2541 2259 
Q 2463 2594 2264 2762 
Q 2066 2931 1784 2931 
Q 1359 2931 1093 2626 
Q 828 2322 828 1663 
Q 828 994 1084 691 
Q 1341 388 1753 388 
Q 2084 388 2306 591 
Q 2528 794 2588 1216 
z
" transform="scale(0.015625)"/>
        <path id="ArialMT-70" d="M 422 -1272 
L 422 3319 
L 934 3319 
L 934 2888 
Q 1116 3141 1344 3267 
Q 1572 3394 1897 3394 
Q 2322 3394 2647 3175 
Q 2972 2956 3137 2557 
Q 3303 2159 3303 1684 
Q 3303 1175 3120 767 
Q 2938 359 2589 142 
Q 2241 -75 1856 -75 
Q 1575 -75 1351 44 
Q 1128 163 984 344 
L 984 -1272 
L 422 -1272 
z
M 931 1641 
Q 931 1000 1190 694 
Q 1450 388 1819 388 
Q 2194 388 2461 705 
Q 2728 1022 2728 1688 
Q 2728 2322 2467 2637 
Q 2206 2953 1844 2953 
Q 1484 2953 1207 2617 
Q 931 2281 931 1641 
z
" transform="scale(0.015625)"/>
       </defs>
       <use xlink:href="#ArialMT-76"/>
       <use xlink:href="#ArialMT-65" x="50"/>
       <use xlink:href="#ArialMT-73" x="105.615234"/>
       <use xlink:href="#ArialMT-69" x="155.615234"/>
       <use xlink:href="#ArialMT-63" x="177.832031"/>
       <use xlink:href="#ArialMT-6c" x="227.832031"/>
       <use xlink:href="#ArialMT-65" x="250.048828"/>
       <use xlink:href="#ArialMT-2d" x="305.664062"/>
       <use xlink:href="#ArialMT-6d" x="338.964844"/>
       <use xlink:href="#ArialMT-65" x="422.265625"/>
       <use xlink:href="#ArialMT-64" x="477.880859"/>
       <use xlink:href="#ArialMT-69" x="533.496094"/>
       <use xlink:href="#ArialMT-61" x="555.712891"/>
       <use xlink:href="#ArialMT-74" x="611.328125"/>
       <use xlink:href="#ArialMT-65" x="639.111328"/>
       <use xlink:href="#ArialMT-64" x="694.726562"/>
       <use xlink:href="#ArialMT-20" x="750.341797"/>
       <use xlink:href="#ArialMT-74" x="778.125"/>
       <use xlink:href="#ArialMT-72" x="805.908203"/>
       <use xlink:href="#ArialMT-61" x="839.208984"/>
       <use xlink:href="#ArialMT-6e" x="894.824219"/>
       <use xlink:href="#ArialMT-73" x="950.439453"/>
       <use xlink:href="#ArialMT-70" x="1000.439453"/>
       <use xlink:href="#ArialMT-6f" x="1056.054688"/>
       <use xlink:href="#ArialMT-72" x="1111.669922"/>
       <use xlink:href="#ArialMT-74" x="1144.970703"/>
       <use xlink:href="#ArialMT-20" x="1172.753906"/>
       <use xlink:href="#ArialMT-69" x="1200.537109"/>
       <use xlink:href="#ArialMT-6e" x="1222.753906"/>
       <use xlink:href="#ArialMT-20" x="1278.369141"/>
       <use xlink:href="#ArialMT-73" x="1306.152344"/>
       <use xlink:href="#ArialMT-79" x="1356.152344"/>
       <use xlink:href="#ArialMT-6e" x="1406.152344"/>
       <use xlink:href="#ArialMT-61" x="1461.767578"/>
       <use xlink:href="#ArialMT-70" x="1517.382812"/>
       <use xlink:href="#ArialMT-73" x="1572.998047"/>
       <use xlink:href="#ArialMT-65" x="1622.998047"/>
      </g>
     </g>
    </g>
    <g id="ytick_3">
     <g id="line2d_5">
      <g>
       <use xlink:href="#m9861ca61fe" x="575.29375" y="161.35504" style="stroke: #000000; stroke-width: 0.8"/>
      </g>
     </g>
     <g id="text_6">
      <!-- locomotory behavior -->
      <g transform="translate(433.2375 166.723399)scale(0.15 -0.15)">
       <defs>
        <path id="ArialMT-68" d="M 422 0 
L 422 4581 
L 984 4581 
L 984 2938 
Q 1378 3394 1978 3394 
Q 2347 3394 2619 3248 
Q 2891 3103 3008 2847 
Q 3125 2591 3125 2103 
L 3125 0 
L 2563 0 
L 2563 2103 
Q 2563 2525 2380 2717 
Q 2197 2909 1863 2909 
Q 1613 2909 1392 2779 
Q 1172 2650 1078 2428 
Q 984 2206 984 1816 
L 984 0 
L 422 0 
z
" transform="scale(0.015625)"/>
       </defs>
       <use xlink:href="#ArialMT-6c"/>
       <use xlink:href="#ArialMT-6f" x="22.216797"/>
       <use xlink:href="#ArialMT-63" x="77.832031"/>
       <use xlink:href="#ArialMT-6f" x="127.832031"/>
       <use xlink:href="#ArialMT-6d" x="183.447266"/>
       <use xlink:href="#ArialMT-6f" x="266.748047"/>
       <use xlink:href="#ArialMT-74" x="322.363281"/>
       <use xlink:href="#ArialMT-6f" x="350.146484"/>
       <use xlink:href="#ArialMT-72" x="405.761719"/>
       <use xlink:href="#ArialMT-79" x="439.0625"/>
       <use xlink:href="#ArialMT-20" x="489.0625"/>
       <use xlink:href="#ArialMT-62" x="516.845703"/>
       <use xlink:href="#ArialMT-65" x="572.460938"/>
       <use xlink:href="#ArialMT-68" x="628.076172"/>
       <use xlink:href="#ArialMT-61" x="683.691406"/>
       <use xlink:href="#ArialMT-76" x="739.306641"/>
       <use xlink:href="#ArialMT-69" x="789.306641"/>
       <use xlink:href="#ArialMT-6f" x="811.523438"/>
       <use xlink:href="#ArialMT-72" x="867.138672"/>
      </g>
     </g>
    </g>
    <g id="ytick_4">
     <g id="line2d_6">
      <g>
       <use xlink:href="#m9861ca61fe" x="575.29375" y="143.938269" style="stroke: #000000; stroke-width: 0.8"/>
      </g>
     </g>
     <g id="text_7">
      <!-- reg. of postsynaptic membrane neurotransmitter receptor levels -->
      <g transform="translate(147.3 149.398035)scale(0.15 -0.15)">
       <defs>
        <path id="ArialMT-75" d="M 2597 0 
L 2597 488 
Q 2209 -75 1544 -75 
Q 1250 -75 995 37 
Q 741 150 617 320 
Q 494 491 444 738 
Q 409 903 409 1263 
L 409 3319 
L 972 3319 
L 972 1478 
Q 972 1038 1006 884 
Q 1059 663 1231 536 
Q 1403 409 1656 409 
Q 1909 409 2131 539 
Q 2353 669 2445 892 
Q 2538 1116 2538 1541 
L 2538 3319 
L 3100 3319 
L 3100 0 
L 2597 0 
z
" transform="scale(0.015625)"/>
       </defs>
       <use xlink:href="#ArialMT-72"/>
       <use xlink:href="#ArialMT-65" x="33.300781"/>
       <use xlink:href="#ArialMT-67" x="88.916016"/>
       <use xlink:href="#ArialMT-2e" x="144.53125"/>
       <use xlink:href="#ArialMT-20" x="172.314453"/>
       <use xlink:href="#ArialMT-6f" x="200.097656"/>
       <use xlink:href="#ArialMT-66" x="255.712891"/>
       <use xlink:href="#ArialMT-20" x="283.496094"/>
       <use xlink:href="#ArialMT-70" x="311.279297"/>
       <use xlink:href="#ArialMT-6f" x="366.894531"/>
       <use xlink:href="#ArialMT-73" x="422.509766"/>
       <use xlink:href="#ArialMT-74" x="472.509766"/>
       <use xlink:href="#ArialMT-73" x="500.292969"/>
       <use xlink:href="#ArialMT-79" x="550.292969"/>
       <use xlink:href="#ArialMT-6e" x="600.292969"/>
       <use xlink:href="#ArialMT-61" x="655.908203"/>
       <use xlink:href="#ArialMT-70" x="711.523438"/>
       <use xlink:href="#ArialMT-74" x="767.138672"/>
       <use xlink:href="#ArialMT-69" x="794.921875"/>
       <use xlink:href="#ArialMT-63" x="817.138672"/>
       <use xlink:href="#ArialMT-20" x="867.138672"/>
       <use xlink:href="#ArialMT-6d" x="894.921875"/>
       <use xlink:href="#ArialMT-65" x="978.222656"/>
       <use xlink:href="#ArialMT-6d" x="1033.837891"/>
       <use xlink:href="#ArialMT-62" x="1117.138672"/>
       <use xlink:href="#ArialMT-72" x="1172.753906"/>
       <use xlink:href="#ArialMT-61" x="1206.054688"/>
       <use xlink:href="#ArialMT-6e" x="1261.669922"/>
       <use xlink:href="#ArialMT-65" x="1317.285156"/>
       <use xlink:href="#ArialMT-20" x="1372.900391"/>
       <use xlink:href="#ArialMT-6e" x="1400.683594"/>
       <use xlink:href="#ArialMT-65" x="1456.298828"/>
       <use xlink:href="#ArialMT-75" x="1511.914062"/>
       <use xlink:href="#ArialMT-72" x="1567.529297"/>
       <use xlink:href="#ArialMT-6f" x="1600.830078"/>
       <use xlink:href="#ArialMT-74" x="1656.445312"/>
       <use xlink:href="#ArialMT-72" x="1684.228516"/>
       <use xlink:href="#ArialMT-61" x="1717.529297"/>
       <use xlink:href="#ArialMT-6e" x="1773.144531"/>
       <use xlink:href="#ArialMT-73" x="1828.759766"/>
       <use xlink:href="#ArialMT-6d" x="1878.759766"/>
       <use xlink:href="#ArialMT-69" x="1962.060547"/>
       <use xlink:href="#ArialMT-74" x="1984.277344"/>
       <use xlink:href="#ArialMT-74" x="2012.060547"/>
       <use xlink:href="#ArialMT-65" x="2039.84375"/>
       <use xlink:href="#ArialMT-72" x="2095.458984"/>
       <use xlink:href="#ArialMT-20" x="2128.759766"/>
       <use xlink:href="#ArialMT-72" x="2156.542969"/>
       <use xlink:href="#ArialMT-65" x="2189.84375"/>
       <use xlink:href="#ArialMT-63" x="2245.458984"/>
       <use xlink:href="#ArialMT-65" x="2295.458984"/>
       <use xlink:href="#ArialMT-70" x="2351.074219"/>
       <use xlink:href="#ArialMT-74" x="2406.689453"/>
       <use xlink:href="#ArialMT-6f" x="2434.472656"/>
       <use xlink:href="#ArialMT-72" x="2490.087891"/>
       <use xlink:href="#ArialMT-20" x="2523.388672"/>
       <use xlink:href="#ArialMT-6c" x="2551.171875"/>
       <use xlink:href="#ArialMT-65" x="2573.388672"/>
       <use xlink:href="#ArialMT-76" x="2629.003906"/>
       <use xlink:href="#ArialMT-65" x="2679.003906"/>
       <use xlink:href="#ArialMT-6c" x="2734.619141"/>
       <use xlink:href="#ArialMT-73" x="2756.835938"/>
      </g>
     </g>
    </g>
    <g id="ytick_5">
     <g id="line2d_7">
      <g>
       <use xlink:href="#m9861ca61fe" x="575.29375" y="126.521498" style="stroke: #000000; stroke-width: 0.8"/>
      </g>
     </g>
     <g id="text_8">
      <!-- neuron death -->
      <g transform="translate(479.892187 131.889858)scale(0.15 -0.15)">
       <use xlink:href="#ArialMT-6e"/>
       <use xlink:href="#ArialMT-65" x="55.615234"/>
       <use xlink:href="#ArialMT-75" x="111.230469"/>
       <use xlink:href="#ArialMT-72" x="166.845703"/>
       <use xlink:href="#ArialMT-6f" x="200.146484"/>
       <use xlink:href="#ArialMT-6e" x="255.761719"/>
       <use xlink:href="#ArialMT-20" x="311.376953"/>
       <use xlink:href="#ArialMT-64" x="339.160156"/>
       <use xlink:href="#ArialMT-65" x="394.775391"/>
       <use xlink:href="#ArialMT-61" x="450.390625"/>
       <use xlink:href="#ArialMT-74" x="506.005859"/>
       <use xlink:href="#ArialMT-68" x="533.789062"/>
      </g>
     </g>
    </g>
    <g id="ytick_6">
     <g id="line2d_8">
      <g>
       <use xlink:href="#m9861ca61fe" x="575.29375" y="109.104728" style="stroke: #000000; stroke-width: 0.8"/>
      </g>
     </g>
     <g id="text_9">
      <!-- chemical synaptic transmission -->
      <g transform="translate(361.563281 114.473087)scale(0.15 -0.15)">
       <use xlink:href="#ArialMT-63"/>
       <use xlink:href="#ArialMT-68" x="50"/>
       <use xlink:href="#ArialMT-65" x="105.615234"/>
       <use xlink:href="#ArialMT-6d" x="161.230469"/>
       <use xlink:href="#ArialMT-69" x="244.53125"/>
       <use xlink:href="#ArialMT-63" x="266.748047"/>
       <use xlink:href="#ArialMT-61" x="316.748047"/>
       <use xlink:href="#ArialMT-6c" x="372.363281"/>
       <use xlink:href="#ArialMT-20" x="394.580078"/>
       <use xlink:href="#ArialMT-73" x="422.363281"/>
       <use xlink:href="#ArialMT-79" x="472.363281"/>
       <use xlink:href="#ArialMT-6e" x="522.363281"/>
       <use xlink:href="#ArialMT-61" x="577.978516"/>
       <use xlink:href="#ArialMT-70" x="633.59375"/>
       <use xlink:href="#ArialMT-74" x="689.208984"/>
       <use xlink:href="#ArialMT-69" x="716.992188"/>
       <use xlink:href="#ArialMT-63" x="739.208984"/>
       <use xlink:href="#ArialMT-20" x="789.208984"/>
       <use xlink:href="#ArialMT-74" x="816.992188"/>
       <use xlink:href="#ArialMT-72" x="844.775391"/>
       <use xlink:href="#ArialMT-61" x="878.076172"/>
       <use xlink:href="#ArialMT-6e" x="933.691406"/>
       <use xlink:href="#ArialMT-73" x="989.306641"/>
       <use xlink:href="#ArialMT-6d" x="1039.306641"/>
       <use xlink:href="#ArialMT-69" x="1122.607422"/>
       <use xlink:href="#ArialMT-73" x="1144.824219"/>
       <use xlink:href="#ArialMT-73" x="1194.824219"/>
       <use xlink:href="#ArialMT-69" x="1244.824219"/>
       <use xlink:href="#ArialMT-6f" x="1267.041016"/>
       <use xlink:href="#ArialMT-6e" x="1322.65625"/>
      </g>
     </g>
    </g>
    <g id="ytick_7">
     <g id="line2d_9">
      <g>
       <use xlink:href="#m9861ca61fe" x="575.29375" y="91.687957" style="stroke: #000000; stroke-width: 0.8"/>
      </g>
     </g>
     <g id="text_10">
      <!-- cell-cell adhesion via plasma-membrane adhesion molecules -->
      <g transform="translate(163.95 97.056316)scale(0.15 -0.15)">
       <use xlink:href="#ArialMT-63"/>
       <use xlink:href="#ArialMT-65" x="50"/>
       <use xlink:href="#ArialMT-6c" x="105.615234"/>
       <use xlink:href="#ArialMT-6c" x="127.832031"/>
       <use xlink:href="#ArialMT-2d" x="150.048828"/>
       <use xlink:href="#ArialMT-63" x="183.349609"/>
       <use xlink:href="#ArialMT-65" x="233.349609"/>
       <use xlink:href="#ArialMT-6c" x="288.964844"/>
       <use xlink:href="#ArialMT-6c" x="311.181641"/>
       <use xlink:href="#ArialMT-20" x="333.398438"/>
       <use xlink:href="#ArialMT-61" x="361.181641"/>
       <use xlink:href="#ArialMT-64" x="416.796875"/>
       <use xlink:href="#ArialMT-68" x="472.412109"/>
       <use xlink:href="#ArialMT-65" x="528.027344"/>
       <use xlink:href="#ArialMT-73" x="583.642578"/>
       <use xlink:href="#ArialMT-69" x="633.642578"/>
       <use xlink:href="#ArialMT-6f" x="655.859375"/>
       <use xlink:href="#ArialMT-6e" x="711.474609"/>
       <use xlink:href="#ArialMT-20" x="767.089844"/>
       <use xlink:href="#ArialMT-76" x="794.873047"/>
       <use xlink:href="#ArialMT-69" x="844.873047"/>
       <use xlink:href="#ArialMT-61" x="867.089844"/>
       <use xlink:href="#ArialMT-20" x="922.705078"/>
       <use xlink:href="#ArialMT-70" x="950.488281"/>
       <use xlink:href="#ArialMT-6c" x="1006.103516"/>
       <use xlink:href="#ArialMT-61" x="1028.320312"/>
       <use xlink:href="#ArialMT-73" x="1083.935547"/>
       <use xlink:href="#ArialMT-6d" x="1133.935547"/>
       <use xlink:href="#ArialMT-61" x="1217.236328"/>
       <use xlink:href="#ArialMT-2d" x="1272.851562"/>
       <use xlink:href="#ArialMT-6d" x="1306.152344"/>
       <use xlink:href="#ArialMT-65" x="1389.453125"/>
       <use xlink:href="#ArialMT-6d" x="1445.068359"/>
       <use xlink:href="#ArialMT-62" x="1528.369141"/>
       <use xlink:href="#ArialMT-72" x="1583.984375"/>
       <use xlink:href="#ArialMT-61" x="1617.285156"/>
       <use xlink:href="#ArialMT-6e" x="1672.900391"/>
       <use xlink:href="#ArialMT-65" x="1728.515625"/>
       <use xlink:href="#ArialMT-20" x="1784.130859"/>
       <use xlink:href="#ArialMT-61" x="1811.914062"/>
       <use xlink:href="#ArialMT-64" x="1867.529297"/>
       <use xlink:href="#ArialMT-68" x="1923.144531"/>
       <use xlink:href="#ArialMT-65" x="1978.759766"/>
       <use xlink:href="#ArialMT-73" x="2034.375"/>
       <use xlink:href="#ArialMT-69" x="2084.375"/>
       <use xlink:href="#ArialMT-6f" x="2106.591797"/>
       <use xlink:href="#ArialMT-6e" x="2162.207031"/>
       <use xlink:href="#ArialMT-20" x="2217.822266"/>
       <use xlink:href="#ArialMT-6d" x="2245.605469"/>
       <use xlink:href="#ArialMT-6f" x="2328.90625"/>
       <use xlink:href="#ArialMT-6c" x="2384.521484"/>
       <use xlink:href="#ArialMT-65" x="2406.738281"/>
       <use xlink:href="#ArialMT-63" x="2462.353516"/>
       <use xlink:href="#ArialMT-75" x="2512.353516"/>
       <use xlink:href="#ArialMT-6c" x="2567.96875"/>
       <use xlink:href="#ArialMT-65" x="2590.185547"/>
       <use xlink:href="#ArialMT-73" x="2645.800781"/>
      </g>
     </g>
    </g>
    <g id="ytick_8">
     <g id="line2d_10">
      <g>
       <use xlink:href="#m9861ca61fe" x="575.29375" y="74.271186" style="stroke: #000000; stroke-width: 0.8"/>
      </g>
     </g>
     <g id="text_11">
      <!-- axo-dendritic transport -->
      <g transform="translate(419.067187 79.639546)scale(0.15 -0.15)">
       <defs>
        <path id="ArialMT-78" d="M 47 0 
L 1259 1725 
L 138 3319 
L 841 3319 
L 1350 2541 
Q 1494 2319 1581 2169 
Q 1719 2375 1834 2534 
L 2394 3319 
L 3066 3319 
L 1919 1756 
L 3153 0 
L 2463 0 
L 1781 1031 
L 1600 1309 
L 728 0 
L 47 0 
z
" transform="scale(0.015625)"/>
       </defs>
       <use xlink:href="#ArialMT-61"/>
       <use xlink:href="#ArialMT-78" x="55.615234"/>
       <use xlink:href="#ArialMT-6f" x="105.615234"/>
       <use xlink:href="#ArialMT-2d" x="161.230469"/>
       <use xlink:href="#ArialMT-64" x="194.53125"/>
       <use xlink:href="#ArialMT-65" x="250.146484"/>
       <use xlink:href="#ArialMT-6e" x="305.761719"/>
       <use xlink:href="#ArialMT-64" x="361.376953"/>
       <use xlink:href="#ArialMT-72" x="416.992188"/>
       <use xlink:href="#ArialMT-69" x="450.292969"/>
       <use xlink:href="#ArialMT-74" x="472.509766"/>
       <use xlink:href="#ArialMT-69" x="500.292969"/>
       <use xlink:href="#ArialMT-63" x="522.509766"/>
       <use xlink:href="#ArialMT-20" x="572.509766"/>
       <use xlink:href="#ArialMT-74" x="600.292969"/>
       <use xlink:href="#ArialMT-72" x="628.076172"/>
       <use xlink:href="#ArialMT-61" x="661.376953"/>
       <use xlink:href="#ArialMT-6e" x="716.992188"/>
       <use xlink:href="#ArialMT-73" x="772.607422"/>
       <use xlink:href="#ArialMT-70" x="822.607422"/>
       <use xlink:href="#ArialMT-6f" x="878.222656"/>
       <use xlink:href="#ArialMT-72" x="933.837891"/>
       <use xlink:href="#ArialMT-74" x="967.138672"/>
      </g>
     </g>
    </g>
    <g id="ytick_9">
     <g id="line2d_11">
      <g>
       <use xlink:href="#m9861ca61fe" x="575.29375" y="56.854415" style="stroke: #000000; stroke-width: 0.8"/>
      </g>
     </g>
     <g id="text_12">
      <!-- calcium-dependent cell-cell adhesion via plasma membrane cell adhesion molecules -->
      <g transform="translate(7.2 62.222775)scale(0.15 -0.15)">
       <use xlink:href="#ArialMT-63"/>
       <use xlink:href="#ArialMT-61" x="50"/>
       <use xlink:href="#ArialMT-6c" x="105.615234"/>
       <use xlink:href="#ArialMT-63" x="127.832031"/>
       <use xlink:href="#ArialMT-69" x="177.832031"/>
       <use xlink:href="#ArialMT-75" x="200.048828"/>
       <use xlink:href="#ArialMT-6d" x="255.664062"/>
       <use xlink:href="#ArialMT-2d" x="338.964844"/>
       <use xlink:href="#ArialMT-64" x="372.265625"/>
       <use xlink:href="#ArialMT-65" x="427.880859"/>
       <use xlink:href="#ArialMT-70" x="483.496094"/>
       <use xlink:href="#ArialMT-65" x="539.111328"/>
       <use xlink:href="#ArialMT-6e" x="594.726562"/>
       <use xlink:href="#ArialMT-64" x="650.341797"/>
       <use xlink:href="#ArialMT-65" x="705.957031"/>
       <use xlink:href="#ArialMT-6e" x="761.572266"/>
       <use xlink:href="#ArialMT-74" x="817.1875"/>
       <use xlink:href="#ArialMT-20" x="844.970703"/>
       <use xlink:href="#ArialMT-63" x="872.753906"/>
       <use xlink:href="#ArialMT-65" x="922.753906"/>
       <use xlink:href="#ArialMT-6c" x="978.369141"/>
       <use xlink:href="#ArialMT-6c" x="1000.585938"/>
       <use xlink:href="#ArialMT-2d" x="1022.802734"/>
       <use xlink:href="#ArialMT-63" x="1056.103516"/>
       <use xlink:href="#ArialMT-65" x="1106.103516"/>
       <use xlink:href="#ArialMT-6c" x="1161.71875"/>
       <use xlink:href="#ArialMT-6c" x="1183.935547"/>
       <use xlink:href="#ArialMT-20" x="1206.152344"/>
       <use xlink:href="#ArialMT-61" x="1233.935547"/>
       <use xlink:href="#ArialMT-64" x="1289.550781"/>
       <use xlink:href="#ArialMT-68" x="1345.166016"/>
       <use xlink:href="#ArialMT-65" x="1400.78125"/>
       <use xlink:href="#ArialMT-73" x="1456.396484"/>
       <use xlink:href="#ArialMT-69" x="1506.396484"/>
       <use xlink:href="#ArialMT-6f" x="1528.613281"/>
       <use xlink:href="#ArialMT-6e" x="1584.228516"/>
       <use xlink:href="#ArialMT-20" x="1639.84375"/>
       <use xlink:href="#ArialMT-76" x="1667.626953"/>
       <use xlink:href="#ArialMT-69" x="1717.626953"/>
       <use xlink:href="#ArialMT-61" x="1739.84375"/>
       <use xlink:href="#ArialMT-20" x="1795.458984"/>
       <use xlink:href="#ArialMT-70" x="1823.242188"/>
       <use xlink:href="#ArialMT-6c" x="1878.857422"/>
       <use xlink:href="#ArialMT-61" x="1901.074219"/>
       <use xlink:href="#ArialMT-73" x="1956.689453"/>
       <use xlink:href="#ArialMT-6d" x="2006.689453"/>
       <use xlink:href="#ArialMT-61" x="2089.990234"/>
       <use xlink:href="#ArialMT-20" x="2145.605469"/>
       <use xlink:href="#ArialMT-6d" x="2173.388672"/>
       <use xlink:href="#ArialMT-65" x="2256.689453"/>
       <use xlink:href="#ArialMT-6d" x="2312.304688"/>
       <use xlink:href="#ArialMT-62" x="2395.605469"/>
       <use xlink:href="#ArialMT-72" x="2451.220703"/>
       <use xlink:href="#ArialMT-61" x="2484.521484"/>
       <use xlink:href="#ArialMT-6e" x="2540.136719"/>
       <use xlink:href="#ArialMT-65" x="2595.751953"/>
       <use xlink:href="#ArialMT-20" x="2651.367188"/>
       <use xlink:href="#ArialMT-63" x="2679.150391"/>
       <use xlink:href="#ArialMT-65" x="2729.150391"/>
       <use xlink:href="#ArialMT-6c" x="2784.765625"/>
       <use xlink:href="#ArialMT-6c" x="2806.982422"/>
       <use xlink:href="#ArialMT-20" x="2829.199219"/>
       <use xlink:href="#ArialMT-61" x="2856.982422"/>
       <use xlink:href="#ArialMT-64" x="2912.597656"/>
       <use xlink:href="#ArialMT-68" x="2968.212891"/>
       <use xlink:href="#ArialMT-65" x="3023.828125"/>
       <use xlink:href="#ArialMT-73" x="3079.443359"/>
       <use xlink:href="#ArialMT-69" x="3129.443359"/>
       <use xlink:href="#ArialMT-6f" x="3151.660156"/>
       <use xlink:href="#ArialMT-6e" x="3207.275391"/>
       <use xlink:href="#ArialMT-20" x="3262.890625"/>
       <use xlink:href="#ArialMT-6d" x="3290.673828"/>
       <use xlink:href="#ArialMT-6f" x="3373.974609"/>
       <use xlink:href="#ArialMT-6c" x="3429.589844"/>
       <use xlink:href="#ArialMT-65" x="3451.806641"/>
       <use xlink:href="#ArialMT-63" x="3507.421875"/>
       <use xlink:href="#ArialMT-75" x="3557.421875"/>
       <use xlink:href="#ArialMT-6c" x="3613.037109"/>
       <use xlink:href="#ArialMT-65" x="3635.253906"/>
       <use xlink:href="#ArialMT-73" x="3690.869141"/>
      </g>
     </g>
    </g>
    <g id="ytick_10">
     <g id="line2d_12">
      <g>
       <use xlink:href="#m9861ca61fe" x="575.29375" y="39.437645" style="stroke: #000000; stroke-width: 0.8"/>
      </g>
     </g>
     <g id="text_13">
      <!-- synaptic signaling -->
      <g transform="translate(449.896875 44.806004)scale(0.15 -0.15)">
       <use xlink:href="#ArialMT-73"/>
       <use xlink:href="#ArialMT-79" x="50"/>
       <use xlink:href="#ArialMT-6e" x="100"/>
       <use xlink:href="#ArialMT-61" x="155.615234"/>
       <use xlink:href="#ArialMT-70" x="211.230469"/>
       <use xlink:href="#ArialMT-74" x="266.845703"/>
       <use xlink:href="#ArialMT-69" x="294.628906"/>
       <use xlink:href="#ArialMT-63" x="316.845703"/>
       <use xlink:href="#ArialMT-20" x="366.845703"/>
       <use xlink:href="#ArialMT-73" x="394.628906"/>
       <use xlink:href="#ArialMT-69" x="444.628906"/>
       <use xlink:href="#ArialMT-67" x="466.845703"/>
       <use xlink:href="#ArialMT-6e" x="522.460938"/>
       <use xlink:href="#ArialMT-61" x="578.076172"/>
       <use xlink:href="#ArialMT-6c" x="633.691406"/>
       <use xlink:href="#ArialMT-69" x="655.908203"/>
       <use xlink:href="#ArialMT-6e" x="678.125"/>
       <use xlink:href="#ArialMT-67" x="733.740234"/>
      </g>
     </g>
    </g>
   </g>
   <g id="patch_23">
    <path d="M 575.29375 211.689507 
L 575.29375 23.936719 
" style="fill: none; stroke: #000000; stroke-width: 0.8; stroke-linejoin: miter; stroke-linecap: square"/>
   </g>
   <g id="patch_24">
    <path d="M 647.83375 211.689507 
L 647.83375 23.936719 
" style="fill: none"/>
   </g>
   <g id="patch_25">
    <path d="M 575.29375 211.689507 
L 647.83375 211.689507 
" style="fill: none; stroke: #000000; stroke-width: 0.8; stroke-linejoin: miter; stroke-linecap: square"/>
   </g>
   <g id="patch_26">
    <path d="M 575.29375 23.936719 
L 647.83375 23.936719 
" style="fill: none"/>
   </g>
   <g id="text_14">
    <!-- 4 -->
    <g transform="translate(607.393047 17.936719)scale(0.15 -0.15)">
     <defs>
      <path id="ArialMT-34" d="M 2069 0 
L 2069 1097 
L 81 1097 
L 81 1613 
L 2172 4581 
L 2631 4581 
L 2631 1613 
L 3250 1613 
L 3250 1097 
L 2631 1097 
L 2631 0 
L 2069 0 
z
M 2069 1613 
L 2069 3678 
L 634 1613 
L 2069 1613 
z
" transform="scale(0.015625)"/>
     </defs>
     <use xlink:href="#ArialMT-34"/>
    </g>
   </g>
  </g>
 </g>
 <defs>
  <clipPath id="p91fb56dfe2">
   <rect x="575.29375" y="23.936719" width="72.54" height="187.752788"/>
  </clipPath>
 </defs>
</svg>
