<?xml version="1.0" encoding="utf-8" standalone="no"?>
<!DOCTYPE svg PUBLIC "-//W3C//DTD SVG 1.1//EN"
  "http://www.w3.org/Graphics/SVG/1.1/DTD/svg11.dtd">
<svg xmlns:xlink="http://www.w3.org/1999/xlink" width="317.212094pt" height="602.360937pt" viewBox="0 0 317.212094 602.360937" xmlns="http://www.w3.org/2000/svg" version="1.1">
 <metadata>
  <rdf:RDF xmlns:dc="http://purl.org/dc/elements/1.1/" xmlns:cc="http://creativecommons.org/ns#" xmlns:rdf="http://www.w3.org/1999/02/22-rdf-syntax-ns#">
   <cc:Work>
    <dc:type rdf:resource="http://purl.org/dc/dcmitype/StillImage"/>
    <dc:date>2025-08-12T14:38:47.068432</dc:date>
    <dc:format>image/svg+xml</dc:format>
    <dc:creator>
     <cc:Agent>
      <dc:title>Matplotlib v3.5.3, https://matplotlib.org/</dc:title>
     </cc:Agent>
    </dc:creator>
   </cc:Work>
  </rdf:RDF>
 </metadata>
 <defs>
  <style type="text/css">*{stroke-linejoin: round; stroke-linecap: butt}</style>
 </defs>
 <g id="figure_1">
  <g id="patch_1">
   <path d="M 0 602.360937 
L 317.212094 602.360937 
L 317.212094 0 
L 0 0 
L 0 602.360937 
z
" style="fill: none"/>
  </g>
  <g id="axes_1">
   <g id="patch_2">
    <path d="M 75.134125 172.092822 
L 298.334125 172.092822 
L 298.334125 12.210469 
L 75.134125 12.210469 
z
" style="fill: #ffffff"/>
   </g>
   <g id="PathCollection_1">
    <defs>
     <path id="mcdb4980552" d="M 0 0.5 
C 0.132602 0.5 0.25979 0.447317 0.353553 0.353553 
C 0.447317 0.25979 0.5 0.132602 0.5 0 
C 0.5 -0.132602 0.447317 -0.25979 0.353553 -0.353553 
C 0.25979 -0.447317 0.132602 -0.5 0 -0.5 
C -0.132602 -0.5 -0.25979 -0.447317 -0.353553 -0.353553 
C -0.447317 -0.25979 -0.5 -0.132602 -0.5 0 
C -0.5 0.132602 -0.447317 0.25979 -0.353553 0.353553 
C -0.25979 0.447317 -0.132602 0.5 0 0.5 
z
" style="stroke: #1f77b4; stroke-opacity: 0.5"/>
    </defs>
    <g clip-path="url(#p2967db3fd4)">
     <use xlink:href="#mcdb4980552" x="71.546982" y="79.257907" style="fill: #1f77b4; fill-opacity: 0.5; stroke: #1f77b4; stroke-opacity: 0.5"/>
     <use xlink:href="#mcdb4980552" x="74.336982" y="83.736785" style="fill: #1f77b4; fill-opacity: 0.5; stroke: #1f77b4; stroke-opacity: 0.5"/>
     <use xlink:href="#mcdb4980552" x="75.532696" y="59.005304" style="fill: #1f77b4; fill-opacity: 0.5; stroke: #1f77b4; stroke-opacity: 0.5"/>
     <use xlink:href="#mcdb4980552" x="77.525554" y="78.248832" style="fill: #1f77b4; fill-opacity: 0.5; stroke: #1f77b4; stroke-opacity: 0.5"/>
     <use xlink:href="#mcdb4980552" x="78.322696" y="62.173704" style="fill: #1f77b4; fill-opacity: 0.5; stroke: #1f77b4; stroke-opacity: 0.5"/>
     <use xlink:href="#mcdb4980552" x="79.916982" y="39.882414" style="fill: #1f77b4; fill-opacity: 0.5; stroke: #1f77b4; stroke-opacity: 0.5"/>
     <use xlink:href="#mcdb4980552" x="83.504125" y="67.251935" style="fill: #1f77b4; fill-opacity: 0.5; stroke: #1f77b4; stroke-opacity: 0.5"/>
     <use xlink:href="#mcdb4980552" x="83.504125" y="33.178646" style="fill: #1f77b4; fill-opacity: 0.5; stroke: #1f77b4; stroke-opacity: 0.5"/>
     <use xlink:href="#mcdb4980552" x="85.098411" y="56.485582" style="fill: #1f77b4; fill-opacity: 0.5; stroke: #1f77b4; stroke-opacity: 0.5"/>
     <use xlink:href="#mcdb4980552" x="85.895554" y="59.936544" style="fill: #1f77b4; fill-opacity: 0.5; stroke: #1f77b4; stroke-opacity: 0.5"/>
     <use xlink:href="#mcdb4980552" x="86.294125" y="61.585901" style="fill: #1f77b4; fill-opacity: 0.5; stroke: #1f77b4; stroke-opacity: 0.5"/>
     <use xlink:href="#mcdb4980552" x="86.692696" y="58.55318" style="fill: #1f77b4; fill-opacity: 0.5; stroke: #1f77b4; stroke-opacity: 0.5"/>
     <use xlink:href="#mcdb4980552" x="86.692696" y="23.796146" style="fill: #1f77b4; fill-opacity: 0.5; stroke: #1f77b4; stroke-opacity: 0.5"/>
     <use xlink:href="#mcdb4980552" x="89.482696" y="43.766196" style="fill: #1f77b4; fill-opacity: 0.5; stroke: #1f77b4; stroke-opacity: 0.5"/>
     <use xlink:href="#mcdb4980552" x="89.881268" y="20.516046" style="fill: #1f77b4; fill-opacity: 0.5; stroke: #1f77b4; stroke-opacity: 0.5"/>
     <use xlink:href="#mcdb4980552" x="90.678411" y="50.663187" style="fill: #1f77b4; fill-opacity: 0.5; stroke: #1f77b4; stroke-opacity: 0.5"/>
     <use xlink:href="#mcdb4980552" x="91.475554" y="57.609162" style="fill: #1f77b4; fill-opacity: 0.5; stroke: #1f77b4; stroke-opacity: 0.5"/>
     <use xlink:href="#mcdb4980552" x="92.671268" y="23.630637" style="fill: #1f77b4; fill-opacity: 0.5; stroke: #1f77b4; stroke-opacity: 0.5"/>
     <use xlink:href="#mcdb4980552" x="95.062696" y="31.751645" style="fill: #1f77b4; fill-opacity: 0.5; stroke: #1f77b4; stroke-opacity: 0.5"/>
     <use xlink:href="#mcdb4980552" x="95.461268" y="26.26606" style="fill: #1f77b4; fill-opacity: 0.5; stroke: #1f77b4; stroke-opacity: 0.5"/>
     <use xlink:href="#mcdb4980552" x="95.461268" y="31.536907" style="fill: #1f77b4; fill-opacity: 0.5; stroke: #1f77b4; stroke-opacity: 0.5"/>
     <use xlink:href="#mcdb4980552" x="97.852696" y="17.155284" style="fill: #1f77b4; fill-opacity: 0.5; stroke: #1f77b4; stroke-opacity: 0.5"/>
     <use xlink:href="#mcdb4980552" x="97.852696" y="20.451827" style="fill: #1f77b4; fill-opacity: 0.5; stroke: #1f77b4; stroke-opacity: 0.5"/>
     <use xlink:href="#mcdb4980552" x="101.041268" y="18.301225" style="fill: #1f77b4; fill-opacity: 0.5; stroke: #1f77b4; stroke-opacity: 0.5"/>
     <use xlink:href="#mcdb4980552" x="103.034125" y="15.117421" style="fill: #1f77b4; fill-opacity: 0.5; stroke: #1f77b4; stroke-opacity: 0.5"/>
     <use xlink:href="#mcdb4980552" x="103.034125" y="15.117421" style="fill: #1f77b4; fill-opacity: 0.5; stroke: #1f77b4; stroke-opacity: 0.5"/>
     <use xlink:href="#mcdb4980552" x="103.831268" y="15.065511" style="fill: #1f77b4; fill-opacity: 0.5; stroke: #1f77b4; stroke-opacity: 0.5"/>
     <use xlink:href="#mcdb4980552" x="105.425554" y="17.723653" style="fill: #1f77b4; fill-opacity: 0.5; stroke: #1f77b4; stroke-opacity: 0.5"/>
     <use xlink:href="#mcdb4980552" x="108.614125" y="16.07859" style="fill: #1f77b4; fill-opacity: 0.5; stroke: #1f77b4; stroke-opacity: 0.5"/>
     <use xlink:href="#mcdb4980552" x="109.411268" y="23.630637" style="fill: #1f77b4; fill-opacity: 0.5; stroke: #1f77b4; stroke-opacity: 0.5"/>
     <use xlink:href="#mcdb4980552" x="109.411268" y="13.479376" style="fill: #1f77b4; fill-opacity: 0.5; stroke: #1f77b4; stroke-opacity: 0.5"/>
     <use xlink:href="#mcdb4980552" x="113.795554" y="13.377493" style="fill: #1f77b4; fill-opacity: 0.5; stroke: #1f77b4; stroke-opacity: 0.5"/>
     <use xlink:href="#mcdb4980552" x="113.795554" y="13.377493" style="fill: #1f77b4; fill-opacity: 0.5; stroke: #1f77b4; stroke-opacity: 0.5"/>
     <use xlink:href="#mcdb4980552" x="115.389839" y="19.013973" style="fill: #1f77b4; fill-opacity: 0.5; stroke: #1f77b4; stroke-opacity: 0.5"/>
     <use xlink:href="#mcdb4980552" x="115.389839" y="17.880056" style="fill: #1f77b4; fill-opacity: 0.5; stroke: #1f77b4; stroke-opacity: 0.5"/>
     <use xlink:href="#mcdb4980552" x="121.766982" y="19.338981" style="fill: #1f77b4; fill-opacity: 0.5; stroke: #1f77b4; stroke-opacity: 0.5"/>
     <use xlink:href="#mcdb4980552" x="122.564125" y="15.227117" style="fill: #1f77b4; fill-opacity: 0.5; stroke: #1f77b4; stroke-opacity: 0.5"/>
     <use xlink:href="#mcdb4980552" x="122.962696" y="13.209733" style="fill: #1f77b4; fill-opacity: 0.5; stroke: #1f77b4; stroke-opacity: 0.5"/>
     <use xlink:href="#mcdb4980552" x="126.151268" y="17.920553" style="fill: #1f77b4; fill-opacity: 0.5; stroke: #1f77b4; stroke-opacity: 0.5"/>
     <use xlink:href="#mcdb4980552" x="127.346982" y="13.145453" style="fill: #1f77b4; fill-opacity: 0.5; stroke: #1f77b4; stroke-opacity: 0.5"/>
     <use xlink:href="#mcdb4980552" x="127.745554" y="17.78776" style="fill: #1f77b4; fill-opacity: 0.5; stroke: #1f77b4; stroke-opacity: 0.5"/>
     <use xlink:href="#mcdb4980552" x="132.926982" y="13.074698" style="fill: #1f77b4; fill-opacity: 0.5; stroke: #1f77b4; stroke-opacity: 0.5"/>
     <use xlink:href="#mcdb4980552" x="138.506982" y="13.013898" style="fill: #1f77b4; fill-opacity: 0.5; stroke: #1f77b4; stroke-opacity: 0.5"/>
     <use xlink:href="#mcdb4980552" x="143.688411" y="19.752089" style="fill: #1f77b4; fill-opacity: 0.5; stroke: #1f77b4; stroke-opacity: 0.5"/>
     <use xlink:href="#mcdb4980552" x="146.478411" y="12.940525" style="fill: #1f77b4; fill-opacity: 0.5; stroke: #1f77b4; stroke-opacity: 0.5"/>
     <use xlink:href="#mcdb4980552" x="147.674125" y="12.93066" style="fill: #1f77b4; fill-opacity: 0.5; stroke: #1f77b4; stroke-opacity: 0.5"/>
     <use xlink:href="#mcdb4980552" x="149.666982" y="17.140762" style="fill: #1f77b4; fill-opacity: 0.5; stroke: #1f77b4; stroke-opacity: 0.5"/>
     <use xlink:href="#mcdb4980552" x="150.065554" y="12.911707" style="fill: #1f77b4; fill-opacity: 0.5; stroke: #1f77b4; stroke-opacity: 0.5"/>
     <use xlink:href="#mcdb4980552" x="160.826982" y="22.242303" style="fill: #1f77b4; fill-opacity: 0.5; stroke: #1f77b4; stroke-opacity: 0.5"/>
     <use xlink:href="#mcdb4980552" x="160.826982" y="12.837458" style="fill: #1f77b4; fill-opacity: 0.5; stroke: #1f77b4; stroke-opacity: 0.5"/>
     <use xlink:href="#mcdb4980552" x="161.624125" y="18.431572" style="fill: #1f77b4; fill-opacity: 0.5; stroke: #1f77b4; stroke-opacity: 0.5"/>
     <use xlink:href="#mcdb4980552" x="162.819839" y="12.825401" style="fill: #1f77b4; fill-opacity: 0.5; stroke: #1f77b4; stroke-opacity: 0.5"/>
     <use xlink:href="#mcdb4980552" x="164.414125" y="20.083463" style="fill: #1f77b4; fill-opacity: 0.5; stroke: #1f77b4; stroke-opacity: 0.5"/>
     <use xlink:href="#mcdb4980552" x="174.776982" y="12.761787" style="fill: #1f77b4; fill-opacity: 0.5; stroke: #1f77b4; stroke-opacity: 0.5"/>
     <use xlink:href="#mcdb4980552" x="174.776982" y="21.582883" style="fill: #1f77b4; fill-opacity: 0.5; stroke: #1f77b4; stroke-opacity: 0.5"/>
     <use xlink:href="#mcdb4980552" x="175.972696" y="12.756142" style="fill: #1f77b4; fill-opacity: 0.5; stroke: #1f77b4; stroke-opacity: 0.5"/>
     <use xlink:href="#mcdb4980552" x="177.965554" y="17.575648" style="fill: #1f77b4; fill-opacity: 0.5; stroke: #1f77b4; stroke-opacity: 0.5"/>
     <use xlink:href="#mcdb4980552" x="179.161268" y="19.646857" style="fill: #1f77b4; fill-opacity: 0.5; stroke: #1f77b4; stroke-opacity: 0.5"/>
     <use xlink:href="#mcdb4980552" x="185.538411" y="15.236633" style="fill: #1f77b4; fill-opacity: 0.5; stroke: #1f77b4; stroke-opacity: 0.5"/>
     <use xlink:href="#mcdb4980552" x="186.734125" y="13.209733" style="fill: #1f77b4; fill-opacity: 0.5; stroke: #1f77b4; stroke-opacity: 0.5"/>
     <use xlink:href="#mcdb4980552" x="187.531268" y="16.182701" style="fill: #1f77b4; fill-opacity: 0.5; stroke: #1f77b4; stroke-opacity: 0.5"/>
     <use xlink:href="#mcdb4980552" x="187.531268" y="15.686172" style="fill: #1f77b4; fill-opacity: 0.5; stroke: #1f77b4; stroke-opacity: 0.5"/>
     <use xlink:href="#mcdb4980552" x="190.719839" y="18.993356" style="fill: #1f77b4; fill-opacity: 0.5; stroke: #1f77b4; stroke-opacity: 0.5"/>
     <use xlink:href="#mcdb4980552" x="192.712696" y="13.16499" style="fill: #1f77b4; fill-opacity: 0.5; stroke: #1f77b4; stroke-opacity: 0.5"/>
     <use xlink:href="#mcdb4980552" x="197.096982" y="14.982995" style="fill: #1f77b4; fill-opacity: 0.5; stroke: #1f77b4; stroke-opacity: 0.5"/>
     <use xlink:href="#mcdb4980552" x="199.089839" y="14.9435" style="fill: #1f77b4; fill-opacity: 0.5; stroke: #1f77b4; stroke-opacity: 0.5"/>
     <use xlink:href="#mcdb4980552" x="200.285554" y="19.888435" style="fill: #1f77b4; fill-opacity: 0.5; stroke: #1f77b4; stroke-opacity: 0.5"/>
     <use xlink:href="#mcdb4980552" x="200.684125" y="14.01196" style="fill: #1f77b4; fill-opacity: 0.5; stroke: #1f77b4; stroke-opacity: 0.5"/>
     <use xlink:href="#mcdb4980552" x="202.278411" y="13.546533" style="fill: #1f77b4; fill-opacity: 0.5; stroke: #1f77b4; stroke-opacity: 0.5"/>
     <use xlink:href="#mcdb4980552" x="207.858411" y="13.067747" style="fill: #1f77b4; fill-opacity: 0.5; stroke: #1f77b4; stroke-opacity: 0.5"/>
     <use xlink:href="#mcdb4980552" x="207.858411" y="16.496859" style="fill: #1f77b4; fill-opacity: 0.5; stroke: #1f77b4; stroke-opacity: 0.5"/>
     <use xlink:href="#mcdb4980552" x="207.858411" y="15.210942" style="fill: #1f77b4; fill-opacity: 0.5; stroke: #1f77b4; stroke-opacity: 0.5"/>
     <use xlink:href="#mcdb4980552" x="209.851268" y="18.132037" style="fill: #1f77b4; fill-opacity: 0.5; stroke: #1f77b4; stroke-opacity: 0.5"/>
     <use xlink:href="#mcdb4980552" x="211.844125" y="15.550048" style="fill: #1f77b4; fill-opacity: 0.5; stroke: #1f77b4; stroke-opacity: 0.5"/>
     <use xlink:href="#mcdb4980552" x="216.626982" y="13.424765" style="fill: #1f77b4; fill-opacity: 0.5; stroke: #1f77b4; stroke-opacity: 0.5"/>
     <use xlink:href="#mcdb4980552" x="217.025554" y="12.614212" style="fill: #1f77b4; fill-opacity: 0.5; stroke: #1f77b4; stroke-opacity: 0.5"/>
     <use xlink:href="#mcdb4980552" x="217.424125" y="15.432279" style="fill: #1f77b4; fill-opacity: 0.5; stroke: #1f77b4; stroke-opacity: 0.5"/>
     <use xlink:href="#mcdb4980552" x="217.822696" y="16.629328" style="fill: #1f77b4; fill-opacity: 0.5; stroke: #1f77b4; stroke-opacity: 0.5"/>
     <use xlink:href="#mcdb4980552" x="218.221268" y="19.823914" style="fill: #1f77b4; fill-opacity: 0.5; stroke: #1f77b4; stroke-opacity: 0.5"/>
     <use xlink:href="#mcdb4980552" x="223.801268" y="14.533215" style="fill: #1f77b4; fill-opacity: 0.5; stroke: #1f77b4; stroke-opacity: 0.5"/>
     <use xlink:href="#mcdb4980552" x="224.598411" y="16.448314" style="fill: #1f77b4; fill-opacity: 0.5; stroke: #1f77b4; stroke-opacity: 0.5"/>
     <use xlink:href="#mcdb4980552" x="227.388411" y="16.756886" style="fill: #1f77b4; fill-opacity: 0.5; stroke: #1f77b4; stroke-opacity: 0.5"/>
     <use xlink:href="#mcdb4980552" x="228.584125" y="15.596213" style="fill: #1f77b4; fill-opacity: 0.5; stroke: #1f77b4; stroke-opacity: 0.5"/>
     <use xlink:href="#mcdb4980552" x="228.982696" y="15.212954" style="fill: #1f77b4; fill-opacity: 0.5; stroke: #1f77b4; stroke-opacity: 0.5"/>
     <use xlink:href="#mcdb4980552" x="230.975554" y="13.694296" style="fill: #1f77b4; fill-opacity: 0.5; stroke: #1f77b4; stroke-opacity: 0.5"/>
     <use xlink:href="#mcdb4980552" x="233.366982" y="18.796012" style="fill: #1f77b4; fill-opacity: 0.5; stroke: #1f77b4; stroke-opacity: 0.5"/>
     <use xlink:href="#mcdb4980552" x="236.156982" y="20.852758" style="fill: #1f77b4; fill-opacity: 0.5; stroke: #1f77b4; stroke-opacity: 0.5"/>
     <use xlink:href="#mcdb4980552" x="238.149839" y="19.332177" style="fill: #1f77b4; fill-opacity: 0.5; stroke: #1f77b4; stroke-opacity: 0.5"/>
     <use xlink:href="#mcdb4980552" x="242.135554" y="20.57033" style="fill: #1f77b4; fill-opacity: 0.5; stroke: #1f77b4; stroke-opacity: 0.5"/>
     <use xlink:href="#mcdb4980552" x="247.316982" y="18.646411" style="fill: #1f77b4; fill-opacity: 0.5; stroke: #1f77b4; stroke-opacity: 0.5"/>
    </g>
   </g>
   <g id="PolyCollection_1">
    <defs>
     <path id="m437c033125" d="M 75.452982 -507.656582 
L 75.452982 -552.096281 
L 77.126982 -572.401974 
L 78.960411 -569.109676 
L 80.554696 -584.163979 
L 82.069268 -579.842994 
L 83.583839 -579.556479 
L 84.859268 -573.014573 
L 85.496982 -571.933453 
L 86.134696 -582.123013 
L 87.011554 -584.934922 
L 87.808696 -598.836203 
L 88.685554 -596.261152 
L 89.642125 -595.916029 
L 90.837839 -596.027393 
L 91.953839 -598.531173 
L 93.069839 -594.841207 
L 94.026411 -595.32632 
L 95.301839 -588.443108 
L 96.338125 -590.013302 
L 97.533839 -591.699495 
L 99.048411 -594.763851 
L 100.562982 -589.655492 
L 101.758696 -590.475655 
L 103.273268 -589.312494 
L 104.787839 -588.831107 
L 106.063268 -591.997096 
L 107.338696 -592.993784 
L 109.331554 -593.914555 
L 111.005554 -595.223253 
L 112.360696 -595.045898 
L 113.556411 -592.510028 
L 116.027554 -591.741373 
L 117.781268 -590.547229 
L 119.614696 -590.698479 
L 121.766982 -590.564662 
L 124.158411 -592.169345 
L 125.354125 -591.587665 
L 127.426696 -592.495526 
L 130.535554 -592.606136 
L 134.042982 -593.394847 
L 137.869268 -593.508912 
L 141.854982 -594.067943 
L 145.202982 -593.491239 
L 147.514696 -593.547059 
L 150.942411 -594.968725 
L 153.812125 -595.023459 
L 156.602125 -593.596718 
L 159.232696 -595.13582 
L 162.102411 -593.643666 
L 164.892411 -594.133998 
L 167.682411 -593.46138 
L 170.552125 -595.243255 
L 173.581268 -593.582274 
L 176.530696 -593.510089 
L 178.682982 -591.987946 
L 181.074411 -592.522049 
L 183.386125 -590.838124 
L 185.299268 -591.037508 
L 187.610982 -590.666323 
L 189.045839 -591.749664 
L 191.118411 -590.797726 
L 193.430125 -591.07906 
L 195.980982 -591.75326 
L 197.973839 -592.201859 
L 199.886982 -591.971765 
L 202.039268 -592.808291 
L 203.792982 -592.628774 
L 205.307554 -590.666494 
L 207.140982 -591.255567 
L 209.054125 -590.376141 
L 210.807839 -590.057537 
L 212.641268 -591.65579 
L 214.554411 -591.627678 
L 216.148696 -590.940391 
L 217.424125 -592.483448 
L 218.858982 -591.91799 
L 220.373554 -589.793664 
L 222.366411 -589.32125 
L 224.518696 -589.693495 
L 226.670982 -588.464127 
L 228.105839 -589.232206 
L 229.859554 -590.156065 
L 231.613268 -591.362943 
L 233.526411 -590.780075 
L 236.156982 -589.507123 
L 239.425268 -584.753784 
L 239.425268 -580.689016 
L 239.425268 -580.689016 
L 236.156982 -577.916523 
L 233.526411 -578.786521 
L 231.613268 -579.698039 
L 229.859554 -582.543265 
L 228.105839 -584.406204 
L 226.670982 -584.838715 
L 224.518696 -581.764963 
L 222.366411 -581.723962 
L 220.373554 -581.781391 
L 218.858982 -581.190705 
L 217.424125 -581.068627 
L 216.148696 -584.321231 
L 214.554411 -583.03286 
L 212.641268 -583.093283 
L 210.807839 -583.138478 
L 209.054125 -582.96268 
L 207.140982 -582.884661 
L 205.307554 -585.121765 
L 203.792982 -581.288488 
L 202.039268 -581.730314 
L 199.886982 -581.80074 
L 197.973839 -581.723263 
L 195.980982 -580.179304 
L 193.430125 -582.534409 
L 191.118411 -582.320063 
L 189.045839 -582.077429 
L 187.610982 -582.332114 
L 185.299268 -581.699528 
L 183.386125 -581.143122 
L 181.074411 -580.829821 
L 178.682982 -578.014664 
L 176.530696 -577.482459 
L 173.581268 -577.235632 
L 170.552125 -577.47475 
L 167.682411 -576.986453 
L 164.892411 -579.812004 
L 162.102411 -576.51013 
L 159.232696 -577.886679 
L 156.602125 -577.699636 
L 153.812125 -578.47326 
L 150.942411 -578.486768 
L 147.514696 -580.904519 
L 145.202982 -580.919463 
L 141.854982 -581.969184 
L 137.869268 -580.585375 
L 134.042982 -580.617469 
L 130.535554 -582.138795 
L 127.426696 -582.17107 
L 125.354125 -582.217963 
L 124.158411 -581.015795 
L 121.766982 -580.726637 
L 119.614696 -580.155452 
L 117.781268 -580.239598 
L 116.027554 -579.785304 
L 113.556411 -581.360491 
L 112.360696 -576.524388 
L 111.005554 -577.521187 
L 109.331554 -577.09142 
L 107.338696 -577.336984 
L 106.063268 -577.678454 
L 104.787839 -584.24973 
L 103.273268 -582.879289 
L 101.758696 -580.624858 
L 100.562982 -580.609112 
L 99.048411 -568.932959 
L 97.533839 -567.537859 
L 96.338125 -563.843884 
L 95.301839 -564.142553 
L 94.026411 -541.077791 
L 93.069839 -533.912392 
L 91.953839 -532.522431 
L 90.837839 -530.220391 
L 89.642125 -530.265552 
L 88.685554 -529.542821 
L 87.808696 -522.598684 
L 87.011554 -520.731766 
L 86.134696 -518.455921 
L 85.496982 -524.892481 
L 84.859268 -520.331859 
L 83.583839 -522.471348 
L 82.069268 -521.289968 
L 80.554696 -508.263683 
L 78.960411 -512.987323 
L 77.126982 -503.101086 
L 75.452982 -507.656582 
z
" style="stroke: #1f77b4; stroke-opacity: 0.1"/>
    </defs>
    <g clip-path="url(#p2967db3fd4)">
     <use xlink:href="#m437c033125" x="0" y="602.360937" style="fill: #1f77b4; fill-opacity: 0.1; stroke: #1f77b4; stroke-opacity: 0.1"/>
    </g>
   </g>
   <g id="matplotlib.axis_1">
    <g id="xtick_1">
     <g id="line2d_1">
      <defs>
       <path id="m1243b02bbf" d="M 0 0 
L 0 3.5 
" style="stroke: #000000; stroke-width: 0.8"/>
      </defs>
      <g>
       <use xlink:href="#m1243b02bbf" x="138.905554" y="172.092822" style="stroke: #000000; stroke-width: 0.8"/>
      </g>
     </g>
     <g id="text_1">
      <!-- 200 -->
      <g transform="translate(127.227585 189.113759)scale(0.14 -0.14)">
       <defs>
        <path id="ArialMT-32" d="M 3222 541 
L 3222 0 
L 194 0 
Q 188 203 259 391 
Q 375 700 629 1000 
Q 884 1300 1366 1694 
Q 2113 2306 2375 2664 
Q 2638 3022 2638 3341 
Q 2638 3675 2398 3904 
Q 2159 4134 1775 4134 
Q 1369 4134 1125 3890 
Q 881 3647 878 3216 
L 300 3275 
Q 359 3922 746 4261 
Q 1134 4600 1788 4600 
Q 2447 4600 2831 4234 
Q 3216 3869 3216 3328 
Q 3216 3053 3103 2787 
Q 2991 2522 2730 2228 
Q 2469 1934 1863 1422 
Q 1356 997 1212 845 
Q 1069 694 975 541 
L 3222 541 
z
" transform="scale(0.015625)"/>
        <path id="ArialMT-30" d="M 266 2259 
Q 266 3072 433 3567 
Q 600 4063 929 4331 
Q 1259 4600 1759 4600 
Q 2128 4600 2406 4451 
Q 2684 4303 2865 4023 
Q 3047 3744 3150 3342 
Q 3253 2941 3253 2259 
Q 3253 1453 3087 958 
Q 2922 463 2592 192 
Q 2263 -78 1759 -78 
Q 1097 -78 719 397 
Q 266 969 266 2259 
z
M 844 2259 
Q 844 1131 1108 757 
Q 1372 384 1759 384 
Q 2147 384 2411 759 
Q 2675 1134 2675 2259 
Q 2675 3391 2411 3762 
Q 2147 4134 1753 4134 
Q 1366 4134 1134 3806 
Q 844 3388 844 2259 
z
" transform="scale(0.015625)"/>
       </defs>
       <use xlink:href="#ArialMT-32"/>
       <use xlink:href="#ArialMT-30" x="55.615234"/>
       <use xlink:href="#ArialMT-30" x="111.230469"/>
      </g>
     </g>
    </g>
    <g id="xtick_2">
     <g id="line2d_2">
      <g>
       <use xlink:href="#m1243b02bbf" x="218.619839" y="172.092822" style="stroke: #000000; stroke-width: 0.8"/>
      </g>
     </g>
     <g id="text_2">
      <!-- 400 -->
      <g transform="translate(206.941871 189.113759)scale(0.14 -0.14)">
       <defs>
        <path id="ArialMT-34" d="M 2069 0 
L 2069 1097 
L 81 1097 
L 81 1613 
L 2172 4581 
L 2631 4581 
L 2631 1613 
L 3250 1613 
L 3250 1097 
L 2631 1097 
L 2631 0 
L 2069 0 
z
M 2069 1613 
L 2069 3678 
L 634 1613 
L 2069 1613 
z
" transform="scale(0.015625)"/>
       </defs>
       <use xlink:href="#ArialMT-34"/>
       <use xlink:href="#ArialMT-30" x="55.615234"/>
       <use xlink:href="#ArialMT-30" x="111.230469"/>
      </g>
     </g>
    </g>
    <g id="xtick_3">
     <g id="line2d_3">
      <g>
       <use xlink:href="#m1243b02bbf" x="298.334125" y="172.092822" style="stroke: #000000; stroke-width: 0.8"/>
      </g>
     </g>
     <g id="text_3">
      <!-- 600 -->
      <g transform="translate(286.656156 189.113759)scale(0.14 -0.14)">
       <defs>
        <path id="ArialMT-36" d="M 3184 3459 
L 2625 3416 
Q 2550 3747 2413 3897 
Q 2184 4138 1850 4138 
Q 1581 4138 1378 3988 
Q 1113 3794 959 3422 
Q 806 3050 800 2363 
Q 1003 2672 1297 2822 
Q 1591 2972 1913 2972 
Q 2475 2972 2870 2558 
Q 3266 2144 3266 1488 
Q 3266 1056 3080 686 
Q 2894 316 2569 119 
Q 2244 -78 1831 -78 
Q 1128 -78 684 439 
Q 241 956 241 2144 
Q 241 3472 731 4075 
Q 1159 4600 1884 4600 
Q 2425 4600 2770 4297 
Q 3116 3994 3184 3459 
z
M 888 1484 
Q 888 1194 1011 928 
Q 1134 663 1356 523 
Q 1578 384 1822 384 
Q 2178 384 2434 671 
Q 2691 959 2691 1453 
Q 2691 1928 2437 2201 
Q 2184 2475 1800 2475 
Q 1419 2475 1153 2201 
Q 888 1928 888 1484 
z
" transform="scale(0.015625)"/>
       </defs>
       <use xlink:href="#ArialMT-36"/>
       <use xlink:href="#ArialMT-30" x="55.615234"/>
       <use xlink:href="#ArialMT-30" x="111.230469"/>
      </g>
     </g>
    </g>
   </g>
   <g id="matplotlib.axis_2">
    <g id="ytick_1">
     <g id="line2d_4">
      <defs>
       <path id="mab70f01600" d="M 0 0 
L -3.5 0 
" style="stroke: #000000; stroke-width: 0.8"/>
      </defs>
      <g>
       <use xlink:href="#mab70f01600" x="75.134125" y="12.210469" style="stroke: #000000; stroke-width: 0.8"/>
      </g>
     </g>
     <g id="text_4">
      <!-- 0 -->
      <g transform="translate(60.348813 17.220937)scale(0.14 -0.14)">
       <use xlink:href="#ArialMT-30"/>
      </g>
     </g>
    </g>
    <g id="ytick_2">
     <g id="line2d_5">
      <g>
       <use xlink:href="#mab70f01600" x="75.134125" y="44.186939" style="stroke: #000000; stroke-width: 0.8"/>
      </g>
     </g>
     <g id="text_5">
      <!-- 20 -->
      <g transform="translate(52.5635 49.197408)scale(0.14 -0.14)">
       <use xlink:href="#ArialMT-32"/>
       <use xlink:href="#ArialMT-30" x="55.615234"/>
      </g>
     </g>
    </g>
    <g id="ytick_3">
     <g id="line2d_6">
      <g>
       <use xlink:href="#mab70f01600" x="75.134125" y="76.16341" style="stroke: #000000; stroke-width: 0.8"/>
      </g>
     </g>
     <g id="text_6">
      <!-- 40 -->
      <g transform="translate(52.5635 81.173879)scale(0.14 -0.14)">
       <use xlink:href="#ArialMT-34"/>
       <use xlink:href="#ArialMT-30" x="55.615234"/>
      </g>
     </g>
    </g>
    <g id="ytick_4">
     <g id="line2d_7">
      <g>
       <use xlink:href="#mab70f01600" x="75.134125" y="108.139881" style="stroke: #000000; stroke-width: 0.8"/>
      </g>
     </g>
     <g id="text_7">
      <!-- 60 -->
      <g transform="translate(52.5635 113.150349)scale(0.14 -0.14)">
       <use xlink:href="#ArialMT-36"/>
       <use xlink:href="#ArialMT-30" x="55.615234"/>
      </g>
     </g>
    </g>
    <g id="ytick_5">
     <g id="line2d_8">
      <g>
       <use xlink:href="#mab70f01600" x="75.134125" y="140.116351" style="stroke: #000000; stroke-width: 0.8"/>
      </g>
     </g>
     <g id="text_8">
      <!-- 80 -->
      <g transform="translate(52.5635 145.12682)scale(0.14 -0.14)">
       <defs>
        <path id="ArialMT-38" d="M 1131 2484 
Q 781 2613 612 2850 
Q 444 3088 444 3419 
Q 444 3919 803 4259 
Q 1163 4600 1759 4600 
Q 2359 4600 2725 4251 
Q 3091 3903 3091 3403 
Q 3091 3084 2923 2848 
Q 2756 2613 2416 2484 
Q 2838 2347 3058 2040 
Q 3278 1734 3278 1309 
Q 3278 722 2862 322 
Q 2447 -78 1769 -78 
Q 1091 -78 675 323 
Q 259 725 259 1325 
Q 259 1772 486 2073 
Q 713 2375 1131 2484 
z
M 1019 3438 
Q 1019 3113 1228 2906 
Q 1438 2700 1772 2700 
Q 2097 2700 2305 2904 
Q 2513 3109 2513 3406 
Q 2513 3716 2298 3927 
Q 2084 4138 1766 4138 
Q 1444 4138 1231 3931 
Q 1019 3725 1019 3438 
z
M 838 1322 
Q 838 1081 952 856 
Q 1066 631 1291 507 
Q 1516 384 1775 384 
Q 2178 384 2440 643 
Q 2703 903 2703 1303 
Q 2703 1709 2433 1975 
Q 2163 2241 1756 2241 
Q 1359 2241 1098 1978 
Q 838 1716 838 1322 
z
" transform="scale(0.015625)"/>
       </defs>
       <use xlink:href="#ArialMT-38"/>
       <use xlink:href="#ArialMT-30" x="55.615234"/>
      </g>
     </g>
    </g>
    <g id="ytick_6">
     <g id="line2d_9">
      <g>
       <use xlink:href="#mab70f01600" x="75.134125" y="172.092822" style="stroke: #000000; stroke-width: 0.8"/>
      </g>
     </g>
     <g id="text_9">
      <!-- 100 -->
      <g transform="translate(44.778188 177.10329)scale(0.14 -0.14)">
       <defs>
        <path id="ArialMT-31" d="M 2384 0 
L 1822 0 
L 1822 3584 
Q 1619 3391 1289 3197 
Q 959 3003 697 2906 
L 697 3450 
Q 1169 3672 1522 3987 
Q 1875 4303 2022 4600 
L 2384 4600 
L 2384 0 
z
" transform="scale(0.015625)"/>
       </defs>
       <use xlink:href="#ArialMT-31"/>
       <use xlink:href="#ArialMT-30" x="55.615234"/>
       <use xlink:href="#ArialMT-30" x="111.230469"/>
      </g>
     </g>
    </g>
    <g id="text_10">
     <!-- Shox2 -->
     <g transform="translate(19.41875 116.251801)rotate(-90)scale(0.17 -0.17)">
      <defs>
       <path id="ArialMT-53" d="M 288 1472 
L 859 1522 
Q 900 1178 1048 958 
Q 1197 738 1509 602 
Q 1822 466 2213 466 
Q 2559 466 2825 569 
Q 3091 672 3220 851 
Q 3350 1031 3350 1244 
Q 3350 1459 3225 1620 
Q 3100 1781 2813 1891 
Q 2628 1963 1997 2114 
Q 1366 2266 1113 2400 
Q 784 2572 623 2826 
Q 463 3081 463 3397 
Q 463 3744 659 4045 
Q 856 4347 1234 4503 
Q 1613 4659 2075 4659 
Q 2584 4659 2973 4495 
Q 3363 4331 3572 4012 
Q 3781 3694 3797 3291 
L 3216 3247 
Q 3169 3681 2898 3903 
Q 2628 4125 2100 4125 
Q 1550 4125 1298 3923 
Q 1047 3722 1047 3438 
Q 1047 3191 1225 3031 
Q 1400 2872 2139 2705 
Q 2878 2538 3153 2413 
Q 3553 2228 3743 1945 
Q 3934 1663 3934 1294 
Q 3934 928 3725 604 
Q 3516 281 3123 101 
Q 2731 -78 2241 -78 
Q 1619 -78 1198 103 
Q 778 284 539 648 
Q 300 1013 288 1472 
z
" transform="scale(0.015625)"/>
       <path id="ArialMT-68" d="M 422 0 
L 422 4581 
L 984 4581 
L 984 2938 
Q 1378 3394 1978 3394 
Q 2347 3394 2619 3248 
Q 2891 3103 3008 2847 
Q 3125 2591 3125 2103 
L 3125 0 
L 2563 0 
L 2563 2103 
Q 2563 2525 2380 2717 
Q 2197 2909 1863 2909 
Q 1613 2909 1392 2779 
Q 1172 2650 1078 2428 
Q 984 2206 984 1816 
L 984 0 
L 422 0 
z
" transform="scale(0.015625)"/>
       <path id="ArialMT-6f" d="M 213 1659 
Q 213 2581 725 3025 
Q 1153 3394 1769 3394 
Q 2453 3394 2887 2945 
Q 3322 2497 3322 1706 
Q 3322 1066 3130 698 
Q 2938 331 2570 128 
Q 2203 -75 1769 -75 
Q 1072 -75 642 372 
Q 213 819 213 1659 
z
M 791 1659 
Q 791 1022 1069 705 
Q 1347 388 1769 388 
Q 2188 388 2466 706 
Q 2744 1025 2744 1678 
Q 2744 2294 2464 2611 
Q 2184 2928 1769 2928 
Q 1347 2928 1069 2612 
Q 791 2297 791 1659 
z
" transform="scale(0.015625)"/>
       <path id="ArialMT-78" d="M 47 0 
L 1259 1725 
L 138 3319 
L 841 3319 
L 1350 2541 
Q 1494 2319 1581 2169 
Q 1719 2375 1834 2534 
L 2394 3319 
L 3066 3319 
L 1919 1756 
L 3153 0 
L 2463 0 
L 1781 1031 
L 1600 1309 
L 728 0 
L 47 0 
z
" transform="scale(0.015625)"/>
      </defs>
      <use xlink:href="#ArialMT-53"/>
      <use xlink:href="#ArialMT-68" x="66.699219"/>
      <use xlink:href="#ArialMT-6f" x="122.314453"/>
      <use xlink:href="#ArialMT-78" x="177.929688"/>
      <use xlink:href="#ArialMT-32" x="227.929688"/>
     </g>
     <!-- Rank Quantile -->
     <g transform="translate(37.399438 146.012426)rotate(-90)scale(0.17 -0.17)">
      <defs>
       <path id="ArialMT-52" d="M 503 0 
L 503 4581 
L 2534 4581 
Q 3147 4581 3465 4457 
Q 3784 4334 3975 4021 
Q 4166 3709 4166 3331 
Q 4166 2844 3850 2509 
Q 3534 2175 2875 2084 
Q 3116 1969 3241 1856 
Q 3506 1613 3744 1247 
L 4541 0 
L 3778 0 
L 3172 953 
Q 2906 1366 2734 1584 
Q 2563 1803 2427 1890 
Q 2291 1978 2150 2013 
Q 2047 2034 1813 2034 
L 1109 2034 
L 1109 0 
L 503 0 
z
M 1109 2559 
L 2413 2559 
Q 2828 2559 3062 2645 
Q 3297 2731 3419 2920 
Q 3541 3109 3541 3331 
Q 3541 3656 3305 3865 
Q 3069 4075 2559 4075 
L 1109 4075 
L 1109 2559 
z
" transform="scale(0.015625)"/>
       <path id="ArialMT-61" d="M 2588 409 
Q 2275 144 1986 34 
Q 1697 -75 1366 -75 
Q 819 -75 525 192 
Q 231 459 231 875 
Q 231 1119 342 1320 
Q 453 1522 633 1644 
Q 813 1766 1038 1828 
Q 1203 1872 1538 1913 
Q 2219 1994 2541 2106 
Q 2544 2222 2544 2253 
Q 2544 2597 2384 2738 
Q 2169 2928 1744 2928 
Q 1347 2928 1158 2789 
Q 969 2650 878 2297 
L 328 2372 
Q 403 2725 575 2942 
Q 747 3159 1072 3276 
Q 1397 3394 1825 3394 
Q 2250 3394 2515 3294 
Q 2781 3194 2906 3042 
Q 3031 2891 3081 2659 
Q 3109 2516 3109 2141 
L 3109 1391 
Q 3109 606 3145 398 
Q 3181 191 3288 0 
L 2700 0 
Q 2613 175 2588 409 
z
M 2541 1666 
Q 2234 1541 1622 1453 
Q 1275 1403 1131 1340 
Q 988 1278 909 1158 
Q 831 1038 831 891 
Q 831 666 1001 516 
Q 1172 366 1500 366 
Q 1825 366 2078 508 
Q 2331 650 2450 897 
Q 2541 1088 2541 1459 
L 2541 1666 
z
" transform="scale(0.015625)"/>
       <path id="ArialMT-6e" d="M 422 0 
L 422 3319 
L 928 3319 
L 928 2847 
Q 1294 3394 1984 3394 
Q 2284 3394 2536 3286 
Q 2788 3178 2913 3003 
Q 3038 2828 3088 2588 
Q 3119 2431 3119 2041 
L 3119 0 
L 2556 0 
L 2556 2019 
Q 2556 2363 2490 2533 
Q 2425 2703 2258 2804 
Q 2091 2906 1866 2906 
Q 1506 2906 1245 2678 
Q 984 2450 984 1813 
L 984 0 
L 422 0 
z
" transform="scale(0.015625)"/>
       <path id="ArialMT-6b" d="M 425 0 
L 425 4581 
L 988 4581 
L 988 1969 
L 2319 3319 
L 3047 3319 
L 1778 2088 
L 3175 0 
L 2481 0 
L 1384 1697 
L 988 1316 
L 988 0 
L 425 0 
z
" transform="scale(0.015625)"/>
       <path id="ArialMT-20" transform="scale(0.015625)"/>
       <path id="ArialMT-51" d="M 3966 491 
Q 4388 200 4744 66 
L 4566 -356 
Q 4072 -178 3581 206 
Q 3072 -78 2456 -78 
Q 1834 -78 1328 222 
Q 822 522 548 1065 
Q 275 1609 275 2291 
Q 275 2969 550 3525 
Q 825 4081 1333 4372 
Q 1841 4663 2469 4663 
Q 3103 4663 3612 4361 
Q 4122 4059 4389 3517 
Q 4656 2975 4656 2294 
Q 4656 1728 4484 1276 
Q 4313 825 3966 491 
z
M 2631 1266 
Q 3156 1119 3497 828 
Q 4031 1316 4031 2294 
Q 4031 2850 3842 3265 
Q 3653 3681 3289 3911 
Q 2925 4141 2472 4141 
Q 1794 4141 1347 3677 
Q 900 3213 900 2291 
Q 900 1397 1342 919 
Q 1784 441 2472 441 
Q 2797 441 3084 563 
Q 2800 747 2484 825 
L 2631 1266 
z
" transform="scale(0.015625)"/>
       <path id="ArialMT-75" d="M 2597 0 
L 2597 488 
Q 2209 -75 1544 -75 
Q 1250 -75 995 37 
Q 741 150 617 320 
Q 494 491 444 738 
Q 409 903 409 1263 
L 409 3319 
L 972 3319 
L 972 1478 
Q 972 1038 1006 884 
Q 1059 663 1231 536 
Q 1403 409 1656 409 
Q 1909 409 2131 539 
Q 2353 669 2445 892 
Q 2538 1116 2538 1541 
L 2538 3319 
L 3100 3319 
L 3100 0 
L 2597 0 
z
" transform="scale(0.015625)"/>
       <path id="ArialMT-74" d="M 1650 503 
L 1731 6 
Q 1494 -44 1306 -44 
Q 1000 -44 831 53 
Q 663 150 594 308 
Q 525 466 525 972 
L 525 2881 
L 113 2881 
L 113 3319 
L 525 3319 
L 525 4141 
L 1084 4478 
L 1084 3319 
L 1650 3319 
L 1650 2881 
L 1084 2881 
L 1084 941 
Q 1084 700 1114 631 
Q 1144 563 1211 522 
Q 1278 481 1403 481 
Q 1497 481 1650 503 
z
" transform="scale(0.015625)"/>
       <path id="ArialMT-69" d="M 425 3934 
L 425 4581 
L 988 4581 
L 988 3934 
L 425 3934 
z
M 425 0 
L 425 3319 
L 988 3319 
L 988 0 
L 425 0 
z
" transform="scale(0.015625)"/>
       <path id="ArialMT-6c" d="M 409 0 
L 409 4581 
L 972 4581 
L 972 0 
L 409 0 
z
" transform="scale(0.015625)"/>
       <path id="ArialMT-65" d="M 2694 1069 
L 3275 997 
Q 3138 488 2766 206 
Q 2394 -75 1816 -75 
Q 1088 -75 661 373 
Q 234 822 234 1631 
Q 234 2469 665 2931 
Q 1097 3394 1784 3394 
Q 2450 3394 2872 2941 
Q 3294 2488 3294 1666 
Q 3294 1616 3291 1516 
L 816 1516 
Q 847 969 1125 678 
Q 1403 388 1819 388 
Q 2128 388 2347 550 
Q 2566 713 2694 1069 
z
M 847 1978 
L 2700 1978 
Q 2663 2397 2488 2606 
Q 2219 2931 1791 2931 
Q 1403 2931 1139 2672 
Q 875 2413 847 1978 
z
" transform="scale(0.015625)"/>
      </defs>
      <use xlink:href="#ArialMT-52"/>
      <use xlink:href="#ArialMT-61" x="72.216797"/>
      <use xlink:href="#ArialMT-6e" x="127.832031"/>
      <use xlink:href="#ArialMT-6b" x="183.447266"/>
      <use xlink:href="#ArialMT-20" x="233.447266"/>
      <use xlink:href="#ArialMT-51" x="261.230469"/>
      <use xlink:href="#ArialMT-75" x="339.013672"/>
      <use xlink:href="#ArialMT-61" x="394.628906"/>
      <use xlink:href="#ArialMT-6e" x="450.244141"/>
      <use xlink:href="#ArialMT-74" x="505.859375"/>
      <use xlink:href="#ArialMT-69" x="533.642578"/>
      <use xlink:href="#ArialMT-6c" x="555.859375"/>
      <use xlink:href="#ArialMT-65" x="578.076172"/>
     </g>
    </g>
   </g>
   <g id="patch_3">
    <path d="M 75.134125 172.092822 
L 75.134125 12.210469 
" style="fill: none; stroke: #000000; stroke-width: 0.8; stroke-linejoin: miter; stroke-linecap: square"/>
   </g>
   <g id="patch_4">
    <path d="M 298.334125 172.092822 
L 298.334125 12.210469 
" style="fill: none"/>
   </g>
   <g id="patch_5">
    <path d="M 75.134125 172.092822 
L 298.334125 172.092822 
" style="fill: none; stroke: #000000; stroke-width: 0.8; stroke-linejoin: miter; stroke-linecap: square"/>
   </g>
   <g id="patch_6">
    <path d="M 75.134125 12.210469 
L 298.334125 12.210469 
" style="fill: none"/>
   </g>
  </g>
  <g id="axes_2">
   <g id="patch_7">
    <path d="M 75.134125 363.951645 
L 298.334125 363.951645 
L 298.334125 204.069292 
L 75.134125 204.069292 
z
" style="fill: #ffffff"/>
   </g>
   <g id="PathCollection_2">
    <g clip-path="url(#pf343cf847f)">
     <use xlink:href="#mcdb4980552" x="65.169839" y="214.728116" style="fill: #1f77b4; fill-opacity: 0.5; stroke: #1f77b4; stroke-opacity: 0.5"/>
     <use xlink:href="#mcdb4980552" x="65.966982" y="232.283825" style="fill: #1f77b4; fill-opacity: 0.5; stroke: #1f77b4; stroke-opacity: 0.5"/>
     <use xlink:href="#mcdb4980552" x="66.365554" y="221.833998" style="fill: #1f77b4; fill-opacity: 0.5; stroke: #1f77b4; stroke-opacity: 0.5"/>
     <use xlink:href="#mcdb4980552" x="67.959839" y="211.336672" style="fill: #1f77b4; fill-opacity: 0.5; stroke: #1f77b4; stroke-opacity: 0.5"/>
     <use xlink:href="#mcdb4980552" x="68.756982" y="210.731057" style="fill: #1f77b4; fill-opacity: 0.5; stroke: #1f77b4; stroke-opacity: 0.5"/>
     <use xlink:href="#mcdb4980552" x="69.155554" y="223.255175" style="fill: #1f77b4; fill-opacity: 0.5; stroke: #1f77b4; stroke-opacity: 0.5"/>
     <use xlink:href="#mcdb4980552" x="70.351268" y="215.48946" style="fill: #1f77b4; fill-opacity: 0.5; stroke: #1f77b4; stroke-opacity: 0.5"/>
     <use xlink:href="#mcdb4980552" x="71.148411" y="214.728116" style="fill: #1f77b4; fill-opacity: 0.5; stroke: #1f77b4; stroke-opacity: 0.5"/>
     <use xlink:href="#mcdb4980552" x="71.546982" y="224.699273" style="fill: #1f77b4; fill-opacity: 0.5; stroke: #1f77b4; stroke-opacity: 0.5"/>
     <use xlink:href="#mcdb4980552" x="74.336982" y="208.276723" style="fill: #1f77b4; fill-opacity: 0.5; stroke: #1f77b4; stroke-opacity: 0.5"/>
     <use xlink:href="#mcdb4980552" x="75.532696" y="207.968862" style="fill: #1f77b4; fill-opacity: 0.5; stroke: #1f77b4; stroke-opacity: 0.5"/>
     <use xlink:href="#mcdb4980552" x="75.532696" y="227.46671" style="fill: #1f77b4; fill-opacity: 0.5; stroke: #1f77b4; stroke-opacity: 0.5"/>
     <use xlink:href="#mcdb4980552" x="77.525554" y="207.544996" style="fill: #1f77b4; fill-opacity: 0.5; stroke: #1f77b4; stroke-opacity: 0.5"/>
     <use xlink:href="#mcdb4980552" x="77.525554" y="207.544996" style="fill: #1f77b4; fill-opacity: 0.5; stroke: #1f77b4; stroke-opacity: 0.5"/>
     <use xlink:href="#mcdb4980552" x="78.322696" y="224.054586" style="fill: #1f77b4; fill-opacity: 0.5; stroke: #1f77b4; stroke-opacity: 0.5"/>
     <use xlink:href="#mcdb4980552" x="79.916982" y="237.890559" style="fill: #1f77b4; fill-opacity: 0.5; stroke: #1f77b4; stroke-opacity: 0.5"/>
     <use xlink:href="#mcdb4980552" x="83.504125" y="217.174403" style="fill: #1f77b4; fill-opacity: 0.5; stroke: #1f77b4; stroke-opacity: 0.5"/>
     <use xlink:href="#mcdb4980552" x="83.504125" y="211.932359" style="fill: #1f77b4; fill-opacity: 0.5; stroke: #1f77b4; stroke-opacity: 0.5"/>
     <use xlink:href="#mcdb4980552" x="85.098411" y="211.448478" style="fill: #1f77b4; fill-opacity: 0.5; stroke: #1f77b4; stroke-opacity: 0.5"/>
     <use xlink:href="#mcdb4980552" x="85.895554" y="206.455596" style="fill: #1f77b4; fill-opacity: 0.5; stroke: #1f77b4; stroke-opacity: 0.5"/>
     <use xlink:href="#mcdb4980552" x="86.294125" y="220.52777" style="fill: #1f77b4; fill-opacity: 0.5; stroke: #1f77b4; stroke-opacity: 0.5"/>
     <use xlink:href="#mcdb4980552" x="86.692696" y="206.386428" style="fill: #1f77b4; fill-opacity: 0.5; stroke: #1f77b4; stroke-opacity: 0.5"/>
     <use xlink:href="#mcdb4980552" x="86.692696" y="213.337834" style="fill: #1f77b4; fill-opacity: 0.5; stroke: #1f77b4; stroke-opacity: 0.5"/>
     <use xlink:href="#mcdb4980552" x="89.482696" y="210.380438" style="fill: #1f77b4; fill-opacity: 0.5; stroke: #1f77b4; stroke-opacity: 0.5"/>
     <use xlink:href="#mcdb4980552" x="89.881268" y="208.222081" style="fill: #1f77b4; fill-opacity: 0.5; stroke: #1f77b4; stroke-opacity: 0.5"/>
     <use xlink:href="#mcdb4980552" x="90.678411" y="206.09312" style="fill: #1f77b4; fill-opacity: 0.5; stroke: #1f77b4; stroke-opacity: 0.5"/>
     <use xlink:href="#mcdb4980552" x="91.475554" y="206.043148" style="fill: #1f77b4; fill-opacity: 0.5; stroke: #1f77b4; stroke-opacity: 0.5"/>
     <use xlink:href="#mcdb4980552" x="92.671268" y="236.426435" style="fill: #1f77b4; fill-opacity: 0.5; stroke: #1f77b4; stroke-opacity: 0.5"/>
     <use xlink:href="#mcdb4980552" x="95.062696" y="216.504586" style="fill: #1f77b4; fill-opacity: 0.5; stroke: #1f77b4; stroke-opacity: 0.5"/>
     <use xlink:href="#mcdb4980552" x="95.461268" y="209.340139" style="fill: #1f77b4; fill-opacity: 0.5; stroke: #1f77b4; stroke-opacity: 0.5"/>
     <use xlink:href="#mcdb4980552" x="95.461268" y="232.180475" style="fill: #1f77b4; fill-opacity: 0.5; stroke: #1f77b4; stroke-opacity: 0.5"/>
     <use xlink:href="#mcdb4980552" x="97.852696" y="207.365836" style="fill: #1f77b4; fill-opacity: 0.5; stroke: #1f77b4; stroke-opacity: 0.5"/>
     <use xlink:href="#mcdb4980552" x="97.852696" y="205.717564" style="fill: #1f77b4; fill-opacity: 0.5; stroke: #1f77b4; stroke-opacity: 0.5"/>
     <use xlink:href="#mcdb4980552" x="101.041268" y="207.11467" style="fill: #1f77b4; fill-opacity: 0.5; stroke: #1f77b4; stroke-opacity: 0.5"/>
     <use xlink:href="#mcdb4980552" x="103.034125" y="208.42972" style="fill: #1f77b4; fill-opacity: 0.5; stroke: #1f77b4; stroke-opacity: 0.5"/>
     <use xlink:href="#mcdb4980552" x="103.034125" y="205.522768" style="fill: #1f77b4; fill-opacity: 0.5; stroke: #1f77b4; stroke-opacity: 0.5"/>
     <use xlink:href="#mcdb4980552" x="103.831268" y="205.496813" style="fill: #1f77b4; fill-opacity: 0.5; stroke: #1f77b4; stroke-opacity: 0.5"/>
     <use xlink:href="#mcdb4980552" x="105.425554" y="221.987142" style="fill: #1f77b4; fill-opacity: 0.5; stroke: #1f77b4; stroke-opacity: 0.5"/>
     <use xlink:href="#mcdb4980552" x="108.614125" y="205.358666" style="fill: #1f77b4; fill-opacity: 0.5; stroke: #1f77b4; stroke-opacity: 0.5"/>
     <use xlink:href="#mcdb4980552" x="109.411268" y="207.876015" style="fill: #1f77b4; fill-opacity: 0.5; stroke: #1f77b4; stroke-opacity: 0.5"/>
     <use xlink:href="#mcdb4980552" x="109.411268" y="207.876015" style="fill: #1f77b4; fill-opacity: 0.5; stroke: #1f77b4; stroke-opacity: 0.5"/>
     <use xlink:href="#mcdb4980552" x="113.795554" y="207.570366" style="fill: #1f77b4; fill-opacity: 0.5; stroke: #1f77b4; stroke-opacity: 0.5"/>
     <use xlink:href="#mcdb4980552" x="113.795554" y="206.403341" style="fill: #1f77b4; fill-opacity: 0.5; stroke: #1f77b4; stroke-opacity: 0.5"/>
     <use xlink:href="#mcdb4980552" x="115.389839" y="207.471044" style="fill: #1f77b4; fill-opacity: 0.5; stroke: #1f77b4; stroke-opacity: 0.5"/>
     <use xlink:href="#mcdb4980552" x="115.389839" y="219.944136" style="fill: #1f77b4; fill-opacity: 0.5; stroke: #1f77b4; stroke-opacity: 0.5"/>
     <use xlink:href="#mcdb4980552" x="121.766982" y="207.124369" style="fill: #1f77b4; fill-opacity: 0.5; stroke: #1f77b4; stroke-opacity: 0.5"/>
     <use xlink:href="#mcdb4980552" x="122.564125" y="218.146984" style="fill: #1f77b4; fill-opacity: 0.5; stroke: #1f77b4; stroke-opacity: 0.5"/>
     <use xlink:href="#mcdb4980552" x="122.962696" y="208.066351" style="fill: #1f77b4; fill-opacity: 0.5; stroke: #1f77b4; stroke-opacity: 0.5"/>
     <use xlink:href="#mcdb4980552" x="126.151268" y="211.682738" style="fill: #1f77b4; fill-opacity: 0.5; stroke: #1f77b4; stroke-opacity: 0.5"/>
     <use xlink:href="#mcdb4980552" x="127.346982" y="209.679199" style="fill: #1f77b4; fill-opacity: 0.5; stroke: #1f77b4; stroke-opacity: 0.5"/>
     <use xlink:href="#mcdb4980552" x="127.745554" y="212.435229" style="fill: #1f77b4; fill-opacity: 0.5; stroke: #1f77b4; stroke-opacity: 0.5"/>
     <use xlink:href="#mcdb4980552" x="132.926982" y="223.082329" style="fill: #1f77b4; fill-opacity: 0.5; stroke: #1f77b4; stroke-opacity: 0.5"/>
     <use xlink:href="#mcdb4980552" x="138.506982" y="208.086437" style="fill: #1f77b4; fill-opacity: 0.5; stroke: #1f77b4; stroke-opacity: 0.5"/>
     <use xlink:href="#mcdb4980552" x="143.688411" y="210.856751" style="fill: #1f77b4; fill-opacity: 0.5; stroke: #1f77b4; stroke-opacity: 0.5"/>
     <use xlink:href="#mcdb4980552" x="146.478411" y="214.290082" style="fill: #1f77b4; fill-opacity: 0.5; stroke: #1f77b4; stroke-opacity: 0.5"/>
     <use xlink:href="#mcdb4980552" x="147.674125" y="205.509674" style="fill: #1f77b4; fill-opacity: 0.5; stroke: #1f77b4; stroke-opacity: 0.5"/>
     <use xlink:href="#mcdb4980552" x="149.666982" y="216.042861" style="fill: #1f77b4; fill-opacity: 0.5; stroke: #1f77b4; stroke-opacity: 0.5"/>
     <use xlink:href="#mcdb4980552" x="150.065554" y="220.197775" style="fill: #1f77b4; fill-opacity: 0.5; stroke: #1f77b4; stroke-opacity: 0.5"/>
     <use xlink:href="#mcdb4980552" x="160.826982" y="213.474137" style="fill: #1f77b4; fill-opacity: 0.5; stroke: #1f77b4; stroke-opacity: 0.5"/>
     <use xlink:href="#mcdb4980552" x="160.826982" y="212.220157" style="fill: #1f77b4; fill-opacity: 0.5; stroke: #1f77b4; stroke-opacity: 0.5"/>
     <use xlink:href="#mcdb4980552" x="161.624125" y="214.023057" style="fill: #1f77b4; fill-opacity: 0.5; stroke: #1f77b4; stroke-opacity: 0.5"/>
     <use xlink:href="#mcdb4980552" x="162.819839" y="224.976985" style="fill: #1f77b4; fill-opacity: 0.5; stroke: #1f77b4; stroke-opacity: 0.5"/>
     <use xlink:href="#mcdb4980552" x="164.414125" y="219.815282" style="fill: #1f77b4; fill-opacity: 0.5; stroke: #1f77b4; stroke-opacity: 0.5"/>
     <use xlink:href="#mcdb4980552" x="174.776982" y="210.685114" style="fill: #1f77b4; fill-opacity: 0.5; stroke: #1f77b4; stroke-opacity: 0.5"/>
     <use xlink:href="#mcdb4980552" x="174.776982" y="209.582477" style="fill: #1f77b4; fill-opacity: 0.5; stroke: #1f77b4; stroke-opacity: 0.5"/>
     <use xlink:href="#mcdb4980552" x="175.972696" y="225.350561" style="fill: #1f77b4; fill-opacity: 0.5; stroke: #1f77b4; stroke-opacity: 0.5"/>
     <use xlink:href="#mcdb4980552" x="177.965554" y="222.310903" style="fill: #1f77b4; fill-opacity: 0.5; stroke: #1f77b4; stroke-opacity: 0.5"/>
     <use xlink:href="#mcdb4980552" x="179.161268" y="215.755046" style="fill: #1f77b4; fill-opacity: 0.5; stroke: #1f77b4; stroke-opacity: 0.5"/>
     <use xlink:href="#mcdb4980552" x="185.538411" y="225.756804" style="fill: #1f77b4; fill-opacity: 0.5; stroke: #1f77b4; stroke-opacity: 0.5"/>
     <use xlink:href="#mcdb4980552" x="186.734125" y="214.561572" style="fill: #1f77b4; fill-opacity: 0.5; stroke: #1f77b4; stroke-opacity: 0.5"/>
     <use xlink:href="#mcdb4980552" x="187.531268" y="222.937396" style="fill: #1f77b4; fill-opacity: 0.5; stroke: #1f77b4; stroke-opacity: 0.5"/>
     <use xlink:href="#mcdb4980552" x="187.531268" y="210.52417" style="fill: #1f77b4; fill-opacity: 0.5; stroke: #1f77b4; stroke-opacity: 0.5"/>
     <use xlink:href="#mcdb4980552" x="190.719839" y="218.11956" style="fill: #1f77b4; fill-opacity: 0.5; stroke: #1f77b4; stroke-opacity: 0.5"/>
     <use xlink:href="#mcdb4980552" x="192.712696" y="223.636983" style="fill: #1f77b4; fill-opacity: 0.5; stroke: #1f77b4; stroke-opacity: 0.5"/>
     <use xlink:href="#mcdb4980552" x="197.096982" y="217.469836" style="fill: #1f77b4; fill-opacity: 0.5; stroke: #1f77b4; stroke-opacity: 0.5"/>
     <use xlink:href="#mcdb4980552" x="199.089839" y="209.535356" style="fill: #1f77b4; fill-opacity: 0.5; stroke: #1f77b4; stroke-opacity: 0.5"/>
     <use xlink:href="#mcdb4980552" x="200.285554" y="207.682453" style="fill: #1f77b4; fill-opacity: 0.5; stroke: #1f77b4; stroke-opacity: 0.5"/>
     <use xlink:href="#mcdb4980552" x="200.684125" y="231.542035" style="fill: #1f77b4; fill-opacity: 0.5; stroke: #1f77b4; stroke-opacity: 0.5"/>
     <use xlink:href="#mcdb4980552" x="202.278411" y="219.211354" style="fill: #1f77b4; fill-opacity: 0.5; stroke: #1f77b4; stroke-opacity: 0.5"/>
     <use xlink:href="#mcdb4980552" x="207.858411" y="205.783848" style="fill: #1f77b4; fill-opacity: 0.5; stroke: #1f77b4; stroke-opacity: 0.5"/>
     <use xlink:href="#mcdb4980552" x="207.858411" y="208.355682" style="fill: #1f77b4; fill-opacity: 0.5; stroke: #1f77b4; stroke-opacity: 0.5"/>
     <use xlink:href="#mcdb4980552" x="207.858411" y="207.069765" style="fill: #1f77b4; fill-opacity: 0.5; stroke: #1f77b4; stroke-opacity: 0.5"/>
     <use xlink:href="#mcdb4980552" x="209.851268" y="206.607107" style="fill: #1f77b4; fill-opacity: 0.5; stroke: #1f77b4; stroke-opacity: 0.5"/>
     <use xlink:href="#mcdb4980552" x="211.844125" y="213.253135" style="fill: #1f77b4; fill-opacity: 0.5; stroke: #1f77b4; stroke-opacity: 0.5"/>
     <use xlink:href="#mcdb4980552" x="216.626982" y="204.878823" style="fill: #1f77b4; fill-opacity: 0.5; stroke: #1f77b4; stroke-opacity: 0.5"/>
     <use xlink:href="#mcdb4980552" x="217.025554" y="208.914212" style="fill: #1f77b4; fill-opacity: 0.5; stroke: #1f77b4; stroke-opacity: 0.5"/>
     <use xlink:href="#mcdb4980552" x="217.424125" y="214.540177" style="fill: #1f77b4; fill-opacity: 0.5; stroke: #1f77b4; stroke-opacity: 0.5"/>
     <use xlink:href="#mcdb4980552" x="217.822696" y="210.898438" style="fill: #1f77b4; fill-opacity: 0.5; stroke: #1f77b4; stroke-opacity: 0.5"/>
     <use xlink:href="#mcdb4980552" x="218.221268" y="206.072831" style="fill: #1f77b4; fill-opacity: 0.5; stroke: #1f77b4; stroke-opacity: 0.5"/>
     <use xlink:href="#mcdb4980552" x="223.801268" y="206.779163" style="fill: #1f77b4; fill-opacity: 0.5; stroke: #1f77b4; stroke-opacity: 0.5"/>
     <use xlink:href="#mcdb4980552" x="224.598411" y="207.53662" style="fill: #1f77b4; fill-opacity: 0.5; stroke: #1f77b4; stroke-opacity: 0.5"/>
     <use xlink:href="#mcdb4980552" x="227.388411" y="205.963633" style="fill: #1f77b4; fill-opacity: 0.5; stroke: #1f77b4; stroke-opacity: 0.5"/>
     <use xlink:href="#mcdb4980552" x="228.584125" y="205.574067" style="fill: #1f77b4; fill-opacity: 0.5; stroke: #1f77b4; stroke-opacity: 0.5"/>
     <use xlink:href="#mcdb4980552" x="228.982696" y="207.822399" style="fill: #1f77b4; fill-opacity: 0.5; stroke: #1f77b4; stroke-opacity: 0.5"/>
     <use xlink:href="#mcdb4980552" x="230.975554" y="207.77886" style="fill: #1f77b4; fill-opacity: 0.5; stroke: #1f77b4; stroke-opacity: 0.5"/>
     <use xlink:href="#mcdb4980552" x="233.366982" y="209.557245" style="fill: #1f77b4; fill-opacity: 0.5; stroke: #1f77b4; stroke-opacity: 0.5"/>
     <use xlink:href="#mcdb4980552" x="236.156982" y="206.950055" style="fill: #1f77b4; fill-opacity: 0.5; stroke: #1f77b4; stroke-opacity: 0.5"/>
     <use xlink:href="#mcdb4980552" x="238.149839" y="206.917976" style="fill: #1f77b4; fill-opacity: 0.5; stroke: #1f77b4; stroke-opacity: 0.5"/>
     <use xlink:href="#mcdb4980552" x="242.135554" y="207.20424" style="fill: #1f77b4; fill-opacity: 0.5; stroke: #1f77b4; stroke-opacity: 0.5"/>
     <use xlink:href="#mcdb4980552" x="247.316982" y="205.762961" style="fill: #1f77b4; fill-opacity: 0.5; stroke: #1f77b4; stroke-opacity: 0.5"/>
    </g>
   </g>
   <g id="PolyCollection_2">
    <defs>
     <path id="m1217814b4d" d="M 66.843839 -366.108811 
L 66.843839 -402.247596 
L 67.640982 -400.521506 
L 68.517839 -397.4524 
L 69.474411 -397.255182 
L 70.191839 -396.500978 
L 71.307839 -398.54431 
L 72.583268 -401.769689 
L 73.619554 -403.925229 
L 74.894982 -407.157827 
L 76.090696 -408.171457 
L 76.887839 -407.393848 
L 77.764696 -407.889047 
L 79.358982 -408.975741 
L 80.554696 -406.396893 
L 82.069268 -403.803075 
L 83.583839 -409.95969 
L 84.859268 -399.770192 
L 85.496982 -402.550852 
L 86.134696 -402.408306 
L 87.011554 -402.677564 
L 87.808696 -401.665139 
L 88.685554 -399.521871 
L 89.642125 -399.738349 
L 90.837839 -414.882731 
L 91.953839 -413.515242 
L 93.069839 -413.030918 
L 94.026411 -409.442618 
L 95.301839 -408.511661 
L 96.338125 -409.839034 
L 97.533839 -412.345358 
L 99.048411 -412.664341 
L 100.562982 -397.954383 
L 101.758696 -398.486425 
L 103.273268 -406.592986 
L 104.787839 -407.353548 
L 106.063268 -407.50862 
L 107.338696 -406.575416 
L 109.331554 -405.646313 
L 111.005554 -397.55961 
L 112.360696 -396.135186 
L 113.556411 -403.844789 
L 116.027554 -404.145135 
L 117.781268 -403.822076 
L 119.614696 -402.880725 
L 121.766982 -401.000362 
L 124.158411 -400.190205 
L 125.354125 -398.035762 
L 127.426696 -401.164797 
L 130.535554 -401.152406 
L 134.042982 -401.432054 
L 137.869268 -399.993193 
L 141.854982 -403.639324 
L 145.202982 -400.058195 
L 147.514696 -400.058962 
L 150.942411 -399.181132 
L 153.812125 -399.67987 
L 156.602125 -393.408818 
L 159.232696 -396.245135 
L 162.102411 -396.21312 
L 164.892411 -397.890911 
L 167.682411 -399.517995 
L 170.552125 -399.455575 
L 173.581268 -398.927825 
L 176.530696 -399.553891 
L 178.682982 -396.514612 
L 181.074411 -392.192988 
L 183.386125 -391.810301 
L 185.299268 -396.994007 
L 187.610982 -396.291577 
L 189.045839 -395.534641 
L 191.118411 -394.353869 
L 193.430125 -398.193531 
L 195.980982 -400.241038 
L 197.973839 -404.225493 
L 199.886982 -404.222145 
L 202.039268 -409.043797 
L 203.792982 -409.590507 
L 205.307554 -409.911563 
L 207.140982 -404.075633 
L 209.054125 -400.080829 
L 210.807839 -400.673408 
L 212.641268 -400.609598 
L 214.554411 -401.056542 
L 216.148696 -399.491158 
L 217.424125 -401.0356 
L 218.858982 -399.763451 
L 220.373554 -400.252594 
L 222.366411 -398.967293 
L 224.518696 -397.529446 
L 226.670982 -397.567346 
L 228.105839 -397.58388 
L 229.859554 -398.239519 
L 231.613268 -397.725954 
L 233.526411 -396.697847 
L 236.156982 -396.886898 
L 239.425268 -397.863252 
L 239.425268 -392.301632 
L 239.425268 -392.301632 
L 236.156982 -392.471627 
L 233.526411 -392.413414 
L 231.613268 -391.92287 
L 229.859554 -391.803874 
L 228.105839 -393.267763 
L 226.670982 -393.684176 
L 224.518696 -394.421903 
L 222.366411 -390.854308 
L 220.373554 -386.13839 
L 218.858982 -386.076496 
L 217.424125 -385.564483 
L 216.148696 -384.236803 
L 214.554411 -384.387951 
L 212.641268 -387.82306 
L 210.807839 -387.982662 
L 209.054125 -388.213231 
L 207.140982 -381.835139 
L 205.307554 -366.025238 
L 203.792982 -366.101219 
L 202.039268 -366.17606 
L 199.886982 -366.323317 
L 197.973839 -364.549717 
L 195.980982 -373.903162 
L 193.430125 -374.813982 
L 191.118411 -373.292828 
L 189.045839 -373.275362 
L 187.610982 -371.670498 
L 185.299268 -371.913873 
L 183.386125 -372.382886 
L 181.074411 -371.034932 
L 178.682982 -368.704946 
L 176.530696 -371.694344 
L 173.581268 -370.696315 
L 170.552125 -369.102132 
L 167.682411 -373.570715 
L 164.892411 -374.142726 
L 162.102411 -374.704908 
L 159.232696 -374.519895 
L 156.602125 -380.929863 
L 153.812125 -378.064163 
L 150.942411 -377.734932 
L 147.514696 -377.904057 
L 145.202982 -382.749358 
L 141.854982 -376.352442 
L 137.869268 -377.228351 
L 134.042982 -377.633843 
L 130.535554 -377.583096 
L 127.426696 -377.57874 
L 125.354125 -382.681912 
L 124.158411 -382.651814 
L 121.766982 -377.735682 
L 119.614696 -377.539996 
L 117.781268 -377.26385 
L 116.027554 -381.171437 
L 113.556411 -381.171125 
L 112.360696 -393.707977 
L 111.005554 -393.128504 
L 109.331554 -378.80828 
L 107.338696 -378.708599 
L 106.063268 -378.716693 
L 104.787839 -378.650283 
L 103.273268 -378.708444 
L 101.758696 -393.322835 
L 100.562982 -393.107268 
L 99.048411 -367.734228 
L 97.533839 -367.689044 
L 96.338125 -366.439401 
L 95.301839 -355.483225 
L 94.026411 -355.081343 
L 93.069839 -361.927986 
L 91.953839 -361.890885 
L 90.837839 -362.973055 
L 89.642125 -387.352878 
L 88.685554 -387.432043 
L 87.808696 -379.514916 
L 87.011554 -379.209085 
L 86.134696 -379.051127 
L 85.496982 -379.470771 
L 84.859268 -377.936241 
L 83.583839 -360.801627 
L 82.069268 -359.918646 
L 80.554696 -358.88622 
L 79.358982 -358.062318 
L 77.764696 -355.03209 
L 76.887839 -367.495967 
L 76.090696 -373.029504 
L 74.894982 -367.181423 
L 73.619554 -367.540773 
L 72.583268 -374.487213 
L 71.307839 -371.598067 
L 70.191839 -372.659665 
L 69.474411 -377.250501 
L 68.517839 -374.21093 
L 67.640982 -364.424078 
L 66.843839 -366.108811 
z
" style="stroke: #1f77b4; stroke-opacity: 0.1"/>
    </defs>
    <g clip-path="url(#pf343cf847f)">
     <use xlink:href="#m1217814b4d" x="0" y="602.360937" style="fill: #1f77b4; fill-opacity: 0.1; stroke: #1f77b4; stroke-opacity: 0.1"/>
    </g>
   </g>
   <g id="matplotlib.axis_3">
    <g id="xtick_4">
     <g id="line2d_10">
      <g>
       <use xlink:href="#m1243b02bbf" x="138.905554" y="363.951645" style="stroke: #000000; stroke-width: 0.8"/>
      </g>
     </g>
     <g id="text_11">
      <!-- 200 -->
      <g transform="translate(127.227585 380.972583)scale(0.14 -0.14)">
       <use xlink:href="#ArialMT-32"/>
       <use xlink:href="#ArialMT-30" x="55.615234"/>
       <use xlink:href="#ArialMT-30" x="111.230469"/>
      </g>
     </g>
    </g>
    <g id="xtick_5">
     <g id="line2d_11">
      <g>
       <use xlink:href="#m1243b02bbf" x="218.619839" y="363.951645" style="stroke: #000000; stroke-width: 0.8"/>
      </g>
     </g>
     <g id="text_12">
      <!-- 400 -->
      <g transform="translate(206.941871 380.972583)scale(0.14 -0.14)">
       <use xlink:href="#ArialMT-34"/>
       <use xlink:href="#ArialMT-30" x="55.615234"/>
       <use xlink:href="#ArialMT-30" x="111.230469"/>
      </g>
     </g>
    </g>
    <g id="xtick_6">
     <g id="line2d_12">
      <g>
       <use xlink:href="#m1243b02bbf" x="298.334125" y="363.951645" style="stroke: #000000; stroke-width: 0.8"/>
      </g>
     </g>
     <g id="text_13">
      <!-- 600 -->
      <g transform="translate(286.656156 380.972583)scale(0.14 -0.14)">
       <use xlink:href="#ArialMT-36"/>
       <use xlink:href="#ArialMT-30" x="55.615234"/>
       <use xlink:href="#ArialMT-30" x="111.230469"/>
      </g>
     </g>
    </g>
   </g>
   <g id="matplotlib.axis_4">
    <g id="ytick_7">
     <g id="line2d_13">
      <g>
       <use xlink:href="#mab70f01600" x="75.134125" y="204.069292" style="stroke: #000000; stroke-width: 0.8"/>
      </g>
     </g>
     <g id="text_14">
      <!-- 0 -->
      <g transform="translate(60.348813 209.079761)scale(0.14 -0.14)">
       <use xlink:href="#ArialMT-30"/>
      </g>
     </g>
    </g>
    <g id="ytick_8">
     <g id="line2d_14">
      <g>
       <use xlink:href="#mab70f01600" x="75.134125" y="236.045763" style="stroke: #000000; stroke-width: 0.8"/>
      </g>
     </g>
     <g id="text_15">
      <!-- 20 -->
      <g transform="translate(52.5635 241.056232)scale(0.14 -0.14)">
       <use xlink:href="#ArialMT-32"/>
       <use xlink:href="#ArialMT-30" x="55.615234"/>
      </g>
     </g>
    </g>
    <g id="ytick_9">
     <g id="line2d_15">
      <g>
       <use xlink:href="#mab70f01600" x="75.134125" y="268.022233" style="stroke: #000000; stroke-width: 0.8"/>
      </g>
     </g>
     <g id="text_16">
      <!-- 40 -->
      <g transform="translate(52.5635 273.032702)scale(0.14 -0.14)">
       <use xlink:href="#ArialMT-34"/>
       <use xlink:href="#ArialMT-30" x="55.615234"/>
      </g>
     </g>
    </g>
    <g id="ytick_10">
     <g id="line2d_16">
      <g>
       <use xlink:href="#mab70f01600" x="75.134125" y="299.998704" style="stroke: #000000; stroke-width: 0.8"/>
      </g>
     </g>
     <g id="text_17">
      <!-- 60 -->
      <g transform="translate(52.5635 305.009173)scale(0.14 -0.14)">
       <use xlink:href="#ArialMT-36"/>
       <use xlink:href="#ArialMT-30" x="55.615234"/>
      </g>
     </g>
    </g>
    <g id="ytick_11">
     <g id="line2d_17">
      <g>
       <use xlink:href="#mab70f01600" x="75.134125" y="331.975175" style="stroke: #000000; stroke-width: 0.8"/>
      </g>
     </g>
     <g id="text_18">
      <!-- 80 -->
      <g transform="translate(52.5635 336.985643)scale(0.14 -0.14)">
       <use xlink:href="#ArialMT-38"/>
       <use xlink:href="#ArialMT-30" x="55.615234"/>
      </g>
     </g>
    </g>
    <g id="ytick_12">
     <g id="line2d_18">
      <g>
       <use xlink:href="#mab70f01600" x="75.134125" y="363.951645" style="stroke: #000000; stroke-width: 0.8"/>
      </g>
     </g>
     <g id="text_19">
      <!-- 100 -->
      <g transform="translate(44.778188 368.962114)scale(0.14 -0.14)">
       <use xlink:href="#ArialMT-31"/>
       <use xlink:href="#ArialMT-30" x="55.615234"/>
       <use xlink:href="#ArialMT-30" x="111.230469"/>
      </g>
     </g>
    </g>
    <g id="text_20">
     <!-- Kcnip3 -->
     <g transform="translate(19.41875 309.999219)rotate(-90)scale(0.17 -0.17)">
      <defs>
       <path id="ArialMT-4b" d="M 469 0 
L 469 4581 
L 1075 4581 
L 1075 2309 
L 3350 4581 
L 4172 4581 
L 2250 2725 
L 4256 0 
L 3456 0 
L 1825 2319 
L 1075 1588 
L 1075 0 
L 469 0 
z
" transform="scale(0.015625)"/>
       <path id="ArialMT-63" d="M 2588 1216 
L 3141 1144 
Q 3050 572 2676 248 
Q 2303 -75 1759 -75 
Q 1078 -75 664 370 
Q 250 816 250 1647 
Q 250 2184 428 2587 
Q 606 2991 970 3192 
Q 1334 3394 1763 3394 
Q 2303 3394 2647 3120 
Q 2991 2847 3088 2344 
L 2541 2259 
Q 2463 2594 2264 2762 
Q 2066 2931 1784 2931 
Q 1359 2931 1093 2626 
Q 828 2322 828 1663 
Q 828 994 1084 691 
Q 1341 388 1753 388 
Q 2084 388 2306 591 
Q 2528 794 2588 1216 
z
" transform="scale(0.015625)"/>
       <path id="ArialMT-70" d="M 422 -1272 
L 422 3319 
L 934 3319 
L 934 2888 
Q 1116 3141 1344 3267 
Q 1572 3394 1897 3394 
Q 2322 3394 2647 3175 
Q 2972 2956 3137 2557 
Q 3303 2159 3303 1684 
Q 3303 1175 3120 767 
Q 2938 359 2589 142 
Q 2241 -75 1856 -75 
Q 1575 -75 1351 44 
Q 1128 163 984 344 
L 984 -1272 
L 422 -1272 
z
M 931 1641 
Q 931 1000 1190 694 
Q 1450 388 1819 388 
Q 2194 388 2461 705 
Q 2728 1022 2728 1688 
Q 2728 2322 2467 2637 
Q 2206 2953 1844 2953 
Q 1484 2953 1207 2617 
Q 931 2281 931 1641 
z
" transform="scale(0.015625)"/>
       <path id="ArialMT-33" d="M 269 1209 
L 831 1284 
Q 928 806 1161 595 
Q 1394 384 1728 384 
Q 2125 384 2398 659 
Q 2672 934 2672 1341 
Q 2672 1728 2419 1979 
Q 2166 2231 1775 2231 
Q 1616 2231 1378 2169 
L 1441 2663 
Q 1497 2656 1531 2656 
Q 1891 2656 2178 2843 
Q 2466 3031 2466 3422 
Q 2466 3731 2256 3934 
Q 2047 4138 1716 4138 
Q 1388 4138 1169 3931 
Q 950 3725 888 3313 
L 325 3413 
Q 428 3978 793 4289 
Q 1159 4600 1703 4600 
Q 2078 4600 2393 4439 
Q 2709 4278 2876 4000 
Q 3044 3722 3044 3409 
Q 3044 3113 2884 2869 
Q 2725 2625 2413 2481 
Q 2819 2388 3044 2092 
Q 3269 1797 3269 1353 
Q 3269 753 2831 336 
Q 2394 -81 1725 -81 
Q 1122 -81 723 278 
Q 325 638 269 1209 
z
" transform="scale(0.015625)"/>
      </defs>
      <use xlink:href="#ArialMT-4b"/>
      <use xlink:href="#ArialMT-63" x="66.699219"/>
      <use xlink:href="#ArialMT-6e" x="116.699219"/>
      <use xlink:href="#ArialMT-69" x="172.314453"/>
      <use xlink:href="#ArialMT-70" x="194.53125"/>
      <use xlink:href="#ArialMT-33" x="250.146484"/>
     </g>
     <!-- Rank Quantile -->
     <g transform="translate(37.399438 337.87125)rotate(-90)scale(0.17 -0.17)">
      <use xlink:href="#ArialMT-52"/>
      <use xlink:href="#ArialMT-61" x="72.216797"/>
      <use xlink:href="#ArialMT-6e" x="127.832031"/>
      <use xlink:href="#ArialMT-6b" x="183.447266"/>
      <use xlink:href="#ArialMT-20" x="233.447266"/>
      <use xlink:href="#ArialMT-51" x="261.230469"/>
      <use xlink:href="#ArialMT-75" x="339.013672"/>
      <use xlink:href="#ArialMT-61" x="394.628906"/>
      <use xlink:href="#ArialMT-6e" x="450.244141"/>
      <use xlink:href="#ArialMT-74" x="505.859375"/>
      <use xlink:href="#ArialMT-69" x="533.642578"/>
      <use xlink:href="#ArialMT-6c" x="555.859375"/>
      <use xlink:href="#ArialMT-65" x="578.076172"/>
     </g>
    </g>
   </g>
   <g id="patch_8">
    <path d="M 75.134125 363.951645 
L 75.134125 204.069292 
" style="fill: none; stroke: #000000; stroke-width: 0.8; stroke-linejoin: miter; stroke-linecap: square"/>
   </g>
   <g id="patch_9">
    <path d="M 298.334125 363.951645 
L 298.334125 204.069292 
" style="fill: none"/>
   </g>
   <g id="patch_10">
    <path d="M 75.134125 363.951645 
L 298.334125 363.951645 
" style="fill: none; stroke: #000000; stroke-width: 0.8; stroke-linejoin: miter; stroke-linecap: square"/>
   </g>
   <g id="patch_11">
    <path d="M 75.134125 204.069292 
L 298.334125 204.069292 
" style="fill: none"/>
   </g>
  </g>
  <g id="axes_3">
   <g id="patch_12">
    <path d="M 75.134125 555.810469 
L 298.334125 555.810469 
L 298.334125 395.928116 
L 75.134125 395.928116 
z
" style="fill: #ffffff"/>
   </g>
   <g id="PathCollection_3">
    <g clip-path="url(#p1c2ecd2b26)">
     <use xlink:href="#mcdb4980552" x="71.546982" y="473.290545" style="fill: #1f77b4; fill-opacity: 0.5; stroke: #1f77b4; stroke-opacity: 0.5"/>
     <use xlink:href="#mcdb4980552" x="75.532696" y="454.42166" style="fill: #1f77b4; fill-opacity: 0.5; stroke: #1f77b4; stroke-opacity: 0.5"/>
     <use xlink:href="#mcdb4980552" x="78.322696" y="465.876645" style="fill: #1f77b4; fill-opacity: 0.5; stroke: #1f77b4; stroke-opacity: 0.5"/>
     <use xlink:href="#mcdb4980552" x="83.504125" y="456.211626" style="fill: #1f77b4; fill-opacity: 0.5; stroke: #1f77b4; stroke-opacity: 0.5"/>
     <use xlink:href="#mcdb4980552" x="85.895554" y="555.810469" style="fill: #1f77b4; fill-opacity: 0.5; stroke: #1f77b4; stroke-opacity: 0.5"/>
     <use xlink:href="#mcdb4980552" x="86.294125" y="468.815659" style="fill: #1f77b4; fill-opacity: 0.5; stroke: #1f77b4; stroke-opacity: 0.5"/>
     <use xlink:href="#mcdb4980552" x="86.692696" y="555.810469" style="fill: #1f77b4; fill-opacity: 0.5; stroke: #1f77b4; stroke-opacity: 0.5"/>
     <use xlink:href="#mcdb4980552" x="89.482696" y="555.810469" style="fill: #1f77b4; fill-opacity: 0.5; stroke: #1f77b4; stroke-opacity: 0.5"/>
     <use xlink:href="#mcdb4980552" x="89.881268" y="449.914365" style="fill: #1f77b4; fill-opacity: 0.5; stroke: #1f77b4; stroke-opacity: 0.5"/>
     <use xlink:href="#mcdb4980552" x="90.678411" y="555.810469" style="fill: #1f77b4; fill-opacity: 0.5; stroke: #1f77b4; stroke-opacity: 0.5"/>
     <use xlink:href="#mcdb4980552" x="91.475554" y="425.535959" style="fill: #1f77b4; fill-opacity: 0.5; stroke: #1f77b4; stroke-opacity: 0.5"/>
     <use xlink:href="#mcdb4980552" x="92.671268" y="453.028956" style="fill: #1f77b4; fill-opacity: 0.5; stroke: #1f77b4; stroke-opacity: 0.5"/>
     <use xlink:href="#mcdb4980552" x="95.062696" y="555.810469" style="fill: #1f77b4; fill-opacity: 0.5; stroke: #1f77b4; stroke-opacity: 0.5"/>
     <use xlink:href="#mcdb4980552" x="95.461268" y="448.636584" style="fill: #1f77b4; fill-opacity: 0.5; stroke: #1f77b4; stroke-opacity: 0.5"/>
     <use xlink:href="#mcdb4980552" x="95.461268" y="432.824043" style="fill: #1f77b4; fill-opacity: 0.5; stroke: #1f77b4; stroke-opacity: 0.5"/>
     <use xlink:href="#mcdb4980552" x="97.852696" y="412.410833" style="fill: #1f77b4; fill-opacity: 0.5; stroke: #1f77b4; stroke-opacity: 0.5"/>
     <use xlink:href="#mcdb4980552" x="97.852696" y="481.638243" style="fill: #1f77b4; fill-opacity: 0.5; stroke: #1f77b4; stroke-opacity: 0.5"/>
     <use xlink:href="#mcdb4980552" x="101.041268" y="420.291141" style="fill: #1f77b4; fill-opacity: 0.5; stroke: #1f77b4; stroke-opacity: 0.5"/>
     <use xlink:href="#mcdb4980552" x="103.034125" y="475.869292" style="fill: #1f77b4; fill-opacity: 0.5; stroke: #1f77b4; stroke-opacity: 0.5"/>
     <use xlink:href="#mcdb4980552" x="103.034125" y="436.625442" style="fill: #1f77b4; fill-opacity: 0.5; stroke: #1f77b4; stroke-opacity: 0.5"/>
     <use xlink:href="#mcdb4980552" x="103.831268" y="413.058368" style="fill: #1f77b4; fill-opacity: 0.5; stroke: #1f77b4; stroke-opacity: 0.5"/>
     <use xlink:href="#mcdb4980552" x="105.425554" y="460.708035" style="fill: #1f77b4; fill-opacity: 0.5; stroke: #1f77b4; stroke-opacity: 0.5"/>
     <use xlink:href="#mcdb4980552" x="108.614125" y="410.111228" style="fill: #1f77b4; fill-opacity: 0.5; stroke: #1f77b4; stroke-opacity: 0.5"/>
     <use xlink:href="#mcdb4980552" x="109.411268" y="416.230637" style="fill: #1f77b4; fill-opacity: 0.5; stroke: #1f77b4; stroke-opacity: 0.5"/>
     <use xlink:href="#mcdb4980552" x="109.411268" y="555.810469" style="fill: #1f77b4; fill-opacity: 0.5; stroke: #1f77b4; stroke-opacity: 0.5"/>
     <use xlink:href="#mcdb4980552" x="113.795554" y="414.600507" style="fill: #1f77b4; fill-opacity: 0.5; stroke: #1f77b4; stroke-opacity: 0.5"/>
     <use xlink:href="#mcdb4980552" x="113.795554" y="423.936703" style="fill: #1f77b4; fill-opacity: 0.5; stroke: #1f77b4; stroke-opacity: 0.5"/>
     <use xlink:href="#mcdb4980552" x="115.389839" y="425.409968" style="fill: #1f77b4; fill-opacity: 0.5; stroke: #1f77b4; stroke-opacity: 0.5"/>
     <use xlink:href="#mcdb4980552" x="115.389839" y="448.088316" style="fill: #1f77b4; fill-opacity: 0.5; stroke: #1f77b4; stroke-opacity: 0.5"/>
     <use xlink:href="#mcdb4980552" x="121.766982" y="397.964834" style="fill: #1f77b4; fill-opacity: 0.5; stroke: #1f77b4; stroke-opacity: 0.5"/>
     <use xlink:href="#mcdb4980552" x="122.564125" y="445.200036" style="fill: #1f77b4; fill-opacity: 0.5; stroke: #1f77b4; stroke-opacity: 0.5"/>
     <use xlink:href="#mcdb4980552" x="122.962696" y="414.914145" style="fill: #1f77b4; fill-opacity: 0.5; stroke: #1f77b4; stroke-opacity: 0.5"/>
     <use xlink:href="#mcdb4980552" x="126.151268" y="414.961729" style="fill: #1f77b4; fill-opacity: 0.5; stroke: #1f77b4; stroke-opacity: 0.5"/>
     <use xlink:href="#mcdb4980552" x="127.346982" y="406.212946" style="fill: #1f77b4; fill-opacity: 0.5; stroke: #1f77b4; stroke-opacity: 0.5"/>
     <use xlink:href="#mcdb4980552" x="127.745554" y="400.575859" style="fill: #1f77b4; fill-opacity: 0.5; stroke: #1f77b4; stroke-opacity: 0.5"/>
     <use xlink:href="#mcdb4980552" x="132.926982" y="418.398068" style="fill: #1f77b4; fill-opacity: 0.5; stroke: #1f77b4; stroke-opacity: 0.5"/>
     <use xlink:href="#mcdb4980552" x="138.506982" y="411.996694" style="fill: #1f77b4; fill-opacity: 0.5; stroke: #1f77b4; stroke-opacity: 0.5"/>
     <use xlink:href="#mcdb4980552" x="143.688411" y="420.815463" style="fill: #1f77b4; fill-opacity: 0.5; stroke: #1f77b4; stroke-opacity: 0.5"/>
     <use xlink:href="#mcdb4980552" x="146.478411" y="402.498623" style="fill: #1f77b4; fill-opacity: 0.5; stroke: #1f77b4; stroke-opacity: 0.5"/>
     <use xlink:href="#mcdb4980552" x="147.674125" y="400.969451" style="fill: #1f77b4; fill-opacity: 0.5; stroke: #1f77b4; stroke-opacity: 0.5"/>
     <use xlink:href="#mcdb4980552" x="149.666982" y="412.127649" style="fill: #1f77b4; fill-opacity: 0.5; stroke: #1f77b4; stroke-opacity: 0.5"/>
     <use xlink:href="#mcdb4980552" x="150.065554" y="422.575175" style="fill: #1f77b4; fill-opacity: 0.5; stroke: #1f77b4; stroke-opacity: 0.5"/>
     <use xlink:href="#mcdb4980552" x="160.826982" y="399.063064" style="fill: #1f77b4; fill-opacity: 0.5; stroke: #1f77b4; stroke-opacity: 0.5"/>
     <use xlink:href="#mcdb4980552" x="160.826982" y="409.094898" style="fill: #1f77b4; fill-opacity: 0.5; stroke: #1f77b4; stroke-opacity: 0.5"/>
     <use xlink:href="#mcdb4980552" x="161.624125" y="407.748212" style="fill: #1f77b4; fill-opacity: 0.5; stroke: #1f77b4; stroke-opacity: 0.5"/>
     <use xlink:href="#mcdb4980552" x="162.819839" y="436.513636" style="fill: #1f77b4; fill-opacity: 0.5; stroke: #1f77b4; stroke-opacity: 0.5"/>
     <use xlink:href="#mcdb4980552" x="164.414125" y="398.350576" style="fill: #1f77b4; fill-opacity: 0.5; stroke: #1f77b4; stroke-opacity: 0.5"/>
     <use xlink:href="#mcdb4980552" x="174.776982" y="418.532173" style="fill: #1f77b4; fill-opacity: 0.5; stroke: #1f77b4; stroke-opacity: 0.5"/>
     <use xlink:href="#mcdb4980552" x="174.776982" y="398.684708" style="fill: #1f77b4; fill-opacity: 0.5; stroke: #1f77b4; stroke-opacity: 0.5"/>
     <use xlink:href="#mcdb4980552" x="175.972696" y="437.399306" style="fill: #1f77b4; fill-opacity: 0.5; stroke: #1f77b4; stroke-opacity: 0.5"/>
     <use xlink:href="#mcdb4980552" x="177.965554" y="414.706245" style="fill: #1f77b4; fill-opacity: 0.5; stroke: #1f77b4; stroke-opacity: 0.5"/>
     <use xlink:href="#mcdb4980552" x="179.161268" y="398.583969" style="fill: #1f77b4; fill-opacity: 0.5; stroke: #1f77b4; stroke-opacity: 0.5"/>
     <use xlink:href="#mcdb4980552" x="185.538411" y="422.154874" style="fill: #1f77b4; fill-opacity: 0.5; stroke: #1f77b4; stroke-opacity: 0.5"/>
     <use xlink:href="#mcdb4980552" x="186.734125" y="400.424807" style="fill: #1f77b4; fill-opacity: 0.5; stroke: #1f77b4; stroke-opacity: 0.5"/>
     <use xlink:href="#mcdb4980552" x="187.531268" y="406.355226" style="fill: #1f77b4; fill-opacity: 0.5; stroke: #1f77b4; stroke-opacity: 0.5"/>
     <use xlink:href="#mcdb4980552" x="187.531268" y="422.740684" style="fill: #1f77b4; fill-opacity: 0.5; stroke: #1f77b4; stroke-opacity: 0.5"/>
     <use xlink:href="#mcdb4980552" x="190.719839" y="402.226512" style="fill: #1f77b4; fill-opacity: 0.5; stroke: #1f77b4; stroke-opacity: 0.5"/>
     <use xlink:href="#mcdb4980552" x="192.712696" y="404.041549" style="fill: #1f77b4; fill-opacity: 0.5; stroke: #1f77b4; stroke-opacity: 0.5"/>
     <use xlink:href="#mcdb4980552" x="197.096982" y="419.956678" style="fill: #1f77b4; fill-opacity: 0.5; stroke: #1f77b4; stroke-opacity: 0.5"/>
     <use xlink:href="#mcdb4980552" x="199.089839" y="402.30519" style="fill: #1f77b4; fill-opacity: 0.5; stroke: #1f77b4; stroke-opacity: 0.5"/>
     <use xlink:href="#mcdb4980552" x="200.285554" y="397.283051" style="fill: #1f77b4; fill-opacity: 0.5; stroke: #1f77b4; stroke-opacity: 0.5"/>
     <use xlink:href="#mcdb4980552" x="200.684125" y="417.095639" style="fill: #1f77b4; fill-opacity: 0.5; stroke: #1f77b4; stroke-opacity: 0.5"/>
     <use xlink:href="#mcdb4980552" x="202.278411" y="410.179468" style="fill: #1f77b4; fill-opacity: 0.5; stroke: #1f77b4; stroke-opacity: 0.5"/>
     <use xlink:href="#mcdb4980552" x="207.858411" y="422.932374" style="fill: #1f77b4; fill-opacity: 0.5; stroke: #1f77b4; stroke-opacity: 0.5"/>
     <use xlink:href="#mcdb4980552" x="207.858411" y="413.930954" style="fill: #1f77b4; fill-opacity: 0.5; stroke: #1f77b4; stroke-opacity: 0.5"/>
     <use xlink:href="#mcdb4980552" x="207.858411" y="398.49995" style="fill: #1f77b4; fill-opacity: 0.5; stroke: #1f77b4; stroke-opacity: 0.5"/>
     <use xlink:href="#mcdb4980552" x="209.851268" y="401.003746" style="fill: #1f77b4; fill-opacity: 0.5; stroke: #1f77b4; stroke-opacity: 0.5"/>
     <use xlink:href="#mcdb4980552" x="211.844125" y="400.520037" style="fill: #1f77b4; fill-opacity: 0.5; stroke: #1f77b4; stroke-opacity: 0.5"/>
     <use xlink:href="#mcdb4980552" x="216.626982" y="424.261697" style="fill: #1f77b4; fill-opacity: 0.5; stroke: #1f77b4; stroke-opacity: 0.5"/>
     <use xlink:href="#mcdb4980552" x="217.025554" y="408.444159" style="fill: #1f77b4; fill-opacity: 0.5; stroke: #1f77b4; stroke-opacity: 0.5"/>
     <use xlink:href="#mcdb4980552" x="217.424125" y="405.996274" style="fill: #1f77b4; fill-opacity: 0.5; stroke: #1f77b4; stroke-opacity: 0.5"/>
     <use xlink:href="#mcdb4980552" x="217.822696" y="397.936688" style="fill: #1f77b4; fill-opacity: 0.5; stroke: #1f77b4; stroke-opacity: 0.5"/>
     <use xlink:href="#mcdb4980552" x="218.221268" y="397.530946" style="fill: #1f77b4; fill-opacity: 0.5; stroke: #1f77b4; stroke-opacity: 0.5"/>
     <use xlink:href="#mcdb4980552" x="223.801268" y="414.510084" style="fill: #1f77b4; fill-opacity: 0.5; stroke: #1f77b4; stroke-opacity: 0.5"/>
     <use xlink:href="#mcdb4980552" x="224.598411" y="418.273119" style="fill: #1f77b4; fill-opacity: 0.5; stroke: #1f77b4; stroke-opacity: 0.5"/>
     <use xlink:href="#mcdb4980552" x="227.388411" y="397.443588" style="fill: #1f77b4; fill-opacity: 0.5; stroke: #1f77b4; stroke-opacity: 0.5"/>
     <use xlink:href="#mcdb4980552" x="228.584125" y="405.33296" style="fill: #1f77b4; fill-opacity: 0.5; stroke: #1f77b4; stroke-opacity: 0.5"/>
     <use xlink:href="#mcdb4980552" x="228.982696" y="400.431844" style="fill: #1f77b4; fill-opacity: 0.5; stroke: #1f77b4; stroke-opacity: 0.5"/>
     <use xlink:href="#mcdb4980552" x="230.975554" y="398.153856" style="fill: #1f77b4; fill-opacity: 0.5; stroke: #1f77b4; stroke-opacity: 0.5"/>
     <use xlink:href="#mcdb4980552" x="233.366982" y="401.050205" style="fill: #1f77b4; fill-opacity: 0.5; stroke: #1f77b4; stroke-opacity: 0.5"/>
     <use xlink:href="#mcdb4980552" x="236.156982" y="401.329547" style="fill: #1f77b4; fill-opacity: 0.5; stroke: #1f77b4; stroke-opacity: 0.5"/>
     <use xlink:href="#mcdb4980552" x="238.149839" y="399.132885" style="fill: #1f77b4; fill-opacity: 0.5; stroke: #1f77b4; stroke-opacity: 0.5"/>
     <use xlink:href="#mcdb4980552" x="242.135554" y="401.153029" style="fill: #1f77b4; fill-opacity: 0.5; stroke: #1f77b4; stroke-opacity: 0.5"/>
     <use xlink:href="#mcdb4980552" x="247.316982" y="396.605583" style="fill: #1f77b4; fill-opacity: 0.5; stroke: #1f77b4; stroke-opacity: 0.5"/>
    </g>
   </g>
   <g id="PolyCollection_3">
    <defs>
     <path id="m283565ac8b" d="M 78.960411 -36.353209 
L 78.960411 -206.124288 
L 81.909839 -207.524978 
L 84.141839 -203.259268 
L 86.373839 -186.458615 
L 87.649268 -191.621378 
L 88.605839 -191.621378 
L 89.642125 -224.284097 
L 90.837839 -239.926575 
L 91.953839 -239.926575 
L 93.069839 -240.574428 
L 94.026411 -245.182015 
L 95.301839 -252.990521 
L 96.338125 -248.275589 
L 97.533839 -218.026884 
L 99.048411 -221.905113 
L 100.562982 -220.53382 
L 101.758696 -220.070218 
L 103.273268 -214.271912 
L 104.787839 -220.908387 
L 106.063268 -217.720852 
L 107.338696 -275.272634 
L 109.331554 -274.497208 
L 111.005554 -283.474529 
L 112.360696 -276.95839 
L 113.556411 -265.722935 
L 116.027554 -216.808377 
L 117.781268 -214.547784 
L 119.614696 -218.060384 
L 121.766982 -221.396038 
L 124.158411 -222.229122 
L 125.354125 -220.453837 
L 127.426696 -206.090337 
L 130.535554 -206.122328 
L 134.042982 -207.549458 
L 137.869268 -209.749596 
L 141.854982 -209.451168 
L 145.202982 -208.890543 
L 147.514696 -210.596305 
L 150.942411 -214.599307 
L 153.812125 -212.490268 
L 156.602125 -209.212472 
L 159.232696 -216.716061 
L 162.102411 -223.256331 
L 164.892411 -217.217057 
L 167.682411 -222.414809 
L 170.552125 -222.916092 
L 173.581268 -221.18289 
L 176.530696 -221.027176 
L 178.682982 -221.013771 
L 181.074411 -219.868108 
L 183.386125 -213.742522 
L 185.299268 -215.661691 
L 187.610982 -213.315662 
L 189.045839 -213.170715 
L 191.118411 -210.402128 
L 193.430125 -212.509706 
L 195.980982 -214.48979 
L 197.973839 -213.936262 
L 199.886982 -212.191311 
L 202.039268 -213.343358 
L 203.792982 -209.278456 
L 205.307554 -208.092077 
L 207.140982 -212.889212 
L 209.054125 -216.228814 
L 210.807839 -216.946721 
L 212.641268 -217.009752 
L 214.554411 -213.642995 
L 216.148696 -215.526755 
L 217.424125 -217.269293 
L 218.858982 -211.930885 
L 220.373554 -214.384387 
L 222.366411 -217.941547 
L 224.518696 -214.887575 
L 226.670982 -213.066043 
L 228.105839 -215.620132 
L 229.859554 -208.08404 
L 231.613268 -206.294696 
L 233.526411 -205.027404 
L 236.156982 -205.065119 
L 239.425268 -206.552406 
L 239.425268 -198.460969 
L 239.425268 -198.460969 
L 236.156982 -199.328948 
L 233.526411 -199.655136 
L 231.613268 -195.907814 
L 229.859554 -195.672854 
L 228.105839 -181.247596 
L 226.670982 -177.259193 
L 224.518696 -176.59802 
L 222.366411 -176.502558 
L 220.373554 -176.638644 
L 218.858982 -183.023729 
L 217.424125 -173.784676 
L 216.148696 -174.331578 
L 214.554411 -174.988515 
L 212.641268 -174.620288 
L 210.807839 -172.4886 
L 209.054125 -173.738236 
L 207.140982 -173.214066 
L 205.307554 -171.574444 
L 203.792982 -170.874825 
L 202.039268 -171.460228 
L 199.886982 -173.802554 
L 197.973839 -174.512771 
L 195.980982 -179.906893 
L 193.430125 -171.703925 
L 191.118411 -172.191488 
L 189.045839 -177.235649 
L 187.610982 -169.845372 
L 185.299268 -168.95636 
L 183.386125 -174.089305 
L 181.074411 -155.546086 
L 178.682982 -155.096464 
L 176.530696 -156.532139 
L 173.581268 -156.469782 
L 170.552125 -146.013624 
L 167.682411 -158.375344 
L 164.892411 -159.40902 
L 162.102411 -161.15739 
L 159.232696 -158.00782 
L 156.602125 -175.265804 
L 153.812125 -174.699512 
L 150.942411 -175.228983 
L 147.514696 -170.531025 
L 145.202982 -176.468179 
L 141.854982 -173.399387 
L 137.869268 -173.258396 
L 134.042982 -173.972805 
L 130.535554 -177.741429 
L 127.426696 -176.606439 
L 125.354125 -151.522152 
L 124.158411 -150.791277 
L 121.766982 -134.874213 
L 119.614696 -134.030571 
L 117.781268 -133.934148 
L 116.027554 -143.913366 
L 113.556411 -31.860554 
L 112.360696 -33.368171 
L 111.005554 -32.971529 
L 109.331554 -27.240317 
L 107.338696 -27.081746 
L 106.063268 -132.307539 
L 104.787839 -105.264542 
L 103.273268 -107.829051 
L 101.758696 -93.658663 
L 100.562982 -93.454075 
L 99.048411 -93.603341 
L 97.533839 -108.374653 
L 96.338125 -23.918217 
L 95.301839 -30.647 
L 94.026411 -33.205455 
L 93.069839 11.381528 
L 91.953839 11.244787 
L 90.837839 11.244787 
L 89.642125 36.714914 
L 88.605839 21.364075 
L 87.649268 21.364075 
L 86.373839 18.720216 
L 84.141839 -0.45266 
L 81.909839 -36.742474 
L 78.960411 -36.353209 
z
" style="stroke: #1f77b4; stroke-opacity: 0.1"/>
    </defs>
    <g clip-path="url(#p1c2ecd2b26)">
     <use xlink:href="#m283565ac8b" x="0" y="602.360937" style="fill: #1f77b4; fill-opacity: 0.1; stroke: #1f77b4; stroke-opacity: 0.1"/>
    </g>
   </g>
   <g id="matplotlib.axis_5">
    <g id="xtick_7">
     <g id="line2d_19">
      <g>
       <use xlink:href="#m1243b02bbf" x="138.905554" y="555.810469" style="stroke: #000000; stroke-width: 0.8"/>
      </g>
     </g>
     <g id="text_21">
      <!-- 200 -->
      <g transform="translate(127.227585 572.831406)scale(0.14 -0.14)">
       <use xlink:href="#ArialMT-32"/>
       <use xlink:href="#ArialMT-30" x="55.615234"/>
       <use xlink:href="#ArialMT-30" x="111.230469"/>
      </g>
     </g>
    </g>
    <g id="xtick_8">
     <g id="line2d_20">
      <g>
       <use xlink:href="#m1243b02bbf" x="218.619839" y="555.810469" style="stroke: #000000; stroke-width: 0.8"/>
      </g>
     </g>
     <g id="text_22">
      <!-- 400 -->
      <g transform="translate(206.941871 572.831406)scale(0.14 -0.14)">
       <use xlink:href="#ArialMT-34"/>
       <use xlink:href="#ArialMT-30" x="55.615234"/>
       <use xlink:href="#ArialMT-30" x="111.230469"/>
      </g>
     </g>
    </g>
    <g id="xtick_9">
     <g id="line2d_21">
      <g>
       <use xlink:href="#m1243b02bbf" x="298.334125" y="555.810469" style="stroke: #000000; stroke-width: 0.8"/>
      </g>
     </g>
     <g id="text_23">
      <!-- 600 -->
      <g transform="translate(286.656156 572.831406)scale(0.14 -0.14)">
       <use xlink:href="#ArialMT-36"/>
       <use xlink:href="#ArialMT-30" x="55.615234"/>
       <use xlink:href="#ArialMT-30" x="111.230469"/>
      </g>
     </g>
    </g>
    <g id="text_24">
     <!-- Number of Nodes -->
     <g transform="translate(120.124672 591.782187)scale(0.17 -0.17)">
      <defs>
       <path id="ArialMT-4e" d="M 488 0 
L 488 4581 
L 1109 4581 
L 3516 984 
L 3516 4581 
L 4097 4581 
L 4097 0 
L 3475 0 
L 1069 3600 
L 1069 0 
L 488 0 
z
" transform="scale(0.015625)"/>
       <path id="ArialMT-6d" d="M 422 0 
L 422 3319 
L 925 3319 
L 925 2853 
Q 1081 3097 1340 3245 
Q 1600 3394 1931 3394 
Q 2300 3394 2536 3241 
Q 2772 3088 2869 2813 
Q 3263 3394 3894 3394 
Q 4388 3394 4653 3120 
Q 4919 2847 4919 2278 
L 4919 0 
L 4359 0 
L 4359 2091 
Q 4359 2428 4304 2576 
Q 4250 2725 4106 2815 
Q 3963 2906 3769 2906 
Q 3419 2906 3187 2673 
Q 2956 2441 2956 1928 
L 2956 0 
L 2394 0 
L 2394 2156 
Q 2394 2531 2256 2718 
Q 2119 2906 1806 2906 
Q 1569 2906 1367 2781 
Q 1166 2656 1075 2415 
Q 984 2175 984 1722 
L 984 0 
L 422 0 
z
" transform="scale(0.015625)"/>
       <path id="ArialMT-62" d="M 941 0 
L 419 0 
L 419 4581 
L 981 4581 
L 981 2947 
Q 1338 3394 1891 3394 
Q 2197 3394 2470 3270 
Q 2744 3147 2920 2923 
Q 3097 2700 3197 2384 
Q 3297 2069 3297 1709 
Q 3297 856 2875 390 
Q 2453 -75 1863 -75 
Q 1275 -75 941 416 
L 941 0 
z
M 934 1684 
Q 934 1088 1097 822 
Q 1363 388 1816 388 
Q 2184 388 2453 708 
Q 2722 1028 2722 1663 
Q 2722 2313 2464 2622 
Q 2206 2931 1841 2931 
Q 1472 2931 1203 2611 
Q 934 2291 934 1684 
z
" transform="scale(0.015625)"/>
       <path id="ArialMT-72" d="M 416 0 
L 416 3319 
L 922 3319 
L 922 2816 
Q 1116 3169 1280 3281 
Q 1444 3394 1641 3394 
Q 1925 3394 2219 3213 
L 2025 2691 
Q 1819 2813 1613 2813 
Q 1428 2813 1281 2702 
Q 1134 2591 1072 2394 
Q 978 2094 978 1738 
L 978 0 
L 416 0 
z
" transform="scale(0.015625)"/>
       <path id="ArialMT-66" d="M 556 0 
L 556 2881 
L 59 2881 
L 59 3319 
L 556 3319 
L 556 3672 
Q 556 4006 616 4169 
Q 697 4388 901 4523 
Q 1106 4659 1475 4659 
Q 1713 4659 2000 4603 
L 1916 4113 
Q 1741 4144 1584 4144 
Q 1328 4144 1222 4034 
Q 1116 3925 1116 3625 
L 1116 3319 
L 1763 3319 
L 1763 2881 
L 1116 2881 
L 1116 0 
L 556 0 
z
" transform="scale(0.015625)"/>
       <path id="ArialMT-64" d="M 2575 0 
L 2575 419 
Q 2259 -75 1647 -75 
Q 1250 -75 917 144 
Q 584 363 401 755 
Q 219 1147 219 1656 
Q 219 2153 384 2558 
Q 550 2963 881 3178 
Q 1213 3394 1622 3394 
Q 1922 3394 2156 3267 
Q 2391 3141 2538 2938 
L 2538 4581 
L 3097 4581 
L 3097 0 
L 2575 0 
z
M 797 1656 
Q 797 1019 1065 703 
Q 1334 388 1700 388 
Q 2069 388 2326 689 
Q 2584 991 2584 1609 
Q 2584 2291 2321 2609 
Q 2059 2928 1675 2928 
Q 1300 2928 1048 2622 
Q 797 2316 797 1656 
z
" transform="scale(0.015625)"/>
       <path id="ArialMT-73" d="M 197 991 
L 753 1078 
Q 800 744 1014 566 
Q 1228 388 1613 388 
Q 2000 388 2187 545 
Q 2375 703 2375 916 
Q 2375 1106 2209 1216 
Q 2094 1291 1634 1406 
Q 1016 1563 777 1677 
Q 538 1791 414 1992 
Q 291 2194 291 2438 
Q 291 2659 392 2848 
Q 494 3038 669 3163 
Q 800 3259 1026 3326 
Q 1253 3394 1513 3394 
Q 1903 3394 2198 3281 
Q 2494 3169 2634 2976 
Q 2775 2784 2828 2463 
L 2278 2388 
Q 2241 2644 2061 2787 
Q 1881 2931 1553 2931 
Q 1166 2931 1000 2803 
Q 834 2675 834 2503 
Q 834 2394 903 2306 
Q 972 2216 1119 2156 
Q 1203 2125 1616 2013 
Q 2213 1853 2448 1751 
Q 2684 1650 2818 1456 
Q 2953 1263 2953 975 
Q 2953 694 2789 445 
Q 2625 197 2315 61 
Q 2006 -75 1616 -75 
Q 969 -75 630 194 
Q 291 463 197 991 
z
" transform="scale(0.015625)"/>
      </defs>
      <use xlink:href="#ArialMT-4e"/>
      <use xlink:href="#ArialMT-75" x="72.216797"/>
      <use xlink:href="#ArialMT-6d" x="127.832031"/>
      <use xlink:href="#ArialMT-62" x="211.132812"/>
      <use xlink:href="#ArialMT-65" x="266.748047"/>
      <use xlink:href="#ArialMT-72" x="322.363281"/>
      <use xlink:href="#ArialMT-20" x="355.664062"/>
      <use xlink:href="#ArialMT-6f" x="383.447266"/>
      <use xlink:href="#ArialMT-66" x="439.0625"/>
      <use xlink:href="#ArialMT-20" x="466.845703"/>
      <use xlink:href="#ArialMT-4e" x="494.628906"/>
      <use xlink:href="#ArialMT-6f" x="566.845703"/>
      <use xlink:href="#ArialMT-64" x="622.460938"/>
      <use xlink:href="#ArialMT-65" x="678.076172"/>
      <use xlink:href="#ArialMT-73" x="733.691406"/>
     </g>
    </g>
   </g>
   <g id="matplotlib.axis_6">
    <g id="ytick_13">
     <g id="line2d_22">
      <g>
       <use xlink:href="#mab70f01600" x="75.134125" y="395.928116" style="stroke: #000000; stroke-width: 0.8"/>
      </g>
     </g>
     <g id="text_25">
      <!-- 0 -->
      <g transform="translate(60.348813 400.938585)scale(0.14 -0.14)">
       <use xlink:href="#ArialMT-30"/>
      </g>
     </g>
    </g>
    <g id="ytick_14">
     <g id="line2d_23">
      <g>
       <use xlink:href="#mab70f01600" x="75.134125" y="427.904586" style="stroke: #000000; stroke-width: 0.8"/>
      </g>
     </g>
     <g id="text_26">
      <!-- 20 -->
      <g transform="translate(52.5635 432.915055)scale(0.14 -0.14)">
       <use xlink:href="#ArialMT-32"/>
       <use xlink:href="#ArialMT-30" x="55.615234"/>
      </g>
     </g>
    </g>
    <g id="ytick_15">
     <g id="line2d_24">
      <g>
       <use xlink:href="#mab70f01600" x="75.134125" y="459.881057" style="stroke: #000000; stroke-width: 0.8"/>
      </g>
     </g>
     <g id="text_27">
      <!-- 40 -->
      <g transform="translate(52.5635 464.891526)scale(0.14 -0.14)">
       <use xlink:href="#ArialMT-34"/>
       <use xlink:href="#ArialMT-30" x="55.615234"/>
      </g>
     </g>
    </g>
    <g id="ytick_16">
     <g id="line2d_25">
      <g>
       <use xlink:href="#mab70f01600" x="75.134125" y="491.857528" style="stroke: #000000; stroke-width: 0.8"/>
      </g>
     </g>
     <g id="text_28">
      <!-- 60 -->
      <g transform="translate(52.5635 496.867996)scale(0.14 -0.14)">
       <use xlink:href="#ArialMT-36"/>
       <use xlink:href="#ArialMT-30" x="55.615234"/>
      </g>
     </g>
    </g>
    <g id="ytick_17">
     <g id="line2d_26">
      <g>
       <use xlink:href="#mab70f01600" x="75.134125" y="523.833998" style="stroke: #000000; stroke-width: 0.8"/>
      </g>
     </g>
     <g id="text_29">
      <!-- 80 -->
      <g transform="translate(52.5635 528.844467)scale(0.14 -0.14)">
       <use xlink:href="#ArialMT-38"/>
       <use xlink:href="#ArialMT-30" x="55.615234"/>
      </g>
     </g>
    </g>
    <g id="ytick_18">
     <g id="line2d_27">
      <g>
       <use xlink:href="#mab70f01600" x="75.134125" y="555.810469" style="stroke: #000000; stroke-width: 0.8"/>
      </g>
     </g>
     <g id="text_30">
      <!-- 100 -->
      <g transform="translate(44.778188 560.820938)scale(0.14 -0.14)">
       <use xlink:href="#ArialMT-31"/>
       <use xlink:href="#ArialMT-30" x="55.615234"/>
       <use xlink:href="#ArialMT-30" x="111.230469"/>
      </g>
     </g>
    </g>
    <g id="text_31">
     <!-- Phox2a -->
     <g transform="translate(19.41875 504.696245)rotate(-90)scale(0.17 -0.17)">
      <defs>
       <path id="ArialMT-50" d="M 494 0 
L 494 4581 
L 2222 4581 
Q 2678 4581 2919 4538 
Q 3256 4481 3484 4323 
Q 3713 4166 3852 3881 
Q 3991 3597 3991 3256 
Q 3991 2672 3619 2267 
Q 3247 1863 2275 1863 
L 1100 1863 
L 1100 0 
L 494 0 
z
M 1100 2403 
L 2284 2403 
Q 2872 2403 3119 2622 
Q 3366 2841 3366 3238 
Q 3366 3525 3220 3729 
Q 3075 3934 2838 4000 
Q 2684 4041 2272 4041 
L 1100 4041 
L 1100 2403 
z
" transform="scale(0.015625)"/>
      </defs>
      <use xlink:href="#ArialMT-50"/>
      <use xlink:href="#ArialMT-68" x="66.699219"/>
      <use xlink:href="#ArialMT-6f" x="122.314453"/>
      <use xlink:href="#ArialMT-78" x="177.929688"/>
      <use xlink:href="#ArialMT-32" x="227.929688"/>
      <use xlink:href="#ArialMT-61" x="283.544922"/>
     </g>
     <!-- Rank Quantile -->
     <g transform="translate(37.399438 529.730074)rotate(-90)scale(0.17 -0.17)">
      <use xlink:href="#ArialMT-52"/>
      <use xlink:href="#ArialMT-61" x="72.216797"/>
      <use xlink:href="#ArialMT-6e" x="127.832031"/>
      <use xlink:href="#ArialMT-6b" x="183.447266"/>
      <use xlink:href="#ArialMT-20" x="233.447266"/>
      <use xlink:href="#ArialMT-51" x="261.230469"/>
      <use xlink:href="#ArialMT-75" x="339.013672"/>
      <use xlink:href="#ArialMT-61" x="394.628906"/>
      <use xlink:href="#ArialMT-6e" x="450.244141"/>
      <use xlink:href="#ArialMT-74" x="505.859375"/>
      <use xlink:href="#ArialMT-69" x="533.642578"/>
      <use xlink:href="#ArialMT-6c" x="555.859375"/>
      <use xlink:href="#ArialMT-65" x="578.076172"/>
     </g>
    </g>
   </g>
   <g id="patch_13">
    <path d="M 75.134125 555.810469 
L 75.134125 395.928116 
" style="fill: none; stroke: #000000; stroke-width: 0.8; stroke-linejoin: miter; stroke-linecap: square"/>
   </g>
   <g id="patch_14">
    <path d="M 298.334125 555.810469 
L 298.334125 395.928116 
" style="fill: none"/>
   </g>
   <g id="patch_15">
    <path d="M 75.134125 555.810469 
L 298.334125 555.810469 
" style="fill: none; stroke: #000000; stroke-width: 0.8; stroke-linejoin: miter; stroke-linecap: square"/>
   </g>
   <g id="patch_16">
    <path d="M 75.134125 395.928116 
L 298.334125 395.928116 
" style="fill: none"/>
   </g>
  </g>
 </g>
 <defs>
  <clipPath id="p2967db3fd4">
   <rect x="75.134125" y="12.210469" width="223.2" height="159.882353"/>
  </clipPath>
  <clipPath id="pf343cf847f">
   <rect x="75.134125" y="204.069292" width="223.2" height="159.882353"/>
  </clipPath>
  <clipPath id="p1c2ecd2b26">
   <rect x="75.134125" y="395.928116" width="223.2" height="159.882353"/>
  </clipPath>
 </defs>
</svg>
