<?xml version="1.0" encoding="utf-8" standalone="no"?>
<!DOCTYPE svg PUBLIC "-//W3C//DTD SVG 1.1//EN"
  "http://www.w3.org/Graphics/SVG/1.1/DTD/svg11.dtd">
<svg xmlns:xlink="http://www.w3.org/1999/xlink" width="317.379437pt" height="602.360937pt" viewBox="0 0 317.379437 602.360937" xmlns="http://www.w3.org/2000/svg" version="1.1">
 <metadata>
  <rdf:RDF xmlns:dc="http://purl.org/dc/elements/1.1/" xmlns:cc="http://creativecommons.org/ns#" xmlns:rdf="http://www.w3.org/1999/02/22-rdf-syntax-ns#">
   <cc:Work>
    <dc:type rdf:resource="http://purl.org/dc/dcmitype/StillImage"/>
    <dc:date>2025-08-12T14:40:52.606697</dc:date>
    <dc:format>image/svg+xml</dc:format>
    <dc:creator>
     <cc:Agent>
      <dc:title>Matplotlib v3.5.3, https://matplotlib.org/</dc:title>
     </cc:Agent>
    </dc:creator>
   </cc:Work>
  </rdf:RDF>
 </metadata>
 <defs>
  <style type="text/css">*{stroke-linejoin: round; stroke-linecap: butt}</style>
 </defs>
 <g id="figure_1">
  <g id="patch_1">
   <path d="M 0 602.360937 
L 317.379437 602.360937 
L 317.379437 0 
L 0 0 
L 0 602.360937 
z
" style="fill: none"/>
  </g>
  <g id="axes_1">
   <g id="patch_2">
    <path d="M 75.301469 172.092822 
L 298.501469 172.092822 
L 298.501469 12.210469 
L 75.301469 12.210469 
z
" style="fill: #ffffff"/>
   </g>
   <g id="PathCollection_1">
    <defs>
     <path id="m3ad97e5a99" d="M 0 0.5 
C 0.132602 0.5 0.25979 0.447317 0.353553 0.353553 
C 0.447317 0.25979 0.5 0.132602 0.5 0 
C 0.5 -0.132602 0.447317 -0.25979 0.353553 -0.353553 
C 0.25979 -0.447317 0.132602 -0.5 0 -0.5 
C -0.132602 -0.5 -0.25979 -0.447317 -0.353553 -0.353553 
C -0.447317 -0.25979 -0.5 -0.132602 -0.5 0 
C -0.5 0.132602 -0.447317 0.25979 -0.353553 0.353553 
C -0.25979 0.447317 -0.132602 0.5 0 0.5 
z
" style="stroke: #1f77b4; stroke-opacity: 0.5"/>
    </defs>
    <g clip-path="url(#pbfcf1bac3f)">
     <use xlink:href="#m3ad97e5a99" x="81.678612" y="172.092822" style="fill: #1f77b4; fill-opacity: 0.5; stroke: #1f77b4; stroke-opacity: 0.5"/>
     <use xlink:href="#m3ad97e5a99" x="86.062897" y="172.092822" style="fill: #1f77b4; fill-opacity: 0.5; stroke: #1f77b4; stroke-opacity: 0.5"/>
     <use xlink:href="#m3ad97e5a99" x="90.048612" y="172.092822" style="fill: #1f77b4; fill-opacity: 0.5; stroke: #1f77b4; stroke-opacity: 0.5"/>
     <use xlink:href="#m3ad97e5a99" x="90.845754" y="87.092077" style="fill: #1f77b4; fill-opacity: 0.5; stroke: #1f77b4; stroke-opacity: 0.5"/>
     <use xlink:href="#m3ad97e5a99" x="91.642897" y="172.092822" style="fill: #1f77b4; fill-opacity: 0.5; stroke: #1f77b4; stroke-opacity: 0.5"/>
     <use xlink:href="#m3ad97e5a99" x="92.44004" y="93.114792" style="fill: #1f77b4; fill-opacity: 0.5; stroke: #1f77b4; stroke-opacity: 0.5"/>
     <use xlink:href="#m3ad97e5a99" x="94.432897" y="172.092822" style="fill: #1f77b4; fill-opacity: 0.5; stroke: #1f77b4; stroke-opacity: 0.5"/>
     <use xlink:href="#m3ad97e5a99" x="96.425754" y="172.092822" style="fill: #1f77b4; fill-opacity: 0.5; stroke: #1f77b4; stroke-opacity: 0.5"/>
     <use xlink:href="#m3ad97e5a99" x="98.02004" y="172.092822" style="fill: #1f77b4; fill-opacity: 0.5; stroke: #1f77b4; stroke-opacity: 0.5"/>
     <use xlink:href="#m3ad97e5a99" x="100.012897" y="87.449223" style="fill: #1f77b4; fill-opacity: 0.5; stroke: #1f77b4; stroke-opacity: 0.5"/>
     <use xlink:href="#m3ad97e5a99" x="101.208612" y="74.640721" style="fill: #1f77b4; fill-opacity: 0.5; stroke: #1f77b4; stroke-opacity: 0.5"/>
     <use xlink:href="#m3ad97e5a99" x="102.802897" y="35.679438" style="fill: #1f77b4; fill-opacity: 0.5; stroke: #1f77b4; stroke-opacity: 0.5"/>
     <use xlink:href="#m3ad97e5a99" x="103.201469" y="68.89603" style="fill: #1f77b4; fill-opacity: 0.5; stroke: #1f77b4; stroke-opacity: 0.5"/>
     <use xlink:href="#m3ad97e5a99" x="104.795754" y="80.931831" style="fill: #1f77b4; fill-opacity: 0.5; stroke: #1f77b4; stroke-opacity: 0.5"/>
     <use xlink:href="#m3ad97e5a99" x="107.187183" y="62.839881" style="fill: #1f77b4; fill-opacity: 0.5; stroke: #1f77b4; stroke-opacity: 0.5"/>
     <use xlink:href="#m3ad97e5a99" x="109.18004" y="40.349763" style="fill: #1f77b4; fill-opacity: 0.5; stroke: #1f77b4; stroke-opacity: 0.5"/>
     <use xlink:href="#m3ad97e5a99" x="111.97004" y="26.745228" style="fill: #1f77b4; fill-opacity: 0.5; stroke: #1f77b4; stroke-opacity: 0.5"/>
     <use xlink:href="#m3ad97e5a99" x="112.368612" y="69.912371" style="fill: #1f77b4; fill-opacity: 0.5; stroke: #1f77b4; stroke-opacity: 0.5"/>
     <use xlink:href="#m3ad97e5a99" x="113.165754" y="35.896743" style="fill: #1f77b4; fill-opacity: 0.5; stroke: #1f77b4; stroke-opacity: 0.5"/>
     <use xlink:href="#m3ad97e5a99" x="114.76004" y="72.022572" style="fill: #1f77b4; fill-opacity: 0.5; stroke: #1f77b4; stroke-opacity: 0.5"/>
     <use xlink:href="#m3ad97e5a99" x="118.745754" y="24.013864" style="fill: #1f77b4; fill-opacity: 0.5; stroke: #1f77b4; stroke-opacity: 0.5"/>
     <use xlink:href="#m3ad97e5a99" x="119.542897" y="32.328116" style="fill: #1f77b4; fill-opacity: 0.5; stroke: #1f77b4; stroke-opacity: 0.5"/>
     <use xlink:href="#m3ad97e5a99" x="120.34004" y="23.705278" style="fill: #1f77b4; fill-opacity: 0.5; stroke: #1f77b4; stroke-opacity: 0.5"/>
     <use xlink:href="#m3ad97e5a99" x="121.934326" y="61.091698" style="fill: #1f77b4; fill-opacity: 0.5; stroke: #1f77b4; stroke-opacity: 0.5"/>
     <use xlink:href="#m3ad97e5a99" x="124.724326" y="25.858962" style="fill: #1f77b4; fill-opacity: 0.5; stroke: #1f77b4; stroke-opacity: 0.5"/>
     <use xlink:href="#m3ad97e5a99" x="125.521469" y="24.731376" style="fill: #1f77b4; fill-opacity: 0.5; stroke: #1f77b4; stroke-opacity: 0.5"/>
     <use xlink:href="#m3ad97e5a99" x="132.695754" y="42.622873" style="fill: #1f77b4; fill-opacity: 0.5; stroke: #1f77b4; stroke-opacity: 0.5"/>
     <use xlink:href="#m3ad97e5a99" x="132.695754" y="20.899727" style="fill: #1f77b4; fill-opacity: 0.5; stroke: #1f77b4; stroke-opacity: 0.5"/>
     <use xlink:href="#m3ad97e5a99" x="134.688612" y="18.977976" style="fill: #1f77b4; fill-opacity: 0.5; stroke: #1f77b4; stroke-opacity: 0.5"/>
     <use xlink:href="#m3ad97e5a99" x="140.268612" y="20.874045" style="fill: #1f77b4; fill-opacity: 0.5; stroke: #1f77b4; stroke-opacity: 0.5"/>
     <use xlink:href="#m3ad97e5a99" x="140.268612" y="16.936056" style="fill: #1f77b4; fill-opacity: 0.5; stroke: #1f77b4; stroke-opacity: 0.5"/>
     <use xlink:href="#m3ad97e5a99" x="142.66004" y="16.035405" style="fill: #1f77b4; fill-opacity: 0.5; stroke: #1f77b4; stroke-opacity: 0.5"/>
     <use xlink:href="#m3ad97e5a99" x="142.66004" y="18.330367" style="fill: #1f77b4; fill-opacity: 0.5; stroke: #1f77b4; stroke-opacity: 0.5"/>
     <use xlink:href="#m3ad97e5a99" x="148.638612" y="23.630637" style="fill: #1f77b4; fill-opacity: 0.5; stroke: #1f77b4; stroke-opacity: 0.5"/>
     <use xlink:href="#m3ad97e5a99" x="151.428612" y="21.208177" style="fill: #1f77b4; fill-opacity: 0.5; stroke: #1f77b4; stroke-opacity: 0.5"/>
     <use xlink:href="#m3ad97e5a99" x="153.421469" y="17.63021" style="fill: #1f77b4; fill-opacity: 0.5; stroke: #1f77b4; stroke-opacity: 0.5"/>
     <use xlink:href="#m3ad97e5a99" x="153.421469" y="16.275274" style="fill: #1f77b4; fill-opacity: 0.5; stroke: #1f77b4; stroke-opacity: 0.5"/>
     <use xlink:href="#m3ad97e5a99" x="155.414326" y="12.873881" style="fill: #1f77b4; fill-opacity: 0.5; stroke: #1f77b4; stroke-opacity: 0.5"/>
     <use xlink:href="#m3ad97e5a99" x="157.407183" y="18.059823" style="fill: #1f77b4; fill-opacity: 0.5; stroke: #1f77b4; stroke-opacity: 0.5"/>
     <use xlink:href="#m3ad97e5a99" x="161.791469" y="15.943131" style="fill: #1f77b4; fill-opacity: 0.5; stroke: #1f77b4; stroke-opacity: 0.5"/>
     <use xlink:href="#m3ad97e5a99" x="162.19004" y="15.308964" style="fill: #1f77b4; fill-opacity: 0.5; stroke: #1f77b4; stroke-opacity: 0.5"/>
     <use xlink:href="#m3ad97e5a99" x="166.175754" y="27.721443" style="fill: #1f77b4; fill-opacity: 0.5; stroke: #1f77b4; stroke-opacity: 0.5"/>
     <use xlink:href="#m3ad97e5a99" x="166.972897" y="13.394782" style="fill: #1f77b4; fill-opacity: 0.5; stroke: #1f77b4; stroke-opacity: 0.5"/>
     <use xlink:href="#m3ad97e5a99" x="169.364326" y="12.789753" style="fill: #1f77b4; fill-opacity: 0.5; stroke: #1f77b4; stroke-opacity: 0.5"/>
     <use xlink:href="#m3ad97e5a99" x="170.958612" y="19.06257" style="fill: #1f77b4; fill-opacity: 0.5; stroke: #1f77b4; stroke-opacity: 0.5"/>
     <use xlink:href="#m3ad97e5a99" x="171.755754" y="19.013973" style="fill: #1f77b4; fill-opacity: 0.5; stroke: #1f77b4; stroke-opacity: 0.5"/>
     <use xlink:href="#m3ad97e5a99" x="177.734326" y="14.363766" style="fill: #1f77b4; fill-opacity: 0.5; stroke: #1f77b4; stroke-opacity: 0.5"/>
     <use xlink:href="#m3ad97e5a99" x="178.531469" y="12.745192" style="fill: #1f77b4; fill-opacity: 0.5; stroke: #1f77b4; stroke-opacity: 0.5"/>
     <use xlink:href="#m3ad97e5a99" x="178.93004" y="13.276351" style="fill: #1f77b4; fill-opacity: 0.5; stroke: #1f77b4; stroke-opacity: 0.5"/>
     <use xlink:href="#m3ad97e5a99" x="181.321469" y="16.912891" style="fill: #1f77b4; fill-opacity: 0.5; stroke: #1f77b4; stroke-opacity: 0.5"/>
     <use xlink:href="#m3ad97e5a99" x="182.118612" y="14.286863" style="fill: #1f77b4; fill-opacity: 0.5; stroke: #1f77b4; stroke-opacity: 0.5"/>
     <use xlink:href="#m3ad97e5a99" x="188.894326" y="12.702414" style="fill: #1f77b4; fill-opacity: 0.5; stroke: #1f77b4; stroke-opacity: 0.5"/>
     <use xlink:href="#m3ad97e5a99" x="189.292897" y="17.114835" style="fill: #1f77b4; fill-opacity: 0.5; stroke: #1f77b4; stroke-opacity: 0.5"/>
     <use xlink:href="#m3ad97e5a99" x="190.09004" y="14.6477" style="fill: #1f77b4; fill-opacity: 0.5; stroke: #1f77b4; stroke-opacity: 0.5"/>
     <use xlink:href="#m3ad97e5a99" x="190.488612" y="12.696433" style="fill: #1f77b4; fill-opacity: 0.5; stroke: #1f77b4; stroke-opacity: 0.5"/>
     <use xlink:href="#m3ad97e5a99" x="192.481469" y="15.082607" style="fill: #1f77b4; fill-opacity: 0.5; stroke: #1f77b4; stroke-opacity: 0.5"/>
     <use xlink:href="#m3ad97e5a99" x="195.271469" y="12.679332" style="fill: #1f77b4; fill-opacity: 0.5; stroke: #1f77b4; stroke-opacity: 0.5"/>
     <use xlink:href="#m3ad97e5a99" x="198.858612" y="19.06257" style="fill: #1f77b4; fill-opacity: 0.5; stroke: #1f77b4; stroke-opacity: 0.5"/>
     <use xlink:href="#m3ad97e5a99" x="200.054326" y="12.663393" style="fill: #1f77b4; fill-opacity: 0.5; stroke: #1f77b4; stroke-opacity: 0.5"/>
     <use xlink:href="#m3ad97e5a99" x="202.844326" y="13.986939" style="fill: #1f77b4; fill-opacity: 0.5; stroke: #1f77b4; stroke-opacity: 0.5"/>
     <use xlink:href="#m3ad97e5a99" x="203.641469" y="13.977125" style="fill: #1f77b4; fill-opacity: 0.5; stroke: #1f77b4; stroke-opacity: 0.5"/>
     <use xlink:href="#m3ad97e5a99" x="204.438612" y="12.649706" style="fill: #1f77b4; fill-opacity: 0.5; stroke: #1f77b4; stroke-opacity: 0.5"/>
     <use xlink:href="#m3ad97e5a99" x="207.228612" y="13.934268" style="fill: #1f77b4; fill-opacity: 0.5; stroke: #1f77b4; stroke-opacity: 0.5"/>
     <use xlink:href="#m3ad97e5a99" x="209.62004" y="12.63456" style="fill: #1f77b4; fill-opacity: 0.5; stroke: #1f77b4; stroke-opacity: 0.5"/>
     <use xlink:href="#m3ad97e5a99" x="211.214326" y="24.379992" style="fill: #1f77b4; fill-opacity: 0.5; stroke: #1f77b4; stroke-opacity: 0.5"/>
     <use xlink:href="#m3ad97e5a99" x="211.214326" y="13.049746" style="fill: #1f77b4; fill-opacity: 0.5; stroke: #1f77b4; stroke-opacity: 0.5"/>
     <use xlink:href="#m3ad97e5a99" x="212.808612" y="12.625748" style="fill: #1f77b4; fill-opacity: 0.5; stroke: #1f77b4; stroke-opacity: 0.5"/>
     <use xlink:href="#m3ad97e5a99" x="215.20004" y="12.619375" style="fill: #1f77b4; fill-opacity: 0.5; stroke: #1f77b4; stroke-opacity: 0.5"/>
     <use xlink:href="#m3ad97e5a99" x="217.99004" y="13.817327" style="fill: #1f77b4; fill-opacity: 0.5; stroke: #1f77b4; stroke-opacity: 0.5"/>
     <use xlink:href="#m3ad97e5a99" x="218.787183" y="14.208998" style="fill: #1f77b4; fill-opacity: 0.5; stroke: #1f77b4; stroke-opacity: 0.5"/>
     <use xlink:href="#m3ad97e5a99" x="220.78004" y="12.60524" style="fill: #1f77b4; fill-opacity: 0.5; stroke: #1f77b4; stroke-opacity: 0.5"/>
     <use xlink:href="#m3ad97e5a99" x="221.178612" y="12.604268" style="fill: #1f77b4; fill-opacity: 0.5; stroke: #1f77b4; stroke-opacity: 0.5"/>
     <use xlink:href="#m3ad97e5a99" x="223.171469" y="12.599477" style="fill: #1f77b4; fill-opacity: 0.5; stroke: #1f77b4; stroke-opacity: 0.5"/>
     <use xlink:href="#m3ad97e5a99" x="225.164326" y="15.669462" style="fill: #1f77b4; fill-opacity: 0.5; stroke: #1f77b4; stroke-opacity: 0.5"/>
     <use xlink:href="#m3ad97e5a99" x="225.562897" y="12.977291" style="fill: #1f77b4; fill-opacity: 0.5; stroke: #1f77b4; stroke-opacity: 0.5"/>
     <use xlink:href="#m3ad97e5a99" x="227.157183" y="14.489077" style="fill: #1f77b4; fill-opacity: 0.5; stroke: #1f77b4; stroke-opacity: 0.5"/>
     <use xlink:href="#m3ad97e5a99" x="227.157183" y="12.590237" style="fill: #1f77b4; fill-opacity: 0.5; stroke: #1f77b4; stroke-opacity: 0.5"/>
     <use xlink:href="#m3ad97e5a99" x="231.541469" y="13.690861" style="fill: #1f77b4; fill-opacity: 0.5; stroke: #1f77b4; stroke-opacity: 0.5"/>
     <use xlink:href="#m3ad97e5a99" x="232.737183" y="13.313106" style="fill: #1f77b4; fill-opacity: 0.5; stroke: #1f77b4; stroke-opacity: 0.5"/>
     <use xlink:href="#m3ad97e5a99" x="233.932897" y="15.130694" style="fill: #1f77b4; fill-opacity: 0.5; stroke: #1f77b4; stroke-opacity: 0.5"/>
     <use xlink:href="#m3ad97e5a99" x="234.73004" y="18.387741" style="fill: #1f77b4; fill-opacity: 0.5; stroke: #1f77b4; stroke-opacity: 0.5"/>
     <use xlink:href="#m3ad97e5a99" x="235.128612" y="17.648644" style="fill: #1f77b4; fill-opacity: 0.5; stroke: #1f77b4; stroke-opacity: 0.5"/>
     <use xlink:href="#m3ad97e5a99" x="238.715754" y="17.539881" style="fill: #1f77b4; fill-opacity: 0.5; stroke: #1f77b4; stroke-opacity: 0.5"/>
     <use xlink:href="#m3ad97e5a99" x="240.31004" y="16.788598" style="fill: #1f77b4; fill-opacity: 0.5; stroke: #1f77b4; stroke-opacity: 0.5"/>
     <use xlink:href="#m3ad97e5a99" x="242.302897" y="14.300434" style="fill: #1f77b4; fill-opacity: 0.5; stroke: #1f77b4; stroke-opacity: 0.5"/>
     <use xlink:href="#m3ad97e5a99" x="242.701469" y="17.771594" style="fill: #1f77b4; fill-opacity: 0.5; stroke: #1f77b4; stroke-opacity: 0.5"/>
     <use xlink:href="#m3ad97e5a99" x="243.498612" y="12.9026" style="fill: #1f77b4; fill-opacity: 0.5; stroke: #1f77b4; stroke-opacity: 0.5"/>
     <use xlink:href="#m3ad97e5a99" x="244.694326" y="13.929634" style="fill: #1f77b4; fill-opacity: 0.5; stroke: #1f77b4; stroke-opacity: 0.5"/>
     <use xlink:href="#m3ad97e5a99" x="246.687183" y="15.612221" style="fill: #1f77b4; fill-opacity: 0.5; stroke: #1f77b4; stroke-opacity: 0.5"/>
     <use xlink:href="#m3ad97e5a99" x="248.281469" y="14.571601" style="fill: #1f77b4; fill-opacity: 0.5; stroke: #1f77b4; stroke-opacity: 0.5"/>
     <use xlink:href="#m3ad97e5a99" x="250.672897" y="18.539145" style="fill: #1f77b4; fill-opacity: 0.5; stroke: #1f77b4; stroke-opacity: 0.5"/>
     <use xlink:href="#m3ad97e5a99" x="257.847183" y="13.815713" style="fill: #1f77b4; fill-opacity: 0.5; stroke: #1f77b4; stroke-opacity: 0.5"/>
    </g>
   </g>
   <g id="PolyCollection_1">
    <defs>
     <path id="mc4dc417143" d="M 88.055754 -371.241288 
L 88.055754 -523.295242 
L 90.20804 -552.979654 
L 91.88204 -552.979654 
L 93.157469 -552.979654 
L 94.592326 -516.703819 
L 96.266326 -552.701195 
L 98.02004 -566.835556 
L 99.69404 -616.364601 
L 101.049183 -616.356383 
L 102.404326 -573.133941 
L 103.839183 -572.770465 
L 105.433469 -583.058713 
L 107.266897 -590.402119 
L 109.100326 -590.506189 
L 110.774326 -592.002514 
L 112.288897 -594.717612 
L 114.20204 -603.597981 
L 115.716612 -600.447004 
L 117.310897 -604.683202 
L 119.064612 -604.623977 
L 121.057469 -600.693569 
L 122.412612 -600.34366 
L 125.043183 -599.218823 
L 127.514326 -600.886324 
L 130.065183 -594.487356 
L 133.17404 -596.202752 
L 136.123469 -599.305835 
L 138.116326 -588.070972 
L 140.109183 -587.87864 
L 142.899183 -589.3901 
L 145.131183 -589.422143 
L 147.761754 -589.056907 
L 149.91404 -588.879541 
L 152.464897 -592.455217 
L 154.218612 -591.197937 
L 156.291183 -590.282424 
L 158.044897 -590.423503 
L 160.595754 -595.879828 
L 162.907469 -595.551558 
L 165.298897 -597.562258 
L 167.132326 -596.978923 
L 169.045469 -595.974108 
L 171.357183 -592.788632 
L 173.668897 -593.18618 
L 175.58204 -592.88785 
L 177.654612 -592.379288 
L 179.727183 -591.25255 
L 181.959183 -591.890167 
L 184.111469 -591.599856 
L 186.343469 -590.963622 
L 188.176897 -591.699998 
L 190.249469 -591.609391 
L 191.524897 -591.624952 
L 193.43804 -592.741526 
L 195.430897 -593.498777 
L 197.90204 -592.94968 
L 200.13404 -593.182178 
L 201.967469 -593.1982 
L 203.641469 -590.353783 
L 205.554612 -590.375343 
L 207.228612 -596.843742 
L 208.743183 -597.204746 
L 210.417183 -597.21587 
L 212.011469 -597.723464 
L 213.685469 -597.262773 
L 215.20004 -590.534754 
L 217.113183 -590.740193 
L 218.787183 -590.752182 
L 220.381469 -590.763273 
L 221.816326 -591.583175 
L 223.171469 -591.748515 
L 224.446897 -591.418892 
L 225.642612 -591.427197 
L 227.316612 -590.944785 
L 228.831183 -590.402063 
L 230.505183 -590.505332 
L 232.019754 -592.33709 
L 233.61404 -591.315578 
L 235.048897 -590.193613 
L 236.563469 -587.737289 
L 238.237469 -588.581919 
L 239.831754 -588.459559 
L 241.505754 -590.803448 
L 242.701469 -591.323459 
L 243.976897 -591.205167 
L 245.172612 -591.114988 
L 246.766897 -591.558843 
L 249.636612 -590.96611 
L 249.636612 -583.168439 
L 249.636612 -583.168439 
L 246.766897 -582.940952 
L 245.172612 -583.691828 
L 243.976897 -583.710115 
L 242.701469 -583.121272 
L 241.505754 -582.197185 
L 239.831754 -582.642656 
L 238.237469 -582.273836 
L 236.563469 -582.786363 
L 235.048897 -581.720236 
L 233.61404 -582.137879 
L 232.019754 -583.139729 
L 230.505183 -586.530953 
L 228.831183 -587.495584 
L 227.316612 -586.010319 
L 225.642612 -585.964461 
L 224.446897 -585.967153 
L 223.171469 -586.391065 
L 221.816326 -586.063722 
L 220.381469 -587.624478 
L 218.787183 -587.62761 
L 217.113183 -587.631007 
L 215.20004 -587.658643 
L 213.685469 -576.862227 
L 212.011469 -576.874643 
L 210.417183 -576.85628 
L 208.743183 -576.85782 
L 207.228612 -576.847873 
L 205.554612 -587.473493 
L 203.641469 -587.48352 
L 201.967469 -582.587782 
L 200.13404 -582.591953 
L 197.90204 -582.382259 
L 195.430897 -582.349364 
L 193.43804 -582.312892 
L 191.524897 -584.20856 
L 190.249469 -584.214888 
L 188.176897 -584.442578 
L 186.343469 -583.492372 
L 184.111469 -583.404677 
L 181.959183 -584.862223 
L 179.727183 -584.8353 
L 177.654612 -581.817718 
L 175.58204 -580.449284 
L 173.668897 -580.345593 
L 171.357183 -580.483306 
L 169.045469 -571.954759 
L 167.132326 -572.431947 
L 165.298897 -573.096388 
L 162.907469 -572.99906 
L 160.595754 -572.87915 
L 158.044897 -582.913943 
L 156.291183 -582.126523 
L 154.218612 -579.104992 
L 152.464897 -575.619387 
L 149.91404 -577.012468 
L 147.761754 -576.93105 
L 145.131183 -576.843475 
L 142.899183 -577.009172 
L 140.109183 -580.381695 
L 138.116326 -579.16162 
L 136.123469 -557.29177 
L 133.17404 -557.276725 
L 130.065183 -556.998154 
L 127.514326 -533.753697 
L 125.043183 -534.298977 
L 122.412612 -537.292043 
L 121.057469 -537.229139 
L 119.064612 -514.833287 
L 117.310897 -524.852044 
L 115.716612 -510.605405 
L 114.20204 -509.687582 
L 112.288897 -512.033592 
L 110.774326 -518.421767 
L 109.100326 -501.904057 
L 107.266897 -502.414663 
L 105.433469 -506.184385 
L 103.839183 -502.75625 
L 102.404326 -492.549037 
L 101.049183 -412.862198 
L 99.69404 -371.575264 
L 98.02004 -366.538956 
L 96.266326 -373.283688 
L 94.592326 -375.423624 
L 93.157469 -373.148087 
L 91.88204 -373.148087 
L 90.20804 -373.148087 
L 88.055754 -371.241288 
z
" style="stroke: #1f77b4; stroke-opacity: 0.1"/>
    </defs>
    <g clip-path="url(#pbfcf1bac3f)">
     <use xlink:href="#mc4dc417143" x="0" y="602.360937" style="fill: #1f77b4; fill-opacity: 0.1; stroke: #1f77b4; stroke-opacity: 0.1"/>
    </g>
   </g>
   <g id="matplotlib.axis_1">
    <g id="xtick_1">
     <g id="line2d_1">
      <defs>
       <path id="m7c1a3c6384" d="M 0 0 
L 0 3.5 
" style="stroke: #000000; stroke-width: 0.8"/>
      </defs>
      <g>
       <use xlink:href="#m7c1a3c6384" x="139.072897" y="172.092822" style="stroke: #000000; stroke-width: 0.8"/>
      </g>
     </g>
     <g id="text_1">
      <!-- 200 -->
      <g transform="translate(127.394929 189.113759)scale(0.14 -0.14)">
       <defs>
        <path id="ArialMT-32" d="M 3222 541 
L 3222 0 
L 194 0 
Q 188 203 259 391 
Q 375 700 629 1000 
Q 884 1300 1366 1694 
Q 2113 2306 2375 2664 
Q 2638 3022 2638 3341 
Q 2638 3675 2398 3904 
Q 2159 4134 1775 4134 
Q 1369 4134 1125 3890 
Q 881 3647 878 3216 
L 300 3275 
Q 359 3922 746 4261 
Q 1134 4600 1788 4600 
Q 2447 4600 2831 4234 
Q 3216 3869 3216 3328 
Q 3216 3053 3103 2787 
Q 2991 2522 2730 2228 
Q 2469 1934 1863 1422 
Q 1356 997 1212 845 
Q 1069 694 975 541 
L 3222 541 
z
" transform="scale(0.015625)"/>
        <path id="ArialMT-30" d="M 266 2259 
Q 266 3072 433 3567 
Q 600 4063 929 4331 
Q 1259 4600 1759 4600 
Q 2128 4600 2406 4451 
Q 2684 4303 2865 4023 
Q 3047 3744 3150 3342 
Q 3253 2941 3253 2259 
Q 3253 1453 3087 958 
Q 2922 463 2592 192 
Q 2263 -78 1759 -78 
Q 1097 -78 719 397 
Q 266 969 266 2259 
z
M 844 2259 
Q 844 1131 1108 757 
Q 1372 384 1759 384 
Q 2147 384 2411 759 
Q 2675 1134 2675 2259 
Q 2675 3391 2411 3762 
Q 2147 4134 1753 4134 
Q 1366 4134 1134 3806 
Q 844 3388 844 2259 
z
" transform="scale(0.015625)"/>
       </defs>
       <use xlink:href="#ArialMT-32"/>
       <use xlink:href="#ArialMT-30" x="55.615234"/>
       <use xlink:href="#ArialMT-30" x="111.230469"/>
      </g>
     </g>
    </g>
    <g id="xtick_2">
     <g id="line2d_2">
      <g>
       <use xlink:href="#m7c1a3c6384" x="218.787183" y="172.092822" style="stroke: #000000; stroke-width: 0.8"/>
      </g>
     </g>
     <g id="text_2">
      <!-- 400 -->
      <g transform="translate(207.109214 189.113759)scale(0.14 -0.14)">
       <defs>
        <path id="ArialMT-34" d="M 2069 0 
L 2069 1097 
L 81 1097 
L 81 1613 
L 2172 4581 
L 2631 4581 
L 2631 1613 
L 3250 1613 
L 3250 1097 
L 2631 1097 
L 2631 0 
L 2069 0 
z
M 2069 1613 
L 2069 3678 
L 634 1613 
L 2069 1613 
z
" transform="scale(0.015625)"/>
       </defs>
       <use xlink:href="#ArialMT-34"/>
       <use xlink:href="#ArialMT-30" x="55.615234"/>
       <use xlink:href="#ArialMT-30" x="111.230469"/>
      </g>
     </g>
    </g>
    <g id="xtick_3">
     <g id="line2d_3">
      <g>
       <use xlink:href="#m7c1a3c6384" x="298.501469" y="172.092822" style="stroke: #000000; stroke-width: 0.8"/>
      </g>
     </g>
     <g id="text_3">
      <!-- 600 -->
      <g transform="translate(286.8235 189.113759)scale(0.14 -0.14)">
       <defs>
        <path id="ArialMT-36" d="M 3184 3459 
L 2625 3416 
Q 2550 3747 2413 3897 
Q 2184 4138 1850 4138 
Q 1581 4138 1378 3988 
Q 1113 3794 959 3422 
Q 806 3050 800 2363 
Q 1003 2672 1297 2822 
Q 1591 2972 1913 2972 
Q 2475 2972 2870 2558 
Q 3266 2144 3266 1488 
Q 3266 1056 3080 686 
Q 2894 316 2569 119 
Q 2244 -78 1831 -78 
Q 1128 -78 684 439 
Q 241 956 241 2144 
Q 241 3472 731 4075 
Q 1159 4600 1884 4600 
Q 2425 4600 2770 4297 
Q 3116 3994 3184 3459 
z
M 888 1484 
Q 888 1194 1011 928 
Q 1134 663 1356 523 
Q 1578 384 1822 384 
Q 2178 384 2434 671 
Q 2691 959 2691 1453 
Q 2691 1928 2437 2201 
Q 2184 2475 1800 2475 
Q 1419 2475 1153 2201 
Q 888 1928 888 1484 
z
" transform="scale(0.015625)"/>
       </defs>
       <use xlink:href="#ArialMT-36"/>
       <use xlink:href="#ArialMT-30" x="55.615234"/>
       <use xlink:href="#ArialMT-30" x="111.230469"/>
      </g>
     </g>
    </g>
   </g>
   <g id="matplotlib.axis_2">
    <g id="ytick_1">
     <g id="line2d_4">
      <defs>
       <path id="mddac4bd73a" d="M 0 0 
L -3.5 0 
" style="stroke: #000000; stroke-width: 0.8"/>
      </defs>
      <g>
       <use xlink:href="#mddac4bd73a" x="75.301469" y="12.210469" style="stroke: #000000; stroke-width: 0.8"/>
      </g>
     </g>
     <g id="text_4">
      <!-- 0 -->
      <g transform="translate(60.516156 17.220937)scale(0.14 -0.14)">
       <use xlink:href="#ArialMT-30"/>
      </g>
     </g>
    </g>
    <g id="ytick_2">
     <g id="line2d_5">
      <g>
       <use xlink:href="#mddac4bd73a" x="75.301469" y="44.186939" style="stroke: #000000; stroke-width: 0.8"/>
      </g>
     </g>
     <g id="text_5">
      <!-- 20 -->
      <g transform="translate(52.730844 49.197408)scale(0.14 -0.14)">
       <use xlink:href="#ArialMT-32"/>
       <use xlink:href="#ArialMT-30" x="55.615234"/>
      </g>
     </g>
    </g>
    <g id="ytick_3">
     <g id="line2d_6">
      <g>
       <use xlink:href="#mddac4bd73a" x="75.301469" y="76.16341" style="stroke: #000000; stroke-width: 0.8"/>
      </g>
     </g>
     <g id="text_6">
      <!-- 40 -->
      <g transform="translate(52.730844 81.173879)scale(0.14 -0.14)">
       <use xlink:href="#ArialMT-34"/>
       <use xlink:href="#ArialMT-30" x="55.615234"/>
      </g>
     </g>
    </g>
    <g id="ytick_4">
     <g id="line2d_7">
      <g>
       <use xlink:href="#mddac4bd73a" x="75.301469" y="108.139881" style="stroke: #000000; stroke-width: 0.8"/>
      </g>
     </g>
     <g id="text_7">
      <!-- 60 -->
      <g transform="translate(52.730844 113.150349)scale(0.14 -0.14)">
       <use xlink:href="#ArialMT-36"/>
       <use xlink:href="#ArialMT-30" x="55.615234"/>
      </g>
     </g>
    </g>
    <g id="ytick_5">
     <g id="line2d_8">
      <g>
       <use xlink:href="#mddac4bd73a" x="75.301469" y="140.116351" style="stroke: #000000; stroke-width: 0.8"/>
      </g>
     </g>
     <g id="text_8">
      <!-- 80 -->
      <g transform="translate(52.730844 145.12682)scale(0.14 -0.14)">
       <defs>
        <path id="ArialMT-38" d="M 1131 2484 
Q 781 2613 612 2850 
Q 444 3088 444 3419 
Q 444 3919 803 4259 
Q 1163 4600 1759 4600 
Q 2359 4600 2725 4251 
Q 3091 3903 3091 3403 
Q 3091 3084 2923 2848 
Q 2756 2613 2416 2484 
Q 2838 2347 3058 2040 
Q 3278 1734 3278 1309 
Q 3278 722 2862 322 
Q 2447 -78 1769 -78 
Q 1091 -78 675 323 
Q 259 725 259 1325 
Q 259 1772 486 2073 
Q 713 2375 1131 2484 
z
M 1019 3438 
Q 1019 3113 1228 2906 
Q 1438 2700 1772 2700 
Q 2097 2700 2305 2904 
Q 2513 3109 2513 3406 
Q 2513 3716 2298 3927 
Q 2084 4138 1766 4138 
Q 1444 4138 1231 3931 
Q 1019 3725 1019 3438 
z
M 838 1322 
Q 838 1081 952 856 
Q 1066 631 1291 507 
Q 1516 384 1775 384 
Q 2178 384 2440 643 
Q 2703 903 2703 1303 
Q 2703 1709 2433 1975 
Q 2163 2241 1756 2241 
Q 1359 2241 1098 1978 
Q 838 1716 838 1322 
z
" transform="scale(0.015625)"/>
       </defs>
       <use xlink:href="#ArialMT-38"/>
       <use xlink:href="#ArialMT-30" x="55.615234"/>
      </g>
     </g>
    </g>
    <g id="ytick_6">
     <g id="line2d_9">
      <g>
       <use xlink:href="#mddac4bd73a" x="75.301469" y="172.092822" style="stroke: #000000; stroke-width: 0.8"/>
      </g>
     </g>
     <g id="text_9">
      <!-- 100 -->
      <g transform="translate(44.945531 177.10329)scale(0.14 -0.14)">
       <defs>
        <path id="ArialMT-31" d="M 2384 0 
L 1822 0 
L 1822 3584 
Q 1619 3391 1289 3197 
Q 959 3003 697 2906 
L 697 3450 
Q 1169 3672 1522 3987 
Q 1875 4303 2022 4600 
L 2384 4600 
L 2384 0 
z
" transform="scale(0.015625)"/>
       </defs>
       <use xlink:href="#ArialMT-31"/>
       <use xlink:href="#ArialMT-30" x="55.615234"/>
       <use xlink:href="#ArialMT-30" x="111.230469"/>
      </g>
     </g>
    </g>
    <g id="text_10">
     <!-- Otp -->
     <g transform="translate(19.586094 105.851255)rotate(-90)scale(0.17 -0.17)">
      <defs>
       <path id="ArialMT-4f" d="M 309 2231 
Q 309 3372 921 4017 
Q 1534 4663 2503 4663 
Q 3138 4663 3647 4359 
Q 4156 4056 4423 3514 
Q 4691 2972 4691 2284 
Q 4691 1588 4409 1038 
Q 4128 488 3612 205 
Q 3097 -78 2500 -78 
Q 1853 -78 1343 234 
Q 834 547 571 1087 
Q 309 1628 309 2231 
z
M 934 2222 
Q 934 1394 1379 917 
Q 1825 441 2497 441 
Q 3181 441 3623 922 
Q 4066 1403 4066 2288 
Q 4066 2847 3877 3264 
Q 3688 3681 3323 3911 
Q 2959 4141 2506 4141 
Q 1863 4141 1398 3698 
Q 934 3256 934 2222 
z
" transform="scale(0.015625)"/>
       <path id="ArialMT-74" d="M 1650 503 
L 1731 6 
Q 1494 -44 1306 -44 
Q 1000 -44 831 53 
Q 663 150 594 308 
Q 525 466 525 972 
L 525 2881 
L 113 2881 
L 113 3319 
L 525 3319 
L 525 4141 
L 1084 4478 
L 1084 3319 
L 1650 3319 
L 1650 2881 
L 1084 2881 
L 1084 941 
Q 1084 700 1114 631 
Q 1144 563 1211 522 
Q 1278 481 1403 481 
Q 1497 481 1650 503 
z
" transform="scale(0.015625)"/>
       <path id="ArialMT-70" d="M 422 -1272 
L 422 3319 
L 934 3319 
L 934 2888 
Q 1116 3141 1344 3267 
Q 1572 3394 1897 3394 
Q 2322 3394 2647 3175 
Q 2972 2956 3137 2557 
Q 3303 2159 3303 1684 
Q 3303 1175 3120 767 
Q 2938 359 2589 142 
Q 2241 -75 1856 -75 
Q 1575 -75 1351 44 
Q 1128 163 984 344 
L 984 -1272 
L 422 -1272 
z
M 931 1641 
Q 931 1000 1190 694 
Q 1450 388 1819 388 
Q 2194 388 2461 705 
Q 2728 1022 2728 1688 
Q 2728 2322 2467 2637 
Q 2206 2953 1844 2953 
Q 1484 2953 1207 2617 
Q 931 2281 931 1641 
z
" transform="scale(0.015625)"/>
      </defs>
      <use xlink:href="#ArialMT-4f"/>
      <use xlink:href="#ArialMT-74" x="77.783203"/>
      <use xlink:href="#ArialMT-70" x="105.566406"/>
     </g>
     <!-- Rank Quantile -->
     <g transform="translate(37.566781 146.012426)rotate(-90)scale(0.17 -0.17)">
      <defs>
       <path id="ArialMT-52" d="M 503 0 
L 503 4581 
L 2534 4581 
Q 3147 4581 3465 4457 
Q 3784 4334 3975 4021 
Q 4166 3709 4166 3331 
Q 4166 2844 3850 2509 
Q 3534 2175 2875 2084 
Q 3116 1969 3241 1856 
Q 3506 1613 3744 1247 
L 4541 0 
L 3778 0 
L 3172 953 
Q 2906 1366 2734 1584 
Q 2563 1803 2427 1890 
Q 2291 1978 2150 2013 
Q 2047 2034 1813 2034 
L 1109 2034 
L 1109 0 
L 503 0 
z
M 1109 2559 
L 2413 2559 
Q 2828 2559 3062 2645 
Q 3297 2731 3419 2920 
Q 3541 3109 3541 3331 
Q 3541 3656 3305 3865 
Q 3069 4075 2559 4075 
L 1109 4075 
L 1109 2559 
z
" transform="scale(0.015625)"/>
       <path id="ArialMT-61" d="M 2588 409 
Q 2275 144 1986 34 
Q 1697 -75 1366 -75 
Q 819 -75 525 192 
Q 231 459 231 875 
Q 231 1119 342 1320 
Q 453 1522 633 1644 
Q 813 1766 1038 1828 
Q 1203 1872 1538 1913 
Q 2219 1994 2541 2106 
Q 2544 2222 2544 2253 
Q 2544 2597 2384 2738 
Q 2169 2928 1744 2928 
Q 1347 2928 1158 2789 
Q 969 2650 878 2297 
L 328 2372 
Q 403 2725 575 2942 
Q 747 3159 1072 3276 
Q 1397 3394 1825 3394 
Q 2250 3394 2515 3294 
Q 2781 3194 2906 3042 
Q 3031 2891 3081 2659 
Q 3109 2516 3109 2141 
L 3109 1391 
Q 3109 606 3145 398 
Q 3181 191 3288 0 
L 2700 0 
Q 2613 175 2588 409 
z
M 2541 1666 
Q 2234 1541 1622 1453 
Q 1275 1403 1131 1340 
Q 988 1278 909 1158 
Q 831 1038 831 891 
Q 831 666 1001 516 
Q 1172 366 1500 366 
Q 1825 366 2078 508 
Q 2331 650 2450 897 
Q 2541 1088 2541 1459 
L 2541 1666 
z
" transform="scale(0.015625)"/>
       <path id="ArialMT-6e" d="M 422 0 
L 422 3319 
L 928 3319 
L 928 2847 
Q 1294 3394 1984 3394 
Q 2284 3394 2536 3286 
Q 2788 3178 2913 3003 
Q 3038 2828 3088 2588 
Q 3119 2431 3119 2041 
L 3119 0 
L 2556 0 
L 2556 2019 
Q 2556 2363 2490 2533 
Q 2425 2703 2258 2804 
Q 2091 2906 1866 2906 
Q 1506 2906 1245 2678 
Q 984 2450 984 1813 
L 984 0 
L 422 0 
z
" transform="scale(0.015625)"/>
       <path id="ArialMT-6b" d="M 425 0 
L 425 4581 
L 988 4581 
L 988 1969 
L 2319 3319 
L 3047 3319 
L 1778 2088 
L 3175 0 
L 2481 0 
L 1384 1697 
L 988 1316 
L 988 0 
L 425 0 
z
" transform="scale(0.015625)"/>
       <path id="ArialMT-20" transform="scale(0.015625)"/>
       <path id="ArialMT-51" d="M 3966 491 
Q 4388 200 4744 66 
L 4566 -356 
Q 4072 -178 3581 206 
Q 3072 -78 2456 -78 
Q 1834 -78 1328 222 
Q 822 522 548 1065 
Q 275 1609 275 2291 
Q 275 2969 550 3525 
Q 825 4081 1333 4372 
Q 1841 4663 2469 4663 
Q 3103 4663 3612 4361 
Q 4122 4059 4389 3517 
Q 4656 2975 4656 2294 
Q 4656 1728 4484 1276 
Q 4313 825 3966 491 
z
M 2631 1266 
Q 3156 1119 3497 828 
Q 4031 1316 4031 2294 
Q 4031 2850 3842 3265 
Q 3653 3681 3289 3911 
Q 2925 4141 2472 4141 
Q 1794 4141 1347 3677 
Q 900 3213 900 2291 
Q 900 1397 1342 919 
Q 1784 441 2472 441 
Q 2797 441 3084 563 
Q 2800 747 2484 825 
L 2631 1266 
z
" transform="scale(0.015625)"/>
       <path id="ArialMT-75" d="M 2597 0 
L 2597 488 
Q 2209 -75 1544 -75 
Q 1250 -75 995 37 
Q 741 150 617 320 
Q 494 491 444 738 
Q 409 903 409 1263 
L 409 3319 
L 972 3319 
L 972 1478 
Q 972 1038 1006 884 
Q 1059 663 1231 536 
Q 1403 409 1656 409 
Q 1909 409 2131 539 
Q 2353 669 2445 892 
Q 2538 1116 2538 1541 
L 2538 3319 
L 3100 3319 
L 3100 0 
L 2597 0 
z
" transform="scale(0.015625)"/>
       <path id="ArialMT-69" d="M 425 3934 
L 425 4581 
L 988 4581 
L 988 3934 
L 425 3934 
z
M 425 0 
L 425 3319 
L 988 3319 
L 988 0 
L 425 0 
z
" transform="scale(0.015625)"/>
       <path id="ArialMT-6c" d="M 409 0 
L 409 4581 
L 972 4581 
L 972 0 
L 409 0 
z
" transform="scale(0.015625)"/>
       <path id="ArialMT-65" d="M 2694 1069 
L 3275 997 
Q 3138 488 2766 206 
Q 2394 -75 1816 -75 
Q 1088 -75 661 373 
Q 234 822 234 1631 
Q 234 2469 665 2931 
Q 1097 3394 1784 3394 
Q 2450 3394 2872 2941 
Q 3294 2488 3294 1666 
Q 3294 1616 3291 1516 
L 816 1516 
Q 847 969 1125 678 
Q 1403 388 1819 388 
Q 2128 388 2347 550 
Q 2566 713 2694 1069 
z
M 847 1978 
L 2700 1978 
Q 2663 2397 2488 2606 
Q 2219 2931 1791 2931 
Q 1403 2931 1139 2672 
Q 875 2413 847 1978 
z
" transform="scale(0.015625)"/>
      </defs>
      <use xlink:href="#ArialMT-52"/>
      <use xlink:href="#ArialMT-61" x="72.216797"/>
      <use xlink:href="#ArialMT-6e" x="127.832031"/>
      <use xlink:href="#ArialMT-6b" x="183.447266"/>
      <use xlink:href="#ArialMT-20" x="233.447266"/>
      <use xlink:href="#ArialMT-51" x="261.230469"/>
      <use xlink:href="#ArialMT-75" x="339.013672"/>
      <use xlink:href="#ArialMT-61" x="394.628906"/>
      <use xlink:href="#ArialMT-6e" x="450.244141"/>
      <use xlink:href="#ArialMT-74" x="505.859375"/>
      <use xlink:href="#ArialMT-69" x="533.642578"/>
      <use xlink:href="#ArialMT-6c" x="555.859375"/>
      <use xlink:href="#ArialMT-65" x="578.076172"/>
     </g>
    </g>
   </g>
   <g id="patch_3">
    <path d="M 75.301469 172.092822 
L 75.301469 12.210469 
" style="fill: none; stroke: #000000; stroke-width: 0.8; stroke-linejoin: miter; stroke-linecap: square"/>
   </g>
   <g id="patch_4">
    <path d="M 298.501469 172.092822 
L 298.501469 12.210469 
" style="fill: none"/>
   </g>
   <g id="patch_5">
    <path d="M 75.301469 172.092822 
L 298.501469 172.092822 
" style="fill: none; stroke: #000000; stroke-width: 0.8; stroke-linejoin: miter; stroke-linecap: square"/>
   </g>
   <g id="patch_6">
    <path d="M 75.301469 12.210469 
L 298.501469 12.210469 
" style="fill: none"/>
   </g>
  </g>
  <g id="axes_2">
   <g id="patch_7">
    <path d="M 75.301469 363.951645 
L 298.501469 363.951645 
L 298.501469 204.069292 
L 75.301469 204.069292 
z
" style="fill: #ffffff"/>
   </g>
   <g id="PathCollection_2">
    <g clip-path="url(#pac50351dd6)">
     <use xlink:href="#m3ad97e5a99" x="80.084326" y="284.010469" style="fill: #1f77b4; fill-opacity: 0.5; stroke: #1f77b4; stroke-opacity: 0.5"/>
     <use xlink:href="#m3ad97e5a99" x="81.678612" y="261.170133" style="fill: #1f77b4; fill-opacity: 0.5; stroke: #1f77b4; stroke-opacity: 0.5"/>
     <use xlink:href="#m3ad97e5a99" x="85.265754" y="236.045763" style="fill: #1f77b4; fill-opacity: 0.5; stroke: #1f77b4; stroke-opacity: 0.5"/>
     <use xlink:href="#m3ad97e5a99" x="86.062897" y="268.499494" style="fill: #1f77b4; fill-opacity: 0.5; stroke: #1f77b4; stroke-opacity: 0.5"/>
     <use xlink:href="#m3ad97e5a99" x="88.852897" y="227.835588" style="fill: #1f77b4; fill-opacity: 0.5; stroke: #1f77b4; stroke-opacity: 0.5"/>
     <use xlink:href="#m3ad97e5a99" x="90.048612" y="363.951645" style="fill: #1f77b4; fill-opacity: 0.5; stroke: #1f77b4; stroke-opacity: 0.5"/>
     <use xlink:href="#m3ad97e5a99" x="90.845754" y="272.879419" style="fill: #1f77b4; fill-opacity: 0.5; stroke: #1f77b4; stroke-opacity: 0.5"/>
     <use xlink:href="#m3ad97e5a99" x="91.642897" y="271.180403" style="fill: #1f77b4; fill-opacity: 0.5; stroke: #1f77b4; stroke-opacity: 0.5"/>
     <use xlink:href="#m3ad97e5a99" x="92.44004" y="275.342148" style="fill: #1f77b4; fill-opacity: 0.5; stroke: #1f77b4; stroke-opacity: 0.5"/>
     <use xlink:href="#m3ad97e5a99" x="93.237183" y="254.855451" style="fill: #1f77b4; fill-opacity: 0.5; stroke: #1f77b4; stroke-opacity: 0.5"/>
     <use xlink:href="#m3ad97e5a99" x="94.432897" y="363.951645" style="fill: #1f77b4; fill-opacity: 0.5; stroke: #1f77b4; stroke-opacity: 0.5"/>
     <use xlink:href="#m3ad97e5a99" x="96.027183" y="230.137067" style="fill: #1f77b4; fill-opacity: 0.5; stroke: #1f77b4; stroke-opacity: 0.5"/>
     <use xlink:href="#m3ad97e5a99" x="96.425754" y="243.610089" style="fill: #1f77b4; fill-opacity: 0.5; stroke: #1f77b4; stroke-opacity: 0.5"/>
     <use xlink:href="#m3ad97e5a99" x="98.02004" y="363.951645" style="fill: #1f77b4; fill-opacity: 0.5; stroke: #1f77b4; stroke-opacity: 0.5"/>
     <use xlink:href="#m3ad97e5a99" x="99.614326" y="221.482222" style="fill: #1f77b4; fill-opacity: 0.5; stroke: #1f77b4; stroke-opacity: 0.5"/>
     <use xlink:href="#m3ad97e5a99" x="100.012897" y="216.609085" style="fill: #1f77b4; fill-opacity: 0.5; stroke: #1f77b4; stroke-opacity: 0.5"/>
     <use xlink:href="#m3ad97e5a99" x="101.208612" y="266.499544" style="fill: #1f77b4; fill-opacity: 0.5; stroke: #1f77b4; stroke-opacity: 0.5"/>
     <use xlink:href="#m3ad97e5a99" x="102.802897" y="224.60464" style="fill: #1f77b4; fill-opacity: 0.5; stroke: #1f77b4; stroke-opacity: 0.5"/>
     <use xlink:href="#m3ad97e5a99" x="103.201469" y="233.138811" style="fill: #1f77b4; fill-opacity: 0.5; stroke: #1f77b4; stroke-opacity: 0.5"/>
     <use xlink:href="#m3ad97e5a99" x="104.795754" y="208.276723" style="fill: #1f77b4; fill-opacity: 0.5; stroke: #1f77b4; stroke-opacity: 0.5"/>
     <use xlink:href="#m3ad97e5a99" x="107.187183" y="210.731057" style="fill: #1f77b4; fill-opacity: 0.5; stroke: #1f77b4; stroke-opacity: 0.5"/>
     <use xlink:href="#m3ad97e5a99" x="109.18004" y="207.906469" style="fill: #1f77b4; fill-opacity: 0.5; stroke: #1f77b4; stroke-opacity: 0.5"/>
     <use xlink:href="#m3ad97e5a99" x="111.97004" y="214.970362" style="fill: #1f77b4; fill-opacity: 0.5; stroke: #1f77b4; stroke-opacity: 0.5"/>
     <use xlink:href="#m3ad97e5a99" x="112.368612" y="230.515997" style="fill: #1f77b4; fill-opacity: 0.5; stroke: #1f77b4; stroke-opacity: 0.5"/>
     <use xlink:href="#m3ad97e5a99" x="113.165754" y="225.386939" style="fill: #1f77b4; fill-opacity: 0.5; stroke: #1f77b4; stroke-opacity: 0.5"/>
     <use xlink:href="#m3ad97e5a99" x="114.76004" y="247.778137" style="fill: #1f77b4; fill-opacity: 0.5; stroke: #1f77b4; stroke-opacity: 0.5"/>
     <use xlink:href="#m3ad97e5a99" x="118.745754" y="220.164831" style="fill: #1f77b4; fill-opacity: 0.5; stroke: #1f77b4; stroke-opacity: 0.5"/>
     <use xlink:href="#m3ad97e5a99" x="119.542897" y="208.304586" style="fill: #1f77b4; fill-opacity: 0.5; stroke: #1f77b4; stroke-opacity: 0.5"/>
     <use xlink:href="#m3ad97e5a99" x="120.34004" y="232.283825" style="fill: #1f77b4; fill-opacity: 0.5; stroke: #1f77b4; stroke-opacity: 0.5"/>
     <use xlink:href="#m3ad97e5a99" x="121.934326" y="218.326317" style="fill: #1f77b4; fill-opacity: 0.5; stroke: #1f77b4; stroke-opacity: 0.5"/>
     <use xlink:href="#m3ad97e5a99" x="124.724326" y="206.019077" style="fill: #1f77b4; fill-opacity: 0.5; stroke: #1f77b4; stroke-opacity: 0.5"/>
     <use xlink:href="#m3ad97e5a99" x="125.521469" y="213.700759" style="fill: #1f77b4; fill-opacity: 0.5; stroke: #1f77b4; stroke-opacity: 0.5"/>
     <use xlink:href="#m3ad97e5a99" x="132.695754" y="210.151773" style="fill: #1f77b4; fill-opacity: 0.5; stroke: #1f77b4; stroke-opacity: 0.5"/>
     <use xlink:href="#m3ad97e5a99" x="132.695754" y="224.923512" style="fill: #1f77b4; fill-opacity: 0.5; stroke: #1f77b4; stroke-opacity: 0.5"/>
     <use xlink:href="#m3ad97e5a99" x="134.688612" y="238.752766" style="fill: #1f77b4; fill-opacity: 0.5; stroke: #1f77b4; stroke-opacity: 0.5"/>
     <use xlink:href="#m3ad97e5a99" x="140.268612" y="215.095661" style="fill: #1f77b4; fill-opacity: 0.5; stroke: #1f77b4; stroke-opacity: 0.5"/>
     <use xlink:href="#m3ad97e5a99" x="140.268612" y="207.219683" style="fill: #1f77b4; fill-opacity: 0.5; stroke: #1f77b4; stroke-opacity: 0.5"/>
     <use xlink:href="#m3ad97e5a99" x="142.66004" y="204.83428" style="fill: #1f77b4; fill-opacity: 0.5; stroke: #1f77b4; stroke-opacity: 0.5"/>
     <use xlink:href="#m3ad97e5a99" x="142.66004" y="214.014128" style="fill: #1f77b4; fill-opacity: 0.5; stroke: #1f77b4; stroke-opacity: 0.5"/>
     <use xlink:href="#m3ad97e5a99" x="148.638612" y="221.199544" style="fill: #1f77b4; fill-opacity: 0.5; stroke: #1f77b4; stroke-opacity: 0.5"/>
     <use xlink:href="#m3ad97e5a99" x="151.428612" y="206.837818" style="fill: #1f77b4; fill-opacity: 0.5; stroke: #1f77b4; stroke-opacity: 0.5"/>
     <use xlink:href="#m3ad97e5a99" x="153.421469" y="210.166501" style="fill: #1f77b4; fill-opacity: 0.5; stroke: #1f77b4; stroke-opacity: 0.5"/>
     <use xlink:href="#m3ad97e5a99" x="153.421469" y="220.328515" style="fill: #1f77b4; fill-opacity: 0.5; stroke: #1f77b4; stroke-opacity: 0.5"/>
     <use xlink:href="#m3ad97e5a99" x="155.414326" y="206.059529" style="fill: #1f77b4; fill-opacity: 0.5; stroke: #1f77b4; stroke-opacity: 0.5"/>
     <use xlink:href="#m3ad97e5a99" x="157.407183" y="207.968862" style="fill: #1f77b4; fill-opacity: 0.5; stroke: #1f77b4; stroke-opacity: 0.5"/>
     <use xlink:href="#m3ad97e5a99" x="161.791469" y="207.179844" style="fill: #1f77b4; fill-opacity: 0.5; stroke: #1f77b4; stroke-opacity: 0.5"/>
     <use xlink:href="#m3ad97e5a99" x="162.19004" y="212.745079" style="fill: #1f77b4; fill-opacity: 0.5; stroke: #1f77b4; stroke-opacity: 0.5"/>
     <use xlink:href="#m3ad97e5a99" x="166.175754" y="226.739178" style="fill: #1f77b4; fill-opacity: 0.5; stroke: #1f77b4; stroke-opacity: 0.5"/>
     <use xlink:href="#m3ad97e5a99" x="166.972897" y="204.661449" style="fill: #1f77b4; fill-opacity: 0.5; stroke: #1f77b4; stroke-opacity: 0.5"/>
     <use xlink:href="#m3ad97e5a99" x="169.364326" y="208.703563" style="fill: #1f77b4; fill-opacity: 0.5; stroke: #1f77b4; stroke-opacity: 0.5"/>
     <use xlink:href="#m3ad97e5a99" x="170.958612" y="205.782317" style="fill: #1f77b4; fill-opacity: 0.5; stroke: #1f77b4; stroke-opacity: 0.5"/>
     <use xlink:href="#m3ad97e5a99" x="171.755754" y="209.171921" style="fill: #1f77b4; fill-opacity: 0.5; stroke: #1f77b4; stroke-opacity: 0.5"/>
     <use xlink:href="#m3ad97e5a99" x="177.734326" y="205.684266" style="fill: #1f77b4; fill-opacity: 0.5; stroke: #1f77b4; stroke-opacity: 0.5"/>
     <use xlink:href="#m3ad97e5a99" x="178.531469" y="211.020699" style="fill: #1f77b4; fill-opacity: 0.5; stroke: #1f77b4; stroke-opacity: 0.5"/>
     <use xlink:href="#m3ad97e5a99" x="178.93004" y="206.733998" style="fill: #1f77b4; fill-opacity: 0.5; stroke: #1f77b4; stroke-opacity: 0.5"/>
     <use xlink:href="#m3ad97e5a99" x="181.321469" y="211.384171" style="fill: #1f77b4; fill-opacity: 0.5; stroke: #1f77b4; stroke-opacity: 0.5"/>
     <use xlink:href="#m3ad97e5a99" x="182.118612" y="204.588391" style="fill: #1f77b4; fill-opacity: 0.5; stroke: #1f77b4; stroke-opacity: 0.5"/>
     <use xlink:href="#m3ad97e5a99" x="188.894326" y="218.827663" style="fill: #1f77b4; fill-opacity: 0.5; stroke: #1f77b4; stroke-opacity: 0.5"/>
     <use xlink:href="#m3ad97e5a99" x="189.292897" y="205.050166" style="fill: #1f77b4; fill-opacity: 0.5; stroke: #1f77b4; stroke-opacity: 0.5"/>
     <use xlink:href="#m3ad97e5a99" x="190.09004" y="206.993969" style="fill: #1f77b4; fill-opacity: 0.5; stroke: #1f77b4; stroke-opacity: 0.5"/>
     <use xlink:href="#m3ad97e5a99" x="190.488612" y="214.274549" style="fill: #1f77b4; fill-opacity: 0.5; stroke: #1f77b4; stroke-opacity: 0.5"/>
     <use xlink:href="#m3ad97e5a99" x="192.481469" y="204.547982" style="fill: #1f77b4; fill-opacity: 0.5; stroke: #1f77b4; stroke-opacity: 0.5"/>
     <use xlink:href="#m3ad97e5a99" x="195.271469" y="217.197462" style="fill: #1f77b4; fill-opacity: 0.5; stroke: #1f77b4; stroke-opacity: 0.5"/>
     <use xlink:href="#m3ad97e5a99" x="198.858612" y="204.982906" style="fill: #1f77b4; fill-opacity: 0.5; stroke: #1f77b4; stroke-opacity: 0.5"/>
     <use xlink:href="#m3ad97e5a99" x="200.054326" y="205.428066" style="fill: #1f77b4; fill-opacity: 0.5; stroke: #1f77b4; stroke-opacity: 0.5"/>
     <use xlink:href="#m3ad97e5a99" x="202.844326" y="213.839881" style="fill: #1f77b4; fill-opacity: 0.5; stroke: #1f77b4; stroke-opacity: 0.5"/>
     <use xlink:href="#m3ad97e5a99" x="203.641469" y="204.510956" style="fill: #1f77b4; fill-opacity: 0.5; stroke: #1f77b4; stroke-opacity: 0.5"/>
     <use xlink:href="#m3ad97e5a99" x="204.438612" y="211.097088" style="fill: #1f77b4; fill-opacity: 0.5; stroke: #1f77b4; stroke-opacity: 0.5"/>
     <use xlink:href="#m3ad97e5a99" x="207.228612" y="205.362141" style="fill: #1f77b4; fill-opacity: 0.5; stroke: #1f77b4; stroke-opacity: 0.5"/>
     <use xlink:href="#m3ad97e5a99" x="209.62004" y="207.886112" style="fill: #1f77b4; fill-opacity: 0.5; stroke: #1f77b4; stroke-opacity: 0.5"/>
     <use xlink:href="#m3ad97e5a99" x="211.214326" y="207.846041" style="fill: #1f77b4; fill-opacity: 0.5; stroke: #1f77b4; stroke-opacity: 0.5"/>
     <use xlink:href="#m3ad97e5a99" x="211.214326" y="215.399538" style="fill: #1f77b4; fill-opacity: 0.5; stroke: #1f77b4; stroke-opacity: 0.5"/>
     <use xlink:href="#m3ad97e5a99" x="212.808612" y="207.391523" style="fill: #1f77b4; fill-opacity: 0.5; stroke: #1f77b4; stroke-opacity: 0.5"/>
     <use xlink:href="#m3ad97e5a99" x="215.20004" y="208.567261" style="fill: #1f77b4; fill-opacity: 0.5; stroke: #1f77b4; stroke-opacity: 0.5"/>
     <use xlink:href="#m3ad97e5a99" x="217.99004" y="211.300152" style="fill: #1f77b4; fill-opacity: 0.5; stroke: #1f77b4; stroke-opacity: 0.5"/>
     <use xlink:href="#m3ad97e5a99" x="218.787183" y="210.064881" style="fill: #1f77b4; fill-opacity: 0.5; stroke: #1f77b4; stroke-opacity: 0.5"/>
     <use xlink:href="#m3ad97e5a99" x="220.78004" y="208.411776" style="fill: #1f77b4; fill-opacity: 0.5; stroke: #1f77b4; stroke-opacity: 0.5"/>
     <use xlink:href="#m3ad97e5a99" x="221.178612" y="212.339069" style="fill: #1f77b4; fill-opacity: 0.5; stroke: #1f77b4; stroke-opacity: 0.5"/>
     <use xlink:href="#m3ad97e5a99" x="223.171469" y="213.01648" style="fill: #1f77b4; fill-opacity: 0.5; stroke: #1f77b4; stroke-opacity: 0.5"/>
     <use xlink:href="#m3ad97e5a99" x="225.164326" y="209.449948" style="fill: #1f77b4; fill-opacity: 0.5; stroke: #1f77b4; stroke-opacity: 0.5"/>
     <use xlink:href="#m3ad97e5a99" x="225.562897" y="207.519991" style="fill: #1f77b4; fill-opacity: 0.5; stroke: #1f77b4; stroke-opacity: 0.5"/>
     <use xlink:href="#m3ad97e5a99" x="227.157183" y="210.145581" style="fill: #1f77b4; fill-opacity: 0.5; stroke: #1f77b4; stroke-opacity: 0.5"/>
     <use xlink:href="#m3ad97e5a99" x="227.157183" y="209.765813" style="fill: #1f77b4; fill-opacity: 0.5; stroke: #1f77b4; stroke-opacity: 0.5"/>
     <use xlink:href="#m3ad97e5a99" x="231.541469" y="211.471253" style="fill: #1f77b4; fill-opacity: 0.5; stroke: #1f77b4; stroke-opacity: 0.5"/>
     <use xlink:href="#m3ad97e5a99" x="232.737183" y="206.642112" style="fill: #1f77b4; fill-opacity: 0.5; stroke: #1f77b4; stroke-opacity: 0.5"/>
     <use xlink:href="#m3ad97e5a99" x="233.932897" y="213.925054" style="fill: #1f77b4; fill-opacity: 0.5; stroke: #1f77b4; stroke-opacity: 0.5"/>
     <use xlink:href="#m3ad97e5a99" x="234.73004" y="209.519827" style="fill: #1f77b4; fill-opacity: 0.5; stroke: #1f77b4; stroke-opacity: 0.5"/>
     <use xlink:href="#m3ad97e5a99" x="235.128612" y="208.057287" style="fill: #1f77b4; fill-opacity: 0.5; stroke: #1f77b4; stroke-opacity: 0.5"/>
     <use xlink:href="#m3ad97e5a99" x="238.715754" y="204.424586" style="fill: #1f77b4; fill-opacity: 0.5; stroke: #1f77b4; stroke-opacity: 0.5"/>
     <use xlink:href="#m3ad97e5a99" x="240.31004" y="211.816895" style="fill: #1f77b4; fill-opacity: 0.5; stroke: #1f77b4; stroke-opacity: 0.5"/>
     <use xlink:href="#m3ad97e5a99" x="242.302897" y="212.777481" style="fill: #1f77b4; fill-opacity: 0.5; stroke: #1f77b4; stroke-opacity: 0.5"/>
     <use xlink:href="#m3ad97e5a99" x="242.701469" y="206.154714" style="fill: #1f77b4; fill-opacity: 0.5; stroke: #1f77b4; stroke-opacity: 0.5"/>
     <use xlink:href="#m3ad97e5a99" x="243.498612" y="209.606343" style="fill: #1f77b4; fill-opacity: 0.5; stroke: #1f77b4; stroke-opacity: 0.5"/>
     <use xlink:href="#m3ad97e5a99" x="244.694326" y="208.882955" style="fill: #1f77b4; fill-opacity: 0.5; stroke: #1f77b4; stroke-opacity: 0.5"/>
     <use xlink:href="#m3ad97e5a99" x="246.687183" y="205.089818" style="fill: #1f77b4; fill-opacity: 0.5; stroke: #1f77b4; stroke-opacity: 0.5"/>
     <use xlink:href="#m3ad97e5a99" x="248.281469" y="208.454251" style="fill: #1f77b4; fill-opacity: 0.5; stroke: #1f77b4; stroke-opacity: 0.5"/>
     <use xlink:href="#m3ad97e5a99" x="250.672897" y="214.061939" style="fill: #1f77b4; fill-opacity: 0.5; stroke: #1f77b4; stroke-opacity: 0.5"/>
     <use xlink:href="#m3ad97e5a99" x="257.847183" y="221.726982" style="fill: #1f77b4; fill-opacity: 0.5; stroke: #1f77b4; stroke-opacity: 0.5"/>
    </g>
   </g>
   <g id="PolyCollection_2">
    <defs>
     <path id="m7b7102e306" d="M 84.388897 -300.396841 
L 84.388897 -393.300455 
L 86.381754 -439.610584 
L 88.215183 -436.659032 
L 89.490612 -421.621422 
L 90.76604 -419.592431 
L 91.642897 -401.542646 
L 92.519754 -401.542646 
L 93.55604 -424.568186 
L 94.512612 -435.112425 
L 95.628612 -444.850491 
L 96.90404 -463.417627 
L 98.02004 -470.554184 
L 99.056326 -460.153844 
L 100.331754 -468.06179 
L 101.36804 -409.801732 
L 102.404326 -417.504548 
L 103.839183 -420.670992 
L 105.433469 -408.152863 
L 107.266897 -408.398158 
L 109.100326 -406.672841 
L 110.774326 -403.825363 
L 112.288897 -407.736757 
L 114.20204 -399.801139 
L 115.716612 -404.936171 
L 117.310897 -404.873276 
L 119.064612 -407.285622 
L 121.057469 -406.354528 
L 122.412612 -407.474527 
L 125.043183 -406.504038 
L 127.514326 -402.388782 
L 130.065183 -410.103495 
L 133.17404 -404.971517 
L 136.123469 -408.770299 
L 138.116326 -412.060833 
L 140.109183 -413.288891 
L 142.899183 -402.97848 
L 145.131183 -405.052296 
L 147.761754 -403.923837 
L 149.91404 -400.364804 
L 152.464897 -404.108083 
L 154.218612 -403.750064 
L 156.291183 -403.584536 
L 158.044897 -403.258421 
L 160.595754 -407.324362 
L 162.907469 -408.138303 
L 165.298897 -407.840911 
L 167.132326 -408.545634 
L 169.045469 -409.341972 
L 171.357183 -399.573151 
L 173.668897 -398.897879 
L 175.58204 -399.358317 
L 177.654612 -398.633803 
L 179.727183 -400.732626 
L 181.959183 -402.783029 
L 184.111469 -404.958901 
L 186.343469 -404.852696 
L 188.176897 -405.023824 
L 190.249469 -405.049118 
L 191.524897 -404.262767 
L 193.43804 -404.302997 
L 195.430897 -405.046626 
L 197.90204 -404.957463 
L 200.13404 -404.979505 
L 201.967469 -402.84985 
L 203.641469 -402.645861 
L 205.554612 -401.656686 
L 207.228612 -400.176577 
L 208.743183 -400.576813 
L 210.417183 -401.271465 
L 212.011469 -399.68279 
L 213.685469 -398.915178 
L 215.20004 -397.998756 
L 217.113183 -396.285776 
L 218.787183 -395.637184 
L 220.381469 -395.011317 
L 221.816326 -395.609005 
L 223.171469 -397.054677 
L 224.446897 -396.319066 
L 225.642612 -396.334362 
L 227.316612 -395.545386 
L 228.831183 -397.213885 
L 230.505183 -397.277738 
L 232.019754 -397.460902 
L 233.61404 -398.166808 
L 235.048897 -400.969456 
L 236.563469 -400.077114 
L 238.237469 -399.65898 
L 239.831754 -400.890895 
L 241.505754 -400.587711 
L 242.701469 -397.717919 
L 243.976897 -399.924743 
L 245.172612 -398.568308 
L 246.766897 -399.572429 
L 249.636612 -403.689569 
L 249.636612 -377.745928 
L 249.636612 -377.745928 
L 246.766897 -386.711323 
L 245.172612 -390.878335 
L 243.976897 -387.792607 
L 242.701469 -387.3086 
L 241.505754 -386.222155 
L 239.831754 -386.538594 
L 238.237469 -386.424464 
L 236.563469 -385.547301 
L 235.048897 -386.724872 
L 233.61404 -386.708854 
L 232.019754 -386.731349 
L 230.505183 -386.664212 
L 228.831183 -389.29009 
L 227.316612 -389.835454 
L 225.642612 -388.428388 
L 224.446897 -387.414381 
L 223.171469 -387.372292 
L 221.816326 -387.800008 
L 220.381469 -387.657614 
L 218.787183 -388.811435 
L 217.113183 -390.141862 
L 215.20004 -385.633777 
L 213.685469 -385.604891 
L 212.011469 -386.202895 
L 210.417183 -385.896267 
L 208.743183 -385.108694 
L 207.228612 -389.864363 
L 205.554612 -385.986718 
L 203.641469 -385.980761 
L 201.967469 -385.928466 
L 200.13404 -381.358662 
L 197.90204 -381.365894 
L 195.430897 -381.102863 
L 193.43804 -381.220131 
L 191.524897 -381.233457 
L 190.249469 -379.795025 
L 188.176897 -379.804155 
L 186.343469 -381.131435 
L 184.111469 -381.129219 
L 181.959183 -380.916877 
L 179.727183 -388.224639 
L 177.654612 -388.49005 
L 175.58204 -390.006278 
L 173.668897 -389.678889 
L 171.357183 -391.547318 
L 169.045469 -373.356532 
L 167.132326 -372.723607 
L 165.298897 -372.869318 
L 162.907469 -372.865807 
L 160.595754 -373.120516 
L 158.044897 -379.750722 
L 156.291183 -380.456039 
L 154.218612 -380.427321 
L 152.464897 -374.777029 
L 149.91404 -375.338469 
L 147.761754 -377.97713 
L 145.131183 -378.027397 
L 142.899183 -376.798076 
L 140.109183 -359.466377 
L 138.116326 -356.330681 
L 136.123469 -357.494218 
L 133.17404 -358.700569 
L 130.065183 -357.199225 
L 127.514326 -373.084517 
L 125.043183 -366.025136 
L 122.412612 -365.793522 
L 121.057469 -364.327892 
L 119.064612 -346.693175 
L 117.310897 -346.281271 
L 115.716612 -346.925508 
L 114.20204 -349.39423 
L 112.288897 -346.361957 
L 110.774326 -365.092182 
L 109.100326 -369.088791 
L 107.266897 -366.314349 
L 105.433469 -362.705932 
L 103.839183 -326.750572 
L 102.404326 -327.565805 
L 101.36804 -329.986422 
L 100.331754 -219.40123 
L 99.056326 -219.706997 
L 98.02004 -223.851647 
L 96.90404 -172.051181 
L 95.628612 -177.269025 
L 94.512612 -222.45089 
L 93.55604 -221.967003 
L 92.519754 -227.895602 
L 91.642897 -227.895602 
L 90.76604 -220.653762 
L 89.490612 -221.361833 
L 88.215183 -220.37808 
L 86.381754 -222.110242 
L 84.388897 -300.396841 
z
" style="stroke: #1f77b4; stroke-opacity: 0.1"/>
    </defs>
    <g clip-path="url(#pac50351dd6)">
     <use xlink:href="#m7b7102e306" x="0" y="602.360937" style="fill: #1f77b4; fill-opacity: 0.1; stroke: #1f77b4; stroke-opacity: 0.1"/>
    </g>
   </g>
   <g id="matplotlib.axis_3">
    <g id="xtick_4">
     <g id="line2d_10">
      <g>
       <use xlink:href="#m7c1a3c6384" x="139.072897" y="363.951645" style="stroke: #000000; stroke-width: 0.8"/>
      </g>
     </g>
     <g id="text_11">
      <!-- 200 -->
      <g transform="translate(127.394929 380.972583)scale(0.14 -0.14)">
       <use xlink:href="#ArialMT-32"/>
       <use xlink:href="#ArialMT-30" x="55.615234"/>
       <use xlink:href="#ArialMT-30" x="111.230469"/>
      </g>
     </g>
    </g>
    <g id="xtick_5">
     <g id="line2d_11">
      <g>
       <use xlink:href="#m7c1a3c6384" x="218.787183" y="363.951645" style="stroke: #000000; stroke-width: 0.8"/>
      </g>
     </g>
     <g id="text_12">
      <!-- 400 -->
      <g transform="translate(207.109214 380.972583)scale(0.14 -0.14)">
       <use xlink:href="#ArialMT-34"/>
       <use xlink:href="#ArialMT-30" x="55.615234"/>
       <use xlink:href="#ArialMT-30" x="111.230469"/>
      </g>
     </g>
    </g>
    <g id="xtick_6">
     <g id="line2d_12">
      <g>
       <use xlink:href="#m7c1a3c6384" x="298.501469" y="363.951645" style="stroke: #000000; stroke-width: 0.8"/>
      </g>
     </g>
     <g id="text_13">
      <!-- 600 -->
      <g transform="translate(286.8235 380.972583)scale(0.14 -0.14)">
       <use xlink:href="#ArialMT-36"/>
       <use xlink:href="#ArialMT-30" x="55.615234"/>
       <use xlink:href="#ArialMT-30" x="111.230469"/>
      </g>
     </g>
    </g>
   </g>
   <g id="matplotlib.axis_4">
    <g id="ytick_7">
     <g id="line2d_13">
      <g>
       <use xlink:href="#mddac4bd73a" x="75.301469" y="204.069292" style="stroke: #000000; stroke-width: 0.8"/>
      </g>
     </g>
     <g id="text_14">
      <!-- 0 -->
      <g transform="translate(60.516156 209.079761)scale(0.14 -0.14)">
       <use xlink:href="#ArialMT-30"/>
      </g>
     </g>
    </g>
    <g id="ytick_8">
     <g id="line2d_14">
      <g>
       <use xlink:href="#mddac4bd73a" x="75.301469" y="236.045763" style="stroke: #000000; stroke-width: 0.8"/>
      </g>
     </g>
     <g id="text_15">
      <!-- 20 -->
      <g transform="translate(52.730844 241.056232)scale(0.14 -0.14)">
       <use xlink:href="#ArialMT-32"/>
       <use xlink:href="#ArialMT-30" x="55.615234"/>
      </g>
     </g>
    </g>
    <g id="ytick_9">
     <g id="line2d_15">
      <g>
       <use xlink:href="#mddac4bd73a" x="75.301469" y="268.022233" style="stroke: #000000; stroke-width: 0.8"/>
      </g>
     </g>
     <g id="text_16">
      <!-- 40 -->
      <g transform="translate(52.730844 273.032702)scale(0.14 -0.14)">
       <use xlink:href="#ArialMT-34"/>
       <use xlink:href="#ArialMT-30" x="55.615234"/>
      </g>
     </g>
    </g>
    <g id="ytick_10">
     <g id="line2d_16">
      <g>
       <use xlink:href="#mddac4bd73a" x="75.301469" y="299.998704" style="stroke: #000000; stroke-width: 0.8"/>
      </g>
     </g>
     <g id="text_17">
      <!-- 60 -->
      <g transform="translate(52.730844 305.009173)scale(0.14 -0.14)">
       <use xlink:href="#ArialMT-36"/>
       <use xlink:href="#ArialMT-30" x="55.615234"/>
      </g>
     </g>
    </g>
    <g id="ytick_11">
     <g id="line2d_17">
      <g>
       <use xlink:href="#mddac4bd73a" x="75.301469" y="331.975175" style="stroke: #000000; stroke-width: 0.8"/>
      </g>
     </g>
     <g id="text_18">
      <!-- 80 -->
      <g transform="translate(52.730844 336.985643)scale(0.14 -0.14)">
       <use xlink:href="#ArialMT-38"/>
       <use xlink:href="#ArialMT-30" x="55.615234"/>
      </g>
     </g>
    </g>
    <g id="ytick_12">
     <g id="line2d_18">
      <g>
       <use xlink:href="#mddac4bd73a" x="75.301469" y="363.951645" style="stroke: #000000; stroke-width: 0.8"/>
      </g>
     </g>
     <g id="text_19">
      <!-- 100 -->
      <g transform="translate(44.945531 368.962114)scale(0.14 -0.14)">
       <use xlink:href="#ArialMT-31"/>
       <use xlink:href="#ArialMT-30" x="55.615234"/>
       <use xlink:href="#ArialMT-30" x="111.230469"/>
      </g>
     </g>
    </g>
    <g id="text_20">
     <!-- Lhx9 -->
     <g transform="translate(19.586094 302.440859)rotate(-90)scale(0.17 -0.17)">
      <defs>
       <path id="ArialMT-4c" d="M 469 0 
L 469 4581 
L 1075 4581 
L 1075 541 
L 3331 541 
L 3331 0 
L 469 0 
z
" transform="scale(0.015625)"/>
       <path id="ArialMT-68" d="M 422 0 
L 422 4581 
L 984 4581 
L 984 2938 
Q 1378 3394 1978 3394 
Q 2347 3394 2619 3248 
Q 2891 3103 3008 2847 
Q 3125 2591 3125 2103 
L 3125 0 
L 2563 0 
L 2563 2103 
Q 2563 2525 2380 2717 
Q 2197 2909 1863 2909 
Q 1613 2909 1392 2779 
Q 1172 2650 1078 2428 
Q 984 2206 984 1816 
L 984 0 
L 422 0 
z
" transform="scale(0.015625)"/>
       <path id="ArialMT-78" d="M 47 0 
L 1259 1725 
L 138 3319 
L 841 3319 
L 1350 2541 
Q 1494 2319 1581 2169 
Q 1719 2375 1834 2534 
L 2394 3319 
L 3066 3319 
L 1919 1756 
L 3153 0 
L 2463 0 
L 1781 1031 
L 1600 1309 
L 728 0 
L 47 0 
z
" transform="scale(0.015625)"/>
       <path id="ArialMT-39" d="M 350 1059 
L 891 1109 
Q 959 728 1153 556 
Q 1347 384 1650 384 
Q 1909 384 2104 503 
Q 2300 622 2425 820 
Q 2550 1019 2634 1356 
Q 2719 1694 2719 2044 
Q 2719 2081 2716 2156 
Q 2547 1888 2255 1720 
Q 1963 1553 1622 1553 
Q 1053 1553 659 1965 
Q 266 2378 266 3053 
Q 266 3750 677 4175 
Q 1088 4600 1706 4600 
Q 2153 4600 2523 4359 
Q 2894 4119 3086 3673 
Q 3278 3228 3278 2384 
Q 3278 1506 3087 986 
Q 2897 466 2520 194 
Q 2144 -78 1638 -78 
Q 1100 -78 759 220 
Q 419 519 350 1059 
z
M 2653 3081 
Q 2653 3566 2395 3850 
Q 2138 4134 1775 4134 
Q 1400 4134 1122 3828 
Q 844 3522 844 3034 
Q 844 2597 1108 2323 
Q 1372 2050 1759 2050 
Q 2150 2050 2401 2323 
Q 2653 2597 2653 3081 
z
" transform="scale(0.015625)"/>
      </defs>
      <use xlink:href="#ArialMT-4c"/>
      <use xlink:href="#ArialMT-68" x="55.615234"/>
      <use xlink:href="#ArialMT-78" x="111.230469"/>
      <use xlink:href="#ArialMT-39" x="161.230469"/>
     </g>
     <!-- Rank Quantile -->
     <g transform="translate(37.566781 337.87125)rotate(-90)scale(0.17 -0.17)">
      <use xlink:href="#ArialMT-52"/>
      <use xlink:href="#ArialMT-61" x="72.216797"/>
      <use xlink:href="#ArialMT-6e" x="127.832031"/>
      <use xlink:href="#ArialMT-6b" x="183.447266"/>
      <use xlink:href="#ArialMT-20" x="233.447266"/>
      <use xlink:href="#ArialMT-51" x="261.230469"/>
      <use xlink:href="#ArialMT-75" x="339.013672"/>
      <use xlink:href="#ArialMT-61" x="394.628906"/>
      <use xlink:href="#ArialMT-6e" x="450.244141"/>
      <use xlink:href="#ArialMT-74" x="505.859375"/>
      <use xlink:href="#ArialMT-69" x="533.642578"/>
      <use xlink:href="#ArialMT-6c" x="555.859375"/>
      <use xlink:href="#ArialMT-65" x="578.076172"/>
     </g>
    </g>
   </g>
   <g id="patch_8">
    <path d="M 75.301469 363.951645 
L 75.301469 204.069292 
" style="fill: none; stroke: #000000; stroke-width: 0.8; stroke-linejoin: miter; stroke-linecap: square"/>
   </g>
   <g id="patch_9">
    <path d="M 298.501469 363.951645 
L 298.501469 204.069292 
" style="fill: none"/>
   </g>
   <g id="patch_10">
    <path d="M 75.301469 363.951645 
L 298.501469 363.951645 
" style="fill: none; stroke: #000000; stroke-width: 0.8; stroke-linejoin: miter; stroke-linecap: square"/>
   </g>
   <g id="patch_11">
    <path d="M 75.301469 204.069292 
L 298.501469 204.069292 
" style="fill: none"/>
   </g>
  </g>
  <g id="axes_3">
   <g id="patch_12">
    <path d="M 75.301469 555.810469 
L 298.501469 555.810469 
L 298.501469 395.928116 
L 75.301469 395.928116 
z
" style="fill: #ffffff"/>
   </g>
   <g id="PathCollection_3">
    <g clip-path="url(#p4b90958518)">
     <use xlink:href="#m3ad97e5a99" x="81.678612" y="478.724334" style="fill: #1f77b4; fill-opacity: 0.5; stroke: #1f77b4; stroke-opacity: 0.5"/>
     <use xlink:href="#m3ad97e5a99" x="85.265754" y="555.810469" style="fill: #1f77b4; fill-opacity: 0.5; stroke: #1f77b4; stroke-opacity: 0.5"/>
     <use xlink:href="#m3ad97e5a99" x="86.062897" y="472.289837" style="fill: #1f77b4; fill-opacity: 0.5; stroke: #1f77b4; stroke-opacity: 0.5"/>
     <use xlink:href="#m3ad97e5a99" x="88.852897" y="555.810469" style="fill: #1f77b4; fill-opacity: 0.5; stroke: #1f77b4; stroke-opacity: 0.5"/>
     <use xlink:href="#m3ad97e5a99" x="90.845754" y="555.810469" style="fill: #1f77b4; fill-opacity: 0.5; stroke: #1f77b4; stroke-opacity: 0.5"/>
     <use xlink:href="#m3ad97e5a99" x="91.642897" y="474.882364" style="fill: #1f77b4; fill-opacity: 0.5; stroke: #1f77b4; stroke-opacity: 0.5"/>
     <use xlink:href="#m3ad97e5a99" x="92.44004" y="555.810469" style="fill: #1f77b4; fill-opacity: 0.5; stroke: #1f77b4; stroke-opacity: 0.5"/>
     <use xlink:href="#m3ad97e5a99" x="93.237183" y="555.810469" style="fill: #1f77b4; fill-opacity: 0.5; stroke: #1f77b4; stroke-opacity: 0.5"/>
     <use xlink:href="#m3ad97e5a99" x="94.432897" y="555.810469" style="fill: #1f77b4; fill-opacity: 0.5; stroke: #1f77b4; stroke-opacity: 0.5"/>
     <use xlink:href="#m3ad97e5a99" x="96.027183" y="555.810469" style="fill: #1f77b4; fill-opacity: 0.5; stroke: #1f77b4; stroke-opacity: 0.5"/>
     <use xlink:href="#m3ad97e5a99" x="96.425754" y="468.133049" style="fill: #1f77b4; fill-opacity: 0.5; stroke: #1f77b4; stroke-opacity: 0.5"/>
     <use xlink:href="#m3ad97e5a99" x="98.02004" y="555.810469" style="fill: #1f77b4; fill-opacity: 0.5; stroke: #1f77b4; stroke-opacity: 0.5"/>
     <use xlink:href="#m3ad97e5a99" x="99.614326" y="555.810469" style="fill: #1f77b4; fill-opacity: 0.5; stroke: #1f77b4; stroke-opacity: 0.5"/>
     <use xlink:href="#m3ad97e5a99" x="100.012897" y="555.810469" style="fill: #1f77b4; fill-opacity: 0.5; stroke: #1f77b4; stroke-opacity: 0.5"/>
     <use xlink:href="#m3ad97e5a99" x="101.208612" y="478.153326" style="fill: #1f77b4; fill-opacity: 0.5; stroke: #1f77b4; stroke-opacity: 0.5"/>
     <use xlink:href="#m3ad97e5a99" x="102.802897" y="417.930274" style="fill: #1f77b4; fill-opacity: 0.5; stroke: #1f77b4; stroke-opacity: 0.5"/>
     <use xlink:href="#m3ad97e5a99" x="103.201469" y="472.96234" style="fill: #1f77b4; fill-opacity: 0.5; stroke: #1f77b4; stroke-opacity: 0.5"/>
     <use xlink:href="#m3ad97e5a99" x="104.795754" y="461.844524" style="fill: #1f77b4; fill-opacity: 0.5; stroke: #1f77b4; stroke-opacity: 0.5"/>
     <use xlink:href="#m3ad97e5a99" x="107.187183" y="555.810469" style="fill: #1f77b4; fill-opacity: 0.5; stroke: #1f77b4; stroke-opacity: 0.5"/>
     <use xlink:href="#m3ad97e5a99" x="109.18004" y="416.393057" style="fill: #1f77b4; fill-opacity: 0.5; stroke: #1f77b4; stroke-opacity: 0.5"/>
     <use xlink:href="#m3ad97e5a99" x="111.97004" y="449.222233" style="fill: #1f77b4; fill-opacity: 0.5; stroke: #1f77b4; stroke-opacity: 0.5"/>
     <use xlink:href="#m3ad97e5a99" x="112.368612" y="474.066108" style="fill: #1f77b4; fill-opacity: 0.5; stroke: #1f77b4; stroke-opacity: 0.5"/>
     <use xlink:href="#m3ad97e5a99" x="113.165754" y="436.194782" style="fill: #1f77b4; fill-opacity: 0.5; stroke: #1f77b4; stroke-opacity: 0.5"/>
     <use xlink:href="#m3ad97e5a99" x="114.76004" y="418.932771" style="fill: #1f77b4; fill-opacity: 0.5; stroke: #1f77b4; stroke-opacity: 0.5"/>
     <use xlink:href="#m3ad97e5a99" x="118.745754" y="404.512403" style="fill: #1f77b4; fill-opacity: 0.5; stroke: #1f77b4; stroke-opacity: 0.5"/>
     <use xlink:href="#m3ad97e5a99" x="119.542897" y="431.928116" style="fill: #1f77b4; fill-opacity: 0.5; stroke: #1f77b4; stroke-opacity: 0.5"/>
     <use xlink:href="#m3ad97e5a99" x="120.34004" y="447.132268" style="fill: #1f77b4; fill-opacity: 0.5; stroke: #1f77b4; stroke-opacity: 0.5"/>
     <use xlink:href="#m3ad97e5a99" x="121.934326" y="433.607396" style="fill: #1f77b4; fill-opacity: 0.5; stroke: #1f77b4; stroke-opacity: 0.5"/>
     <use xlink:href="#m3ad97e5a99" x="124.724326" y="432.974027" style="fill: #1f77b4; fill-opacity: 0.5; stroke: #1f77b4; stroke-opacity: 0.5"/>
     <use xlink:href="#m3ad97e5a99" x="125.521469" y="424.822517" style="fill: #1f77b4; fill-opacity: 0.5; stroke: #1f77b4; stroke-opacity: 0.5"/>
     <use xlink:href="#m3ad97e5a99" x="132.695754" y="402.879522" style="fill: #1f77b4; fill-opacity: 0.5; stroke: #1f77b4; stroke-opacity: 0.5"/>
     <use xlink:href="#m3ad97e5a99" x="132.695754" y="430.685149" style="fill: #1f77b4; fill-opacity: 0.5; stroke: #1f77b4; stroke-opacity: 0.5"/>
     <use xlink:href="#m3ad97e5a99" x="134.688612" y="433.995343" style="fill: #1f77b4; fill-opacity: 0.5; stroke: #1f77b4; stroke-opacity: 0.5"/>
     <use xlink:href="#m3ad97e5a99" x="140.268612" y="405.379289" style="fill: #1f77b4; fill-opacity: 0.5; stroke: #1f77b4; stroke-opacity: 0.5"/>
     <use xlink:href="#m3ad97e5a99" x="140.268612" y="416.405659" style="fill: #1f77b4; fill-opacity: 0.5; stroke: #1f77b4; stroke-opacity: 0.5"/>
     <use xlink:href="#m3ad97e5a99" x="142.66004" y="398.223078" style="fill: #1f77b4; fill-opacity: 0.5; stroke: #1f77b4; stroke-opacity: 0.5"/>
     <use xlink:href="#m3ad97e5a99" x="142.66004" y="402.048014" style="fill: #1f77b4; fill-opacity: 0.5; stroke: #1f77b4; stroke-opacity: 0.5"/>
     <use xlink:href="#m3ad97e5a99" x="148.638612" y="399.496918" style="fill: #1f77b4; fill-opacity: 0.5; stroke: #1f77b4; stroke-opacity: 0.5"/>
     <use xlink:href="#m3ad97e5a99" x="151.428612" y="411.847138" style="fill: #1f77b4; fill-opacity: 0.5; stroke: #1f77b4; stroke-opacity: 0.5"/>
     <use xlink:href="#m3ad97e5a99" x="153.421469" y="398.637986" style="fill: #1f77b4; fill-opacity: 0.5; stroke: #1f77b4; stroke-opacity: 0.5"/>
     <use xlink:href="#m3ad97e5a99" x="153.421469" y="422.349352" style="fill: #1f77b4; fill-opacity: 0.5; stroke: #1f77b4; stroke-opacity: 0.5"/>
     <use xlink:href="#m3ad97e5a99" x="155.414326" y="401.235414" style="fill: #1f77b4; fill-opacity: 0.5; stroke: #1f77b4; stroke-opacity: 0.5"/>
     <use xlink:href="#m3ad97e5a99" x="157.407183" y="398.527829" style="fill: #1f77b4; fill-opacity: 0.5; stroke: #1f77b4; stroke-opacity: 0.5"/>
     <use xlink:href="#m3ad97e5a99" x="161.791469" y="404.63766" style="fill: #1f77b4; fill-opacity: 0.5; stroke: #1f77b4; stroke-opacity: 0.5"/>
     <use xlink:href="#m3ad97e5a99" x="162.19004" y="397.167514" style="fill: #1f77b4; fill-opacity: 0.5; stroke: #1f77b4; stroke-opacity: 0.5"/>
     <use xlink:href="#m3ad97e5a99" x="166.175754" y="399.507571" style="fill: #1f77b4; fill-opacity: 0.5; stroke: #1f77b4; stroke-opacity: 0.5"/>
     <use xlink:href="#m3ad97e5a99" x="166.972897" y="397.704586" style="fill: #1f77b4; fill-opacity: 0.5; stroke: #1f77b4; stroke-opacity: 0.5"/>
     <use xlink:href="#m3ad97e5a99" x="169.364326" y="401.141671" style="fill: #1f77b4; fill-opacity: 0.5; stroke: #1f77b4; stroke-opacity: 0.5"/>
     <use xlink:href="#m3ad97e5a99" x="170.958612" y="401.067191" style="fill: #1f77b4; fill-opacity: 0.5; stroke: #1f77b4; stroke-opacity: 0.5"/>
     <use xlink:href="#m3ad97e5a99" x="171.755754" y="398.762909" style="fill: #1f77b4; fill-opacity: 0.5; stroke: #1f77b4; stroke-opacity: 0.5"/>
     <use xlink:href="#m3ad97e5a99" x="177.734326" y="396.46644" style="fill: #1f77b4; fill-opacity: 0.5; stroke: #1f77b4; stroke-opacity: 0.5"/>
     <use xlink:href="#m3ad97e5a99" x="178.531469" y="399.136457" style="fill: #1f77b4; fill-opacity: 0.5; stroke: #1f77b4; stroke-opacity: 0.5"/>
     <use xlink:href="#m3ad97e5a99" x="178.93004" y="400.724586" style="fill: #1f77b4; fill-opacity: 0.5; stroke: #1f77b4; stroke-opacity: 0.5"/>
     <use xlink:href="#m3ad97e5a99" x="181.321469" y="399.063064" style="fill: #1f77b4; fill-opacity: 0.5; stroke: #1f77b4; stroke-opacity: 0.5"/>
     <use xlink:href="#m3ad97e5a99" x="182.118612" y="399.042707" style="fill: #1f77b4; fill-opacity: 0.5; stroke: #1f77b4; stroke-opacity: 0.5"/>
     <use xlink:href="#m3ad97e5a99" x="188.894326" y="396.912007" style="fill: #1f77b4; fill-opacity: 0.5; stroke: #1f77b4; stroke-opacity: 0.5"/>
     <use xlink:href="#m3ad97e5a99" x="189.292897" y="396.418552" style="fill: #1f77b4; fill-opacity: 0.5; stroke: #1f77b4; stroke-opacity: 0.5"/>
     <use xlink:href="#m3ad97e5a99" x="190.09004" y="400.315132" style="fill: #1f77b4; fill-opacity: 0.5; stroke: #1f77b4; stroke-opacity: 0.5"/>
     <use xlink:href="#m3ad97e5a99" x="190.488612" y="402.245656" style="fill: #1f77b4; fill-opacity: 0.5; stroke: #1f77b4; stroke-opacity: 0.5"/>
     <use xlink:href="#m3ad97e5a99" x="192.481469" y="397.842875" style="fill: #1f77b4; fill-opacity: 0.5; stroke: #1f77b4; stroke-opacity: 0.5"/>
     <use xlink:href="#m3ad97e5a99" x="195.271469" y="397.334705" style="fill: #1f77b4; fill-opacity: 0.5; stroke: #1f77b4; stroke-opacity: 0.5"/>
     <use xlink:href="#m3ad97e5a99" x="198.858612" y="396.384923" style="fill: #1f77b4; fill-opacity: 0.5; stroke: #1f77b4; stroke-opacity: 0.5"/>
     <use xlink:href="#m3ad97e5a99" x="200.054326" y="398.645663" style="fill: #1f77b4; fill-opacity: 0.5; stroke: #1f77b4; stroke-opacity: 0.5"/>
     <use xlink:href="#m3ad97e5a99" x="202.844326" y="404.810469" style="fill: #1f77b4; fill-opacity: 0.5; stroke: #1f77b4; stroke-opacity: 0.5"/>
     <use xlink:href="#m3ad97e5a99" x="203.641469" y="397.253108" style="fill: #1f77b4; fill-opacity: 0.5; stroke: #1f77b4; stroke-opacity: 0.5"/>
     <use xlink:href="#m3ad97e5a99" x="204.438612" y="401.6382" style="fill: #1f77b4; fill-opacity: 0.5; stroke: #1f77b4; stroke-opacity: 0.5"/>
     <use xlink:href="#m3ad97e5a99" x="207.228612" y="396.359066" style="fill: #1f77b4; fill-opacity: 0.5; stroke: #1f77b4; stroke-opacity: 0.5"/>
     <use xlink:href="#m3ad97e5a99" x="209.62004" y="397.62448" style="fill: #1f77b4; fill-opacity: 0.5; stroke: #1f77b4; stroke-opacity: 0.5"/>
     <use xlink:href="#m3ad97e5a99" x="211.214326" y="398.445948" style="fill: #1f77b4; fill-opacity: 0.5; stroke: #1f77b4; stroke-opacity: 0.5"/>
     <use xlink:href="#m3ad97e5a99" x="211.214326" y="401.803058" style="fill: #1f77b4; fill-opacity: 0.5; stroke: #1f77b4; stroke-opacity: 0.5"/>
     <use xlink:href="#m3ad97e5a99" x="212.808612" y="397.589231" style="fill: #1f77b4; fill-opacity: 0.5; stroke: #1f77b4; stroke-opacity: 0.5"/>
     <use xlink:href="#m3ad97e5a99" x="215.20004" y="397.154835" style="fill: #1f77b4; fill-opacity: 0.5; stroke: #1f77b4; stroke-opacity: 0.5"/>
     <use xlink:href="#m3ad97e5a99" x="217.99004" y="399.141831" style="fill: #1f77b4; fill-opacity: 0.5; stroke: #1f77b4; stroke-opacity: 0.5"/>
     <use xlink:href="#m3ad97e5a99" x="218.787183" y="396.727528" style="fill: #1f77b4; fill-opacity: 0.5; stroke: #1f77b4; stroke-opacity: 0.5"/>
     <use xlink:href="#m3ad97e5a99" x="220.78004" y="396.717658" style="fill: #1f77b4; fill-opacity: 0.5; stroke: #1f77b4; stroke-opacity: 0.5"/>
     <use xlink:href="#m3ad97e5a99" x="221.178612" y="406.954485" style="fill: #1f77b4; fill-opacity: 0.5; stroke: #1f77b4; stroke-opacity: 0.5"/>
     <use xlink:href="#m3ad97e5a99" x="223.171469" y="398.651173" style="fill: #1f77b4; fill-opacity: 0.5; stroke: #1f77b4; stroke-opacity: 0.5"/>
     <use xlink:href="#m3ad97e5a99" x="225.164326" y="397.081114" style="fill: #1f77b4; fill-opacity: 0.5; stroke: #1f77b4; stroke-opacity: 0.5"/>
     <use xlink:href="#m3ad97e5a99" x="225.562897" y="396.311527" style="fill: #1f77b4; fill-opacity: 0.5; stroke: #1f77b4; stroke-opacity: 0.5"/>
     <use xlink:href="#m3ad97e5a99" x="227.157183" y="399.725796" style="fill: #1f77b4; fill-opacity: 0.5; stroke: #1f77b4; stroke-opacity: 0.5"/>
     <use xlink:href="#m3ad97e5a99" x="227.157183" y="398.586492" style="fill: #1f77b4; fill-opacity: 0.5; stroke: #1f77b4; stroke-opacity: 0.5"/>
     <use xlink:href="#m3ad97e5a99" x="231.541469" y="399.999194" style="fill: #1f77b4; fill-opacity: 0.5; stroke: #1f77b4; stroke-opacity: 0.5"/>
     <use xlink:href="#m3ad97e5a99" x="232.737183" y="399.236027" style="fill: #1f77b4; fill-opacity: 0.5; stroke: #1f77b4; stroke-opacity: 0.5"/>
     <use xlink:href="#m3ad97e5a99" x="233.932897" y="397.0232" style="fill: #1f77b4; fill-opacity: 0.5; stroke: #1f77b4; stroke-opacity: 0.5"/>
     <use xlink:href="#m3ad97e5a99" x="234.73004" y="399.925175" style="fill: #1f77b4; fill-opacity: 0.5; stroke: #1f77b4; stroke-opacity: 0.5"/>
     <use xlink:href="#m3ad97e5a99" x="235.128612" y="402.453926" style="fill: #1f77b4; fill-opacity: 0.5; stroke: #1f77b4; stroke-opacity: 0.5"/>
     <use xlink:href="#m3ad97e5a99" x="238.715754" y="396.993998" style="fill: #1f77b4; fill-opacity: 0.5; stroke: #1f77b4; stroke-opacity: 0.5"/>
     <use xlink:href="#m3ad97e5a99" x="240.31004" y="398.041098" style="fill: #1f77b4; fill-opacity: 0.5; stroke: #1f77b4; stroke-opacity: 0.5"/>
     <use xlink:href="#m3ad97e5a99" x="242.302897" y="398.714736" style="fill: #1f77b4; fill-opacity: 0.5; stroke: #1f77b4; stroke-opacity: 0.5"/>
     <use xlink:href="#m3ad97e5a99" x="242.701469" y="406.702796" style="fill: #1f77b4; fill-opacity: 0.5; stroke: #1f77b4; stroke-opacity: 0.5"/>
     <use xlink:href="#m3ad97e5a99" x="243.498612" y="399.734838" style="fill: #1f77b4; fill-opacity: 0.5; stroke: #1f77b4; stroke-opacity: 0.5"/>
     <use xlink:href="#m3ad97e5a99" x="244.694326" y="400.397945" style="fill: #1f77b4; fill-opacity: 0.5; stroke: #1f77b4; stroke-opacity: 0.5"/>
     <use xlink:href="#m3ad97e5a99" x="246.687183" y="397.628992" style="fill: #1f77b4; fill-opacity: 0.5; stroke: #1f77b4; stroke-opacity: 0.5"/>
     <use xlink:href="#m3ad97e5a99" x="248.281469" y="399.638466" style="fill: #1f77b4; fill-opacity: 0.5; stroke: #1f77b4; stroke-opacity: 0.5"/>
     <use xlink:href="#m3ad97e5a99" x="250.672897" y="398.592822" style="fill: #1f77b4; fill-opacity: 0.5; stroke: #1f77b4; stroke-opacity: 0.5"/>
     <use xlink:href="#m3ad97e5a99" x="257.847183" y="401.064898" style="fill: #1f77b4; fill-opacity: 0.5; stroke: #1f77b4; stroke-opacity: 0.5"/>
    </g>
   </g>
   <g id="PolyCollection_3">
    <defs>
     <path id="m05a352d8e0" d="M 86.541183 9.413713 
L 86.541183 -166.757357 
L 88.53404 -169.531152 
L 89.968897 -169.531152 
L 91.403754 -135.120387 
L 92.519754 -135.120387 
L 93.55604 -135.120387 
L 94.512612 -142.507021 
L 95.628612 -142.507021 
L 96.90404 -142.507021 
L 98.02004 -142.507021 
L 99.056326 -170.451616 
L 100.331754 -215.158179 
L 101.36804 -224.965151 
L 102.404326 -224.755725 
L 103.839183 -224.755725 
L 105.433469 -250.942565 
L 107.266897 -234.730891 
L 109.100326 -234.533116 
L 110.774326 -244.472244 
L 112.288897 -210.893941 
L 114.20204 -219.672755 
L 115.716612 -221.264193 
L 117.310897 -207.517256 
L 119.064612 -207.44588 
L 121.057469 -203.454093 
L 122.412612 -184.45878 
L 125.043183 -206.680881 
L 127.514326 -203.044834 
L 130.065183 -203.099388 
L 133.17404 -211.777052 
L 136.123469 -212.902001 
L 138.116326 -216.472752 
L 140.109183 -220.008347 
L 142.899183 -212.63737 
L 145.131183 -212.883527 
L 147.761754 -211.658848 
L 149.91404 -215.727635 
L 152.464897 -216.095962 
L 154.218612 -216.647032 
L 156.291183 -217.224139 
L 158.044897 -218.029914 
L 160.595754 -207.91075 
L 162.907469 -208.852265 
L 165.298897 -208.357456 
L 167.132326 -206.737696 
L 169.045469 -205.694756 
L 171.357183 -207.456598 
L 173.668897 -206.900595 
L 175.58204 -206.800011 
L 177.654612 -206.584523 
L 179.727183 -206.532604 
L 181.959183 -206.097257 
L 184.111469 -207.448911 
L 186.343469 -207.273827 
L 188.176897 -208.199931 
L 190.249469 -208.544198 
L 191.524897 -208.314709 
L 193.43804 -208.338456 
L 195.430897 -208.377279 
L 197.90204 -210.053315 
L 200.13404 -210.293179 
L 201.967469 -209.539157 
L 203.641469 -209.556908 
L 205.554612 -209.979128 
L 207.228612 -208.156087 
L 208.743183 -208.069323 
L 210.417183 -208.119778 
L 212.011469 -207.621057 
L 213.685469 -207.198578 
L 215.20004 -208.013022 
L 217.113183 -206.901155 
L 218.787183 -211.767886 
L 220.381469 -211.192952 
L 221.816326 -211.920591 
L 223.171469 -212.129092 
L 224.446897 -211.104848 
L 225.642612 -207.013007 
L 227.316612 -207.250223 
L 228.831183 -206.541993 
L 230.505183 -205.818028 
L 232.019754 -205.851955 
L 233.61404 -206.519443 
L 235.048897 -207.783437 
L 236.563469 -208.118188 
L 238.237469 -207.325087 
L 239.831754 -209.766169 
L 241.505754 -210.038106 
L 242.701469 -208.575597 
L 243.976897 -208.824944 
L 245.172612 -208.435368 
L 246.766897 -205.341797 
L 249.636612 -205.65163 
L 249.636612 -200.140996 
L 249.636612 -200.140996 
L 246.766897 -200.982853 
L 245.172612 -194.645292 
L 243.976897 -194.625208 
L 242.701469 -194.709712 
L 241.505754 -194.608782 
L 239.831754 -193.793084 
L 238.237469 -198.945214 
L 236.563469 -198.828727 
L 235.048897 -198.685508 
L 233.61404 -198.747423 
L 232.019754 -200.961884 
L 230.505183 -201.075563 
L 228.831183 -200.636268 
L 227.316612 -200.790003 
L 225.642612 -201.566428 
L 224.446897 -194.127389 
L 223.171469 -194.3064 
L 221.816326 -194.348501 
L 220.381469 -194.251853 
L 218.787183 -194.275455 
L 217.113183 -202.888287 
L 215.20004 -199.74226 
L 213.685469 -199.869336 
L 212.011469 -200.053797 
L 210.417183 -199.873384 
L 208.743183 -198.304252 
L 207.228612 -200.037468 
L 205.554612 -195.668618 
L 203.641469 -195.682365 
L 201.967469 -195.689773 
L 200.13404 -196.657149 
L 197.90204 -196.661107 
L 195.430897 -199.363067 
L 193.43804 -198.734103 
L 191.524897 -198.744398 
L 190.249469 -198.683988 
L 188.176897 -198.548322 
L 186.343469 -200.747463 
L 184.111469 -200.408597 
L 181.959183 -200.67309 
L 179.727183 -200.415969 
L 177.654612 -200.475969 
L 175.58204 -199.45883 
L 173.668897 -199.191412 
L 171.357183 -199.208158 
L 169.045469 -199.753547 
L 167.132326 -199.348765 
L 165.298897 -196.300817 
L 162.907469 -196.851545 
L 160.595754 -196.38073 
L 158.044897 -177.124853 
L 156.291183 -177.342439 
L 154.218612 -175.035756 
L 152.464897 -175.199189 
L 149.91404 -175.242477 
L 147.761754 -188.961773 
L 145.131183 -180.630025 
L 142.899183 -183.463321 
L 140.109183 -162.292975 
L 138.116326 -154.373716 
L 136.123469 -156.081889 
L 133.17404 -153.840095 
L 130.065183 -151.479864 
L 127.514326 -151.689596 
L 125.043183 -141.474702 
L 122.412612 -152.077365 
L 121.057469 -141.206098 
L 119.064612 -142.830814 
L 117.310897 -141.724483 
L 115.716612 -117.20401 
L 114.20204 -111.877801 
L 112.288897 -115.904353 
L 110.774326 -27.574971 
L 109.100326 -27.254203 
L 107.266897 -27.497934 
L 105.433469 -23.803044 
L 103.839183 -25.285776 
L 102.404326 -25.285776 
L 101.36804 12.510027 
L 100.331754 35.842307 
L 99.056326 11.216854 
L 98.02004 14.335115 
L 96.90404 14.335115 
L 95.628612 14.335115 
L 94.512612 14.335115 
L 93.55604 9.648208 
L 92.519754 9.648208 
L 91.403754 9.648208 
L 89.968897 10.65072 
L 88.53404 10.65072 
L 86.541183 9.413713 
z
" style="stroke: #1f77b4; stroke-opacity: 0.1"/>
    </defs>
    <g clip-path="url(#p4b90958518)">
     <use xlink:href="#m05a352d8e0" x="0" y="602.360937" style="fill: #1f77b4; fill-opacity: 0.1; stroke: #1f77b4; stroke-opacity: 0.1"/>
    </g>
   </g>
   <g id="matplotlib.axis_5">
    <g id="xtick_7">
     <g id="line2d_19">
      <g>
       <use xlink:href="#m7c1a3c6384" x="139.072897" y="555.810469" style="stroke: #000000; stroke-width: 0.8"/>
      </g>
     </g>
     <g id="text_21">
      <!-- 200 -->
      <g transform="translate(127.394929 572.831406)scale(0.14 -0.14)">
       <use xlink:href="#ArialMT-32"/>
       <use xlink:href="#ArialMT-30" x="55.615234"/>
       <use xlink:href="#ArialMT-30" x="111.230469"/>
      </g>
     </g>
    </g>
    <g id="xtick_8">
     <g id="line2d_20">
      <g>
       <use xlink:href="#m7c1a3c6384" x="218.787183" y="555.810469" style="stroke: #000000; stroke-width: 0.8"/>
      </g>
     </g>
     <g id="text_22">
      <!-- 400 -->
      <g transform="translate(207.109214 572.831406)scale(0.14 -0.14)">
       <use xlink:href="#ArialMT-34"/>
       <use xlink:href="#ArialMT-30" x="55.615234"/>
       <use xlink:href="#ArialMT-30" x="111.230469"/>
      </g>
     </g>
    </g>
    <g id="xtick_9">
     <g id="line2d_21">
      <g>
       <use xlink:href="#m7c1a3c6384" x="298.501469" y="555.810469" style="stroke: #000000; stroke-width: 0.8"/>
      </g>
     </g>
     <g id="text_23">
      <!-- 600 -->
      <g transform="translate(286.8235 572.831406)scale(0.14 -0.14)">
       <use xlink:href="#ArialMT-36"/>
       <use xlink:href="#ArialMT-30" x="55.615234"/>
       <use xlink:href="#ArialMT-30" x="111.230469"/>
      </g>
     </g>
    </g>
    <g id="text_24">
     <!-- Number of Nodes -->
     <g transform="translate(120.292016 591.782187)scale(0.17 -0.17)">
      <defs>
       <path id="ArialMT-4e" d="M 488 0 
L 488 4581 
L 1109 4581 
L 3516 984 
L 3516 4581 
L 4097 4581 
L 4097 0 
L 3475 0 
L 1069 3600 
L 1069 0 
L 488 0 
z
" transform="scale(0.015625)"/>
       <path id="ArialMT-6d" d="M 422 0 
L 422 3319 
L 925 3319 
L 925 2853 
Q 1081 3097 1340 3245 
Q 1600 3394 1931 3394 
Q 2300 3394 2536 3241 
Q 2772 3088 2869 2813 
Q 3263 3394 3894 3394 
Q 4388 3394 4653 3120 
Q 4919 2847 4919 2278 
L 4919 0 
L 4359 0 
L 4359 2091 
Q 4359 2428 4304 2576 
Q 4250 2725 4106 2815 
Q 3963 2906 3769 2906 
Q 3419 2906 3187 2673 
Q 2956 2441 2956 1928 
L 2956 0 
L 2394 0 
L 2394 2156 
Q 2394 2531 2256 2718 
Q 2119 2906 1806 2906 
Q 1569 2906 1367 2781 
Q 1166 2656 1075 2415 
Q 984 2175 984 1722 
L 984 0 
L 422 0 
z
" transform="scale(0.015625)"/>
       <path id="ArialMT-62" d="M 941 0 
L 419 0 
L 419 4581 
L 981 4581 
L 981 2947 
Q 1338 3394 1891 3394 
Q 2197 3394 2470 3270 
Q 2744 3147 2920 2923 
Q 3097 2700 3197 2384 
Q 3297 2069 3297 1709 
Q 3297 856 2875 390 
Q 2453 -75 1863 -75 
Q 1275 -75 941 416 
L 941 0 
z
M 934 1684 
Q 934 1088 1097 822 
Q 1363 388 1816 388 
Q 2184 388 2453 708 
Q 2722 1028 2722 1663 
Q 2722 2313 2464 2622 
Q 2206 2931 1841 2931 
Q 1472 2931 1203 2611 
Q 934 2291 934 1684 
z
" transform="scale(0.015625)"/>
       <path id="ArialMT-72" d="M 416 0 
L 416 3319 
L 922 3319 
L 922 2816 
Q 1116 3169 1280 3281 
Q 1444 3394 1641 3394 
Q 1925 3394 2219 3213 
L 2025 2691 
Q 1819 2813 1613 2813 
Q 1428 2813 1281 2702 
Q 1134 2591 1072 2394 
Q 978 2094 978 1738 
L 978 0 
L 416 0 
z
" transform="scale(0.015625)"/>
       <path id="ArialMT-6f" d="M 213 1659 
Q 213 2581 725 3025 
Q 1153 3394 1769 3394 
Q 2453 3394 2887 2945 
Q 3322 2497 3322 1706 
Q 3322 1066 3130 698 
Q 2938 331 2570 128 
Q 2203 -75 1769 -75 
Q 1072 -75 642 372 
Q 213 819 213 1659 
z
M 791 1659 
Q 791 1022 1069 705 
Q 1347 388 1769 388 
Q 2188 388 2466 706 
Q 2744 1025 2744 1678 
Q 2744 2294 2464 2611 
Q 2184 2928 1769 2928 
Q 1347 2928 1069 2612 
Q 791 2297 791 1659 
z
" transform="scale(0.015625)"/>
       <path id="ArialMT-66" d="M 556 0 
L 556 2881 
L 59 2881 
L 59 3319 
L 556 3319 
L 556 3672 
Q 556 4006 616 4169 
Q 697 4388 901 4523 
Q 1106 4659 1475 4659 
Q 1713 4659 2000 4603 
L 1916 4113 
Q 1741 4144 1584 4144 
Q 1328 4144 1222 4034 
Q 1116 3925 1116 3625 
L 1116 3319 
L 1763 3319 
L 1763 2881 
L 1116 2881 
L 1116 0 
L 556 0 
z
" transform="scale(0.015625)"/>
       <path id="ArialMT-64" d="M 2575 0 
L 2575 419 
Q 2259 -75 1647 -75 
Q 1250 -75 917 144 
Q 584 363 401 755 
Q 219 1147 219 1656 
Q 219 2153 384 2558 
Q 550 2963 881 3178 
Q 1213 3394 1622 3394 
Q 1922 3394 2156 3267 
Q 2391 3141 2538 2938 
L 2538 4581 
L 3097 4581 
L 3097 0 
L 2575 0 
z
M 797 1656 
Q 797 1019 1065 703 
Q 1334 388 1700 388 
Q 2069 388 2326 689 
Q 2584 991 2584 1609 
Q 2584 2291 2321 2609 
Q 2059 2928 1675 2928 
Q 1300 2928 1048 2622 
Q 797 2316 797 1656 
z
" transform="scale(0.015625)"/>
       <path id="ArialMT-73" d="M 197 991 
L 753 1078 
Q 800 744 1014 566 
Q 1228 388 1613 388 
Q 2000 388 2187 545 
Q 2375 703 2375 916 
Q 2375 1106 2209 1216 
Q 2094 1291 1634 1406 
Q 1016 1563 777 1677 
Q 538 1791 414 1992 
Q 291 2194 291 2438 
Q 291 2659 392 2848 
Q 494 3038 669 3163 
Q 800 3259 1026 3326 
Q 1253 3394 1513 3394 
Q 1903 3394 2198 3281 
Q 2494 3169 2634 2976 
Q 2775 2784 2828 2463 
L 2278 2388 
Q 2241 2644 2061 2787 
Q 1881 2931 1553 2931 
Q 1166 2931 1000 2803 
Q 834 2675 834 2503 
Q 834 2394 903 2306 
Q 972 2216 1119 2156 
Q 1203 2125 1616 2013 
Q 2213 1853 2448 1751 
Q 2684 1650 2818 1456 
Q 2953 1263 2953 975 
Q 2953 694 2789 445 
Q 2625 197 2315 61 
Q 2006 -75 1616 -75 
Q 969 -75 630 194 
Q 291 463 197 991 
z
" transform="scale(0.015625)"/>
      </defs>
      <use xlink:href="#ArialMT-4e"/>
      <use xlink:href="#ArialMT-75" x="72.216797"/>
      <use xlink:href="#ArialMT-6d" x="127.832031"/>
      <use xlink:href="#ArialMT-62" x="211.132812"/>
      <use xlink:href="#ArialMT-65" x="266.748047"/>
      <use xlink:href="#ArialMT-72" x="322.363281"/>
      <use xlink:href="#ArialMT-20" x="355.664062"/>
      <use xlink:href="#ArialMT-6f" x="383.447266"/>
      <use xlink:href="#ArialMT-66" x="439.0625"/>
      <use xlink:href="#ArialMT-20" x="466.845703"/>
      <use xlink:href="#ArialMT-4e" x="494.628906"/>
      <use xlink:href="#ArialMT-6f" x="566.845703"/>
      <use xlink:href="#ArialMT-64" x="622.460938"/>
      <use xlink:href="#ArialMT-65" x="678.076172"/>
      <use xlink:href="#ArialMT-73" x="733.691406"/>
     </g>
    </g>
   </g>
   <g id="matplotlib.axis_6">
    <g id="ytick_13">
     <g id="line2d_22">
      <g>
       <use xlink:href="#mddac4bd73a" x="75.301469" y="395.928116" style="stroke: #000000; stroke-width: 0.8"/>
      </g>
     </g>
     <g id="text_25">
      <!-- 0 -->
      <g transform="translate(60.516156 400.938585)scale(0.14 -0.14)">
       <use xlink:href="#ArialMT-30"/>
      </g>
     </g>
    </g>
    <g id="ytick_14">
     <g id="line2d_23">
      <g>
       <use xlink:href="#mddac4bd73a" x="75.301469" y="427.904586" style="stroke: #000000; stroke-width: 0.8"/>
      </g>
     </g>
     <g id="text_26">
      <!-- 20 -->
      <g transform="translate(52.730844 432.915055)scale(0.14 -0.14)">
       <use xlink:href="#ArialMT-32"/>
       <use xlink:href="#ArialMT-30" x="55.615234"/>
      </g>
     </g>
    </g>
    <g id="ytick_15">
     <g id="line2d_24">
      <g>
       <use xlink:href="#mddac4bd73a" x="75.301469" y="459.881057" style="stroke: #000000; stroke-width: 0.8"/>
      </g>
     </g>
     <g id="text_27">
      <!-- 40 -->
      <g transform="translate(52.730844 464.891526)scale(0.14 -0.14)">
       <use xlink:href="#ArialMT-34"/>
       <use xlink:href="#ArialMT-30" x="55.615234"/>
      </g>
     </g>
    </g>
    <g id="ytick_16">
     <g id="line2d_25">
      <g>
       <use xlink:href="#mddac4bd73a" x="75.301469" y="491.857528" style="stroke: #000000; stroke-width: 0.8"/>
      </g>
     </g>
     <g id="text_28">
      <!-- 60 -->
      <g transform="translate(52.730844 496.867996)scale(0.14 -0.14)">
       <use xlink:href="#ArialMT-36"/>
       <use xlink:href="#ArialMT-30" x="55.615234"/>
      </g>
     </g>
    </g>
    <g id="ytick_17">
     <g id="line2d_26">
      <g>
       <use xlink:href="#mddac4bd73a" x="75.301469" y="523.833998" style="stroke: #000000; stroke-width: 0.8"/>
      </g>
     </g>
     <g id="text_29">
      <!-- 80 -->
      <g transform="translate(52.730844 528.844467)scale(0.14 -0.14)">
       <use xlink:href="#ArialMT-38"/>
       <use xlink:href="#ArialMT-30" x="55.615234"/>
      </g>
     </g>
    </g>
    <g id="ytick_18">
     <g id="line2d_27">
      <g>
       <use xlink:href="#mddac4bd73a" x="75.301469" y="555.810469" style="stroke: #000000; stroke-width: 0.8"/>
      </g>
     </g>
     <g id="text_30">
      <!-- 100 -->
      <g transform="translate(44.945531 560.820938)scale(0.14 -0.14)">
       <use xlink:href="#ArialMT-31"/>
       <use xlink:href="#ArialMT-30" x="55.615234"/>
       <use xlink:href="#ArialMT-30" x="111.230469"/>
      </g>
     </g>
    </g>
    <g id="text_31">
     <!-- Lhx4 -->
     <g transform="translate(19.586094 494.299683)rotate(-90)scale(0.17 -0.17)">
      <use xlink:href="#ArialMT-4c"/>
      <use xlink:href="#ArialMT-68" x="55.615234"/>
      <use xlink:href="#ArialMT-78" x="111.230469"/>
      <use xlink:href="#ArialMT-34" x="161.230469"/>
     </g>
     <!-- Rank Quantile -->
     <g transform="translate(37.566781 529.730074)rotate(-90)scale(0.17 -0.17)">
      <use xlink:href="#ArialMT-52"/>
      <use xlink:href="#ArialMT-61" x="72.216797"/>
      <use xlink:href="#ArialMT-6e" x="127.832031"/>
      <use xlink:href="#ArialMT-6b" x="183.447266"/>
      <use xlink:href="#ArialMT-20" x="233.447266"/>
      <use xlink:href="#ArialMT-51" x="261.230469"/>
      <use xlink:href="#ArialMT-75" x="339.013672"/>
      <use xlink:href="#ArialMT-61" x="394.628906"/>
      <use xlink:href="#ArialMT-6e" x="450.244141"/>
      <use xlink:href="#ArialMT-74" x="505.859375"/>
      <use xlink:href="#ArialMT-69" x="533.642578"/>
      <use xlink:href="#ArialMT-6c" x="555.859375"/>
      <use xlink:href="#ArialMT-65" x="578.076172"/>
     </g>
    </g>
   </g>
   <g id="patch_13">
    <path d="M 75.301469 555.810469 
L 75.301469 395.928116 
" style="fill: none; stroke: #000000; stroke-width: 0.8; stroke-linejoin: miter; stroke-linecap: square"/>
   </g>
   <g id="patch_14">
    <path d="M 298.501469 555.810469 
L 298.501469 395.928116 
" style="fill: none"/>
   </g>
   <g id="patch_15">
    <path d="M 75.301469 555.810469 
L 298.501469 555.810469 
" style="fill: none; stroke: #000000; stroke-width: 0.8; stroke-linejoin: miter; stroke-linecap: square"/>
   </g>
   <g id="patch_16">
    <path d="M 75.301469 395.928116 
L 298.501469 395.928116 
" style="fill: none"/>
   </g>
  </g>
 </g>
 <defs>
  <clipPath id="pbfcf1bac3f">
   <rect x="75.301469" y="12.210469" width="223.2" height="159.882353"/>
  </clipPath>
  <clipPath id="pac50351dd6">
   <rect x="75.301469" y="204.069292" width="223.2" height="159.882353"/>
  </clipPath>
  <clipPath id="p4b90958518">
   <rect x="75.301469" y="395.928116" width="223.2" height="159.882353"/>
  </clipPath>
 </defs>
</svg>
