<?xml version="1.0" encoding="utf-8" standalone="no"?>
<!DOCTYPE svg PUBLIC "-//W3C//DTD SVG 1.1//EN"
  "http://www.w3.org/Graphics/SVG/1.1/DTD/svg11.dtd">
<svg xmlns:xlink="http://www.w3.org/1999/xlink" width="317.161625pt" height="602.360937pt" viewBox="0 0 317.161625 602.360937" xmlns="http://www.w3.org/2000/svg" version="1.1">
 <metadata>
  <rdf:RDF xmlns:dc="http://purl.org/dc/elements/1.1/" xmlns:cc="http://creativecommons.org/ns#" xmlns:rdf="http://www.w3.org/1999/02/22-rdf-syntax-ns#">
   <cc:Work>
    <dc:type rdf:resource="http://purl.org/dc/dcmitype/StillImage"/>
    <dc:date>2025-08-12T14:41:30.385746</dc:date>
    <dc:format>image/svg+xml</dc:format>
    <dc:creator>
     <cc:Agent>
      <dc:title>Matplotlib v3.5.3, https://matplotlib.org/</dc:title>
     </cc:Agent>
    </dc:creator>
   </cc:Work>
  </rdf:RDF>
 </metadata>
 <defs>
  <style type="text/css">*{stroke-linejoin: round; stroke-linecap: butt}</style>
 </defs>
 <g id="figure_1">
  <g id="patch_1">
   <path d="M 0 602.360937 
L 317.161625 602.360937 
L 317.161625 0 
L 0 0 
L 0 602.360937 
z
" style="fill: none"/>
  </g>
  <g id="axes_1">
   <g id="patch_2">
    <path d="M 75.083656 172.092822 
L 298.283656 172.092822 
L 298.283656 12.210469 
L 75.083656 12.210469 
z
" style="fill: #ffffff"/>
   </g>
   <g id="PathCollection_1">
    <defs>
     <path id="m4ff07eef54" d="M 0 0.5 
C 0.132602 0.5 0.25979 0.447317 0.353553 0.353553 
C 0.447317 0.25979 0.5 0.132602 0.5 0 
C 0.5 -0.132602 0.447317 -0.25979 0.353553 -0.353553 
C 0.25979 -0.447317 0.132602 -0.5 0 -0.5 
C -0.132602 -0.5 -0.25979 -0.447317 -0.353553 -0.353553 
C -0.447317 -0.25979 -0.5 -0.132602 -0.5 0 
C -0.5 0.132602 -0.447317 0.25979 -0.353553 0.353553 
C -0.25979 0.447317 -0.132602 0.5 0 0.5 
z
" style="stroke: #1f77b4; stroke-opacity: 0.5"/>
    </defs>
    <g clip-path="url(#p60a8324773)">
     <use xlink:href="#m4ff07eef54" x="64.720799" y="172.092822" style="fill: #1f77b4; fill-opacity: 0.5; stroke: #1f77b4; stroke-opacity: 0.5"/>
     <use xlink:href="#m4ff07eef54" x="80.265085" y="42.37695" style="fill: #1f77b4; fill-opacity: 0.5; stroke: #1f77b4; stroke-opacity: 0.5"/>
     <use xlink:href="#m4ff07eef54" x="81.859371" y="172.092822" style="fill: #1f77b4; fill-opacity: 0.5; stroke: #1f77b4; stroke-opacity: 0.5"/>
     <use xlink:href="#m4ff07eef54" x="86.642228" y="86.358806" style="fill: #1f77b4; fill-opacity: 0.5; stroke: #1f77b4; stroke-opacity: 0.5"/>
     <use xlink:href="#m4ff07eef54" x="95.012228" y="79.716351" style="fill: #1f77b4; fill-opacity: 0.5; stroke: #1f77b4; stroke-opacity: 0.5"/>
     <use xlink:href="#m4ff07eef54" x="104.976513" y="172.092822" style="fill: #1f77b4; fill-opacity: 0.5; stroke: #1f77b4; stroke-opacity: 0.5"/>
     <use xlink:href="#m4ff07eef54" x="108.165085" y="53.805878" style="fill: #1f77b4; fill-opacity: 0.5; stroke: #1f77b4; stroke-opacity: 0.5"/>
     <use xlink:href="#m4ff07eef54" x="110.157942" y="20.954035" style="fill: #1f77b4; fill-opacity: 0.5; stroke: #1f77b4; stroke-opacity: 0.5"/>
     <use xlink:href="#m4ff07eef54" x="112.150799" y="23.029575" style="fill: #1f77b4; fill-opacity: 0.5; stroke: #1f77b4; stroke-opacity: 0.5"/>
     <use xlink:href="#m4ff07eef54" x="114.542228" y="172.092822" style="fill: #1f77b4; fill-opacity: 0.5; stroke: #1f77b4; stroke-opacity: 0.5"/>
     <use xlink:href="#m4ff07eef54" x="114.940799" y="53.323074" style="fill: #1f77b4; fill-opacity: 0.5; stroke: #1f77b4; stroke-opacity: 0.5"/>
     <use xlink:href="#m4ff07eef54" x="118.527942" y="40.109403" style="fill: #1f77b4; fill-opacity: 0.5; stroke: #1f77b4; stroke-opacity: 0.5"/>
     <use xlink:href="#m4ff07eef54" x="121.716513" y="25.449135" style="fill: #1f77b4; fill-opacity: 0.5; stroke: #1f77b4; stroke-opacity: 0.5"/>
     <use xlink:href="#m4ff07eef54" x="125.702228" y="36.144953" style="fill: #1f77b4; fill-opacity: 0.5; stroke: #1f77b4; stroke-opacity: 0.5"/>
     <use xlink:href="#m4ff07eef54" x="128.890799" y="23.17383" style="fill: #1f77b4; fill-opacity: 0.5; stroke: #1f77b4; stroke-opacity: 0.5"/>
     <use xlink:href="#m4ff07eef54" x="129.289371" y="29.470495" style="fill: #1f77b4; fill-opacity: 0.5; stroke: #1f77b4; stroke-opacity: 0.5"/>
     <use xlink:href="#m4ff07eef54" x="131.680799" y="23.630637" style="fill: #1f77b4; fill-opacity: 0.5; stroke: #1f77b4; stroke-opacity: 0.5"/>
     <use xlink:href="#m4ff07eef54" x="131.680799" y="42.957075" style="fill: #1f77b4; fill-opacity: 0.5; stroke: #1f77b4; stroke-opacity: 0.5"/>
     <use xlink:href="#m4ff07eef54" x="137.659371" y="30.065351" style="fill: #1f77b4; fill-opacity: 0.5; stroke: #1f77b4; stroke-opacity: 0.5"/>
     <use xlink:href="#m4ff07eef54" x="137.659371" y="30.065351" style="fill: #1f77b4; fill-opacity: 0.5; stroke: #1f77b4; stroke-opacity: 0.5"/>
     <use xlink:href="#m4ff07eef54" x="138.456513" y="25.86876" style="fill: #1f77b4; fill-opacity: 0.5; stroke: #1f77b4; stroke-opacity: 0.5"/>
     <use xlink:href="#m4ff07eef54" x="140.449371" y="27.885209" style="fill: #1f77b4; fill-opacity: 0.5; stroke: #1f77b4; stroke-opacity: 0.5"/>
     <use xlink:href="#m4ff07eef54" x="140.449371" y="28.668946" style="fill: #1f77b4; fill-opacity: 0.5; stroke: #1f77b4; stroke-opacity: 0.5"/>
     <use xlink:href="#m4ff07eef54" x="144.435085" y="35.370997" style="fill: #1f77b4; fill-opacity: 0.5; stroke: #1f77b4; stroke-opacity: 0.5"/>
     <use xlink:href="#m4ff07eef54" x="145.630799" y="29.156525" style="fill: #1f77b4; fill-opacity: 0.5; stroke: #1f77b4; stroke-opacity: 0.5"/>
     <use xlink:href="#m4ff07eef54" x="147.225085" y="16.551166" style="fill: #1f77b4; fill-opacity: 0.5; stroke: #1f77b4; stroke-opacity: 0.5"/>
     <use xlink:href="#m4ff07eef54" x="148.022228" y="36.58715" style="fill: #1f77b4; fill-opacity: 0.5; stroke: #1f77b4; stroke-opacity: 0.5"/>
     <use xlink:href="#m4ff07eef54" x="150.015085" y="29.741429" style="fill: #1f77b4; fill-opacity: 0.5; stroke: #1f77b4; stroke-opacity: 0.5"/>
     <use xlink:href="#m4ff07eef54" x="152.007942" y="25.934276" style="fill: #1f77b4; fill-opacity: 0.5; stroke: #1f77b4; stroke-opacity: 0.5"/>
     <use xlink:href="#m4ff07eef54" x="152.406513" y="30.658433" style="fill: #1f77b4; fill-opacity: 0.5; stroke: #1f77b4; stroke-opacity: 0.5"/>
     <use xlink:href="#m4ff07eef54" x="155.993656" y="27.343366" style="fill: #1f77b4; fill-opacity: 0.5; stroke: #1f77b4; stroke-opacity: 0.5"/>
     <use xlink:href="#m4ff07eef54" x="157.986513" y="27.682955" style="fill: #1f77b4; fill-opacity: 0.5; stroke: #1f77b4; stroke-opacity: 0.5"/>
     <use xlink:href="#m4ff07eef54" x="158.783656" y="29.477763" style="fill: #1f77b4; fill-opacity: 0.5; stroke: #1f77b4; stroke-opacity: 0.5"/>
     <use xlink:href="#m4ff07eef54" x="159.580799" y="47.105427" style="fill: #1f77b4; fill-opacity: 0.5; stroke: #1f77b4; stroke-opacity: 0.5"/>
     <use xlink:href="#m4ff07eef54" x="161.175085" y="33.444844" style="fill: #1f77b4; fill-opacity: 0.5; stroke: #1f77b4; stroke-opacity: 0.5"/>
     <use xlink:href="#m4ff07eef54" x="164.363656" y="17.055389" style="fill: #1f77b4; fill-opacity: 0.5; stroke: #1f77b4; stroke-opacity: 0.5"/>
     <use xlink:href="#m4ff07eef54" x="165.559371" y="24.785485" style="fill: #1f77b4; fill-opacity: 0.5; stroke: #1f77b4; stroke-opacity: 0.5"/>
     <use xlink:href="#m4ff07eef54" x="166.356513" y="37.767871" style="fill: #1f77b4; fill-opacity: 0.5; stroke: #1f77b4; stroke-opacity: 0.5"/>
     <use xlink:href="#m4ff07eef54" x="167.552228" y="36.310382" style="fill: #1f77b4; fill-opacity: 0.5; stroke: #1f77b4; stroke-opacity: 0.5"/>
     <use xlink:href="#m4ff07eef54" x="170.342228" y="19.087129" style="fill: #1f77b4; fill-opacity: 0.5; stroke: #1f77b4; stroke-opacity: 0.5"/>
     <use xlink:href="#m4ff07eef54" x="171.139371" y="37.245428" style="fill: #1f77b4; fill-opacity: 0.5; stroke: #1f77b4; stroke-opacity: 0.5"/>
     <use xlink:href="#m4ff07eef54" x="171.139371" y="13.917398" style="fill: #1f77b4; fill-opacity: 0.5; stroke: #1f77b4; stroke-opacity: 0.5"/>
     <use xlink:href="#m4ff07eef54" x="172.335085" y="25.158687" style="fill: #1f77b4; fill-opacity: 0.5; stroke: #1f77b4; stroke-opacity: 0.5"/>
     <use xlink:href="#m4ff07eef54" x="173.132228" y="39.6029" style="fill: #1f77b4; fill-opacity: 0.5; stroke: #1f77b4; stroke-opacity: 0.5"/>
     <use xlink:href="#m4ff07eef54" x="177.915085" y="20.794756" style="fill: #1f77b4; fill-opacity: 0.5; stroke: #1f77b4; stroke-opacity: 0.5"/>
     <use xlink:href="#m4ff07eef54" x="178.712228" y="15.408116" style="fill: #1f77b4; fill-opacity: 0.5; stroke: #1f77b4; stroke-opacity: 0.5"/>
     <use xlink:href="#m4ff07eef54" x="179.509371" y="23.857528" style="fill: #1f77b4; fill-opacity: 0.5; stroke: #1f77b4; stroke-opacity: 0.5"/>
     <use xlink:href="#m4ff07eef54" x="180.306513" y="15.366042" style="fill: #1f77b4; fill-opacity: 0.5; stroke: #1f77b4; stroke-opacity: 0.5"/>
     <use xlink:href="#m4ff07eef54" x="183.096513" y="19.407745" style="fill: #1f77b4; fill-opacity: 0.5; stroke: #1f77b4; stroke-opacity: 0.5"/>
     <use xlink:href="#m4ff07eef54" x="184.292228" y="14.247187" style="fill: #1f77b4; fill-opacity: 0.5; stroke: #1f77b4; stroke-opacity: 0.5"/>
     <use xlink:href="#m4ff07eef54" x="185.487942" y="19.271519" style="fill: #1f77b4; fill-opacity: 0.5; stroke: #1f77b4; stroke-opacity: 0.5"/>
     <use xlink:href="#m4ff07eef54" x="187.082228" y="14.202772" style="fill: #1f77b4; fill-opacity: 0.5; stroke: #1f77b4; stroke-opacity: 0.5"/>
     <use xlink:href="#m4ff07eef54" x="187.480799" y="14.693114" style="fill: #1f77b4; fill-opacity: 0.5; stroke: #1f77b4; stroke-opacity: 0.5"/>
     <use xlink:href="#m4ff07eef54" x="189.473656" y="13.677279" style="fill: #1f77b4; fill-opacity: 0.5; stroke: #1f77b4; stroke-opacity: 0.5"/>
     <use xlink:href="#m4ff07eef54" x="192.263656" y="15.082607" style="fill: #1f77b4; fill-opacity: 0.5; stroke: #1f77b4; stroke-opacity: 0.5"/>
     <use xlink:href="#m4ff07eef54" x="192.662228" y="16.983076" style="fill: #1f77b4; fill-opacity: 0.5; stroke: #1f77b4; stroke-opacity: 0.5"/>
     <use xlink:href="#m4ff07eef54" x="192.662228" y="12.68773" style="fill: #1f77b4; fill-opacity: 0.5; stroke: #1f77b4; stroke-opacity: 0.5"/>
     <use xlink:href="#m4ff07eef54" x="193.857942" y="16.940716" style="fill: #1f77b4; fill-opacity: 0.5; stroke: #1f77b4; stroke-opacity: 0.5"/>
     <use xlink:href="#m4ff07eef54" x="195.053656" y="19.71228" style="fill: #1f77b4; fill-opacity: 0.5; stroke: #1f77b4; stroke-opacity: 0.5"/>
     <use xlink:href="#m4ff07eef54" x="195.452228" y="14.54793" style="fill: #1f77b4; fill-opacity: 0.5; stroke: #1f77b4; stroke-opacity: 0.5"/>
     <use xlink:href="#m4ff07eef54" x="196.249371" y="12.675243" style="fill: #1f77b4; fill-opacity: 0.5; stroke: #1f77b4; stroke-opacity: 0.5"/>
     <use xlink:href="#m4ff07eef54" x="199.836513" y="12.663393" style="fill: #1f77b4; fill-opacity: 0.5; stroke: #1f77b4; stroke-opacity: 0.5"/>
     <use xlink:href="#m4ff07eef54" x="200.235085" y="21.24337" style="fill: #1f77b4; fill-opacity: 0.5; stroke: #1f77b4; stroke-opacity: 0.5"/>
     <use xlink:href="#m4ff07eef54" x="201.032228" y="13.108684" style="fill: #1f77b4; fill-opacity: 0.5; stroke: #1f77b4; stroke-opacity: 0.5"/>
     <use xlink:href="#m4ff07eef54" x="201.032228" y="14.456007" style="fill: #1f77b4; fill-opacity: 0.5; stroke: #1f77b4; stroke-opacity: 0.5"/>
     <use xlink:href="#m4ff07eef54" x="203.822228" y="14.412705" style="fill: #1f77b4; fill-opacity: 0.5; stroke: #1f77b4; stroke-opacity: 0.5"/>
     <use xlink:href="#m4ff07eef54" x="204.220799" y="12.649706" style="fill: #1f77b4; fill-opacity: 0.5; stroke: #1f77b4; stroke-opacity: 0.5"/>
     <use xlink:href="#m4ff07eef54" x="205.017942" y="15.268328" style="fill: #1f77b4; fill-opacity: 0.5; stroke: #1f77b4; stroke-opacity: 0.5"/>
     <use xlink:href="#m4ff07eef54" x="209.003656" y="13.486126" style="fill: #1f77b4; fill-opacity: 0.5; stroke: #1f77b4; stroke-opacity: 0.5"/>
     <use xlink:href="#m4ff07eef54" x="209.003656" y="21.140068" style="fill: #1f77b4; fill-opacity: 0.5; stroke: #1f77b4; stroke-opacity: 0.5"/>
     <use xlink:href="#m4ff07eef54" x="212.192228" y="13.87591" style="fill: #1f77b4; fill-opacity: 0.5; stroke: #1f77b4; stroke-opacity: 0.5"/>
     <use xlink:href="#m4ff07eef54" x="213.387942" y="13.863" style="fill: #1f77b4; fill-opacity: 0.5; stroke: #1f77b4; stroke-opacity: 0.5"/>
     <use xlink:href="#m4ff07eef54" x="213.387942" y="14.276132" style="fill: #1f77b4; fill-opacity: 0.5; stroke: #1f77b4; stroke-opacity: 0.5"/>
     <use xlink:href="#m4ff07eef54" x="213.786513" y="12.622537" style="fill: #1f77b4; fill-opacity: 0.5; stroke: #1f77b4; stroke-opacity: 0.5"/>
     <use xlink:href="#m4ff07eef54" x="217.772228" y="12.612183" style="fill: #1f77b4; fill-opacity: 0.5; stroke: #1f77b4; stroke-opacity: 0.5"/>
     <use xlink:href="#m4ff07eef54" x="220.163656" y="16.95945" style="fill: #1f77b4; fill-opacity: 0.5; stroke: #1f77b4; stroke-opacity: 0.5"/>
     <use xlink:href="#m4ff07eef54" x="221.359371" y="12.996131" style="fill: #1f77b4; fill-opacity: 0.5; stroke: #1f77b4; stroke-opacity: 0.5"/>
     <use xlink:href="#m4ff07eef54" x="221.757942" y="14.56168" style="fill: #1f77b4; fill-opacity: 0.5; stroke: #1f77b4; stroke-opacity: 0.5"/>
     <use xlink:href="#m4ff07eef54" x="224.149371" y="15.299983" style="fill: #1f77b4; fill-opacity: 0.5; stroke: #1f77b4; stroke-opacity: 0.5"/>
     <use xlink:href="#m4ff07eef54" x="226.142228" y="14.118373" style="fill: #1f77b4; fill-opacity: 0.5; stroke: #1f77b4; stroke-opacity: 0.5"/>
     <use xlink:href="#m4ff07eef54" x="230.127942" y="13.701213" style="fill: #1f77b4; fill-opacity: 0.5; stroke: #1f77b4; stroke-opacity: 0.5"/>
     <use xlink:href="#m4ff07eef54" x="233.316513" y="12.942196" style="fill: #1f77b4; fill-opacity: 0.5; stroke: #1f77b4; stroke-opacity: 0.5"/>
     <use xlink:href="#m4ff07eef54" x="234.910799" y="15.835919" style="fill: #1f77b4; fill-opacity: 0.5; stroke: #1f77b4; stroke-opacity: 0.5"/>
     <use xlink:href="#m4ff07eef54" x="235.309371" y="14.380817" style="fill: #1f77b4; fill-opacity: 0.5; stroke: #1f77b4; stroke-opacity: 0.5"/>
     <use xlink:href="#m4ff07eef54" x="246.867942" y="18.999528" style="fill: #1f77b4; fill-opacity: 0.5; stroke: #1f77b4; stroke-opacity: 0.5"/>
     <use xlink:href="#m4ff07eef54" x="247.266513" y="14.920339" style="fill: #1f77b4; fill-opacity: 0.5; stroke: #1f77b4; stroke-opacity: 0.5"/>
    </g>
   </g>
   <g id="PolyCollection_1">
    <defs>
     <path id="m1d3d9d002a" d="M 81.699942 -374.536637 
L 81.699942 -609.130138 
L 89.751085 -609.130138 
L 95.331085 -600.476622 
L 100.990799 -632.295289 
L 106.092513 -656.50287 
L 109.998513 -668.975526 
L 111.991371 -661.943252 
L 114.063942 -666.468416 
L 116.375656 -664.164991 
L 119.085942 -657.853359 
L 121.955656 -591.055623 
L 124.825371 -585.766076 
L 127.455942 -585.57993 
L 129.448799 -588.235749 
L 131.840228 -588.477601 
L 133.593942 -585.303529 
L 135.427371 -586.816531 
L 137.181085 -584.411676 
L 138.934799 -577.347356 
L 140.289942 -579.947752 
L 141.884228 -580.112998 
L 143.637942 -588.475663 
L 145.152513 -588.996989 
L 147.065656 -588.77109 
L 148.580228 -589.348617 
L 149.935371 -589.269363 
L 151.689085 -580.5217 
L 153.681942 -577.900482 
L 155.435656 -577.857674 
L 156.950228 -586.509391 
L 158.703942 -585.837486 
L 160.377942 -593.15906 
L 161.892513 -594.320783 
L 163.407085 -593.543686 
L 165.001371 -590.001022 
L 166.834799 -594.570182 
L 168.189942 -588.454646 
L 169.305942 -596.385555 
L 170.501656 -596.672822 
L 171.617656 -597.740771 
L 173.132228 -596.840502 
L 174.646799 -600.007536 
L 176.320799 -595.40368 
L 177.915085 -599.284158 
L 179.907942 -590.68003 
L 181.183371 -592.668817 
L 182.538513 -591.547098 
L 184.053085 -591.132044 
L 185.487942 -591.442727 
L 186.763371 -591.730973 
L 188.357656 -591.446402 
L 189.792513 -589.961541 
L 190.908513 -590.965071 
L 192.183942 -591.130403 
L 193.299942 -591.280575 
L 193.937656 -591.530753 
L 194.655085 -593.084569 
L 196.089942 -593.100049 
L 197.365371 -594.281224 
L 198.561085 -594.828225 
L 199.677085 -594.850838 
L 201.191656 -594.148369 
L 202.068513 -594.156056 
L 203.025085 -590.527189 
L 204.619371 -590.321157 
L 206.213656 -593.690201 
L 207.887656 -593.892213 
L 209.721085 -593.255591 
L 211.395085 -593.554489 
L 212.351656 -594.010712 
L 214.105371 -590.466972 
L 215.699656 -591.851605 
L 217.293942 -592.156668 
L 218.967942 -592.137835 
L 221.040513 -591.41301 
L 222.714513 -590.52131 
L 224.707371 -589.96463 
L 227.098799 -590.011055 
L 229.729371 -590.339906 
L 231.961371 -590.297452 
L 236.106513 -591.969376 
L 239.534228 -591.467898 
L 239.534228 -582.422458 
L 239.534228 -582.422458 
L 236.106513 -582.408629 
L 231.961371 -586.033015 
L 229.729371 -585.622895 
L 227.098799 -586.461442 
L 224.707371 -586.486293 
L 222.714513 -584.626319 
L 221.040513 -584.337094 
L 218.967942 -584.683248 
L 217.293942 -584.778634 
L 215.699656 -584.736949 
L 214.105371 -587.354998 
L 212.351656 -580.400105 
L 211.395085 -580.510892 
L 209.721085 -580.412911 
L 207.887656 -580.261607 
L 206.213656 -580.248901 
L 204.619371 -586.29157 
L 203.025085 -586.236513 
L 202.068513 -580.21763 
L 201.191656 -580.219842 
L 199.677085 -580.212358 
L 198.561085 -580.198202 
L 197.365371 -578.103765 
L 196.089942 -581.006001 
L 194.655085 -581.011746 
L 193.937656 -580.842429 
L 193.299942 -580.878737 
L 192.183942 -583.442909 
L 190.908513 -584.507282 
L 189.792513 -584.904795 
L 188.357656 -582.504557 
L 186.763371 -582.554153 
L 185.487942 -580.550213 
L 184.053085 -580.591725 
L 182.538513 -576.314769 
L 181.183371 -576.738412 
L 179.907942 -576.108171 
L 177.915085 -559.42598 
L 176.320799 -559.3894 
L 174.646799 -558.761596 
L 173.132228 -553.193705 
L 171.617656 -552.976487 
L 170.501656 -555.361444 
L 169.305942 -550.605037 
L 168.189942 -554.188711 
L 166.834799 -556.14919 
L 165.001371 -554.975265 
L 163.407085 -547.114583 
L 161.892513 -549.65353 
L 160.377942 -549.656265 
L 158.703942 -552.862648 
L 156.950228 -553.305307 
L 155.435656 -570.425485 
L 153.681942 -570.27721 
L 151.689085 -564.094314 
L 149.935371 -559.66353 
L 148.580228 -560.18504 
L 147.065656 -556.987878 
L 145.152513 -557.190972 
L 143.637942 -561.193074 
L 141.884228 -565.828702 
L 140.289942 -565.630418 
L 138.934799 -570.353072 
L 137.181085 -557.5735 
L 135.427371 -556.870475 
L 133.593942 -556.942783 
L 131.840228 -556.525319 
L 129.448799 -554.33533 
L 127.455942 -563.994325 
L 124.825371 -557.216672 
L 121.955656 -542.386094 
L 119.085942 -416.020762 
L 116.375656 -414.95528 
L 114.063942 -414.449895 
L 111.991371 -413.49647 
L 109.998513 -358.956297 
L 106.092513 -408.379541 
L 100.990799 -407.255429 
L 95.331085 -378.618582 
L 89.751085 -374.536637 
L 81.699942 -374.536637 
z
" style="stroke: #1f77b4; stroke-opacity: 0.1"/>
    </defs>
    <g clip-path="url(#p60a8324773)">
     <use xlink:href="#m1d3d9d002a" x="0" y="602.360937" style="fill: #1f77b4; fill-opacity: 0.1; stroke: #1f77b4; stroke-opacity: 0.1"/>
    </g>
   </g>
   <g id="matplotlib.axis_1">
    <g id="xtick_1">
     <g id="line2d_1">
      <defs>
       <path id="m64561c96cc" d="M 0 0 
L 0 3.5 
" style="stroke: #000000; stroke-width: 0.8"/>
      </defs>
      <g>
       <use xlink:href="#m64561c96cc" x="138.855085" y="172.092822" style="stroke: #000000; stroke-width: 0.8"/>
      </g>
     </g>
     <g id="text_1">
      <!-- 200 -->
      <g transform="translate(127.177116 189.113759)scale(0.14 -0.14)">
       <defs>
        <path id="ArialMT-32" d="M 3222 541 
L 3222 0 
L 194 0 
Q 188 203 259 391 
Q 375 700 629 1000 
Q 884 1300 1366 1694 
Q 2113 2306 2375 2664 
Q 2638 3022 2638 3341 
Q 2638 3675 2398 3904 
Q 2159 4134 1775 4134 
Q 1369 4134 1125 3890 
Q 881 3647 878 3216 
L 300 3275 
Q 359 3922 746 4261 
Q 1134 4600 1788 4600 
Q 2447 4600 2831 4234 
Q 3216 3869 3216 3328 
Q 3216 3053 3103 2787 
Q 2991 2522 2730 2228 
Q 2469 1934 1863 1422 
Q 1356 997 1212 845 
Q 1069 694 975 541 
L 3222 541 
z
" transform="scale(0.015625)"/>
        <path id="ArialMT-30" d="M 266 2259 
Q 266 3072 433 3567 
Q 600 4063 929 4331 
Q 1259 4600 1759 4600 
Q 2128 4600 2406 4451 
Q 2684 4303 2865 4023 
Q 3047 3744 3150 3342 
Q 3253 2941 3253 2259 
Q 3253 1453 3087 958 
Q 2922 463 2592 192 
Q 2263 -78 1759 -78 
Q 1097 -78 719 397 
Q 266 969 266 2259 
z
M 844 2259 
Q 844 1131 1108 757 
Q 1372 384 1759 384 
Q 2147 384 2411 759 
Q 2675 1134 2675 2259 
Q 2675 3391 2411 3762 
Q 2147 4134 1753 4134 
Q 1366 4134 1134 3806 
Q 844 3388 844 2259 
z
" transform="scale(0.015625)"/>
       </defs>
       <use xlink:href="#ArialMT-32"/>
       <use xlink:href="#ArialMT-30" x="55.615234"/>
       <use xlink:href="#ArialMT-30" x="111.230469"/>
      </g>
     </g>
    </g>
    <g id="xtick_2">
     <g id="line2d_2">
      <g>
       <use xlink:href="#m64561c96cc" x="218.569371" y="172.092822" style="stroke: #000000; stroke-width: 0.8"/>
      </g>
     </g>
     <g id="text_2">
      <!-- 400 -->
      <g transform="translate(206.891402 189.113759)scale(0.14 -0.14)">
       <defs>
        <path id="ArialMT-34" d="M 2069 0 
L 2069 1097 
L 81 1097 
L 81 1613 
L 2172 4581 
L 2631 4581 
L 2631 1613 
L 3250 1613 
L 3250 1097 
L 2631 1097 
L 2631 0 
L 2069 0 
z
M 2069 1613 
L 2069 3678 
L 634 1613 
L 2069 1613 
z
" transform="scale(0.015625)"/>
       </defs>
       <use xlink:href="#ArialMT-34"/>
       <use xlink:href="#ArialMT-30" x="55.615234"/>
       <use xlink:href="#ArialMT-30" x="111.230469"/>
      </g>
     </g>
    </g>
    <g id="xtick_3">
     <g id="line2d_3">
      <g>
       <use xlink:href="#m64561c96cc" x="298.283656" y="172.092822" style="stroke: #000000; stroke-width: 0.8"/>
      </g>
     </g>
     <g id="text_3">
      <!-- 600 -->
      <g transform="translate(286.605687 189.113759)scale(0.14 -0.14)">
       <defs>
        <path id="ArialMT-36" d="M 3184 3459 
L 2625 3416 
Q 2550 3747 2413 3897 
Q 2184 4138 1850 4138 
Q 1581 4138 1378 3988 
Q 1113 3794 959 3422 
Q 806 3050 800 2363 
Q 1003 2672 1297 2822 
Q 1591 2972 1913 2972 
Q 2475 2972 2870 2558 
Q 3266 2144 3266 1488 
Q 3266 1056 3080 686 
Q 2894 316 2569 119 
Q 2244 -78 1831 -78 
Q 1128 -78 684 439 
Q 241 956 241 2144 
Q 241 3472 731 4075 
Q 1159 4600 1884 4600 
Q 2425 4600 2770 4297 
Q 3116 3994 3184 3459 
z
M 888 1484 
Q 888 1194 1011 928 
Q 1134 663 1356 523 
Q 1578 384 1822 384 
Q 2178 384 2434 671 
Q 2691 959 2691 1453 
Q 2691 1928 2437 2201 
Q 2184 2475 1800 2475 
Q 1419 2475 1153 2201 
Q 888 1928 888 1484 
z
" transform="scale(0.015625)"/>
       </defs>
       <use xlink:href="#ArialMT-36"/>
       <use xlink:href="#ArialMT-30" x="55.615234"/>
       <use xlink:href="#ArialMT-30" x="111.230469"/>
      </g>
     </g>
    </g>
   </g>
   <g id="matplotlib.axis_2">
    <g id="ytick_1">
     <g id="line2d_4">
      <defs>
       <path id="m4a493c0ff1" d="M 0 0 
L -3.5 0 
" style="stroke: #000000; stroke-width: 0.8"/>
      </defs>
      <g>
       <use xlink:href="#m4a493c0ff1" x="75.083656" y="12.210469" style="stroke: #000000; stroke-width: 0.8"/>
      </g>
     </g>
     <g id="text_4">
      <!-- 0 -->
      <g transform="translate(60.298344 17.220937)scale(0.14 -0.14)">
       <use xlink:href="#ArialMT-30"/>
      </g>
     </g>
    </g>
    <g id="ytick_2">
     <g id="line2d_5">
      <g>
       <use xlink:href="#m4a493c0ff1" x="75.083656" y="44.186939" style="stroke: #000000; stroke-width: 0.8"/>
      </g>
     </g>
     <g id="text_5">
      <!-- 20 -->
      <g transform="translate(52.513031 49.197408)scale(0.14 -0.14)">
       <use xlink:href="#ArialMT-32"/>
       <use xlink:href="#ArialMT-30" x="55.615234"/>
      </g>
     </g>
    </g>
    <g id="ytick_3">
     <g id="line2d_6">
      <g>
       <use xlink:href="#m4a493c0ff1" x="75.083656" y="76.16341" style="stroke: #000000; stroke-width: 0.8"/>
      </g>
     </g>
     <g id="text_6">
      <!-- 40 -->
      <g transform="translate(52.513031 81.173879)scale(0.14 -0.14)">
       <use xlink:href="#ArialMT-34"/>
       <use xlink:href="#ArialMT-30" x="55.615234"/>
      </g>
     </g>
    </g>
    <g id="ytick_4">
     <g id="line2d_7">
      <g>
       <use xlink:href="#m4a493c0ff1" x="75.083656" y="108.139881" style="stroke: #000000; stroke-width: 0.8"/>
      </g>
     </g>
     <g id="text_7">
      <!-- 60 -->
      <g transform="translate(52.513031 113.150349)scale(0.14 -0.14)">
       <use xlink:href="#ArialMT-36"/>
       <use xlink:href="#ArialMT-30" x="55.615234"/>
      </g>
     </g>
    </g>
    <g id="ytick_5">
     <g id="line2d_8">
      <g>
       <use xlink:href="#m4a493c0ff1" x="75.083656" y="140.116351" style="stroke: #000000; stroke-width: 0.8"/>
      </g>
     </g>
     <g id="text_8">
      <!-- 80 -->
      <g transform="translate(52.513031 145.12682)scale(0.14 -0.14)">
       <defs>
        <path id="ArialMT-38" d="M 1131 2484 
Q 781 2613 612 2850 
Q 444 3088 444 3419 
Q 444 3919 803 4259 
Q 1163 4600 1759 4600 
Q 2359 4600 2725 4251 
Q 3091 3903 3091 3403 
Q 3091 3084 2923 2848 
Q 2756 2613 2416 2484 
Q 2838 2347 3058 2040 
Q 3278 1734 3278 1309 
Q 3278 722 2862 322 
Q 2447 -78 1769 -78 
Q 1091 -78 675 323 
Q 259 725 259 1325 
Q 259 1772 486 2073 
Q 713 2375 1131 2484 
z
M 1019 3438 
Q 1019 3113 1228 2906 
Q 1438 2700 1772 2700 
Q 2097 2700 2305 2904 
Q 2513 3109 2513 3406 
Q 2513 3716 2298 3927 
Q 2084 4138 1766 4138 
Q 1444 4138 1231 3931 
Q 1019 3725 1019 3438 
z
M 838 1322 
Q 838 1081 952 856 
Q 1066 631 1291 507 
Q 1516 384 1775 384 
Q 2178 384 2440 643 
Q 2703 903 2703 1303 
Q 2703 1709 2433 1975 
Q 2163 2241 1756 2241 
Q 1359 2241 1098 1978 
Q 838 1716 838 1322 
z
" transform="scale(0.015625)"/>
       </defs>
       <use xlink:href="#ArialMT-38"/>
       <use xlink:href="#ArialMT-30" x="55.615234"/>
      </g>
     </g>
    </g>
    <g id="ytick_6">
     <g id="line2d_9">
      <g>
       <use xlink:href="#m4a493c0ff1" x="75.083656" y="172.092822" style="stroke: #000000; stroke-width: 0.8"/>
      </g>
     </g>
     <g id="text_9">
      <!-- 100 -->
      <g transform="translate(44.727719 177.10329)scale(0.14 -0.14)">
       <defs>
        <path id="ArialMT-31" d="M 2384 0 
L 1822 0 
L 1822 3584 
Q 1619 3391 1289 3197 
Q 959 3003 697 2906 
L 697 3450 
Q 1169 3672 1522 3987 
Q 1875 4303 2022 4600 
L 2384 4600 
L 2384 0 
z
" transform="scale(0.015625)"/>
       </defs>
       <use xlink:href="#ArialMT-31"/>
       <use xlink:href="#ArialMT-30" x="55.615234"/>
       <use xlink:href="#ArialMT-30" x="111.230469"/>
      </g>
     </g>
    </g>
    <g id="text_10">
     <!-- Otx2 -->
     <g transform="translate(19.368281 110.101255)rotate(-90)scale(0.17 -0.17)">
      <defs>
       <path id="ArialMT-4f" d="M 309 2231 
Q 309 3372 921 4017 
Q 1534 4663 2503 4663 
Q 3138 4663 3647 4359 
Q 4156 4056 4423 3514 
Q 4691 2972 4691 2284 
Q 4691 1588 4409 1038 
Q 4128 488 3612 205 
Q 3097 -78 2500 -78 
Q 1853 -78 1343 234 
Q 834 547 571 1087 
Q 309 1628 309 2231 
z
M 934 2222 
Q 934 1394 1379 917 
Q 1825 441 2497 441 
Q 3181 441 3623 922 
Q 4066 1403 4066 2288 
Q 4066 2847 3877 3264 
Q 3688 3681 3323 3911 
Q 2959 4141 2506 4141 
Q 1863 4141 1398 3698 
Q 934 3256 934 2222 
z
" transform="scale(0.015625)"/>
       <path id="ArialMT-74" d="M 1650 503 
L 1731 6 
Q 1494 -44 1306 -44 
Q 1000 -44 831 53 
Q 663 150 594 308 
Q 525 466 525 972 
L 525 2881 
L 113 2881 
L 113 3319 
L 525 3319 
L 525 4141 
L 1084 4478 
L 1084 3319 
L 1650 3319 
L 1650 2881 
L 1084 2881 
L 1084 941 
Q 1084 700 1114 631 
Q 1144 563 1211 522 
Q 1278 481 1403 481 
Q 1497 481 1650 503 
z
" transform="scale(0.015625)"/>
       <path id="ArialMT-78" d="M 47 0 
L 1259 1725 
L 138 3319 
L 841 3319 
L 1350 2541 
Q 1494 2319 1581 2169 
Q 1719 2375 1834 2534 
L 2394 3319 
L 3066 3319 
L 1919 1756 
L 3153 0 
L 2463 0 
L 1781 1031 
L 1600 1309 
L 728 0 
L 47 0 
z
" transform="scale(0.015625)"/>
      </defs>
      <use xlink:href="#ArialMT-4f"/>
      <use xlink:href="#ArialMT-74" x="77.783203"/>
      <use xlink:href="#ArialMT-78" x="105.566406"/>
      <use xlink:href="#ArialMT-32" x="155.566406"/>
     </g>
     <!-- Rank Quantile -->
     <g transform="translate(37.348969 146.012426)rotate(-90)scale(0.17 -0.17)">
      <defs>
       <path id="ArialMT-52" d="M 503 0 
L 503 4581 
L 2534 4581 
Q 3147 4581 3465 4457 
Q 3784 4334 3975 4021 
Q 4166 3709 4166 3331 
Q 4166 2844 3850 2509 
Q 3534 2175 2875 2084 
Q 3116 1969 3241 1856 
Q 3506 1613 3744 1247 
L 4541 0 
L 3778 0 
L 3172 953 
Q 2906 1366 2734 1584 
Q 2563 1803 2427 1890 
Q 2291 1978 2150 2013 
Q 2047 2034 1813 2034 
L 1109 2034 
L 1109 0 
L 503 0 
z
M 1109 2559 
L 2413 2559 
Q 2828 2559 3062 2645 
Q 3297 2731 3419 2920 
Q 3541 3109 3541 3331 
Q 3541 3656 3305 3865 
Q 3069 4075 2559 4075 
L 1109 4075 
L 1109 2559 
z
" transform="scale(0.015625)"/>
       <path id="ArialMT-61" d="M 2588 409 
Q 2275 144 1986 34 
Q 1697 -75 1366 -75 
Q 819 -75 525 192 
Q 231 459 231 875 
Q 231 1119 342 1320 
Q 453 1522 633 1644 
Q 813 1766 1038 1828 
Q 1203 1872 1538 1913 
Q 2219 1994 2541 2106 
Q 2544 2222 2544 2253 
Q 2544 2597 2384 2738 
Q 2169 2928 1744 2928 
Q 1347 2928 1158 2789 
Q 969 2650 878 2297 
L 328 2372 
Q 403 2725 575 2942 
Q 747 3159 1072 3276 
Q 1397 3394 1825 3394 
Q 2250 3394 2515 3294 
Q 2781 3194 2906 3042 
Q 3031 2891 3081 2659 
Q 3109 2516 3109 2141 
L 3109 1391 
Q 3109 606 3145 398 
Q 3181 191 3288 0 
L 2700 0 
Q 2613 175 2588 409 
z
M 2541 1666 
Q 2234 1541 1622 1453 
Q 1275 1403 1131 1340 
Q 988 1278 909 1158 
Q 831 1038 831 891 
Q 831 666 1001 516 
Q 1172 366 1500 366 
Q 1825 366 2078 508 
Q 2331 650 2450 897 
Q 2541 1088 2541 1459 
L 2541 1666 
z
" transform="scale(0.015625)"/>
       <path id="ArialMT-6e" d="M 422 0 
L 422 3319 
L 928 3319 
L 928 2847 
Q 1294 3394 1984 3394 
Q 2284 3394 2536 3286 
Q 2788 3178 2913 3003 
Q 3038 2828 3088 2588 
Q 3119 2431 3119 2041 
L 3119 0 
L 2556 0 
L 2556 2019 
Q 2556 2363 2490 2533 
Q 2425 2703 2258 2804 
Q 2091 2906 1866 2906 
Q 1506 2906 1245 2678 
Q 984 2450 984 1813 
L 984 0 
L 422 0 
z
" transform="scale(0.015625)"/>
       <path id="ArialMT-6b" d="M 425 0 
L 425 4581 
L 988 4581 
L 988 1969 
L 2319 3319 
L 3047 3319 
L 1778 2088 
L 3175 0 
L 2481 0 
L 1384 1697 
L 988 1316 
L 988 0 
L 425 0 
z
" transform="scale(0.015625)"/>
       <path id="ArialMT-20" transform="scale(0.015625)"/>
       <path id="ArialMT-51" d="M 3966 491 
Q 4388 200 4744 66 
L 4566 -356 
Q 4072 -178 3581 206 
Q 3072 -78 2456 -78 
Q 1834 -78 1328 222 
Q 822 522 548 1065 
Q 275 1609 275 2291 
Q 275 2969 550 3525 
Q 825 4081 1333 4372 
Q 1841 4663 2469 4663 
Q 3103 4663 3612 4361 
Q 4122 4059 4389 3517 
Q 4656 2975 4656 2294 
Q 4656 1728 4484 1276 
Q 4313 825 3966 491 
z
M 2631 1266 
Q 3156 1119 3497 828 
Q 4031 1316 4031 2294 
Q 4031 2850 3842 3265 
Q 3653 3681 3289 3911 
Q 2925 4141 2472 4141 
Q 1794 4141 1347 3677 
Q 900 3213 900 2291 
Q 900 1397 1342 919 
Q 1784 441 2472 441 
Q 2797 441 3084 563 
Q 2800 747 2484 825 
L 2631 1266 
z
" transform="scale(0.015625)"/>
       <path id="ArialMT-75" d="M 2597 0 
L 2597 488 
Q 2209 -75 1544 -75 
Q 1250 -75 995 37 
Q 741 150 617 320 
Q 494 491 444 738 
Q 409 903 409 1263 
L 409 3319 
L 972 3319 
L 972 1478 
Q 972 1038 1006 884 
Q 1059 663 1231 536 
Q 1403 409 1656 409 
Q 1909 409 2131 539 
Q 2353 669 2445 892 
Q 2538 1116 2538 1541 
L 2538 3319 
L 3100 3319 
L 3100 0 
L 2597 0 
z
" transform="scale(0.015625)"/>
       <path id="ArialMT-69" d="M 425 3934 
L 425 4581 
L 988 4581 
L 988 3934 
L 425 3934 
z
M 425 0 
L 425 3319 
L 988 3319 
L 988 0 
L 425 0 
z
" transform="scale(0.015625)"/>
       <path id="ArialMT-6c" d="M 409 0 
L 409 4581 
L 972 4581 
L 972 0 
L 409 0 
z
" transform="scale(0.015625)"/>
       <path id="ArialMT-65" d="M 2694 1069 
L 3275 997 
Q 3138 488 2766 206 
Q 2394 -75 1816 -75 
Q 1088 -75 661 373 
Q 234 822 234 1631 
Q 234 2469 665 2931 
Q 1097 3394 1784 3394 
Q 2450 3394 2872 2941 
Q 3294 2488 3294 1666 
Q 3294 1616 3291 1516 
L 816 1516 
Q 847 969 1125 678 
Q 1403 388 1819 388 
Q 2128 388 2347 550 
Q 2566 713 2694 1069 
z
M 847 1978 
L 2700 1978 
Q 2663 2397 2488 2606 
Q 2219 2931 1791 2931 
Q 1403 2931 1139 2672 
Q 875 2413 847 1978 
z
" transform="scale(0.015625)"/>
      </defs>
      <use xlink:href="#ArialMT-52"/>
      <use xlink:href="#ArialMT-61" x="72.216797"/>
      <use xlink:href="#ArialMT-6e" x="127.832031"/>
      <use xlink:href="#ArialMT-6b" x="183.447266"/>
      <use xlink:href="#ArialMT-20" x="233.447266"/>
      <use xlink:href="#ArialMT-51" x="261.230469"/>
      <use xlink:href="#ArialMT-75" x="339.013672"/>
      <use xlink:href="#ArialMT-61" x="394.628906"/>
      <use xlink:href="#ArialMT-6e" x="450.244141"/>
      <use xlink:href="#ArialMT-74" x="505.859375"/>
      <use xlink:href="#ArialMT-69" x="533.642578"/>
      <use xlink:href="#ArialMT-6c" x="555.859375"/>
      <use xlink:href="#ArialMT-65" x="578.076172"/>
     </g>
    </g>
   </g>
   <g id="patch_3">
    <path d="M 75.083656 172.092822 
L 75.083656 12.210469 
" style="fill: none; stroke: #000000; stroke-width: 0.8; stroke-linejoin: miter; stroke-linecap: square"/>
   </g>
   <g id="patch_4">
    <path d="M 298.283656 172.092822 
L 298.283656 12.210469 
" style="fill: none"/>
   </g>
   <g id="patch_5">
    <path d="M 75.083656 172.092822 
L 298.283656 172.092822 
" style="fill: none; stroke: #000000; stroke-width: 0.8; stroke-linejoin: miter; stroke-linecap: square"/>
   </g>
   <g id="patch_6">
    <path d="M 75.083656 12.210469 
L 298.283656 12.210469 
" style="fill: none"/>
   </g>
  </g>
  <g id="axes_2">
   <g id="patch_7">
    <path d="M 75.083656 363.951645 
L 298.283656 363.951645 
L 298.283656 204.069292 
L 75.083656 204.069292 
z
" style="fill: #ffffff"/>
   </g>
   <g id="PathCollection_2">
    <g clip-path="url(#p16b152b41e)">
     <use xlink:href="#m4ff07eef54" x="65.517942" y="274.017822" style="fill: #1f77b4; fill-opacity: 0.5; stroke: #1f77b4; stroke-opacity: 0.5"/>
     <use xlink:href="#m4ff07eef54" x="68.307942" y="224.923512" style="fill: #1f77b4; fill-opacity: 0.5; stroke: #1f77b4; stroke-opacity: 0.5"/>
     <use xlink:href="#m4ff07eef54" x="69.503656" y="210.218614" style="fill: #1f77b4; fill-opacity: 0.5; stroke: #1f77b4; stroke-opacity: 0.5"/>
     <use xlink:href="#m4ff07eef54" x="69.503656" y="210.218614" style="fill: #1f77b4; fill-opacity: 0.5; stroke: #1f77b4; stroke-opacity: 0.5"/>
     <use xlink:href="#m4ff07eef54" x="69.503656" y="284.010469" style="fill: #1f77b4; fill-opacity: 0.5; stroke: #1f77b4; stroke-opacity: 0.5"/>
     <use xlink:href="#m4ff07eef54" x="71.097942" y="214.728116" style="fill: #1f77b4; fill-opacity: 0.5; stroke: #1f77b4; stroke-opacity: 0.5"/>
     <use xlink:href="#m4ff07eef54" x="79.069371" y="207.266939" style="fill: #1f77b4; fill-opacity: 0.5; stroke: #1f77b4; stroke-opacity: 0.5"/>
     <use xlink:href="#m4ff07eef54" x="80.663656" y="207.030077" style="fill: #1f77b4; fill-opacity: 0.5; stroke: #1f77b4; stroke-opacity: 0.5"/>
     <use xlink:href="#m4ff07eef54" x="81.460799" y="206.924334" style="fill: #1f77b4; fill-opacity: 0.5; stroke: #1f77b4; stroke-opacity: 0.5"/>
     <use xlink:href="#m4ff07eef54" x="81.859371" y="212.484153" style="fill: #1f77b4; fill-opacity: 0.5; stroke: #1f77b4; stroke-opacity: 0.5"/>
     <use xlink:href="#m4ff07eef54" x="86.642228" y="243.460597" style="fill: #1f77b4; fill-opacity: 0.5; stroke: #1f77b4; stroke-opacity: 0.5"/>
     <use xlink:href="#m4ff07eef54" x="90.627942" y="206.09312" style="fill: #1f77b4; fill-opacity: 0.5; stroke: #1f77b4; stroke-opacity: 0.5"/>
     <use xlink:href="#m4ff07eef54" x="94.215085" y="209.519827" style="fill: #1f77b4; fill-opacity: 0.5; stroke: #1f77b4; stroke-opacity: 0.5"/>
     <use xlink:href="#m4ff07eef54" x="95.012228" y="220.057528" style="fill: #1f77b4; fill-opacity: 0.5; stroke: #1f77b4; stroke-opacity: 0.5"/>
     <use xlink:href="#m4ff07eef54" x="104.976513" y="211.020699" style="fill: #1f77b4; fill-opacity: 0.5; stroke: #1f77b4; stroke-opacity: 0.5"/>
     <use xlink:href="#m4ff07eef54" x="108.165085" y="214.468145" style="fill: #1f77b4; fill-opacity: 0.5; stroke: #1f77b4; stroke-opacity: 0.5"/>
     <use xlink:href="#m4ff07eef54" x="110.157942" y="363.951645" style="fill: #1f77b4; fill-opacity: 0.5; stroke: #1f77b4; stroke-opacity: 0.5"/>
     <use xlink:href="#m4ff07eef54" x="112.150799" y="210.079907" style="fill: #1f77b4; fill-opacity: 0.5; stroke: #1f77b4; stroke-opacity: 0.5"/>
     <use xlink:href="#m4ff07eef54" x="114.542228" y="228.22418" style="fill: #1f77b4; fill-opacity: 0.5; stroke: #1f77b4; stroke-opacity: 0.5"/>
     <use xlink:href="#m4ff07eef54" x="114.940799" y="212.06341" style="fill: #1f77b4; fill-opacity: 0.5; stroke: #1f77b4; stroke-opacity: 0.5"/>
     <use xlink:href="#m4ff07eef54" x="118.527942" y="215.872687" style="fill: #1f77b4; fill-opacity: 0.5; stroke: #1f77b4; stroke-opacity: 0.5"/>
     <use xlink:href="#m4ff07eef54" x="121.716513" y="363.951645" style="fill: #1f77b4; fill-opacity: 0.5; stroke: #1f77b4; stroke-opacity: 0.5"/>
     <use xlink:href="#m4ff07eef54" x="125.702228" y="241.407087" style="fill: #1f77b4; fill-opacity: 0.5; stroke: #1f77b4; stroke-opacity: 0.5"/>
     <use xlink:href="#m4ff07eef54" x="128.890799" y="221.427948" style="fill: #1f77b4; fill-opacity: 0.5; stroke: #1f77b4; stroke-opacity: 0.5"/>
     <use xlink:href="#m4ff07eef54" x="129.289371" y="209.519827" style="fill: #1f77b4; fill-opacity: 0.5; stroke: #1f77b4; stroke-opacity: 0.5"/>
     <use xlink:href="#m4ff07eef54" x="131.680799" y="363.951645" style="fill: #1f77b4; fill-opacity: 0.5; stroke: #1f77b4; stroke-opacity: 0.5"/>
     <use xlink:href="#m4ff07eef54" x="131.680799" y="209.340139" style="fill: #1f77b4; fill-opacity: 0.5; stroke: #1f77b4; stroke-opacity: 0.5"/>
     <use xlink:href="#m4ff07eef54" x="137.659371" y="363.951645" style="fill: #1f77b4; fill-opacity: 0.5; stroke: #1f77b4; stroke-opacity: 0.5"/>
     <use xlink:href="#m4ff07eef54" x="137.659371" y="220.301003" style="fill: #1f77b4; fill-opacity: 0.5; stroke: #1f77b4; stroke-opacity: 0.5"/>
     <use xlink:href="#m4ff07eef54" x="138.456513" y="213.710439" style="fill: #1f77b4; fill-opacity: 0.5; stroke: #1f77b4; stroke-opacity: 0.5"/>
     <use xlink:href="#m4ff07eef54" x="140.449371" y="223.662718" style="fill: #1f77b4; fill-opacity: 0.5; stroke: #1f77b4; stroke-opacity: 0.5"/>
     <use xlink:href="#m4ff07eef54" x="140.449371" y="214.257874" style="fill: #1f77b4; fill-opacity: 0.5; stroke: #1f77b4; stroke-opacity: 0.5"/>
     <use xlink:href="#m4ff07eef54" x="144.435085" y="214.528885" style="fill: #1f77b4; fill-opacity: 0.5; stroke: #1f77b4; stroke-opacity: 0.5"/>
     <use xlink:href="#m4ff07eef54" x="145.630799" y="363.951645" style="fill: #1f77b4; fill-opacity: 0.5; stroke: #1f77b4; stroke-opacity: 0.5"/>
     <use xlink:href="#m4ff07eef54" x="147.225085" y="216.367935" style="fill: #1f77b4; fill-opacity: 0.5; stroke: #1f77b4; stroke-opacity: 0.5"/>
     <use xlink:href="#m4ff07eef54" x="148.022228" y="212.672827" style="fill: #1f77b4; fill-opacity: 0.5; stroke: #1f77b4; stroke-opacity: 0.5"/>
     <use xlink:href="#m4ff07eef54" x="150.015085" y="251.052264" style="fill: #1f77b4; fill-opacity: 0.5; stroke: #1f77b4; stroke-opacity: 0.5"/>
     <use xlink:href="#m4ff07eef54" x="152.007942" y="208.186434" style="fill: #1f77b4; fill-opacity: 0.5; stroke: #1f77b4; stroke-opacity: 0.5"/>
     <use xlink:href="#m4ff07eef54" x="152.406513" y="221.15074" style="fill: #1f77b4; fill-opacity: 0.5; stroke: #1f77b4; stroke-opacity: 0.5"/>
     <use xlink:href="#m4ff07eef54" x="155.993656" y="236.308944" style="fill: #1f77b4; fill-opacity: 0.5; stroke: #1f77b4; stroke-opacity: 0.5"/>
     <use xlink:href="#m4ff07eef54" x="157.986513" y="222.120526" style="fill: #1f77b4; fill-opacity: 0.5; stroke: #1f77b4; stroke-opacity: 0.5"/>
     <use xlink:href="#m4ff07eef54" x="158.783656" y="216.859881" style="fill: #1f77b4; fill-opacity: 0.5; stroke: #1f77b4; stroke-opacity: 0.5"/>
     <use xlink:href="#m4ff07eef54" x="159.580799" y="208.510469" style="fill: #1f77b4; fill-opacity: 0.5; stroke: #1f77b4; stroke-opacity: 0.5"/>
     <use xlink:href="#m4ff07eef54" x="161.175085" y="207.816535" style="fill: #1f77b4; fill-opacity: 0.5; stroke: #1f77b4; stroke-opacity: 0.5"/>
     <use xlink:href="#m4ff07eef54" x="164.363656" y="226.477046" style="fill: #1f77b4; fill-opacity: 0.5; stroke: #1f77b4; stroke-opacity: 0.5"/>
     <use xlink:href="#m4ff07eef54" x="165.559371" y="222.033602" style="fill: #1f77b4; fill-opacity: 0.5; stroke: #1f77b4; stroke-opacity: 0.5"/>
     <use xlink:href="#m4ff07eef54" x="166.356513" y="212.984665" style="fill: #1f77b4; fill-opacity: 0.5; stroke: #1f77b4; stroke-opacity: 0.5"/>
     <use xlink:href="#m4ff07eef54" x="167.552228" y="217.588756" style="fill: #1f77b4; fill-opacity: 0.5; stroke: #1f77b4; stroke-opacity: 0.5"/>
     <use xlink:href="#m4ff07eef54" x="170.342228" y="207.507622" style="fill: #1f77b4; fill-opacity: 0.5; stroke: #1f77b4; stroke-opacity: 0.5"/>
     <use xlink:href="#m4ff07eef54" x="171.139371" y="208.052127" style="fill: #1f77b4; fill-opacity: 0.5; stroke: #1f77b4; stroke-opacity: 0.5"/>
     <use xlink:href="#m4ff07eef54" x="171.139371" y="217.724725" style="fill: #1f77b4; fill-opacity: 0.5; stroke: #1f77b4; stroke-opacity: 0.5"/>
     <use xlink:href="#m4ff07eef54" x="172.335085" y="229.402764" style="fill: #1f77b4; fill-opacity: 0.5; stroke: #1f77b4; stroke-opacity: 0.5"/>
     <use xlink:href="#m4ff07eef54" x="173.132228" y="219.72211" style="fill: #1f77b4; fill-opacity: 0.5; stroke: #1f77b4; stroke-opacity: 0.5"/>
     <use xlink:href="#m4ff07eef54" x="177.915085" y="213.726616" style="fill: #1f77b4; fill-opacity: 0.5; stroke: #1f77b4; stroke-opacity: 0.5"/>
     <use xlink:href="#m4ff07eef54" x="178.712228" y="221.656351" style="fill: #1f77b4; fill-opacity: 0.5; stroke: #1f77b4; stroke-opacity: 0.5"/>
     <use xlink:href="#m4ff07eef54" x="179.509371" y="208.833998" style="fill: #1f77b4; fill-opacity: 0.5; stroke: #1f77b4; stroke-opacity: 0.5"/>
     <use xlink:href="#m4ff07eef54" x="180.306513" y="206.698936" style="fill: #1f77b4; fill-opacity: 0.5; stroke: #1f77b4; stroke-opacity: 0.5"/>
     <use xlink:href="#m4ff07eef54" x="183.096513" y="218.463845" style="fill: #1f77b4; fill-opacity: 0.5; stroke: #1f77b4; stroke-opacity: 0.5"/>
     <use xlink:href="#m4ff07eef54" x="184.292228" y="212.216164" style="fill: #1f77b4; fill-opacity: 0.5; stroke: #1f77b4; stroke-opacity: 0.5"/>
     <use xlink:href="#m4ff07eef54" x="185.487942" y="210.625982" style="fill: #1f77b4; fill-opacity: 0.5; stroke: #1f77b4; stroke-opacity: 0.5"/>
     <use xlink:href="#m4ff07eef54" x="187.082228" y="211.54043" style="fill: #1f77b4; fill-opacity: 0.5; stroke: #1f77b4; stroke-opacity: 0.5"/>
     <use xlink:href="#m4ff07eef54" x="187.480799" y="206.055408" style="fill: #1f77b4; fill-opacity: 0.5; stroke: #1f77b4; stroke-opacity: 0.5"/>
     <use xlink:href="#m4ff07eef54" x="189.473656" y="211.403345" style="fill: #1f77b4; fill-opacity: 0.5; stroke: #1f77b4; stroke-opacity: 0.5"/>
     <use xlink:href="#m4ff07eef54" x="192.263656" y="211.728327" style="fill: #1f77b4; fill-opacity: 0.5; stroke: #1f77b4; stroke-opacity: 0.5"/>
     <use xlink:href="#m4ff07eef54" x="192.662228" y="212.659986" style="fill: #1f77b4; fill-opacity: 0.5; stroke: #1f77b4; stroke-opacity: 0.5"/>
     <use xlink:href="#m4ff07eef54" x="192.662228" y="219.341636" style="fill: #1f77b4; fill-opacity: 0.5; stroke: #1f77b4; stroke-opacity: 0.5"/>
     <use xlink:href="#m4ff07eef54" x="193.857942" y="204.542317" style="fill: #1f77b4; fill-opacity: 0.5; stroke: #1f77b4; stroke-opacity: 0.5"/>
     <use xlink:href="#m4ff07eef54" x="195.053656" y="212.977693" style="fill: #1f77b4; fill-opacity: 0.5; stroke: #1f77b4; stroke-opacity: 0.5"/>
     <use xlink:href="#m4ff07eef54" x="195.452228" y="208.276723" style="fill: #1f77b4; fill-opacity: 0.5; stroke: #1f77b4; stroke-opacity: 0.5"/>
     <use xlink:href="#m4ff07eef54" x="196.249371" y="214.759101" style="fill: #1f77b4; fill-opacity: 0.5; stroke: #1f77b4; stroke-opacity: 0.5"/>
     <use xlink:href="#m4ff07eef54" x="199.836513" y="214.486556" style="fill: #1f77b4; fill-opacity: 0.5; stroke: #1f77b4; stroke-opacity: 0.5"/>
     <use xlink:href="#m4ff07eef54" x="200.235085" y="211.747258" style="fill: #1f77b4; fill-opacity: 0.5; stroke: #1f77b4; stroke-opacity: 0.5"/>
     <use xlink:href="#m4ff07eef54" x="201.032228" y="209.009477" style="fill: #1f77b4; fill-opacity: 0.5; stroke: #1f77b4; stroke-opacity: 0.5"/>
     <use xlink:href="#m4ff07eef54" x="201.032228" y="208.56037" style="fill: #1f77b4; fill-opacity: 0.5; stroke: #1f77b4; stroke-opacity: 0.5"/>
     <use xlink:href="#m4ff07eef54" x="203.822228" y="207.152423" style="fill: #1f77b4; fill-opacity: 0.5; stroke: #1f77b4; stroke-opacity: 0.5"/>
     <use xlink:href="#m4ff07eef54" x="204.220799" y="216.367935" style="fill: #1f77b4; fill-opacity: 0.5; stroke: #1f77b4; stroke-opacity: 0.5"/>
     <use xlink:href="#m4ff07eef54" x="205.017942" y="213.679707" style="fill: #1f77b4; fill-opacity: 0.5; stroke: #1f77b4; stroke-opacity: 0.5"/>
     <use xlink:href="#m4ff07eef54" x="209.003656" y="208.746702" style="fill: #1f77b4; fill-opacity: 0.5; stroke: #1f77b4; stroke-opacity: 0.5"/>
     <use xlink:href="#m4ff07eef54" x="209.003656" y="207.896263" style="fill: #1f77b4; fill-opacity: 0.5; stroke: #1f77b4; stroke-opacity: 0.5"/>
     <use xlink:href="#m4ff07eef54" x="212.192228" y="213.645579" style="fill: #1f77b4; fill-opacity: 0.5; stroke: #1f77b4; stroke-opacity: 0.5"/>
     <use xlink:href="#m4ff07eef54" x="213.387942" y="209.85315" style="fill: #1f77b4; fill-opacity: 0.5; stroke: #1f77b4; stroke-opacity: 0.5"/>
     <use xlink:href="#m4ff07eef54" x="213.387942" y="204.482425" style="fill: #1f77b4; fill-opacity: 0.5; stroke: #1f77b4; stroke-opacity: 0.5"/>
     <use xlink:href="#m4ff07eef54" x="213.786513" y="208.189971" style="fill: #1f77b4; fill-opacity: 0.5; stroke: #1f77b4; stroke-opacity: 0.5"/>
     <use xlink:href="#m4ff07eef54" x="217.772228" y="205.274436" style="fill: #1f77b4; fill-opacity: 0.5; stroke: #1f77b4; stroke-opacity: 0.5"/>
     <use xlink:href="#m4ff07eef54" x="220.163656" y="209.60977" style="fill: #1f77b4; fill-opacity: 0.5; stroke: #1f77b4; stroke-opacity: 0.5"/>
     <use xlink:href="#m4ff07eef54" x="221.359371" y="207.604774" style="fill: #1f77b4; fill-opacity: 0.5; stroke: #1f77b4; stroke-opacity: 0.5"/>
     <use xlink:href="#m4ff07eef54" x="221.757942" y="207.987977" style="fill: #1f77b4; fill-opacity: 0.5; stroke: #1f77b4; stroke-opacity: 0.5"/>
     <use xlink:href="#m4ff07eef54" x="224.149371" y="209.862131" style="fill: #1f77b4; fill-opacity: 0.5; stroke: #1f77b4; stroke-opacity: 0.5"/>
     <use xlink:href="#m4ff07eef54" x="226.142228" y="210.556166" style="fill: #1f77b4; fill-opacity: 0.5; stroke: #1f77b4; stroke-opacity: 0.5"/>
     <use xlink:href="#m4ff07eef54" x="230.127942" y="207.796154" style="fill: #1f77b4; fill-opacity: 0.5; stroke: #1f77b4; stroke-opacity: 0.5"/>
     <use xlink:href="#m4ff07eef54" x="233.316513" y="206.630337" style="fill: #1f77b4; fill-opacity: 0.5; stroke: #1f77b4; stroke-opacity: 0.5"/>
     <use xlink:href="#m4ff07eef54" x="234.910799" y="212.407828" style="fill: #1f77b4; fill-opacity: 0.5; stroke: #1f77b4; stroke-opacity: 0.5"/>
     <use xlink:href="#m4ff07eef54" x="235.309371" y="217.453109" style="fill: #1f77b4; fill-opacity: 0.5; stroke: #1f77b4; stroke-opacity: 0.5"/>
     <use xlink:href="#m4ff07eef54" x="246.867942" y="208.821634" style="fill: #1f77b4; fill-opacity: 0.5; stroke: #1f77b4; stroke-opacity: 0.5"/>
     <use xlink:href="#m4ff07eef54" x="247.266513" y="211.521436" style="fill: #1f77b4; fill-opacity: 0.5; stroke: #1f77b4; stroke-opacity: 0.5"/>
    </g>
   </g>
   <g id="PolyCollection_2">
    <defs>
     <path id="m53d3774d14" d="M 68.467371 -290.317882 
L 68.467371 -433.048381 
L 69.583371 -436.404216 
L 71.735656 -442.941735 
L 73.967656 -444.365976 
L 76.359085 -445.798735 
L 78.830228 -400.008051 
L 81.939085 -418.612618 
L 84.250799 -419.165711 
L 86.961085 -418.104813 
L 89.671371 -413.972243 
L 94.294799 -414.577378 
L 98.599371 -400.74737 
L 102.505371 -493.131116 
L 106.092513 -492.877273 
L 109.998513 -489.987153 
L 111.991371 -489.511265 
L 114.063942 -488.905237 
L 116.375656 -488.905237 
L 119.085942 -476.983582 
L 121.955656 -479.769704 
L 124.825371 -481.066671 
L 127.455942 -477.174723 
L 129.448799 -484.240219 
L 131.840228 -493.902458 
L 133.593942 -494.486739 
L 135.427371 -492.066034 
L 137.181085 -488.297827 
L 138.934799 -486.009421 
L 140.289942 -393.974283 
L 141.884228 -488.445217 
L 143.637942 -487.283604 
L 145.152513 -491.743011 
L 147.065656 -480.083536 
L 148.580228 -483.284032 
L 149.935371 -414.44873 
L 151.689085 -411.874026 
L 153.681942 -407.372519 
L 155.435656 -401.854795 
L 156.950228 -401.588901 
L 158.703942 -407.419875 
L 160.377942 -402.447709 
L 161.892513 -402.434782 
L 163.407085 -403.451167 
L 165.001371 -399.651695 
L 166.834799 -399.916053 
L 168.189942 -401.18972 
L 169.305942 -399.477064 
L 170.501656 -404.20565 
L 171.617656 -404.06123 
L 173.132228 -400.443817 
L 174.646799 -393.523389 
L 176.320799 -399.389748 
L 177.915085 -401.323358 
L 179.907942 -401.076117 
L 181.183371 -401.468278 
L 182.538513 -399.928605 
L 184.053085 -398.936386 
L 185.487942 -399.470123 
L 186.763371 -396.94517 
L 188.357656 -396.877167 
L 189.792513 -396.943639 
L 190.908513 -399.600569 
L 192.183942 -400.9311 
L 193.299942 -400.630901 
L 193.937656 -401.927878 
L 194.655085 -401.868213 
L 196.089942 -400.258398 
L 197.365371 -395.171515 
L 198.561085 -396.711212 
L 199.677085 -396.498225 
L 201.191656 -398.014517 
L 202.068513 -399.084236 
L 203.025085 -399.198155 
L 204.619371 -399.319534 
L 206.213656 -399.669597 
L 207.887656 -397.50551 
L 209.721085 -397.067297 
L 211.395085 -400.067244 
L 212.351656 -400.212156 
L 214.105371 -401.46959 
L 215.699656 -399.830933 
L 217.293942 -399.559883 
L 218.967942 -397.767151 
L 221.040513 -397.983776 
L 222.714513 -395.772617 
L 224.707371 -396.301433 
L 227.098799 -397.00597 
L 229.729371 -397.474175 
L 231.961371 -399.946474 
L 236.106513 -400.514849 
L 239.534228 -399.183255 
L 239.534228 -382.804883 
L 239.534228 -382.804883 
L 236.106513 -382.963401 
L 231.961371 -382.837964 
L 229.729371 -388.346654 
L 227.098799 -390.582799 
L 224.707371 -390.897561 
L 222.714513 -390.70093 
L 221.040513 -390.602463 
L 218.967942 -391.487953 
L 217.293942 -391.097441 
L 215.699656 -389.927041 
L 214.105371 -386.674061 
L 212.351656 -386.882763 
L 211.395085 -386.804983 
L 209.721085 -386.126018 
L 207.887656 -383.081891 
L 206.213656 -383.515066 
L 204.619371 -383.599487 
L 203.025085 -383.615756 
L 202.068513 -384.502654 
L 201.191656 -386.324924 
L 199.677085 -384.798545 
L 198.561085 -384.699017 
L 197.365371 -384.651428 
L 196.089942 -382.446522 
L 194.655085 -378.894674 
L 193.937656 -379.674655 
L 193.299942 -379.590991 
L 192.183942 -379.920531 
L 190.908513 -380.645825 
L 189.792513 -386.423237 
L 188.357656 -387.30331 
L 186.763371 -387.040173 
L 185.487942 -381.69102 
L 184.053085 -381.967346 
L 182.538513 -382.0577 
L 181.183371 -376.105879 
L 179.907942 -375.893859 
L 177.915085 -375.143313 
L 176.320799 -367.995391 
L 174.646799 -370.30546 
L 173.132228 -368.826722 
L 171.617656 -367.696906 
L 170.501656 -368.405827 
L 169.305942 -379.701653 
L 168.189942 -376.265447 
L 166.834799 -370.169145 
L 165.001371 -370.309938 
L 163.407085 -370.141781 
L 161.892513 -369.60808 
L 160.377942 -369.560383 
L 158.703942 -360.655458 
L 156.950228 -361.152751 
L 155.435656 -361.01647 
L 153.681942 -341.821793 
L 151.689085 -341.099365 
L 149.935371 -346.501065 
L 148.580228 -220.545401 
L 147.065656 -221.208916 
L 145.152513 -224.267198 
L 143.637942 -224.330648 
L 141.884228 -224.232033 
L 140.289942 -376.163224 
L 138.934799 -224.358982 
L 137.181085 -224.03767 
L 135.427371 -164.153893 
L 133.593942 -163.409432 
L 131.840228 -163.542935 
L 129.448799 -222.222997 
L 127.455942 -167.443891 
L 124.825371 -222.783526 
L 121.955656 -223.06306 
L 119.085942 -223.130689 
L 116.375656 -223.739906 
L 114.063942 -223.739906 
L 111.991371 -223.695695 
L 109.998513 -223.636891 
L 106.092513 -224.013433 
L 102.505371 -223.983622 
L 98.599371 -379.510778 
L 94.294799 -354.083789 
L 89.671371 -354.103543 
L 86.961085 -355.224249 
L 84.250799 -355.159252 
L 81.939085 -355.242817 
L 78.830228 -385.340376 
L 76.359085 -310.939166 
L 73.967656 -311.054214 
L 71.735656 -311.20304 
L 69.583371 -310.677929 
L 68.467371 -290.317882 
z
" style="stroke: #1f77b4; stroke-opacity: 0.1"/>
    </defs>
    <g clip-path="url(#p16b152b41e)">
     <use xlink:href="#m53d3774d14" x="0" y="602.360937" style="fill: #1f77b4; fill-opacity: 0.1; stroke: #1f77b4; stroke-opacity: 0.1"/>
    </g>
   </g>
   <g id="matplotlib.axis_3">
    <g id="xtick_4">
     <g id="line2d_10">
      <g>
       <use xlink:href="#m64561c96cc" x="138.855085" y="363.951645" style="stroke: #000000; stroke-width: 0.8"/>
      </g>
     </g>
     <g id="text_11">
      <!-- 200 -->
      <g transform="translate(127.177116 380.972583)scale(0.14 -0.14)">
       <use xlink:href="#ArialMT-32"/>
       <use xlink:href="#ArialMT-30" x="55.615234"/>
       <use xlink:href="#ArialMT-30" x="111.230469"/>
      </g>
     </g>
    </g>
    <g id="xtick_5">
     <g id="line2d_11">
      <g>
       <use xlink:href="#m64561c96cc" x="218.569371" y="363.951645" style="stroke: #000000; stroke-width: 0.8"/>
      </g>
     </g>
     <g id="text_12">
      <!-- 400 -->
      <g transform="translate(206.891402 380.972583)scale(0.14 -0.14)">
       <use xlink:href="#ArialMT-34"/>
       <use xlink:href="#ArialMT-30" x="55.615234"/>
       <use xlink:href="#ArialMT-30" x="111.230469"/>
      </g>
     </g>
    </g>
    <g id="xtick_6">
     <g id="line2d_12">
      <g>
       <use xlink:href="#m64561c96cc" x="298.283656" y="363.951645" style="stroke: #000000; stroke-width: 0.8"/>
      </g>
     </g>
     <g id="text_13">
      <!-- 600 -->
      <g transform="translate(286.605687 380.972583)scale(0.14 -0.14)">
       <use xlink:href="#ArialMT-36"/>
       <use xlink:href="#ArialMT-30" x="55.615234"/>
       <use xlink:href="#ArialMT-30" x="111.230469"/>
      </g>
     </g>
    </g>
   </g>
   <g id="matplotlib.axis_4">
    <g id="ytick_7">
     <g id="line2d_13">
      <g>
       <use xlink:href="#m4a493c0ff1" x="75.083656" y="204.069292" style="stroke: #000000; stroke-width: 0.8"/>
      </g>
     </g>
     <g id="text_14">
      <!-- 0 -->
      <g transform="translate(60.298344 209.079761)scale(0.14 -0.14)">
       <use xlink:href="#ArialMT-30"/>
      </g>
     </g>
    </g>
    <g id="ytick_8">
     <g id="line2d_14">
      <g>
       <use xlink:href="#m4a493c0ff1" x="75.083656" y="236.045763" style="stroke: #000000; stroke-width: 0.8"/>
      </g>
     </g>
     <g id="text_15">
      <!-- 20 -->
      <g transform="translate(52.513031 241.056232)scale(0.14 -0.14)">
       <use xlink:href="#ArialMT-32"/>
       <use xlink:href="#ArialMT-30" x="55.615234"/>
      </g>
     </g>
    </g>
    <g id="ytick_9">
     <g id="line2d_15">
      <g>
       <use xlink:href="#m4a493c0ff1" x="75.083656" y="268.022233" style="stroke: #000000; stroke-width: 0.8"/>
      </g>
     </g>
     <g id="text_16">
      <!-- 40 -->
      <g transform="translate(52.513031 273.032702)scale(0.14 -0.14)">
       <use xlink:href="#ArialMT-34"/>
       <use xlink:href="#ArialMT-30" x="55.615234"/>
      </g>
     </g>
    </g>
    <g id="ytick_10">
     <g id="line2d_16">
      <g>
       <use xlink:href="#m4a493c0ff1" x="75.083656" y="299.998704" style="stroke: #000000; stroke-width: 0.8"/>
      </g>
     </g>
     <g id="text_17">
      <!-- 60 -->
      <g transform="translate(52.513031 305.009173)scale(0.14 -0.14)">
       <use xlink:href="#ArialMT-36"/>
       <use xlink:href="#ArialMT-30" x="55.615234"/>
      </g>
     </g>
    </g>
    <g id="ytick_11">
     <g id="line2d_17">
      <g>
       <use xlink:href="#m4a493c0ff1" x="75.083656" y="331.975175" style="stroke: #000000; stroke-width: 0.8"/>
      </g>
     </g>
     <g id="text_18">
      <!-- 80 -->
      <g transform="translate(52.513031 336.985643)scale(0.14 -0.14)">
       <use xlink:href="#ArialMT-38"/>
       <use xlink:href="#ArialMT-30" x="55.615234"/>
      </g>
     </g>
    </g>
    <g id="ytick_12">
     <g id="line2d_18">
      <g>
       <use xlink:href="#m4a493c0ff1" x="75.083656" y="363.951645" style="stroke: #000000; stroke-width: 0.8"/>
      </g>
     </g>
     <g id="text_19">
      <!-- 100 -->
      <g transform="translate(44.727719 368.962114)scale(0.14 -0.14)">
       <use xlink:href="#ArialMT-31"/>
       <use xlink:href="#ArialMT-30" x="55.615234"/>
       <use xlink:href="#ArialMT-30" x="111.230469"/>
      </g>
     </g>
    </g>
    <g id="text_20">
     <!-- Pax6 -->
     <g transform="translate(19.368281 303.383828)rotate(-90)scale(0.17 -0.17)">
      <defs>
       <path id="ArialMT-50" d="M 494 0 
L 494 4581 
L 2222 4581 
Q 2678 4581 2919 4538 
Q 3256 4481 3484 4323 
Q 3713 4166 3852 3881 
Q 3991 3597 3991 3256 
Q 3991 2672 3619 2267 
Q 3247 1863 2275 1863 
L 1100 1863 
L 1100 0 
L 494 0 
z
M 1100 2403 
L 2284 2403 
Q 2872 2403 3119 2622 
Q 3366 2841 3366 3238 
Q 3366 3525 3220 3729 
Q 3075 3934 2838 4000 
Q 2684 4041 2272 4041 
L 1100 4041 
L 1100 2403 
z
" transform="scale(0.015625)"/>
      </defs>
      <use xlink:href="#ArialMT-50"/>
      <use xlink:href="#ArialMT-61" x="66.699219"/>
      <use xlink:href="#ArialMT-78" x="122.314453"/>
      <use xlink:href="#ArialMT-36" x="172.314453"/>
     </g>
     <!-- Rank Quantile -->
     <g transform="translate(37.348969 337.87125)rotate(-90)scale(0.17 -0.17)">
      <use xlink:href="#ArialMT-52"/>
      <use xlink:href="#ArialMT-61" x="72.216797"/>
      <use xlink:href="#ArialMT-6e" x="127.832031"/>
      <use xlink:href="#ArialMT-6b" x="183.447266"/>
      <use xlink:href="#ArialMT-20" x="233.447266"/>
      <use xlink:href="#ArialMT-51" x="261.230469"/>
      <use xlink:href="#ArialMT-75" x="339.013672"/>
      <use xlink:href="#ArialMT-61" x="394.628906"/>
      <use xlink:href="#ArialMT-6e" x="450.244141"/>
      <use xlink:href="#ArialMT-74" x="505.859375"/>
      <use xlink:href="#ArialMT-69" x="533.642578"/>
      <use xlink:href="#ArialMT-6c" x="555.859375"/>
      <use xlink:href="#ArialMT-65" x="578.076172"/>
     </g>
    </g>
   </g>
   <g id="patch_8">
    <path d="M 75.083656 363.951645 
L 75.083656 204.069292 
" style="fill: none; stroke: #000000; stroke-width: 0.8; stroke-linejoin: miter; stroke-linecap: square"/>
   </g>
   <g id="patch_9">
    <path d="M 298.283656 363.951645 
L 298.283656 204.069292 
" style="fill: none"/>
   </g>
   <g id="patch_10">
    <path d="M 75.083656 363.951645 
L 298.283656 363.951645 
" style="fill: none; stroke: #000000; stroke-width: 0.8; stroke-linejoin: miter; stroke-linecap: square"/>
   </g>
   <g id="patch_11">
    <path d="M 75.083656 204.069292 
L 298.283656 204.069292 
" style="fill: none"/>
   </g>
  </g>
  <g id="axes_3">
   <g id="patch_12">
    <path d="M 75.083656 555.810469 
L 298.283656 555.810469 
L 298.283656 395.928116 
L 75.083656 395.928116 
z
" style="fill: #ffffff"/>
   </g>
   <g id="PathCollection_3">
    <g clip-path="url(#p856d907220)">
     <use xlink:href="#m4ff07eef54" x="65.517942" y="435.898704" style="fill: #1f77b4; fill-opacity: 0.5; stroke: #1f77b4; stroke-opacity: 0.5"/>
     <use xlink:href="#m4ff07eef54" x="68.307942" y="555.810469" style="fill: #1f77b4; fill-opacity: 0.5; stroke: #1f77b4; stroke-opacity: 0.5"/>
     <use xlink:href="#m4ff07eef54" x="69.503656" y="555.810469" style="fill: #1f77b4; fill-opacity: 0.5; stroke: #1f77b4; stroke-opacity: 0.5"/>
     <use xlink:href="#m4ff07eef54" x="69.503656" y="555.810469" style="fill: #1f77b4; fill-opacity: 0.5; stroke: #1f77b4; stroke-opacity: 0.5"/>
     <use xlink:href="#m4ff07eef54" x="69.503656" y="420.525401" style="fill: #1f77b4; fill-opacity: 0.5; stroke: #1f77b4; stroke-opacity: 0.5"/>
     <use xlink:href="#m4ff07eef54" x="71.097942" y="555.810469" style="fill: #1f77b4; fill-opacity: 0.5; stroke: #1f77b4; stroke-opacity: 0.5"/>
     <use xlink:href="#m4ff07eef54" x="79.069371" y="555.810469" style="fill: #1f77b4; fill-opacity: 0.5; stroke: #1f77b4; stroke-opacity: 0.5"/>
     <use xlink:href="#m4ff07eef54" x="80.663656" y="555.810469" style="fill: #1f77b4; fill-opacity: 0.5; stroke: #1f77b4; stroke-opacity: 0.5"/>
     <use xlink:href="#m4ff07eef54" x="81.460799" y="555.810469" style="fill: #1f77b4; fill-opacity: 0.5; stroke: #1f77b4; stroke-opacity: 0.5"/>
     <use xlink:href="#m4ff07eef54" x="81.859371" y="407.14793" style="fill: #1f77b4; fill-opacity: 0.5; stroke: #1f77b4; stroke-opacity: 0.5"/>
     <use xlink:href="#m4ff07eef54" x="86.642228" y="405.196658" style="fill: #1f77b4; fill-opacity: 0.5; stroke: #1f77b4; stroke-opacity: 0.5"/>
     <use xlink:href="#m4ff07eef54" x="90.627942" y="422.23787" style="fill: #1f77b4; fill-opacity: 0.5; stroke: #1f77b4; stroke-opacity: 0.5"/>
     <use xlink:href="#m4ff07eef54" x="94.215085" y="421.363945" style="fill: #1f77b4; fill-opacity: 0.5; stroke: #1f77b4; stroke-opacity: 0.5"/>
     <use xlink:href="#m4ff07eef54" x="95.012228" y="397.704586" style="fill: #1f77b4; fill-opacity: 0.5; stroke: #1f77b4; stroke-opacity: 0.5"/>
     <use xlink:href="#m4ff07eef54" x="104.976513" y="401.489241" style="fill: #1f77b4; fill-opacity: 0.5; stroke: #1f77b4; stroke-opacity: 0.5"/>
     <use xlink:href="#m4ff07eef54" x="108.165085" y="399.827685" style="fill: #1f77b4; fill-opacity: 0.5; stroke: #1f77b4; stroke-opacity: 0.5"/>
     <use xlink:href="#m4ff07eef54" x="110.157942" y="455.883998" style="fill: #1f77b4; fill-opacity: 0.5; stroke: #1f77b4; stroke-opacity: 0.5"/>
     <use xlink:href="#m4ff07eef54" x="112.150799" y="555.810469" style="fill: #1f77b4; fill-opacity: 0.5; stroke: #1f77b4; stroke-opacity: 0.5"/>
     <use xlink:href="#m4ff07eef54" x="114.542228" y="423.533702" style="fill: #1f77b4; fill-opacity: 0.5; stroke: #1f77b4; stroke-opacity: 0.5"/>
     <use xlink:href="#m4ff07eef54" x="114.940799" y="399.354166" style="fill: #1f77b4; fill-opacity: 0.5; stroke: #1f77b4; stroke-opacity: 0.5"/>
     <use xlink:href="#m4ff07eef54" x="118.527942" y="555.810469" style="fill: #1f77b4; fill-opacity: 0.5; stroke: #1f77b4; stroke-opacity: 0.5"/>
     <use xlink:href="#m4ff07eef54" x="121.716513" y="458.048011" style="fill: #1f77b4; fill-opacity: 0.5; stroke: #1f77b4; stroke-opacity: 0.5"/>
     <use xlink:href="#m4ff07eef54" x="125.702228" y="401.672392" style="fill: #1f77b4; fill-opacity: 0.5; stroke: #1f77b4; stroke-opacity: 0.5"/>
     <use xlink:href="#m4ff07eef54" x="128.890799" y="408.718704" style="fill: #1f77b4; fill-opacity: 0.5; stroke: #1f77b4; stroke-opacity: 0.5"/>
     <use xlink:href="#m4ff07eef54" x="129.289371" y="457.700843" style="fill: #1f77b4; fill-opacity: 0.5; stroke: #1f77b4; stroke-opacity: 0.5"/>
     <use xlink:href="#m4ff07eef54" x="131.680799" y="452.150482" style="fill: #1f77b4; fill-opacity: 0.5; stroke: #1f77b4; stroke-opacity: 0.5"/>
     <use xlink:href="#m4ff07eef54" x="131.680799" y="407.348284" style="fill: #1f77b4; fill-opacity: 0.5; stroke: #1f77b4; stroke-opacity: 0.5"/>
     <use xlink:href="#m4ff07eef54" x="137.659371" y="410.536656" style="fill: #1f77b4; fill-opacity: 0.5; stroke: #1f77b4; stroke-opacity: 0.5"/>
     <use xlink:href="#m4ff07eef54" x="137.659371" y="396.739701" style="fill: #1f77b4; fill-opacity: 0.5; stroke: #1f77b4; stroke-opacity: 0.5"/>
     <use xlink:href="#m4ff07eef54" x="138.456513" y="400.748689" style="fill: #1f77b4; fill-opacity: 0.5; stroke: #1f77b4; stroke-opacity: 0.5"/>
     <use xlink:href="#m4ff07eef54" x="140.449371" y="417.872752" style="fill: #1f77b4; fill-opacity: 0.5; stroke: #1f77b4; stroke-opacity: 0.5"/>
     <use xlink:href="#m4ff07eef54" x="140.449371" y="422.575175" style="fill: #1f77b4; fill-opacity: 0.5; stroke: #1f77b4; stroke-opacity: 0.5"/>
     <use xlink:href="#m4ff07eef54" x="144.435085" y="404.893481" style="fill: #1f77b4; fill-opacity: 0.5; stroke: #1f77b4; stroke-opacity: 0.5"/>
     <use xlink:href="#m4ff07eef54" x="145.630799" y="409.927032" style="fill: #1f77b4; fill-opacity: 0.5; stroke: #1f77b4; stroke-opacity: 0.5"/>
     <use xlink:href="#m4ff07eef54" x="147.225085" y="403.162611" style="fill: #1f77b4; fill-opacity: 0.5; stroke: #1f77b4; stroke-opacity: 0.5"/>
     <use xlink:href="#m4ff07eef54" x="148.022228" y="403.814689" style="fill: #1f77b4; fill-opacity: 0.5; stroke: #1f77b4; stroke-opacity: 0.5"/>
     <use xlink:href="#m4ff07eef54" x="150.015085" y="423.977651" style="fill: #1f77b4; fill-opacity: 0.5; stroke: #1f77b4; stroke-opacity: 0.5"/>
     <use xlink:href="#m4ff07eef54" x="152.007942" y="425.434301" style="fill: #1f77b4; fill-opacity: 0.5; stroke: #1f77b4; stroke-opacity: 0.5"/>
     <use xlink:href="#m4ff07eef54" x="152.406513" y="404.810469" style="fill: #1f77b4; fill-opacity: 0.5; stroke: #1f77b4; stroke-opacity: 0.5"/>
     <use xlink:href="#m4ff07eef54" x="155.993656" y="397.901972" style="fill: #1f77b4; fill-opacity: 0.5; stroke: #1f77b4; stroke-opacity: 0.5"/>
     <use xlink:href="#m4ff07eef54" x="157.986513" y="415.91341" style="fill: #1f77b4; fill-opacity: 0.5; stroke: #1f77b4; stroke-opacity: 0.5"/>
     <use xlink:href="#m4ff07eef54" x="158.783656" y="404.881528" style="fill: #1f77b4; fill-opacity: 0.5; stroke: #1f77b4; stroke-opacity: 0.5"/>
     <use xlink:href="#m4ff07eef54" x="159.580799" y="411.155007" style="fill: #1f77b4; fill-opacity: 0.5; stroke: #1f77b4; stroke-opacity: 0.5"/>
     <use xlink:href="#m4ff07eef54" x="161.175085" y="408.418925" style="fill: #1f77b4; fill-opacity: 0.5; stroke: #1f77b4; stroke-opacity: 0.5"/>
     <use xlink:href="#m4ff07eef54" x="164.363656" y="396.533731" style="fill: #1f77b4; fill-opacity: 0.5; stroke: #1f77b4; stroke-opacity: 0.5"/>
     <use xlink:href="#m4ff07eef54" x="165.559371" y="404.31146" style="fill: #1f77b4; fill-opacity: 0.5; stroke: #1f77b4; stroke-opacity: 0.5"/>
     <use xlink:href="#m4ff07eef54" x="166.356513" y="406.626563" style="fill: #1f77b4; fill-opacity: 0.5; stroke: #1f77b4; stroke-opacity: 0.5"/>
     <use xlink:href="#m4ff07eef54" x="167.552228" y="408.271974" style="fill: #1f77b4; fill-opacity: 0.5; stroke: #1f77b4; stroke-opacity: 0.5"/>
     <use xlink:href="#m4ff07eef54" x="170.342228" y="398.793391" style="fill: #1f77b4; fill-opacity: 0.5; stroke: #1f77b4; stroke-opacity: 0.5"/>
     <use xlink:href="#m4ff07eef54" x="171.139371" y="399.341974" style="fill: #1f77b4; fill-opacity: 0.5; stroke: #1f77b4; stroke-opacity: 0.5"/>
     <use xlink:href="#m4ff07eef54" x="171.139371" y="411.290477" style="fill: #1f77b4; fill-opacity: 0.5; stroke: #1f77b4; stroke-opacity: 0.5"/>
     <use xlink:href="#m4ff07eef54" x="172.335085" y="419.009723" style="fill: #1f77b4; fill-opacity: 0.5; stroke: #1f77b4; stroke-opacity: 0.5"/>
     <use xlink:href="#m4ff07eef54" x="173.132228" y="409.903846" style="fill: #1f77b4; fill-opacity: 0.5; stroke: #1f77b4; stroke-opacity: 0.5"/>
     <use xlink:href="#m4ff07eef54" x="177.915085" y="401.293295" style="fill: #1f77b4; fill-opacity: 0.5; stroke: #1f77b4; stroke-opacity: 0.5"/>
     <use xlink:href="#m4ff07eef54" x="178.712228" y="411.916351" style="fill: #1f77b4; fill-opacity: 0.5; stroke: #1f77b4; stroke-opacity: 0.5"/>
     <use xlink:href="#m4ff07eef54" x="179.509371" y="409.16341" style="fill: #1f77b4; fill-opacity: 0.5; stroke: #1f77b4; stroke-opacity: 0.5"/>
     <use xlink:href="#m4ff07eef54" x="180.306513" y="413.809695" style="fill: #1f77b4; fill-opacity: 0.5; stroke: #1f77b4; stroke-opacity: 0.5"/>
     <use xlink:href="#m4ff07eef54" x="183.096513" y="407.752213" style="fill: #1f77b4; fill-opacity: 0.5; stroke: #1f77b4; stroke-opacity: 0.5"/>
     <use xlink:href="#m4ff07eef54" x="184.292228" y="396.437295" style="fill: #1f77b4; fill-opacity: 0.5; stroke: #1f77b4; stroke-opacity: 0.5"/>
     <use xlink:href="#m4ff07eef54" x="185.487942" y="409.545856" style="fill: #1f77b4; fill-opacity: 0.5; stroke: #1f77b4; stroke-opacity: 0.5"/>
     <use xlink:href="#m4ff07eef54" x="187.082228" y="406.885785" style="fill: #1f77b4; fill-opacity: 0.5; stroke: #1f77b4; stroke-opacity: 0.5"/>
     <use xlink:href="#m4ff07eef54" x="187.480799" y="399.403819" style="fill: #1f77b4; fill-opacity: 0.5; stroke: #1f77b4; stroke-opacity: 0.5"/>
     <use xlink:href="#m4ff07eef54" x="189.473656" y="414.507716" style="fill: #1f77b4; fill-opacity: 0.5; stroke: #1f77b4; stroke-opacity: 0.5"/>
     <use xlink:href="#m4ff07eef54" x="192.263656" y="413.160944" style="fill: #1f77b4; fill-opacity: 0.5; stroke: #1f77b4; stroke-opacity: 0.5"/>
     <use xlink:href="#m4ff07eef54" x="192.662228" y="397.359898" style="fill: #1f77b4; fill-opacity: 0.5; stroke: #1f77b4; stroke-opacity: 0.5"/>
     <use xlink:href="#m4ff07eef54" x="192.662228" y="412.632242" style="fill: #1f77b4; fill-opacity: 0.5; stroke: #1f77b4; stroke-opacity: 0.5"/>
     <use xlink:href="#m4ff07eef54" x="193.857942" y="405.38861" style="fill: #1f77b4; fill-opacity: 0.5; stroke: #1f77b4; stroke-opacity: 0.5"/>
     <use xlink:href="#m4ff07eef54" x="195.053656" y="398.741295" style="fill: #1f77b4; fill-opacity: 0.5; stroke: #1f77b4; stroke-opacity: 0.5"/>
     <use xlink:href="#m4ff07eef54" x="195.452228" y="409.485391" style="fill: #1f77b4; fill-opacity: 0.5; stroke: #1f77b4; stroke-opacity: 0.5"/>
     <use xlink:href="#m4ff07eef54" x="196.249371" y="401.505407" style="fill: #1f77b4; fill-opacity: 0.5; stroke: #1f77b4; stroke-opacity: 0.5"/>
     <use xlink:href="#m4ff07eef54" x="199.836513" y="405.892455" style="fill: #1f77b4; fill-opacity: 0.5; stroke: #1f77b4; stroke-opacity: 0.5"/>
     <use xlink:href="#m4ff07eef54" x="200.235085" y="399.992921" style="fill: #1f77b4; fill-opacity: 0.5; stroke: #1f77b4; stroke-opacity: 0.5"/>
     <use xlink:href="#m4ff07eef54" x="201.032228" y="419.281718" style="fill: #1f77b4; fill-opacity: 0.5; stroke: #1f77b4; stroke-opacity: 0.5"/>
     <use xlink:href="#m4ff07eef54" x="201.032228" y="411.197779" style="fill: #1f77b4; fill-opacity: 0.5; stroke: #1f77b4; stroke-opacity: 0.5"/>
     <use xlink:href="#m4ff07eef54" x="203.822228" y="404.296614" style="fill: #1f77b4; fill-opacity: 0.5; stroke: #1f77b4; stroke-opacity: 0.5"/>
     <use xlink:href="#m4ff07eef54" x="204.220799" y="403.395149" style="fill: #1f77b4; fill-opacity: 0.5; stroke: #1f77b4; stroke-opacity: 0.5"/>
     <use xlink:href="#m4ff07eef54" x="205.017942" y="398.112301" style="fill: #1f77b4; fill-opacity: 0.5; stroke: #1f77b4; stroke-opacity: 0.5"/>
     <use xlink:href="#m4ff07eef54" x="209.003656" y="407.409029" style="fill: #1f77b4; fill-opacity: 0.5; stroke: #1f77b4; stroke-opacity: 0.5"/>
     <use xlink:href="#m4ff07eef54" x="209.003656" y="403.156839" style="fill: #1f77b4; fill-opacity: 0.5; stroke: #1f77b4; stroke-opacity: 0.5"/>
     <use xlink:href="#m4ff07eef54" x="212.192228" y="411.333447" style="fill: #1f77b4; fill-opacity: 0.5; stroke: #1f77b4; stroke-opacity: 0.5"/>
     <use xlink:href="#m4ff07eef54" x="213.387942" y="407.495831" style="fill: #1f77b4; fill-opacity: 0.5; stroke: #1f77b4; stroke-opacity: 0.5"/>
     <use xlink:href="#m4ff07eef54" x="213.387942" y="401.298841" style="fill: #1f77b4; fill-opacity: 0.5; stroke: #1f77b4; stroke-opacity: 0.5"/>
     <use xlink:href="#m4ff07eef54" x="213.786513" y="403.757406" style="fill: #1f77b4; fill-opacity: 0.5; stroke: #1f77b4; stroke-opacity: 0.5"/>
     <use xlink:href="#m4ff07eef54" x="217.772228" y="405.970977" style="fill: #1f77b4; fill-opacity: 0.5; stroke: #1f77b4; stroke-opacity: 0.5"/>
     <use xlink:href="#m4ff07eef54" x="220.163656" y="402.655839" style="fill: #1f77b4; fill-opacity: 0.5; stroke: #1f77b4; stroke-opacity: 0.5"/>
     <use xlink:href="#m4ff07eef54" x="221.359371" y="406.14173" style="fill: #1f77b4; fill-opacity: 0.5; stroke: #1f77b4; stroke-opacity: 0.5"/>
     <use xlink:href="#m4ff07eef54" x="221.757942" y="404.941092" style="fill: #1f77b4; fill-opacity: 0.5; stroke: #1f77b4; stroke-opacity: 0.5"/>
     <use xlink:href="#m4ff07eef54" x="224.149371" y="406.741415" style="fill: #1f77b4; fill-opacity: 0.5; stroke: #1f77b4; stroke-opacity: 0.5"/>
     <use xlink:href="#m4ff07eef54" x="226.142228" y="405.467636" style="fill: #1f77b4; fill-opacity: 0.5; stroke: #1f77b4; stroke-opacity: 0.5"/>
     <use xlink:href="#m4ff07eef54" x="230.127942" y="402.26378" style="fill: #1f77b4; fill-opacity: 0.5; stroke: #1f77b4; stroke-opacity: 0.5"/>
     <use xlink:href="#m4ff07eef54" x="233.316513" y="400.318478" style="fill: #1f77b4; fill-opacity: 0.5; stroke: #1f77b4; stroke-opacity: 0.5"/>
     <use xlink:href="#m4ff07eef54" x="234.910799" y="401.366291" style="fill: #1f77b4; fill-opacity: 0.5; stroke: #1f77b4; stroke-opacity: 0.5"/>
     <use xlink:href="#m4ff07eef54" x="235.309371" y="400.992263" style="fill: #1f77b4; fill-opacity: 0.5; stroke: #1f77b4; stroke-opacity: 0.5"/>
     <use xlink:href="#m4ff07eef54" x="246.867942" y="399.662099" style="fill: #1f77b4; fill-opacity: 0.5; stroke: #1f77b4; stroke-opacity: 0.5"/>
     <use xlink:href="#m4ff07eef54" x="247.266513" y="397.960519" style="fill: #1f77b4; fill-opacity: 0.5; stroke: #1f77b4; stroke-opacity: 0.5"/>
    </g>
   </g>
   <g id="PolyCollection_3">
    <defs>
     <path id="mfe05a3ae94" d="M 68.467371 42.609295 
L 68.467371 -237.788966 
L 69.583371 -194.610126 
L 71.735656 -194.610126 
L 73.967656 -194.610126 
L 76.359085 -194.610126 
L 78.830228 -209.250793 
L 81.939085 -270.331953 
L 84.250799 -291.723749 
L 86.961085 -287.828759 
L 89.671371 -213.04621 
L 94.294799 -215.670573 
L 98.599371 -218.231104 
L 102.505371 -236.336609 
L 106.092513 -296.332381 
L 109.998513 -284.532765 
L 111.991371 -285.727134 
L 114.063942 -271.760408 
L 116.375656 -271.014303 
L 119.085942 -284.42627 
L 121.955656 -290.779127 
L 124.825371 -269.078392 
L 127.455942 -222.738096 
L 129.448799 -230.93524 
L 131.840228 -225.726657 
L 133.593942 -233.375089 
L 135.427371 -233.398157 
L 137.181085 -212.282278 
L 138.934799 -214.606242 
L 140.289942 -216.095913 
L 141.884228 -209.17258 
L 143.637942 -207.36995 
L 145.152513 -209.70029 
L 147.065656 -210.609729 
L 148.580228 -210.669918 
L 149.935371 -212.934253 
L 151.689085 -216.433553 
L 153.681942 -212.76966 
L 155.435656 -214.308616 
L 156.950228 -209.166956 
L 158.703942 -208.26585 
L 160.377942 -209.541772 
L 161.892513 -208.333528 
L 163.407085 -208.066372 
L 165.001371 -207.379911 
L 166.834799 -209.559499 
L 168.189942 -207.414903 
L 169.305942 -208.603068 
L 170.501656 -212.039131 
L 171.617656 -211.863886 
L 173.132228 -210.176387 
L 174.646799 -204.327236 
L 176.320799 -204.793461 
L 177.915085 -202.716448 
L 179.907942 -203.185832 
L 181.183371 -208.110975 
L 182.538513 -208.022568 
L 184.053085 -208.317593 
L 185.487942 -209.822531 
L 186.763371 -211.790674 
L 188.357656 -205.662422 
L 189.792513 -211.661958 
L 190.908513 -211.556029 
L 192.183942 -208.194557 
L 193.299942 -211.787326 
L 193.937656 -210.893716 
L 194.655085 -208.141222 
L 196.089942 -206.481215 
L 197.365371 -208.16847 
L 198.561085 -210.532799 
L 199.677085 -210.513629 
L 201.191656 -209.050434 
L 202.068513 -210.085899 
L 203.025085 -211.457417 
L 204.619371 -207.207955 
L 206.213656 -205.781408 
L 207.887656 -207.620484 
L 209.721085 -206.945345 
L 211.395085 -204.14405 
L 212.351656 -204.961667 
L 214.105371 -203.992927 
L 215.699656 -203.12411 
L 217.293942 -202.594491 
L 218.967942 -200.637201 
L 221.040513 -200.288851 
L 222.714513 -200.313638 
L 224.707371 -200.711508 
L 227.098799 -203.62106 
L 229.729371 -204.62678 
L 231.961371 -204.317236 
L 236.106513 -203.428894 
L 239.534228 -204.985867 
L 239.534228 -199.616149 
L 239.534228 -199.616149 
L 236.106513 -199.451817 
L 231.961371 -196.24126 
L 229.729371 -193.632055 
L 227.098799 -193.207855 
L 224.707371 -193.788105 
L 222.714513 -194.029152 
L 221.040513 -193.852603 
L 218.967942 -194.697856 
L 217.293942 -194.197467 
L 215.699656 -193.126208 
L 214.105371 -188.786347 
L 212.351656 -188.943262 
L 211.395085 -188.30023 
L 209.721085 -186.773551 
L 207.887656 -187.738685 
L 206.213656 -192.392495 
L 204.619371 -187.749572 
L 203.025085 -178.751034 
L 202.068513 -179.370304 
L 201.191656 -179.406847 
L 199.677085 -179.060134 
L 198.561085 -179.725918 
L 197.365371 -190.306417 
L 196.089942 -189.835397 
L 194.655085 -185.479475 
L 193.937656 -184.385184 
L 193.299942 -182.021353 
L 192.183942 -179.307554 
L 190.908513 -178.339998 
L 189.792513 -180.532652 
L 188.357656 -181.657805 
L 186.763371 -182.219012 
L 185.487942 -186.889357 
L 184.053085 -182.631945 
L 182.538513 -182.015919 
L 181.183371 -180.979314 
L 179.907942 -183.962057 
L 177.915085 -183.570789 
L 176.320799 -179.413764 
L 174.646799 -179.029162 
L 173.132228 -178.209762 
L 171.617656 -177.522225 
L 170.501656 -177.999729 
L 169.305942 -186.389055 
L 168.189942 -190.368828 
L 166.834799 -189.347528 
L 165.001371 -187.676903 
L 163.407085 -185.837229 
L 161.892513 -186.268088 
L 160.377942 -180.419063 
L 158.703942 -181.147689 
L 156.950228 -181.689966 
L 155.435656 -170.836587 
L 153.681942 -164.737094 
L 151.689085 -165.912689 
L 149.935371 -167.307733 
L 148.580228 -167.525443 
L 147.065656 -175.80196 
L 145.152513 -177.27239 
L 143.637942 -173.979504 
L 141.884228 -173.142443 
L 140.289942 -171.494043 
L 138.934799 -170.726444 
L 137.181085 -179.141164 
L 135.427371 -144.314193 
L 133.593942 -121.5564 
L 131.840228 -124.413231 
L 129.448799 -122.750353 
L 127.455942 -110.667606 
L 124.825371 -22.863315 
L 121.955656 -24.501251 
L 119.085942 -24.92811 
L 116.375656 23.315154 
L 114.063942 23.195654 
L 111.991371 -25.230733 
L 109.998513 -25.571072 
L 106.092513 -24.103102 
L 102.505371 -137.877483 
L 98.599371 -169.44144 
L 94.294799 -169.854382 
L 89.671371 -170.21527 
L 86.961085 -32.190367 
L 84.250799 25.483232 
L 81.939085 57.520476 
L 78.830228 56.68484 
L 76.359085 47.395161 
L 73.967656 47.395161 
L 71.735656 47.395161 
L 69.583371 47.395161 
L 68.467371 42.609295 
z
" style="stroke: #1f77b4; stroke-opacity: 0.1"/>
    </defs>
    <g clip-path="url(#p856d907220)">
     <use xlink:href="#mfe05a3ae94" x="0" y="602.360937" style="fill: #1f77b4; fill-opacity: 0.1; stroke: #1f77b4; stroke-opacity: 0.1"/>
    </g>
   </g>
   <g id="matplotlib.axis_5">
    <g id="xtick_7">
     <g id="line2d_19">
      <g>
       <use xlink:href="#m64561c96cc" x="138.855085" y="555.810469" style="stroke: #000000; stroke-width: 0.8"/>
      </g>
     </g>
     <g id="text_21">
      <!-- 200 -->
      <g transform="translate(127.177116 572.831406)scale(0.14 -0.14)">
       <use xlink:href="#ArialMT-32"/>
       <use xlink:href="#ArialMT-30" x="55.615234"/>
       <use xlink:href="#ArialMT-30" x="111.230469"/>
      </g>
     </g>
    </g>
    <g id="xtick_8">
     <g id="line2d_20">
      <g>
       <use xlink:href="#m64561c96cc" x="218.569371" y="555.810469" style="stroke: #000000; stroke-width: 0.8"/>
      </g>
     </g>
     <g id="text_22">
      <!-- 400 -->
      <g transform="translate(206.891402 572.831406)scale(0.14 -0.14)">
       <use xlink:href="#ArialMT-34"/>
       <use xlink:href="#ArialMT-30" x="55.615234"/>
       <use xlink:href="#ArialMT-30" x="111.230469"/>
      </g>
     </g>
    </g>
    <g id="xtick_9">
     <g id="line2d_21">
      <g>
       <use xlink:href="#m64561c96cc" x="298.283656" y="555.810469" style="stroke: #000000; stroke-width: 0.8"/>
      </g>
     </g>
     <g id="text_23">
      <!-- 600 -->
      <g transform="translate(286.605687 572.831406)scale(0.14 -0.14)">
       <use xlink:href="#ArialMT-36"/>
       <use xlink:href="#ArialMT-30" x="55.615234"/>
       <use xlink:href="#ArialMT-30" x="111.230469"/>
      </g>
     </g>
    </g>
    <g id="text_24">
     <!-- Number of Nodes -->
     <g transform="translate(120.074203 591.782187)scale(0.17 -0.17)">
      <defs>
       <path id="ArialMT-4e" d="M 488 0 
L 488 4581 
L 1109 4581 
L 3516 984 
L 3516 4581 
L 4097 4581 
L 4097 0 
L 3475 0 
L 1069 3600 
L 1069 0 
L 488 0 
z
" transform="scale(0.015625)"/>
       <path id="ArialMT-6d" d="M 422 0 
L 422 3319 
L 925 3319 
L 925 2853 
Q 1081 3097 1340 3245 
Q 1600 3394 1931 3394 
Q 2300 3394 2536 3241 
Q 2772 3088 2869 2813 
Q 3263 3394 3894 3394 
Q 4388 3394 4653 3120 
Q 4919 2847 4919 2278 
L 4919 0 
L 4359 0 
L 4359 2091 
Q 4359 2428 4304 2576 
Q 4250 2725 4106 2815 
Q 3963 2906 3769 2906 
Q 3419 2906 3187 2673 
Q 2956 2441 2956 1928 
L 2956 0 
L 2394 0 
L 2394 2156 
Q 2394 2531 2256 2718 
Q 2119 2906 1806 2906 
Q 1569 2906 1367 2781 
Q 1166 2656 1075 2415 
Q 984 2175 984 1722 
L 984 0 
L 422 0 
z
" transform="scale(0.015625)"/>
       <path id="ArialMT-62" d="M 941 0 
L 419 0 
L 419 4581 
L 981 4581 
L 981 2947 
Q 1338 3394 1891 3394 
Q 2197 3394 2470 3270 
Q 2744 3147 2920 2923 
Q 3097 2700 3197 2384 
Q 3297 2069 3297 1709 
Q 3297 856 2875 390 
Q 2453 -75 1863 -75 
Q 1275 -75 941 416 
L 941 0 
z
M 934 1684 
Q 934 1088 1097 822 
Q 1363 388 1816 388 
Q 2184 388 2453 708 
Q 2722 1028 2722 1663 
Q 2722 2313 2464 2622 
Q 2206 2931 1841 2931 
Q 1472 2931 1203 2611 
Q 934 2291 934 1684 
z
" transform="scale(0.015625)"/>
       <path id="ArialMT-72" d="M 416 0 
L 416 3319 
L 922 3319 
L 922 2816 
Q 1116 3169 1280 3281 
Q 1444 3394 1641 3394 
Q 1925 3394 2219 3213 
L 2025 2691 
Q 1819 2813 1613 2813 
Q 1428 2813 1281 2702 
Q 1134 2591 1072 2394 
Q 978 2094 978 1738 
L 978 0 
L 416 0 
z
" transform="scale(0.015625)"/>
       <path id="ArialMT-6f" d="M 213 1659 
Q 213 2581 725 3025 
Q 1153 3394 1769 3394 
Q 2453 3394 2887 2945 
Q 3322 2497 3322 1706 
Q 3322 1066 3130 698 
Q 2938 331 2570 128 
Q 2203 -75 1769 -75 
Q 1072 -75 642 372 
Q 213 819 213 1659 
z
M 791 1659 
Q 791 1022 1069 705 
Q 1347 388 1769 388 
Q 2188 388 2466 706 
Q 2744 1025 2744 1678 
Q 2744 2294 2464 2611 
Q 2184 2928 1769 2928 
Q 1347 2928 1069 2612 
Q 791 2297 791 1659 
z
" transform="scale(0.015625)"/>
       <path id="ArialMT-66" d="M 556 0 
L 556 2881 
L 59 2881 
L 59 3319 
L 556 3319 
L 556 3672 
Q 556 4006 616 4169 
Q 697 4388 901 4523 
Q 1106 4659 1475 4659 
Q 1713 4659 2000 4603 
L 1916 4113 
Q 1741 4144 1584 4144 
Q 1328 4144 1222 4034 
Q 1116 3925 1116 3625 
L 1116 3319 
L 1763 3319 
L 1763 2881 
L 1116 2881 
L 1116 0 
L 556 0 
z
" transform="scale(0.015625)"/>
       <path id="ArialMT-64" d="M 2575 0 
L 2575 419 
Q 2259 -75 1647 -75 
Q 1250 -75 917 144 
Q 584 363 401 755 
Q 219 1147 219 1656 
Q 219 2153 384 2558 
Q 550 2963 881 3178 
Q 1213 3394 1622 3394 
Q 1922 3394 2156 3267 
Q 2391 3141 2538 2938 
L 2538 4581 
L 3097 4581 
L 3097 0 
L 2575 0 
z
M 797 1656 
Q 797 1019 1065 703 
Q 1334 388 1700 388 
Q 2069 388 2326 689 
Q 2584 991 2584 1609 
Q 2584 2291 2321 2609 
Q 2059 2928 1675 2928 
Q 1300 2928 1048 2622 
Q 797 2316 797 1656 
z
" transform="scale(0.015625)"/>
       <path id="ArialMT-73" d="M 197 991 
L 753 1078 
Q 800 744 1014 566 
Q 1228 388 1613 388 
Q 2000 388 2187 545 
Q 2375 703 2375 916 
Q 2375 1106 2209 1216 
Q 2094 1291 1634 1406 
Q 1016 1563 777 1677 
Q 538 1791 414 1992 
Q 291 2194 291 2438 
Q 291 2659 392 2848 
Q 494 3038 669 3163 
Q 800 3259 1026 3326 
Q 1253 3394 1513 3394 
Q 1903 3394 2198 3281 
Q 2494 3169 2634 2976 
Q 2775 2784 2828 2463 
L 2278 2388 
Q 2241 2644 2061 2787 
Q 1881 2931 1553 2931 
Q 1166 2931 1000 2803 
Q 834 2675 834 2503 
Q 834 2394 903 2306 
Q 972 2216 1119 2156 
Q 1203 2125 1616 2013 
Q 2213 1853 2448 1751 
Q 2684 1650 2818 1456 
Q 2953 1263 2953 975 
Q 2953 694 2789 445 
Q 2625 197 2315 61 
Q 2006 -75 1616 -75 
Q 969 -75 630 194 
Q 291 463 197 991 
z
" transform="scale(0.015625)"/>
      </defs>
      <use xlink:href="#ArialMT-4e"/>
      <use xlink:href="#ArialMT-75" x="72.216797"/>
      <use xlink:href="#ArialMT-6d" x="127.832031"/>
      <use xlink:href="#ArialMT-62" x="211.132812"/>
      <use xlink:href="#ArialMT-65" x="266.748047"/>
      <use xlink:href="#ArialMT-72" x="322.363281"/>
      <use xlink:href="#ArialMT-20" x="355.664062"/>
      <use xlink:href="#ArialMT-6f" x="383.447266"/>
      <use xlink:href="#ArialMT-66" x="439.0625"/>
      <use xlink:href="#ArialMT-20" x="466.845703"/>
      <use xlink:href="#ArialMT-4e" x="494.628906"/>
      <use xlink:href="#ArialMT-6f" x="566.845703"/>
      <use xlink:href="#ArialMT-64" x="622.460938"/>
      <use xlink:href="#ArialMT-65" x="678.076172"/>
      <use xlink:href="#ArialMT-73" x="733.691406"/>
     </g>
    </g>
   </g>
   <g id="matplotlib.axis_6">
    <g id="ytick_13">
     <g id="line2d_22">
      <g>
       <use xlink:href="#m4a493c0ff1" x="75.083656" y="395.928116" style="stroke: #000000; stroke-width: 0.8"/>
      </g>
     </g>
     <g id="text_25">
      <!-- 0 -->
      <g transform="translate(60.298344 400.938585)scale(0.14 -0.14)">
       <use xlink:href="#ArialMT-30"/>
      </g>
     </g>
    </g>
    <g id="ytick_14">
     <g id="line2d_23">
      <g>
       <use xlink:href="#m4a493c0ff1" x="75.083656" y="427.904586" style="stroke: #000000; stroke-width: 0.8"/>
      </g>
     </g>
     <g id="text_26">
      <!-- 20 -->
      <g transform="translate(52.513031 432.915055)scale(0.14 -0.14)">
       <use xlink:href="#ArialMT-32"/>
       <use xlink:href="#ArialMT-30" x="55.615234"/>
      </g>
     </g>
    </g>
    <g id="ytick_15">
     <g id="line2d_24">
      <g>
       <use xlink:href="#m4a493c0ff1" x="75.083656" y="459.881057" style="stroke: #000000; stroke-width: 0.8"/>
      </g>
     </g>
     <g id="text_27">
      <!-- 40 -->
      <g transform="translate(52.513031 464.891526)scale(0.14 -0.14)">
       <use xlink:href="#ArialMT-34"/>
       <use xlink:href="#ArialMT-30" x="55.615234"/>
      </g>
     </g>
    </g>
    <g id="ytick_16">
     <g id="line2d_25">
      <g>
       <use xlink:href="#m4a493c0ff1" x="75.083656" y="491.857528" style="stroke: #000000; stroke-width: 0.8"/>
      </g>
     </g>
     <g id="text_28">
      <!-- 60 -->
      <g transform="translate(52.513031 496.867996)scale(0.14 -0.14)">
       <use xlink:href="#ArialMT-36"/>
       <use xlink:href="#ArialMT-30" x="55.615234"/>
      </g>
     </g>
    </g>
    <g id="ytick_17">
     <g id="line2d_26">
      <g>
       <use xlink:href="#m4a493c0ff1" x="75.083656" y="523.833998" style="stroke: #000000; stroke-width: 0.8"/>
      </g>
     </g>
     <g id="text_29">
      <!-- 80 -->
      <g transform="translate(52.513031 528.844467)scale(0.14 -0.14)">
       <use xlink:href="#ArialMT-38"/>
       <use xlink:href="#ArialMT-30" x="55.615234"/>
      </g>
     </g>
    </g>
    <g id="ytick_18">
     <g id="line2d_27">
      <g>
       <use xlink:href="#m4a493c0ff1" x="75.083656" y="555.810469" style="stroke: #000000; stroke-width: 0.8"/>
      </g>
     </g>
     <g id="text_30">
      <!-- 100 -->
      <g transform="translate(44.727719 560.820938)scale(0.14 -0.14)">
       <use xlink:href="#ArialMT-31"/>
       <use xlink:href="#ArialMT-30" x="55.615234"/>
       <use xlink:href="#ArialMT-30" x="111.230469"/>
      </g>
     </g>
    </g>
    <g id="text_31">
     <!-- Irx3 -->
     <g transform="translate(19.368281 490.03773)rotate(-90)scale(0.17 -0.17)">
      <defs>
       <path id="ArialMT-49" d="M 597 0 
L 597 4581 
L 1203 4581 
L 1203 0 
L 597 0 
z
" transform="scale(0.015625)"/>
       <path id="ArialMT-33" d="M 269 1209 
L 831 1284 
Q 928 806 1161 595 
Q 1394 384 1728 384 
Q 2125 384 2398 659 
Q 2672 934 2672 1341 
Q 2672 1728 2419 1979 
Q 2166 2231 1775 2231 
Q 1616 2231 1378 2169 
L 1441 2663 
Q 1497 2656 1531 2656 
Q 1891 2656 2178 2843 
Q 2466 3031 2466 3422 
Q 2466 3731 2256 3934 
Q 2047 4138 1716 4138 
Q 1388 4138 1169 3931 
Q 950 3725 888 3313 
L 325 3413 
Q 428 3978 793 4289 
Q 1159 4600 1703 4600 
Q 2078 4600 2393 4439 
Q 2709 4278 2876 4000 
Q 3044 3722 3044 3409 
Q 3044 3113 2884 2869 
Q 2725 2625 2413 2481 
Q 2819 2388 3044 2092 
Q 3269 1797 3269 1353 
Q 3269 753 2831 336 
Q 2394 -81 1725 -81 
Q 1122 -81 723 278 
Q 325 638 269 1209 
z
" transform="scale(0.015625)"/>
      </defs>
      <use xlink:href="#ArialMT-49"/>
      <use xlink:href="#ArialMT-72" x="27.783203"/>
      <use xlink:href="#ArialMT-78" x="61.083984"/>
      <use xlink:href="#ArialMT-33" x="111.083984"/>
     </g>
     <!-- Rank Quantile -->
     <g transform="translate(37.348969 529.730074)rotate(-90)scale(0.17 -0.17)">
      <use xlink:href="#ArialMT-52"/>
      <use xlink:href="#ArialMT-61" x="72.216797"/>
      <use xlink:href="#ArialMT-6e" x="127.832031"/>
      <use xlink:href="#ArialMT-6b" x="183.447266"/>
      <use xlink:href="#ArialMT-20" x="233.447266"/>
      <use xlink:href="#ArialMT-51" x="261.230469"/>
      <use xlink:href="#ArialMT-75" x="339.013672"/>
      <use xlink:href="#ArialMT-61" x="394.628906"/>
      <use xlink:href="#ArialMT-6e" x="450.244141"/>
      <use xlink:href="#ArialMT-74" x="505.859375"/>
      <use xlink:href="#ArialMT-69" x="533.642578"/>
      <use xlink:href="#ArialMT-6c" x="555.859375"/>
      <use xlink:href="#ArialMT-65" x="578.076172"/>
     </g>
    </g>
   </g>
   <g id="patch_13">
    <path d="M 75.083656 555.810469 
L 75.083656 395.928116 
" style="fill: none; stroke: #000000; stroke-width: 0.8; stroke-linejoin: miter; stroke-linecap: square"/>
   </g>
   <g id="patch_14">
    <path d="M 298.283656 555.810469 
L 298.283656 395.928116 
" style="fill: none"/>
   </g>
   <g id="patch_15">
    <path d="M 75.083656 555.810469 
L 298.283656 555.810469 
" style="fill: none; stroke: #000000; stroke-width: 0.8; stroke-linejoin: miter; stroke-linecap: square"/>
   </g>
   <g id="patch_16">
    <path d="M 75.083656 395.928116 
L 298.283656 395.928116 
" style="fill: none"/>
   </g>
  </g>
 </g>
 <defs>
  <clipPath id="p60a8324773">
   <rect x="75.083656" y="12.210469" width="223.2" height="159.882353"/>
  </clipPath>
  <clipPath id="p16b152b41e">
   <rect x="75.083656" y="204.069292" width="223.2" height="159.882353"/>
  </clipPath>
  <clipPath id="p856d907220">
   <rect x="75.083656" y="395.928116" width="223.2" height="159.882353"/>
  </clipPath>
 </defs>
</svg>
