<?xml version="1.0" encoding="utf-8" standalone="no"?>
<!DOCTYPE svg PUBLIC "-//W3C//DTD SVG 1.1//EN"
  "http://www.w3.org/Graphics/SVG/1.1/DTD/svg11.dtd">
<svg xmlns:xlink="http://www.w3.org/1999/xlink" width="823.363438pt" height="219.526719pt" viewBox="0 0 823.363438 219.526719" xmlns="http://www.w3.org/2000/svg" version="1.1">
 <metadata>
  <rdf:RDF xmlns:dc="http://purl.org/dc/elements/1.1/" xmlns:cc="http://creativecommons.org/ns#" xmlns:rdf="http://www.w3.org/1999/02/22-rdf-syntax-ns#">
   <cc:Work>
    <dc:type rdf:resource="http://purl.org/dc/dcmitype/StillImage"/>
    <dc:date>2025-07-21T14:36:24.389814</dc:date>
    <dc:format>image/svg+xml</dc:format>
    <dc:creator>
     <cc:Agent>
      <dc:title>Matplotlib v3.5.3, https://matplotlib.org/</dc:title>
     </cc:Agent>
    </dc:creator>
   </cc:Work>
  </rdf:RDF>
 </metadata>
 <defs>
  <style type="text/css">*{stroke-linejoin: round; stroke-linecap: butt}</style>
 </defs>
 <g id="figure_1">
  <g id="patch_1">
   <path d="M -0 219.526719 
L 823.363438 219.526719 
L 823.363438 0 
L -0 0 
L -0 219.526719 
z
" style="fill: none"/>
  </g>
  <g id="axes_1">
   <g id="patch_2">
    <path d="M 56.188438 172.97625 
L 558.388438 172.97625 
L 558.388438 9.89625 
L 56.188438 9.89625 
z
" style="fill: #ffffff"/>
   </g>
   <g id="patch_3">
    <path d="M 79.01571 172.97625 
L 104.857906 172.97625 
L 104.857906 94.878013 
L 79.01571 94.878013 
z
" clip-path="url(#p241cf9d6c7)" style="fill: url(#h468e0e8da7); opacity: 0.8; stroke: #808080; stroke-linejoin: miter"/>
   </g>
   <g id="patch_4">
    <path d="M 122.086036 172.97625 
L 147.928232 172.97625 
L 147.928232 98.302526 
L 122.086036 98.302526 
z
" clip-path="url(#p241cf9d6c7)" style="fill: url(#h468e0e8da7); opacity: 0.8; stroke: #808080; stroke-linejoin: miter"/>
   </g>
   <g id="patch_5">
    <path d="M 165.156362 172.97625 
L 190.998558 172.97625 
L 190.998558 102.075697 
L 165.156362 102.075697 
z
" clip-path="url(#p241cf9d6c7)" style="fill: url(#h468e0e8da7); opacity: 0.8; stroke: #808080; stroke-linejoin: miter"/>
   </g>
   <g id="patch_6">
    <path d="M 208.226688 172.97625 
L 234.068883 172.97625 
L 234.068883 107.326545 
L 208.226688 107.326545 
z
" clip-path="url(#p241cf9d6c7)" style="fill: url(#h468e0e8da7); opacity: 0.8; stroke: #808080; stroke-linejoin: miter"/>
   </g>
   <g id="patch_7">
    <path d="M 251.297014 172.97625 
L 277.139209 172.97625 
L 277.139209 113.439087 
L 251.297014 113.439087 
z
" clip-path="url(#p241cf9d6c7)" style="fill: url(#h468e0e8da7); opacity: 0.8; stroke: #808080; stroke-linejoin: miter"/>
   </g>
   <g id="patch_8">
    <path d="M 294.36734 172.97625 
L 320.209535 172.97625 
L 320.209535 110.375368 
L 294.36734 110.375368 
z
" clip-path="url(#p241cf9d6c7)" style="fill: url(#h468e0e8da7); opacity: 0.8; stroke: #808080; stroke-linejoin: miter"/>
   </g>
   <g id="patch_9">
    <path d="M 337.437666 172.97625 
L 363.279861 172.97625 
L 363.279861 109.516112 
L 337.437666 109.516112 
z
" clip-path="url(#p241cf9d6c7)" style="fill: url(#h468e0e8da7); opacity: 0.8; stroke: #808080; stroke-linejoin: miter"/>
   </g>
   <g id="patch_10">
    <path d="M 380.507992 172.97625 
L 406.350187 172.97625 
L 406.350187 109.539426 
L 380.507992 109.539426 
z
" clip-path="url(#p241cf9d6c7)" style="fill: url(#h468e0e8da7); opacity: 0.8; stroke: #808080; stroke-linejoin: miter"/>
   </g>
   <g id="patch_11">
    <path d="M 423.578317 172.97625 
L 449.420513 172.97625 
L 449.420513 112.696756 
L 423.578317 112.696756 
z
" clip-path="url(#p241cf9d6c7)" style="fill: url(#h468e0e8da7); opacity: 0.8; stroke: #808080; stroke-linejoin: miter"/>
   </g>
   <g id="patch_12">
    <path d="M 466.648643 172.97625 
L 492.490839 172.97625 
L 492.490839 115.710771 
L 466.648643 115.710771 
z
" clip-path="url(#p241cf9d6c7)" style="fill: url(#h468e0e8da7); opacity: 0.8; stroke: #808080; stroke-linejoin: miter"/>
   </g>
   <g id="patch_13">
    <path d="M 509.718969 172.97625 
L 535.561165 172.97625 
L 535.561165 119.04849 
L 509.718969 119.04849 
z
" clip-path="url(#p241cf9d6c7)" style="fill: url(#h468e0e8da7); opacity: 0.8; stroke: #808080; stroke-linejoin: miter"/>
   </g>
   <g id="patch_14">
    <path d="M 79.01571 94.878013 
L 104.857906 94.878013 
L 104.857906 89.884226 
L 79.01571 89.884226 
z
" clip-path="url(#p241cf9d6c7)" style="fill: url(#hcfaeeefeab); opacity: 0.8; stroke: #808080; stroke-linejoin: miter"/>
   </g>
   <g id="patch_15">
    <path d="M 122.086036 98.302526 
L 147.928232 98.302526 
L 147.928232 94.737632 
L 122.086036 94.737632 
z
" clip-path="url(#p241cf9d6c7)" style="fill: url(#hcfaeeefeab); opacity: 0.8; stroke: #808080; stroke-linejoin: miter"/>
   </g>
   <g id="patch_16">
    <path d="M 165.156362 102.075697 
L 190.998558 102.075697 
L 190.998558 99.396841 
L 165.156362 99.396841 
z
" clip-path="url(#p241cf9d6c7)" style="fill: url(#hcfaeeefeab); opacity: 0.8; stroke: #808080; stroke-linejoin: miter"/>
   </g>
   <g id="patch_17">
    <path d="M 208.226688 107.326545 
L 234.068883 107.326545 
L 234.068883 103.937071 
L 208.226688 103.937071 
z
" clip-path="url(#p241cf9d6c7)" style="fill: url(#hcfaeeefeab); opacity: 0.8; stroke: #808080; stroke-linejoin: miter"/>
   </g>
   <g id="patch_18">
    <path d="M 251.297014 113.439087 
L 277.139209 113.439087 
L 277.139209 110.097102 
L 251.297014 110.097102 
z
" clip-path="url(#p241cf9d6c7)" style="fill: url(#hcfaeeefeab); opacity: 0.8; stroke: #808080; stroke-linejoin: miter"/>
   </g>
   <g id="patch_19">
    <path d="M 294.36734 110.375368 
L 320.209535 110.375368 
L 320.209535 105.698851 
L 294.36734 105.698851 
z
" clip-path="url(#p241cf9d6c7)" style="fill: url(#hcfaeeefeab); opacity: 0.8; stroke: #808080; stroke-linejoin: miter"/>
   </g>
   <g id="patch_20">
    <path d="M 337.437666 109.516112 
L 363.279861 109.516112 
L 363.279861 105.144438 
L 337.437666 105.144438 
z
" clip-path="url(#p241cf9d6c7)" style="fill: url(#hcfaeeefeab); opacity: 0.8; stroke: #808080; stroke-linejoin: miter"/>
   </g>
   <g id="patch_21">
    <path d="M 380.507992 109.539426 
L 406.350187 109.539426 
L 406.350187 105.663915 
L 380.507992 105.663915 
z
" clip-path="url(#p241cf9d6c7)" style="fill: url(#hcfaeeefeab); opacity: 0.8; stroke: #808080; stroke-linejoin: miter"/>
   </g>
   <g id="patch_22">
    <path d="M 423.578317 112.696756 
L 449.420513 112.696756 
L 449.420513 109.630944 
L 423.578317 109.630944 
z
" clip-path="url(#p241cf9d6c7)" style="fill: url(#hcfaeeefeab); opacity: 0.8; stroke: #808080; stroke-linejoin: miter"/>
   </g>
   <g id="patch_23">
    <path d="M 466.648643 115.710771 
L 492.490839 115.710771 
L 492.490839 112.459361 
L 466.648643 112.459361 
z
" clip-path="url(#p241cf9d6c7)" style="fill: url(#hcfaeeefeab); opacity: 0.8; stroke: #808080; stroke-linejoin: miter"/>
   </g>
   <g id="patch_24">
    <path d="M 509.718969 119.04849 
L 535.561165 119.04849 
L 535.561165 114.862246 
L 509.718969 114.862246 
z
" clip-path="url(#p241cf9d6c7)" style="fill: url(#hcfaeeefeab); opacity: 0.8; stroke: #808080; stroke-linejoin: miter"/>
   </g>
   <g id="patch_25">
    <path d="M 79.01571 89.884226 
L 104.857906 89.884226 
L 104.857906 27.609922 
L 79.01571 27.609922 
z
" clip-path="url(#p241cf9d6c7)" style="fill: #c0c0c0; opacity: 0.8"/>
   </g>
   <g id="patch_26">
    <path d="M 122.086036 94.737632 
L 147.928232 94.737632 
L 147.928232 24.778542 
L 122.086036 24.778542 
z
" clip-path="url(#p241cf9d6c7)" style="fill: #c0c0c0; opacity: 0.8"/>
   </g>
   <g id="patch_27">
    <path d="M 165.156362 99.396841 
L 190.998558 99.396841 
L 190.998558 23.866435 
L 165.156362 23.866435 
z
" clip-path="url(#p241cf9d6c7)" style="fill: #c0c0c0; opacity: 0.8"/>
   </g>
   <g id="patch_28">
    <path d="M 208.226688 103.937071 
L 234.068883 103.937071 
L 234.068883 23.599207 
L 208.226688 23.599207 
z
" clip-path="url(#p241cf9d6c7)" style="fill: #c0c0c0; opacity: 0.8"/>
   </g>
   <g id="patch_29">
    <path d="M 251.297014 110.097102 
L 277.139209 110.097102 
L 277.139209 23.224551 
L 251.297014 23.224551 
z
" clip-path="url(#p241cf9d6c7)" style="fill: #c0c0c0; opacity: 0.8"/>
   </g>
   <g id="patch_30">
    <path d="M 294.36734 105.698851 
L 320.209535 105.698851 
L 320.209535 22.390079 
L 294.36734 22.390079 
z
" clip-path="url(#p241cf9d6c7)" style="fill: #c0c0c0; opacity: 0.8"/>
   </g>
   <g id="patch_31">
    <path d="M 337.437666 105.144438 
L 363.279861 105.144438 
L 363.279861 22.431632 
L 337.437666 22.431632 
z
" clip-path="url(#p241cf9d6c7)" style="fill: #c0c0c0; opacity: 0.8"/>
   </g>
   <g id="patch_32">
    <path d="M 380.507992 105.663915 
L 406.350187 105.663915 
L 406.350187 22.815823 
L 380.507992 22.815823 
z
" clip-path="url(#p241cf9d6c7)" style="fill: #c0c0c0; opacity: 0.8"/>
   </g>
   <g id="patch_33">
    <path d="M 423.578317 109.630944 
L 449.420513 109.630944 
L 449.420513 23.448749 
L 423.578317 23.448749 
z
" clip-path="url(#p241cf9d6c7)" style="fill: #c0c0c0; opacity: 0.8"/>
   </g>
   <g id="patch_34">
    <path d="M 466.648643 112.459361 
L 492.490839 112.459361 
L 492.490839 23.732057 
L 466.648643 23.732057 
z
" clip-path="url(#p241cf9d6c7)" style="fill: #c0c0c0; opacity: 0.8"/>
   </g>
   <g id="patch_35">
    <path d="M 509.718969 114.862246 
L 535.561165 114.862246 
L 535.561165 23.5368 
L 509.718969 23.5368 
z
" clip-path="url(#p241cf9d6c7)" style="fill: #c0c0c0; opacity: 0.8"/>
   </g>
   <g id="patch_36">
    <path d="M 79.01571 27.609922 
L 104.857906 27.609922 
L 104.857906 17.661964 
L 79.01571 17.661964 
z
" clip-path="url(#p241cf9d6c7)" style="fill: #ff0000; opacity: 0.8"/>
   </g>
   <g id="patch_37">
    <path d="M 122.086036 24.778542 
L 147.928232 24.778542 
L 147.928232 17.661964 
L 122.086036 17.661964 
z
" clip-path="url(#p241cf9d6c7)" style="fill: #ff0000; opacity: 0.8"/>
   </g>
   <g id="patch_38">
    <path d="M 165.156362 23.866435 
L 190.998558 23.866435 
L 190.998558 17.661964 
L 165.156362 17.661964 
z
" clip-path="url(#p241cf9d6c7)" style="fill: #ff0000; opacity: 0.8"/>
   </g>
   <g id="patch_39">
    <path d="M 208.226688 23.599207 
L 234.068883 23.599207 
L 234.068883 17.661964 
L 208.226688 17.661964 
z
" clip-path="url(#p241cf9d6c7)" style="fill: #ff0000; opacity: 0.8"/>
   </g>
   <g id="patch_40">
    <path d="M 251.297014 23.224551 
L 277.139209 23.224551 
L 277.139209 17.661964 
L 251.297014 17.661964 
z
" clip-path="url(#p241cf9d6c7)" style="fill: #ff0000; opacity: 0.8"/>
   </g>
   <g id="patch_41">
    <path d="M 294.36734 22.390079 
L 320.209535 22.390079 
L 320.209535 17.661964 
L 294.36734 17.661964 
z
" clip-path="url(#p241cf9d6c7)" style="fill: #ff0000; opacity: 0.8"/>
   </g>
   <g id="patch_42">
    <path d="M 337.437666 22.431632 
L 363.279861 22.431632 
L 363.279861 17.661964 
L 337.437666 17.661964 
z
" clip-path="url(#p241cf9d6c7)" style="fill: #ff0000; opacity: 0.8"/>
   </g>
   <g id="patch_43">
    <path d="M 380.507992 22.815823 
L 406.350187 22.815823 
L 406.350187 17.661964 
L 380.507992 17.661964 
z
" clip-path="url(#p241cf9d6c7)" style="fill: #ff0000; opacity: 0.8"/>
   </g>
   <g id="patch_44">
    <path d="M 423.578317 23.448749 
L 449.420513 23.448749 
L 449.420513 17.661964 
L 423.578317 17.661964 
z
" clip-path="url(#p241cf9d6c7)" style="fill: #ff0000; opacity: 0.8"/>
   </g>
   <g id="patch_45">
    <path d="M 466.648643 23.732057 
L 492.490839 23.732057 
L 492.490839 17.661964 
L 466.648643 17.661964 
z
" clip-path="url(#p241cf9d6c7)" style="fill: #ff0000; opacity: 0.8"/>
   </g>
   <g id="patch_46">
    <path d="M 509.718969 23.5368 
L 535.561165 23.5368 
L 535.561165 17.661964 
L 509.718969 17.661964 
z
" clip-path="url(#p241cf9d6c7)" style="fill: #ff0000; opacity: 0.8"/>
   </g>
   <g id="matplotlib.axis_1">
    <g id="xtick_1">
     <g id="line2d_1">
      <defs>
       <path id="m299efbe4bc" d="M 0 0 
L 0 3.5 
" style="stroke: #000000; stroke-width: 0.8"/>
      </defs>
      <g>
       <use xlink:href="#m299efbe4bc" x="91.936808" y="172.97625" style="stroke: #000000; stroke-width: 0.8"/>
      </g>
     </g>
     <g id="text_1">
      <!-- 50 -->
      <g transform="translate(84.151495 189.997187)scale(0.14 -0.14)">
       <defs>
        <path id="ArialMT-35" d="M 266 1200 
L 856 1250 
Q 922 819 1161 601 
Q 1400 384 1738 384 
Q 2144 384 2425 690 
Q 2706 997 2706 1503 
Q 2706 1984 2436 2262 
Q 2166 2541 1728 2541 
Q 1456 2541 1237 2417 
Q 1019 2294 894 2097 
L 366 2166 
L 809 4519 
L 3088 4519 
L 3088 3981 
L 1259 3981 
L 1013 2750 
Q 1425 3038 1878 3038 
Q 2478 3038 2890 2622 
Q 3303 2206 3303 1553 
Q 3303 931 2941 478 
Q 2500 -78 1738 -78 
Q 1113 -78 717 272 
Q 322 622 266 1200 
z
" transform="scale(0.015625)"/>
        <path id="ArialMT-30" d="M 266 2259 
Q 266 3072 433 3567 
Q 600 4063 929 4331 
Q 1259 4600 1759 4600 
Q 2128 4600 2406 4451 
Q 2684 4303 2865 4023 
Q 3047 3744 3150 3342 
Q 3253 2941 3253 2259 
Q 3253 1453 3087 958 
Q 2922 463 2592 192 
Q 2263 -78 1759 -78 
Q 1097 -78 719 397 
Q 266 969 266 2259 
z
M 844 2259 
Q 844 1131 1108 757 
Q 1372 384 1759 384 
Q 2147 384 2411 759 
Q 2675 1134 2675 2259 
Q 2675 3391 2411 3762 
Q 2147 4134 1753 4134 
Q 1366 4134 1134 3806 
Q 844 3388 844 2259 
z
" transform="scale(0.015625)"/>
       </defs>
       <use xlink:href="#ArialMT-35"/>
       <use xlink:href="#ArialMT-30" x="55.615234"/>
      </g>
     </g>
    </g>
    <g id="xtick_2">
     <g id="line2d_2">
      <g>
       <use xlink:href="#m299efbe4bc" x="135.007134" y="172.97625" style="stroke: #000000; stroke-width: 0.8"/>
      </g>
     </g>
     <g id="text_2">
      <!-- 100 -->
      <g transform="translate(123.329165 189.997187)scale(0.14 -0.14)">
       <defs>
        <path id="ArialMT-31" d="M 2384 0 
L 1822 0 
L 1822 3584 
Q 1619 3391 1289 3197 
Q 959 3003 697 2906 
L 697 3450 
Q 1169 3672 1522 3987 
Q 1875 4303 2022 4600 
L 2384 4600 
L 2384 0 
z
" transform="scale(0.015625)"/>
       </defs>
       <use xlink:href="#ArialMT-31"/>
       <use xlink:href="#ArialMT-30" x="55.615234"/>
       <use xlink:href="#ArialMT-30" x="111.230469"/>
      </g>
     </g>
    </g>
    <g id="xtick_3">
     <g id="line2d_3">
      <g>
       <use xlink:href="#m299efbe4bc" x="178.07746" y="172.97625" style="stroke: #000000; stroke-width: 0.8"/>
      </g>
     </g>
     <g id="text_3">
      <!-- 150 -->
      <g transform="translate(166.399491 189.997187)scale(0.14 -0.14)">
       <use xlink:href="#ArialMT-31"/>
       <use xlink:href="#ArialMT-35" x="55.615234"/>
       <use xlink:href="#ArialMT-30" x="111.230469"/>
      </g>
     </g>
    </g>
    <g id="xtick_4">
     <g id="line2d_4">
      <g>
       <use xlink:href="#m299efbe4bc" x="221.147786" y="172.97625" style="stroke: #000000; stroke-width: 0.8"/>
      </g>
     </g>
     <g id="text_4">
      <!-- 200 -->
      <g transform="translate(209.469817 189.997187)scale(0.14 -0.14)">
       <defs>
        <path id="ArialMT-32" d="M 3222 541 
L 3222 0 
L 194 0 
Q 188 203 259 391 
Q 375 700 629 1000 
Q 884 1300 1366 1694 
Q 2113 2306 2375 2664 
Q 2638 3022 2638 3341 
Q 2638 3675 2398 3904 
Q 2159 4134 1775 4134 
Q 1369 4134 1125 3890 
Q 881 3647 878 3216 
L 300 3275 
Q 359 3922 746 4261 
Q 1134 4600 1788 4600 
Q 2447 4600 2831 4234 
Q 3216 3869 3216 3328 
Q 3216 3053 3103 2787 
Q 2991 2522 2730 2228 
Q 2469 1934 1863 1422 
Q 1356 997 1212 845 
Q 1069 694 975 541 
L 3222 541 
z
" transform="scale(0.015625)"/>
       </defs>
       <use xlink:href="#ArialMT-32"/>
       <use xlink:href="#ArialMT-30" x="55.615234"/>
       <use xlink:href="#ArialMT-30" x="111.230469"/>
      </g>
     </g>
    </g>
    <g id="xtick_5">
     <g id="line2d_5">
      <g>
       <use xlink:href="#m299efbe4bc" x="264.218112" y="172.97625" style="stroke: #000000; stroke-width: 0.8"/>
      </g>
     </g>
     <g id="text_5">
      <!-- 250 -->
      <g transform="translate(252.540143 189.997187)scale(0.14 -0.14)">
       <use xlink:href="#ArialMT-32"/>
       <use xlink:href="#ArialMT-35" x="55.615234"/>
       <use xlink:href="#ArialMT-30" x="111.230469"/>
      </g>
     </g>
    </g>
    <g id="xtick_6">
     <g id="line2d_6">
      <g>
       <use xlink:href="#m299efbe4bc" x="307.288437" y="172.97625" style="stroke: #000000; stroke-width: 0.8"/>
      </g>
     </g>
     <g id="text_6">
      <!-- 300 -->
      <g transform="translate(295.610469 189.997187)scale(0.14 -0.14)">
       <defs>
        <path id="ArialMT-33" d="M 269 1209 
L 831 1284 
Q 928 806 1161 595 
Q 1394 384 1728 384 
Q 2125 384 2398 659 
Q 2672 934 2672 1341 
Q 2672 1728 2419 1979 
Q 2166 2231 1775 2231 
Q 1616 2231 1378 2169 
L 1441 2663 
Q 1497 2656 1531 2656 
Q 1891 2656 2178 2843 
Q 2466 3031 2466 3422 
Q 2466 3731 2256 3934 
Q 2047 4138 1716 4138 
Q 1388 4138 1169 3931 
Q 950 3725 888 3313 
L 325 3413 
Q 428 3978 793 4289 
Q 1159 4600 1703 4600 
Q 2078 4600 2393 4439 
Q 2709 4278 2876 4000 
Q 3044 3722 3044 3409 
Q 3044 3113 2884 2869 
Q 2725 2625 2413 2481 
Q 2819 2388 3044 2092 
Q 3269 1797 3269 1353 
Q 3269 753 2831 336 
Q 2394 -81 1725 -81 
Q 1122 -81 723 278 
Q 325 638 269 1209 
z
" transform="scale(0.015625)"/>
       </defs>
       <use xlink:href="#ArialMT-33"/>
       <use xlink:href="#ArialMT-30" x="55.615234"/>
       <use xlink:href="#ArialMT-30" x="111.230469"/>
      </g>
     </g>
    </g>
    <g id="xtick_7">
     <g id="line2d_7">
      <g>
       <use xlink:href="#m299efbe4bc" x="350.358763" y="172.97625" style="stroke: #000000; stroke-width: 0.8"/>
      </g>
     </g>
     <g id="text_7">
      <!-- 350 -->
      <g transform="translate(338.680795 189.997187)scale(0.14 -0.14)">
       <use xlink:href="#ArialMT-33"/>
       <use xlink:href="#ArialMT-35" x="55.615234"/>
       <use xlink:href="#ArialMT-30" x="111.230469"/>
      </g>
     </g>
    </g>
    <g id="xtick_8">
     <g id="line2d_8">
      <g>
       <use xlink:href="#m299efbe4bc" x="393.429089" y="172.97625" style="stroke: #000000; stroke-width: 0.8"/>
      </g>
     </g>
     <g id="text_8">
      <!-- 400 -->
      <g transform="translate(381.751121 189.997187)scale(0.14 -0.14)">
       <defs>
        <path id="ArialMT-34" d="M 2069 0 
L 2069 1097 
L 81 1097 
L 81 1613 
L 2172 4581 
L 2631 4581 
L 2631 1613 
L 3250 1613 
L 3250 1097 
L 2631 1097 
L 2631 0 
L 2069 0 
z
M 2069 1613 
L 2069 3678 
L 634 1613 
L 2069 1613 
z
" transform="scale(0.015625)"/>
       </defs>
       <use xlink:href="#ArialMT-34"/>
       <use xlink:href="#ArialMT-30" x="55.615234"/>
       <use xlink:href="#ArialMT-30" x="111.230469"/>
      </g>
     </g>
    </g>
    <g id="xtick_9">
     <g id="line2d_9">
      <g>
       <use xlink:href="#m299efbe4bc" x="436.499415" y="172.97625" style="stroke: #000000; stroke-width: 0.8"/>
      </g>
     </g>
     <g id="text_9">
      <!-- 450 -->
      <g transform="translate(424.821446 189.997187)scale(0.14 -0.14)">
       <use xlink:href="#ArialMT-34"/>
       <use xlink:href="#ArialMT-35" x="55.615234"/>
       <use xlink:href="#ArialMT-30" x="111.230469"/>
      </g>
     </g>
    </g>
    <g id="xtick_10">
     <g id="line2d_10">
      <g>
       <use xlink:href="#m299efbe4bc" x="479.569741" y="172.97625" style="stroke: #000000; stroke-width: 0.8"/>
      </g>
     </g>
     <g id="text_10">
      <!-- 500 -->
      <g transform="translate(467.891772 189.997187)scale(0.14 -0.14)">
       <use xlink:href="#ArialMT-35"/>
       <use xlink:href="#ArialMT-30" x="55.615234"/>
       <use xlink:href="#ArialMT-30" x="111.230469"/>
      </g>
     </g>
    </g>
    <g id="xtick_11">
     <g id="line2d_11">
      <g>
       <use xlink:href="#m299efbe4bc" x="522.640067" y="172.97625" style="stroke: #000000; stroke-width: 0.8"/>
      </g>
     </g>
     <g id="text_11">
      <!-- 550 -->
      <g transform="translate(510.962098 189.997187)scale(0.14 -0.14)">
       <use xlink:href="#ArialMT-35"/>
       <use xlink:href="#ArialMT-35" x="55.615234"/>
       <use xlink:href="#ArialMT-30" x="111.230469"/>
      </g>
     </g>
    </g>
    <g id="text_12">
     <!-- Number of Nodes -->
     <g transform="translate(240.678984 208.947969)scale(0.17 -0.17)">
      <defs>
       <path id="ArialMT-4e" d="M 488 0 
L 488 4581 
L 1109 4581 
L 3516 984 
L 3516 4581 
L 4097 4581 
L 4097 0 
L 3475 0 
L 1069 3600 
L 1069 0 
L 488 0 
z
" transform="scale(0.015625)"/>
       <path id="ArialMT-75" d="M 2597 0 
L 2597 488 
Q 2209 -75 1544 -75 
Q 1250 -75 995 37 
Q 741 150 617 320 
Q 494 491 444 738 
Q 409 903 409 1263 
L 409 3319 
L 972 3319 
L 972 1478 
Q 972 1038 1006 884 
Q 1059 663 1231 536 
Q 1403 409 1656 409 
Q 1909 409 2131 539 
Q 2353 669 2445 892 
Q 2538 1116 2538 1541 
L 2538 3319 
L 3100 3319 
L 3100 0 
L 2597 0 
z
" transform="scale(0.015625)"/>
       <path id="ArialMT-6d" d="M 422 0 
L 422 3319 
L 925 3319 
L 925 2853 
Q 1081 3097 1340 3245 
Q 1600 3394 1931 3394 
Q 2300 3394 2536 3241 
Q 2772 3088 2869 2813 
Q 3263 3394 3894 3394 
Q 4388 3394 4653 3120 
Q 4919 2847 4919 2278 
L 4919 0 
L 4359 0 
L 4359 2091 
Q 4359 2428 4304 2576 
Q 4250 2725 4106 2815 
Q 3963 2906 3769 2906 
Q 3419 2906 3187 2673 
Q 2956 2441 2956 1928 
L 2956 0 
L 2394 0 
L 2394 2156 
Q 2394 2531 2256 2718 
Q 2119 2906 1806 2906 
Q 1569 2906 1367 2781 
Q 1166 2656 1075 2415 
Q 984 2175 984 1722 
L 984 0 
L 422 0 
z
" transform="scale(0.015625)"/>
       <path id="ArialMT-62" d="M 941 0 
L 419 0 
L 419 4581 
L 981 4581 
L 981 2947 
Q 1338 3394 1891 3394 
Q 2197 3394 2470 3270 
Q 2744 3147 2920 2923 
Q 3097 2700 3197 2384 
Q 3297 2069 3297 1709 
Q 3297 856 2875 390 
Q 2453 -75 1863 -75 
Q 1275 -75 941 416 
L 941 0 
z
M 934 1684 
Q 934 1088 1097 822 
Q 1363 388 1816 388 
Q 2184 388 2453 708 
Q 2722 1028 2722 1663 
Q 2722 2313 2464 2622 
Q 2206 2931 1841 2931 
Q 1472 2931 1203 2611 
Q 934 2291 934 1684 
z
" transform="scale(0.015625)"/>
       <path id="ArialMT-65" d="M 2694 1069 
L 3275 997 
Q 3138 488 2766 206 
Q 2394 -75 1816 -75 
Q 1088 -75 661 373 
Q 234 822 234 1631 
Q 234 2469 665 2931 
Q 1097 3394 1784 3394 
Q 2450 3394 2872 2941 
Q 3294 2488 3294 1666 
Q 3294 1616 3291 1516 
L 816 1516 
Q 847 969 1125 678 
Q 1403 388 1819 388 
Q 2128 388 2347 550 
Q 2566 713 2694 1069 
z
M 847 1978 
L 2700 1978 
Q 2663 2397 2488 2606 
Q 2219 2931 1791 2931 
Q 1403 2931 1139 2672 
Q 875 2413 847 1978 
z
" transform="scale(0.015625)"/>
       <path id="ArialMT-72" d="M 416 0 
L 416 3319 
L 922 3319 
L 922 2816 
Q 1116 3169 1280 3281 
Q 1444 3394 1641 3394 
Q 1925 3394 2219 3213 
L 2025 2691 
Q 1819 2813 1613 2813 
Q 1428 2813 1281 2702 
Q 1134 2591 1072 2394 
Q 978 2094 978 1738 
L 978 0 
L 416 0 
z
" transform="scale(0.015625)"/>
       <path id="ArialMT-20" transform="scale(0.015625)"/>
       <path id="ArialMT-6f" d="M 213 1659 
Q 213 2581 725 3025 
Q 1153 3394 1769 3394 
Q 2453 3394 2887 2945 
Q 3322 2497 3322 1706 
Q 3322 1066 3130 698 
Q 2938 331 2570 128 
Q 2203 -75 1769 -75 
Q 1072 -75 642 372 
Q 213 819 213 1659 
z
M 791 1659 
Q 791 1022 1069 705 
Q 1347 388 1769 388 
Q 2188 388 2466 706 
Q 2744 1025 2744 1678 
Q 2744 2294 2464 2611 
Q 2184 2928 1769 2928 
Q 1347 2928 1069 2612 
Q 791 2297 791 1659 
z
" transform="scale(0.015625)"/>
       <path id="ArialMT-66" d="M 556 0 
L 556 2881 
L 59 2881 
L 59 3319 
L 556 3319 
L 556 3672 
Q 556 4006 616 4169 
Q 697 4388 901 4523 
Q 1106 4659 1475 4659 
Q 1713 4659 2000 4603 
L 1916 4113 
Q 1741 4144 1584 4144 
Q 1328 4144 1222 4034 
Q 1116 3925 1116 3625 
L 1116 3319 
L 1763 3319 
L 1763 2881 
L 1116 2881 
L 1116 0 
L 556 0 
z
" transform="scale(0.015625)"/>
       <path id="ArialMT-64" d="M 2575 0 
L 2575 419 
Q 2259 -75 1647 -75 
Q 1250 -75 917 144 
Q 584 363 401 755 
Q 219 1147 219 1656 
Q 219 2153 384 2558 
Q 550 2963 881 3178 
Q 1213 3394 1622 3394 
Q 1922 3394 2156 3267 
Q 2391 3141 2538 2938 
L 2538 4581 
L 3097 4581 
L 3097 0 
L 2575 0 
z
M 797 1656 
Q 797 1019 1065 703 
Q 1334 388 1700 388 
Q 2069 388 2326 689 
Q 2584 991 2584 1609 
Q 2584 2291 2321 2609 
Q 2059 2928 1675 2928 
Q 1300 2928 1048 2622 
Q 797 2316 797 1656 
z
" transform="scale(0.015625)"/>
       <path id="ArialMT-73" d="M 197 991 
L 753 1078 
Q 800 744 1014 566 
Q 1228 388 1613 388 
Q 2000 388 2187 545 
Q 2375 703 2375 916 
Q 2375 1106 2209 1216 
Q 2094 1291 1634 1406 
Q 1016 1563 777 1677 
Q 538 1791 414 1992 
Q 291 2194 291 2438 
Q 291 2659 392 2848 
Q 494 3038 669 3163 
Q 800 3259 1026 3326 
Q 1253 3394 1513 3394 
Q 1903 3394 2198 3281 
Q 2494 3169 2634 2976 
Q 2775 2784 2828 2463 
L 2278 2388 
Q 2241 2644 2061 2787 
Q 1881 2931 1553 2931 
Q 1166 2931 1000 2803 
Q 834 2675 834 2503 
Q 834 2394 903 2306 
Q 972 2216 1119 2156 
Q 1203 2125 1616 2013 
Q 2213 1853 2448 1751 
Q 2684 1650 2818 1456 
Q 2953 1263 2953 975 
Q 2953 694 2789 445 
Q 2625 197 2315 61 
Q 2006 -75 1616 -75 
Q 969 -75 630 194 
Q 291 463 197 991 
z
" transform="scale(0.015625)"/>
      </defs>
      <use xlink:href="#ArialMT-4e"/>
      <use xlink:href="#ArialMT-75" x="72.216797"/>
      <use xlink:href="#ArialMT-6d" x="127.832031"/>
      <use xlink:href="#ArialMT-62" x="211.132812"/>
      <use xlink:href="#ArialMT-65" x="266.748047"/>
      <use xlink:href="#ArialMT-72" x="322.363281"/>
      <use xlink:href="#ArialMT-20" x="355.664062"/>
      <use xlink:href="#ArialMT-6f" x="383.447266"/>
      <use xlink:href="#ArialMT-66" x="439.0625"/>
      <use xlink:href="#ArialMT-20" x="466.845703"/>
      <use xlink:href="#ArialMT-4e" x="494.628906"/>
      <use xlink:href="#ArialMT-6f" x="566.845703"/>
      <use xlink:href="#ArialMT-64" x="622.460938"/>
      <use xlink:href="#ArialMT-65" x="678.076172"/>
      <use xlink:href="#ArialMT-73" x="733.691406"/>
     </g>
    </g>
   </g>
   <g id="matplotlib.axis_2">
    <g id="ytick_1">
     <g id="line2d_12">
      <defs>
       <path id="m54ff1c541c" d="M 0 0 
L -3.5 0 
" style="stroke: #000000; stroke-width: 0.8"/>
      </defs>
      <g>
       <use xlink:href="#m54ff1c541c" x="56.188438" y="172.97625" style="stroke: #000000; stroke-width: 0.8"/>
      </g>
     </g>
     <g id="text_13">
      <!-- 0 -->
      <g transform="translate(41.403125 177.986719)scale(0.14 -0.14)">
       <use xlink:href="#ArialMT-30"/>
      </g>
     </g>
    </g>
    <g id="ytick_2">
     <g id="line2d_13">
      <g>
       <use xlink:href="#m54ff1c541c" x="56.188438" y="141.913393" style="stroke: #000000; stroke-width: 0.8"/>
      </g>
     </g>
     <g id="text_14">
      <!-- 20 -->
      <g transform="translate(33.617813 146.923862)scale(0.14 -0.14)">
       <use xlink:href="#ArialMT-32"/>
       <use xlink:href="#ArialMT-30" x="55.615234"/>
      </g>
     </g>
    </g>
    <g id="ytick_3">
     <g id="line2d_14">
      <g>
       <use xlink:href="#m54ff1c541c" x="56.188438" y="110.850536" style="stroke: #000000; stroke-width: 0.8"/>
      </g>
     </g>
     <g id="text_15">
      <!-- 40 -->
      <g transform="translate(33.617813 115.861004)scale(0.14 -0.14)">
       <use xlink:href="#ArialMT-34"/>
       <use xlink:href="#ArialMT-30" x="55.615234"/>
      </g>
     </g>
    </g>
    <g id="ytick_4">
     <g id="line2d_15">
      <g>
       <use xlink:href="#m54ff1c541c" x="56.188438" y="79.787679" style="stroke: #000000; stroke-width: 0.8"/>
      </g>
     </g>
     <g id="text_16">
      <!-- 60 -->
      <g transform="translate(33.617813 84.798147)scale(0.14 -0.14)">
       <defs>
        <path id="ArialMT-36" d="M 3184 3459 
L 2625 3416 
Q 2550 3747 2413 3897 
Q 2184 4138 1850 4138 
Q 1581 4138 1378 3988 
Q 1113 3794 959 3422 
Q 806 3050 800 2363 
Q 1003 2672 1297 2822 
Q 1591 2972 1913 2972 
Q 2475 2972 2870 2558 
Q 3266 2144 3266 1488 
Q 3266 1056 3080 686 
Q 2894 316 2569 119 
Q 2244 -78 1831 -78 
Q 1128 -78 684 439 
Q 241 956 241 2144 
Q 241 3472 731 4075 
Q 1159 4600 1884 4600 
Q 2425 4600 2770 4297 
Q 3116 3994 3184 3459 
z
M 888 1484 
Q 888 1194 1011 928 
Q 1134 663 1356 523 
Q 1578 384 1822 384 
Q 2178 384 2434 671 
Q 2691 959 2691 1453 
Q 2691 1928 2437 2201 
Q 2184 2475 1800 2475 
Q 1419 2475 1153 2201 
Q 888 1928 888 1484 
z
" transform="scale(0.015625)"/>
       </defs>
       <use xlink:href="#ArialMT-36"/>
       <use xlink:href="#ArialMT-30" x="55.615234"/>
      </g>
     </g>
    </g>
    <g id="ytick_5">
     <g id="line2d_16">
      <g>
       <use xlink:href="#m54ff1c541c" x="56.188438" y="48.724821" style="stroke: #000000; stroke-width: 0.8"/>
      </g>
     </g>
     <g id="text_17">
      <!-- 80 -->
      <g transform="translate(33.617813 53.73529)scale(0.14 -0.14)">
       <defs>
        <path id="ArialMT-38" d="M 1131 2484 
Q 781 2613 612 2850 
Q 444 3088 444 3419 
Q 444 3919 803 4259 
Q 1163 4600 1759 4600 
Q 2359 4600 2725 4251 
Q 3091 3903 3091 3403 
Q 3091 3084 2923 2848 
Q 2756 2613 2416 2484 
Q 2838 2347 3058 2040 
Q 3278 1734 3278 1309 
Q 3278 722 2862 322 
Q 2447 -78 1769 -78 
Q 1091 -78 675 323 
Q 259 725 259 1325 
Q 259 1772 486 2073 
Q 713 2375 1131 2484 
z
M 1019 3438 
Q 1019 3113 1228 2906 
Q 1438 2700 1772 2700 
Q 2097 2700 2305 2904 
Q 2513 3109 2513 3406 
Q 2513 3716 2298 3927 
Q 2084 4138 1766 4138 
Q 1444 4138 1231 3931 
Q 1019 3725 1019 3438 
z
M 838 1322 
Q 838 1081 952 856 
Q 1066 631 1291 507 
Q 1516 384 1775 384 
Q 2178 384 2440 643 
Q 2703 903 2703 1303 
Q 2703 1709 2433 1975 
Q 2163 2241 1756 2241 
Q 1359 2241 1098 1978 
Q 838 1716 838 1322 
z
" transform="scale(0.015625)"/>
       </defs>
       <use xlink:href="#ArialMT-38"/>
       <use xlink:href="#ArialMT-30" x="55.615234"/>
      </g>
     </g>
    </g>
    <g id="ytick_6">
     <g id="line2d_17">
      <g>
       <use xlink:href="#m54ff1c541c" x="56.188438" y="17.661964" style="stroke: #000000; stroke-width: 0.8"/>
      </g>
     </g>
     <g id="text_18">
      <!-- 100 -->
      <g transform="translate(25.8325 22.672433)scale(0.14 -0.14)">
       <use xlink:href="#ArialMT-31"/>
       <use xlink:href="#ArialMT-30" x="55.615234"/>
       <use xlink:href="#ArialMT-30" x="111.230469"/>
      </g>
     </g>
    </g>
    <g id="text_19">
     <!-- % of Node -->
     <g transform="translate(18.6525 128.79)rotate(-90)scale(0.16 -0.16)">
      <defs>
       <path id="ArialMT-25" d="M 372 3481 
Q 372 3972 619 4315 
Q 866 4659 1334 4659 
Q 1766 4659 2048 4351 
Q 2331 4044 2331 3447 
Q 2331 2866 2045 2552 
Q 1759 2238 1341 2238 
Q 925 2238 648 2547 
Q 372 2856 372 3481 
z
M 1350 4272 
Q 1141 4272 1002 4090 
Q 863 3909 863 3425 
Q 863 2984 1003 2804 
Q 1144 2625 1350 2625 
Q 1563 2625 1702 2806 
Q 1841 2988 1841 3469 
Q 1841 3913 1700 4092 
Q 1559 4272 1350 4272 
z
M 1353 -169 
L 3859 4659 
L 4316 4659 
L 1819 -169 
L 1353 -169 
z
M 3334 1075 
Q 3334 1569 3581 1911 
Q 3828 2253 4300 2253 
Q 4731 2253 5014 1945 
Q 5297 1638 5297 1041 
Q 5297 459 5011 145 
Q 4725 -169 4303 -169 
Q 3888 -169 3611 142 
Q 3334 453 3334 1075 
z
M 4316 1866 
Q 4103 1866 3964 1684 
Q 3825 1503 3825 1019 
Q 3825 581 3965 400 
Q 4106 219 4313 219 
Q 4528 219 4667 400 
Q 4806 581 4806 1063 
Q 4806 1506 4665 1686 
Q 4525 1866 4316 1866 
z
" transform="scale(0.015625)"/>
      </defs>
      <use xlink:href="#ArialMT-25"/>
      <use xlink:href="#ArialMT-20" x="88.916016"/>
      <use xlink:href="#ArialMT-6f" x="116.699219"/>
      <use xlink:href="#ArialMT-66" x="172.314453"/>
      <use xlink:href="#ArialMT-20" x="200.097656"/>
      <use xlink:href="#ArialMT-4e" x="227.880859"/>
      <use xlink:href="#ArialMT-6f" x="300.097656"/>
      <use xlink:href="#ArialMT-64" x="355.712891"/>
      <use xlink:href="#ArialMT-65" x="411.328125"/>
     </g>
    </g>
   </g>
   <g id="LineCollection_1">
    <path d="M 91.936808 106.236676 
L 91.936808 83.519351 
" clip-path="url(#p241cf9d6c7)" style="fill: none; stroke: #696969; stroke-width: 2"/>
    <path d="M 135.007134 102.996294 
L 135.007134 93.608758 
" clip-path="url(#p241cf9d6c7)" style="fill: none; stroke: #696969; stroke-width: 2"/>
    <path d="M 178.07746 107.047638 
L 178.07746 97.103755 
" clip-path="url(#p241cf9d6c7)" style="fill: none; stroke: #696969; stroke-width: 2"/>
    <path d="M 221.147786 111.667555 
L 221.147786 102.985535 
" clip-path="url(#p241cf9d6c7)" style="fill: none; stroke: #696969; stroke-width: 2"/>
    <path d="M 264.218112 115.30443 
L 264.218112 111.573745 
" clip-path="url(#p241cf9d6c7)" style="fill: none; stroke: #696969; stroke-width: 2"/>
    <path d="M 307.288437 112.385822 
L 307.288437 108.364914 
" clip-path="url(#p241cf9d6c7)" style="fill: none; stroke: #696969; stroke-width: 2"/>
    <path d="M 350.358763 112.181638 
L 350.358763 106.850585 
" clip-path="url(#p241cf9d6c7)" style="fill: none; stroke: #696969; stroke-width: 2"/>
    <path d="M 393.429089 111.588122 
L 393.429089 107.49073 
" clip-path="url(#p241cf9d6c7)" style="fill: none; stroke: #696969; stroke-width: 2"/>
    <path d="M 436.499415 114.929292 
L 436.499415 110.464219 
" clip-path="url(#p241cf9d6c7)" style="fill: none; stroke: #696969; stroke-width: 2"/>
    <path d="M 479.569741 117.073598 
L 479.569741 114.347943 
" clip-path="url(#p241cf9d6c7)" style="fill: none; stroke: #696969; stroke-width: 2"/>
    <path d="M 522.640067 120.442326 
L 522.640067 117.654653 
" clip-path="url(#p241cf9d6c7)" style="fill: none; stroke: #696969; stroke-width: 2"/>
   </g>
   <g id="line2d_18">
    <defs>
     <path id="m987ff1ec28" d="M 2 0 
L -2 -0 
" style="stroke: #696969"/>
    </defs>
    <g clip-path="url(#p241cf9d6c7)">
     <use xlink:href="#m987ff1ec28" x="91.936808" y="106.236676" style="fill: #696969; stroke: #696969"/>
     <use xlink:href="#m987ff1ec28" x="135.007134" y="102.996294" style="fill: #696969; stroke: #696969"/>
     <use xlink:href="#m987ff1ec28" x="178.07746" y="107.047638" style="fill: #696969; stroke: #696969"/>
     <use xlink:href="#m987ff1ec28" x="221.147786" y="111.667555" style="fill: #696969; stroke: #696969"/>
     <use xlink:href="#m987ff1ec28" x="264.218112" y="115.30443" style="fill: #696969; stroke: #696969"/>
     <use xlink:href="#m987ff1ec28" x="307.288437" y="112.385822" style="fill: #696969; stroke: #696969"/>
     <use xlink:href="#m987ff1ec28" x="350.358763" y="112.181638" style="fill: #696969; stroke: #696969"/>
     <use xlink:href="#m987ff1ec28" x="393.429089" y="111.588122" style="fill: #696969; stroke: #696969"/>
     <use xlink:href="#m987ff1ec28" x="436.499415" y="114.929292" style="fill: #696969; stroke: #696969"/>
     <use xlink:href="#m987ff1ec28" x="479.569741" y="117.073598" style="fill: #696969; stroke: #696969"/>
     <use xlink:href="#m987ff1ec28" x="522.640067" y="120.442326" style="fill: #696969; stroke: #696969"/>
    </g>
   </g>
   <g id="line2d_19">
    <g clip-path="url(#p241cf9d6c7)">
     <use xlink:href="#m987ff1ec28" x="91.936808" y="83.519351" style="fill: #696969; stroke: #696969"/>
     <use xlink:href="#m987ff1ec28" x="135.007134" y="93.608758" style="fill: #696969; stroke: #696969"/>
     <use xlink:href="#m987ff1ec28" x="178.07746" y="97.103755" style="fill: #696969; stroke: #696969"/>
     <use xlink:href="#m987ff1ec28" x="221.147786" y="102.985535" style="fill: #696969; stroke: #696969"/>
     <use xlink:href="#m987ff1ec28" x="264.218112" y="111.573745" style="fill: #696969; stroke: #696969"/>
     <use xlink:href="#m987ff1ec28" x="307.288437" y="108.364914" style="fill: #696969; stroke: #696969"/>
     <use xlink:href="#m987ff1ec28" x="350.358763" y="106.850585" style="fill: #696969; stroke: #696969"/>
     <use xlink:href="#m987ff1ec28" x="393.429089" y="107.49073" style="fill: #696969; stroke: #696969"/>
     <use xlink:href="#m987ff1ec28" x="436.499415" y="110.464219" style="fill: #696969; stroke: #696969"/>
     <use xlink:href="#m987ff1ec28" x="479.569741" y="114.347943" style="fill: #696969; stroke: #696969"/>
     <use xlink:href="#m987ff1ec28" x="522.640067" y="117.654653" style="fill: #696969; stroke: #696969"/>
    </g>
   </g>
   <g id="LineCollection_2">
    <path d="M 91.936808 92.028081 
L 91.936808 87.740371 
" clip-path="url(#p241cf9d6c7)" style="fill: none; stroke: #8b0000; stroke-width: 2"/>
    <path d="M 135.007134 96.572837 
L 135.007134 92.902428 
" clip-path="url(#p241cf9d6c7)" style="fill: none; stroke: #8b0000; stroke-width: 2"/>
    <path d="M 178.07746 100.570636 
L 178.07746 98.223045 
" clip-path="url(#p241cf9d6c7)" style="fill: none; stroke: #8b0000; stroke-width: 2"/>
    <path d="M 221.147786 105.032241 
L 221.147786 102.841901 
" clip-path="url(#p241cf9d6c7)" style="fill: none; stroke: #8b0000; stroke-width: 2"/>
    <path d="M 264.218112 111.083918 
L 264.218112 109.110285 
" clip-path="url(#p241cf9d6c7)" style="fill: none; stroke: #8b0000; stroke-width: 2"/>
    <path d="M 307.288437 106.400634 
L 307.288437 104.997069 
" clip-path="url(#p241cf9d6c7)" style="fill: none; stroke: #8b0000; stroke-width: 2"/>
    <path d="M 350.358763 105.579662 
L 350.358763 104.709213 
" clip-path="url(#p241cf9d6c7)" style="fill: none; stroke: #8b0000; stroke-width: 2"/>
    <path d="M 393.429089 106.244086 
L 393.429089 105.083743 
" clip-path="url(#p241cf9d6c7)" style="fill: none; stroke: #8b0000; stroke-width: 2"/>
    <path d="M 436.499415 110.329343 
L 436.499415 108.932545 
" clip-path="url(#p241cf9d6c7)" style="fill: none; stroke: #8b0000; stroke-width: 2"/>
    <path d="M 479.569741 112.847507 
L 479.569741 112.071216 
" clip-path="url(#p241cf9d6c7)" style="fill: none; stroke: #8b0000; stroke-width: 2"/>
    <path d="M 522.640067 115.041742 
L 522.640067 114.68275 
" clip-path="url(#p241cf9d6c7)" style="fill: none; stroke: #8b0000; stroke-width: 2"/>
   </g>
   <g id="line2d_20">
    <defs>
     <path id="m38ebd603bc" d="M 2 0 
L -2 -0 
" style="stroke: #8b0000"/>
    </defs>
    <g clip-path="url(#p241cf9d6c7)">
     <use xlink:href="#m38ebd603bc" x="91.936808" y="92.028081" style="fill: #8b0000; stroke: #8b0000"/>
     <use xlink:href="#m38ebd603bc" x="135.007134" y="96.572837" style="fill: #8b0000; stroke: #8b0000"/>
     <use xlink:href="#m38ebd603bc" x="178.07746" y="100.570636" style="fill: #8b0000; stroke: #8b0000"/>
     <use xlink:href="#m38ebd603bc" x="221.147786" y="105.032241" style="fill: #8b0000; stroke: #8b0000"/>
     <use xlink:href="#m38ebd603bc" x="264.218112" y="111.083918" style="fill: #8b0000; stroke: #8b0000"/>
     <use xlink:href="#m38ebd603bc" x="307.288437" y="106.400634" style="fill: #8b0000; stroke: #8b0000"/>
     <use xlink:href="#m38ebd603bc" x="350.358763" y="105.579662" style="fill: #8b0000; stroke: #8b0000"/>
     <use xlink:href="#m38ebd603bc" x="393.429089" y="106.244086" style="fill: #8b0000; stroke: #8b0000"/>
     <use xlink:href="#m38ebd603bc" x="436.499415" y="110.329343" style="fill: #8b0000; stroke: #8b0000"/>
     <use xlink:href="#m38ebd603bc" x="479.569741" y="112.847507" style="fill: #8b0000; stroke: #8b0000"/>
     <use xlink:href="#m38ebd603bc" x="522.640067" y="115.041742" style="fill: #8b0000; stroke: #8b0000"/>
    </g>
   </g>
   <g id="line2d_21">
    <g clip-path="url(#p241cf9d6c7)">
     <use xlink:href="#m38ebd603bc" x="91.936808" y="87.740371" style="fill: #8b0000; stroke: #8b0000"/>
     <use xlink:href="#m38ebd603bc" x="135.007134" y="92.902428" style="fill: #8b0000; stroke: #8b0000"/>
     <use xlink:href="#m38ebd603bc" x="178.07746" y="98.223045" style="fill: #8b0000; stroke: #8b0000"/>
     <use xlink:href="#m38ebd603bc" x="221.147786" y="102.841901" style="fill: #8b0000; stroke: #8b0000"/>
     <use xlink:href="#m38ebd603bc" x="264.218112" y="109.110285" style="fill: #8b0000; stroke: #8b0000"/>
     <use xlink:href="#m38ebd603bc" x="307.288437" y="104.997069" style="fill: #8b0000; stroke: #8b0000"/>
     <use xlink:href="#m38ebd603bc" x="350.358763" y="104.709213" style="fill: #8b0000; stroke: #8b0000"/>
     <use xlink:href="#m38ebd603bc" x="393.429089" y="105.083743" style="fill: #8b0000; stroke: #8b0000"/>
     <use xlink:href="#m38ebd603bc" x="436.499415" y="108.932545" style="fill: #8b0000; stroke: #8b0000"/>
     <use xlink:href="#m38ebd603bc" x="479.569741" y="112.071216" style="fill: #8b0000; stroke: #8b0000"/>
     <use xlink:href="#m38ebd603bc" x="522.640067" y="114.68275" style="fill: #8b0000; stroke: #8b0000"/>
    </g>
   </g>
   <g id="LineCollection_3">
    <path d="M 91.936808 38.868792 
L 91.936808 16.351051 
" clip-path="url(#p241cf9d6c7)" style="fill: none; stroke: #696969; stroke-width: 2"/>
    <path d="M 135.007134 27.95918 
L 135.007134 21.597904 
" clip-path="url(#p241cf9d6c7)" style="fill: none; stroke: #696969; stroke-width: 2"/>
    <path d="M 178.07746 29.461356 
L 178.07746 18.271514 
" clip-path="url(#p241cf9d6c7)" style="fill: none; stroke: #696969; stroke-width: 2"/>
    <path d="M 221.147786 27.915791 
L 221.147786 19.282622 
" clip-path="url(#p241cf9d6c7)" style="fill: none; stroke: #696969; stroke-width: 2"/>
    <path d="M 264.218112 24.67255 
L 264.218112 21.776551 
" clip-path="url(#p241cf9d6c7)" style="fill: none; stroke: #696969; stroke-width: 2"/>
    <path d="M 307.288437 24.238366 
L 307.288437 20.541793 
" clip-path="url(#p241cf9d6c7)" style="fill: none; stroke: #696969; stroke-width: 2"/>
    <path d="M 350.358763 24.981198 
L 350.358763 19.882065 
" clip-path="url(#p241cf9d6c7)" style="fill: none; stroke: #696969; stroke-width: 2"/>
    <path d="M 393.429089 24.784669 
L 393.429089 20.846978 
" clip-path="url(#p241cf9d6c7)" style="fill: none; stroke: #696969; stroke-width: 2"/>
    <path d="M 436.499415 25.571136 
L 436.499415 21.326361 
" clip-path="url(#p241cf9d6c7)" style="fill: none; stroke: #696969; stroke-width: 2"/>
    <path d="M 479.569741 24.921413 
L 479.569741 22.542701 
" clip-path="url(#p241cf9d6c7)" style="fill: none; stroke: #696969; stroke-width: 2"/>
    <path d="M 522.640067 25.009665 
L 522.640067 22.063934 
" clip-path="url(#p241cf9d6c7)" style="fill: none; stroke: #696969; stroke-width: 2"/>
   </g>
   <g id="line2d_22">
    <g clip-path="url(#p241cf9d6c7)">
     <use xlink:href="#m987ff1ec28" x="91.936808" y="38.868792" style="fill: #696969; stroke: #696969"/>
     <use xlink:href="#m987ff1ec28" x="135.007134" y="27.95918" style="fill: #696969; stroke: #696969"/>
     <use xlink:href="#m987ff1ec28" x="178.07746" y="29.461356" style="fill: #696969; stroke: #696969"/>
     <use xlink:href="#m987ff1ec28" x="221.147786" y="27.915791" style="fill: #696969; stroke: #696969"/>
     <use xlink:href="#m987ff1ec28" x="264.218112" y="24.67255" style="fill: #696969; stroke: #696969"/>
     <use xlink:href="#m987ff1ec28" x="307.288437" y="24.238366" style="fill: #696969; stroke: #696969"/>
     <use xlink:href="#m987ff1ec28" x="350.358763" y="24.981198" style="fill: #696969; stroke: #696969"/>
     <use xlink:href="#m987ff1ec28" x="393.429089" y="24.784669" style="fill: #696969; stroke: #696969"/>
     <use xlink:href="#m987ff1ec28" x="436.499415" y="25.571136" style="fill: #696969; stroke: #696969"/>
     <use xlink:href="#m987ff1ec28" x="479.569741" y="24.921413" style="fill: #696969; stroke: #696969"/>
     <use xlink:href="#m987ff1ec28" x="522.640067" y="25.009665" style="fill: #696969; stroke: #696969"/>
    </g>
   </g>
   <g id="line2d_23">
    <g clip-path="url(#p241cf9d6c7)">
     <use xlink:href="#m987ff1ec28" x="91.936808" y="16.351051" style="fill: #696969; stroke: #696969"/>
     <use xlink:href="#m987ff1ec28" x="135.007134" y="21.597904" style="fill: #696969; stroke: #696969"/>
     <use xlink:href="#m987ff1ec28" x="178.07746" y="18.271514" style="fill: #696969; stroke: #696969"/>
     <use xlink:href="#m987ff1ec28" x="221.147786" y="19.282622" style="fill: #696969; stroke: #696969"/>
     <use xlink:href="#m987ff1ec28" x="264.218112" y="21.776551" style="fill: #696969; stroke: #696969"/>
     <use xlink:href="#m987ff1ec28" x="307.288437" y="20.541793" style="fill: #696969; stroke: #696969"/>
     <use xlink:href="#m987ff1ec28" x="350.358763" y="19.882065" style="fill: #696969; stroke: #696969"/>
     <use xlink:href="#m987ff1ec28" x="393.429089" y="20.846978" style="fill: #696969; stroke: #696969"/>
     <use xlink:href="#m987ff1ec28" x="436.499415" y="21.326361" style="fill: #696969; stroke: #696969"/>
     <use xlink:href="#m987ff1ec28" x="479.569741" y="22.542701" style="fill: #696969; stroke: #696969"/>
     <use xlink:href="#m987ff1ec28" x="522.640067" y="22.063934" style="fill: #696969; stroke: #696969"/>
    </g>
   </g>
   <g id="LineCollection_4">
    <path d="M 91.936808 20.427391 
L 91.936808 14.896537 
" clip-path="url(#p241cf9d6c7)" style="fill: none; stroke: #8b0000; stroke-width: 2"/>
    <path d="M 135.007134 18.918368 
L 135.007134 16.40556 
" clip-path="url(#p241cf9d6c7)" style="fill: none; stroke: #8b0000; stroke-width: 2"/>
    <path d="M 178.07746 19.008689 
L 178.07746 16.31524 
" clip-path="url(#p241cf9d6c7)" style="fill: none; stroke: #8b0000; stroke-width: 2"/>
    <path d="M 221.147786 18.40713 
L 221.147786 16.916798 
" clip-path="url(#p241cf9d6c7)" style="fill: none; stroke: #8b0000; stroke-width: 2"/>
    <path d="M 264.218112 18.290277 
L 264.218112 17.033651 
" clip-path="url(#p241cf9d6c7)" style="fill: none; stroke: #8b0000; stroke-width: 2"/>
    <path d="M 307.288437 18.064359 
L 307.288437 17.25957 
" clip-path="url(#p241cf9d6c7)" style="fill: none; stroke: #8b0000; stroke-width: 2"/>
    <path d="M 350.358763 18.013901 
L 350.358763 17.310028 
" clip-path="url(#p241cf9d6c7)" style="fill: none; stroke: #8b0000; stroke-width: 2"/>
    <path d="M 393.429089 18.028274 
L 393.429089 17.295655 
" clip-path="url(#p241cf9d6c7)" style="fill: none; stroke: #8b0000; stroke-width: 2"/>
    <path d="M 436.499415 18.346591 
L 436.499415 16.977338 
" clip-path="url(#p241cf9d6c7)" style="fill: none; stroke: #8b0000; stroke-width: 2"/>
    <path d="M 479.569741 17.921983 
L 479.569741 17.401946 
" clip-path="url(#p241cf9d6c7)" style="fill: none; stroke: #8b0000; stroke-width: 2"/>
    <path d="M 522.640067 17.759026 
L 522.640067 17.564903 
" clip-path="url(#p241cf9d6c7)" style="fill: none; stroke: #8b0000; stroke-width: 2"/>
   </g>
   <g id="line2d_24">
    <g clip-path="url(#p241cf9d6c7)">
     <use xlink:href="#m38ebd603bc" x="91.936808" y="20.427391" style="fill: #8b0000; stroke: #8b0000"/>
     <use xlink:href="#m38ebd603bc" x="135.007134" y="18.918368" style="fill: #8b0000; stroke: #8b0000"/>
     <use xlink:href="#m38ebd603bc" x="178.07746" y="19.008689" style="fill: #8b0000; stroke: #8b0000"/>
     <use xlink:href="#m38ebd603bc" x="221.147786" y="18.40713" style="fill: #8b0000; stroke: #8b0000"/>
     <use xlink:href="#m38ebd603bc" x="264.218112" y="18.290277" style="fill: #8b0000; stroke: #8b0000"/>
     <use xlink:href="#m38ebd603bc" x="307.288437" y="18.064359" style="fill: #8b0000; stroke: #8b0000"/>
     <use xlink:href="#m38ebd603bc" x="350.358763" y="18.013901" style="fill: #8b0000; stroke: #8b0000"/>
     <use xlink:href="#m38ebd603bc" x="393.429089" y="18.028274" style="fill: #8b0000; stroke: #8b0000"/>
     <use xlink:href="#m38ebd603bc" x="436.499415" y="18.346591" style="fill: #8b0000; stroke: #8b0000"/>
     <use xlink:href="#m38ebd603bc" x="479.569741" y="17.921983" style="fill: #8b0000; stroke: #8b0000"/>
     <use xlink:href="#m38ebd603bc" x="522.640067" y="17.759026" style="fill: #8b0000; stroke: #8b0000"/>
    </g>
   </g>
   <g id="line2d_25">
    <g clip-path="url(#p241cf9d6c7)">
     <use xlink:href="#m38ebd603bc" x="91.936808" y="14.896537" style="fill: #8b0000; stroke: #8b0000"/>
     <use xlink:href="#m38ebd603bc" x="135.007134" y="16.40556" style="fill: #8b0000; stroke: #8b0000"/>
     <use xlink:href="#m38ebd603bc" x="178.07746" y="16.31524" style="fill: #8b0000; stroke: #8b0000"/>
     <use xlink:href="#m38ebd603bc" x="221.147786" y="16.916798" style="fill: #8b0000; stroke: #8b0000"/>
     <use xlink:href="#m38ebd603bc" x="264.218112" y="17.033651" style="fill: #8b0000; stroke: #8b0000"/>
     <use xlink:href="#m38ebd603bc" x="307.288437" y="17.25957" style="fill: #8b0000; stroke: #8b0000"/>
     <use xlink:href="#m38ebd603bc" x="350.358763" y="17.310028" style="fill: #8b0000; stroke: #8b0000"/>
     <use xlink:href="#m38ebd603bc" x="393.429089" y="17.295655" style="fill: #8b0000; stroke: #8b0000"/>
     <use xlink:href="#m38ebd603bc" x="436.499415" y="16.977338" style="fill: #8b0000; stroke: #8b0000"/>
     <use xlink:href="#m38ebd603bc" x="479.569741" y="17.401946" style="fill: #8b0000; stroke: #8b0000"/>
     <use xlink:href="#m38ebd603bc" x="522.640067" y="17.564903" style="fill: #8b0000; stroke: #8b0000"/>
    </g>
   </g>
   <g id="patch_47">
    <path d="M 56.188438 172.97625 
L 56.188438 9.89625 
" style="fill: none; stroke: #000000; stroke-width: 0.8; stroke-linejoin: miter; stroke-linecap: square"/>
   </g>
   <g id="patch_48">
    <path d="M 558.388438 172.97625 
L 558.388438 9.89625 
" style="fill: none"/>
   </g>
   <g id="patch_49">
    <path d="M 56.188438 172.97625 
L 558.388438 172.97625 
" style="fill: none; stroke: #000000; stroke-width: 0.8; stroke-linejoin: miter; stroke-linecap: square"/>
   </g>
   <g id="patch_50">
    <path d="M 56.188438 9.89625 
L 558.388438 9.89625 
" style="fill: none"/>
   </g>
   <g id="legend_1">
    <g id="patch_51">
     <path d="M 561.188437 91.43625 
L 813.363438 91.43625 
Q 816.163438 91.43625 816.163438 88.63625 
L 816.163438 10 
Q 816.163438 7.2 813.363438 7.2 
L 561.188437 7.2 
Q 558.388438 7.2 558.388438 10 
L 558.388438 88.63625 
Q 558.388438 91.43625 561.188437 91.43625 
z
" style="fill: #ffffff; opacity: 0.8; stroke: #cccccc; stroke-linejoin: miter"/>
    </g>
    <g id="patch_52">
     <path d="M 563.988438 22.8625 
L 591.988438 22.8625 
L 591.988438 13.0625 
L 563.988438 13.0625 
z
" style="fill: url(#h468e0e8da7); opacity: 0.8; stroke: #808080; stroke-linejoin: miter"/>
    </g>
    <g id="text_20">
     <!-- non-TF betweenness centrality=0 -->
     <g transform="translate(603.188438 22.8625)scale(0.14 -0.14)">
      <defs>
       <path id="ArialMT-6e" d="M 422 0 
L 422 3319 
L 928 3319 
L 928 2847 
Q 1294 3394 1984 3394 
Q 2284 3394 2536 3286 
Q 2788 3178 2913 3003 
Q 3038 2828 3088 2588 
Q 3119 2431 3119 2041 
L 3119 0 
L 2556 0 
L 2556 2019 
Q 2556 2363 2490 2533 
Q 2425 2703 2258 2804 
Q 2091 2906 1866 2906 
Q 1506 2906 1245 2678 
Q 984 2450 984 1813 
L 984 0 
L 422 0 
z
" transform="scale(0.015625)"/>
       <path id="ArialMT-2d" d="M 203 1375 
L 203 1941 
L 1931 1941 
L 1931 1375 
L 203 1375 
z
" transform="scale(0.015625)"/>
       <path id="ArialMT-54" d="M 1659 0 
L 1659 4041 
L 150 4041 
L 150 4581 
L 3781 4581 
L 3781 4041 
L 2266 4041 
L 2266 0 
L 1659 0 
z
" transform="scale(0.015625)"/>
       <path id="ArialMT-46" d="M 525 0 
L 525 4581 
L 3616 4581 
L 3616 4041 
L 1131 4041 
L 1131 2622 
L 3281 2622 
L 3281 2081 
L 1131 2081 
L 1131 0 
L 525 0 
z
" transform="scale(0.015625)"/>
       <path id="ArialMT-74" d="M 1650 503 
L 1731 6 
Q 1494 -44 1306 -44 
Q 1000 -44 831 53 
Q 663 150 594 308 
Q 525 466 525 972 
L 525 2881 
L 113 2881 
L 113 3319 
L 525 3319 
L 525 4141 
L 1084 4478 
L 1084 3319 
L 1650 3319 
L 1650 2881 
L 1084 2881 
L 1084 941 
Q 1084 700 1114 631 
Q 1144 563 1211 522 
Q 1278 481 1403 481 
Q 1497 481 1650 503 
z
" transform="scale(0.015625)"/>
       <path id="ArialMT-77" d="M 1034 0 
L 19 3319 
L 600 3319 
L 1128 1403 
L 1325 691 
Q 1338 744 1497 1375 
L 2025 3319 
L 2603 3319 
L 3100 1394 
L 3266 759 
L 3456 1400 
L 4025 3319 
L 4572 3319 
L 3534 0 
L 2950 0 
L 2422 1988 
L 2294 2553 
L 1622 0 
L 1034 0 
z
" transform="scale(0.015625)"/>
       <path id="ArialMT-63" d="M 2588 1216 
L 3141 1144 
Q 3050 572 2676 248 
Q 2303 -75 1759 -75 
Q 1078 -75 664 370 
Q 250 816 250 1647 
Q 250 2184 428 2587 
Q 606 2991 970 3192 
Q 1334 3394 1763 3394 
Q 2303 3394 2647 3120 
Q 2991 2847 3088 2344 
L 2541 2259 
Q 2463 2594 2264 2762 
Q 2066 2931 1784 2931 
Q 1359 2931 1093 2626 
Q 828 2322 828 1663 
Q 828 994 1084 691 
Q 1341 388 1753 388 
Q 2084 388 2306 591 
Q 2528 794 2588 1216 
z
" transform="scale(0.015625)"/>
       <path id="ArialMT-61" d="M 2588 409 
Q 2275 144 1986 34 
Q 1697 -75 1366 -75 
Q 819 -75 525 192 
Q 231 459 231 875 
Q 231 1119 342 1320 
Q 453 1522 633 1644 
Q 813 1766 1038 1828 
Q 1203 1872 1538 1913 
Q 2219 1994 2541 2106 
Q 2544 2222 2544 2253 
Q 2544 2597 2384 2738 
Q 2169 2928 1744 2928 
Q 1347 2928 1158 2789 
Q 969 2650 878 2297 
L 328 2372 
Q 403 2725 575 2942 
Q 747 3159 1072 3276 
Q 1397 3394 1825 3394 
Q 2250 3394 2515 3294 
Q 2781 3194 2906 3042 
Q 3031 2891 3081 2659 
Q 3109 2516 3109 2141 
L 3109 1391 
Q 3109 606 3145 398 
Q 3181 191 3288 0 
L 2700 0 
Q 2613 175 2588 409 
z
M 2541 1666 
Q 2234 1541 1622 1453 
Q 1275 1403 1131 1340 
Q 988 1278 909 1158 
Q 831 1038 831 891 
Q 831 666 1001 516 
Q 1172 366 1500 366 
Q 1825 366 2078 508 
Q 2331 650 2450 897 
Q 2541 1088 2541 1459 
L 2541 1666 
z
" transform="scale(0.015625)"/>
       <path id="ArialMT-6c" d="M 409 0 
L 409 4581 
L 972 4581 
L 972 0 
L 409 0 
z
" transform="scale(0.015625)"/>
       <path id="ArialMT-69" d="M 425 3934 
L 425 4581 
L 988 4581 
L 988 3934 
L 425 3934 
z
M 425 0 
L 425 3319 
L 988 3319 
L 988 0 
L 425 0 
z
" transform="scale(0.015625)"/>
       <path id="ArialMT-79" d="M 397 -1278 
L 334 -750 
Q 519 -800 656 -800 
Q 844 -800 956 -737 
Q 1069 -675 1141 -563 
Q 1194 -478 1313 -144 
Q 1328 -97 1363 -6 
L 103 3319 
L 709 3319 
L 1400 1397 
Q 1534 1031 1641 628 
Q 1738 1016 1872 1384 
L 2581 3319 
L 3144 3319 
L 1881 -56 
Q 1678 -603 1566 -809 
Q 1416 -1088 1222 -1217 
Q 1028 -1347 759 -1347 
Q 597 -1347 397 -1278 
z
" transform="scale(0.015625)"/>
       <path id="ArialMT-3d" d="M 3381 2694 
L 356 2694 
L 356 3219 
L 3381 3219 
L 3381 2694 
z
M 3381 1303 
L 356 1303 
L 356 1828 
L 3381 1828 
L 3381 1303 
z
" transform="scale(0.015625)"/>
      </defs>
      <use xlink:href="#ArialMT-6e"/>
      <use xlink:href="#ArialMT-6f" x="55.615234"/>
      <use xlink:href="#ArialMT-6e" x="111.230469"/>
      <use xlink:href="#ArialMT-2d" x="166.845703"/>
      <use xlink:href="#ArialMT-54" x="200.146484"/>
      <use xlink:href="#ArialMT-46" x="261.230469"/>
      <use xlink:href="#ArialMT-20" x="322.314453"/>
      <use xlink:href="#ArialMT-62" x="350.097656"/>
      <use xlink:href="#ArialMT-65" x="405.712891"/>
      <use xlink:href="#ArialMT-74" x="461.328125"/>
      <use xlink:href="#ArialMT-77" x="489.111328"/>
      <use xlink:href="#ArialMT-65" x="561.328125"/>
      <use xlink:href="#ArialMT-65" x="616.943359"/>
      <use xlink:href="#ArialMT-6e" x="672.558594"/>
      <use xlink:href="#ArialMT-6e" x="728.173828"/>
      <use xlink:href="#ArialMT-65" x="783.789062"/>
      <use xlink:href="#ArialMT-73" x="839.404297"/>
      <use xlink:href="#ArialMT-73" x="889.404297"/>
      <use xlink:href="#ArialMT-20" x="939.404297"/>
      <use xlink:href="#ArialMT-63" x="967.1875"/>
      <use xlink:href="#ArialMT-65" x="1017.1875"/>
      <use xlink:href="#ArialMT-6e" x="1072.802734"/>
      <use xlink:href="#ArialMT-74" x="1128.417969"/>
      <use xlink:href="#ArialMT-72" x="1156.201172"/>
      <use xlink:href="#ArialMT-61" x="1189.501953"/>
      <use xlink:href="#ArialMT-6c" x="1245.117188"/>
      <use xlink:href="#ArialMT-69" x="1267.333984"/>
      <use xlink:href="#ArialMT-74" x="1289.550781"/>
      <use xlink:href="#ArialMT-79" x="1317.333984"/>
      <use xlink:href="#ArialMT-3d" x="1367.333984"/>
      <use xlink:href="#ArialMT-30" x="1425.732422"/>
     </g>
    </g>
    <g id="patch_53">
     <path d="M 563.988438 42.871562 
L 591.988438 42.871562 
L 591.988438 33.071562 
L 563.988438 33.071562 
z
" style="fill: url(#hcfaeeefeab); opacity: 0.8; stroke: #808080; stroke-linejoin: miter"/>
    </g>
    <g id="text_21">
     <!-- TF betweenness centrality=0 -->
     <g transform="translate(603.188438 42.871562)scale(0.14 -0.14)">
      <use xlink:href="#ArialMT-54"/>
      <use xlink:href="#ArialMT-46" x="61.083984"/>
      <use xlink:href="#ArialMT-20" x="122.167969"/>
      <use xlink:href="#ArialMT-62" x="149.951172"/>
      <use xlink:href="#ArialMT-65" x="205.566406"/>
      <use xlink:href="#ArialMT-74" x="261.181641"/>
      <use xlink:href="#ArialMT-77" x="288.964844"/>
      <use xlink:href="#ArialMT-65" x="361.181641"/>
      <use xlink:href="#ArialMT-65" x="416.796875"/>
      <use xlink:href="#ArialMT-6e" x="472.412109"/>
      <use xlink:href="#ArialMT-6e" x="528.027344"/>
      <use xlink:href="#ArialMT-65" x="583.642578"/>
      <use xlink:href="#ArialMT-73" x="639.257812"/>
      <use xlink:href="#ArialMT-73" x="689.257812"/>
      <use xlink:href="#ArialMT-20" x="739.257812"/>
      <use xlink:href="#ArialMT-63" x="767.041016"/>
      <use xlink:href="#ArialMT-65" x="817.041016"/>
      <use xlink:href="#ArialMT-6e" x="872.65625"/>
      <use xlink:href="#ArialMT-74" x="928.271484"/>
      <use xlink:href="#ArialMT-72" x="956.054688"/>
      <use xlink:href="#ArialMT-61" x="989.355469"/>
      <use xlink:href="#ArialMT-6c" x="1044.970703"/>
      <use xlink:href="#ArialMT-69" x="1067.1875"/>
      <use xlink:href="#ArialMT-74" x="1089.404297"/>
      <use xlink:href="#ArialMT-79" x="1117.1875"/>
      <use xlink:href="#ArialMT-3d" x="1167.1875"/>
      <use xlink:href="#ArialMT-30" x="1225.585938"/>
     </g>
    </g>
    <g id="patch_54">
     <path d="M 563.988438 62.880625 
L 591.988438 62.880625 
L 591.988438 53.080625 
L 563.988438 53.080625 
z
" style="fill: #c0c0c0; opacity: 0.8"/>
    </g>
    <g id="text_22">
     <!-- non-TF betweenness centrality&gt;0 -->
     <g transform="translate(603.188438 62.880625)scale(0.14 -0.14)">
      <defs>
       <path id="ArialMT-3e" d="M 3384 2003 
L 350 706 
L 350 1266 
L 2753 2263 
L 350 3250 
L 350 3809 
L 3384 2528 
L 3384 2003 
z
" transform="scale(0.015625)"/>
      </defs>
      <use xlink:href="#ArialMT-6e"/>
      <use xlink:href="#ArialMT-6f" x="55.615234"/>
      <use xlink:href="#ArialMT-6e" x="111.230469"/>
      <use xlink:href="#ArialMT-2d" x="166.845703"/>
      <use xlink:href="#ArialMT-54" x="200.146484"/>
      <use xlink:href="#ArialMT-46" x="261.230469"/>
      <use xlink:href="#ArialMT-20" x="322.314453"/>
      <use xlink:href="#ArialMT-62" x="350.097656"/>
      <use xlink:href="#ArialMT-65" x="405.712891"/>
      <use xlink:href="#ArialMT-74" x="461.328125"/>
      <use xlink:href="#ArialMT-77" x="489.111328"/>
      <use xlink:href="#ArialMT-65" x="561.328125"/>
      <use xlink:href="#ArialMT-65" x="616.943359"/>
      <use xlink:href="#ArialMT-6e" x="672.558594"/>
      <use xlink:href="#ArialMT-6e" x="728.173828"/>
      <use xlink:href="#ArialMT-65" x="783.789062"/>
      <use xlink:href="#ArialMT-73" x="839.404297"/>
      <use xlink:href="#ArialMT-73" x="889.404297"/>
      <use xlink:href="#ArialMT-20" x="939.404297"/>
      <use xlink:href="#ArialMT-63" x="967.1875"/>
      <use xlink:href="#ArialMT-65" x="1017.1875"/>
      <use xlink:href="#ArialMT-6e" x="1072.802734"/>
      <use xlink:href="#ArialMT-74" x="1128.417969"/>
      <use xlink:href="#ArialMT-72" x="1156.201172"/>
      <use xlink:href="#ArialMT-61" x="1189.501953"/>
      <use xlink:href="#ArialMT-6c" x="1245.117188"/>
      <use xlink:href="#ArialMT-69" x="1267.333984"/>
      <use xlink:href="#ArialMT-74" x="1289.550781"/>
      <use xlink:href="#ArialMT-79" x="1317.333984"/>
      <use xlink:href="#ArialMT-3e" x="1367.333984"/>
      <use xlink:href="#ArialMT-30" x="1425.732422"/>
     </g>
    </g>
    <g id="patch_55">
     <path d="M 563.988438 82.889687 
L 591.988438 82.889687 
L 591.988438 73.089687 
L 563.988438 73.089687 
z
" style="fill: #ff0000; opacity: 0.8"/>
    </g>
    <g id="text_23">
     <!-- TF betweenness centrality&gt;0 -->
     <g transform="translate(603.188438 82.889687)scale(0.14 -0.14)">
      <use xlink:href="#ArialMT-54"/>
      <use xlink:href="#ArialMT-46" x="61.083984"/>
      <use xlink:href="#ArialMT-20" x="122.167969"/>
      <use xlink:href="#ArialMT-62" x="149.951172"/>
      <use xlink:href="#ArialMT-65" x="205.566406"/>
      <use xlink:href="#ArialMT-74" x="261.181641"/>
      <use xlink:href="#ArialMT-77" x="288.964844"/>
      <use xlink:href="#ArialMT-65" x="361.181641"/>
      <use xlink:href="#ArialMT-65" x="416.796875"/>
      <use xlink:href="#ArialMT-6e" x="472.412109"/>
      <use xlink:href="#ArialMT-6e" x="528.027344"/>
      <use xlink:href="#ArialMT-65" x="583.642578"/>
      <use xlink:href="#ArialMT-73" x="639.257812"/>
      <use xlink:href="#ArialMT-73" x="689.257812"/>
      <use xlink:href="#ArialMT-20" x="739.257812"/>
      <use xlink:href="#ArialMT-63" x="767.041016"/>
      <use xlink:href="#ArialMT-65" x="817.041016"/>
      <use xlink:href="#ArialMT-6e" x="872.65625"/>
      <use xlink:href="#ArialMT-74" x="928.271484"/>
      <use xlink:href="#ArialMT-72" x="956.054688"/>
      <use xlink:href="#ArialMT-61" x="989.355469"/>
      <use xlink:href="#ArialMT-6c" x="1044.970703"/>
      <use xlink:href="#ArialMT-69" x="1067.1875"/>
      <use xlink:href="#ArialMT-74" x="1089.404297"/>
      <use xlink:href="#ArialMT-79" x="1117.1875"/>
      <use xlink:href="#ArialMT-3e" x="1167.1875"/>
      <use xlink:href="#ArialMT-30" x="1225.585938"/>
     </g>
    </g>
   </g>
  </g>
 </g>
 <defs>
  <clipPath id="p241cf9d6c7">
   <rect x="56.188438" y="9.89625" width="502.2" height="163.08"/>
  </clipPath>
 </defs>
 <defs>
  <pattern id="h468e0e8da7" patternUnits="userSpaceOnUse" x="0" y="0" width="72" height="72">
   <rect x="0" y="0" width="73" height="73" fill="#d3d3d3"/>
   <path d="M -36 36 
L 36 -36 
M -32 40 
L 40 -32 
M -28 44 
L 44 -28 
M -24 48 
L 48 -24 
M -20 52 
L 52 -20 
M -16 56 
L 56 -16 
M -12 60 
L 60 -12 
M -8 64 
L 64 -8 
M -4 68 
L 68 -4 
M 0 72 
L 72 0 
M 4 76 
L 76 4 
M 8 80 
L 80 8 
M 12 84 
L 84 12 
M 16 88 
L 88 16 
M 20 92 
L 92 20 
M 24 96 
L 96 24 
M 28 100 
L 100 28 
M 32 104 
L 104 32 
M 36 108 
L 108 36 
" style="fill: #808080; stroke: #808080; stroke-width: 1.0; stroke-linecap: butt; stroke-linejoin: miter; stroke-opacity: 0.8"/>
  </pattern>
  <pattern id="hcfaeeefeab" patternUnits="userSpaceOnUse" x="0" y="0" width="72" height="72">
   <rect x="0" y="0" width="73" height="73" fill="#ff0000"/>
   <path d="M -36 36 
L 36 -36 
M -32 40 
L 40 -32 
M -28 44 
L 44 -28 
M -24 48 
L 48 -24 
M -20 52 
L 52 -20 
M -16 56 
L 56 -16 
M -12 60 
L 60 -12 
M -8 64 
L 64 -8 
M -4 68 
L 68 -4 
M 0 72 
L 72 0 
M 4 76 
L 76 4 
M 8 80 
L 80 8 
M 12 84 
L 84 12 
M 16 88 
L 88 16 
M 20 92 
L 92 20 
M 24 96 
L 96 24 
M 28 100 
L 100 28 
M 32 104 
L 104 32 
M 36 108 
L 108 36 
" style="fill: #808080; stroke: #808080; stroke-width: 1.0; stroke-linecap: butt; stroke-linejoin: miter; stroke-opacity: 0.8"/>
  </pattern>
 </defs>
</svg>
