<?xml version="1.0" encoding="utf-8" standalone="no"?>
<!DOCTYPE svg PUBLIC "-//W3C//DTD SVG 1.1//EN"
  "http://www.w3.org/Graphics/SVG/1.1/DTD/svg11.dtd">
<svg xmlns:xlink="http://www.w3.org/1999/xlink" width="291.257216pt" height="276.200937pt" viewBox="0 0 291.257216 276.200937" xmlns="http://www.w3.org/2000/svg" version="1.1">
 <metadata>
  <rdf:RDF xmlns:dc="http://purl.org/dc/elements/1.1/" xmlns:cc="http://creativecommons.org/ns#" xmlns:rdf="http://www.w3.org/1999/02/22-rdf-syntax-ns#">
   <cc:Work>
    <dc:type rdf:resource="http://purl.org/dc/dcmitype/StillImage"/>
    <dc:date>2025-08-01T16:34:23.689142</dc:date>
    <dc:format>image/svg+xml</dc:format>
    <dc:creator>
     <cc:Agent>
      <dc:title>Matplotlib v3.5.3, https://matplotlib.org/</dc:title>
     </cc:Agent>
    </dc:creator>
   </cc:Work>
  </rdf:RDF>
 </metadata>
 <defs>
  <style type="text/css">*{stroke-linejoin: round; stroke-linecap: butt}</style>
 </defs>
 <g id="figure_1">
  <g id="patch_1">
   <path d="M 0 276.200937 
L 291.257216 276.200937 
L 291.257216 0 
L 0 0 
L 0 276.200937 
z
" style="fill: none"/>
  </g>
  <g id="axes_1">
   <g id="patch_2">
    <path d="M 52.675 229.650469 
L 275.875 229.650469 
L 275.875 12.210469 
L 52.675 12.210469 
z
" style="fill: #ffffff"/>
   </g>
   <g id="PathCollection_1">
    <defs>
     <path id="m2e7d33ef10" d="M 0 1.581139 
C 0.419323 1.581139 0.821528 1.41454 1.118034 1.118034 
C 1.41454 0.821528 1.581139 0.419323 1.581139 0 
C 1.581139 -0.419323 1.41454 -0.821528 1.118034 -1.118034 
C 0.821528 -1.41454 0.419323 -1.581139 0 -1.581139 
C -0.419323 -1.581139 -0.821528 -1.41454 -1.118034 -1.118034 
C -1.41454 -0.821528 -1.581139 -0.419323 -1.581139 0 
C -1.581139 0.419323 -1.41454 0.821528 -1.118034 1.118034 
C -0.821528 1.41454 -0.419323 1.581139 0 1.581139 
z
" style="stroke: #808080"/>
    </defs>
    <g clip-path="url(#p4f3702faba)">
     <use xlink:href="#m2e7d33ef10" x="178.491634" y="150.189099" style="fill: #808080; stroke: #808080"/>
     <use xlink:href="#m2e7d33ef10" x="93.170637" y="186.178354" style="fill: #808080; stroke: #808080"/>
     <use xlink:href="#m2e7d33ef10" x="82.327366" y="191.74352" style="fill: #808080; stroke: #808080"/>
     <use xlink:href="#m2e7d33ef10" x="72.521441" y="208.480779" style="fill: #808080; stroke: #808080"/>
     <use xlink:href="#m2e7d33ef10" x="67.244337" y="220.7238" style="fill: #808080; stroke: #808080"/>
     <use xlink:href="#m2e7d33ef10" x="68.009857" y="220.7238" style="fill: #808080; stroke: #808080"/>
     <use xlink:href="#m2e7d33ef10" x="66.857289" y="220.7238" style="fill: #808080; stroke: #808080"/>
     <use xlink:href="#m2e7d33ef10" x="69.161706" y="216.722546" style="fill: #808080; stroke: #808080"/>
     <use xlink:href="#m2e7d33ef10" x="64.853405" y="213.160751" style="fill: #808080; stroke: #808080"/>
     <use xlink:href="#m2e7d33ef10" x="63.751394" y="208.816042" style="fill: #808080; stroke: #808080"/>
     <use xlink:href="#m2e7d33ef10" x="65.908569" y="217.489374" style="fill: #808080; stroke: #808080"/>
     <use xlink:href="#m2e7d33ef10" x="72.665865" y="196.219381" style="fill: #808080; stroke: #808080"/>
     <use xlink:href="#m2e7d33ef10" x="73.603389" y="192.01925" style="fill: #808080; stroke: #808080"/>
     <use xlink:href="#m2e7d33ef10" x="265.595458" y="120.363708" style="fill: #808080; stroke: #808080"/>
     <use xlink:href="#m2e7d33ef10" x="84.460255" y="190.63116" style="fill: #808080; stroke: #808080"/>
     <use xlink:href="#m2e7d33ef10" x="72.600711" y="213.849892" style="fill: #808080; stroke: #808080"/>
     <use xlink:href="#m2e7d33ef10" x="65.636225" y="220.7238" style="fill: #808080; stroke: #808080"/>
     <use xlink:href="#m2e7d33ef10" x="70.947399" y="211.160955" style="fill: #808080; stroke: #808080"/>
     <use xlink:href="#m2e7d33ef10" x="63.091371" y="206.420313" style="fill: #808080; stroke: #808080"/>
     <use xlink:href="#m2e7d33ef10" x="64.037387" y="208.521899" style="fill: #808080; stroke: #808080"/>
     <use xlink:href="#m2e7d33ef10" x="67.285964" y="220.7238" style="fill: #808080; stroke: #808080"/>
     <use xlink:href="#m2e7d33ef10" x="62.845363" y="199.107189" style="fill: #808080; stroke: #808080"/>
     <use xlink:href="#m2e7d33ef10" x="63.653961" y="205.475192" style="fill: #808080; stroke: #808080"/>
     <use xlink:href="#m2e7d33ef10" x="68.126083" y="217.655206" style="fill: #808080; stroke: #808080"/>
     <use xlink:href="#m2e7d33ef10" x="79.075067" y="159.545906" style="fill: #808080; stroke: #808080"/>
     <use xlink:href="#m2e7d33ef10" x="78.293772" y="210.006776" style="fill: #808080; stroke: #808080"/>
     <use xlink:href="#m2e7d33ef10" x="71.568844" y="212.892288" style="fill: #808080; stroke: #808080"/>
     <use xlink:href="#m2e7d33ef10" x="87.58566" y="189.093987" style="fill: #808080; stroke: #808080"/>
     <use xlink:href="#m2e7d33ef10" x="75.935218" y="204.592738" style="fill: #808080; stroke: #808080"/>
     <use xlink:href="#m2e7d33ef10" x="70.82163" y="214.911109" style="fill: #808080; stroke: #808080"/>
     <use xlink:href="#m2e7d33ef10" x="66.349782" y="220.7238" style="fill: #808080; stroke: #808080"/>
     <use xlink:href="#m2e7d33ef10" x="61.005167" y="193.364224" style="fill: #808080; stroke: #808080"/>
     <use xlink:href="#m2e7d33ef10" x="60.296585" y="186.399775" style="fill: #808080; stroke: #808080"/>
     <use xlink:href="#m2e7d33ef10" x="63.182409" y="207.236816" style="fill: #808080; stroke: #808080"/>
     <use xlink:href="#m2e7d33ef10" x="67.717026" y="220.7238" style="fill: #808080; stroke: #808080"/>
     <use xlink:href="#m2e7d33ef10" x="69.088034" y="213.341422" style="fill: #808080; stroke: #808080"/>
     <use xlink:href="#m2e7d33ef10" x="68.700595" y="217.423805" style="fill: #808080; stroke: #808080"/>
     <use xlink:href="#m2e7d33ef10" x="73.134429" y="195.366224" style="fill: #808080; stroke: #808080"/>
     <use xlink:href="#m2e7d33ef10" x="71.204359" y="202.609204" style="fill: #808080; stroke: #808080"/>
     <use xlink:href="#m2e7d33ef10" x="66.075588" y="220.7238" style="fill: #808080; stroke: #808080"/>
     <use xlink:href="#m2e7d33ef10" x="104.090452" y="171.737739" style="fill: #808080; stroke: #808080"/>
     <use xlink:href="#m2e7d33ef10" x="90.057058" y="179.201994" style="fill: #808080; stroke: #808080"/>
     <use xlink:href="#m2e7d33ef10" x="78.982813" y="196.032907" style="fill: #808080; stroke: #808080"/>
     <use xlink:href="#m2e7d33ef10" x="63.513711" y="215.22585" style="fill: #808080; stroke: #808080"/>
     <use xlink:href="#m2e7d33ef10" x="62.401594" y="209.306521" style="fill: #808080; stroke: #808080"/>
     <use xlink:href="#m2e7d33ef10" x="64.50525" y="216.659869" style="fill: #808080; stroke: #808080"/>
     <use xlink:href="#m2e7d33ef10" x="66.913125" y="220.7238" style="fill: #808080; stroke: #808080"/>
     <use xlink:href="#m2e7d33ef10" x="67.37153" y="220.7238" style="fill: #808080; stroke: #808080"/>
     <use xlink:href="#m2e7d33ef10" x="67.113406" y="220.7238" style="fill: #808080; stroke: #808080"/>
     <use xlink:href="#m2e7d33ef10" x="67.790271" y="220.7238" style="fill: #808080; stroke: #808080"/>
     <use xlink:href="#m2e7d33ef10" x="62.296104" y="194.210881" style="fill: #808080; stroke: #808080"/>
     <use xlink:href="#m2e7d33ef10" x="68.645947" y="217.647373" style="fill: #808080; stroke: #808080"/>
     <use xlink:href="#m2e7d33ef10" x="62.95809" y="220.7238" style="fill: #808080; stroke: #808080"/>
     <use xlink:href="#m2e7d33ef10" x="97.609512" y="184.94159" style="fill: #808080; stroke: #808080"/>
     <use xlink:href="#m2e7d33ef10" x="89.499381" y="187.924615" style="fill: #808080; stroke: #808080"/>
     <use xlink:href="#m2e7d33ef10" x="77.907457" y="203.894111" style="fill: #808080; stroke: #808080"/>
     <use xlink:href="#m2e7d33ef10" x="71.708799" y="214.04958" style="fill: #808080; stroke: #808080"/>
     <use xlink:href="#m2e7d33ef10" x="73.588039" y="208.306504" style="fill: #808080; stroke: #808080"/>
     <use xlink:href="#m2e7d33ef10" x="67.492098" y="220.7238" style="fill: #808080; stroke: #808080"/>
     <use xlink:href="#m2e7d33ef10" x="63.766392" y="212.252845" style="fill: #808080; stroke: #808080"/>
     <use xlink:href="#m2e7d33ef10" x="67.771776" y="220.7238" style="fill: #808080; stroke: #808080"/>
     <use xlink:href="#m2e7d33ef10" x="66.678347" y="220.7238" style="fill: #808080; stroke: #808080"/>
     <use xlink:href="#m2e7d33ef10" x="65.498619" y="217.335646" style="fill: #808080; stroke: #808080"/>
     <use xlink:href="#m2e7d33ef10" x="71.506758" y="205.032256" style="fill: #808080; stroke: #808080"/>
     <use xlink:href="#m2e7d33ef10" x="72.759645" y="196.367321" style="fill: #808080; stroke: #808080"/>
     <use xlink:href="#m2e7d33ef10" x="70.82163" y="220.7238" style="fill: #808080; stroke: #808080"/>
     <use xlink:href="#m2e7d33ef10" x="83.161338" y="201.983463" style="fill: #808080; stroke: #808080"/>
     <use xlink:href="#m2e7d33ef10" x="73.717503" y="213.617653" style="fill: #808080; stroke: #808080"/>
     <use xlink:href="#m2e7d33ef10" x="75.58008" y="206.399809" style="fill: #808080; stroke: #808080"/>
     <use xlink:href="#m2e7d33ef10" x="71.4438" y="209.805815" style="fill: #808080; stroke: #808080"/>
     <use xlink:href="#m2e7d33ef10" x="67.084768" y="220.7238" style="fill: #808080; stroke: #808080"/>
     <use xlink:href="#m2e7d33ef10" x="66.019283" y="220.7238" style="fill: #808080; stroke: #808080"/>
     <use xlink:href="#m2e7d33ef10" x="66.736771" y="220.7238" style="fill: #808080; stroke: #808080"/>
     <use xlink:href="#m2e7d33ef10" x="66.315904" y="220.7238" style="fill: #808080; stroke: #808080"/>
     <use xlink:href="#m2e7d33ef10" x="64.850803" y="212.957675" style="fill: #808080; stroke: #808080"/>
     <use xlink:href="#m2e7d33ef10" x="63.155907" y="203.621379" style="fill: #808080; stroke: #808080"/>
     <use xlink:href="#m2e7d33ef10" x="65.849353" y="217.458523" style="fill: #808080; stroke: #808080"/>
     <use xlink:href="#m2e7d33ef10" x="75.051554" y="184.527766" style="fill: #808080; stroke: #808080"/>
     <use xlink:href="#m2e7d33ef10" x="70.211389" y="210.87884" style="fill: #808080; stroke: #808080"/>
     <use xlink:href="#m2e7d33ef10" x="83.161338" y="201.983463" style="fill: #808080; stroke: #808080"/>
     <use xlink:href="#m2e7d33ef10" x="77.739063" y="203.783814" style="fill: #808080; stroke: #808080"/>
     <use xlink:href="#m2e7d33ef10" x="71.194141" y="215.220845" style="fill: #808080; stroke: #808080"/>
     <use xlink:href="#m2e7d33ef10" x="68.933067" y="215.615476" style="fill: #808080; stroke: #808080"/>
     <use xlink:href="#m2e7d33ef10" x="66.247926" y="220.7238" style="fill: #808080; stroke: #808080"/>
     <use xlink:href="#m2e7d33ef10" x="64.479474" y="216.428739" style="fill: #808080; stroke: #808080"/>
     <use xlink:href="#m2e7d33ef10" x="62.801923" y="206.571481" style="fill: #808080; stroke: #808080"/>
     <use xlink:href="#m2e7d33ef10" x="60.004625" y="179.582457" style="fill: #808080; stroke: #808080"/>
     <use xlink:href="#m2e7d33ef10" x="62.454141" y="197.335973" style="fill: #808080; stroke: #808080"/>
     <use xlink:href="#m2e7d33ef10" x="67.352366" y="220.7238" style="fill: #808080; stroke: #808080"/>
     <use xlink:href="#m2e7d33ef10" x="69.984093" y="209.702085" style="fill: #808080; stroke: #808080"/>
     <use xlink:href="#m2e7d33ef10" x="70.75919" y="205.951301" style="fill: #808080; stroke: #808080"/>
     <use xlink:href="#m2e7d33ef10" x="68.189489" y="217.784127" style="fill: #808080; stroke: #808080"/>
     <use xlink:href="#m2e7d33ef10" x="66.451625" y="220.7238" style="fill: #808080; stroke: #808080"/>
     <use xlink:href="#m2e7d33ef10" x="80.924889" y="203.012362" style="fill: #808080; stroke: #808080"/>
     <use xlink:href="#m2e7d33ef10" x="76.884615" y="204.218228" style="fill: #808080; stroke: #808080"/>
     <use xlink:href="#m2e7d33ef10" x="68.88935" y="215.25425" style="fill: #808080; stroke: #808080"/>
     <use xlink:href="#m2e7d33ef10" x="65.513833" y="220.7238" style="fill: #808080; stroke: #808080"/>
     <use xlink:href="#m2e7d33ef10" x="63.729026" y="211.036874" style="fill: #808080; stroke: #808080"/>
     <use xlink:href="#m2e7d33ef10" x="66.76643" y="220.7238" style="fill: #808080; stroke: #808080"/>
     <use xlink:href="#m2e7d33ef10" x="67.106522" y="220.7238" style="fill: #808080; stroke: #808080"/>
     <use xlink:href="#m2e7d33ef10" x="63.956341" y="208.364772" style="fill: #808080; stroke: #808080"/>
     <use xlink:href="#m2e7d33ef10" x="63.332055" y="203.985352" style="fill: #808080; stroke: #808080"/>
     <use xlink:href="#m2e7d33ef10" x="69.059063" y="213.85423" style="fill: #808080; stroke: #808080"/>
     <use xlink:href="#m2e7d33ef10" x="68.605248" y="217.701189" style="fill: #808080; stroke: #808080"/>
     <use xlink:href="#m2e7d33ef10" x="75.428035" y="181.130213" style="fill: #808080; stroke: #808080"/>
     <use xlink:href="#m2e7d33ef10" x="144.245687" y="180.105848" style="fill: #808080; stroke: #808080"/>
     <use xlink:href="#m2e7d33ef10" x="88.699421" y="188.5509" style="fill: #808080; stroke: #808080"/>
     <use xlink:href="#m2e7d33ef10" x="82.134505" y="202.625049" style="fill: #808080; stroke: #808080"/>
     <use xlink:href="#m2e7d33ef10" x="74.904622" y="205.088059" style="fill: #808080; stroke: #808080"/>
     <use xlink:href="#m2e7d33ef10" x="75.705653" y="201.17457" style="fill: #808080; stroke: #808080"/>
     <use xlink:href="#m2e7d33ef10" x="73.329701" y="202.585448" style="fill: #808080; stroke: #808080"/>
     <use xlink:href="#m2e7d33ef10" x="65.195975" y="216.393828" style="fill: #808080; stroke: #808080"/>
     <use xlink:href="#m2e7d33ef10" x="64.816745" y="216.625611" style="fill: #808080; stroke: #808080"/>
     <use xlink:href="#m2e7d33ef10" x="65.479082" y="216.839376" style="fill: #808080; stroke: #808080"/>
     <use xlink:href="#m2e7d33ef10" x="64.671476" y="212.870587" style="fill: #808080; stroke: #808080"/>
     <use xlink:href="#m2e7d33ef10" x="67.085488" y="220.7238" style="fill: #808080; stroke: #808080"/>
     <use xlink:href="#m2e7d33ef10" x="67.021008" y="220.7238" style="fill: #808080; stroke: #808080"/>
     <use xlink:href="#m2e7d33ef10" x="72.166878" y="201.069367" style="fill: #808080; stroke: #808080"/>
     <use xlink:href="#m2e7d33ef10" x="73.276554" y="192.478064" style="fill: #808080; stroke: #808080"/>
     <use xlink:href="#m2e7d33ef10" x="88.331536" y="200.498593" style="fill: #808080; stroke: #808080"/>
     <use xlink:href="#m2e7d33ef10" x="86.894359" y="189.767298" style="fill: #808080; stroke: #808080"/>
     <use xlink:href="#m2e7d33ef10" x="82.870992" y="191.905008" style="fill: #808080; stroke: #808080"/>
     <use xlink:href="#m2e7d33ef10" x="70.766281" y="214.176362" style="fill: #808080; stroke: #808080"/>
     <use xlink:href="#m2e7d33ef10" x="67.32398" y="220.7238" style="fill: #808080; stroke: #808080"/>
     <use xlink:href="#m2e7d33ef10" x="64.753114" y="220.7238" style="fill: #808080; stroke: #808080"/>
     <use xlink:href="#m2e7d33ef10" x="73.176831" y="204.718002" style="fill: #808080; stroke: #808080"/>
     <use xlink:href="#m2e7d33ef10" x="69.440559" y="216.471849" style="fill: #808080; stroke: #808080"/>
     <use xlink:href="#m2e7d33ef10" x="74.799202" y="194.858252" style="fill: #808080; stroke: #808080"/>
     <use xlink:href="#m2e7d33ef10" x="69.48451" y="213.220003" style="fill: #808080; stroke: #808080"/>
     <use xlink:href="#m2e7d33ef10" x="65.304931" y="213.545783" style="fill: #808080; stroke: #808080"/>
     <use xlink:href="#m2e7d33ef10" x="66.996418" y="220.7238" style="fill: #808080; stroke: #808080"/>
     <use xlink:href="#m2e7d33ef10" x="74.251386" y="189.906568" style="fill: #808080; stroke: #808080"/>
     <use xlink:href="#m2e7d33ef10" x="76.44573" y="179.290443" style="fill: #808080; stroke: #808080"/>
    </g>
   </g>
   <g id="matplotlib.axis_1">
    <g id="xtick_1">
     <g id="line2d_1">
      <defs>
       <path id="ma61629b0d8" d="M 0 0 
L 0 3.5 
" style="stroke: #000000; stroke-width: 0.8"/>
      </defs>
      <g>
       <use xlink:href="#ma61629b0d8" x="52.675" y="229.650469" style="stroke: #000000; stroke-width: 0.8"/>
      </g>
     </g>
     <g id="text_1">
      <!-- 0.0 -->
      <g transform="translate(42.945 246.671406)scale(0.14 -0.14)">
       <defs>
        <path id="ArialMT-30" d="M 266 2259 
Q 266 3072 433 3567 
Q 600 4063 929 4331 
Q 1259 4600 1759 4600 
Q 2128 4600 2406 4451 
Q 2684 4303 2865 4023 
Q 3047 3744 3150 3342 
Q 3253 2941 3253 2259 
Q 3253 1453 3087 958 
Q 2922 463 2592 192 
Q 2263 -78 1759 -78 
Q 1097 -78 719 397 
Q 266 969 266 2259 
z
M 844 2259 
Q 844 1131 1108 757 
Q 1372 384 1759 384 
Q 2147 384 2411 759 
Q 2675 1134 2675 2259 
Q 2675 3391 2411 3762 
Q 2147 4134 1753 4134 
Q 1366 4134 1134 3806 
Q 844 3388 844 2259 
z
" transform="scale(0.015625)"/>
        <path id="ArialMT-2e" d="M 581 0 
L 581 641 
L 1222 641 
L 1222 0 
L 581 0 
z
" transform="scale(0.015625)"/>
       </defs>
       <use xlink:href="#ArialMT-30"/>
       <use xlink:href="#ArialMT-2e" x="55.615234"/>
       <use xlink:href="#ArialMT-30" x="83.398438"/>
      </g>
     </g>
    </g>
    <g id="xtick_2">
     <g id="line2d_2">
      <g>
       <use xlink:href="#ma61629b0d8" x="88.96826" y="229.650469" style="stroke: #000000; stroke-width: 0.8"/>
      </g>
     </g>
     <g id="text_2">
      <!-- 2.5 -->
      <g transform="translate(79.23826 246.671406)scale(0.14 -0.14)">
       <defs>
        <path id="ArialMT-32" d="M 3222 541 
L 3222 0 
L 194 0 
Q 188 203 259 391 
Q 375 700 629 1000 
Q 884 1300 1366 1694 
Q 2113 2306 2375 2664 
Q 2638 3022 2638 3341 
Q 2638 3675 2398 3904 
Q 2159 4134 1775 4134 
Q 1369 4134 1125 3890 
Q 881 3647 878 3216 
L 300 3275 
Q 359 3922 746 4261 
Q 1134 4600 1788 4600 
Q 2447 4600 2831 4234 
Q 3216 3869 3216 3328 
Q 3216 3053 3103 2787 
Q 2991 2522 2730 2228 
Q 2469 1934 1863 1422 
Q 1356 997 1212 845 
Q 1069 694 975 541 
L 3222 541 
z
" transform="scale(0.015625)"/>
        <path id="ArialMT-35" d="M 266 1200 
L 856 1250 
Q 922 819 1161 601 
Q 1400 384 1738 384 
Q 2144 384 2425 690 
Q 2706 997 2706 1503 
Q 2706 1984 2436 2262 
Q 2166 2541 1728 2541 
Q 1456 2541 1237 2417 
Q 1019 2294 894 2097 
L 366 2166 
L 809 4519 
L 3088 4519 
L 3088 3981 
L 1259 3981 
L 1013 2750 
Q 1425 3038 1878 3038 
Q 2478 3038 2890 2622 
Q 3303 2206 3303 1553 
Q 3303 931 2941 478 
Q 2500 -78 1738 -78 
Q 1113 -78 717 272 
Q 322 622 266 1200 
z
" transform="scale(0.015625)"/>
       </defs>
       <use xlink:href="#ArialMT-32"/>
       <use xlink:href="#ArialMT-2e" x="55.615234"/>
       <use xlink:href="#ArialMT-35" x="83.398438"/>
      </g>
     </g>
    </g>
    <g id="xtick_3">
     <g id="line2d_3">
      <g>
       <use xlink:href="#ma61629b0d8" x="125.26152" y="229.650469" style="stroke: #000000; stroke-width: 0.8"/>
      </g>
     </g>
     <g id="text_3">
      <!-- 5.0 -->
      <g transform="translate(115.53152 246.671406)scale(0.14 -0.14)">
       <use xlink:href="#ArialMT-35"/>
       <use xlink:href="#ArialMT-2e" x="55.615234"/>
       <use xlink:href="#ArialMT-30" x="83.398438"/>
      </g>
     </g>
    </g>
    <g id="xtick_4">
     <g id="line2d_4">
      <g>
       <use xlink:href="#ma61629b0d8" x="161.55478" y="229.650469" style="stroke: #000000; stroke-width: 0.8"/>
      </g>
     </g>
     <g id="text_4">
      <!-- 7.5 -->
      <g transform="translate(151.82478 246.671406)scale(0.14 -0.14)">
       <defs>
        <path id="ArialMT-37" d="M 303 3981 
L 303 4522 
L 3269 4522 
L 3269 4084 
Q 2831 3619 2401 2847 
Q 1972 2075 1738 1259 
Q 1569 684 1522 0 
L 944 0 
Q 953 541 1156 1306 
Q 1359 2072 1739 2783 
Q 2119 3494 2547 3981 
L 303 3981 
z
" transform="scale(0.015625)"/>
       </defs>
       <use xlink:href="#ArialMT-37"/>
       <use xlink:href="#ArialMT-2e" x="55.615234"/>
       <use xlink:href="#ArialMT-35" x="83.398438"/>
      </g>
     </g>
    </g>
    <g id="xtick_5">
     <g id="line2d_5">
      <g>
       <use xlink:href="#ma61629b0d8" x="197.84804" y="229.650469" style="stroke: #000000; stroke-width: 0.8"/>
      </g>
     </g>
     <g id="text_5">
      <!-- 10.0 -->
      <g transform="translate(184.225384 246.671406)scale(0.14 -0.14)">
       <defs>
        <path id="ArialMT-31" d="M 2384 0 
L 1822 0 
L 1822 3584 
Q 1619 3391 1289 3197 
Q 959 3003 697 2906 
L 697 3450 
Q 1169 3672 1522 3987 
Q 1875 4303 2022 4600 
L 2384 4600 
L 2384 0 
z
" transform="scale(0.015625)"/>
       </defs>
       <use xlink:href="#ArialMT-31"/>
       <use xlink:href="#ArialMT-30" x="55.615234"/>
       <use xlink:href="#ArialMT-2e" x="111.230469"/>
       <use xlink:href="#ArialMT-30" x="139.013672"/>
      </g>
     </g>
    </g>
    <g id="xtick_6">
     <g id="line2d_6">
      <g>
       <use xlink:href="#ma61629b0d8" x="234.1413" y="229.650469" style="stroke: #000000; stroke-width: 0.8"/>
      </g>
     </g>
     <g id="text_6">
      <!-- 12.5 -->
      <g transform="translate(220.518643 246.671406)scale(0.14 -0.14)">
       <use xlink:href="#ArialMT-31"/>
       <use xlink:href="#ArialMT-32" x="55.615234"/>
       <use xlink:href="#ArialMT-2e" x="111.230469"/>
       <use xlink:href="#ArialMT-35" x="139.013672"/>
      </g>
     </g>
    </g>
    <g id="xtick_7">
     <g id="line2d_7">
      <g>
       <use xlink:href="#ma61629b0d8" x="270.43456" y="229.650469" style="stroke: #000000; stroke-width: 0.8"/>
      </g>
     </g>
     <g id="text_7">
      <!-- 15.0 -->
      <g transform="translate(256.811903 246.671406)scale(0.14 -0.14)">
       <use xlink:href="#ArialMT-31"/>
       <use xlink:href="#ArialMT-35" x="55.615234"/>
       <use xlink:href="#ArialMT-2e" x="111.230469"/>
       <use xlink:href="#ArialMT-30" x="139.013672"/>
      </g>
     </g>
    </g>
    <g id="text_8">
     <!-- Odds Ratio -->
     <g transform="translate(121.756406 265.622187)scale(0.17 -0.17)">
      <defs>
       <path id="ArialMT-4f" d="M 309 2231 
Q 309 3372 921 4017 
Q 1534 4663 2503 4663 
Q 3138 4663 3647 4359 
Q 4156 4056 4423 3514 
Q 4691 2972 4691 2284 
Q 4691 1588 4409 1038 
Q 4128 488 3612 205 
Q 3097 -78 2500 -78 
Q 1853 -78 1343 234 
Q 834 547 571 1087 
Q 309 1628 309 2231 
z
M 934 2222 
Q 934 1394 1379 917 
Q 1825 441 2497 441 
Q 3181 441 3623 922 
Q 4066 1403 4066 2288 
Q 4066 2847 3877 3264 
Q 3688 3681 3323 3911 
Q 2959 4141 2506 4141 
Q 1863 4141 1398 3698 
Q 934 3256 934 2222 
z
" transform="scale(0.015625)"/>
       <path id="ArialMT-64" d="M 2575 0 
L 2575 419 
Q 2259 -75 1647 -75 
Q 1250 -75 917 144 
Q 584 363 401 755 
Q 219 1147 219 1656 
Q 219 2153 384 2558 
Q 550 2963 881 3178 
Q 1213 3394 1622 3394 
Q 1922 3394 2156 3267 
Q 2391 3141 2538 2938 
L 2538 4581 
L 3097 4581 
L 3097 0 
L 2575 0 
z
M 797 1656 
Q 797 1019 1065 703 
Q 1334 388 1700 388 
Q 2069 388 2326 689 
Q 2584 991 2584 1609 
Q 2584 2291 2321 2609 
Q 2059 2928 1675 2928 
Q 1300 2928 1048 2622 
Q 797 2316 797 1656 
z
" transform="scale(0.015625)"/>
       <path id="ArialMT-73" d="M 197 991 
L 753 1078 
Q 800 744 1014 566 
Q 1228 388 1613 388 
Q 2000 388 2187 545 
Q 2375 703 2375 916 
Q 2375 1106 2209 1216 
Q 2094 1291 1634 1406 
Q 1016 1563 777 1677 
Q 538 1791 414 1992 
Q 291 2194 291 2438 
Q 291 2659 392 2848 
Q 494 3038 669 3163 
Q 800 3259 1026 3326 
Q 1253 3394 1513 3394 
Q 1903 3394 2198 3281 
Q 2494 3169 2634 2976 
Q 2775 2784 2828 2463 
L 2278 2388 
Q 2241 2644 2061 2787 
Q 1881 2931 1553 2931 
Q 1166 2931 1000 2803 
Q 834 2675 834 2503 
Q 834 2394 903 2306 
Q 972 2216 1119 2156 
Q 1203 2125 1616 2013 
Q 2213 1853 2448 1751 
Q 2684 1650 2818 1456 
Q 2953 1263 2953 975 
Q 2953 694 2789 445 
Q 2625 197 2315 61 
Q 2006 -75 1616 -75 
Q 969 -75 630 194 
Q 291 463 197 991 
z
" transform="scale(0.015625)"/>
       <path id="ArialMT-20" transform="scale(0.015625)"/>
       <path id="ArialMT-52" d="M 503 0 
L 503 4581 
L 2534 4581 
Q 3147 4581 3465 4457 
Q 3784 4334 3975 4021 
Q 4166 3709 4166 3331 
Q 4166 2844 3850 2509 
Q 3534 2175 2875 2084 
Q 3116 1969 3241 1856 
Q 3506 1613 3744 1247 
L 4541 0 
L 3778 0 
L 3172 953 
Q 2906 1366 2734 1584 
Q 2563 1803 2427 1890 
Q 2291 1978 2150 2013 
Q 2047 2034 1813 2034 
L 1109 2034 
L 1109 0 
L 503 0 
z
M 1109 2559 
L 2413 2559 
Q 2828 2559 3062 2645 
Q 3297 2731 3419 2920 
Q 3541 3109 3541 3331 
Q 3541 3656 3305 3865 
Q 3069 4075 2559 4075 
L 1109 4075 
L 1109 2559 
z
" transform="scale(0.015625)"/>
       <path id="ArialMT-61" d="M 2588 409 
Q 2275 144 1986 34 
Q 1697 -75 1366 -75 
Q 819 -75 525 192 
Q 231 459 231 875 
Q 231 1119 342 1320 
Q 453 1522 633 1644 
Q 813 1766 1038 1828 
Q 1203 1872 1538 1913 
Q 2219 1994 2541 2106 
Q 2544 2222 2544 2253 
Q 2544 2597 2384 2738 
Q 2169 2928 1744 2928 
Q 1347 2928 1158 2789 
Q 969 2650 878 2297 
L 328 2372 
Q 403 2725 575 2942 
Q 747 3159 1072 3276 
Q 1397 3394 1825 3394 
Q 2250 3394 2515 3294 
Q 2781 3194 2906 3042 
Q 3031 2891 3081 2659 
Q 3109 2516 3109 2141 
L 3109 1391 
Q 3109 606 3145 398 
Q 3181 191 3288 0 
L 2700 0 
Q 2613 175 2588 409 
z
M 2541 1666 
Q 2234 1541 1622 1453 
Q 1275 1403 1131 1340 
Q 988 1278 909 1158 
Q 831 1038 831 891 
Q 831 666 1001 516 
Q 1172 366 1500 366 
Q 1825 366 2078 508 
Q 2331 650 2450 897 
Q 2541 1088 2541 1459 
L 2541 1666 
z
" transform="scale(0.015625)"/>
       <path id="ArialMT-74" d="M 1650 503 
L 1731 6 
Q 1494 -44 1306 -44 
Q 1000 -44 831 53 
Q 663 150 594 308 
Q 525 466 525 972 
L 525 2881 
L 113 2881 
L 113 3319 
L 525 3319 
L 525 4141 
L 1084 4478 
L 1084 3319 
L 1650 3319 
L 1650 2881 
L 1084 2881 
L 1084 941 
Q 1084 700 1114 631 
Q 1144 563 1211 522 
Q 1278 481 1403 481 
Q 1497 481 1650 503 
z
" transform="scale(0.015625)"/>
       <path id="ArialMT-69" d="M 425 3934 
L 425 4581 
L 988 4581 
L 988 3934 
L 425 3934 
z
M 425 0 
L 425 3319 
L 988 3319 
L 988 0 
L 425 0 
z
" transform="scale(0.015625)"/>
       <path id="ArialMT-6f" d="M 213 1659 
Q 213 2581 725 3025 
Q 1153 3394 1769 3394 
Q 2453 3394 2887 2945 
Q 3322 2497 3322 1706 
Q 3322 1066 3130 698 
Q 2938 331 2570 128 
Q 2203 -75 1769 -75 
Q 1072 -75 642 372 
Q 213 819 213 1659 
z
M 791 1659 
Q 791 1022 1069 705 
Q 1347 388 1769 388 
Q 2188 388 2466 706 
Q 2744 1025 2744 1678 
Q 2744 2294 2464 2611 
Q 2184 2928 1769 2928 
Q 1347 2928 1069 2612 
Q 791 2297 791 1659 
z
" transform="scale(0.015625)"/>
      </defs>
      <use xlink:href="#ArialMT-4f"/>
      <use xlink:href="#ArialMT-64" x="77.783203"/>
      <use xlink:href="#ArialMT-64" x="133.398438"/>
      <use xlink:href="#ArialMT-73" x="189.013672"/>
      <use xlink:href="#ArialMT-20" x="239.013672"/>
      <use xlink:href="#ArialMT-52" x="266.796875"/>
      <use xlink:href="#ArialMT-61" x="339.013672"/>
      <use xlink:href="#ArialMT-74" x="394.628906"/>
      <use xlink:href="#ArialMT-69" x="422.412109"/>
      <use xlink:href="#ArialMT-6f" x="444.628906"/>
     </g>
    </g>
   </g>
   <g id="matplotlib.axis_2">
    <g id="ytick_1">
     <g id="line2d_8">
      <defs>
       <path id="mb8fff18fb8" d="M 0 0 
L -3.5 0 
" style="stroke: #000000; stroke-width: 0.8"/>
      </defs>
      <g>
       <use xlink:href="#mb8fff18fb8" x="52.675" y="220.7238" style="stroke: #000000; stroke-width: 0.8"/>
      </g>
     </g>
     <g id="text_9">
      <!-- 0.0 -->
      <g transform="translate(26.215 225.734269)scale(0.14 -0.14)">
       <use xlink:href="#ArialMT-30"/>
       <use xlink:href="#ArialMT-2e" x="55.615234"/>
       <use xlink:href="#ArialMT-30" x="83.398438"/>
      </g>
     </g>
    </g>
    <g id="ytick_2">
     <g id="line2d_9">
      <g>
       <use xlink:href="#mb8fff18fb8" x="52.675" y="194.659634" style="stroke: #000000; stroke-width: 0.8"/>
      </g>
     </g>
     <g id="text_10">
      <!-- 0.5 -->
      <g transform="translate(26.215 199.670103)scale(0.14 -0.14)">
       <use xlink:href="#ArialMT-30"/>
       <use xlink:href="#ArialMT-2e" x="55.615234"/>
       <use xlink:href="#ArialMT-35" x="83.398438"/>
      </g>
     </g>
    </g>
    <g id="ytick_3">
     <g id="line2d_10">
      <g>
       <use xlink:href="#mb8fff18fb8" x="52.675" y="168.595467" style="stroke: #000000; stroke-width: 0.8"/>
      </g>
     </g>
     <g id="text_11">
      <!-- 1.0 -->
      <g transform="translate(26.215 173.605936)scale(0.14 -0.14)">
       <use xlink:href="#ArialMT-31"/>
       <use xlink:href="#ArialMT-2e" x="55.615234"/>
       <use xlink:href="#ArialMT-30" x="83.398438"/>
      </g>
     </g>
    </g>
    <g id="ytick_4">
     <g id="line2d_11">
      <g>
       <use xlink:href="#mb8fff18fb8" x="52.675" y="142.531301" style="stroke: #000000; stroke-width: 0.8"/>
      </g>
     </g>
     <g id="text_12">
      <!-- 1.5 -->
      <g transform="translate(26.215 147.54177)scale(0.14 -0.14)">
       <use xlink:href="#ArialMT-31"/>
       <use xlink:href="#ArialMT-2e" x="55.615234"/>
       <use xlink:href="#ArialMT-35" x="83.398438"/>
      </g>
     </g>
    </g>
    <g id="ytick_5">
     <g id="line2d_12">
      <g>
       <use xlink:href="#mb8fff18fb8" x="52.675" y="116.467134" style="stroke: #000000; stroke-width: 0.8"/>
      </g>
     </g>
     <g id="text_13">
      <!-- 2.0 -->
      <g transform="translate(26.215 121.477603)scale(0.14 -0.14)">
       <use xlink:href="#ArialMT-32"/>
       <use xlink:href="#ArialMT-2e" x="55.615234"/>
       <use xlink:href="#ArialMT-30" x="83.398438"/>
      </g>
     </g>
    </g>
    <g id="ytick_6">
     <g id="line2d_13">
      <g>
       <use xlink:href="#mb8fff18fb8" x="52.675" y="90.402968" style="stroke: #000000; stroke-width: 0.8"/>
      </g>
     </g>
     <g id="text_14">
      <!-- 2.5 -->
      <g transform="translate(26.215 95.413437)scale(0.14 -0.14)">
       <use xlink:href="#ArialMT-32"/>
       <use xlink:href="#ArialMT-2e" x="55.615234"/>
       <use xlink:href="#ArialMT-35" x="83.398438"/>
      </g>
     </g>
    </g>
    <g id="ytick_7">
     <g id="line2d_14">
      <g>
       <use xlink:href="#mb8fff18fb8" x="52.675" y="64.338802" style="stroke: #000000; stroke-width: 0.8"/>
      </g>
     </g>
     <g id="text_15">
      <!-- 3.0 -->
      <g transform="translate(26.215 69.34927)scale(0.14 -0.14)">
       <defs>
        <path id="ArialMT-33" d="M 269 1209 
L 831 1284 
Q 928 806 1161 595 
Q 1394 384 1728 384 
Q 2125 384 2398 659 
Q 2672 934 2672 1341 
Q 2672 1728 2419 1979 
Q 2166 2231 1775 2231 
Q 1616 2231 1378 2169 
L 1441 2663 
Q 1497 2656 1531 2656 
Q 1891 2656 2178 2843 
Q 2466 3031 2466 3422 
Q 2466 3731 2256 3934 
Q 2047 4138 1716 4138 
Q 1388 4138 1169 3931 
Q 950 3725 888 3313 
L 325 3413 
Q 428 3978 793 4289 
Q 1159 4600 1703 4600 
Q 2078 4600 2393 4439 
Q 2709 4278 2876 4000 
Q 3044 3722 3044 3409 
Q 3044 3113 2884 2869 
Q 2725 2625 2413 2481 
Q 2819 2388 3044 2092 
Q 3269 1797 3269 1353 
Q 3269 753 2831 336 
Q 2394 -81 1725 -81 
Q 1122 -81 723 278 
Q 325 638 269 1209 
z
" transform="scale(0.015625)"/>
       </defs>
       <use xlink:href="#ArialMT-33"/>
       <use xlink:href="#ArialMT-2e" x="55.615234"/>
       <use xlink:href="#ArialMT-30" x="83.398438"/>
      </g>
     </g>
    </g>
    <g id="ytick_8">
     <g id="line2d_15">
      <g>
       <use xlink:href="#mb8fff18fb8" x="52.675" y="38.274635" style="stroke: #000000; stroke-width: 0.8"/>
      </g>
     </g>
     <g id="text_16">
      <!-- 3.5 -->
      <g transform="translate(26.215 43.285104)scale(0.14 -0.14)">
       <use xlink:href="#ArialMT-33"/>
       <use xlink:href="#ArialMT-2e" x="55.615234"/>
       <use xlink:href="#ArialMT-35" x="83.398438"/>
      </g>
     </g>
    </g>
    <g id="ytick_9">
     <g id="line2d_16">
      <g>
       <use xlink:href="#mb8fff18fb8" x="52.675" y="12.210469" style="stroke: #000000; stroke-width: 0.8"/>
      </g>
     </g>
     <g id="text_17">
      <!-- 4.0 -->
      <g transform="translate(26.215 17.220937)scale(0.14 -0.14)">
       <defs>
        <path id="ArialMT-34" d="M 2069 0 
L 2069 1097 
L 81 1097 
L 81 1613 
L 2172 4581 
L 2631 4581 
L 2631 1613 
L 3250 1613 
L 3250 1097 
L 2631 1097 
L 2631 0 
L 2069 0 
z
M 2069 1613 
L 2069 3678 
L 634 1613 
L 2069 1613 
z
" transform="scale(0.015625)"/>
       </defs>
       <use xlink:href="#ArialMT-34"/>
       <use xlink:href="#ArialMT-2e" x="55.615234"/>
       <use xlink:href="#ArialMT-30" x="83.398438"/>
      </g>
     </g>
    </g>
    <g id="text_18">
     <!-- -log10(p value) -->
     <g transform="translate(18.8475 174.289219)rotate(-90)scale(0.16 -0.16)">
      <defs>
       <path id="ArialMT-2d" d="M 203 1375 
L 203 1941 
L 1931 1941 
L 1931 1375 
L 203 1375 
z
" transform="scale(0.015625)"/>
       <path id="ArialMT-6c" d="M 409 0 
L 409 4581 
L 972 4581 
L 972 0 
L 409 0 
z
" transform="scale(0.015625)"/>
       <path id="ArialMT-67" d="M 319 -275 
L 866 -356 
Q 900 -609 1056 -725 
Q 1266 -881 1628 -881 
Q 2019 -881 2231 -725 
Q 2444 -569 2519 -288 
Q 2563 -116 2559 434 
Q 2191 0 1641 0 
Q 956 0 581 494 
Q 206 988 206 1678 
Q 206 2153 378 2554 
Q 550 2956 876 3175 
Q 1203 3394 1644 3394 
Q 2231 3394 2613 2919 
L 2613 3319 
L 3131 3319 
L 3131 450 
Q 3131 -325 2973 -648 
Q 2816 -972 2473 -1159 
Q 2131 -1347 1631 -1347 
Q 1038 -1347 672 -1080 
Q 306 -813 319 -275 
z
M 784 1719 
Q 784 1066 1043 766 
Q 1303 466 1694 466 
Q 2081 466 2343 764 
Q 2606 1063 2606 1700 
Q 2606 2309 2336 2618 
Q 2066 2928 1684 2928 
Q 1309 2928 1046 2623 
Q 784 2319 784 1719 
z
" transform="scale(0.015625)"/>
       <path id="ArialMT-28" d="M 1497 -1347 
Q 1031 -759 709 28 
Q 388 816 388 1659 
Q 388 2403 628 3084 
Q 909 3875 1497 4659 
L 1900 4659 
Q 1522 4009 1400 3731 
Q 1209 3300 1100 2831 
Q 966 2247 966 1656 
Q 966 153 1900 -1347 
L 1497 -1347 
z
" transform="scale(0.015625)"/>
       <path id="ArialMT-70" d="M 422 -1272 
L 422 3319 
L 934 3319 
L 934 2888 
Q 1116 3141 1344 3267 
Q 1572 3394 1897 3394 
Q 2322 3394 2647 3175 
Q 2972 2956 3137 2557 
Q 3303 2159 3303 1684 
Q 3303 1175 3120 767 
Q 2938 359 2589 142 
Q 2241 -75 1856 -75 
Q 1575 -75 1351 44 
Q 1128 163 984 344 
L 984 -1272 
L 422 -1272 
z
M 931 1641 
Q 931 1000 1190 694 
Q 1450 388 1819 388 
Q 2194 388 2461 705 
Q 2728 1022 2728 1688 
Q 2728 2322 2467 2637 
Q 2206 2953 1844 2953 
Q 1484 2953 1207 2617 
Q 931 2281 931 1641 
z
" transform="scale(0.015625)"/>
       <path id="ArialMT-76" d="M 1344 0 
L 81 3319 
L 675 3319 
L 1388 1331 
Q 1503 1009 1600 663 
Q 1675 925 1809 1294 
L 2547 3319 
L 3125 3319 
L 1869 0 
L 1344 0 
z
" transform="scale(0.015625)"/>
       <path id="ArialMT-75" d="M 2597 0 
L 2597 488 
Q 2209 -75 1544 -75 
Q 1250 -75 995 37 
Q 741 150 617 320 
Q 494 491 444 738 
Q 409 903 409 1263 
L 409 3319 
L 972 3319 
L 972 1478 
Q 972 1038 1006 884 
Q 1059 663 1231 536 
Q 1403 409 1656 409 
Q 1909 409 2131 539 
Q 2353 669 2445 892 
Q 2538 1116 2538 1541 
L 2538 3319 
L 3100 3319 
L 3100 0 
L 2597 0 
z
" transform="scale(0.015625)"/>
       <path id="ArialMT-65" d="M 2694 1069 
L 3275 997 
Q 3138 488 2766 206 
Q 2394 -75 1816 -75 
Q 1088 -75 661 373 
Q 234 822 234 1631 
Q 234 2469 665 2931 
Q 1097 3394 1784 3394 
Q 2450 3394 2872 2941 
Q 3294 2488 3294 1666 
Q 3294 1616 3291 1516 
L 816 1516 
Q 847 969 1125 678 
Q 1403 388 1819 388 
Q 2128 388 2347 550 
Q 2566 713 2694 1069 
z
M 847 1978 
L 2700 1978 
Q 2663 2397 2488 2606 
Q 2219 2931 1791 2931 
Q 1403 2931 1139 2672 
Q 875 2413 847 1978 
z
" transform="scale(0.015625)"/>
       <path id="ArialMT-29" d="M 791 -1347 
L 388 -1347 
Q 1322 153 1322 1656 
Q 1322 2244 1188 2822 
Q 1081 3291 891 3722 
Q 769 4003 388 4659 
L 791 4659 
Q 1378 3875 1659 3084 
Q 1900 2403 1900 1659 
Q 1900 816 1576 28 
Q 1253 -759 791 -1347 
z
" transform="scale(0.015625)"/>
      </defs>
      <use xlink:href="#ArialMT-2d"/>
      <use xlink:href="#ArialMT-6c" x="33.300781"/>
      <use xlink:href="#ArialMT-6f" x="55.517578"/>
      <use xlink:href="#ArialMT-67" x="111.132812"/>
      <use xlink:href="#ArialMT-31" x="166.748047"/>
      <use xlink:href="#ArialMT-30" x="222.363281"/>
      <use xlink:href="#ArialMT-28" x="277.978516"/>
      <use xlink:href="#ArialMT-70" x="311.279297"/>
      <use xlink:href="#ArialMT-20" x="366.894531"/>
      <use xlink:href="#ArialMT-76" x="394.677734"/>
      <use xlink:href="#ArialMT-61" x="444.677734"/>
      <use xlink:href="#ArialMT-6c" x="500.292969"/>
      <use xlink:href="#ArialMT-75" x="522.509766"/>
      <use xlink:href="#ArialMT-65" x="578.125"/>
      <use xlink:href="#ArialMT-29" x="633.740234"/>
     </g>
    </g>
   </g>
   <g id="line2d_17">
    <path d="M 52.675 152.903276 
L 275.875 152.903276 
" clip-path="url(#p4f3702faba)" style="fill: none; stroke-dasharray: 1.5,2.475; stroke-dashoffset: 0; stroke: #ff0000; stroke-width: 1.5"/>
   </g>
   <g id="line2d_18">
    <path d="M 52.675 42.19043 
L 275.875 42.19043 
" clip-path="url(#p4f3702faba)" style="fill: none; stroke: #ff0000; stroke-width: 1.5; stroke-linecap: square"/>
   </g>
   <g id="patch_3">
    <path d="M 52.675 229.650469 
L 52.675 12.210469 
" style="fill: none; stroke: #000000; stroke-width: 0.8; stroke-linejoin: miter; stroke-linecap: square"/>
   </g>
   <g id="patch_4">
    <path d="M 275.875 229.650469 
L 275.875 12.210469 
" style="fill: none"/>
   </g>
   <g id="patch_5">
    <path d="M 52.675 229.650469 
L 275.875 229.650469 
" style="fill: none; stroke: #000000; stroke-width: 0.8; stroke-linejoin: miter; stroke-linecap: square"/>
   </g>
   <g id="patch_6">
    <path d="M 52.675 12.210469 
L 275.875 12.210469 
" style="fill: none"/>
   </g>
  </g>
 </g>
 <defs>
  <clipPath id="p4f3702faba">
   <rect x="52.675" y="12.210469" width="223.2" height="217.44"/>
  </clipPath>
 </defs>
</svg>
