<?xml version="1.0" encoding="utf-8" standalone="no"?>
<!DOCTYPE svg PUBLIC "-//W3C//DTD SVG 1.1//EN"
  "http://www.w3.org/Graphics/SVG/1.1/DTD/svg11.dtd">
<svg xmlns:xlink="http://www.w3.org/1999/xlink" width="395.210312pt" height="271.190469pt" viewBox="0 0 395.210312 271.190469" xmlns="http://www.w3.org/2000/svg" version="1.1">
 <metadata>
  <rdf:RDF xmlns:dc="http://purl.org/dc/elements/1.1/" xmlns:cc="http://creativecommons.org/ns#" xmlns:rdf="http://www.w3.org/1999/02/22-rdf-syntax-ns#">
   <cc:Work>
    <dc:type rdf:resource="http://purl.org/dc/dcmitype/StillImage"/>
    <dc:date>2025-08-05T11:33:23.130126</dc:date>
    <dc:format>image/svg+xml</dc:format>
    <dc:creator>
     <cc:Agent>
      <dc:title>Matplotlib v3.5.3, https://matplotlib.org/</dc:title>
     </cc:Agent>
    </dc:creator>
   </cc:Work>
  </rdf:RDF>
 </metadata>
 <defs>
  <style type="text/css">*{stroke-linejoin: round; stroke-linecap: butt}</style>
 </defs>
 <g id="figure_1">
  <g id="patch_1">
   <path d="M 0 271.190469 
L 395.210312 271.190469 
L 395.210312 0 
L 0 0 
L 0 271.190469 
z
" style="fill: none"/>
  </g>
  <g id="axes_1">
   <g id="patch_2">
    <path d="M 41.532344 224.64 
L 376.332344 224.64 
L 376.332344 7.2 
L 41.532344 7.2 
z
" style="fill: #ffffff"/>
   </g>
   <g id="PolyCollection_1">
    <defs>
     <path id="m379aa203a8" d="M 72.724544 -139.64271 
L 72.724544 -75.298367 
L 74.593844 -77.022124 
L 76.435244 -79.32128 
L 78.304544 -78.410393 
L 80.397044 -80.890212 
L 82.350044 -80.595177 
L 84.163544 -80.616426 
L 85.977044 -79.473393 
L 87.762644 -79.008066 
L 89.548244 -79.184832 
L 91.473344 -78.569411 
L 93.342644 -78.104008 
L 95.295644 -78.898855 
L 97.248644 -78.543649 
L 99.062144 -79.906266 
L 100.903544 -90.796679 
L 102.940244 -91.070152 
L 105.144344 -90.972372 
L 107.236844 -91.99014 
L 109.608344 -91.733634 
L 111.924044 -92.379646 
L 114.267644 -92.516848 
L 116.806544 -92.909028 
L 119.708144 -92.112611 
L 122.888744 -93.209332 
L 126.097244 -92.814002 
L 129.389444 -92.30346 
L 132.737444 -92.195531 
L 136.085444 -92.427663 
L 140.047244 -92.968625 
L 143.953244 -93.034486 
L 147.887144 -92.770868 
L 151.514144 -92.361635 
L 155.196944 -92.62419 
L 159.660944 -92.930514 
L 164.041244 -92.873189 
L 168.254144 -92.937077 
L 172.327544 -92.990159 
L 176.540444 -93.037167 
L 180.697544 -93.640487 
L 185.161544 -93.622178 
L 189.597644 -93.682066 
L 193.810544 -93.713276 
L 197.549144 -94.42355 
L 200.897144 -94.557846 
L 204.747344 -95.054033 
L 208.597544 -96.123825 
L 212.364044 -96.323023 
L 216.074744 -96.549419 
L 219.004244 -96.579398 
L 222.268544 -97.085082 
L 225.700244 -97.187885 
L 229.159844 -97.963278 
L 232.535744 -97.525345 
L 235.158344 -97.454855 
L 238.087844 -97.599919 
L 241.017344 -97.622082 
L 244.002644 -97.177763 
L 246.960044 -97.01173 
L 249.694244 -96.385785 
L 252.316844 -96.22076 
L 254.995244 -95.928653 
L 257.924744 -95.525994 
L 260.937944 -95.083469 
L 264.062744 -94.612909 
L 266.713244 -94.265745 
L 269.307944 -93.934556 
L 272.014244 -93.477359 
L 274.887944 -93.013641 
L 277.873244 -92.597531 
L 280.523744 -92.347842 
L 283.202144 -91.883571 
L 285.908444 -91.321483 
L 288.949544 -90.834131 
L 292.074344 -90.315774 
L 295.059644 -89.75783 
L 298.017044 -89.36763 
L 301.002344 -88.886458 
L 304.099244 -88.521308 
L 307.642544 -87.881426 
L 310.990544 -87.375013 
L 310.990544 -93.37652 
L 310.990544 -93.37652 
L 307.642544 -94.005661 
L 304.099244 -94.181108 
L 301.002344 -94.648633 
L 298.017044 -94.973554 
L 295.059644 -95.777191 
L 292.074344 -96.236779 
L 288.949544 -96.802144 
L 285.908444 -96.962691 
L 283.202144 -97.174923 
L 280.523744 -97.336355 
L 277.873244 -98.05854 
L 274.887944 -98.694407 
L 272.014244 -99.160533 
L 269.307944 -99.587413 
L 266.713244 -99.800328 
L 264.062744 -99.992285 
L 260.937944 -100.386646 
L 257.924744 -100.493928 
L 254.995244 -100.805422 
L 252.316844 -100.861153 
L 249.694244 -101.319947 
L 246.960044 -101.295994 
L 244.002644 -101.281309 
L 241.017344 -101.428528 
L 238.087844 -101.412859 
L 235.158344 -101.428214 
L 232.535744 -101.589202 
L 229.159844 -101.788371 
L 225.700244 -102.108787 
L 222.268544 -102.127442 
L 219.004244 -101.998031 
L 216.074744 -101.888866 
L 212.364044 -101.718585 
L 208.597544 -101.523401 
L 204.747344 -101.702678 
L 200.897144 -101.597779 
L 197.549144 -101.273817 
L 193.810544 -101.174099 
L 189.597644 -101.38341 
L 185.161544 -101.305787 
L 180.697544 -101.18816 
L 176.540444 -100.96498 
L 172.327544 -101.827184 
L 168.254144 -101.593081 
L 164.041244 -101.490214 
L 159.660944 -101.544446 
L 155.196944 -102.633658 
L 151.514144 -102.189146 
L 147.887144 -103.23064 
L 143.953244 -103.887432 
L 140.047244 -103.879142 
L 136.085444 -103.645913 
L 132.737444 -103.570094 
L 129.389444 -103.681376 
L 126.097244 -103.672096 
L 122.888744 -104.95638 
L 119.708144 -105.041718 
L 116.806544 -105.545038 
L 114.267644 -105.129107 
L 111.924044 -105.071724 
L 109.608344 -107.503511 
L 107.236844 -107.511606 
L 105.144344 -106.891129 
L 102.940244 -108.327433 
L 100.903544 -111.361485 
L 99.062144 -133.743877 
L 97.248644 -133.002146 
L 95.295644 -133.18818 
L 93.342644 -132.664438 
L 91.473344 -133.358256 
L 89.548244 -133.702126 
L 87.762644 -133.656189 
L 85.977044 -133.873851 
L 84.163544 -136.262869 
L 82.350044 -136.255934 
L 80.397044 -136.685665 
L 78.304544 -136.91105 
L 76.435244 -140.030339 
L 74.593844 -139.894698 
L 72.724544 -139.64271 
z
" style="stroke: #24a394; stroke-opacity: 0.1"/>
    </defs>
    <g clip-path="url(#p3c11edb594)">
     <use xlink:href="#m379aa203a8" x="0" y="271.190469" style="fill: #24a394; fill-opacity: 0.1; stroke: #24a394; stroke-opacity: 0.1"/>
    </g>
   </g>
   <g id="PolyCollection_2">
    <defs>
     <path id="mf56e730a84" d="M 77.941844 -184.3092 
L 77.941844 -36.013124 
L 81.289844 -38.598652 
L 84.693644 -39.465223 
L 87.985844 -42.731479 
L 91.780244 -47.136703 
L 95.490944 -48.981212 
L 99.229544 -49.268565 
L 103.051844 -49.299585 
L 106.846244 -50.889851 
L 110.612744 -48.712936 
L 114.574544 -47.614821 
L 118.341044 -50.745113 
L 122.107544 -52.48966 
L 126.097244 -52.937231 
L 129.919544 -54.32197 
L 133.407044 -54.982079 
L 136.643444 -85.75235 
L 140.075144 -87.043069 
L 143.506844 -89.133859 
L 146.687444 -88.185323 
L 150.063344 -90.356022 
L 152.992844 -99.900197 
L 155.894444 -101.004535 
L 158.851844 -100.743057 
L 161.446544 -101.705175 
L 164.236544 -102.858247 
L 167.054444 -102.902438 
L 169.732844 -102.626589 
L 172.299644 -102.726418 
L 174.950144 -104.055527 
L 177.572744 -104.101348 
L 180.251144 -103.142601 
L 182.901644 -103.217496 
L 185.273144 -103.089419 
L 187.839944 -102.825316 
L 190.350944 -101.908247 
L 192.973544 -101.320473 
L 195.261344 -100.268551 
L 197.688644 -99.44186 
L 200.115944 -99.354623 
L 202.264244 -99.579021 
L 204.524144 -98.832651 
L 206.756144 -98.153304 
L 208.904444 -97.844084 
L 210.913244 -97.295615 
L 212.754644 -96.762322 
L 214.428644 -96.019999 
L 216.130544 -95.762914 
L 217.944044 -95.268904 
L 219.562244 -94.52805 
L 221.013044 -94.019956 
L 222.435944 -93.280405 
L 223.830944 -93.169676 
L 225.281744 -92.283858 
L 226.620944 -91.678535 
L 227.932244 -91.145223 
L 229.076144 -90.418074 
L 230.275844 -90.099223 
L 231.475544 -89.423003 
L 232.619444 -88.749535 
L 233.735444 -88.492857 
L 234.767744 -87.99161 
L 236.106944 -87.157783 
L 237.529844 -86.881059 
L 239.203844 -86.218884 
L 240.849944 -85.501055 
L 242.886644 -84.672142 
L 242.886644 -92.802419 
L 242.886644 -92.802419 
L 240.849944 -93.240436 
L 239.203844 -93.774383 
L 237.529844 -94.424953 
L 236.106944 -95.595235 
L 234.767744 -95.918392 
L 233.735444 -96.39444 
L 232.619444 -97.458511 
L 231.475544 -98.311054 
L 230.275844 -98.654344 
L 229.076144 -98.881227 
L 227.932244 -99.319669 
L 226.620944 -99.701746 
L 225.281744 -100.000002 
L 223.830944 -100.829873 
L 222.435944 -102.044796 
L 221.013044 -102.152605 
L 219.562244 -103.104808 
L 217.944044 -103.834805 
L 216.130544 -105.435358 
L 214.428644 -106.079304 
L 212.754644 -106.586656 
L 210.913244 -107.748264 
L 208.904444 -108.653163 
L 206.756144 -109.253537 
L 204.524144 -109.293537 
L 202.264244 -109.577798 
L 200.115944 -111.765978 
L 197.688644 -111.788925 
L 195.261344 -112.259481 
L 192.973544 -112.452107 
L 190.350944 -113.816536 
L 187.839944 -114.188844 
L 185.273144 -116.930567 
L 182.901644 -116.957975 
L 180.251144 -116.93382 
L 177.572744 -116.92878 
L 174.950144 -116.91826 
L 172.299644 -117.14863 
L 169.732844 -116.985312 
L 167.054444 -117.28301 
L 164.236544 -117.269545 
L 161.446544 -117.006295 
L 158.851844 -120.588127 
L 155.894444 -121.018374 
L 152.992844 -121.158908 
L 150.063344 -141.434363 
L 146.687444 -140.464487 
L 143.506844 -141.160377 
L 140.075144 -140.718214 
L 136.643444 -140.295244 
L 133.407044 -200.6021 
L 129.919544 -200.241787 
L 126.097244 -199.194065 
L 122.107544 -198.966723 
L 118.341044 -198.294618 
L 114.574544 -197.26431 
L 110.612744 -198.178745 
L 106.846244 -199.82942 
L 103.051844 -199.096634 
L 99.229544 -199.074165 
L 95.490944 -198.913613 
L 91.780244 -198.332981 
L 87.985844 -195.721956 
L 84.693644 -194.150472 
L 81.289844 -193.778633 
L 77.941844 -184.3092 
z
" style="stroke: #03574d; stroke-opacity: 0.1"/>
    </defs>
    <g clip-path="url(#p3c11edb594)">
     <use xlink:href="#mf56e730a84" x="0" y="271.190469" style="fill: #03574d; fill-opacity: 0.1; stroke: #03574d; stroke-opacity: 0.1"/>
    </g>
   </g>
   <g id="PolyCollection_3">
    <defs>
     <path id="md14d0bb561" d="M 94.877144 -143.158679 
L 94.877144 -84.665541 
L 97.081244 -83.493622 
L 98.922644 -82.824237 
L 100.680344 -81.749062 
L 102.354344 -82.627983 
L 104.251544 -83.115374 
L 106.120844 -81.49476 
L 108.157544 -81.258698 
L 110.277944 -90.69624 
L 112.426244 -90.254546 
L 114.602444 -91.507206 
L 116.778644 -91.606085 
L 119.178044 -91.639582 
L 121.689044 -91.496094 
L 124.283744 -92.179904 
L 126.934244 -95.486835 
L 129.501044 -95.266481 
L 132.067844 -95.412334 
L 134.829944 -94.911424 
L 137.647844 -95.856677 
L 140.354144 -97.252837 
L 143.144144 -97.04751 
L 146.241044 -96.758069 
L 149.226344 -96.936539 
L 152.295344 -96.850461 
L 155.280644 -97.843922 
L 158.238044 -98.631965 
L 161.307044 -98.803125 
L 164.292344 -98.575605 
L 167.584544 -98.745842 
L 170.820944 -98.736655 
L 174.029444 -98.539192 
L 176.931044 -98.806349 
L 179.637344 -98.31964 
L 182.706344 -98.298492 
L 185.691644 -98.032528 
L 188.565344 -97.911261 
L 191.439044 -97.999748 
L 194.089544 -98.310122 
L 196.963244 -98.000846 
L 199.948544 -97.95656 
L 202.822244 -97.995961 
L 205.528544 -98.140512 
L 208.346444 -98.212513 
L 211.248044 -98.053269 
L 214.065944 -97.774327 
L 217.051244 -97.702971 
L 219.869144 -97.519586 
L 222.603344 -97.606451 
L 224.974844 -97.499267 
L 227.485844 -97.214615 
L 230.080544 -96.711276 
L 232.675244 -96.519921 
L 235.381544 -96.521638 
L 237.669344 -96.332012 
L 240.124544 -96.078112 
L 242.691344 -95.781372 
L 245.118644 -95.898501 
L 247.713344 -95.667645 
L 249.973244 -95.286613 
L 252.233144 -94.925929 
L 254.604644 -94.618918 
L 256.836644 -94.447421 
L 259.040744 -94.039978 
L 261.049544 -93.553004 
L 263.197844 -93.148028 
L 265.262444 -92.722287 
L 267.271244 -92.326923 
L 269.307944 -91.95204 
L 271.344644 -91.695079 
L 273.381344 -91.281284 
L 275.418044 -90.800634 
L 277.566344 -90.380787 
L 279.630944 -90.011645 
L 281.639744 -89.65777 
L 283.564844 -89.208916 
L 285.489944 -88.751284 
L 287.498744 -88.440791 
L 289.507544 -88.174376 
L 291.934844 -87.708249 
L 291.934844 -92.444811 
L 291.934844 -92.444811 
L 289.507544 -92.761743 
L 287.498744 -93.325187 
L 285.489944 -93.86876 
L 283.564844 -94.220918 
L 281.639744 -94.514308 
L 279.630944 -94.978011 
L 277.566344 -95.385429 
L 275.418044 -95.772642 
L 273.381344 -95.859277 
L 271.344644 -96.08531 
L 269.307944 -96.626581 
L 267.271244 -97.153906 
L 265.262444 -97.428919 
L 263.197844 -97.899389 
L 261.049544 -98.072242 
L 259.040744 -98.329757 
L 256.836644 -98.492478 
L 254.604644 -99.248939 
L 252.233144 -99.65597 
L 249.973244 -99.973247 
L 247.713344 -99.98716 
L 245.118644 -100.176985 
L 242.691344 -101.322744 
L 240.124544 -101.397813 
L 237.669344 -101.401728 
L 235.381544 -101.492116 
L 232.675244 -101.492104 
L 230.080544 -101.620311 
L 227.485844 -101.660017 
L 224.974844 -102.159812 
L 222.603344 -102.273918 
L 219.869144 -102.244001 
L 217.051244 -102.690479 
L 214.065944 -103.005127 
L 211.248044 -103.364792 
L 208.346444 -103.493888 
L 205.528544 -103.498169 
L 202.822244 -103.317955 
L 199.948544 -103.279553 
L 196.963244 -103.354796 
L 194.089544 -103.694107 
L 191.439044 -103.694493 
L 188.565344 -103.046139 
L 185.691644 -103.12039 
L 182.706344 -103.618159 
L 179.637344 -103.624672 
L 176.931044 -103.894151 
L 174.029444 -105.274214 
L 170.820944 -105.712783 
L 167.584544 -105.956272 
L 164.292344 -105.920886 
L 161.307044 -105.943377 
L 158.238044 -106.86095 
L 155.280644 -106.765277 
L 152.295344 -106.64922 
L 149.226344 -107.286686 
L 146.241044 -107.292285 
L 143.144144 -108.020949 
L 140.354144 -108.186635 
L 137.647844 -108.325746 
L 134.829944 -108.077786 
L 132.067844 -108.579346 
L 129.501044 -108.545525 
L 126.934244 -109.210602 
L 124.283744 -109.735061 
L 121.689044 -113.520723 
L 119.178044 -113.833026 
L 116.778644 -114.53542 
L 114.602444 -114.385606 
L 112.426244 -113.874914 
L 110.277944 -115.419864 
L 108.157544 -136.033577 
L 106.120844 -136.406789 
L 104.251544 -138.759868 
L 102.354344 -138.698307 
L 100.680344 -138.220833 
L 98.922644 -138.922332 
L 97.081244 -140.118926 
L 94.877144 -143.158679 
z
" style="stroke: #b5971d; stroke-opacity: 0.1"/>
    </defs>
    <g clip-path="url(#p3c11edb594)">
     <use xlink:href="#md14d0bb561" x="0" y="271.190469" style="fill: #b5971d; fill-opacity: 0.1; stroke: #b5971d; stroke-opacity: 0.1"/>
    </g>
   </g>
   <g id="PolyCollection_4">
    <defs>
     <path id="me211d95904" d="M 90.580544 -150.607724 
L 90.580544 -62.643654 
L 94.626044 -67.834367 
L 98.783144 -70.277621 
L 102.856544 -77.557266 
L 106.539344 -82.131276 
L 110.138444 -87.287747 
L 114.128144 -91.415543 
L 118.062044 -91.464548 
L 122.023844 -94.844445 
L 125.790344 -94.965686 
L 129.277844 -95.187861 
L 132.793244 -95.334085 
L 136.336544 -98.427404 
L 139.293944 -101.315976 
L 142.083944 -100.738393 
L 144.873944 -100.365521 
L 147.663944 -100.097791 
L 150.314444 -101.755399 
L 153.188144 -103.493942 
L 155.950244 -102.965278 
L 158.544944 -102.617775 
L 160.916444 -103.12448 
L 163.176344 -103.4479 
L 165.631544 -104.208228 
L 168.003044 -104.484949 
L 170.430344 -104.328568 
L 172.522844 -105.156771 
L 174.810644 -104.506895 
L 177.098444 -104.617887 
L 179.246744 -104.488366 
L 181.478744 -104.730519 
L 183.487544 -105.947864 
L 185.747444 -105.615055 
L 187.951544 -106.756153 
L 190.155644 -106.244314 
L 192.276044 -105.986953 
L 194.452244 -105.766466 
L 196.684244 -105.721332 
L 198.748844 -104.66041 
L 200.785544 -103.694536 
L 202.794344 -103.36938 
L 204.886844 -102.937653 
L 207.063044 -102.636067 
L 209.043944 -102.240698 
L 210.941144 -101.439099 
L 212.866244 -100.916395 
L 214.791344 -100.750525 
L 216.549044 -100.443919 
L 218.306744 -99.680045 
L 220.315544 -99.317888 
L 222.268544 -98.274619 
L 224.221544 -97.789336 
L 225.839744 -97.321614 
L 227.597444 -96.869889 
L 229.327244 -96.213448 
L 231.057044 -95.924835 
L 232.870544 -95.682331 
L 234.600344 -95.046413 
L 236.469644 -94.373627 
L 238.311044 -93.987002 
L 240.124544 -93.525643 
L 241.826444 -93.257675 
L 243.612044 -92.79093 
L 245.537144 -92.389959 
L 247.545944 -92.05871 
L 249.498944 -91.606312 
L 251.535644 -91.182179 
L 253.683944 -90.882958 
L 256.055444 -90.627268 
L 258.399044 -90.134461 
L 260.826344 -89.57543 
L 263.225744 -89.200615 
L 266.434244 -88.637103 
L 269.475344 -88.226092 
L 269.475344 -93.67627 
L 269.475344 -93.67627 
L 266.434244 -94.253722 
L 263.225744 -94.841755 
L 260.826344 -95.42616 
L 258.399044 -95.538835 
L 256.055444 -96.113535 
L 253.683944 -96.504027 
L 251.535644 -97.543559 
L 249.498944 -98.014436 
L 247.545944 -98.663259 
L 245.537144 -99.058859 
L 243.612044 -99.890424 
L 241.826444 -100.292202 
L 240.124544 -101.01015 
L 238.311044 -101.916079 
L 236.469644 -102.165286 
L 234.600344 -102.151846 
L 232.870544 -102.79603 
L 231.057044 -104.315971 
L 229.327244 -105.570018 
L 227.597444 -105.849571 
L 225.839744 -106.667955 
L 224.221544 -107.108821 
L 222.268544 -107.794045 
L 220.315544 -108.118171 
L 218.306744 -109.32027 
L 216.549044 -110.042471 
L 214.791344 -110.336795 
L 212.866244 -112.398781 
L 210.941144 -113.411073 
L 209.043944 -113.643027 
L 207.063044 -113.841053 
L 204.886844 -113.813802 
L 202.794344 -114.017804 
L 200.785544 -114.353926 
L 198.748844 -114.722318 
L 196.684244 -116.321529 
L 194.452244 -118.598225 
L 192.276044 -119.125599 
L 190.155644 -119.550246 
L 187.951544 -119.539354 
L 185.747444 -119.702387 
L 183.487544 -119.78225 
L 181.478744 -124.569703 
L 179.246744 -124.548864 
L 177.098444 -124.714435 
L 174.810644 -124.660119 
L 172.522844 -125.272915 
L 170.430344 -124.587613 
L 168.003044 -125.388571 
L 165.631544 -125.334458 
L 163.176344 -130.493846 
L 160.916444 -130.51783 
L 158.544944 -130.442139 
L 155.950244 -133.264935 
L 153.188144 -133.887922 
L 150.314444 -133.140459 
L 147.663944 -131.945698 
L 144.873944 -133.288965 
L 142.083944 -134.568175 
L 139.293944 -134.903135 
L 136.336544 -135.658799 
L 132.793244 -135.804784 
L 129.277844 -136.413013 
L 125.790344 -143.626814 
L 122.023844 -149.567018 
L 118.062044 -149.61181 
L 114.128144 -155.802455 
L 110.138444 -156.050844 
L 106.539344 -155.199624 
L 102.856544 -155.106847 
L 98.783144 -151.715322 
L 94.626044 -151.167778 
L 90.580544 -150.607724 
z
" style="stroke: #705b06; stroke-opacity: 0.1"/>
    </defs>
    <g clip-path="url(#p3c11edb594)">
     <use xlink:href="#me211d95904" x="0" y="271.190469" style="fill: #705b06; fill-opacity: 0.1; stroke: #705b06; stroke-opacity: 0.1"/>
    </g>
   </g>
   <g id="matplotlib.axis_1">
    <g id="xtick_1">
     <g id="line2d_1">
      <defs>
       <path id="mca25e64ef4" d="M 0 0 
L 0 3.5 
" style="stroke: #000000; stroke-width: 0.8"/>
      </defs>
      <g>
       <use xlink:href="#mca25e64ef4" x="41.532344" y="224.64" style="stroke: #000000; stroke-width: 0.8"/>
      </g>
     </g>
     <g id="text_1">
      <!-- 0 -->
      <g transform="translate(37.639688 241.660937)scale(0.14 -0.14)">
       <defs>
        <path id="ArialMT-30" d="M 266 2259 
Q 266 3072 433 3567 
Q 600 4063 929 4331 
Q 1259 4600 1759 4600 
Q 2128 4600 2406 4451 
Q 2684 4303 2865 4023 
Q 3047 3744 3150 3342 
Q 3253 2941 3253 2259 
Q 3253 1453 3087 958 
Q 2922 463 2592 192 
Q 2263 -78 1759 -78 
Q 1097 -78 719 397 
Q 266 969 266 2259 
z
M 844 2259 
Q 844 1131 1108 757 
Q 1372 384 1759 384 
Q 2147 384 2411 759 
Q 2675 1134 2675 2259 
Q 2675 3391 2411 3762 
Q 2147 4134 1753 4134 
Q 1366 4134 1134 3806 
Q 844 3388 844 2259 
z
" transform="scale(0.015625)"/>
       </defs>
       <use xlink:href="#ArialMT-30"/>
      </g>
     </g>
    </g>
    <g id="xtick_2">
     <g id="line2d_2">
      <g>
       <use xlink:href="#mca25e64ef4" x="97.332344" y="224.64" style="stroke: #000000; stroke-width: 0.8"/>
      </g>
     </g>
     <g id="text_2">
      <!-- 100 -->
      <g transform="translate(85.654375 241.660937)scale(0.14 -0.14)">
       <defs>
        <path id="ArialMT-31" d="M 2384 0 
L 1822 0 
L 1822 3584 
Q 1619 3391 1289 3197 
Q 959 3003 697 2906 
L 697 3450 
Q 1169 3672 1522 3987 
Q 1875 4303 2022 4600 
L 2384 4600 
L 2384 0 
z
" transform="scale(0.015625)"/>
       </defs>
       <use xlink:href="#ArialMT-31"/>
       <use xlink:href="#ArialMT-30" x="55.615234"/>
       <use xlink:href="#ArialMT-30" x="111.230469"/>
      </g>
     </g>
    </g>
    <g id="xtick_3">
     <g id="line2d_3">
      <g>
       <use xlink:href="#mca25e64ef4" x="153.132344" y="224.64" style="stroke: #000000; stroke-width: 0.8"/>
      </g>
     </g>
     <g id="text_3">
      <!-- 200 -->
      <g transform="translate(141.454375 241.660937)scale(0.14 -0.14)">
       <defs>
        <path id="ArialMT-32" d="M 3222 541 
L 3222 0 
L 194 0 
Q 188 203 259 391 
Q 375 700 629 1000 
Q 884 1300 1366 1694 
Q 2113 2306 2375 2664 
Q 2638 3022 2638 3341 
Q 2638 3675 2398 3904 
Q 2159 4134 1775 4134 
Q 1369 4134 1125 3890 
Q 881 3647 878 3216 
L 300 3275 
Q 359 3922 746 4261 
Q 1134 4600 1788 4600 
Q 2447 4600 2831 4234 
Q 3216 3869 3216 3328 
Q 3216 3053 3103 2787 
Q 2991 2522 2730 2228 
Q 2469 1934 1863 1422 
Q 1356 997 1212 845 
Q 1069 694 975 541 
L 3222 541 
z
" transform="scale(0.015625)"/>
       </defs>
       <use xlink:href="#ArialMT-32"/>
       <use xlink:href="#ArialMT-30" x="55.615234"/>
       <use xlink:href="#ArialMT-30" x="111.230469"/>
      </g>
     </g>
    </g>
    <g id="xtick_4">
     <g id="line2d_4">
      <g>
       <use xlink:href="#mca25e64ef4" x="208.932344" y="224.64" style="stroke: #000000; stroke-width: 0.8"/>
      </g>
     </g>
     <g id="text_4">
      <!-- 300 -->
      <g transform="translate(197.254375 241.660937)scale(0.14 -0.14)">
       <defs>
        <path id="ArialMT-33" d="M 269 1209 
L 831 1284 
Q 928 806 1161 595 
Q 1394 384 1728 384 
Q 2125 384 2398 659 
Q 2672 934 2672 1341 
Q 2672 1728 2419 1979 
Q 2166 2231 1775 2231 
Q 1616 2231 1378 2169 
L 1441 2663 
Q 1497 2656 1531 2656 
Q 1891 2656 2178 2843 
Q 2466 3031 2466 3422 
Q 2466 3731 2256 3934 
Q 2047 4138 1716 4138 
Q 1388 4138 1169 3931 
Q 950 3725 888 3313 
L 325 3413 
Q 428 3978 793 4289 
Q 1159 4600 1703 4600 
Q 2078 4600 2393 4439 
Q 2709 4278 2876 4000 
Q 3044 3722 3044 3409 
Q 3044 3113 2884 2869 
Q 2725 2625 2413 2481 
Q 2819 2388 3044 2092 
Q 3269 1797 3269 1353 
Q 3269 753 2831 336 
Q 2394 -81 1725 -81 
Q 1122 -81 723 278 
Q 325 638 269 1209 
z
" transform="scale(0.015625)"/>
       </defs>
       <use xlink:href="#ArialMT-33"/>
       <use xlink:href="#ArialMT-30" x="55.615234"/>
       <use xlink:href="#ArialMT-30" x="111.230469"/>
      </g>
     </g>
    </g>
    <g id="xtick_5">
     <g id="line2d_5">
      <g>
       <use xlink:href="#mca25e64ef4" x="264.732344" y="224.64" style="stroke: #000000; stroke-width: 0.8"/>
      </g>
     </g>
     <g id="text_5">
      <!-- 400 -->
      <g transform="translate(253.054375 241.660937)scale(0.14 -0.14)">
       <defs>
        <path id="ArialMT-34" d="M 2069 0 
L 2069 1097 
L 81 1097 
L 81 1613 
L 2172 4581 
L 2631 4581 
L 2631 1613 
L 3250 1613 
L 3250 1097 
L 2631 1097 
L 2631 0 
L 2069 0 
z
M 2069 1613 
L 2069 3678 
L 634 1613 
L 2069 1613 
z
" transform="scale(0.015625)"/>
       </defs>
       <use xlink:href="#ArialMT-34"/>
       <use xlink:href="#ArialMT-30" x="55.615234"/>
       <use xlink:href="#ArialMT-30" x="111.230469"/>
      </g>
     </g>
    </g>
    <g id="xtick_6">
     <g id="line2d_6">
      <g>
       <use xlink:href="#mca25e64ef4" x="320.532344" y="224.64" style="stroke: #000000; stroke-width: 0.8"/>
      </g>
     </g>
     <g id="text_6">
      <!-- 500 -->
      <g transform="translate(308.854375 241.660937)scale(0.14 -0.14)">
       <defs>
        <path id="ArialMT-35" d="M 266 1200 
L 856 1250 
Q 922 819 1161 601 
Q 1400 384 1738 384 
Q 2144 384 2425 690 
Q 2706 997 2706 1503 
Q 2706 1984 2436 2262 
Q 2166 2541 1728 2541 
Q 1456 2541 1237 2417 
Q 1019 2294 894 2097 
L 366 2166 
L 809 4519 
L 3088 4519 
L 3088 3981 
L 1259 3981 
L 1013 2750 
Q 1425 3038 1878 3038 
Q 2478 3038 2890 2622 
Q 3303 2206 3303 1553 
Q 3303 931 2941 478 
Q 2500 -78 1738 -78 
Q 1113 -78 717 272 
Q 322 622 266 1200 
z
" transform="scale(0.015625)"/>
       </defs>
       <use xlink:href="#ArialMT-35"/>
       <use xlink:href="#ArialMT-30" x="55.615234"/>
       <use xlink:href="#ArialMT-30" x="111.230469"/>
      </g>
     </g>
    </g>
    <g id="xtick_7">
     <g id="line2d_7">
      <g>
       <use xlink:href="#mca25e64ef4" x="376.332344" y="224.64" style="stroke: #000000; stroke-width: 0.8"/>
      </g>
     </g>
     <g id="text_7">
      <!-- 600 -->
      <g transform="translate(364.654375 241.660937)scale(0.14 -0.14)">
       <defs>
        <path id="ArialMT-36" d="M 3184 3459 
L 2625 3416 
Q 2550 3747 2413 3897 
Q 2184 4138 1850 4138 
Q 1581 4138 1378 3988 
Q 1113 3794 959 3422 
Q 806 3050 800 2363 
Q 1003 2672 1297 2822 
Q 1591 2972 1913 2972 
Q 2475 2972 2870 2558 
Q 3266 2144 3266 1488 
Q 3266 1056 3080 686 
Q 2894 316 2569 119 
Q 2244 -78 1831 -78 
Q 1128 -78 684 439 
Q 241 956 241 2144 
Q 241 3472 731 4075 
Q 1159 4600 1884 4600 
Q 2425 4600 2770 4297 
Q 3116 3994 3184 3459 
z
M 888 1484 
Q 888 1194 1011 928 
Q 1134 663 1356 523 
Q 1578 384 1822 384 
Q 2178 384 2434 671 
Q 2691 959 2691 1453 
Q 2691 1928 2437 2201 
Q 2184 2475 1800 2475 
Q 1419 2475 1153 2201 
Q 888 1928 888 1484 
z
" transform="scale(0.015625)"/>
       </defs>
       <use xlink:href="#ArialMT-36"/>
       <use xlink:href="#ArialMT-30" x="55.615234"/>
       <use xlink:href="#ArialMT-30" x="111.230469"/>
      </g>
     </g>
    </g>
    <g id="text_8">
     <!-- Number of Nodes -->
     <g transform="translate(142.322891 260.611719)scale(0.17 -0.17)">
      <defs>
       <path id="ArialMT-4e" d="M 488 0 
L 488 4581 
L 1109 4581 
L 3516 984 
L 3516 4581 
L 4097 4581 
L 4097 0 
L 3475 0 
L 1069 3600 
L 1069 0 
L 488 0 
z
" transform="scale(0.015625)"/>
       <path id="ArialMT-75" d="M 2597 0 
L 2597 488 
Q 2209 -75 1544 -75 
Q 1250 -75 995 37 
Q 741 150 617 320 
Q 494 491 444 738 
Q 409 903 409 1263 
L 409 3319 
L 972 3319 
L 972 1478 
Q 972 1038 1006 884 
Q 1059 663 1231 536 
Q 1403 409 1656 409 
Q 1909 409 2131 539 
Q 2353 669 2445 892 
Q 2538 1116 2538 1541 
L 2538 3319 
L 3100 3319 
L 3100 0 
L 2597 0 
z
" transform="scale(0.015625)"/>
       <path id="ArialMT-6d" d="M 422 0 
L 422 3319 
L 925 3319 
L 925 2853 
Q 1081 3097 1340 3245 
Q 1600 3394 1931 3394 
Q 2300 3394 2536 3241 
Q 2772 3088 2869 2813 
Q 3263 3394 3894 3394 
Q 4388 3394 4653 3120 
Q 4919 2847 4919 2278 
L 4919 0 
L 4359 0 
L 4359 2091 
Q 4359 2428 4304 2576 
Q 4250 2725 4106 2815 
Q 3963 2906 3769 2906 
Q 3419 2906 3187 2673 
Q 2956 2441 2956 1928 
L 2956 0 
L 2394 0 
L 2394 2156 
Q 2394 2531 2256 2718 
Q 2119 2906 1806 2906 
Q 1569 2906 1367 2781 
Q 1166 2656 1075 2415 
Q 984 2175 984 1722 
L 984 0 
L 422 0 
z
" transform="scale(0.015625)"/>
       <path id="ArialMT-62" d="M 941 0 
L 419 0 
L 419 4581 
L 981 4581 
L 981 2947 
Q 1338 3394 1891 3394 
Q 2197 3394 2470 3270 
Q 2744 3147 2920 2923 
Q 3097 2700 3197 2384 
Q 3297 2069 3297 1709 
Q 3297 856 2875 390 
Q 2453 -75 1863 -75 
Q 1275 -75 941 416 
L 941 0 
z
M 934 1684 
Q 934 1088 1097 822 
Q 1363 388 1816 388 
Q 2184 388 2453 708 
Q 2722 1028 2722 1663 
Q 2722 2313 2464 2622 
Q 2206 2931 1841 2931 
Q 1472 2931 1203 2611 
Q 934 2291 934 1684 
z
" transform="scale(0.015625)"/>
       <path id="ArialMT-65" d="M 2694 1069 
L 3275 997 
Q 3138 488 2766 206 
Q 2394 -75 1816 -75 
Q 1088 -75 661 373 
Q 234 822 234 1631 
Q 234 2469 665 2931 
Q 1097 3394 1784 3394 
Q 2450 3394 2872 2941 
Q 3294 2488 3294 1666 
Q 3294 1616 3291 1516 
L 816 1516 
Q 847 969 1125 678 
Q 1403 388 1819 388 
Q 2128 388 2347 550 
Q 2566 713 2694 1069 
z
M 847 1978 
L 2700 1978 
Q 2663 2397 2488 2606 
Q 2219 2931 1791 2931 
Q 1403 2931 1139 2672 
Q 875 2413 847 1978 
z
" transform="scale(0.015625)"/>
       <path id="ArialMT-72" d="M 416 0 
L 416 3319 
L 922 3319 
L 922 2816 
Q 1116 3169 1280 3281 
Q 1444 3394 1641 3394 
Q 1925 3394 2219 3213 
L 2025 2691 
Q 1819 2813 1613 2813 
Q 1428 2813 1281 2702 
Q 1134 2591 1072 2394 
Q 978 2094 978 1738 
L 978 0 
L 416 0 
z
" transform="scale(0.015625)"/>
       <path id="ArialMT-20" transform="scale(0.015625)"/>
       <path id="ArialMT-6f" d="M 213 1659 
Q 213 2581 725 3025 
Q 1153 3394 1769 3394 
Q 2453 3394 2887 2945 
Q 3322 2497 3322 1706 
Q 3322 1066 3130 698 
Q 2938 331 2570 128 
Q 2203 -75 1769 -75 
Q 1072 -75 642 372 
Q 213 819 213 1659 
z
M 791 1659 
Q 791 1022 1069 705 
Q 1347 388 1769 388 
Q 2188 388 2466 706 
Q 2744 1025 2744 1678 
Q 2744 2294 2464 2611 
Q 2184 2928 1769 2928 
Q 1347 2928 1069 2612 
Q 791 2297 791 1659 
z
" transform="scale(0.015625)"/>
       <path id="ArialMT-66" d="M 556 0 
L 556 2881 
L 59 2881 
L 59 3319 
L 556 3319 
L 556 3672 
Q 556 4006 616 4169 
Q 697 4388 901 4523 
Q 1106 4659 1475 4659 
Q 1713 4659 2000 4603 
L 1916 4113 
Q 1741 4144 1584 4144 
Q 1328 4144 1222 4034 
Q 1116 3925 1116 3625 
L 1116 3319 
L 1763 3319 
L 1763 2881 
L 1116 2881 
L 1116 0 
L 556 0 
z
" transform="scale(0.015625)"/>
       <path id="ArialMT-64" d="M 2575 0 
L 2575 419 
Q 2259 -75 1647 -75 
Q 1250 -75 917 144 
Q 584 363 401 755 
Q 219 1147 219 1656 
Q 219 2153 384 2558 
Q 550 2963 881 3178 
Q 1213 3394 1622 3394 
Q 1922 3394 2156 3267 
Q 2391 3141 2538 2938 
L 2538 4581 
L 3097 4581 
L 3097 0 
L 2575 0 
z
M 797 1656 
Q 797 1019 1065 703 
Q 1334 388 1700 388 
Q 2069 388 2326 689 
Q 2584 991 2584 1609 
Q 2584 2291 2321 2609 
Q 2059 2928 1675 2928 
Q 1300 2928 1048 2622 
Q 797 2316 797 1656 
z
" transform="scale(0.015625)"/>
       <path id="ArialMT-73" d="M 197 991 
L 753 1078 
Q 800 744 1014 566 
Q 1228 388 1613 388 
Q 2000 388 2187 545 
Q 2375 703 2375 916 
Q 2375 1106 2209 1216 
Q 2094 1291 1634 1406 
Q 1016 1563 777 1677 
Q 538 1791 414 1992 
Q 291 2194 291 2438 
Q 291 2659 392 2848 
Q 494 3038 669 3163 
Q 800 3259 1026 3326 
Q 1253 3394 1513 3394 
Q 1903 3394 2198 3281 
Q 2494 3169 2634 2976 
Q 2775 2784 2828 2463 
L 2278 2388 
Q 2241 2644 2061 2787 
Q 1881 2931 1553 2931 
Q 1166 2931 1000 2803 
Q 834 2675 834 2503 
Q 834 2394 903 2306 
Q 972 2216 1119 2156 
Q 1203 2125 1616 2013 
Q 2213 1853 2448 1751 
Q 2684 1650 2818 1456 
Q 2953 1263 2953 975 
Q 2953 694 2789 445 
Q 2625 197 2315 61 
Q 2006 -75 1616 -75 
Q 969 -75 630 194 
Q 291 463 197 991 
z
" transform="scale(0.015625)"/>
      </defs>
      <use xlink:href="#ArialMT-4e"/>
      <use xlink:href="#ArialMT-75" x="72.216797"/>
      <use xlink:href="#ArialMT-6d" x="127.832031"/>
      <use xlink:href="#ArialMT-62" x="211.132812"/>
      <use xlink:href="#ArialMT-65" x="266.748047"/>
      <use xlink:href="#ArialMT-72" x="322.363281"/>
      <use xlink:href="#ArialMT-20" x="355.664062"/>
      <use xlink:href="#ArialMT-6f" x="383.447266"/>
      <use xlink:href="#ArialMT-66" x="439.0625"/>
      <use xlink:href="#ArialMT-20" x="466.845703"/>
      <use xlink:href="#ArialMT-4e" x="494.628906"/>
      <use xlink:href="#ArialMT-6f" x="566.845703"/>
      <use xlink:href="#ArialMT-64" x="622.460938"/>
      <use xlink:href="#ArialMT-65" x="678.076172"/>
      <use xlink:href="#ArialMT-73" x="733.691406"/>
     </g>
    </g>
   </g>
   <g id="matplotlib.axis_2">
    <g id="ytick_1">
     <g id="line2d_8">
      <defs>
       <path id="m6cf8b35e57" d="M 0 0 
L -3.5 0 
" style="stroke: #000000; stroke-width: 0.8"/>
      </defs>
      <g>
       <use xlink:href="#m6cf8b35e57" x="41.532344" y="224.64" style="stroke: #000000; stroke-width: 0.8"/>
      </g>
     </g>
     <g id="text_9">
      <!-- 0 -->
      <g transform="translate(26.747031 229.650469)scale(0.14 -0.14)">
       <use xlink:href="#ArialMT-30"/>
      </g>
     </g>
    </g>
    <g id="ytick_2">
     <g id="line2d_9">
      <g>
       <use xlink:href="#m6cf8b35e57" x="41.532344" y="199.058824" style="stroke: #000000; stroke-width: 0.8"/>
      </g>
     </g>
     <g id="text_10">
      <!-- 1 -->
      <g transform="translate(26.747031 204.069292)scale(0.14 -0.14)">
       <use xlink:href="#ArialMT-31"/>
      </g>
     </g>
    </g>
    <g id="ytick_3">
     <g id="line2d_10">
      <g>
       <use xlink:href="#m6cf8b35e57" x="41.532344" y="173.477647" style="stroke: #000000; stroke-width: 0.8"/>
      </g>
     </g>
     <g id="text_11">
      <!-- 2 -->
      <g transform="translate(26.747031 178.488116)scale(0.14 -0.14)">
       <use xlink:href="#ArialMT-32"/>
      </g>
     </g>
    </g>
    <g id="ytick_4">
     <g id="line2d_11">
      <g>
       <use xlink:href="#m6cf8b35e57" x="41.532344" y="147.896471" style="stroke: #000000; stroke-width: 0.8"/>
      </g>
     </g>
     <g id="text_12">
      <!-- 3 -->
      <g transform="translate(26.747031 152.906939)scale(0.14 -0.14)">
       <use xlink:href="#ArialMT-33"/>
      </g>
     </g>
    </g>
    <g id="ytick_5">
     <g id="line2d_12">
      <g>
       <use xlink:href="#m6cf8b35e57" x="41.532344" y="122.315294" style="stroke: #000000; stroke-width: 0.8"/>
      </g>
     </g>
     <g id="text_13">
      <!-- 4 -->
      <g transform="translate(26.747031 127.325763)scale(0.14 -0.14)">
       <use xlink:href="#ArialMT-34"/>
      </g>
     </g>
    </g>
    <g id="ytick_6">
     <g id="line2d_13">
      <g>
       <use xlink:href="#m6cf8b35e57" x="41.532344" y="96.734118" style="stroke: #000000; stroke-width: 0.8"/>
      </g>
     </g>
     <g id="text_14">
      <!-- 5 -->
      <g transform="translate(26.747031 101.744586)scale(0.14 -0.14)">
       <use xlink:href="#ArialMT-35"/>
      </g>
     </g>
    </g>
    <g id="ytick_7">
     <g id="line2d_14">
      <g>
       <use xlink:href="#m6cf8b35e57" x="41.532344" y="71.152941" style="stroke: #000000; stroke-width: 0.8"/>
      </g>
     </g>
     <g id="text_15">
      <!-- 6 -->
      <g transform="translate(26.747031 76.16341)scale(0.14 -0.14)">
       <use xlink:href="#ArialMT-36"/>
      </g>
     </g>
    </g>
    <g id="ytick_8">
     <g id="line2d_15">
      <g>
       <use xlink:href="#m6cf8b35e57" x="41.532344" y="45.571765" style="stroke: #000000; stroke-width: 0.8"/>
      </g>
     </g>
     <g id="text_16">
      <!-- 7 -->
      <g transform="translate(26.747031 50.582233)scale(0.14 -0.14)">
       <defs>
        <path id="ArialMT-37" d="M 303 3981 
L 303 4522 
L 3269 4522 
L 3269 4084 
Q 2831 3619 2401 2847 
Q 1972 2075 1738 1259 
Q 1569 684 1522 0 
L 944 0 
Q 953 541 1156 1306 
Q 1359 2072 1739 2783 
Q 2119 3494 2547 3981 
L 303 3981 
z
" transform="scale(0.015625)"/>
       </defs>
       <use xlink:href="#ArialMT-37"/>
      </g>
     </g>
    </g>
    <g id="ytick_9">
     <g id="line2d_16">
      <g>
       <use xlink:href="#m6cf8b35e57" x="41.532344" y="19.990588" style="stroke: #000000; stroke-width: 0.8"/>
      </g>
     </g>
     <g id="text_17">
      <!-- 8 -->
      <g transform="translate(26.747031 25.001057)scale(0.14 -0.14)">
       <defs>
        <path id="ArialMT-38" d="M 1131 2484 
Q 781 2613 612 2850 
Q 444 3088 444 3419 
Q 444 3919 803 4259 
Q 1163 4600 1759 4600 
Q 2359 4600 2725 4251 
Q 3091 3903 3091 3403 
Q 3091 3084 2923 2848 
Q 2756 2613 2416 2484 
Q 2838 2347 3058 2040 
Q 3278 1734 3278 1309 
Q 3278 722 2862 322 
Q 2447 -78 1769 -78 
Q 1091 -78 675 323 
Q 259 725 259 1325 
Q 259 1772 486 2073 
Q 713 2375 1131 2484 
z
M 1019 3438 
Q 1019 3113 1228 2906 
Q 1438 2700 1772 2700 
Q 2097 2700 2305 2904 
Q 2513 3109 2513 3406 
Q 2513 3716 2298 3927 
Q 2084 4138 1766 4138 
Q 1444 4138 1231 3931 
Q 1019 3725 1019 3438 
z
M 838 1322 
Q 838 1081 952 856 
Q 1066 631 1291 507 
Q 1516 384 1775 384 
Q 2178 384 2440 643 
Q 2703 903 2703 1303 
Q 2703 1709 2433 1975 
Q 2163 2241 1756 2241 
Q 1359 2241 1098 1978 
Q 838 1716 838 1322 
z
" transform="scale(0.015625)"/>
       </defs>
       <use xlink:href="#ArialMT-38"/>
      </g>
     </g>
    </g>
    <g id="text_18">
     <!-- $\sigma$ -->
     <g transform="translate(19.368281 121.36)rotate(-90)scale(0.17 -0.17)">
      <defs>
       <path id="DejaVuSans-Oblique-3c3" d="M 2219 3044 
Q 1744 3044 1422 2700 
Q 1081 2341 969 1747 
Q 844 1119 1044 756 
Q 1241 397 1706 397 
Q 2166 397 2503 759 
Q 2844 1122 2966 1747 
Q 3075 2319 2881 2700 
Q 2700 3044 2219 3044 
z
M 2309 3503 
L 4219 3500 
L 4106 2925 
L 3463 2925 
Q 3706 2438 3575 1747 
Q 3406 888 2884 400 
Q 2359 -91 1609 -91 
Q 856 -91 525 400 
Q 194 888 363 1747 
Q 528 2609 1050 3097 
Q 1484 3503 2309 3503 
z
" transform="scale(0.015625)"/>
      </defs>
      <use xlink:href="#DejaVuSans-Oblique-3c3" transform="translate(0 0.265625)"/>
     </g>
    </g>
   </g>
   <g id="line2d_17">
    <path d="M 72.724544 163.71993 
L 74.593844 162.732058 
L 76.435244 161.514659 
L 78.304544 163.529747 
L 80.397044 162.402531 
L 82.350044 162.764913 
L 84.163544 162.750821 
L 85.977044 164.516847 
L 87.762644 164.858341 
L 89.548244 164.746989 
L 91.473344 165.226635 
L 93.342644 165.806246 
L 95.295644 165.146951 
L 97.248644 165.417571 
L 99.062144 164.365398 
L 100.903544 170.111387 
L 102.940244 171.491676 
L 105.144344 172.258718 
L 107.236844 171.439596 
L 109.608344 171.571896 
L 111.924044 172.464784 
L 114.267644 172.367491 
L 116.806544 171.963436 
L 119.708144 172.613304 
L 122.888744 172.107613 
L 126.097244 172.94742 
L 129.389444 173.198051 
L 132.737444 173.307656 
L 136.085444 173.153681 
L 140.047244 172.766585 
L 143.953244 172.72951 
L 147.887144 173.189715 
L 151.514144 173.915078 
L 155.196944 173.561545 
L 159.660944 173.952989 
L 164.041244 174.008767 
L 168.254144 173.925389 
L 172.327544 173.781797 
L 176.540444 174.189395 
L 180.697544 173.776145 
L 185.161544 173.726486 
L 189.597644 173.657731 
L 193.810544 173.746781 
L 197.549144 173.341785 
L 200.897144 173.112656 
L 204.747344 172.812113 
L 208.597544 172.366856 
L 212.364044 172.169665 
L 216.074744 171.971326 
L 219.004244 171.901754 
L 222.268544 171.584206 
L 225.700244 171.542133 
L 229.159844 171.314645 
L 232.535744 171.633196 
L 235.158344 171.748934 
L 238.087844 171.68408 
L 241.017344 171.665163 
L 244.002644 171.960933 
L 246.960044 172.036607 
L 249.694244 172.337603 
L 252.316844 172.649512 
L 254.995244 172.823431 
L 257.924744 173.180508 
L 260.937944 173.455411 
L 264.062744 173.887872 
L 266.713244 174.157432 
L 269.307944 174.429485 
L 272.014244 174.871523 
L 274.887944 175.336445 
L 277.873244 175.862433 
L 280.523744 176.348371 
L 283.202144 176.661222 
L 285.908444 177.048381 
L 288.949544 177.372331 
L 292.074344 177.914192 
L 295.059644 178.422958 
L 298.017044 179.019877 
L 301.002344 179.422923 
L 304.099244 179.839261 
L 307.642544 180.246925 
L 310.990544 180.814702 
" clip-path="url(#p3c11edb594)" style="fill: none; stroke: #24a394; stroke-width: 1.5; stroke-linecap: square"/>
   </g>
   <g id="line2d_18">
    <path d="M 77.941844 161.029307 
L 81.289844 155.001826 
L 84.693644 154.382621 
L 87.985844 151.963751 
L 91.780244 148.455627 
L 95.490944 147.243057 
L 99.229544 147.019104 
L 103.051844 146.992359 
L 106.846244 145.830833 
L 110.612744 147.744628 
L 114.574544 148.750903 
L 118.341044 146.670603 
L 122.107544 145.462277 
L 126.097244 145.124821 
L 129.919544 143.90859 
L 133.407044 143.398379 
L 136.643444 158.166671 
L 140.075144 157.309827 
L 143.506844 156.04335 
L 146.687444 156.865564 
L 150.063344 155.295276 
L 152.992844 160.660916 
L 155.894444 160.179014 
L 158.851844 160.524877 
L 161.446544 161.834734 
L 164.236544 161.126573 
L 167.054444 161.097745 
L 169.732844 161.384518 
L 172.299644 161.252944 
L 174.950144 160.703575 
L 177.572744 160.675405 
L 180.251144 161.152258 
L 182.901644 161.102733 
L 185.273144 161.180476 
L 187.839944 162.683389 
L 190.350944 163.328078 
L 192.973544 164.304179 
L 195.261344 164.926453 
L 197.688644 165.575076 
L 200.115944 165.630169 
L 202.264244 166.612059 
L 204.524144 167.127375 
L 206.756144 167.487048 
L 208.904444 167.941846 
L 210.913244 168.668529 
L 212.754644 169.51598 
L 214.428644 170.140817 
L 216.130544 170.591332 
L 217.944044 171.638614 
L 219.562244 172.37404 
L 221.013044 173.104188 
L 222.435944 173.527868 
L 223.830944 174.190694 
L 225.281744 175.048539 
L 226.620944 175.500328 
L 227.932244 175.958022 
L 229.076144 176.540819 
L 230.275844 176.813685 
L 231.475544 177.32344 
L 232.619444 178.086446 
L 233.735444 178.746821 
L 234.767744 179.235468 
L 236.106944 179.81396 
L 237.529844 180.537463 
L 239.203844 181.193835 
L 240.849944 181.819723 
L 242.886644 182.453188 
" clip-path="url(#p3c11edb594)" style="fill: none; stroke: #03574d; stroke-width: 1.5; stroke-linecap: square"/>
   </g>
   <g id="line2d_19">
    <path d="M 94.877144 157.278359 
L 97.081244 159.384195 
L 98.922644 160.317185 
L 100.680344 161.205521 
L 102.354344 160.527324 
L 104.251544 160.252848 
L 106.120844 162.239694 
L 108.157544 162.544331 
L 110.277944 168.132417 
L 112.426244 169.125739 
L 114.602444 168.244063 
L 116.778644 168.119716 
L 119.178044 168.454165 
L 121.689044 168.68206 
L 124.283744 170.232986 
L 126.934244 168.84175 
L 129.501044 169.284466 
L 132.067844 169.194628 
L 134.829944 169.695863 
L 137.647844 169.099257 
L 140.354144 168.470733 
L 143.144144 168.656239 
L 146.241044 169.165292 
L 149.226344 169.078856 
L 152.295344 169.440628 
L 155.280644 168.885869 
L 158.238044 168.444011 
L 161.307044 168.817218 
L 164.292344 168.942223 
L 167.584544 168.839412 
L 170.820944 168.96575 
L 174.029444 169.283766 
L 176.931044 169.840219 
L 179.637344 170.218313 
L 182.706344 170.232143 
L 185.691644 170.61401 
L 188.565344 170.711768 
L 191.439044 170.343348 
L 194.089544 170.188354 
L 196.963244 170.512648 
L 199.948544 170.572412 
L 202.822244 170.533511 
L 205.528544 170.371128 
L 208.346444 170.337268 
L 211.248044 170.481438 
L 214.065944 170.800742 
L 217.051244 170.993744 
L 219.869144 171.308675 
L 222.603344 171.250284 
L 224.974844 171.360929 
L 227.485844 171.753153 
L 230.080544 172.024675 
L 232.675244 172.184456 
L 235.381544 172.183591 
L 237.669344 172.323599 
L 240.124544 172.452507 
L 242.691344 172.638411 
L 245.118644 173.152725 
L 247.713344 173.363067 
L 249.973244 173.560539 
L 252.233144 173.89952 
L 254.604644 174.256541 
L 256.836644 174.720519 
L 259.040744 175.005601 
L 261.049544 175.377846 
L 263.197844 175.666761 
L 265.262444 176.114866 
L 267.271244 176.450054 
L 269.307944 176.901158 
L 271.344644 177.300275 
L 273.381344 177.620188 
L 275.418044 177.903831 
L 277.566344 178.30736 
L 279.630944 178.69564 
L 281.639744 179.104429 
L 283.564844 179.475552 
L 285.489944 179.880447 
L 287.498744 180.307479 
L 289.507544 180.722409 
L 291.934844 181.113939 
" clip-path="url(#p3c11edb594)" style="fill: none; stroke: #b5971d; stroke-width: 1.5; stroke-linecap: square"/>
   </g>
   <g id="line2d_20">
    <path d="M 90.580544 164.56478 
L 94.626044 161.689396 
L 98.783144 160.193997 
L 102.856544 154.858412 
L 106.539344 152.525019 
L 110.138444 149.521174 
L 114.128144 147.58147 
L 118.062044 150.65229 
L 122.023844 148.984737 
L 125.790344 151.894219 
L 129.277844 155.390032 
L 132.793244 155.621034 
L 136.336544 154.147367 
L 139.293944 153.080913 
L 142.083944 153.537185 
L 144.873944 154.363226 
L 147.663944 155.168724 
L 150.314444 153.74254 
L 153.188144 152.499537 
L 155.950244 153.075362 
L 158.544944 154.660512 
L 160.916444 154.369313 
L 163.176344 154.219596 
L 165.631544 156.419126 
L 168.003044 156.253709 
L 170.430344 156.732378 
L 172.522844 155.975626 
L 174.810644 156.606961 
L 177.098444 156.524308 
L 179.246744 156.671854 
L 181.478744 156.540357 
L 183.487544 158.325412 
L 185.747444 158.531748 
L 187.951544 158.042715 
L 190.155644 158.293189 
L 192.276044 158.634193 
L 194.452244 159.008123 
L 196.684244 160.169038 
L 198.748844 161.499105 
L 200.785544 162.166238 
L 202.794344 162.496877 
L 204.886844 162.814741 
L 207.063044 162.951909 
L 209.043944 163.248606 
L 210.941144 163.765383 
L 212.866244 164.532881 
L 214.791344 165.646809 
L 216.549044 165.947274 
L 218.306744 166.690311 
L 220.315544 167.47244 
L 222.268544 168.156137 
L 224.221544 168.74139 
L 225.839744 169.195684 
L 227.597444 169.830738 
L 229.327244 170.298736 
L 231.057044 171.070066 
L 232.870544 171.951288 
L 234.600344 172.591339 
L 236.469644 172.921012 
L 238.311044 173.238928 
L 240.124544 173.922572 
L 241.826444 174.41553 
L 243.612044 174.849792 
L 245.537144 175.46606 
L 247.545944 175.829484 
L 249.498944 176.380095 
L 251.535644 176.827599 
L 253.683944 177.496977 
L 256.055444 177.820067 
L 258.399044 178.353821 
L 260.826344 178.689674 
L 263.225744 179.169284 
L 266.434244 179.745056 
L 269.475344 180.239287 
" clip-path="url(#p3c11edb594)" style="fill: none; stroke: #705b06; stroke-width: 1.5; stroke-linecap: square"/>
   </g>
   <g id="line2d_21">
    <path d="M 41.532344 199.058824 
L 376.332344 199.058824 
" clip-path="url(#p3c11edb594)" style="fill: none; stroke-dasharray: 1.5,2.475; stroke-dashoffset: 0; stroke: #ff0000; stroke-width: 1.5"/>
   </g>
   <g id="patch_3">
    <path d="M 41.532344 224.64 
L 41.532344 7.2 
" style="fill: none; stroke: #000000; stroke-width: 0.8; stroke-linejoin: miter; stroke-linecap: square"/>
   </g>
   <g id="patch_4">
    <path d="M 376.332344 224.64 
L 376.332344 7.2 
" style="fill: none"/>
   </g>
   <g id="patch_5">
    <path d="M 41.532344 224.64 
L 376.332344 224.64 
" style="fill: none; stroke: #000000; stroke-width: 0.8; stroke-linejoin: miter; stroke-linecap: square"/>
   </g>
   <g id="patch_6">
    <path d="M 41.532344 7.2 
L 376.332344 7.2 
" style="fill: none"/>
   </g>
   <g id="text_19">
    <!-- Random -->
    <g style="fill: #ff0000" transform="translate(175.452344 214.407529)scale(0.15 -0.15)">
     <defs>
      <path id="ArialMT-52" d="M 503 0 
L 503 4581 
L 2534 4581 
Q 3147 4581 3465 4457 
Q 3784 4334 3975 4021 
Q 4166 3709 4166 3331 
Q 4166 2844 3850 2509 
Q 3534 2175 2875 2084 
Q 3116 1969 3241 1856 
Q 3506 1613 3744 1247 
L 4541 0 
L 3778 0 
L 3172 953 
Q 2906 1366 2734 1584 
Q 2563 1803 2427 1890 
Q 2291 1978 2150 2013 
Q 2047 2034 1813 2034 
L 1109 2034 
L 1109 0 
L 503 0 
z
M 1109 2559 
L 2413 2559 
Q 2828 2559 3062 2645 
Q 3297 2731 3419 2920 
Q 3541 3109 3541 3331 
Q 3541 3656 3305 3865 
Q 3069 4075 2559 4075 
L 1109 4075 
L 1109 2559 
z
" transform="scale(0.015625)"/>
      <path id="ArialMT-61" d="M 2588 409 
Q 2275 144 1986 34 
Q 1697 -75 1366 -75 
Q 819 -75 525 192 
Q 231 459 231 875 
Q 231 1119 342 1320 
Q 453 1522 633 1644 
Q 813 1766 1038 1828 
Q 1203 1872 1538 1913 
Q 2219 1994 2541 2106 
Q 2544 2222 2544 2253 
Q 2544 2597 2384 2738 
Q 2169 2928 1744 2928 
Q 1347 2928 1158 2789 
Q 969 2650 878 2297 
L 328 2372 
Q 403 2725 575 2942 
Q 747 3159 1072 3276 
Q 1397 3394 1825 3394 
Q 2250 3394 2515 3294 
Q 2781 3194 2906 3042 
Q 3031 2891 3081 2659 
Q 3109 2516 3109 2141 
L 3109 1391 
Q 3109 606 3145 398 
Q 3181 191 3288 0 
L 2700 0 
Q 2613 175 2588 409 
z
M 2541 1666 
Q 2234 1541 1622 1453 
Q 1275 1403 1131 1340 
Q 988 1278 909 1158 
Q 831 1038 831 891 
Q 831 666 1001 516 
Q 1172 366 1500 366 
Q 1825 366 2078 508 
Q 2331 650 2450 897 
Q 2541 1088 2541 1459 
L 2541 1666 
z
" transform="scale(0.015625)"/>
      <path id="ArialMT-6e" d="M 422 0 
L 422 3319 
L 928 3319 
L 928 2847 
Q 1294 3394 1984 3394 
Q 2284 3394 2536 3286 
Q 2788 3178 2913 3003 
Q 3038 2828 3088 2588 
Q 3119 2431 3119 2041 
L 3119 0 
L 2556 0 
L 2556 2019 
Q 2556 2363 2490 2533 
Q 2425 2703 2258 2804 
Q 2091 2906 1866 2906 
Q 1506 2906 1245 2678 
Q 984 2450 984 1813 
L 984 0 
L 422 0 
z
" transform="scale(0.015625)"/>
     </defs>
     <use xlink:href="#ArialMT-52"/>
     <use xlink:href="#ArialMT-61" x="72.216797"/>
     <use xlink:href="#ArialMT-6e" x="127.832031"/>
     <use xlink:href="#ArialMT-64" x="183.447266"/>
     <use xlink:href="#ArialMT-6f" x="239.0625"/>
     <use xlink:href="#ArialMT-6d" x="294.677734"/>
    </g>
   </g>
   <g id="legend_1">
    <g id="patch_7">
     <path d="M 246.494844 91.5375 
L 367.232344 91.5375 
Q 369.832344 91.5375 369.832344 88.9375 
L 369.832344 16.3 
Q 369.832344 13.7 367.232344 13.7 
L 246.494844 13.7 
Q 243.894844 13.7 243.894844 16.3 
L 243.894844 88.9375 
Q 243.894844 91.5375 246.494844 91.5375 
z
" style="fill: #ffffff; opacity: 0.8; stroke: #cccccc; stroke-linejoin: miter"/>
    </g>
    <g id="line2d_22">
     <path d="M 249.094844 23.655156 
L 262.094844 23.655156 
L 275.094844 23.655156 
" style="fill: none; stroke: #24a394; stroke-width: 1.5; stroke-linecap: square"/>
    </g>
    <g id="text_20">
     <!-- Ascl1 Venus+ -->
     <g transform="translate(285.494844 28.205156)scale(0.13 -0.13)">
      <defs>
       <path id="ArialMT-41" d="M -9 0 
L 1750 4581 
L 2403 4581 
L 4278 0 
L 3588 0 
L 3053 1388 
L 1138 1388 
L 634 0 
L -9 0 
z
M 1313 1881 
L 2866 1881 
L 2388 3150 
Q 2169 3728 2063 4100 
Q 1975 3659 1816 3225 
L 1313 1881 
z
" transform="scale(0.015625)"/>
       <path id="ArialMT-63" d="M 2588 1216 
L 3141 1144 
Q 3050 572 2676 248 
Q 2303 -75 1759 -75 
Q 1078 -75 664 370 
Q 250 816 250 1647 
Q 250 2184 428 2587 
Q 606 2991 970 3192 
Q 1334 3394 1763 3394 
Q 2303 3394 2647 3120 
Q 2991 2847 3088 2344 
L 2541 2259 
Q 2463 2594 2264 2762 
Q 2066 2931 1784 2931 
Q 1359 2931 1093 2626 
Q 828 2322 828 1663 
Q 828 994 1084 691 
Q 1341 388 1753 388 
Q 2084 388 2306 591 
Q 2528 794 2588 1216 
z
" transform="scale(0.015625)"/>
       <path id="ArialMT-6c" d="M 409 0 
L 409 4581 
L 972 4581 
L 972 0 
L 409 0 
z
" transform="scale(0.015625)"/>
       <path id="ArialMT-56" d="M 1803 0 
L 28 4581 
L 684 4581 
L 1875 1253 
Q 2019 853 2116 503 
Q 2222 878 2363 1253 
L 3600 4581 
L 4219 4581 
L 2425 0 
L 1803 0 
z
" transform="scale(0.015625)"/>
       <path id="ArialMT-2b" d="M 1603 741 
L 1603 1997 
L 356 1997 
L 356 2522 
L 1603 2522 
L 1603 3769 
L 2134 3769 
L 2134 2522 
L 3381 2522 
L 3381 1997 
L 2134 1997 
L 2134 741 
L 1603 741 
z
" transform="scale(0.015625)"/>
      </defs>
      <use xlink:href="#ArialMT-41"/>
      <use xlink:href="#ArialMT-73" x="66.699219"/>
      <use xlink:href="#ArialMT-63" x="116.699219"/>
      <use xlink:href="#ArialMT-6c" x="166.699219"/>
      <use xlink:href="#ArialMT-31" x="188.916016"/>
      <use xlink:href="#ArialMT-20" x="244.53125"/>
      <use xlink:href="#ArialMT-56" x="272.314453"/>
      <use xlink:href="#ArialMT-65" x="333.513672"/>
      <use xlink:href="#ArialMT-6e" x="389.128906"/>
      <use xlink:href="#ArialMT-75" x="444.744141"/>
      <use xlink:href="#ArialMT-73" x="500.359375"/>
      <use xlink:href="#ArialMT-2b" x="550.359375"/>
     </g>
    </g>
    <g id="line2d_23">
     <path d="M 249.094844 42.044063 
L 262.094844 42.044063 
L 275.094844 42.044063 
" style="fill: none; stroke: #03574d; stroke-width: 1.5; stroke-linecap: square"/>
    </g>
    <g id="text_21">
     <!-- Ascl1 Venus- -->
     <g transform="translate(285.494844 46.594063)scale(0.13 -0.13)">
      <defs>
       <path id="ArialMT-2d" d="M 203 1375 
L 203 1941 
L 1931 1941 
L 1931 1375 
L 203 1375 
z
" transform="scale(0.015625)"/>
      </defs>
      <use xlink:href="#ArialMT-41"/>
      <use xlink:href="#ArialMT-73" x="66.699219"/>
      <use xlink:href="#ArialMT-63" x="116.699219"/>
      <use xlink:href="#ArialMT-6c" x="166.699219"/>
      <use xlink:href="#ArialMT-31" x="188.916016"/>
      <use xlink:href="#ArialMT-20" x="244.53125"/>
      <use xlink:href="#ArialMT-56" x="272.314453"/>
      <use xlink:href="#ArialMT-65" x="333.513672"/>
      <use xlink:href="#ArialMT-6e" x="389.128906"/>
      <use xlink:href="#ArialMT-75" x="444.744141"/>
      <use xlink:href="#ArialMT-73" x="500.359375"/>
      <use xlink:href="#ArialMT-2d" x="550.359375"/>
     </g>
    </g>
    <g id="line2d_24">
     <path d="M 249.094844 60.471562 
L 262.094844 60.471562 
L 275.094844 60.471562 
" style="fill: none; stroke: #b5971d; stroke-width: 1.5; stroke-linecap: square"/>
    </g>
    <g id="text_22">
     <!-- Ngn2 Venus+ -->
     <g transform="translate(285.494844 65.021562)scale(0.13 -0.13)">
      <defs>
       <path id="ArialMT-67" d="M 319 -275 
L 866 -356 
Q 900 -609 1056 -725 
Q 1266 -881 1628 -881 
Q 2019 -881 2231 -725 
Q 2444 -569 2519 -288 
Q 2563 -116 2559 434 
Q 2191 0 1641 0 
Q 956 0 581 494 
Q 206 988 206 1678 
Q 206 2153 378 2554 
Q 550 2956 876 3175 
Q 1203 3394 1644 3394 
Q 2231 3394 2613 2919 
L 2613 3319 
L 3131 3319 
L 3131 450 
Q 3131 -325 2973 -648 
Q 2816 -972 2473 -1159 
Q 2131 -1347 1631 -1347 
Q 1038 -1347 672 -1080 
Q 306 -813 319 -275 
z
M 784 1719 
Q 784 1066 1043 766 
Q 1303 466 1694 466 
Q 2081 466 2343 764 
Q 2606 1063 2606 1700 
Q 2606 2309 2336 2618 
Q 2066 2928 1684 2928 
Q 1309 2928 1046 2623 
Q 784 2319 784 1719 
z
" transform="scale(0.015625)"/>
      </defs>
      <use xlink:href="#ArialMT-4e"/>
      <use xlink:href="#ArialMT-67" x="72.216797"/>
      <use xlink:href="#ArialMT-6e" x="127.832031"/>
      <use xlink:href="#ArialMT-32" x="183.447266"/>
      <use xlink:href="#ArialMT-20" x="239.0625"/>
      <use xlink:href="#ArialMT-56" x="266.845703"/>
      <use xlink:href="#ArialMT-65" x="328.044922"/>
      <use xlink:href="#ArialMT-6e" x="383.660156"/>
      <use xlink:href="#ArialMT-75" x="439.275391"/>
      <use xlink:href="#ArialMT-73" x="494.890625"/>
      <use xlink:href="#ArialMT-2b" x="544.890625"/>
     </g>
    </g>
    <g id="line2d_25">
     <path d="M 249.094844 79.051406 
L 262.094844 79.051406 
L 275.094844 79.051406 
" style="fill: none; stroke: #705b06; stroke-width: 1.5; stroke-linecap: square"/>
    </g>
    <g id="text_23">
     <!-- Ngn2 Venus- -->
     <g transform="translate(285.494844 83.601406)scale(0.13 -0.13)">
      <use xlink:href="#ArialMT-4e"/>
      <use xlink:href="#ArialMT-67" x="72.216797"/>
      <use xlink:href="#ArialMT-6e" x="127.832031"/>
      <use xlink:href="#ArialMT-32" x="183.447266"/>
      <use xlink:href="#ArialMT-20" x="239.0625"/>
      <use xlink:href="#ArialMT-56" x="266.845703"/>
      <use xlink:href="#ArialMT-65" x="328.044922"/>
      <use xlink:href="#ArialMT-6e" x="383.660156"/>
      <use xlink:href="#ArialMT-75" x="439.275391"/>
      <use xlink:href="#ArialMT-73" x="494.890625"/>
      <use xlink:href="#ArialMT-2d" x="544.890625"/>
     </g>
    </g>
   </g>
  </g>
 </g>
 <defs>
  <clipPath id="p3c11edb594">
   <rect x="41.532344" y="7.2" width="334.8" height="217.44"/>
  </clipPath>
 </defs>
</svg>
