<?xml version="1.0" encoding="utf-8" standalone="no"?>
<!DOCTYPE svg PUBLIC "-//W3C//DTD SVG 1.1//EN"
  "http://www.w3.org/Graphics/SVG/1.1/DTD/svg11.dtd">
<svg xmlns:xlink="http://www.w3.org/1999/xlink" width="395.210312pt" height="271.190469pt" viewBox="0 0 395.210312 271.190469" xmlns="http://www.w3.org/2000/svg" version="1.1">
 <metadata>
  <rdf:RDF xmlns:dc="http://purl.org/dc/elements/1.1/" xmlns:cc="http://creativecommons.org/ns#" xmlns:rdf="http://www.w3.org/1999/02/22-rdf-syntax-ns#">
   <cc:Work>
    <dc:type rdf:resource="http://purl.org/dc/dcmitype/StillImage"/>
    <dc:date>2025-08-05T11:33:12.604521</dc:date>
    <dc:format>image/svg+xml</dc:format>
    <dc:creator>
     <cc:Agent>
      <dc:title>Matplotlib v3.5.3, https://matplotlib.org/</dc:title>
     </cc:Agent>
    </dc:creator>
   </cc:Work>
  </rdf:RDF>
 </metadata>
 <defs>
  <style type="text/css">*{stroke-linejoin: round; stroke-linecap: butt}</style>
 </defs>
 <g id="figure_1">
  <g id="patch_1">
   <path d="M 0 271.190469 
L 395.210312 271.190469 
L 395.210312 0 
L 0 0 
L 0 271.190469 
z
" style="fill: none"/>
  </g>
  <g id="axes_1">
   <g id="patch_2">
    <path d="M 41.532344 224.64 
L 376.332344 224.64 
L 376.332344 7.2 
L 41.532344 7.2 
z
" style="fill: #ffffff"/>
   </g>
   <g id="PolyCollection_1">
    <defs>
     <path id="m61c818348a" d="M 66.279644 -117.122124 
L 66.279644 -70.882548 
L 67.897844 -71.983093 
L 69.516044 -72.77451 
L 71.106344 -73.630784 
L 72.975644 -75.424658 
L 74.872844 -74.704165 
L 77.160644 -72.322374 
L 79.448444 -74.231175 
L 81.736244 -72.456389 
L 84.247244 -72.680127 
L 86.841944 -76.017724 
L 89.436644 -75.841194 
L 91.891844 -77.677189 
L 94.514444 -81.344818 
L 97.527644 -82.246069 
L 100.512944 -83.464823 
L 103.386644 -85.912744 
L 106.344044 -86.996449 
L 109.664144 -89.085767 
L 113.346944 -90.122922 
L 116.722844 -90.965414 
L 120.266144 -92.420938 
L 124.060544 -94.076954 
L 128.245544 -94.064873 
L 132.458444 -92.205973 
L 136.671344 -91.817184 
L 140.744744 -99.91823 
L 145.515644 -101.414355 
L 150.677144 -103.15805 
L 155.671244 -102.83894 
L 160.944344 -102.058835 
L 166.412744 -103.769169 
L 172.076444 -104.993822 
L 178.158644 -104.853975 
L 183.878144 -106.106512 
L 190.044044 -106.199206 
L 196.293644 -106.561245 
L 203.073344 -106.67259 
L 209.406644 -106.969343 
L 215.879444 -109.266234 
L 222.435944 -110.501765 
L 228.992444 -110.119589 
L 235.688444 -110.399949 
L 242.356544 -111.71548 
L 248.968844 -114.029462 
L 255.553244 -114.356216 
L 262.109744 -114.65977 
L 268.498844 -114.447431 
L 274.608944 -115.107547 
L 280.579544 -115.755995 
L 286.299044 -116.794148 
L 291.906944 -118.605217 
L 297.710144 -118.174993 
L 303.178544 -119.704733 
L 308.619044 -119.754707 
L 313.668944 -119.343509 
L 319.053644 -119.249616 
L 323.768744 -120.191053 
L 328.707044 -120.214385 
L 333.198944 -120.49712 
L 337.718744 -120.910963 
L 342.517544 -120.236828 
L 347.093144 -120.045012 
L 351.361844 -120.524656 
L 355.323644 -120.387862 
L 359.508644 -119.648789 
L 363.805244 -119.04403 
L 367.599644 -118.774657 
L 371.142944 -118.374384 
L 374.797844 -117.965783 
L 374.797844 -124.794798 
L 374.797844 -124.794798 
L 371.142944 -125.917985 
L 367.599644 -126.427752 
L 363.805244 -126.639721 
L 359.508644 -126.843115 
L 355.323644 -126.973081 
L 351.361844 -126.991171 
L 347.093144 -126.992701 
L 342.517544 -127.086651 
L 337.718744 -126.934309 
L 333.198944 -128.21659 
L 328.707044 -128.152882 
L 323.768744 -129.622043 
L 319.053644 -129.800949 
L 313.668944 -130.089364 
L 308.619044 -131.186886 
L 303.178544 -132.871324 
L 297.710144 -133.202955 
L 291.906944 -133.683405 
L 286.299044 -133.646351 
L 280.579544 -137.795017 
L 274.608944 -137.285587 
L 268.498844 -136.955743 
L 262.109744 -137.226156 
L 255.553244 -137.050805 
L 248.968844 -136.853755 
L 242.356544 -137.039591 
L 235.688444 -137.049774 
L 228.992444 -136.84946 
L 222.435944 -137.433659 
L 215.879444 -136.282009 
L 209.406644 -136.289169 
L 203.073344 -135.203947 
L 196.293644 -135.1731 
L 190.044044 -134.551734 
L 183.878144 -135.277276 
L 178.158644 -133.153538 
L 172.076444 -137.877798 
L 166.412744 -136.841987 
L 160.944344 -136.966323 
L 155.671244 -133.441583 
L 150.677144 -134.699225 
L 145.515644 -134.418947 
L 140.744744 -133.171356 
L 136.671344 -152.102618 
L 132.458444 -157.50417 
L 128.245544 -158.383559 
L 124.060544 -158.385751 
L 120.266144 -157.917276 
L 116.722844 -156.908145 
L 113.346944 -156.679615 
L 109.664144 -156.667091 
L 106.344044 -155.8636 
L 103.386644 -155.48535 
L 100.512944 -154.679892 
L 97.527644 -152.77061 
L 94.514444 -152.468204 
L 91.891844 -148.073246 
L 89.436644 -147.436731 
L 86.841944 -147.494499 
L 84.247244 -145.417102 
L 81.736244 -148.67942 
L 79.448444 -151.646472 
L 77.160644 -151.166524 
L 74.872844 -133.070444 
L 72.975644 -122.793284 
L 71.106344 -119.700491 
L 69.516044 -118.825204 
L 67.897844 -118.290805 
L 66.279644 -117.122124 
z
" style="stroke: #24a394; stroke-opacity: 0.1"/>
    </defs>
    <g clip-path="url(#p398e36681c)">
     <use xlink:href="#m61c818348a" x="0" y="271.190469" style="fill: #24a394; fill-opacity: 0.1; stroke: #24a394; stroke-opacity: 0.1"/>
    </g>
   </g>
   <g id="PolyCollection_2">
    <defs>
     <path id="m534dc29e9b" d="M 70.101944 -126.310971 
L 70.101944 -75.735877 
L 71.469044 -76.756748 
L 72.836144 -83.708067 
L 74.454344 -87.572331 
L 76.184144 -87.022117 
L 77.913944 -89.168416 
L 79.587944 -88.958692 
L 81.345644 -71.817384 
L 83.159144 -70.434192 
L 85.000544 -74.025166 
L 86.758244 -73.234069 
L 88.711244 -72.370721 
L 90.887444 -74.013308 
L 93.007844 -77.099719 
L 95.407244 -77.662698 
L 97.750844 -77.767086 
L 100.317644 -78.712246 
L 102.744944 -80.684611 
L 105.367544 -81.330934 
L 108.018044 -79.827402 
L 110.584844 -79.039614 
L 113.207444 -79.185786 
L 116.081144 -79.105313 
L 118.675844 -78.982782 
L 121.270544 -78.831343 
L 123.809444 -78.255607 
L 126.292544 -78.36343 
L 129.082544 -98.190398 
L 131.816744 -98.775537 
L 134.467244 -98.293633 
L 137.285144 -98.277929 
L 139.907744 -98.888518 
L 142.614044 -98.907265 
L 145.543544 -101.062511 
L 148.166144 -101.100629 
L 150.844544 -100.895917 
L 153.746144 -100.869913 
L 156.647744 -99.278973 
L 159.437744 -99.305403 
L 162.953144 -98.113087 
L 166.496444 -100.066149 
L 170.402444 -99.658948 
L 174.336344 -99.137395 
L 178.381844 -99.121896 
L 182.343644 -100.674287 
L 186.249644 -100.498235 
L 190.267244 -100.523242 
L 194.117444 -100.566702 
L 198.079244 -100.438928 
L 202.041044 -100.384206 
L 205.863344 -100.3539 
L 209.936744 -100.432216 
L 213.898544 -100.465518 
L 217.665044 -100.446183 
L 221.654744 -100.66578 
L 225.560744 -100.809748 
L 229.104044 -100.749195 
L 232.563644 -102.346678 
L 236.162744 -102.346385 
L 239.259644 -104.630591 
L 242.412344 -104.630876 
L 245.230244 -105.194776 
L 247.824944 -106.076573 
L 250.391744 -106.267209 
L 253.098044 -106.63648 
L 255.804344 -107.036945 
L 258.622244 -107.290197 
L 261.133244 -107.672921 
L 263.588444 -108.237515 
L 266.238944 -108.55469 
L 269.112644 -108.623804 
L 271.791044 -108.284746 
L 274.720544 -107.787821 
L 278.459144 -106.791692 
L 278.459144 -113.334444 
L 278.459144 -113.334444 
L 274.720544 -113.843051 
L 271.791044 -114.102928 
L 269.112644 -114.155453 
L 266.238944 -114.166138 
L 263.588444 -114.205009 
L 261.133244 -114.230769 
L 258.622244 -114.257723 
L 255.804344 -114.240979 
L 253.098044 -114.202429 
L 250.391744 -114.175232 
L 247.824944 -114.024745 
L 245.230244 -113.841827 
L 242.412344 -113.437566 
L 239.259644 -113.436907 
L 236.162744 -113.381898 
L 232.563644 -113.39333 
L 229.104044 -113.535105 
L 225.560744 -113.053847 
L 221.654744 -112.822999 
L 217.665044 -112.564101 
L 213.898544 -111.54103 
L 209.936744 -110.88332 
L 205.863344 -110.475685 
L 202.041044 -110.58364 
L 198.079244 -110.697042 
L 194.117444 -110.903698 
L 190.267244 -112.197943 
L 186.249644 -112.174529 
L 182.343644 -112.932065 
L 178.381844 -113.130534 
L 174.336344 -114.128946 
L 170.402444 -114.818604 
L 166.496444 -115.35773 
L 162.953144 -115.24282 
L 159.437744 -115.146218 
L 156.647744 -115.017451 
L 153.746144 -115.571657 
L 150.844544 -115.877581 
L 148.166144 -117.268478 
L 145.543544 -117.2593 
L 142.614044 -123.912903 
L 139.907744 -123.904529 
L 137.285144 -123.796463 
L 134.467244 -123.807607 
L 131.816744 -124.640284 
L 129.082544 -124.470582 
L 126.292544 -161.18207 
L 123.809444 -161.13259 
L 121.270544 -161.727495 
L 118.675844 -161.753512 
L 116.081144 -161.869315 
L 113.207444 -161.928982 
L 110.584844 -161.834701 
L 108.018044 -161.995114 
L 105.367544 -163.153674 
L 102.744944 -162.871805 
L 100.317644 -162.202518 
L 97.750844 -161.681791 
L 95.407244 -161.569191 
L 93.007844 -161.369256 
L 90.887444 -157.972723 
L 88.711244 -157.412824 
L 86.758244 -157.962562 
L 85.000544 -158.805801 
L 83.159144 -157.465913 
L 81.345644 -158.860883 
L 79.587944 -122.239888 
L 77.913944 -125.322412 
L 76.184144 -123.305653 
L 74.454344 -128.321724 
L 72.836144 -127.210428 
L 71.469044 -127.278063 
L 70.101944 -126.310971 
z
" style="stroke: #03574d; stroke-opacity: 0.1"/>
    </defs>
    <g clip-path="url(#p398e36681c)">
     <use xlink:href="#m534dc29e9b" x="0" y="271.190469" style="fill: #03574d; fill-opacity: 0.1; stroke: #03574d; stroke-opacity: 0.1"/>
    </g>
   </g>
   <g id="PolyCollection_3">
    <defs>
     <path id="m4f2aafed95" d="M 61.536644 -104.939871 
L 61.536644 -63.917841 
L 62.931644 -65.106309 
L 64.382444 -65.750749 
L 66.028544 -66.37954 
L 67.674644 -67.2371 
L 69.488144 -68.177001 
L 71.301644 -69.666626 
L 73.310444 -70.965147 
L 75.486644 -73.332155 
L 77.718644 -74.554766 
L 79.978544 -75.720129 
L 82.294244 -76.120751 
L 84.609944 -78.347449 
L 87.009344 -79.493351 
L 89.687744 -81.426156 
L 92.421944 -82.885753 
L 94.849244 -87.782394 
L 97.304444 -89.454211 
L 99.899144 -90.354954 
L 102.912344 -90.578176 
L 105.841844 -91.495237 
L 109.161944 -93.150646 
L 112.454144 -95.047399 
L 115.830044 -96.132091 
L 119.233844 -94.928452 
L 122.498144 -96.241207 
L 126.125144 -97.980793 
L 129.612644 -100.282954 
L 133.434944 -101.369975 
L 137.424644 -103.911242 
L 141.637544 -106.432698 
L 145.794644 -108.42737 
L 150.453944 -109.071255 
L 155.029544 -111.452503 
L 159.633044 -112.271684 
L 164.236544 -115.312475 
L 168.867944 -116.466959 
L 173.583044 -117.067665 
L 178.186544 -117.019664 
L 182.706344 -117.734047 
L 187.226144 -120.249527 
L 191.578544 -120.809435 
L 196.014644 -121.344254 
L 200.367044 -122.485594 
L 205.110044 -122.088195 
L 209.880944 -123.934461 
L 214.289144 -124.746889 
L 218.920544 -125.703835 
L 223.245044 -127.986371 
L 227.764844 -128.657588 
L 232.117244 -129.185489 
L 236.581244 -130.175162 
L 240.849944 -130.052331 
L 245.648744 -130.948594 
L 250.168544 -131.904015 
L 254.799944 -131.455393 
L 259.487144 -131.241331 
L 264.146444 -130.75615 
L 269.028944 -130.961592 
L 273.437144 -130.797672 
L 277.901144 -130.6779 
L 282.560444 -130.456158 
L 287.136044 -130.285959 
L 291.851144 -129.387763 
L 296.259344 -129.340335 
L 300.667544 -128.974747 
L 305.577944 -128.417967 
L 310.181444 -126.83284 
L 315.008144 -126.055333 
L 319.527944 -125.244244 
L 324.047744 -124.805846 
L 328.623344 -123.999624 
L 333.059444 -123.343121 
L 337.383944 -122.582749 
L 341.624744 -121.968361 
L 345.726044 -121.173246 
L 349.799444 -120.244572 
L 353.817044 -119.700907 
L 358.029944 -118.959624 
L 362.605544 -118.574555 
L 362.605544 -128.605231 
L 362.605544 -128.605231 
L 358.029944 -130.06198 
L 353.817044 -131.324331 
L 349.799444 -131.946697 
L 345.726044 -132.803779 
L 341.624744 -133.371363 
L 337.383944 -133.571225 
L 333.059444 -133.861077 
L 328.623344 -134.201606 
L 324.047744 -135.473541 
L 319.527944 -135.703445 
L 315.008144 -136.616821 
L 310.181444 -137.244296 
L 305.577944 -137.033569 
L 300.667544 -138.129017 
L 296.259344 -138.931093 
L 291.851144 -138.923722 
L 287.136044 -138.867047 
L 282.560444 -140.371276 
L 277.901144 -142.186277 
L 273.437144 -142.304652 
L 269.028944 -142.700589 
L 264.146444 -142.59768 
L 259.487144 -143.36625 
L 254.799944 -143.577862 
L 250.168544 -144.378093 
L 245.648744 -144.681015 
L 240.849944 -144.851509 
L 236.581244 -144.878764 
L 232.117244 -144.477382 
L 227.764844 -144.473324 
L 223.245044 -144.066859 
L 218.920544 -144.108173 
L 214.289144 -143.973994 
L 209.880944 -143.092739 
L 205.110044 -142.396936 
L 200.367044 -144.211604 
L 196.014644 -143.933434 
L 191.578544 -142.489681 
L 187.226144 -140.381291 
L 182.706344 -139.907658 
L 178.186544 -138.563132 
L 173.583044 -138.813924 
L 168.867944 -136.986514 
L 164.236544 -135.621401 
L 159.633044 -133.847689 
L 155.029544 -133.592513 
L 150.453944 -133.499664 
L 145.794644 -132.269031 
L 141.637544 -131.599734 
L 137.424644 -130.949812 
L 133.434944 -129.896049 
L 129.612644 -129.527837 
L 126.125144 -128.753644 
L 122.498144 -127.437829 
L 119.233844 -126.799761 
L 115.830044 -122.401512 
L 112.454144 -121.323959 
L 109.161944 -119.31682 
L 105.841844 -117.487572 
L 102.912344 -116.975166 
L 99.899144 -115.449818 
L 97.304444 -110.87236 
L 94.849244 -108.623378 
L 92.421944 -118.501509 
L 89.687744 -118.208525 
L 87.009344 -116.886781 
L 84.609944 -116.370354 
L 82.294244 -114.521747 
L 79.978544 -114.065629 
L 77.718644 -113.585826 
L 75.486644 -113.148484 
L 73.310444 -112.164539 
L 71.301644 -111.64802 
L 69.488144 -110.85982 
L 67.674644 -110.044338 
L 66.028544 -106.996094 
L 64.382444 -106.061475 
L 62.931644 -105.597668 
L 61.536644 -104.939871 
z
" style="stroke: #b5971d; stroke-opacity: 0.1"/>
    </defs>
    <g clip-path="url(#p398e36681c)">
     <use xlink:href="#m4f2aafed95" x="0" y="271.190469" style="fill: #b5971d; fill-opacity: 0.1; stroke: #b5971d; stroke-opacity: 0.1"/>
    </g>
   </g>
   <g id="PolyCollection_4">
    <defs>
     <path id="ma336ff58ba" d="M 62.708444 -113.850525 
L 62.708444 -75.579565 
L 63.740744 -76.085144 
L 64.856744 -78.958053 
L 65.972744 -80.405885 
L 67.116644 -80.344407 
L 68.260544 -83.016704 
L 69.432344 -83.961397 
L 70.659944 -83.464996 
L 71.887544 -84.36007 
L 73.198844 -83.810928 
L 74.593844 -85.039298 
L 75.737744 -86.830606 
L 76.797944 -86.427053 
L 77.802344 -87.553713 
L 78.946244 -87.760808 
L 80.062244 -88.300934 
L 81.234044 -89.853612 
L 82.573244 -92.181934 
L 83.856644 -92.084263 
L 85.140044 -91.516661 
L 86.646644 -92.405371 
L 88.320644 -92.862317 
L 89.855144 -93.320119 
L 91.417544 -93.451241 
L 92.952044 -93.617858 
L 94.598144 -93.169249 
L 96.467444 -94.157544 
L 98.308844 -94.228739 
L 100.150244 -94.244761 
L 102.131144 -94.396954 
L 104.446844 -94.509118 
L 106.902044 -94.71119 
L 109.468844 -95.338643 
L 111.979844 -95.421674 
L 114.407144 -95.435104 
L 117.225044 -95.377396 
L 120.098744 -95.584739 
L 122.832944 -95.485425 
L 125.706644 -95.436348 
L 128.859344 -96.59083 
L 132.067844 -97.098815 
L 135.304244 -97.232504 
L 138.680144 -96.988741 
L 142.111844 -96.926009 
L 146.324744 -96.877503 
L 150.453944 -97.767354 
L 154.666844 -97.79671 
L 158.935544 -97.8841 
L 163.260044 -98.564738 
L 168.393644 -98.985717 
L 173.108744 -98.986259 
L 177.768044 -99.370614 
L 182.399444 -99.445338 
L 187.142444 -99.674203 
L 192.806144 -99.691998 
L 198.190844 -100.032903 
L 203.659244 -100.416069 
L 209.127644 -100.466545 
L 214.930844 -101.039729 
L 221.264144 -100.768133 
L 227.653244 -100.574684 
L 233.930744 -100.500129 
L 240.291944 -100.77841 
L 247.462244 -100.713053 
L 254.911544 -100.160398 
L 262.305044 -99.806349 
L 269.363744 -99.499042 
L 276.478244 -99.290343 
L 285.629444 -98.286625 
L 293.859944 -97.391854 
L 302.453144 -96.626738 
L 302.453144 -104.671959 
L 302.453144 -104.671959 
L 293.859944 -105.089953 
L 285.629444 -105.605237 
L 276.478244 -105.445696 
L 269.363744 -105.417615 
L 262.305044 -105.372252 
L 254.911544 -105.748494 
L 247.462244 -105.659108 
L 240.291944 -105.66842 
L 233.930744 -105.75303 
L 227.653244 -105.94318 
L 221.264144 -106.046698 
L 214.930844 -106.458933 
L 209.127644 -106.347955 
L 203.659244 -106.925455 
L 198.190844 -106.878686 
L 192.806144 -106.618294 
L 187.142444 -106.609595 
L 182.399444 -106.271571 
L 177.768044 -106.190296 
L 173.108744 -106.054862 
L 168.393644 -106.037011 
L 163.260044 -105.471371 
L 158.935544 -105.460698 
L 154.666844 -105.446386 
L 150.453944 -105.435365 
L 146.324744 -105.012244 
L 142.111844 -105.149606 
L 138.680144 -105.341269 
L 135.304244 -105.425279 
L 132.067844 -105.043983 
L 128.859344 -104.732071 
L 125.706644 -104.158914 
L 122.832944 -104.187619 
L 120.098744 -102.961529 
L 117.225044 -102.887613 
L 114.407144 -103.206333 
L 111.979844 -103.540731 
L 109.468844 -103.437006 
L 106.902044 -103.158686 
L 104.446844 -103.080791 
L 102.131144 -102.367027 
L 100.150244 -102.304314 
L 98.308844 -102.303122 
L 96.467444 -102.243711 
L 94.598144 -102.169406 
L 92.952044 -102.704915 
L 91.417544 -103.32861 
L 89.855144 -102.789762 
L 88.320644 -104.474467 
L 86.646644 -104.219733 
L 85.140044 -104.265296 
L 83.856644 -104.336591 
L 82.573244 -104.586044 
L 81.234044 -104.976788 
L 80.062244 -105.050291 
L 78.946244 -107.170982 
L 77.802344 -106.630295 
L 76.797944 -106.301952 
L 75.737744 -107.713776 
L 74.593844 -114.24066 
L 73.198844 -113.991072 
L 71.887544 -114.954022 
L 70.659944 -114.77769 
L 69.432344 -115.893241 
L 68.260544 -115.890335 
L 67.116644 -115.409597 
L 65.972744 -116.11447 
L 64.856744 -115.694235 
L 63.740744 -114.122468 
L 62.708444 -113.850525 
z
" style="stroke: #705b06; stroke-opacity: 0.1"/>
    </defs>
    <g clip-path="url(#p398e36681c)">
     <use xlink:href="#ma336ff58ba" x="0" y="271.190469" style="fill: #705b06; fill-opacity: 0.1; stroke: #705b06; stroke-opacity: 0.1"/>
    </g>
   </g>
   <g id="matplotlib.axis_1">
    <g id="xtick_1">
     <g id="line2d_1">
      <defs>
       <path id="m988a700f90" d="M 0 0 
L 0 3.5 
" style="stroke: #000000; stroke-width: 0.8"/>
      </defs>
      <g>
       <use xlink:href="#m988a700f90" x="41.532344" y="224.64" style="stroke: #000000; stroke-width: 0.8"/>
      </g>
     </g>
     <g id="text_1">
      <!-- 0 -->
      <g transform="translate(37.639688 241.660937)scale(0.14 -0.14)">
       <defs>
        <path id="ArialMT-30" d="M 266 2259 
Q 266 3072 433 3567 
Q 600 4063 929 4331 
Q 1259 4600 1759 4600 
Q 2128 4600 2406 4451 
Q 2684 4303 2865 4023 
Q 3047 3744 3150 3342 
Q 3253 2941 3253 2259 
Q 3253 1453 3087 958 
Q 2922 463 2592 192 
Q 2263 -78 1759 -78 
Q 1097 -78 719 397 
Q 266 969 266 2259 
z
M 844 2259 
Q 844 1131 1108 757 
Q 1372 384 1759 384 
Q 2147 384 2411 759 
Q 2675 1134 2675 2259 
Q 2675 3391 2411 3762 
Q 2147 4134 1753 4134 
Q 1366 4134 1134 3806 
Q 844 3388 844 2259 
z
" transform="scale(0.015625)"/>
       </defs>
       <use xlink:href="#ArialMT-30"/>
      </g>
     </g>
    </g>
    <g id="xtick_2">
     <g id="line2d_2">
      <g>
       <use xlink:href="#m988a700f90" x="97.332344" y="224.64" style="stroke: #000000; stroke-width: 0.8"/>
      </g>
     </g>
     <g id="text_2">
      <!-- 100 -->
      <g transform="translate(85.654375 241.660937)scale(0.14 -0.14)">
       <defs>
        <path id="ArialMT-31" d="M 2384 0 
L 1822 0 
L 1822 3584 
Q 1619 3391 1289 3197 
Q 959 3003 697 2906 
L 697 3450 
Q 1169 3672 1522 3987 
Q 1875 4303 2022 4600 
L 2384 4600 
L 2384 0 
z
" transform="scale(0.015625)"/>
       </defs>
       <use xlink:href="#ArialMT-31"/>
       <use xlink:href="#ArialMT-30" x="55.615234"/>
       <use xlink:href="#ArialMT-30" x="111.230469"/>
      </g>
     </g>
    </g>
    <g id="xtick_3">
     <g id="line2d_3">
      <g>
       <use xlink:href="#m988a700f90" x="153.132344" y="224.64" style="stroke: #000000; stroke-width: 0.8"/>
      </g>
     </g>
     <g id="text_3">
      <!-- 200 -->
      <g transform="translate(141.454375 241.660937)scale(0.14 -0.14)">
       <defs>
        <path id="ArialMT-32" d="M 3222 541 
L 3222 0 
L 194 0 
Q 188 203 259 391 
Q 375 700 629 1000 
Q 884 1300 1366 1694 
Q 2113 2306 2375 2664 
Q 2638 3022 2638 3341 
Q 2638 3675 2398 3904 
Q 2159 4134 1775 4134 
Q 1369 4134 1125 3890 
Q 881 3647 878 3216 
L 300 3275 
Q 359 3922 746 4261 
Q 1134 4600 1788 4600 
Q 2447 4600 2831 4234 
Q 3216 3869 3216 3328 
Q 3216 3053 3103 2787 
Q 2991 2522 2730 2228 
Q 2469 1934 1863 1422 
Q 1356 997 1212 845 
Q 1069 694 975 541 
L 3222 541 
z
" transform="scale(0.015625)"/>
       </defs>
       <use xlink:href="#ArialMT-32"/>
       <use xlink:href="#ArialMT-30" x="55.615234"/>
       <use xlink:href="#ArialMT-30" x="111.230469"/>
      </g>
     </g>
    </g>
    <g id="xtick_4">
     <g id="line2d_4">
      <g>
       <use xlink:href="#m988a700f90" x="208.932344" y="224.64" style="stroke: #000000; stroke-width: 0.8"/>
      </g>
     </g>
     <g id="text_4">
      <!-- 300 -->
      <g transform="translate(197.254375 241.660937)scale(0.14 -0.14)">
       <defs>
        <path id="ArialMT-33" d="M 269 1209 
L 831 1284 
Q 928 806 1161 595 
Q 1394 384 1728 384 
Q 2125 384 2398 659 
Q 2672 934 2672 1341 
Q 2672 1728 2419 1979 
Q 2166 2231 1775 2231 
Q 1616 2231 1378 2169 
L 1441 2663 
Q 1497 2656 1531 2656 
Q 1891 2656 2178 2843 
Q 2466 3031 2466 3422 
Q 2466 3731 2256 3934 
Q 2047 4138 1716 4138 
Q 1388 4138 1169 3931 
Q 950 3725 888 3313 
L 325 3413 
Q 428 3978 793 4289 
Q 1159 4600 1703 4600 
Q 2078 4600 2393 4439 
Q 2709 4278 2876 4000 
Q 3044 3722 3044 3409 
Q 3044 3113 2884 2869 
Q 2725 2625 2413 2481 
Q 2819 2388 3044 2092 
Q 3269 1797 3269 1353 
Q 3269 753 2831 336 
Q 2394 -81 1725 -81 
Q 1122 -81 723 278 
Q 325 638 269 1209 
z
" transform="scale(0.015625)"/>
       </defs>
       <use xlink:href="#ArialMT-33"/>
       <use xlink:href="#ArialMT-30" x="55.615234"/>
       <use xlink:href="#ArialMT-30" x="111.230469"/>
      </g>
     </g>
    </g>
    <g id="xtick_5">
     <g id="line2d_5">
      <g>
       <use xlink:href="#m988a700f90" x="264.732344" y="224.64" style="stroke: #000000; stroke-width: 0.8"/>
      </g>
     </g>
     <g id="text_5">
      <!-- 400 -->
      <g transform="translate(253.054375 241.660937)scale(0.14 -0.14)">
       <defs>
        <path id="ArialMT-34" d="M 2069 0 
L 2069 1097 
L 81 1097 
L 81 1613 
L 2172 4581 
L 2631 4581 
L 2631 1613 
L 3250 1613 
L 3250 1097 
L 2631 1097 
L 2631 0 
L 2069 0 
z
M 2069 1613 
L 2069 3678 
L 634 1613 
L 2069 1613 
z
" transform="scale(0.015625)"/>
       </defs>
       <use xlink:href="#ArialMT-34"/>
       <use xlink:href="#ArialMT-30" x="55.615234"/>
       <use xlink:href="#ArialMT-30" x="111.230469"/>
      </g>
     </g>
    </g>
    <g id="xtick_6">
     <g id="line2d_6">
      <g>
       <use xlink:href="#m988a700f90" x="320.532344" y="224.64" style="stroke: #000000; stroke-width: 0.8"/>
      </g>
     </g>
     <g id="text_6">
      <!-- 500 -->
      <g transform="translate(308.854375 241.660937)scale(0.14 -0.14)">
       <defs>
        <path id="ArialMT-35" d="M 266 1200 
L 856 1250 
Q 922 819 1161 601 
Q 1400 384 1738 384 
Q 2144 384 2425 690 
Q 2706 997 2706 1503 
Q 2706 1984 2436 2262 
Q 2166 2541 1728 2541 
Q 1456 2541 1237 2417 
Q 1019 2294 894 2097 
L 366 2166 
L 809 4519 
L 3088 4519 
L 3088 3981 
L 1259 3981 
L 1013 2750 
Q 1425 3038 1878 3038 
Q 2478 3038 2890 2622 
Q 3303 2206 3303 1553 
Q 3303 931 2941 478 
Q 2500 -78 1738 -78 
Q 1113 -78 717 272 
Q 322 622 266 1200 
z
" transform="scale(0.015625)"/>
       </defs>
       <use xlink:href="#ArialMT-35"/>
       <use xlink:href="#ArialMT-30" x="55.615234"/>
       <use xlink:href="#ArialMT-30" x="111.230469"/>
      </g>
     </g>
    </g>
    <g id="xtick_7">
     <g id="line2d_7">
      <g>
       <use xlink:href="#m988a700f90" x="376.332344" y="224.64" style="stroke: #000000; stroke-width: 0.8"/>
      </g>
     </g>
     <g id="text_7">
      <!-- 600 -->
      <g transform="translate(364.654375 241.660937)scale(0.14 -0.14)">
       <defs>
        <path id="ArialMT-36" d="M 3184 3459 
L 2625 3416 
Q 2550 3747 2413 3897 
Q 2184 4138 1850 4138 
Q 1581 4138 1378 3988 
Q 1113 3794 959 3422 
Q 806 3050 800 2363 
Q 1003 2672 1297 2822 
Q 1591 2972 1913 2972 
Q 2475 2972 2870 2558 
Q 3266 2144 3266 1488 
Q 3266 1056 3080 686 
Q 2894 316 2569 119 
Q 2244 -78 1831 -78 
Q 1128 -78 684 439 
Q 241 956 241 2144 
Q 241 3472 731 4075 
Q 1159 4600 1884 4600 
Q 2425 4600 2770 4297 
Q 3116 3994 3184 3459 
z
M 888 1484 
Q 888 1194 1011 928 
Q 1134 663 1356 523 
Q 1578 384 1822 384 
Q 2178 384 2434 671 
Q 2691 959 2691 1453 
Q 2691 1928 2437 2201 
Q 2184 2475 1800 2475 
Q 1419 2475 1153 2201 
Q 888 1928 888 1484 
z
" transform="scale(0.015625)"/>
       </defs>
       <use xlink:href="#ArialMT-36"/>
       <use xlink:href="#ArialMT-30" x="55.615234"/>
       <use xlink:href="#ArialMT-30" x="111.230469"/>
      </g>
     </g>
    </g>
    <g id="text_8">
     <!-- Number of Nodes -->
     <g transform="translate(142.322891 260.611719)scale(0.17 -0.17)">
      <defs>
       <path id="ArialMT-4e" d="M 488 0 
L 488 4581 
L 1109 4581 
L 3516 984 
L 3516 4581 
L 4097 4581 
L 4097 0 
L 3475 0 
L 1069 3600 
L 1069 0 
L 488 0 
z
" transform="scale(0.015625)"/>
       <path id="ArialMT-75" d="M 2597 0 
L 2597 488 
Q 2209 -75 1544 -75 
Q 1250 -75 995 37 
Q 741 150 617 320 
Q 494 491 444 738 
Q 409 903 409 1263 
L 409 3319 
L 972 3319 
L 972 1478 
Q 972 1038 1006 884 
Q 1059 663 1231 536 
Q 1403 409 1656 409 
Q 1909 409 2131 539 
Q 2353 669 2445 892 
Q 2538 1116 2538 1541 
L 2538 3319 
L 3100 3319 
L 3100 0 
L 2597 0 
z
" transform="scale(0.015625)"/>
       <path id="ArialMT-6d" d="M 422 0 
L 422 3319 
L 925 3319 
L 925 2853 
Q 1081 3097 1340 3245 
Q 1600 3394 1931 3394 
Q 2300 3394 2536 3241 
Q 2772 3088 2869 2813 
Q 3263 3394 3894 3394 
Q 4388 3394 4653 3120 
Q 4919 2847 4919 2278 
L 4919 0 
L 4359 0 
L 4359 2091 
Q 4359 2428 4304 2576 
Q 4250 2725 4106 2815 
Q 3963 2906 3769 2906 
Q 3419 2906 3187 2673 
Q 2956 2441 2956 1928 
L 2956 0 
L 2394 0 
L 2394 2156 
Q 2394 2531 2256 2718 
Q 2119 2906 1806 2906 
Q 1569 2906 1367 2781 
Q 1166 2656 1075 2415 
Q 984 2175 984 1722 
L 984 0 
L 422 0 
z
" transform="scale(0.015625)"/>
       <path id="ArialMT-62" d="M 941 0 
L 419 0 
L 419 4581 
L 981 4581 
L 981 2947 
Q 1338 3394 1891 3394 
Q 2197 3394 2470 3270 
Q 2744 3147 2920 2923 
Q 3097 2700 3197 2384 
Q 3297 2069 3297 1709 
Q 3297 856 2875 390 
Q 2453 -75 1863 -75 
Q 1275 -75 941 416 
L 941 0 
z
M 934 1684 
Q 934 1088 1097 822 
Q 1363 388 1816 388 
Q 2184 388 2453 708 
Q 2722 1028 2722 1663 
Q 2722 2313 2464 2622 
Q 2206 2931 1841 2931 
Q 1472 2931 1203 2611 
Q 934 2291 934 1684 
z
" transform="scale(0.015625)"/>
       <path id="ArialMT-65" d="M 2694 1069 
L 3275 997 
Q 3138 488 2766 206 
Q 2394 -75 1816 -75 
Q 1088 -75 661 373 
Q 234 822 234 1631 
Q 234 2469 665 2931 
Q 1097 3394 1784 3394 
Q 2450 3394 2872 2941 
Q 3294 2488 3294 1666 
Q 3294 1616 3291 1516 
L 816 1516 
Q 847 969 1125 678 
Q 1403 388 1819 388 
Q 2128 388 2347 550 
Q 2566 713 2694 1069 
z
M 847 1978 
L 2700 1978 
Q 2663 2397 2488 2606 
Q 2219 2931 1791 2931 
Q 1403 2931 1139 2672 
Q 875 2413 847 1978 
z
" transform="scale(0.015625)"/>
       <path id="ArialMT-72" d="M 416 0 
L 416 3319 
L 922 3319 
L 922 2816 
Q 1116 3169 1280 3281 
Q 1444 3394 1641 3394 
Q 1925 3394 2219 3213 
L 2025 2691 
Q 1819 2813 1613 2813 
Q 1428 2813 1281 2702 
Q 1134 2591 1072 2394 
Q 978 2094 978 1738 
L 978 0 
L 416 0 
z
" transform="scale(0.015625)"/>
       <path id="ArialMT-20" transform="scale(0.015625)"/>
       <path id="ArialMT-6f" d="M 213 1659 
Q 213 2581 725 3025 
Q 1153 3394 1769 3394 
Q 2453 3394 2887 2945 
Q 3322 2497 3322 1706 
Q 3322 1066 3130 698 
Q 2938 331 2570 128 
Q 2203 -75 1769 -75 
Q 1072 -75 642 372 
Q 213 819 213 1659 
z
M 791 1659 
Q 791 1022 1069 705 
Q 1347 388 1769 388 
Q 2188 388 2466 706 
Q 2744 1025 2744 1678 
Q 2744 2294 2464 2611 
Q 2184 2928 1769 2928 
Q 1347 2928 1069 2612 
Q 791 2297 791 1659 
z
" transform="scale(0.015625)"/>
       <path id="ArialMT-66" d="M 556 0 
L 556 2881 
L 59 2881 
L 59 3319 
L 556 3319 
L 556 3672 
Q 556 4006 616 4169 
Q 697 4388 901 4523 
Q 1106 4659 1475 4659 
Q 1713 4659 2000 4603 
L 1916 4113 
Q 1741 4144 1584 4144 
Q 1328 4144 1222 4034 
Q 1116 3925 1116 3625 
L 1116 3319 
L 1763 3319 
L 1763 2881 
L 1116 2881 
L 1116 0 
L 556 0 
z
" transform="scale(0.015625)"/>
       <path id="ArialMT-64" d="M 2575 0 
L 2575 419 
Q 2259 -75 1647 -75 
Q 1250 -75 917 144 
Q 584 363 401 755 
Q 219 1147 219 1656 
Q 219 2153 384 2558 
Q 550 2963 881 3178 
Q 1213 3394 1622 3394 
Q 1922 3394 2156 3267 
Q 2391 3141 2538 2938 
L 2538 4581 
L 3097 4581 
L 3097 0 
L 2575 0 
z
M 797 1656 
Q 797 1019 1065 703 
Q 1334 388 1700 388 
Q 2069 388 2326 689 
Q 2584 991 2584 1609 
Q 2584 2291 2321 2609 
Q 2059 2928 1675 2928 
Q 1300 2928 1048 2622 
Q 797 2316 797 1656 
z
" transform="scale(0.015625)"/>
       <path id="ArialMT-73" d="M 197 991 
L 753 1078 
Q 800 744 1014 566 
Q 1228 388 1613 388 
Q 2000 388 2187 545 
Q 2375 703 2375 916 
Q 2375 1106 2209 1216 
Q 2094 1291 1634 1406 
Q 1016 1563 777 1677 
Q 538 1791 414 1992 
Q 291 2194 291 2438 
Q 291 2659 392 2848 
Q 494 3038 669 3163 
Q 800 3259 1026 3326 
Q 1253 3394 1513 3394 
Q 1903 3394 2198 3281 
Q 2494 3169 2634 2976 
Q 2775 2784 2828 2463 
L 2278 2388 
Q 2241 2644 2061 2787 
Q 1881 2931 1553 2931 
Q 1166 2931 1000 2803 
Q 834 2675 834 2503 
Q 834 2394 903 2306 
Q 972 2216 1119 2156 
Q 1203 2125 1616 2013 
Q 2213 1853 2448 1751 
Q 2684 1650 2818 1456 
Q 2953 1263 2953 975 
Q 2953 694 2789 445 
Q 2625 197 2315 61 
Q 2006 -75 1616 -75 
Q 969 -75 630 194 
Q 291 463 197 991 
z
" transform="scale(0.015625)"/>
      </defs>
      <use xlink:href="#ArialMT-4e"/>
      <use xlink:href="#ArialMT-75" x="72.216797"/>
      <use xlink:href="#ArialMT-6d" x="127.832031"/>
      <use xlink:href="#ArialMT-62" x="211.132812"/>
      <use xlink:href="#ArialMT-65" x="266.748047"/>
      <use xlink:href="#ArialMT-72" x="322.363281"/>
      <use xlink:href="#ArialMT-20" x="355.664062"/>
      <use xlink:href="#ArialMT-6f" x="383.447266"/>
      <use xlink:href="#ArialMT-66" x="439.0625"/>
      <use xlink:href="#ArialMT-20" x="466.845703"/>
      <use xlink:href="#ArialMT-4e" x="494.628906"/>
      <use xlink:href="#ArialMT-6f" x="566.845703"/>
      <use xlink:href="#ArialMT-64" x="622.460938"/>
      <use xlink:href="#ArialMT-65" x="678.076172"/>
      <use xlink:href="#ArialMT-73" x="733.691406"/>
     </g>
    </g>
   </g>
   <g id="matplotlib.axis_2">
    <g id="ytick_1">
     <g id="line2d_8">
      <defs>
       <path id="me424517183" d="M 0 0 
L -3.5 0 
" style="stroke: #000000; stroke-width: 0.8"/>
      </defs>
      <g>
       <use xlink:href="#me424517183" x="41.532344" y="224.64" style="stroke: #000000; stroke-width: 0.8"/>
      </g>
     </g>
     <g id="text_9">
      <!-- 0 -->
      <g transform="translate(26.747031 229.650469)scale(0.14 -0.14)">
       <use xlink:href="#ArialMT-30"/>
      </g>
     </g>
    </g>
    <g id="ytick_2">
     <g id="line2d_9">
      <g>
       <use xlink:href="#me424517183" x="41.532344" y="199.058824" style="stroke: #000000; stroke-width: 0.8"/>
      </g>
     </g>
     <g id="text_10">
      <!-- 1 -->
      <g transform="translate(26.747031 204.069292)scale(0.14 -0.14)">
       <use xlink:href="#ArialMT-31"/>
      </g>
     </g>
    </g>
    <g id="ytick_3">
     <g id="line2d_10">
      <g>
       <use xlink:href="#me424517183" x="41.532344" y="173.477647" style="stroke: #000000; stroke-width: 0.8"/>
      </g>
     </g>
     <g id="text_11">
      <!-- 2 -->
      <g transform="translate(26.747031 178.488116)scale(0.14 -0.14)">
       <use xlink:href="#ArialMT-32"/>
      </g>
     </g>
    </g>
    <g id="ytick_4">
     <g id="line2d_11">
      <g>
       <use xlink:href="#me424517183" x="41.532344" y="147.896471" style="stroke: #000000; stroke-width: 0.8"/>
      </g>
     </g>
     <g id="text_12">
      <!-- 3 -->
      <g transform="translate(26.747031 152.906939)scale(0.14 -0.14)">
       <use xlink:href="#ArialMT-33"/>
      </g>
     </g>
    </g>
    <g id="ytick_5">
     <g id="line2d_12">
      <g>
       <use xlink:href="#me424517183" x="41.532344" y="122.315294" style="stroke: #000000; stroke-width: 0.8"/>
      </g>
     </g>
     <g id="text_13">
      <!-- 4 -->
      <g transform="translate(26.747031 127.325763)scale(0.14 -0.14)">
       <use xlink:href="#ArialMT-34"/>
      </g>
     </g>
    </g>
    <g id="ytick_6">
     <g id="line2d_13">
      <g>
       <use xlink:href="#me424517183" x="41.532344" y="96.734118" style="stroke: #000000; stroke-width: 0.8"/>
      </g>
     </g>
     <g id="text_14">
      <!-- 5 -->
      <g transform="translate(26.747031 101.744586)scale(0.14 -0.14)">
       <use xlink:href="#ArialMT-35"/>
      </g>
     </g>
    </g>
    <g id="ytick_7">
     <g id="line2d_14">
      <g>
       <use xlink:href="#me424517183" x="41.532344" y="71.152941" style="stroke: #000000; stroke-width: 0.8"/>
      </g>
     </g>
     <g id="text_15">
      <!-- 6 -->
      <g transform="translate(26.747031 76.16341)scale(0.14 -0.14)">
       <use xlink:href="#ArialMT-36"/>
      </g>
     </g>
    </g>
    <g id="ytick_8">
     <g id="line2d_15">
      <g>
       <use xlink:href="#me424517183" x="41.532344" y="45.571765" style="stroke: #000000; stroke-width: 0.8"/>
      </g>
     </g>
     <g id="text_16">
      <!-- 7 -->
      <g transform="translate(26.747031 50.582233)scale(0.14 -0.14)">
       <defs>
        <path id="ArialMT-37" d="M 303 3981 
L 303 4522 
L 3269 4522 
L 3269 4084 
Q 2831 3619 2401 2847 
Q 1972 2075 1738 1259 
Q 1569 684 1522 0 
L 944 0 
Q 953 541 1156 1306 
Q 1359 2072 1739 2783 
Q 2119 3494 2547 3981 
L 303 3981 
z
" transform="scale(0.015625)"/>
       </defs>
       <use xlink:href="#ArialMT-37"/>
      </g>
     </g>
    </g>
    <g id="ytick_9">
     <g id="line2d_16">
      <g>
       <use xlink:href="#me424517183" x="41.532344" y="19.990588" style="stroke: #000000; stroke-width: 0.8"/>
      </g>
     </g>
     <g id="text_17">
      <!-- 8 -->
      <g transform="translate(26.747031 25.001057)scale(0.14 -0.14)">
       <defs>
        <path id="ArialMT-38" d="M 1131 2484 
Q 781 2613 612 2850 
Q 444 3088 444 3419 
Q 444 3919 803 4259 
Q 1163 4600 1759 4600 
Q 2359 4600 2725 4251 
Q 3091 3903 3091 3403 
Q 3091 3084 2923 2848 
Q 2756 2613 2416 2484 
Q 2838 2347 3058 2040 
Q 3278 1734 3278 1309 
Q 3278 722 2862 322 
Q 2447 -78 1769 -78 
Q 1091 -78 675 323 
Q 259 725 259 1325 
Q 259 1772 486 2073 
Q 713 2375 1131 2484 
z
M 1019 3438 
Q 1019 3113 1228 2906 
Q 1438 2700 1772 2700 
Q 2097 2700 2305 2904 
Q 2513 3109 2513 3406 
Q 2513 3716 2298 3927 
Q 2084 4138 1766 4138 
Q 1444 4138 1231 3931 
Q 1019 3725 1019 3438 
z
M 838 1322 
Q 838 1081 952 856 
Q 1066 631 1291 507 
Q 1516 384 1775 384 
Q 2178 384 2440 643 
Q 2703 903 2703 1303 
Q 2703 1709 2433 1975 
Q 2163 2241 1756 2241 
Q 1359 2241 1098 1978 
Q 838 1716 838 1322 
z
" transform="scale(0.015625)"/>
       </defs>
       <use xlink:href="#ArialMT-38"/>
      </g>
     </g>
    </g>
    <g id="text_18">
     <!-- $\sigma$ -->
     <g transform="translate(19.368281 121.36)rotate(-90)scale(0.17 -0.17)">
      <defs>
       <path id="DejaVuSans-Oblique-3c3" d="M 2219 3044 
Q 1744 3044 1422 2700 
Q 1081 2341 969 1747 
Q 844 1119 1044 756 
Q 1241 397 1706 397 
Q 2166 397 2503 759 
Q 2844 1122 2966 1747 
Q 3075 2319 2881 2700 
Q 2700 3044 2219 3044 
z
M 2309 3503 
L 4219 3500 
L 4106 2925 
L 3463 2925 
Q 3706 2438 3575 1747 
Q 3406 888 2884 400 
Q 2359 -91 1609 -91 
Q 856 -91 525 400 
Q 194 888 363 1747 
Q 528 2609 1050 3097 
Q 1484 3503 2309 3503 
z
" transform="scale(0.015625)"/>
      </defs>
      <use xlink:href="#DejaVuSans-Oblique-3c3" transform="translate(0 0.265625)"/>
     </g>
    </g>
   </g>
   <g id="line2d_17">
    <path d="M 66.279644 177.188133 
L 67.897844 176.05352 
L 69.516044 175.390611 
L 71.106344 174.524832 
L 72.975644 172.081498 
L 74.872844 167.303164 
L 77.160644 159.44602 
L 79.448444 158.251645 
L 81.736244 160.622565 
L 84.247244 162.141854 
L 86.841944 159.434357 
L 89.436644 159.551506 
L 91.891844 158.315251 
L 94.514444 154.283958 
L 97.527644 153.682129 
L 100.512944 152.118111 
L 103.386644 150.491421 
L 106.344044 149.760444 
L 109.664144 148.31404 
L 113.346944 147.7892 
L 116.722844 147.253689 
L 120.266144 146.021362 
L 124.060544 144.959116 
L 128.245544 144.966252 
L 132.458444 146.335397 
L 136.671344 149.230568 
L 140.744744 154.645676 
L 145.515644 153.273818 
L 150.677144 152.261831 
L 155.671244 153.050207 
L 160.944344 151.67789 
L 166.412744 150.884891 
L 172.076444 149.754659 
L 178.158644 152.186712 
L 183.878144 150.498575 
L 190.044044 150.814999 
L 196.293644 150.323296 
L 203.073344 150.2522 
L 209.406644 149.561213 
L 215.879444 148.416347 
L 222.435944 147.222757 
L 228.992444 147.705944 
L 235.688444 147.465607 
L 242.356544 146.812933 
L 248.968844 145.74886 
L 255.553244 145.486958 
L 262.109744 145.247506 
L 268.498844 145.488882 
L 274.608944 144.993902 
L 280.579544 144.414963 
L 286.299044 145.970219 
L 291.906944 145.046158 
L 297.710144 145.501495 
L 303.178544 144.90244 
L 308.619044 145.719672 
L 313.668944 146.474032 
L 319.053644 146.665186 
L 323.768744 146.283921 
L 328.707044 147.006835 
L 333.198944 146.833614 
L 337.718744 147.267832 
L 342.517544 147.52873 
L 347.093144 147.671612 
L 351.361844 147.432555 
L 355.323644 147.509997 
L 359.508644 147.944516 
L 363.805244 148.348593 
L 367.599644 148.589264 
L 371.142944 149.044285 
L 374.797844 149.810178 
" clip-path="url(#p398e36681c)" style="fill: none; stroke: #24a394; stroke-width: 1.5; stroke-linecap: square"/>
   </g>
   <g id="line2d_18">
    <path d="M 70.101944 170.167044 
L 71.469044 169.173063 
L 72.836144 165.731221 
L 74.454344 163.243441 
L 76.184144 166.026584 
L 77.913944 163.945055 
L 79.587944 165.591179 
L 81.345644 155.851335 
L 83.159144 157.240416 
L 85.000544 154.774985 
L 86.758244 155.592153 
L 88.711244 156.298696 
L 90.887444 155.197453 
L 93.007844 151.955981 
L 95.407244 151.574524 
L 97.750844 151.46603 
L 100.317644 150.733087 
L 102.744944 149.412261 
L 105.367544 148.948165 
L 108.018044 150.27921 
L 110.584844 150.753311 
L 113.207444 150.633085 
L 116.081144 150.703155 
L 118.675844 150.822322 
L 121.270544 150.91105 
L 123.809444 151.49637 
L 126.292544 151.417719 
L 129.082544 159.859979 
L 131.816744 159.482558 
L 134.467244 160.139849 
L 137.285144 160.153273 
L 139.907744 159.793945 
L 142.614044 159.780385 
L 145.543544 162.029563 
L 148.166144 162.005915 
L 150.844544 162.80372 
L 153.746144 162.969684 
L 156.647744 164.042257 
L 159.437744 163.964658 
L 162.953144 164.512515 
L 166.496444 163.478529 
L 170.402444 163.951693 
L 174.336344 164.557298 
L 178.381844 165.064254 
L 182.343644 164.387293 
L 186.249644 164.854087 
L 190.267244 164.829876 
L 194.117444 165.455269 
L 198.079244 165.622484 
L 202.041044 165.706546 
L 205.863344 165.775676 
L 209.936744 165.532701 
L 213.898544 165.187195 
L 217.665044 164.685327 
L 221.654744 164.446079 
L 225.560744 164.258671 
L 229.104044 164.048319 
L 232.563644 163.320465 
L 236.162744 163.326327 
L 239.259644 162.15672 
L 242.412344 162.156248 
L 245.230244 161.672167 
L 247.824944 161.13981 
L 250.391744 160.969248 
L 253.098044 160.771014 
L 255.804344 160.551507 
L 258.622244 160.416509 
L 261.133244 160.238624 
L 263.588444 159.969207 
L 266.238944 159.830055 
L 269.112644 159.80084 
L 271.791044 159.996632 
L 274.720544 160.375032 
L 278.459144 161.127401 
" clip-path="url(#p398e36681c)" style="fill: none; stroke: #03574d; stroke-width: 1.5; stroke-linecap: square"/>
   </g>
   <g id="line2d_19">
    <path d="M 61.536644 186.761613 
L 62.931644 185.838481 
L 64.382444 185.284357 
L 66.028544 184.502652 
L 67.674644 182.54975 
L 69.488144 181.672058 
L 71.301644 180.533146 
L 73.310444 179.625626 
L 75.486644 177.950149 
L 77.718644 177.120173 
L 79.978544 176.29759 
L 82.294244 175.86922 
L 84.609944 173.831568 
L 87.009344 173.000402 
L 89.687744 171.373128 
L 92.421944 170.496838 
L 94.849244 172.987583 
L 97.304444 171.027183 
L 99.899144 168.288083 
L 102.912344 167.413798 
L 105.841844 166.699064 
L 109.161944 164.956736 
L 112.454144 163.00479 
L 115.830044 161.923667 
L 119.233844 160.326362 
L 122.498144 159.35095 
L 126.125144 157.82325 
L 129.612644 156.285073 
L 133.434944 155.557457 
L 137.424644 153.759942 
L 141.637544 152.174253 
L 145.794644 150.842269 
L 150.453944 149.905009 
L 155.029544 148.667961 
L 159.633044 148.130782 
L 164.236544 145.723531 
L 168.867944 144.463732 
L 173.583044 143.249674 
L 178.186544 143.399071 
L 182.706344 142.369616 
L 187.226144 140.87506 
L 191.578544 139.540911 
L 196.014644 138.551625 
L 200.367044 137.84187 
L 205.110044 138.947904 
L 209.880944 137.676868 
L 214.289144 136.830027 
L 218.920544 136.284465 
L 223.245044 135.163853 
L 227.764844 134.625013 
L 232.117244 134.359034 
L 236.581244 133.663506 
L 240.849944 133.738549 
L 245.648744 133.375664 
L 250.168544 133.049415 
L 254.799944 133.673841 
L 259.487144 133.886679 
L 264.146444 134.513554 
L 269.028944 134.359378 
L 273.437144 134.639306 
L 277.901144 134.75838 
L 282.560444 135.776752 
L 287.136044 136.613966 
L 291.851144 137.034726 
L 296.259344 137.054755 
L 300.667544 137.638587 
L 305.577944 138.4647 
L 310.181444 139.1519 
L 315.008144 139.854392 
L 319.527944 140.716624 
L 324.047744 141.050776 
L 328.623344 142.089854 
L 333.059444 142.58837 
L 337.383944 143.113482 
L 341.624744 143.520607 
L 345.726044 144.201957 
L 349.799444 145.094834 
L 353.817044 145.67785 
L 358.029944 146.679667 
L 362.605544 147.600576 
" clip-path="url(#p398e36681c)" style="fill: none; stroke: #b5971d; stroke-width: 1.5; stroke-linecap: square"/>
   </g>
   <g id="line2d_20">
    <path d="M 62.708444 176.475424 
L 63.740744 176.086663 
L 64.856744 173.864325 
L 65.972744 172.930291 
L 67.116644 173.313467 
L 68.260544 171.736949 
L 69.432344 171.26315 
L 70.659944 172.069126 
L 71.887544 171.533423 
L 73.198844 172.289469 
L 74.593844 171.55049 
L 75.737744 173.918278 
L 76.797944 174.825966 
L 77.802344 174.098465 
L 78.946244 173.724574 
L 80.062244 174.514856 
L 81.234044 173.775269 
L 82.573244 172.80648 
L 83.856644 172.980042 
L 85.140044 173.29949 
L 86.646644 172.877917 
L 88.320644 172.522077 
L 89.855144 173.135528 
L 91.417544 172.800543 
L 92.952044 173.029082 
L 94.598144 173.521141 
L 96.467444 172.989841 
L 98.308844 172.924538 
L 100.150244 172.915931 
L 102.131144 172.808478 
L 104.446844 172.395514 
L 106.902044 172.255531 
L 109.468844 171.802644 
L 111.979844 171.709266 
L 114.407144 171.86975 
L 117.225044 172.057964 
L 120.098744 171.917335 
L 122.832944 171.353947 
L 125.706644 171.392838 
L 128.859344 170.529018 
L 132.067844 170.11907 
L 135.304244 169.861577 
L 138.680144 170.025464 
L 142.111844 170.152661 
L 146.324744 170.245595 
L 150.453944 169.589109 
L 154.666844 169.568921 
L 158.935544 169.51807 
L 163.260044 169.172414 
L 168.393644 168.679105 
L 173.108744 168.669908 
L 177.768044 168.410014 
L 182.399444 168.332014 
L 187.142444 168.04857 
L 192.806144 168.035323 
L 198.190844 167.734674 
L 203.659244 167.519707 
L 209.127644 167.783219 
L 214.930844 167.441138 
L 221.264144 167.783053 
L 227.653244 167.931537 
L 233.930744 168.063889 
L 240.291944 167.967054 
L 247.462244 168.004388 
L 254.911544 168.236023 
L 262.305044 168.601168 
L 269.363744 168.73214 
L 276.478244 168.822449 
L 285.629444 169.244538 
L 293.859944 169.949566 
L 302.453144 170.54112 
" clip-path="url(#p398e36681c)" style="fill: none; stroke: #705b06; stroke-width: 1.5; stroke-linecap: square"/>
   </g>
   <g id="line2d_21">
    <path d="M 41.532344 199.058824 
L 376.332344 199.058824 
" clip-path="url(#p398e36681c)" style="fill: none; stroke-dasharray: 1.5,2.475; stroke-dashoffset: 0; stroke: #ff0000; stroke-width: 1.5"/>
   </g>
   <g id="patch_3">
    <path d="M 41.532344 224.64 
L 41.532344 7.2 
" style="fill: none; stroke: #000000; stroke-width: 0.8; stroke-linejoin: miter; stroke-linecap: square"/>
   </g>
   <g id="patch_4">
    <path d="M 376.332344 224.64 
L 376.332344 7.2 
" style="fill: none"/>
   </g>
   <g id="patch_5">
    <path d="M 41.532344 224.64 
L 376.332344 224.64 
" style="fill: none; stroke: #000000; stroke-width: 0.8; stroke-linejoin: miter; stroke-linecap: square"/>
   </g>
   <g id="patch_6">
    <path d="M 41.532344 7.2 
L 376.332344 7.2 
" style="fill: none"/>
   </g>
   <g id="text_19">
    <!-- Random -->
    <g style="fill: #ff0000" transform="translate(175.452344 214.407529)scale(0.15 -0.15)">
     <defs>
      <path id="ArialMT-52" d="M 503 0 
L 503 4581 
L 2534 4581 
Q 3147 4581 3465 4457 
Q 3784 4334 3975 4021 
Q 4166 3709 4166 3331 
Q 4166 2844 3850 2509 
Q 3534 2175 2875 2084 
Q 3116 1969 3241 1856 
Q 3506 1613 3744 1247 
L 4541 0 
L 3778 0 
L 3172 953 
Q 2906 1366 2734 1584 
Q 2563 1803 2427 1890 
Q 2291 1978 2150 2013 
Q 2047 2034 1813 2034 
L 1109 2034 
L 1109 0 
L 503 0 
z
M 1109 2559 
L 2413 2559 
Q 2828 2559 3062 2645 
Q 3297 2731 3419 2920 
Q 3541 3109 3541 3331 
Q 3541 3656 3305 3865 
Q 3069 4075 2559 4075 
L 1109 4075 
L 1109 2559 
z
" transform="scale(0.015625)"/>
      <path id="ArialMT-61" d="M 2588 409 
Q 2275 144 1986 34 
Q 1697 -75 1366 -75 
Q 819 -75 525 192 
Q 231 459 231 875 
Q 231 1119 342 1320 
Q 453 1522 633 1644 
Q 813 1766 1038 1828 
Q 1203 1872 1538 1913 
Q 2219 1994 2541 2106 
Q 2544 2222 2544 2253 
Q 2544 2597 2384 2738 
Q 2169 2928 1744 2928 
Q 1347 2928 1158 2789 
Q 969 2650 878 2297 
L 328 2372 
Q 403 2725 575 2942 
Q 747 3159 1072 3276 
Q 1397 3394 1825 3394 
Q 2250 3394 2515 3294 
Q 2781 3194 2906 3042 
Q 3031 2891 3081 2659 
Q 3109 2516 3109 2141 
L 3109 1391 
Q 3109 606 3145 398 
Q 3181 191 3288 0 
L 2700 0 
Q 2613 175 2588 409 
z
M 2541 1666 
Q 2234 1541 1622 1453 
Q 1275 1403 1131 1340 
Q 988 1278 909 1158 
Q 831 1038 831 891 
Q 831 666 1001 516 
Q 1172 366 1500 366 
Q 1825 366 2078 508 
Q 2331 650 2450 897 
Q 2541 1088 2541 1459 
L 2541 1666 
z
" transform="scale(0.015625)"/>
      <path id="ArialMT-6e" d="M 422 0 
L 422 3319 
L 928 3319 
L 928 2847 
Q 1294 3394 1984 3394 
Q 2284 3394 2536 3286 
Q 2788 3178 2913 3003 
Q 3038 2828 3088 2588 
Q 3119 2431 3119 2041 
L 3119 0 
L 2556 0 
L 2556 2019 
Q 2556 2363 2490 2533 
Q 2425 2703 2258 2804 
Q 2091 2906 1866 2906 
Q 1506 2906 1245 2678 
Q 984 2450 984 1813 
L 984 0 
L 422 0 
z
" transform="scale(0.015625)"/>
     </defs>
     <use xlink:href="#ArialMT-52"/>
     <use xlink:href="#ArialMT-61" x="72.216797"/>
     <use xlink:href="#ArialMT-6e" x="127.832031"/>
     <use xlink:href="#ArialMT-64" x="183.447266"/>
     <use xlink:href="#ArialMT-6f" x="239.0625"/>
     <use xlink:href="#ArialMT-6d" x="294.677734"/>
    </g>
   </g>
   <g id="legend_1">
    <g id="patch_7">
     <path d="M 246.494844 91.5375 
L 367.232344 91.5375 
Q 369.832344 91.5375 369.832344 88.9375 
L 369.832344 16.3 
Q 369.832344 13.7 367.232344 13.7 
L 246.494844 13.7 
Q 243.894844 13.7 243.894844 16.3 
L 243.894844 88.9375 
Q 243.894844 91.5375 246.494844 91.5375 
z
" style="fill: #ffffff; opacity: 0.8; stroke: #cccccc; stroke-linejoin: miter"/>
    </g>
    <g id="line2d_22">
     <path d="M 249.094844 23.655156 
L 262.094844 23.655156 
L 275.094844 23.655156 
" style="fill: none; stroke: #24a394; stroke-width: 1.5; stroke-linecap: square"/>
    </g>
    <g id="text_20">
     <!-- Ascl1 Venus+ -->
     <g transform="translate(285.494844 28.205156)scale(0.13 -0.13)">
      <defs>
       <path id="ArialMT-41" d="M -9 0 
L 1750 4581 
L 2403 4581 
L 4278 0 
L 3588 0 
L 3053 1388 
L 1138 1388 
L 634 0 
L -9 0 
z
M 1313 1881 
L 2866 1881 
L 2388 3150 
Q 2169 3728 2063 4100 
Q 1975 3659 1816 3225 
L 1313 1881 
z
" transform="scale(0.015625)"/>
       <path id="ArialMT-63" d="M 2588 1216 
L 3141 1144 
Q 3050 572 2676 248 
Q 2303 -75 1759 -75 
Q 1078 -75 664 370 
Q 250 816 250 1647 
Q 250 2184 428 2587 
Q 606 2991 970 3192 
Q 1334 3394 1763 3394 
Q 2303 3394 2647 3120 
Q 2991 2847 3088 2344 
L 2541 2259 
Q 2463 2594 2264 2762 
Q 2066 2931 1784 2931 
Q 1359 2931 1093 2626 
Q 828 2322 828 1663 
Q 828 994 1084 691 
Q 1341 388 1753 388 
Q 2084 388 2306 591 
Q 2528 794 2588 1216 
z
" transform="scale(0.015625)"/>
       <path id="ArialMT-6c" d="M 409 0 
L 409 4581 
L 972 4581 
L 972 0 
L 409 0 
z
" transform="scale(0.015625)"/>
       <path id="ArialMT-56" d="M 1803 0 
L 28 4581 
L 684 4581 
L 1875 1253 
Q 2019 853 2116 503 
Q 2222 878 2363 1253 
L 3600 4581 
L 4219 4581 
L 2425 0 
L 1803 0 
z
" transform="scale(0.015625)"/>
       <path id="ArialMT-2b" d="M 1603 741 
L 1603 1997 
L 356 1997 
L 356 2522 
L 1603 2522 
L 1603 3769 
L 2134 3769 
L 2134 2522 
L 3381 2522 
L 3381 1997 
L 2134 1997 
L 2134 741 
L 1603 741 
z
" transform="scale(0.015625)"/>
      </defs>
      <use xlink:href="#ArialMT-41"/>
      <use xlink:href="#ArialMT-73" x="66.699219"/>
      <use xlink:href="#ArialMT-63" x="116.699219"/>
      <use xlink:href="#ArialMT-6c" x="166.699219"/>
      <use xlink:href="#ArialMT-31" x="188.916016"/>
      <use xlink:href="#ArialMT-20" x="244.53125"/>
      <use xlink:href="#ArialMT-56" x="272.314453"/>
      <use xlink:href="#ArialMT-65" x="333.513672"/>
      <use xlink:href="#ArialMT-6e" x="389.128906"/>
      <use xlink:href="#ArialMT-75" x="444.744141"/>
      <use xlink:href="#ArialMT-73" x="500.359375"/>
      <use xlink:href="#ArialMT-2b" x="550.359375"/>
     </g>
    </g>
    <g id="line2d_23">
     <path d="M 249.094844 42.044063 
L 262.094844 42.044063 
L 275.094844 42.044063 
" style="fill: none; stroke: #03574d; stroke-width: 1.5; stroke-linecap: square"/>
    </g>
    <g id="text_21">
     <!-- Ascl1 Venus- -->
     <g transform="translate(285.494844 46.594063)scale(0.13 -0.13)">
      <defs>
       <path id="ArialMT-2d" d="M 203 1375 
L 203 1941 
L 1931 1941 
L 1931 1375 
L 203 1375 
z
" transform="scale(0.015625)"/>
      </defs>
      <use xlink:href="#ArialMT-41"/>
      <use xlink:href="#ArialMT-73" x="66.699219"/>
      <use xlink:href="#ArialMT-63" x="116.699219"/>
      <use xlink:href="#ArialMT-6c" x="166.699219"/>
      <use xlink:href="#ArialMT-31" x="188.916016"/>
      <use xlink:href="#ArialMT-20" x="244.53125"/>
      <use xlink:href="#ArialMT-56" x="272.314453"/>
      <use xlink:href="#ArialMT-65" x="333.513672"/>
      <use xlink:href="#ArialMT-6e" x="389.128906"/>
      <use xlink:href="#ArialMT-75" x="444.744141"/>
      <use xlink:href="#ArialMT-73" x="500.359375"/>
      <use xlink:href="#ArialMT-2d" x="550.359375"/>
     </g>
    </g>
    <g id="line2d_24">
     <path d="M 249.094844 60.471562 
L 262.094844 60.471562 
L 275.094844 60.471562 
" style="fill: none; stroke: #b5971d; stroke-width: 1.5; stroke-linecap: square"/>
    </g>
    <g id="text_22">
     <!-- Ngn2 Venus+ -->
     <g transform="translate(285.494844 65.021562)scale(0.13 -0.13)">
      <defs>
       <path id="ArialMT-67" d="M 319 -275 
L 866 -356 
Q 900 -609 1056 -725 
Q 1266 -881 1628 -881 
Q 2019 -881 2231 -725 
Q 2444 -569 2519 -288 
Q 2563 -116 2559 434 
Q 2191 0 1641 0 
Q 956 0 581 494 
Q 206 988 206 1678 
Q 206 2153 378 2554 
Q 550 2956 876 3175 
Q 1203 3394 1644 3394 
Q 2231 3394 2613 2919 
L 2613 3319 
L 3131 3319 
L 3131 450 
Q 3131 -325 2973 -648 
Q 2816 -972 2473 -1159 
Q 2131 -1347 1631 -1347 
Q 1038 -1347 672 -1080 
Q 306 -813 319 -275 
z
M 784 1719 
Q 784 1066 1043 766 
Q 1303 466 1694 466 
Q 2081 466 2343 764 
Q 2606 1063 2606 1700 
Q 2606 2309 2336 2618 
Q 2066 2928 1684 2928 
Q 1309 2928 1046 2623 
Q 784 2319 784 1719 
z
" transform="scale(0.015625)"/>
      </defs>
      <use xlink:href="#ArialMT-4e"/>
      <use xlink:href="#ArialMT-67" x="72.216797"/>
      <use xlink:href="#ArialMT-6e" x="127.832031"/>
      <use xlink:href="#ArialMT-32" x="183.447266"/>
      <use xlink:href="#ArialMT-20" x="239.0625"/>
      <use xlink:href="#ArialMT-56" x="266.845703"/>
      <use xlink:href="#ArialMT-65" x="328.044922"/>
      <use xlink:href="#ArialMT-6e" x="383.660156"/>
      <use xlink:href="#ArialMT-75" x="439.275391"/>
      <use xlink:href="#ArialMT-73" x="494.890625"/>
      <use xlink:href="#ArialMT-2b" x="544.890625"/>
     </g>
    </g>
    <g id="line2d_25">
     <path d="M 249.094844 79.051406 
L 262.094844 79.051406 
L 275.094844 79.051406 
" style="fill: none; stroke: #705b06; stroke-width: 1.5; stroke-linecap: square"/>
    </g>
    <g id="text_23">
     <!-- Ngn2 Venus- -->
     <g transform="translate(285.494844 83.601406)scale(0.13 -0.13)">
      <use xlink:href="#ArialMT-4e"/>
      <use xlink:href="#ArialMT-67" x="72.216797"/>
      <use xlink:href="#ArialMT-6e" x="127.832031"/>
      <use xlink:href="#ArialMT-32" x="183.447266"/>
      <use xlink:href="#ArialMT-20" x="239.0625"/>
      <use xlink:href="#ArialMT-56" x="266.845703"/>
      <use xlink:href="#ArialMT-65" x="328.044922"/>
      <use xlink:href="#ArialMT-6e" x="383.660156"/>
      <use xlink:href="#ArialMT-75" x="439.275391"/>
      <use xlink:href="#ArialMT-73" x="494.890625"/>
      <use xlink:href="#ArialMT-2d" x="544.890625"/>
     </g>
    </g>
   </g>
  </g>
 </g>
 <defs>
  <clipPath id="p398e36681c">
   <rect x="41.532344" y="7.2" width="334.8" height="217.44"/>
  </clipPath>
 </defs>
</svg>
