<?xml version="1.0" encoding="utf-8" standalone="no"?>
<!DOCTYPE svg PUBLIC "-//W3C//DTD SVG 1.1//EN"
  "http://www.w3.org/Graphics/SVG/1.1/DTD/svg11.dtd">
<svg xmlns:xlink="http://www.w3.org/1999/xlink" width="317.161625pt" height="602.360937pt" viewBox="0 0 317.161625 602.360937" xmlns="http://www.w3.org/2000/svg" version="1.1">
 <metadata>
  <rdf:RDF xmlns:dc="http://purl.org/dc/elements/1.1/" xmlns:cc="http://creativecommons.org/ns#" xmlns:rdf="http://www.w3.org/1999/02/22-rdf-syntax-ns#">
   <cc:Work>
    <dc:type rdf:resource="http://purl.org/dc/dcmitype/StillImage"/>
    <dc:date>2025-08-18T17:30:02.404536</dc:date>
    <dc:format>image/svg+xml</dc:format>
    <dc:creator>
     <cc:Agent>
      <dc:title>Matplotlib v3.5.3, https://matplotlib.org/</dc:title>
     </cc:Agent>
    </dc:creator>
   </cc:Work>
  </rdf:RDF>
 </metadata>
 <defs>
  <style type="text/css">*{stroke-linejoin: round; stroke-linecap: butt}</style>
 </defs>
 <g id="figure_1">
  <g id="patch_1">
   <path d="M 0 602.360937 
L 317.161625 602.360937 
L 317.161625 0 
L 0 0 
L 0 602.360937 
z
" style="fill: none"/>
  </g>
  <g id="axes_1">
   <g id="patch_2">
    <path d="M 75.083656 172.092822 
L 298.283656 172.092822 
L 298.283656 12.210469 
L 75.083656 12.210469 
z
" style="fill: #ffffff"/>
   </g>
   <g id="PathCollection_1">
    <defs>
     <path id="m4fbc909f47" d="M 0 0.5 
C 0.132602 0.5 0.25979 0.447317 0.353553 0.353553 
C 0.447317 0.25979 0.5 0.132602 0.5 0 
C 0.5 -0.132602 0.447317 -0.25979 0.353553 -0.353553 
C 0.25979 -0.447317 0.132602 -0.5 0 -0.5 
C -0.132602 -0.5 -0.25979 -0.447317 -0.353553 -0.353553 
C -0.447317 -0.25979 -0.5 -0.132602 -0.5 0 
C -0.5 0.132602 -0.447317 0.25979 -0.353553 0.353553 
C -0.25979 0.447317 -0.132602 0.5 0 0.5 
z
" style="stroke: #1f77b4; stroke-opacity: 0.5"/>
    </defs>
    <g clip-path="url(#p70b1169759)">
     <use xlink:href="#m4fbc909f47" x="69.746265" y="61.82913" style="fill: #1f77b4; fill-opacity: 0.5; stroke: #1f77b4; stroke-opacity: 0.5"/>
     <use xlink:href="#m4fbc909f47" x="72.657569" y="44.186939" style="fill: #1f77b4; fill-opacity: 0.5; stroke: #1f77b4; stroke-opacity: 0.5"/>
     <use xlink:href="#m4fbc909f47" x="75.083656" y="40.189881" style="fill: #1f77b4; fill-opacity: 0.5; stroke: #1f77b4; stroke-opacity: 0.5"/>
     <use xlink:href="#m4fbc909f47" x="76.054091" y="42.66425" style="fill: #1f77b4; fill-opacity: 0.5; stroke: #1f77b4; stroke-opacity: 0.5"/>
     <use xlink:href="#m4fbc909f47" x="76.539308" y="38.237829" style="fill: #1f77b4; fill-opacity: 0.5; stroke: #1f77b4; stroke-opacity: 0.5"/>
     <use xlink:href="#m4fbc909f47" x="79.93583" y="53.779881" style="fill: #1f77b4; fill-opacity: 0.5; stroke: #1f77b4; stroke-opacity: 0.5"/>
     <use xlink:href="#m4fbc909f47" x="80.421048" y="21.615313" style="fill: #1f77b4; fill-opacity: 0.5; stroke: #1f77b4; stroke-opacity: 0.5"/>
     <use xlink:href="#m4fbc909f47" x="81.391482" y="30.310358" style="fill: #1f77b4; fill-opacity: 0.5; stroke: #1f77b4; stroke-opacity: 0.5"/>
     <use xlink:href="#m4fbc909f47" x="82.847135" y="32.195763" style="fill: #1f77b4; fill-opacity: 0.5; stroke: #1f77b4; stroke-opacity: 0.5"/>
     <use xlink:href="#m4fbc909f47" x="84.788004" y="22.869292" style="fill: #1f77b4; fill-opacity: 0.5; stroke: #1f77b4; stroke-opacity: 0.5"/>
     <use xlink:href="#m4fbc909f47" x="86.243656" y="29.975175" style="fill: #1f77b4; fill-opacity: 0.5; stroke: #1f77b4; stroke-opacity: 0.5"/>
     <use xlink:href="#m4fbc909f47" x="88.184526" y="16.983076" style="fill: #1f77b4; fill-opacity: 0.5; stroke: #1f77b4; stroke-opacity: 0.5"/>
     <use xlink:href="#m4fbc909f47" x="88.184526" y="40.846114" style="fill: #1f77b4; fill-opacity: 0.5; stroke: #1f77b4; stroke-opacity: 0.5"/>
     <use xlink:href="#m4fbc909f47" x="93.521917" y="14.260243" style="fill: #1f77b4; fill-opacity: 0.5; stroke: #1f77b4; stroke-opacity: 0.5"/>
     <use xlink:href="#m4fbc909f47" x="94.492352" y="26.200175" style="fill: #1f77b4; fill-opacity: 0.5; stroke: #1f77b4; stroke-opacity: 0.5"/>
     <use xlink:href="#m4fbc909f47" x="94.977569" y="29.975175" style="fill: #1f77b4; fill-opacity: 0.5; stroke: #1f77b4; stroke-opacity: 0.5"/>
     <use xlink:href="#m4fbc909f47" x="94.977569" y="24.053606" style="fill: #1f77b4; fill-opacity: 0.5; stroke: #1f77b4; stroke-opacity: 0.5"/>
     <use xlink:href="#m4fbc909f47" x="101.285395" y="22.415725" style="fill: #1f77b4; fill-opacity: 0.5; stroke: #1f77b4; stroke-opacity: 0.5"/>
     <use xlink:href="#m4fbc909f47" x="102.25583" y="13.87591" style="fill: #1f77b4; fill-opacity: 0.5; stroke: #1f77b4; stroke-opacity: 0.5"/>
     <use xlink:href="#m4fbc909f47" x="109.534091" y="16.531613" style="fill: #1f77b4; fill-opacity: 0.5; stroke: #1f77b4; stroke-opacity: 0.5"/>
     <use xlink:href="#m4fbc909f47" x="109.534091" y="16.531613" style="fill: #1f77b4; fill-opacity: 0.5; stroke: #1f77b4; stroke-opacity: 0.5"/>
     <use xlink:href="#m4fbc909f47" x="112.445395" y="13.576985" style="fill: #1f77b4; fill-opacity: 0.5; stroke: #1f77b4; stroke-opacity: 0.5"/>
     <use xlink:href="#m4fbc909f47" x="118.753221" y="17.129926" style="fill: #1f77b4; fill-opacity: 0.5; stroke: #1f77b4; stroke-opacity: 0.5"/>
     <use xlink:href="#m4fbc909f47" x="121.179308" y="27.606547" style="fill: #1f77b4; fill-opacity: 0.5; stroke: #1f77b4; stroke-opacity: 0.5"/>
     <use xlink:href="#m4fbc909f47" x="121.664526" y="15.737285" style="fill: #1f77b4; fill-opacity: 0.5; stroke: #1f77b4; stroke-opacity: 0.5"/>
     <use xlink:href="#m4fbc909f47" x="122.634961" y="18.003308" style="fill: #1f77b4; fill-opacity: 0.5; stroke: #1f77b4; stroke-opacity: 0.5"/>
     <use xlink:href="#m4fbc909f47" x="126.031482" y="13.313106" style="fill: #1f77b4; fill-opacity: 0.5; stroke: #1f77b4; stroke-opacity: 0.5"/>
     <use xlink:href="#m4fbc909f47" x="133.794961" y="15.189643" style="fill: #1f77b4; fill-opacity: 0.5; stroke: #1f77b4; stroke-opacity: 0.5"/>
     <use xlink:href="#m4fbc909f47" x="134.765395" y="15.153089" style="fill: #1f77b4; fill-opacity: 0.5; stroke: #1f77b4; stroke-opacity: 0.5"/>
     <use xlink:href="#m4fbc909f47" x="134.765395" y="27.904442" style="fill: #1f77b4; fill-opacity: 0.5; stroke: #1f77b4; stroke-opacity: 0.5"/>
     <use xlink:href="#m4fbc909f47" x="137.6767" y="14.102568" style="fill: #1f77b4; fill-opacity: 0.5; stroke: #1f77b4; stroke-opacity: 0.5"/>
     <use xlink:href="#m4fbc909f47" x="145.925395" y="15.648799" style="fill: #1f77b4; fill-opacity: 0.5; stroke: #1f77b4; stroke-opacity: 0.5"/>
     <use xlink:href="#m4fbc909f47" x="152.233221" y="13.013898" style="fill: #1f77b4; fill-opacity: 0.5; stroke: #1f77b4; stroke-opacity: 0.5"/>
     <use xlink:href="#m4fbc909f47" x="152.233221" y="26.672189" style="fill: #1f77b4; fill-opacity: 0.5; stroke: #1f77b4; stroke-opacity: 0.5"/>
     <use xlink:href="#m4fbc909f47" x="156.114961" y="14.527604" style="fill: #1f77b4; fill-opacity: 0.5; stroke: #1f77b4; stroke-opacity: 0.5"/>
     <use xlink:href="#m4fbc909f47" x="160.967135" y="16.631179" style="fill: #1f77b4; fill-opacity: 0.5; stroke: #1f77b4; stroke-opacity: 0.5"/>
     <use xlink:href="#m4fbc909f47" x="167.760178" y="12.9026" style="fill: #1f77b4; fill-opacity: 0.5; stroke: #1f77b4; stroke-opacity: 0.5"/>
     <use xlink:href="#m4fbc909f47" x="174.553221" y="12.86305" style="fill: #1f77b4; fill-opacity: 0.5; stroke: #1f77b4; stroke-opacity: 0.5"/>
     <use xlink:href="#m4fbc909f47" x="175.523656" y="13.505063" style="fill: #1f77b4; fill-opacity: 0.5; stroke: #1f77b4; stroke-opacity: 0.5"/>
     <use xlink:href="#m4fbc909f47" x="180.37583" y="12.832579" style="fill: #1f77b4; fill-opacity: 0.5; stroke: #1f77b4; stroke-opacity: 0.5"/>
     <use xlink:href="#m4fbc909f47" x="192.506265" y="13.344386" style="fill: #1f77b4; fill-opacity: 0.5; stroke: #1f77b4; stroke-opacity: 0.5"/>
     <use xlink:href="#m4fbc909f47" x="202.210613" y="13.269292" style="fill: #1f77b4; fill-opacity: 0.5; stroke: #1f77b4; stroke-opacity: 0.5"/>
     <use xlink:href="#m4fbc909f47" x="205.607135" y="18.419492" style="fill: #1f77b4; fill-opacity: 0.5; stroke: #1f77b4; stroke-opacity: 0.5"/>
     <use xlink:href="#m4fbc909f47" x="212.885395" y="15.171253" style="fill: #1f77b4; fill-opacity: 0.5; stroke: #1f77b4; stroke-opacity: 0.5"/>
     <use xlink:href="#m4fbc909f47" x="216.767135" y="15.099909" style="fill: #1f77b4; fill-opacity: 0.5; stroke: #1f77b4; stroke-opacity: 0.5"/>
     <use xlink:href="#m4fbc909f47" x="221.134091" y="12.679332" style="fill: #1f77b4; fill-opacity: 0.5; stroke: #1f77b4; stroke-opacity: 0.5"/>
     <use xlink:href="#m4fbc909f47" x="231.808874" y="20.138519" style="fill: #1f77b4; fill-opacity: 0.5; stroke: #1f77b4; stroke-opacity: 0.5"/>
     <use xlink:href="#m4fbc909f47" x="233.264526" y="12.647306" style="fill: #1f77b4; fill-opacity: 0.5; stroke: #1f77b4; stroke-opacity: 0.5"/>
     <use xlink:href="#m4fbc909f47" x="241.998439" y="15.957711" style="fill: #1f77b4; fill-opacity: 0.5; stroke: #1f77b4; stroke-opacity: 0.5"/>
     <use xlink:href="#m4fbc909f47" x="243.454091" y="13.449867" style="fill: #1f77b4; fill-opacity: 0.5; stroke: #1f77b4; stroke-opacity: 0.5"/>
     <use xlink:href="#m4fbc909f47" x="255.584526" y="16.867236" style="fill: #1f77b4; fill-opacity: 0.5; stroke: #1f77b4; stroke-opacity: 0.5"/>
     <use xlink:href="#m4fbc909f47" x="256.069743" y="12.597593" style="fill: #1f77b4; fill-opacity: 0.5; stroke: #1f77b4; stroke-opacity: 0.5"/>
     <use xlink:href="#m4fbc909f47" x="264.803656" y="16.290993" style="fill: #1f77b4; fill-opacity: 0.5; stroke: #1f77b4; stroke-opacity: 0.5"/>
     <use xlink:href="#m4fbc909f47" x="266.259308" y="19.209927" style="fill: #1f77b4; fill-opacity: 0.5; stroke: #1f77b4; stroke-opacity: 0.5"/>
     <use xlink:href="#m4fbc909f47" x="270.141048" y="12.572194" style="fill: #1f77b4; fill-opacity: 0.5; stroke: #1f77b4; stroke-opacity: 0.5"/>
     <use xlink:href="#m4fbc909f47" x="277.419308" y="13.260025" style="fill: #1f77b4; fill-opacity: 0.5; stroke: #1f77b4; stroke-opacity: 0.5"/>
     <use xlink:href="#m4fbc909f47" x="283.727135" y="14.931871" style="fill: #1f77b4; fill-opacity: 0.5; stroke: #1f77b4; stroke-opacity: 0.5"/>
     <use xlink:href="#m4fbc909f47" x="289.549743" y="14.532412" style="fill: #1f77b4; fill-opacity: 0.5; stroke: #1f77b4; stroke-opacity: 0.5"/>
     <use xlink:href="#m4fbc909f47" x="290.034961" y="18.168817" style="fill: #1f77b4; fill-opacity: 0.5; stroke: #1f77b4; stroke-opacity: 0.5"/>
     <use xlink:href="#m4fbc909f47" x="294.401917" y="14.160254" style="fill: #1f77b4; fill-opacity: 0.5; stroke: #1f77b4; stroke-opacity: 0.5"/>
     <use xlink:href="#m4fbc909f47" x="303.621048" y="15.026401" style="fill: #1f77b4; fill-opacity: 0.5; stroke: #1f77b4; stroke-opacity: 0.5"/>
     <use xlink:href="#m4fbc909f47" x="308.473221" y="13.744848" style="fill: #1f77b4; fill-opacity: 0.5; stroke: #1f77b4; stroke-opacity: 0.5"/>
     <use xlink:href="#m4fbc909f47" x="309.443656" y="17.101707" style="fill: #1f77b4; fill-opacity: 0.5; stroke: #1f77b4; stroke-opacity: 0.5"/>
     <use xlink:href="#m4fbc909f47" x="312.354961" y="16.139525" style="fill: #1f77b4; fill-opacity: 0.5; stroke: #1f77b4; stroke-opacity: 0.5"/>
     <use xlink:href="#m4fbc909f47" x="314.29583" y="12.510436" style="fill: #1f77b4; fill-opacity: 0.5; stroke: #1f77b4; stroke-opacity: 0.5"/>
     <use xlink:href="#m4fbc909f47" x="322.059308" y="13.666592" style="fill: #1f77b4; fill-opacity: 0.5; stroke: #1f77b4; stroke-opacity: 0.5"/>
     <use xlink:href="#m4fbc909f47" x="326.911482" y="13.068514" style="fill: #1f77b4; fill-opacity: 0.5; stroke: #1f77b4; stroke-opacity: 0.5"/>
     <use xlink:href="#m4fbc909f47" x="327.881917" y="15.060422" style="fill: #1f77b4; fill-opacity: 0.5; stroke: #1f77b4; stroke-opacity: 0.5"/>
     <use xlink:href="#m4fbc909f47" x="329.822787" y="13.342379" style="fill: #1f77b4; fill-opacity: 0.5; stroke: #1f77b4; stroke-opacity: 0.5"/>
     <use xlink:href="#m4fbc909f47" x="337.101048" y="12.761787" style="fill: #1f77b4; fill-opacity: 0.5; stroke: #1f77b4; stroke-opacity: 0.5"/>
     <use xlink:href="#m4fbc909f47" x="337.586265" y="13.586393" style="fill: #1f77b4; fill-opacity: 0.5; stroke: #1f77b4; stroke-opacity: 0.5"/>
     <use xlink:href="#m4fbc909f47" x="341.953221" y="13.294417" style="fill: #1f77b4; fill-opacity: 0.5; stroke: #1f77b4; stroke-opacity: 0.5"/>
     <use xlink:href="#m4fbc909f47" x="342.923656" y="14.371041" style="fill: #1f77b4; fill-opacity: 0.5; stroke: #1f77b4; stroke-opacity: 0.5"/>
     <use xlink:href="#m4fbc909f47" x="344.864526" y="14.088282" style="fill: #1f77b4; fill-opacity: 0.5; stroke: #1f77b4; stroke-opacity: 0.5"/>
     <use xlink:href="#m4fbc909f47" x="353.598439" y="12.731258" style="fill: #1f77b4; fill-opacity: 0.5; stroke: #1f77b4; stroke-opacity: 0.5"/>
     <use xlink:href="#m4fbc909f47" x="356.994961" y="16.58728" style="fill: #1f77b4; fill-opacity: 0.5; stroke: #1f77b4; stroke-opacity: 0.5"/>
     <use xlink:href="#m4fbc909f47" x="357.965395" y="14.0069" style="fill: #1f77b4; fill-opacity: 0.5; stroke: #1f77b4; stroke-opacity: 0.5"/>
     <use xlink:href="#m4fbc909f47" x="358.450613" y="12.722912" style="fill: #1f77b4; fill-opacity: 0.5; stroke: #1f77b4; stroke-opacity: 0.5"/>
     <use xlink:href="#m4fbc909f47" x="362.817569" y="12.463048" style="fill: #1f77b4; fill-opacity: 0.5; stroke: #1f77b4; stroke-opacity: 0.5"/>
     <use xlink:href="#m4fbc909f47" x="369.125395" y="12.705461" style="fill: #1f77b4; fill-opacity: 0.5; stroke: #1f77b4; stroke-opacity: 0.5"/>
     <use xlink:href="#m4fbc909f47" x="369.610613" y="18.88253" style="fill: #1f77b4; fill-opacity: 0.5; stroke: #1f77b4; stroke-opacity: 0.5"/>
     <use xlink:href="#m4fbc909f47" x="370.09583" y="13.690861" style="fill: #1f77b4; fill-opacity: 0.5; stroke: #1f77b4; stroke-opacity: 0.5"/>
     <use xlink:href="#m4fbc909f47" x="373.007135" y="12.699406" style="fill: #1f77b4; fill-opacity: 0.5; stroke: #1f77b4; stroke-opacity: 0.5"/>
    </g>
   </g>
   <g id="PolyCollection_1">
    <defs>
     <path id="m59ba3cf4b1" d="M 74.016178 -538.036637 
L 74.016178 -575.842026 
L 76.054091 -570.591095 
L 77.606787 -586.207693 
L 78.868352 -589.454639 
L 80.226961 -591.047838 
L 81.8767 -596.059267 
L 83.138265 -584.564149 
L 84.690961 -588.652956 
L 86.049569 -592.023787 
L 88.184526 -598.821866 
L 90.125395 -598.033407 
L 91.872178 -598.033407 
L 93.230787 -594.585491 
L 95.850961 -590.641996 
L 97.597743 -591.020607 
L 100.606091 -593.715141 
L 103.517395 -592.347674 
L 107.010961 -592.873186 
L 110.504526 -590.16587 
L 114.289221 -594.880929 
L 116.715308 -595.190427 
L 119.335482 -594.761321 
L 122.0527 -594.933992 
L 125.061048 -595.672193 
L 127.778265 -590.246155 
L 130.398439 -596.111405 
L 133.406787 -597.373151 
L 137.385569 -596.337841 
L 141.073221 -597.373916 
L 144.566787 -597.318351 
L 148.8367 -596.773265 
L 153.494787 -595.882026 
L 157.861743 -597.107701 
L 162.325743 -597.187572 
L 166.98383 -591.422495 
L 171.836004 -591.886285 
L 178.14383 -589.895805 
L 185.033917 -589.798358 
L 191.2447 -592.748071 
L 198.717048 -592.378005 
L 205.995308 -591.477405 
L 211.720874 -591.914941 
L 217.640526 -591.97954 
L 223.172004 -593.317437 
L 228.994613 -593.203615 
L 234.332004 -593.761493 
L 241.222091 -592.502673 
L 246.074265 -592.018175 
L 252.382091 -591.101794 
L 257.234265 -592.036723 
L 262.571656 -592.620002 
L 266.938613 -593.393279 
L 272.470091 -592.399107 
L 277.419308 -592.638436 
L 282.174439 -591.994003 
L 287.026613 -591.091492 
L 292.266961 -590.207634 
L 297.216178 -590.764441 
L 301.194961 -590.553189 
L 305.658961 -589.905222 
L 309.637743 -591.122988 
L 313.325395 -591.548285 
L 317.013048 -591.883406 
L 320.7007 -591.248415 
L 324.194265 -590.741382 
L 328.755308 -590.566132 
L 331.8607 -590.579718 
L 334.869048 -590.482452 
L 337.877395 -590.061953 
L 340.885743 -590.016098 
L 344.185221 -590.042878 
L 348.066961 -591.098952 
L 351.269395 -590.79901 
L 354.374787 -591.486195 
L 357.965395 -592.101587 
L 361.070787 -592.114092 
L 363.593917 -593.625672 
L 366.020004 -593.704929 
L 368.931308 -593.715591 
L 368.931308 -582.829762 
L 368.931308 -582.829762 
L 366.020004 -582.831022 
L 363.593917 -582.783863 
L 361.070787 -585.213543 
L 357.965395 -585.215729 
L 354.374787 -585.181027 
L 351.269395 -585.20896 
L 348.066961 -585.194011 
L 344.185221 -587.450441 
L 340.885743 -587.46501 
L 337.877395 -587.717515 
L 334.869048 -587.021264 
L 331.8607 -587.014359 
L 328.755308 -586.995866 
L 324.194265 -586.921157 
L 320.7007 -585.295265 
L 317.013048 -583.84376 
L 313.325395 -583.908346 
L 309.637743 -583.789721 
L 305.658961 -584.347559 
L 301.194961 -582.887875 
L 297.216178 -583.704342 
L 292.266961 -583.78634 
L 287.026613 -583.609032 
L 282.174439 -583.341745 
L 277.419308 -582.280869 
L 272.470091 -581.816764 
L 266.938613 -581.756304 
L 262.571656 -581.086696 
L 257.234265 -581.318906 
L 252.382091 -583.554721 
L 246.074265 -584.095815 
L 241.222091 -580.594946 
L 234.332004 -581.011288 
L 228.994613 -580.909149 
L 223.172004 -581.10991 
L 217.640526 -580.138933 
L 211.720874 -582.951223 
L 205.995308 -583.122737 
L 198.717048 -583.129069 
L 191.2447 -583.425479 
L 185.033917 -588.597769 
L 178.14383 -588.646999 
L 171.836004 -585.341802 
L 166.98383 -585.127582 
L 162.325743 -574.095654 
L 157.861743 -574.115186 
L 153.494787 -574.242381 
L 148.8367 -574.362587 
L 144.566787 -568.466766 
L 141.073221 -573.018841 
L 137.385569 -573.184618 
L 133.406787 -573.083585 
L 130.398439 -572.785035 
L 127.778265 -583.517148 
L 125.061048 -573.109727 
L 122.0527 -573.071814 
L 119.335482 -573.138934 
L 116.715308 -573.298506 
L 114.289221 -573.290272 
L 110.504526 -583.497586 
L 107.010961 -578.67595 
L 103.517395 -575.010814 
L 100.606091 -568.265922 
L 97.597743 -567.093031 
L 95.850961 -567.317909 
L 93.230787 -556.00226 
L 91.872178 -555.382555 
L 90.125395 -555.382555 
L 88.184526 -555.926449 
L 86.049569 -555.55032 
L 84.690961 -563.135454 
L 83.138265 -565.371366 
L 81.8767 -544.354366 
L 80.226961 -543.21838 
L 78.868352 -540.624184 
L 77.606787 -539.919321 
L 76.054091 -546.507268 
L 74.016178 -538.036637 
z
" style="stroke: #1f77b4; stroke-opacity: 0.1"/>
    </defs>
    <g clip-path="url(#p70b1169759)">
     <use xlink:href="#m59ba3cf4b1" x="0" y="602.360937" style="fill: #1f77b4; fill-opacity: 0.1; stroke: #1f77b4; stroke-opacity: 0.1"/>
    </g>
   </g>
   <g id="matplotlib.axis_1">
    <g id="xtick_1">
     <g id="line2d_1">
      <defs>
       <path id="m88625c30a3" d="M 0 0 
L 0 3.5 
" style="stroke: #000000; stroke-width: 0.8"/>
      </defs>
      <g>
       <use xlink:href="#m88625c30a3" x="104.1967" y="172.092822" style="stroke: #000000; stroke-width: 0.8"/>
      </g>
     </g>
     <g id="text_1">
      <!-- 100 -->
      <g transform="translate(92.518731 189.113759)scale(0.14 -0.14)">
       <defs>
        <path id="ArialMT-31" d="M 2384 0 
L 1822 0 
L 1822 3584 
Q 1619 3391 1289 3197 
Q 959 3003 697 2906 
L 697 3450 
Q 1169 3672 1522 3987 
Q 1875 4303 2022 4600 
L 2384 4600 
L 2384 0 
z
" transform="scale(0.015625)"/>
        <path id="ArialMT-30" d="M 266 2259 
Q 266 3072 433 3567 
Q 600 4063 929 4331 
Q 1259 4600 1759 4600 
Q 2128 4600 2406 4451 
Q 2684 4303 2865 4023 
Q 3047 3744 3150 3342 
Q 3253 2941 3253 2259 
Q 3253 1453 3087 958 
Q 2922 463 2592 192 
Q 2263 -78 1759 -78 
Q 1097 -78 719 397 
Q 266 969 266 2259 
z
M 844 2259 
Q 844 1131 1108 757 
Q 1372 384 1759 384 
Q 2147 384 2411 759 
Q 2675 1134 2675 2259 
Q 2675 3391 2411 3762 
Q 2147 4134 1753 4134 
Q 1366 4134 1134 3806 
Q 844 3388 844 2259 
z
" transform="scale(0.015625)"/>
       </defs>
       <use xlink:href="#ArialMT-31"/>
       <use xlink:href="#ArialMT-30" x="55.615234"/>
       <use xlink:href="#ArialMT-30" x="111.230469"/>
      </g>
     </g>
    </g>
    <g id="xtick_2">
     <g id="line2d_2">
      <g>
       <use xlink:href="#m88625c30a3" x="152.718439" y="172.092822" style="stroke: #000000; stroke-width: 0.8"/>
      </g>
     </g>
     <g id="text_2">
      <!-- 200 -->
      <g transform="translate(141.04047 189.113759)scale(0.14 -0.14)">
       <defs>
        <path id="ArialMT-32" d="M 3222 541 
L 3222 0 
L 194 0 
Q 188 203 259 391 
Q 375 700 629 1000 
Q 884 1300 1366 1694 
Q 2113 2306 2375 2664 
Q 2638 3022 2638 3341 
Q 2638 3675 2398 3904 
Q 2159 4134 1775 4134 
Q 1369 4134 1125 3890 
Q 881 3647 878 3216 
L 300 3275 
Q 359 3922 746 4261 
Q 1134 4600 1788 4600 
Q 2447 4600 2831 4234 
Q 3216 3869 3216 3328 
Q 3216 3053 3103 2787 
Q 2991 2522 2730 2228 
Q 2469 1934 1863 1422 
Q 1356 997 1212 845 
Q 1069 694 975 541 
L 3222 541 
z
" transform="scale(0.015625)"/>
       </defs>
       <use xlink:href="#ArialMT-32"/>
       <use xlink:href="#ArialMT-30" x="55.615234"/>
       <use xlink:href="#ArialMT-30" x="111.230469"/>
      </g>
     </g>
    </g>
    <g id="xtick_3">
     <g id="line2d_3">
      <g>
       <use xlink:href="#m88625c30a3" x="201.240178" y="172.092822" style="stroke: #000000; stroke-width: 0.8"/>
      </g>
     </g>
     <g id="text_3">
      <!-- 300 -->
      <g transform="translate(189.562209 189.113759)scale(0.14 -0.14)">
       <defs>
        <path id="ArialMT-33" d="M 269 1209 
L 831 1284 
Q 928 806 1161 595 
Q 1394 384 1728 384 
Q 2125 384 2398 659 
Q 2672 934 2672 1341 
Q 2672 1728 2419 1979 
Q 2166 2231 1775 2231 
Q 1616 2231 1378 2169 
L 1441 2663 
Q 1497 2656 1531 2656 
Q 1891 2656 2178 2843 
Q 2466 3031 2466 3422 
Q 2466 3731 2256 3934 
Q 2047 4138 1716 4138 
Q 1388 4138 1169 3931 
Q 950 3725 888 3313 
L 325 3413 
Q 428 3978 793 4289 
Q 1159 4600 1703 4600 
Q 2078 4600 2393 4439 
Q 2709 4278 2876 4000 
Q 3044 3722 3044 3409 
Q 3044 3113 2884 2869 
Q 2725 2625 2413 2481 
Q 2819 2388 3044 2092 
Q 3269 1797 3269 1353 
Q 3269 753 2831 336 
Q 2394 -81 1725 -81 
Q 1122 -81 723 278 
Q 325 638 269 1209 
z
" transform="scale(0.015625)"/>
       </defs>
       <use xlink:href="#ArialMT-33"/>
       <use xlink:href="#ArialMT-30" x="55.615234"/>
       <use xlink:href="#ArialMT-30" x="111.230469"/>
      </g>
     </g>
    </g>
    <g id="xtick_4">
     <g id="line2d_4">
      <g>
       <use xlink:href="#m88625c30a3" x="249.761917" y="172.092822" style="stroke: #000000; stroke-width: 0.8"/>
      </g>
     </g>
     <g id="text_4">
      <!-- 400 -->
      <g transform="translate(238.083948 189.113759)scale(0.14 -0.14)">
       <defs>
        <path id="ArialMT-34" d="M 2069 0 
L 2069 1097 
L 81 1097 
L 81 1613 
L 2172 4581 
L 2631 4581 
L 2631 1613 
L 3250 1613 
L 3250 1097 
L 2631 1097 
L 2631 0 
L 2069 0 
z
M 2069 1613 
L 2069 3678 
L 634 1613 
L 2069 1613 
z
" transform="scale(0.015625)"/>
       </defs>
       <use xlink:href="#ArialMT-34"/>
       <use xlink:href="#ArialMT-30" x="55.615234"/>
       <use xlink:href="#ArialMT-30" x="111.230469"/>
      </g>
     </g>
    </g>
    <g id="xtick_5">
     <g id="line2d_5">
      <g>
       <use xlink:href="#m88625c30a3" x="298.283656" y="172.092822" style="stroke: #000000; stroke-width: 0.8"/>
      </g>
     </g>
     <g id="text_5">
      <!-- 500 -->
      <g transform="translate(286.605687 189.113759)scale(0.14 -0.14)">
       <defs>
        <path id="ArialMT-35" d="M 266 1200 
L 856 1250 
Q 922 819 1161 601 
Q 1400 384 1738 384 
Q 2144 384 2425 690 
Q 2706 997 2706 1503 
Q 2706 1984 2436 2262 
Q 2166 2541 1728 2541 
Q 1456 2541 1237 2417 
Q 1019 2294 894 2097 
L 366 2166 
L 809 4519 
L 3088 4519 
L 3088 3981 
L 1259 3981 
L 1013 2750 
Q 1425 3038 1878 3038 
Q 2478 3038 2890 2622 
Q 3303 2206 3303 1553 
Q 3303 931 2941 478 
Q 2500 -78 1738 -78 
Q 1113 -78 717 272 
Q 322 622 266 1200 
z
" transform="scale(0.015625)"/>
       </defs>
       <use xlink:href="#ArialMT-35"/>
       <use xlink:href="#ArialMT-30" x="55.615234"/>
       <use xlink:href="#ArialMT-30" x="111.230469"/>
      </g>
     </g>
    </g>
   </g>
   <g id="matplotlib.axis_2">
    <g id="ytick_1">
     <g id="line2d_6">
      <defs>
       <path id="md1a38b5ce3" d="M 0 0 
L -3.5 0 
" style="stroke: #000000; stroke-width: 0.8"/>
      </defs>
      <g>
       <use xlink:href="#md1a38b5ce3" x="75.083656" y="12.210469" style="stroke: #000000; stroke-width: 0.8"/>
      </g>
     </g>
     <g id="text_6">
      <!-- 0 -->
      <g transform="translate(60.298344 17.220937)scale(0.14 -0.14)">
       <use xlink:href="#ArialMT-30"/>
      </g>
     </g>
    </g>
    <g id="ytick_2">
     <g id="line2d_7">
      <g>
       <use xlink:href="#md1a38b5ce3" x="75.083656" y="44.186939" style="stroke: #000000; stroke-width: 0.8"/>
      </g>
     </g>
     <g id="text_7">
      <!-- 20 -->
      <g transform="translate(52.513031 49.197408)scale(0.14 -0.14)">
       <use xlink:href="#ArialMT-32"/>
       <use xlink:href="#ArialMT-30" x="55.615234"/>
      </g>
     </g>
    </g>
    <g id="ytick_3">
     <g id="line2d_8">
      <g>
       <use xlink:href="#md1a38b5ce3" x="75.083656" y="76.16341" style="stroke: #000000; stroke-width: 0.8"/>
      </g>
     </g>
     <g id="text_8">
      <!-- 40 -->
      <g transform="translate(52.513031 81.173879)scale(0.14 -0.14)">
       <use xlink:href="#ArialMT-34"/>
       <use xlink:href="#ArialMT-30" x="55.615234"/>
      </g>
     </g>
    </g>
    <g id="ytick_4">
     <g id="line2d_9">
      <g>
       <use xlink:href="#md1a38b5ce3" x="75.083656" y="108.139881" style="stroke: #000000; stroke-width: 0.8"/>
      </g>
     </g>
     <g id="text_9">
      <!-- 60 -->
      <g transform="translate(52.513031 113.150349)scale(0.14 -0.14)">
       <defs>
        <path id="ArialMT-36" d="M 3184 3459 
L 2625 3416 
Q 2550 3747 2413 3897 
Q 2184 4138 1850 4138 
Q 1581 4138 1378 3988 
Q 1113 3794 959 3422 
Q 806 3050 800 2363 
Q 1003 2672 1297 2822 
Q 1591 2972 1913 2972 
Q 2475 2972 2870 2558 
Q 3266 2144 3266 1488 
Q 3266 1056 3080 686 
Q 2894 316 2569 119 
Q 2244 -78 1831 -78 
Q 1128 -78 684 439 
Q 241 956 241 2144 
Q 241 3472 731 4075 
Q 1159 4600 1884 4600 
Q 2425 4600 2770 4297 
Q 3116 3994 3184 3459 
z
M 888 1484 
Q 888 1194 1011 928 
Q 1134 663 1356 523 
Q 1578 384 1822 384 
Q 2178 384 2434 671 
Q 2691 959 2691 1453 
Q 2691 1928 2437 2201 
Q 2184 2475 1800 2475 
Q 1419 2475 1153 2201 
Q 888 1928 888 1484 
z
" transform="scale(0.015625)"/>
       </defs>
       <use xlink:href="#ArialMT-36"/>
       <use xlink:href="#ArialMT-30" x="55.615234"/>
      </g>
     </g>
    </g>
    <g id="ytick_5">
     <g id="line2d_10">
      <g>
       <use xlink:href="#md1a38b5ce3" x="75.083656" y="140.116351" style="stroke: #000000; stroke-width: 0.8"/>
      </g>
     </g>
     <g id="text_10">
      <!-- 80 -->
      <g transform="translate(52.513031 145.12682)scale(0.14 -0.14)">
       <defs>
        <path id="ArialMT-38" d="M 1131 2484 
Q 781 2613 612 2850 
Q 444 3088 444 3419 
Q 444 3919 803 4259 
Q 1163 4600 1759 4600 
Q 2359 4600 2725 4251 
Q 3091 3903 3091 3403 
Q 3091 3084 2923 2848 
Q 2756 2613 2416 2484 
Q 2838 2347 3058 2040 
Q 3278 1734 3278 1309 
Q 3278 722 2862 322 
Q 2447 -78 1769 -78 
Q 1091 -78 675 323 
Q 259 725 259 1325 
Q 259 1772 486 2073 
Q 713 2375 1131 2484 
z
M 1019 3438 
Q 1019 3113 1228 2906 
Q 1438 2700 1772 2700 
Q 2097 2700 2305 2904 
Q 2513 3109 2513 3406 
Q 2513 3716 2298 3927 
Q 2084 4138 1766 4138 
Q 1444 4138 1231 3931 
Q 1019 3725 1019 3438 
z
M 838 1322 
Q 838 1081 952 856 
Q 1066 631 1291 507 
Q 1516 384 1775 384 
Q 2178 384 2440 643 
Q 2703 903 2703 1303 
Q 2703 1709 2433 1975 
Q 2163 2241 1756 2241 
Q 1359 2241 1098 1978 
Q 838 1716 838 1322 
z
" transform="scale(0.015625)"/>
       </defs>
       <use xlink:href="#ArialMT-38"/>
       <use xlink:href="#ArialMT-30" x="55.615234"/>
      </g>
     </g>
    </g>
    <g id="ytick_6">
     <g id="line2d_11">
      <g>
       <use xlink:href="#md1a38b5ce3" x="75.083656" y="172.092822" style="stroke: #000000; stroke-width: 0.8"/>
      </g>
     </g>
     <g id="text_11">
      <!-- 100 -->
      <g transform="translate(44.727719 177.10329)scale(0.14 -0.14)">
       <use xlink:href="#ArialMT-31"/>
       <use xlink:href="#ArialMT-30" x="55.615234"/>
       <use xlink:href="#ArialMT-30" x="111.230469"/>
      </g>
     </g>
    </g>
    <g id="text_12">
     <!-- Phox2b -->
     <g transform="translate(19.368281 120.978598)rotate(-90)scale(0.17 -0.17)">
      <defs>
       <path id="ArialMT-50" d="M 494 0 
L 494 4581 
L 2222 4581 
Q 2678 4581 2919 4538 
Q 3256 4481 3484 4323 
Q 3713 4166 3852 3881 
Q 3991 3597 3991 3256 
Q 3991 2672 3619 2267 
Q 3247 1863 2275 1863 
L 1100 1863 
L 1100 0 
L 494 0 
z
M 1100 2403 
L 2284 2403 
Q 2872 2403 3119 2622 
Q 3366 2841 3366 3238 
Q 3366 3525 3220 3729 
Q 3075 3934 2838 4000 
Q 2684 4041 2272 4041 
L 1100 4041 
L 1100 2403 
z
" transform="scale(0.015625)"/>
       <path id="ArialMT-68" d="M 422 0 
L 422 4581 
L 984 4581 
L 984 2938 
Q 1378 3394 1978 3394 
Q 2347 3394 2619 3248 
Q 2891 3103 3008 2847 
Q 3125 2591 3125 2103 
L 3125 0 
L 2563 0 
L 2563 2103 
Q 2563 2525 2380 2717 
Q 2197 2909 1863 2909 
Q 1613 2909 1392 2779 
Q 1172 2650 1078 2428 
Q 984 2206 984 1816 
L 984 0 
L 422 0 
z
" transform="scale(0.015625)"/>
       <path id="ArialMT-6f" d="M 213 1659 
Q 213 2581 725 3025 
Q 1153 3394 1769 3394 
Q 2453 3394 2887 2945 
Q 3322 2497 3322 1706 
Q 3322 1066 3130 698 
Q 2938 331 2570 128 
Q 2203 -75 1769 -75 
Q 1072 -75 642 372 
Q 213 819 213 1659 
z
M 791 1659 
Q 791 1022 1069 705 
Q 1347 388 1769 388 
Q 2188 388 2466 706 
Q 2744 1025 2744 1678 
Q 2744 2294 2464 2611 
Q 2184 2928 1769 2928 
Q 1347 2928 1069 2612 
Q 791 2297 791 1659 
z
" transform="scale(0.015625)"/>
       <path id="ArialMT-78" d="M 47 0 
L 1259 1725 
L 138 3319 
L 841 3319 
L 1350 2541 
Q 1494 2319 1581 2169 
Q 1719 2375 1834 2534 
L 2394 3319 
L 3066 3319 
L 1919 1756 
L 3153 0 
L 2463 0 
L 1781 1031 
L 1600 1309 
L 728 0 
L 47 0 
z
" transform="scale(0.015625)"/>
       <path id="ArialMT-62" d="M 941 0 
L 419 0 
L 419 4581 
L 981 4581 
L 981 2947 
Q 1338 3394 1891 3394 
Q 2197 3394 2470 3270 
Q 2744 3147 2920 2923 
Q 3097 2700 3197 2384 
Q 3297 2069 3297 1709 
Q 3297 856 2875 390 
Q 2453 -75 1863 -75 
Q 1275 -75 941 416 
L 941 0 
z
M 934 1684 
Q 934 1088 1097 822 
Q 1363 388 1816 388 
Q 2184 388 2453 708 
Q 2722 1028 2722 1663 
Q 2722 2313 2464 2622 
Q 2206 2931 1841 2931 
Q 1472 2931 1203 2611 
Q 934 2291 934 1684 
z
" transform="scale(0.015625)"/>
      </defs>
      <use xlink:href="#ArialMT-50"/>
      <use xlink:href="#ArialMT-68" x="66.699219"/>
      <use xlink:href="#ArialMT-6f" x="122.314453"/>
      <use xlink:href="#ArialMT-78" x="177.929688"/>
      <use xlink:href="#ArialMT-32" x="227.929688"/>
      <use xlink:href="#ArialMT-62" x="283.544922"/>
     </g>
     <!-- Rank Quantile -->
     <g transform="translate(37.348969 146.012426)rotate(-90)scale(0.17 -0.17)">
      <defs>
       <path id="ArialMT-52" d="M 503 0 
L 503 4581 
L 2534 4581 
Q 3147 4581 3465 4457 
Q 3784 4334 3975 4021 
Q 4166 3709 4166 3331 
Q 4166 2844 3850 2509 
Q 3534 2175 2875 2084 
Q 3116 1969 3241 1856 
Q 3506 1613 3744 1247 
L 4541 0 
L 3778 0 
L 3172 953 
Q 2906 1366 2734 1584 
Q 2563 1803 2427 1890 
Q 2291 1978 2150 2013 
Q 2047 2034 1813 2034 
L 1109 2034 
L 1109 0 
L 503 0 
z
M 1109 2559 
L 2413 2559 
Q 2828 2559 3062 2645 
Q 3297 2731 3419 2920 
Q 3541 3109 3541 3331 
Q 3541 3656 3305 3865 
Q 3069 4075 2559 4075 
L 1109 4075 
L 1109 2559 
z
" transform="scale(0.015625)"/>
       <path id="ArialMT-61" d="M 2588 409 
Q 2275 144 1986 34 
Q 1697 -75 1366 -75 
Q 819 -75 525 192 
Q 231 459 231 875 
Q 231 1119 342 1320 
Q 453 1522 633 1644 
Q 813 1766 1038 1828 
Q 1203 1872 1538 1913 
Q 2219 1994 2541 2106 
Q 2544 2222 2544 2253 
Q 2544 2597 2384 2738 
Q 2169 2928 1744 2928 
Q 1347 2928 1158 2789 
Q 969 2650 878 2297 
L 328 2372 
Q 403 2725 575 2942 
Q 747 3159 1072 3276 
Q 1397 3394 1825 3394 
Q 2250 3394 2515 3294 
Q 2781 3194 2906 3042 
Q 3031 2891 3081 2659 
Q 3109 2516 3109 2141 
L 3109 1391 
Q 3109 606 3145 398 
Q 3181 191 3288 0 
L 2700 0 
Q 2613 175 2588 409 
z
M 2541 1666 
Q 2234 1541 1622 1453 
Q 1275 1403 1131 1340 
Q 988 1278 909 1158 
Q 831 1038 831 891 
Q 831 666 1001 516 
Q 1172 366 1500 366 
Q 1825 366 2078 508 
Q 2331 650 2450 897 
Q 2541 1088 2541 1459 
L 2541 1666 
z
" transform="scale(0.015625)"/>
       <path id="ArialMT-6e" d="M 422 0 
L 422 3319 
L 928 3319 
L 928 2847 
Q 1294 3394 1984 3394 
Q 2284 3394 2536 3286 
Q 2788 3178 2913 3003 
Q 3038 2828 3088 2588 
Q 3119 2431 3119 2041 
L 3119 0 
L 2556 0 
L 2556 2019 
Q 2556 2363 2490 2533 
Q 2425 2703 2258 2804 
Q 2091 2906 1866 2906 
Q 1506 2906 1245 2678 
Q 984 2450 984 1813 
L 984 0 
L 422 0 
z
" transform="scale(0.015625)"/>
       <path id="ArialMT-6b" d="M 425 0 
L 425 4581 
L 988 4581 
L 988 1969 
L 2319 3319 
L 3047 3319 
L 1778 2088 
L 3175 0 
L 2481 0 
L 1384 1697 
L 988 1316 
L 988 0 
L 425 0 
z
" transform="scale(0.015625)"/>
       <path id="ArialMT-20" transform="scale(0.015625)"/>
       <path id="ArialMT-51" d="M 3966 491 
Q 4388 200 4744 66 
L 4566 -356 
Q 4072 -178 3581 206 
Q 3072 -78 2456 -78 
Q 1834 -78 1328 222 
Q 822 522 548 1065 
Q 275 1609 275 2291 
Q 275 2969 550 3525 
Q 825 4081 1333 4372 
Q 1841 4663 2469 4663 
Q 3103 4663 3612 4361 
Q 4122 4059 4389 3517 
Q 4656 2975 4656 2294 
Q 4656 1728 4484 1276 
Q 4313 825 3966 491 
z
M 2631 1266 
Q 3156 1119 3497 828 
Q 4031 1316 4031 2294 
Q 4031 2850 3842 3265 
Q 3653 3681 3289 3911 
Q 2925 4141 2472 4141 
Q 1794 4141 1347 3677 
Q 900 3213 900 2291 
Q 900 1397 1342 919 
Q 1784 441 2472 441 
Q 2797 441 3084 563 
Q 2800 747 2484 825 
L 2631 1266 
z
" transform="scale(0.015625)"/>
       <path id="ArialMT-75" d="M 2597 0 
L 2597 488 
Q 2209 -75 1544 -75 
Q 1250 -75 995 37 
Q 741 150 617 320 
Q 494 491 444 738 
Q 409 903 409 1263 
L 409 3319 
L 972 3319 
L 972 1478 
Q 972 1038 1006 884 
Q 1059 663 1231 536 
Q 1403 409 1656 409 
Q 1909 409 2131 539 
Q 2353 669 2445 892 
Q 2538 1116 2538 1541 
L 2538 3319 
L 3100 3319 
L 3100 0 
L 2597 0 
z
" transform="scale(0.015625)"/>
       <path id="ArialMT-74" d="M 1650 503 
L 1731 6 
Q 1494 -44 1306 -44 
Q 1000 -44 831 53 
Q 663 150 594 308 
Q 525 466 525 972 
L 525 2881 
L 113 2881 
L 113 3319 
L 525 3319 
L 525 4141 
L 1084 4478 
L 1084 3319 
L 1650 3319 
L 1650 2881 
L 1084 2881 
L 1084 941 
Q 1084 700 1114 631 
Q 1144 563 1211 522 
Q 1278 481 1403 481 
Q 1497 481 1650 503 
z
" transform="scale(0.015625)"/>
       <path id="ArialMT-69" d="M 425 3934 
L 425 4581 
L 988 4581 
L 988 3934 
L 425 3934 
z
M 425 0 
L 425 3319 
L 988 3319 
L 988 0 
L 425 0 
z
" transform="scale(0.015625)"/>
       <path id="ArialMT-6c" d="M 409 0 
L 409 4581 
L 972 4581 
L 972 0 
L 409 0 
z
" transform="scale(0.015625)"/>
       <path id="ArialMT-65" d="M 2694 1069 
L 3275 997 
Q 3138 488 2766 206 
Q 2394 -75 1816 -75 
Q 1088 -75 661 373 
Q 234 822 234 1631 
Q 234 2469 665 2931 
Q 1097 3394 1784 3394 
Q 2450 3394 2872 2941 
Q 3294 2488 3294 1666 
Q 3294 1616 3291 1516 
L 816 1516 
Q 847 969 1125 678 
Q 1403 388 1819 388 
Q 2128 388 2347 550 
Q 2566 713 2694 1069 
z
M 847 1978 
L 2700 1978 
Q 2663 2397 2488 2606 
Q 2219 2931 1791 2931 
Q 1403 2931 1139 2672 
Q 875 2413 847 1978 
z
" transform="scale(0.015625)"/>
      </defs>
      <use xlink:href="#ArialMT-52"/>
      <use xlink:href="#ArialMT-61" x="72.216797"/>
      <use xlink:href="#ArialMT-6e" x="127.832031"/>
      <use xlink:href="#ArialMT-6b" x="183.447266"/>
      <use xlink:href="#ArialMT-20" x="233.447266"/>
      <use xlink:href="#ArialMT-51" x="261.230469"/>
      <use xlink:href="#ArialMT-75" x="339.013672"/>
      <use xlink:href="#ArialMT-61" x="394.628906"/>
      <use xlink:href="#ArialMT-6e" x="450.244141"/>
      <use xlink:href="#ArialMT-74" x="505.859375"/>
      <use xlink:href="#ArialMT-69" x="533.642578"/>
      <use xlink:href="#ArialMT-6c" x="555.859375"/>
      <use xlink:href="#ArialMT-65" x="578.076172"/>
     </g>
    </g>
   </g>
   <g id="patch_3">
    <path d="M 75.083656 172.092822 
L 75.083656 12.210469 
" style="fill: none; stroke: #000000; stroke-width: 0.8; stroke-linejoin: miter; stroke-linecap: square"/>
   </g>
   <g id="patch_4">
    <path d="M 298.283656 172.092822 
L 298.283656 12.210469 
" style="fill: none"/>
   </g>
   <g id="patch_5">
    <path d="M 75.083656 172.092822 
L 298.283656 172.092822 
" style="fill: none; stroke: #000000; stroke-width: 0.8; stroke-linejoin: miter; stroke-linecap: square"/>
   </g>
   <g id="patch_6">
    <path d="M 75.083656 12.210469 
L 298.283656 12.210469 
" style="fill: none"/>
   </g>
  </g>
  <g id="axes_2">
   <g id="patch_7">
    <path d="M 75.083656 363.951645 
L 298.283656 363.951645 
L 298.283656 204.069292 
L 75.083656 204.069292 
z
" style="fill: #ffffff"/>
   </g>
   <g id="PathCollection_2">
    <g clip-path="url(#p60fadc847e)">
     <use xlink:href="#m4fbc909f47" x="57.130613" y="363.951645" style="fill: #1f77b4; fill-opacity: 0.5; stroke: #1f77b4; stroke-opacity: 0.5"/>
     <use xlink:href="#m4fbc909f47" x="58.586265" y="363.951645" style="fill: #1f77b4; fill-opacity: 0.5; stroke: #1f77b4; stroke-opacity: 0.5"/>
     <use xlink:href="#m4fbc909f47" x="59.5567" y="363.951645" style="fill: #1f77b4; fill-opacity: 0.5; stroke: #1f77b4; stroke-opacity: 0.5"/>
     <use xlink:href="#m4fbc909f47" x="61.497569" y="217.392822" style="fill: #1f77b4; fill-opacity: 0.5; stroke: #1f77b4; stroke-opacity: 0.5"/>
     <use xlink:href="#m4fbc909f47" x="62.953221" y="214.728116" style="fill: #1f77b4; fill-opacity: 0.5; stroke: #1f77b4; stroke-opacity: 0.5"/>
     <use xlink:href="#m4fbc909f47" x="62.953221" y="214.728116" style="fill: #1f77b4; fill-opacity: 0.5; stroke: #1f77b4; stroke-opacity: 0.5"/>
     <use xlink:href="#m4fbc909f47" x="63.438439" y="224.054586" style="fill: #1f77b4; fill-opacity: 0.5; stroke: #1f77b4; stroke-opacity: 0.5"/>
     <use xlink:href="#m4fbc909f47" x="63.923656" y="213.474137" style="fill: #1f77b4; fill-opacity: 0.5; stroke: #1f77b4; stroke-opacity: 0.5"/>
     <use xlink:href="#m4fbc909f47" x="64.408874" y="221.833998" style="fill: #1f77b4; fill-opacity: 0.5; stroke: #1f77b4; stroke-opacity: 0.5"/>
     <use xlink:href="#m4fbc909f47" x="64.894091" y="220.899014" style="fill: #1f77b4; fill-opacity: 0.5; stroke: #1f77b4; stroke-opacity: 0.5"/>
     <use xlink:href="#m4fbc909f47" x="64.894091" y="212.484153" style="fill: #1f77b4; fill-opacity: 0.5; stroke: #1f77b4; stroke-opacity: 0.5"/>
     <use xlink:href="#m4fbc909f47" x="66.349743" y="211.336672" style="fill: #1f77b4; fill-opacity: 0.5; stroke: #1f77b4; stroke-opacity: 0.5"/>
     <use xlink:href="#m4fbc909f47" x="66.834961" y="224.923512" style="fill: #1f77b4; fill-opacity: 0.5; stroke: #1f77b4; stroke-opacity: 0.5"/>
     <use xlink:href="#m4fbc909f47" x="67.320178" y="217.392822" style="fill: #1f77b4; fill-opacity: 0.5; stroke: #1f77b4; stroke-opacity: 0.5"/>
     <use xlink:href="#m4fbc909f47" x="68.77583" y="215.91243" style="fill: #1f77b4; fill-opacity: 0.5; stroke: #1f77b4; stroke-opacity: 0.5"/>
     <use xlink:href="#m4fbc909f47" x="69.261048" y="209.779376" style="fill: #1f77b4; fill-opacity: 0.5; stroke: #1f77b4; stroke-opacity: 0.5"/>
     <use xlink:href="#m4fbc909f47" x="69.746265" y="215.095661" style="fill: #1f77b4; fill-opacity: 0.5; stroke: #1f77b4; stroke-opacity: 0.5"/>
     <use xlink:href="#m4fbc909f47" x="69.746265" y="209.582477" style="fill: #1f77b4; fill-opacity: 0.5; stroke: #1f77b4; stroke-opacity: 0.5"/>
     <use xlink:href="#m4fbc909f47" x="72.657569" y="208.63736" style="fill: #1f77b4; fill-opacity: 0.5; stroke: #1f77b4; stroke-opacity: 0.5"/>
     <use xlink:href="#m4fbc909f47" x="75.083656" y="208.066351" style="fill: #1f77b4; fill-opacity: 0.5; stroke: #1f77b4; stroke-opacity: 0.5"/>
     <use xlink:href="#m4fbc909f47" x="76.054091" y="207.876015" style="fill: #1f77b4; fill-opacity: 0.5; stroke: #1f77b4; stroke-opacity: 0.5"/>
     <use xlink:href="#m4fbc909f47" x="76.539308" y="207.787487" style="fill: #1f77b4; fill-opacity: 0.5; stroke: #1f77b4; stroke-opacity: 0.5"/>
     <use xlink:href="#m4fbc909f47" x="79.93583" y="207.266939" style="fill: #1f77b4; fill-opacity: 0.5; stroke: #1f77b4; stroke-opacity: 0.5"/>
     <use xlink:href="#m4fbc909f47" x="80.421048" y="207.20424" style="fill: #1f77b4; fill-opacity: 0.5; stroke: #1f77b4; stroke-opacity: 0.5"/>
     <use xlink:href="#m4fbc909f47" x="81.391482" y="207.08594" style="fill: #1f77b4; fill-opacity: 0.5; stroke: #1f77b4; stroke-opacity: 0.5"/>
     <use xlink:href="#m4fbc909f47" x="82.847135" y="212.634418" style="fill: #1f77b4; fill-opacity: 0.5; stroke: #1f77b4; stroke-opacity: 0.5"/>
     <use xlink:href="#m4fbc909f47" x="84.788004" y="209.398704" style="fill: #1f77b4; fill-opacity: 0.5; stroke: #1f77b4; stroke-opacity: 0.5"/>
     <use xlink:href="#m4fbc909f47" x="86.243656" y="206.607107" style="fill: #1f77b4; fill-opacity: 0.5; stroke: #1f77b4; stroke-opacity: 0.5"/>
     <use xlink:href="#m4fbc909f47" x="88.184526" y="216.000811" style="fill: #1f77b4; fill-opacity: 0.5; stroke: #1f77b4; stroke-opacity: 0.5"/>
     <use xlink:href="#m4fbc909f47" x="88.184526" y="208.8419" style="fill: #1f77b4; fill-opacity: 0.5; stroke: #1f77b4; stroke-opacity: 0.5"/>
     <use xlink:href="#m4fbc909f47" x="93.521917" y="208.16884" style="fill: #1f77b4; fill-opacity: 0.5; stroke: #1f77b4; stroke-opacity: 0.5"/>
     <use xlink:href="#m4fbc909f47" x="94.492352" y="206.067822" style="fill: #1f77b4; fill-opacity: 0.5; stroke: #1f77b4; stroke-opacity: 0.5"/>
     <use xlink:href="#m4fbc909f47" x="94.977569" y="206.043148" style="fill: #1f77b4; fill-opacity: 0.5; stroke: #1f77b4; stroke-opacity: 0.5"/>
     <use xlink:href="#m4fbc909f47" x="94.977569" y="209.990861" style="fill: #1f77b4; fill-opacity: 0.5; stroke: #1f77b4; stroke-opacity: 0.5"/>
     <use xlink:href="#m4fbc909f47" x="101.285395" y="219.377177" style="fill: #1f77b4; fill-opacity: 0.5; stroke: #1f77b4; stroke-opacity: 0.5"/>
     <use xlink:href="#m4fbc909f47" x="102.25583" y="209.065616" style="fill: #1f77b4; fill-opacity: 0.5; stroke: #1f77b4; stroke-opacity: 0.5"/>
     <use xlink:href="#m4fbc909f47" x="109.534091" y="205.509674" style="fill: #1f77b4; fill-opacity: 0.5; stroke: #1f77b4; stroke-opacity: 0.5"/>
     <use xlink:href="#m4fbc909f47" x="109.534091" y="209.830819" style="fill: #1f77b4; fill-opacity: 0.5; stroke: #1f77b4; stroke-opacity: 0.5"/>
     <use xlink:href="#m4fbc909f47" x="112.445395" y="206.802324" style="fill: #1f77b4; fill-opacity: 0.5; stroke: #1f77b4; stroke-opacity: 0.5"/>
     <use xlink:href="#m4fbc909f47" x="118.753221" y="212.678342" style="fill: #1f77b4; fill-opacity: 0.5; stroke: #1f77b4; stroke-opacity: 0.5"/>
     <use xlink:href="#m4fbc909f47" x="121.179308" y="206.43792" style="fill: #1f77b4; fill-opacity: 0.5; stroke: #1f77b4; stroke-opacity: 0.5"/>
     <use xlink:href="#m4fbc909f47" x="121.664526" y="212.298531" style="fill: #1f77b4; fill-opacity: 0.5; stroke: #1f77b4; stroke-opacity: 0.5"/>
     <use xlink:href="#m4fbc909f47" x="122.634961" y="205.22786" style="fill: #1f77b4; fill-opacity: 0.5; stroke: #1f77b4; stroke-opacity: 0.5"/>
     <use xlink:href="#m4fbc909f47" x="126.031482" y="212.890388" style="fill: #1f77b4; fill-opacity: 0.5; stroke: #1f77b4; stroke-opacity: 0.5"/>
     <use xlink:href="#m4fbc909f47" x="133.794961" y="208.041525" style="fill: #1f77b4; fill-opacity: 0.5; stroke: #1f77b4; stroke-opacity: 0.5"/>
     <use xlink:href="#m4fbc909f47" x="134.765395" y="205.050166" style="fill: #1f77b4; fill-opacity: 0.5; stroke: #1f77b4; stroke-opacity: 0.5"/>
     <use xlink:href="#m4fbc909f47" x="134.765395" y="207.992786" style="fill: #1f77b4; fill-opacity: 0.5; stroke: #1f77b4; stroke-opacity: 0.5"/>
     <use xlink:href="#m4fbc909f47" x="137.6767" y="211.637688" style="fill: #1f77b4; fill-opacity: 0.5; stroke: #1f77b4; stroke-opacity: 0.5"/>
     <use xlink:href="#m4fbc909f47" x="145.925395" y="210.945953" style="fill: #1f77b4; fill-opacity: 0.5; stroke: #1f77b4; stroke-opacity: 0.5"/>
     <use xlink:href="#m4fbc909f47" x="152.233221" y="218.531013" style="fill: #1f77b4; fill-opacity: 0.5; stroke: #1f77b4; stroke-opacity: 0.5"/>
     <use xlink:href="#m4fbc909f47" x="152.233221" y="207.283008" style="fill: #1f77b4; fill-opacity: 0.5; stroke: #1f77b4; stroke-opacity: 0.5"/>
     <use xlink:href="#m4fbc909f47" x="156.114961" y="205.614049" style="fill: #1f77b4; fill-opacity: 0.5; stroke: #1f77b4; stroke-opacity: 0.5"/>
     <use xlink:href="#m4fbc909f47" x="160.967135" y="215.857853" style="fill: #1f77b4; fill-opacity: 0.5; stroke: #1f77b4; stroke-opacity: 0.5"/>
     <use xlink:href="#m4fbc909f47" x="167.760178" y="208.222081" style="fill: #1f77b4; fill-opacity: 0.5; stroke: #1f77b4; stroke-opacity: 0.5"/>
     <use xlink:href="#m4fbc909f47" x="174.553221" y="209.289941" style="fill: #1f77b4; fill-opacity: 0.5; stroke: #1f77b4; stroke-opacity: 0.5"/>
     <use xlink:href="#m4fbc909f47" x="175.523656" y="206.011183" style="fill: #1f77b4; fill-opacity: 0.5; stroke: #1f77b4; stroke-opacity: 0.5"/>
     <use xlink:href="#m4fbc909f47" x="180.37583" y="205.935623" style="fill: #1f77b4; fill-opacity: 0.5; stroke: #1f77b4; stroke-opacity: 0.5"/>
     <use xlink:href="#m4fbc909f47" x="192.506265" y="204.636251" style="fill: #1f77b4; fill-opacity: 0.5; stroke: #1f77b4; stroke-opacity: 0.5"/>
     <use xlink:href="#m4fbc909f47" x="202.210613" y="212.010469" style="fill: #1f77b4; fill-opacity: 0.5; stroke: #1f77b4; stroke-opacity: 0.5"/>
     <use xlink:href="#m4fbc909f47" x="205.607135" y="207.691223" style="fill: #1f77b4; fill-opacity: 0.5; stroke: #1f77b4; stroke-opacity: 0.5"/>
     <use xlink:href="#m4fbc909f47" x="212.885395" y="216.405894" style="fill: #1f77b4; fill-opacity: 0.5; stroke: #1f77b4; stroke-opacity: 0.5"/>
     <use xlink:href="#m4fbc909f47" x="216.767135" y="213.219186" style="fill: #1f77b4; fill-opacity: 0.5; stroke: #1f77b4; stroke-opacity: 0.5"/>
     <use xlink:href="#m4fbc909f47" x="221.134091" y="212.977693" style="fill: #1f77b4; fill-opacity: 0.5; stroke: #1f77b4; stroke-opacity: 0.5"/>
     <use xlink:href="#m4fbc909f47" x="231.808874" y="214.199579" style="fill: #1f77b4; fill-opacity: 0.5; stroke: #1f77b4; stroke-opacity: 0.5"/>
     <use xlink:href="#m4fbc909f47" x="233.264526" y="205.81664" style="fill: #1f77b4; fill-opacity: 0.5; stroke: #1f77b4; stroke-opacity: 0.5"/>
     <use xlink:href="#m4fbc909f47" x="241.998439" y="206.151094" style="fill: #1f77b4; fill-opacity: 0.5; stroke: #1f77b4; stroke-opacity: 0.5"/>
     <use xlink:href="#m4fbc909f47" x="243.454091" y="227.204723" style="fill: #1f77b4; fill-opacity: 0.5; stroke: #1f77b4; stroke-opacity: 0.5"/>
     <use xlink:href="#m4fbc909f47" x="255.584526" y="212.218636" style="fill: #1f77b4; fill-opacity: 0.5; stroke: #1f77b4; stroke-opacity: 0.5"/>
     <use xlink:href="#m4fbc909f47" x="256.069743" y="204.843541" style="fill: #1f77b4; fill-opacity: 0.5; stroke: #1f77b4; stroke-opacity: 0.5"/>
     <use xlink:href="#m4fbc909f47" x="264.803656" y="205.553119" style="fill: #1f77b4; fill-opacity: 0.5; stroke: #1f77b4; stroke-opacity: 0.5"/>
     <use xlink:href="#m4fbc909f47" x="266.259308" y="209.59518" style="fill: #1f77b4; fill-opacity: 0.5; stroke: #1f77b4; stroke-opacity: 0.5"/>
     <use xlink:href="#m4fbc909f47" x="270.141048" y="206.239641" style="fill: #1f77b4; fill-opacity: 0.5; stroke: #1f77b4; stroke-opacity: 0.5"/>
     <use xlink:href="#m4fbc909f47" x="277.419308" y="206.168404" style="fill: #1f77b4; fill-opacity: 0.5; stroke: #1f77b4; stroke-opacity: 0.5"/>
     <use xlink:href="#m4fbc909f47" x="283.727135" y="206.450519" style="fill: #1f77b4; fill-opacity: 0.5; stroke: #1f77b4; stroke-opacity: 0.5"/>
     <use xlink:href="#m4fbc909f47" x="289.549743" y="205.727823" style="fill: #1f77b4; fill-opacity: 0.5; stroke: #1f77b4; stroke-opacity: 0.5"/>
     <use xlink:href="#m4fbc909f47" x="290.034961" y="209.034583" style="fill: #1f77b4; fill-opacity: 0.5; stroke: #1f77b4; stroke-opacity: 0.5"/>
     <use xlink:href="#m4fbc909f47" x="294.401917" y="207.968862" style="fill: #1f77b4; fill-opacity: 0.5; stroke: #1f77b4; stroke-opacity: 0.5"/>
     <use xlink:href="#m4fbc909f47" x="303.621048" y="210.952681" style="fill: #1f77b4; fill-opacity: 0.5; stroke: #1f77b4; stroke-opacity: 0.5"/>
     <use xlink:href="#m4fbc909f47" x="308.473221" y="205.910548" style="fill: #1f77b4; fill-opacity: 0.5; stroke: #1f77b4; stroke-opacity: 0.5"/>
     <use xlink:href="#m4fbc909f47" x="309.443656" y="206.514911" style="fill: #1f77b4; fill-opacity: 0.5; stroke: #1f77b4; stroke-opacity: 0.5"/>
     <use xlink:href="#m4fbc909f47" x="312.354961" y="206.789408" style="fill: #1f77b4; fill-opacity: 0.5; stroke: #1f77b4; stroke-opacity: 0.5"/>
     <use xlink:href="#m4fbc909f47" x="314.29583" y="208.268829" style="fill: #1f77b4; fill-opacity: 0.5; stroke: #1f77b4; stroke-opacity: 0.5"/>
     <use xlink:href="#m4fbc909f47" x="322.059308" y="209.893786" style="fill: #1f77b4; fill-opacity: 0.5; stroke: #1f77b4; stroke-opacity: 0.5"/>
     <use xlink:href="#m4fbc909f47" x="326.911482" y="206.643427" style="fill: #1f77b4; fill-opacity: 0.5; stroke: #1f77b4; stroke-opacity: 0.5"/>
     <use xlink:href="#m4fbc909f47" x="327.881917" y="206.064259" style="fill: #1f77b4; fill-opacity: 0.5; stroke: #1f77b4; stroke-opacity: 0.5"/>
     <use xlink:href="#m4fbc909f47" x="329.822787" y="208.313957" style="fill: #1f77b4; fill-opacity: 0.5; stroke: #1f77b4; stroke-opacity: 0.5"/>
     <use xlink:href="#m4fbc909f47" x="337.101048" y="209.858136" style="fill: #1f77b4; fill-opacity: 0.5; stroke: #1f77b4; stroke-opacity: 0.5"/>
     <use xlink:href="#m4fbc909f47" x="337.586265" y="206.27077" style="fill: #1f77b4; fill-opacity: 0.5; stroke: #1f77b4; stroke-opacity: 0.5"/>
     <use xlink:href="#m4fbc909f47" x="341.953221" y="208.947059" style="fill: #1f77b4; fill-opacity: 0.5; stroke: #1f77b4; stroke-opacity: 0.5"/>
     <use xlink:href="#m4fbc909f47" x="342.923656" y="205.689722" style="fill: #1f77b4; fill-opacity: 0.5; stroke: #1f77b4; stroke-opacity: 0.5"/>
     <use xlink:href="#m4fbc909f47" x="344.864526" y="206.751882" style="fill: #1f77b4; fill-opacity: 0.5; stroke: #1f77b4; stroke-opacity: 0.5"/>
     <use xlink:href="#m4fbc909f47" x="353.598439" y="210.839555" style="fill: #1f77b4; fill-opacity: 0.5; stroke: #1f77b4; stroke-opacity: 0.5"/>
     <use xlink:href="#m4fbc909f47" x="356.994961" y="213.852753" style="fill: #1f77b4; fill-opacity: 0.5; stroke: #1f77b4; stroke-opacity: 0.5"/>
     <use xlink:href="#m4fbc909f47" x="357.965395" y="206.378989" style="fill: #1f77b4; fill-opacity: 0.5; stroke: #1f77b4; stroke-opacity: 0.5"/>
     <use xlink:href="#m4fbc909f47" x="358.450613" y="205.606623" style="fill: #1f77b4; fill-opacity: 0.5; stroke: #1f77b4; stroke-opacity: 0.5"/>
     <use xlink:href="#m4fbc909f47" x="362.817569" y="205.332186" style="fill: #1f77b4; fill-opacity: 0.5; stroke: #1f77b4; stroke-opacity: 0.5"/>
     <use xlink:href="#m4fbc909f47" x="369.125395" y="208.771714" style="fill: #1f77b4; fill-opacity: 0.5; stroke: #1f77b4; stroke-opacity: 0.5"/>
     <use xlink:href="#m4fbc909f47" x="369.610613" y="206.787539" style="fill: #1f77b4; fill-opacity: 0.5; stroke: #1f77b4; stroke-opacity: 0.5"/>
     <use xlink:href="#m4fbc909f47" x="370.09583" y="207.030077" style="fill: #1f77b4; fill-opacity: 0.5; stroke: #1f77b4; stroke-opacity: 0.5"/>
     <use xlink:href="#m4fbc909f47" x="373.007135" y="205.047166" style="fill: #1f77b4; fill-opacity: 0.5; stroke: #1f77b4; stroke-opacity: 0.5"/>
    </g>
   </g>
   <g id="PolyCollection_2">
    <defs>
     <path id="mc399e9bc2d" d="M 59.944874 -135.548139 
L 59.944874 -459.583387 
L 61.109395 -489.918207 
L 62.07983 -486.40022 
L 62.953221 -394.005869 
L 63.535482 -394.239371 
L 63.923656 -392.63501 
L 64.31183 -394.259816 
L 64.894091 -396.281244 
L 65.476352 -396.124773 
L 66.058613 -396.345613 
L 66.834961 -396.667565 
L 67.708352 -398.405565 
L 68.387656 -396.656402 
L 68.969917 -396.067601 
L 70.037395 -397.39878 
L 71.298961 -397.742503 
L 72.657569 -398.520774 
L 74.016178 -395.459334 
L 76.054091 -395.424952 
L 77.606787 -395.487732 
L 78.868352 -395.639075 
L 80.226961 -398.734389 
L 81.8767 -398.424348 
L 83.138265 -398.787403 
L 84.690961 -399.935038 
L 86.049569 -398.994983 
L 88.184526 -399.795161 
L 90.125395 -401.220924 
L 91.872178 -401.525745 
L 93.230787 -398.017777 
L 95.850961 -403.493853 
L 97.597743 -403.200254 
L 100.606091 -403.527167 
L 103.517395 -401.908895 
L 107.010961 -403.159525 
L 110.504526 -399.150365 
L 114.289221 -400.02503 
L 116.715308 -398.636656 
L 119.335482 -400.711116 
L 122.0527 -399.952944 
L 125.061048 -400.290038 
L 127.778265 -401.163869 
L 130.398439 -400.858912 
L 133.406787 -399.527451 
L 137.385569 -398.911602 
L 141.073221 -401.600547 
L 144.566787 -400.004643 
L 148.8367 -401.546331 
L 153.494787 -401.716985 
L 157.861743 -402.696321 
L 162.325743 -400.969553 
L 166.98383 -401.615222 
L 171.836004 -401.423039 
L 178.14383 -399.319685 
L 185.033917 -400.816136 
L 191.2447 -400.844235 
L 198.717048 -402.694155 
L 205.995308 -400.86348 
L 211.720874 -396.173621 
L 217.640526 -395.882461 
L 223.172004 -397.809244 
L 228.994613 -400.138128 
L 234.332004 -406.450642 
L 241.222091 -406.628489 
L 246.074265 -409.877122 
L 252.382091 -410.007413 
L 257.234265 -408.636184 
L 262.571656 -400.908733 
L 266.938613 -399.541058 
L 272.470091 -398.753745 
L 277.419308 -398.65369 
L 282.174439 -398.272885 
L 287.026613 -398.059583 
L 292.266961 -398.499344 
L 297.216178 -398.833549 
L 301.194961 -398.325887 
L 305.658961 -398.74134 
L 309.637743 -398.715746 
L 313.325395 -398.097918 
L 317.013048 -397.646761 
L 320.7007 -397.929999 
L 324.194265 -397.559141 
L 328.755308 -397.756628 
L 331.8607 -398.171967 
L 334.869048 -397.805653 
L 337.877395 -398.095554 
L 340.885743 -398.463324 
L 344.185221 -398.950056 
L 348.066961 -399.680358 
L 351.269395 -400.684918 
L 354.374787 -400.737471 
L 357.965395 -401.507615 
L 361.070787 -401.466338 
L 363.593917 -398.504256 
L 366.020004 -398.389326 
L 368.931308 -398.75968 
L 368.931308 -392.774722 
L 368.931308 -392.774722 
L 366.020004 -392.921293 
L 363.593917 -393.066798 
L 361.070787 -387.27863 
L 357.965395 -386.410218 
L 354.374787 -386.612483 
L 351.269395 -386.631796 
L 348.066961 -386.609129 
L 344.185221 -390.372223 
L 340.885743 -391.251523 
L 337.877395 -390.994464 
L 334.869048 -391.13455 
L 331.8607 -391.689689 
L 328.755308 -390.655821 
L 324.194265 -391.489031 
L 320.7007 -391.727993 
L 317.013048 -391.830969 
L 313.325395 -391.672965 
L 309.637743 -390.631578 
L 305.658961 -390.725971 
L 301.194961 -390.243354 
L 297.216178 -390.050527 
L 292.266961 -390.168744 
L 287.026613 -392.522216 
L 282.174439 -393.000602 
L 277.419308 -392.395558 
L 272.470091 -392.365385 
L 266.938613 -392.220862 
L 262.571656 -388.433096 
L 257.234265 -372.319612 
L 252.382091 -372.326017 
L 246.074265 -372.350899 
L 241.222091 -371.857117 
L 234.332004 -371.731341 
L 228.994613 -383.63807 
L 223.172004 -381.865034 
L 217.640526 -383.041984 
L 211.720874 -383.626469 
L 205.995308 -382.273186 
L 198.717048 -383.355936 
L 191.2447 -389.363741 
L 185.033917 -388.752353 
L 178.14383 -391.764158 
L 171.836004 -385.172163 
L 166.98383 -385.108611 
L 162.325743 -385.24555 
L 157.861743 -379.822353 
L 153.494787 -379.71214 
L 148.8367 -381.570859 
L 144.566787 -382.161054 
L 141.073221 -381.458287 
L 137.385569 -388.343027 
L 133.406787 -386.949404 
L 130.398439 -388.181874 
L 127.778265 -386.154619 
L 125.061048 -386.473347 
L 122.0527 -384.955714 
L 119.335482 -386.632769 
L 116.715308 -386.866045 
L 114.289221 -388.193213 
L 110.504526 -388.0168 
L 107.010961 -381.328106 
L 103.517395 -381.303321 
L 100.606091 -381.200118 
L 97.597743 -381.303771 
L 95.850961 -381.368883 
L 93.230787 -391.059069 
L 91.872178 -385.147122 
L 90.125395 -385.226359 
L 88.184526 -385.319769 
L 86.049569 -384.333716 
L 84.690961 -384.096045 
L 83.138265 -388.762308 
L 81.8767 -388.86143 
L 80.226961 -389.195876 
L 78.868352 -394.194552 
L 77.606787 -393.95373 
L 76.054091 -393.443263 
L 74.016178 -392.482665 
L 72.657569 -386.497956 
L 71.298961 -386.514882 
L 70.037395 -383.720173 
L 68.969917 -381.549167 
L 68.387656 -374.823953 
L 67.708352 -374.578385 
L 66.834961 -375.234475 
L 66.058613 -373.561793 
L 65.476352 -372.006163 
L 64.894091 -376.429442 
L 64.31183 -373.363704 
L 63.923656 -374.090924 
L 63.535482 -374.954923 
L 62.953221 -376.964896 
L 62.07983 -224.379541 
L 61.109395 -164.90273 
L 59.944874 -135.548139 
z
" style="stroke: #1f77b4; stroke-opacity: 0.1"/>
    </defs>
    <g clip-path="url(#p60fadc847e)">
     <use xlink:href="#mc399e9bc2d" x="0" y="602.360937" style="fill: #1f77b4; fill-opacity: 0.1; stroke: #1f77b4; stroke-opacity: 0.1"/>
    </g>
   </g>
   <g id="matplotlib.axis_3">
    <g id="xtick_6">
     <g id="line2d_12">
      <g>
       <use xlink:href="#m88625c30a3" x="104.1967" y="363.951645" style="stroke: #000000; stroke-width: 0.8"/>
      </g>
     </g>
     <g id="text_13">
      <!-- 100 -->
      <g transform="translate(92.518731 380.972583)scale(0.14 -0.14)">
       <use xlink:href="#ArialMT-31"/>
       <use xlink:href="#ArialMT-30" x="55.615234"/>
       <use xlink:href="#ArialMT-30" x="111.230469"/>
      </g>
     </g>
    </g>
    <g id="xtick_7">
     <g id="line2d_13">
      <g>
       <use xlink:href="#m88625c30a3" x="152.718439" y="363.951645" style="stroke: #000000; stroke-width: 0.8"/>
      </g>
     </g>
     <g id="text_14">
      <!-- 200 -->
      <g transform="translate(141.04047 380.972583)scale(0.14 -0.14)">
       <use xlink:href="#ArialMT-32"/>
       <use xlink:href="#ArialMT-30" x="55.615234"/>
       <use xlink:href="#ArialMT-30" x="111.230469"/>
      </g>
     </g>
    </g>
    <g id="xtick_8">
     <g id="line2d_14">
      <g>
       <use xlink:href="#m88625c30a3" x="201.240178" y="363.951645" style="stroke: #000000; stroke-width: 0.8"/>
      </g>
     </g>
     <g id="text_15">
      <!-- 300 -->
      <g transform="translate(189.562209 380.972583)scale(0.14 -0.14)">
       <use xlink:href="#ArialMT-33"/>
       <use xlink:href="#ArialMT-30" x="55.615234"/>
       <use xlink:href="#ArialMT-30" x="111.230469"/>
      </g>
     </g>
    </g>
    <g id="xtick_9">
     <g id="line2d_15">
      <g>
       <use xlink:href="#m88625c30a3" x="249.761917" y="363.951645" style="stroke: #000000; stroke-width: 0.8"/>
      </g>
     </g>
     <g id="text_16">
      <!-- 400 -->
      <g transform="translate(238.083948 380.972583)scale(0.14 -0.14)">
       <use xlink:href="#ArialMT-34"/>
       <use xlink:href="#ArialMT-30" x="55.615234"/>
       <use xlink:href="#ArialMT-30" x="111.230469"/>
      </g>
     </g>
    </g>
    <g id="xtick_10">
     <g id="line2d_16">
      <g>
       <use xlink:href="#m88625c30a3" x="298.283656" y="363.951645" style="stroke: #000000; stroke-width: 0.8"/>
      </g>
     </g>
     <g id="text_17">
      <!-- 500 -->
      <g transform="translate(286.605687 380.972583)scale(0.14 -0.14)">
       <use xlink:href="#ArialMT-35"/>
       <use xlink:href="#ArialMT-30" x="55.615234"/>
       <use xlink:href="#ArialMT-30" x="111.230469"/>
      </g>
     </g>
    </g>
   </g>
   <g id="matplotlib.axis_4">
    <g id="ytick_7">
     <g id="line2d_17">
      <g>
       <use xlink:href="#md1a38b5ce3" x="75.083656" y="204.069292" style="stroke: #000000; stroke-width: 0.8"/>
      </g>
     </g>
     <g id="text_18">
      <!-- 0 -->
      <g transform="translate(60.298344 209.079761)scale(0.14 -0.14)">
       <use xlink:href="#ArialMT-30"/>
      </g>
     </g>
    </g>
    <g id="ytick_8">
     <g id="line2d_18">
      <g>
       <use xlink:href="#md1a38b5ce3" x="75.083656" y="236.045763" style="stroke: #000000; stroke-width: 0.8"/>
      </g>
     </g>
     <g id="text_19">
      <!-- 20 -->
      <g transform="translate(52.513031 241.056232)scale(0.14 -0.14)">
       <use xlink:href="#ArialMT-32"/>
       <use xlink:href="#ArialMT-30" x="55.615234"/>
      </g>
     </g>
    </g>
    <g id="ytick_9">
     <g id="line2d_19">
      <g>
       <use xlink:href="#md1a38b5ce3" x="75.083656" y="268.022233" style="stroke: #000000; stroke-width: 0.8"/>
      </g>
     </g>
     <g id="text_20">
      <!-- 40 -->
      <g transform="translate(52.513031 273.032702)scale(0.14 -0.14)">
       <use xlink:href="#ArialMT-34"/>
       <use xlink:href="#ArialMT-30" x="55.615234"/>
      </g>
     </g>
    </g>
    <g id="ytick_10">
     <g id="line2d_20">
      <g>
       <use xlink:href="#md1a38b5ce3" x="75.083656" y="299.998704" style="stroke: #000000; stroke-width: 0.8"/>
      </g>
     </g>
     <g id="text_21">
      <!-- 60 -->
      <g transform="translate(52.513031 305.009173)scale(0.14 -0.14)">
       <use xlink:href="#ArialMT-36"/>
       <use xlink:href="#ArialMT-30" x="55.615234"/>
      </g>
     </g>
    </g>
    <g id="ytick_11">
     <g id="line2d_21">
      <g>
       <use xlink:href="#md1a38b5ce3" x="75.083656" y="331.975175" style="stroke: #000000; stroke-width: 0.8"/>
      </g>
     </g>
     <g id="text_22">
      <!-- 80 -->
      <g transform="translate(52.513031 336.985643)scale(0.14 -0.14)">
       <use xlink:href="#ArialMT-38"/>
       <use xlink:href="#ArialMT-30" x="55.615234"/>
      </g>
     </g>
    </g>
    <g id="ytick_12">
     <g id="line2d_22">
      <g>
       <use xlink:href="#md1a38b5ce3" x="75.083656" y="363.951645" style="stroke: #000000; stroke-width: 0.8"/>
      </g>
     </g>
     <g id="text_23">
      <!-- 100 -->
      <g transform="translate(44.727719 368.962114)scale(0.14 -0.14)">
       <use xlink:href="#ArialMT-31"/>
       <use xlink:href="#ArialMT-30" x="55.615234"/>
       <use xlink:href="#ArialMT-30" x="111.230469"/>
      </g>
     </g>
    </g>
    <g id="text_24">
     <!-- Tlx2 -->
     <g transform="translate(19.368281 300.0675)rotate(-90)scale(0.17 -0.17)">
      <defs>
       <path id="ArialMT-54" d="M 1659 0 
L 1659 4041 
L 150 4041 
L 150 4581 
L 3781 4581 
L 3781 4041 
L 2266 4041 
L 2266 0 
L 1659 0 
z
" transform="scale(0.015625)"/>
      </defs>
      <use xlink:href="#ArialMT-54"/>
      <use xlink:href="#ArialMT-6c" x="61.083984"/>
      <use xlink:href="#ArialMT-78" x="83.300781"/>
      <use xlink:href="#ArialMT-32" x="133.300781"/>
     </g>
     <!-- Rank Quantile -->
     <g transform="translate(37.348969 337.87125)rotate(-90)scale(0.17 -0.17)">
      <use xlink:href="#ArialMT-52"/>
      <use xlink:href="#ArialMT-61" x="72.216797"/>
      <use xlink:href="#ArialMT-6e" x="127.832031"/>
      <use xlink:href="#ArialMT-6b" x="183.447266"/>
      <use xlink:href="#ArialMT-20" x="233.447266"/>
      <use xlink:href="#ArialMT-51" x="261.230469"/>
      <use xlink:href="#ArialMT-75" x="339.013672"/>
      <use xlink:href="#ArialMT-61" x="394.628906"/>
      <use xlink:href="#ArialMT-6e" x="450.244141"/>
      <use xlink:href="#ArialMT-74" x="505.859375"/>
      <use xlink:href="#ArialMT-69" x="533.642578"/>
      <use xlink:href="#ArialMT-6c" x="555.859375"/>
      <use xlink:href="#ArialMT-65" x="578.076172"/>
     </g>
    </g>
   </g>
   <g id="patch_8">
    <path d="M 75.083656 363.951645 
L 75.083656 204.069292 
" style="fill: none; stroke: #000000; stroke-width: 0.8; stroke-linejoin: miter; stroke-linecap: square"/>
   </g>
   <g id="patch_9">
    <path d="M 298.283656 363.951645 
L 298.283656 204.069292 
" style="fill: none"/>
   </g>
   <g id="patch_10">
    <path d="M 75.083656 363.951645 
L 298.283656 363.951645 
" style="fill: none; stroke: #000000; stroke-width: 0.8; stroke-linejoin: miter; stroke-linecap: square"/>
   </g>
   <g id="patch_11">
    <path d="M 75.083656 204.069292 
L 298.283656 204.069292 
" style="fill: none"/>
   </g>
  </g>
  <g id="axes_3">
   <g id="patch_12">
    <path d="M 75.083656 555.810469 
L 298.283656 555.810469 
L 298.283656 395.928116 
L 75.083656 395.928116 
z
" style="fill: #ffffff"/>
   </g>
   <g id="PathCollection_3">
    <g clip-path="url(#p1931a7dbfb)">
     <use xlink:href="#m4fbc909f47" x="69.746265" y="417.980854" style="fill: #1f77b4; fill-opacity: 0.5; stroke: #1f77b4; stroke-opacity: 0.5"/>
     <use xlink:href="#m4fbc909f47" x="75.083656" y="407.919292" style="fill: #1f77b4; fill-opacity: 0.5; stroke: #1f77b4; stroke-opacity: 0.5"/>
     <use xlink:href="#m4fbc909f47" x="76.539308" y="410.800893" style="fill: #1f77b4; fill-opacity: 0.5; stroke: #1f77b4; stroke-opacity: 0.5"/>
     <use xlink:href="#m4fbc909f47" x="79.93583" y="421.509292" style="fill: #1f77b4; fill-opacity: 0.5; stroke: #1f77b4; stroke-opacity: 0.5"/>
     <use xlink:href="#m4fbc909f47" x="80.421048" y="421.007701" style="fill: #1f77b4; fill-opacity: 0.5; stroke: #1f77b4; stroke-opacity: 0.5"/>
     <use xlink:href="#m4fbc909f47" x="81.391482" y="407.994708" style="fill: #1f77b4; fill-opacity: 0.5; stroke: #1f77b4; stroke-opacity: 0.5"/>
     <use xlink:href="#m4fbc909f47" x="82.847135" y="421.623494" style="fill: #1f77b4; fill-opacity: 0.5; stroke: #1f77b4; stroke-opacity: 0.5"/>
     <use xlink:href="#m4fbc909f47" x="84.788004" y="417.245763" style="fill: #1f77b4; fill-opacity: 0.5; stroke: #1f77b4; stroke-opacity: 0.5"/>
     <use xlink:href="#m4fbc909f47" x="86.243656" y="406.079376" style="fill: #1f77b4; fill-opacity: 0.5; stroke: #1f77b4; stroke-opacity: 0.5"/>
     <use xlink:href="#m4fbc909f47" x="88.184526" y="417.40485" style="fill: #1f77b4; fill-opacity: 0.5; stroke: #1f77b4; stroke-opacity: 0.5"/>
     <use xlink:href="#m4fbc909f47" x="88.184526" y="446.040495" style="fill: #1f77b4; fill-opacity: 0.5; stroke: #1f77b4; stroke-opacity: 0.5"/>
     <use xlink:href="#m4fbc909f47" x="93.521917" y="418.475627" style="fill: #1f77b4; fill-opacity: 0.5; stroke: #1f77b4; stroke-opacity: 0.5"/>
     <use xlink:href="#m4fbc909f47" x="94.492352" y="413.914881" style="fill: #1f77b4; fill-opacity: 0.5; stroke: #1f77b4; stroke-opacity: 0.5"/>
     <use xlink:href="#m4fbc909f47" x="94.977569" y="401.849684" style="fill: #1f77b4; fill-opacity: 0.5; stroke: #1f77b4; stroke-opacity: 0.5"/>
     <use xlink:href="#m4fbc909f47" x="94.977569" y="429.483671" style="fill: #1f77b4; fill-opacity: 0.5; stroke: #1f77b4; stroke-opacity: 0.5"/>
     <use xlink:href="#m4fbc909f47" x="101.285395" y="397.628992" style="fill: #1f77b4; fill-opacity: 0.5; stroke: #1f77b4; stroke-opacity: 0.5"/>
     <use xlink:href="#m4fbc909f47" x="102.25583" y="415.91341" style="fill: #1f77b4; fill-opacity: 0.5; stroke: #1f77b4; stroke-opacity: 0.5"/>
     <use xlink:href="#m4fbc909f47" x="109.534091" y="414.653076" style="fill: #1f77b4; fill-opacity: 0.5; stroke: #1f77b4; stroke-opacity: 0.5"/>
     <use xlink:href="#m4fbc909f47" x="109.534091" y="407.451168" style="fill: #1f77b4; fill-opacity: 0.5; stroke: #1f77b4; stroke-opacity: 0.5"/>
     <use xlink:href="#m4fbc909f47" x="112.445395" y="406.860243" style="fill: #1f77b4; fill-opacity: 0.5; stroke: #1f77b4; stroke-opacity: 0.5"/>
     <use xlink:href="#m4fbc909f47" x="118.753221" y="398.387844" style="fill: #1f77b4; fill-opacity: 0.5; stroke: #1f77b4; stroke-opacity: 0.5"/>
     <use xlink:href="#m4fbc909f47" x="121.179308" y="413.692822" style="fill: #1f77b4; fill-opacity: 0.5; stroke: #1f77b4; stroke-opacity: 0.5"/>
     <use xlink:href="#m4fbc909f47" x="121.664526" y="407.684171" style="fill: #1f77b4; fill-opacity: 0.5; stroke: #1f77b4; stroke-opacity: 0.5"/>
     <use xlink:href="#m4fbc909f47" x="122.634961" y="406.355226" style="fill: #1f77b4; fill-opacity: 0.5; stroke: #1f77b4; stroke-opacity: 0.5"/>
     <use xlink:href="#m4fbc909f47" x="126.031482" y="403.646574" style="fill: #1f77b4; fill-opacity: 0.5; stroke: #1f77b4; stroke-opacity: 0.5"/>
     <use xlink:href="#m4fbc909f47" x="133.794961" y="409.830929" style="fill: #1f77b4; fill-opacity: 0.5; stroke: #1f77b4; stroke-opacity: 0.5"/>
     <use xlink:href="#m4fbc909f47" x="134.765395" y="408.679469" style="fill: #1f77b4; fill-opacity: 0.5; stroke: #1f77b4; stroke-opacity: 0.5"/>
     <use xlink:href="#m4fbc909f47" x="134.765395" y="401.813356" style="fill: #1f77b4; fill-opacity: 0.5; stroke: #1f77b4; stroke-opacity: 0.5"/>
     <use xlink:href="#m4fbc909f47" x="137.6767" y="410.118857" style="fill: #1f77b4; fill-opacity: 0.5; stroke: #1f77b4; stroke-opacity: 0.5"/>
     <use xlink:href="#m4fbc909f47" x="145.925395" y="414.838932" style="fill: #1f77b4; fill-opacity: 0.5; stroke: #1f77b4; stroke-opacity: 0.5"/>
     <use xlink:href="#m4fbc909f47" x="152.233221" y="407.979549" style="fill: #1f77b4; fill-opacity: 0.5; stroke: #1f77b4; stroke-opacity: 0.5"/>
     <use xlink:href="#m4fbc909f47" x="152.233221" y="407.176121" style="fill: #1f77b4; fill-opacity: 0.5; stroke: #1f77b4; stroke-opacity: 0.5"/>
     <use xlink:href="#m4fbc909f47" x="156.114961" y="408.286172" style="fill: #1f77b4; fill-opacity: 0.5; stroke: #1f77b4; stroke-opacity: 0.5"/>
     <use xlink:href="#m4fbc909f47" x="160.967135" y="399.612041" style="fill: #1f77b4; fill-opacity: 0.5; stroke: #1f77b4; stroke-opacity: 0.5"/>
     <use xlink:href="#m4fbc909f47" x="167.760178" y="401.465167" style="fill: #1f77b4; fill-opacity: 0.5; stroke: #1f77b4; stroke-opacity: 0.5"/>
     <use xlink:href="#m4fbc909f47" x="174.553221" y="407.674574" style="fill: #1f77b4; fill-opacity: 0.5; stroke: #1f77b4; stroke-opacity: 0.5"/>
     <use xlink:href="#m4fbc909f47" x="175.523656" y="428.940262" style="fill: #1f77b4; fill-opacity: 0.5; stroke: #1f77b4; stroke-opacity: 0.5"/>
     <use xlink:href="#m4fbc909f47" x="180.37583" y="423.92308" style="fill: #1f77b4; fill-opacity: 0.5; stroke: #1f77b4; stroke-opacity: 0.5"/>
     <use xlink:href="#m4fbc909f47" x="192.506265" y="428.244762" style="fill: #1f77b4; fill-opacity: 0.5; stroke: #1f77b4; stroke-opacity: 0.5"/>
     <use xlink:href="#m4fbc909f47" x="202.210613" y="421.869292" style="fill: #1f77b4; fill-opacity: 0.5; stroke: #1f77b4; stroke-opacity: 0.5"/>
     <use xlink:href="#m4fbc909f47" x="205.607135" y="405.75907" style="fill: #1f77b4; fill-opacity: 0.5; stroke: #1f77b4; stroke-opacity: 0.5"/>
     <use xlink:href="#m4fbc909f47" x="212.885395" y="399.875828" style="fill: #1f77b4; fill-opacity: 0.5; stroke: #1f77b4; stroke-opacity: 0.5"/>
     <use xlink:href="#m4fbc909f47" x="216.767135" y="402.670143" style="fill: #1f77b4; fill-opacity: 0.5; stroke: #1f77b4; stroke-opacity: 0.5"/>
     <use xlink:href="#m4fbc909f47" x="221.134091" y="399.679021" style="fill: #1f77b4; fill-opacity: 0.5; stroke: #1f77b4; stroke-opacity: 0.5"/>
     <use xlink:href="#m4fbc909f47" x="231.808874" y="398.570799" style="fill: #1f77b4; fill-opacity: 0.5; stroke: #1f77b4; stroke-opacity: 0.5"/>
     <use xlink:href="#m4fbc909f47" x="233.264526" y="398.549138" style="fill: #1f77b4; fill-opacity: 0.5; stroke: #1f77b4; stroke-opacity: 0.5"/>
     <use xlink:href="#m4fbc909f47" x="241.998439" y="405.504403" style="fill: #1f77b4; fill-opacity: 0.5; stroke: #1f77b4; stroke-opacity: 0.5"/>
     <use xlink:href="#m4fbc909f47" x="243.454091" y="409.148362" style="fill: #1f77b4; fill-opacity: 0.5; stroke: #1f77b4; stroke-opacity: 0.5"/>
     <use xlink:href="#m4fbc909f47" x="255.584526" y="397.480372" style="fill: #1f77b4; fill-opacity: 0.5; stroke: #1f77b4; stroke-opacity: 0.5"/>
     <use xlink:href="#m4fbc909f47" x="256.069743" y="399.799359" style="fill: #1f77b4; fill-opacity: 0.5; stroke: #1f77b4; stroke-opacity: 0.5"/>
     <use xlink:href="#m4fbc909f47" x="264.803656" y="398.89577" style="fill: #1f77b4; fill-opacity: 0.5; stroke: #1f77b4; stroke-opacity: 0.5"/>
     <use xlink:href="#m4fbc909f47" x="266.259308" y="405.137929" style="fill: #1f77b4; fill-opacity: 0.5; stroke: #1f77b4; stroke-opacity: 0.5"/>
     <use xlink:href="#m4fbc909f47" x="270.141048" y="415.099529" style="fill: #1f77b4; fill-opacity: 0.5; stroke: #1f77b4; stroke-opacity: 0.5"/>
     <use xlink:href="#m4fbc909f47" x="277.419308" y="403.624859" style="fill: #1f77b4; fill-opacity: 0.5; stroke: #1f77b4; stroke-opacity: 0.5"/>
     <use xlink:href="#m4fbc909f47" x="283.727135" y="401.030744" style="fill: #1f77b4; fill-opacity: 0.5; stroke: #1f77b4; stroke-opacity: 0.5"/>
     <use xlink:href="#m4fbc909f47" x="289.549743" y="400.240295" style="fill: #1f77b4; fill-opacity: 0.5; stroke: #1f77b4; stroke-opacity: 0.5"/>
     <use xlink:href="#m4fbc909f47" x="290.034961" y="404.534619" style="fill: #1f77b4; fill-opacity: 0.5; stroke: #1f77b4; stroke-opacity: 0.5"/>
     <use xlink:href="#m4fbc909f47" x="294.401917" y="407.30186" style="fill: #1f77b4; fill-opacity: 0.5; stroke: #1f77b4; stroke-opacity: 0.5"/>
     <use xlink:href="#m4fbc909f47" x="303.621048" y="404.375911" style="fill: #1f77b4; fill-opacity: 0.5; stroke: #1f77b4; stroke-opacity: 0.5"/>
     <use xlink:href="#m4fbc909f47" x="308.473221" y="396.848744" style="fill: #1f77b4; fill-opacity: 0.5; stroke: #1f77b4; stroke-opacity: 0.5"/>
     <use xlink:href="#m4fbc909f47" x="309.443656" y="403.876378" style="fill: #1f77b4; fill-opacity: 0.5; stroke: #1f77b4; stroke-opacity: 0.5"/>
     <use xlink:href="#m4fbc909f47" x="312.354961" y="404.692933" style="fill: #1f77b4; fill-opacity: 0.5; stroke: #1f77b4; stroke-opacity: 0.5"/>
     <use xlink:href="#m4fbc909f47" x="314.29583" y="404.627156" style="fill: #1f77b4; fill-opacity: 0.5; stroke: #1f77b4; stroke-opacity: 0.5"/>
     <use xlink:href="#m4fbc909f47" x="322.059308" y="403.791182" style="fill: #1f77b4; fill-opacity: 0.5; stroke: #1f77b4; stroke-opacity: 0.5"/>
     <use xlink:href="#m4fbc909f47" x="326.911482" y="402.220445" style="fill: #1f77b4; fill-opacity: 0.5; stroke: #1f77b4; stroke-opacity: 0.5"/>
     <use xlink:href="#m4fbc909f47" x="327.881917" y="402.768003" style="fill: #1f77b4; fill-opacity: 0.5; stroke: #1f77b4; stroke-opacity: 0.5"/>
     <use xlink:href="#m4fbc909f47" x="329.822787" y="401.021713" style="fill: #1f77b4; fill-opacity: 0.5; stroke: #1f77b4; stroke-opacity: 0.5"/>
     <use xlink:href="#m4fbc909f47" x="337.101048" y="404.473552" style="fill: #1f77b4; fill-opacity: 0.5; stroke: #1f77b4; stroke-opacity: 0.5"/>
     <use xlink:href="#m4fbc909f47" x="337.586265" y="399.780703" style="fill: #1f77b4; fill-opacity: 0.5; stroke: #1f77b4; stroke-opacity: 0.5"/>
     <use xlink:href="#m4fbc909f47" x="341.953221" y="417.607079" style="fill: #1f77b4; fill-opacity: 0.5; stroke: #1f77b4; stroke-opacity: 0.5"/>
     <use xlink:href="#m4fbc909f47" x="342.923656" y="404.840477" style="fill: #1f77b4; fill-opacity: 0.5; stroke: #1f77b4; stroke-opacity: 0.5"/>
     <use xlink:href="#m4fbc909f47" x="344.864526" y="399.683742" style="fill: #1f77b4; fill-opacity: 0.5; stroke: #1f77b4; stroke-opacity: 0.5"/>
     <use xlink:href="#m4fbc909f47" x="353.598439" y="405.823115" style="fill: #1f77b4; fill-opacity: 0.5; stroke: #1f77b4; stroke-opacity: 0.5"/>
     <use xlink:href="#m4fbc909f47" x="356.994961" y="402.364603" style="fill: #1f77b4; fill-opacity: 0.5; stroke: #1f77b4; stroke-opacity: 0.5"/>
     <use xlink:href="#m4fbc909f47" x="357.965395" y="403.627106" style="fill: #1f77b4; fill-opacity: 0.5; stroke: #1f77b4; stroke-opacity: 0.5"/>
     <use xlink:href="#m4fbc909f47" x="358.450613" y="401.05255" style="fill: #1f77b4; fill-opacity: 0.5; stroke: #1f77b4; stroke-opacity: 0.5"/>
     <use xlink:href="#m4fbc909f47" x="362.817569" y="413.35605" style="fill: #1f77b4; fill-opacity: 0.5; stroke: #1f77b4; stroke-opacity: 0.5"/>
     <use xlink:href="#m4fbc909f47" x="369.125395" y="402.115513" style="fill: #1f77b4; fill-opacity: 0.5; stroke: #1f77b4; stroke-opacity: 0.5"/>
     <use xlink:href="#m4fbc909f47" x="369.610613" y="412.237598" style="fill: #1f77b4; fill-opacity: 0.5; stroke: #1f77b4; stroke-opacity: 0.5"/>
     <use xlink:href="#m4fbc909f47" x="370.09583" y="399.875828" style="fill: #1f77b4; fill-opacity: 0.5; stroke: #1f77b4; stroke-opacity: 0.5"/>
     <use xlink:href="#m4fbc909f47" x="373.007135" y="403.0177" style="fill: #1f77b4; fill-opacity: 0.5; stroke: #1f77b4; stroke-opacity: 0.5"/>
    </g>
   </g>
   <g id="PolyCollection_3">
    <defs>
     <path id="me59670f0e8" d="M 76.345221 -174.206384 
L 76.345221 -198.828278 
L 78.674265 -202.249631 
L 80.226961 -199.056955 
L 81.8767 -196.107534 
L 83.138265 -202.180252 
L 84.690961 -201.67118 
L 86.049569 -210.258412 
L 88.184526 -211.027555 
L 90.125395 -212.26394 
L 91.872178 -215.266968 
L 93.230787 -213.841062 
L 95.850961 -215.789939 
L 97.597743 -215.780629 
L 100.606091 -215.704779 
L 103.517395 -212.786656 
L 107.010961 -208.515161 
L 110.504526 -207.805529 
L 114.289221 -207.207441 
L 116.715308 -206.476543 
L 119.335482 -206.675908 
L 122.0527 -207.615409 
L 125.061048 -201.683726 
L 127.778265 -199.883785 
L 130.398439 -203.006055 
L 133.406787 -203.194432 
L 137.385569 -202.673201 
L 141.073221 -203.036742 
L 144.566787 -203.434527 
L 148.8367 -198.838192 
L 153.494787 -205.599116 
L 157.861743 -205.574456 
L 162.325743 -205.523707 
L 166.98383 -216.501884 
L 171.836004 -216.71682 
L 178.14383 -209.604256 
L 185.033917 -197.435555 
L 191.2447 -199.43725 
L 198.717048 -211.165206 
L 205.995308 -215.852232 
L 211.720874 -214.841185 
L 217.640526 -206.869275 
L 223.172004 -205.854971 
L 228.994613 -207.426897 
L 234.332004 -209.662945 
L 241.222091 -210.871946 
L 246.074265 -210.29017 
L 252.382091 -210.102293 
L 257.234265 -210.056793 
L 262.571656 -213.504889 
L 266.938613 -210.773287 
L 272.470091 -210.118512 
L 277.419308 -209.263925 
L 282.174439 -209.391162 
L 287.026613 -204.684137 
L 292.266961 -204.610088 
L 297.216178 -207.924464 
L 301.194961 -206.758639 
L 305.658961 -206.751552 
L 309.637743 -206.255044 
L 313.325395 -206.262604 
L 317.013048 -200.512748 
L 320.7007 -200.949954 
L 324.194265 -202.265118 
L 328.755308 -202.201755 
L 331.8607 -203.861254 
L 334.869048 -211.624492 
L 337.877395 -210.987519 
L 340.885743 -211.724891 
L 344.185221 -211.430648 
L 348.066961 -210.051804 
L 351.269395 -203.86736 
L 354.374787 -204.579106 
L 357.965395 -206.843238 
L 361.070787 -207.923662 
L 363.593917 -207.591075 
L 366.020004 -209.661086 
L 368.931308 -208.667599 
L 368.931308 -183.8132 
L 368.931308 -183.8132 
L 366.020004 -183.605773 
L 363.593917 -184.175273 
L 361.070787 -187.791884 
L 357.965395 -187.389267 
L 354.374787 -195.122322 
L 351.269395 -194.318898 
L 348.066961 -182.542465 
L 344.185221 -182.197181 
L 340.885743 -182.442763 
L 337.877395 -182.644947 
L 334.869048 -182.836963 
L 331.8607 -196.754855 
L 328.755308 -196.810162 
L 324.194265 -196.685358 
L 320.7007 -196.532034 
L 317.013048 -196.525889 
L 313.325395 -192.924714 
L 309.637743 -192.698383 
L 305.658961 -191.131993 
L 301.194961 -191.188231 
L 297.216178 -191.476839 
L 292.266961 -193.118414 
L 287.026613 -193.344786 
L 282.174439 -185.518694 
L 277.419308 -185.404608 
L 272.470091 -185.08783 
L 266.938613 -184.92561 
L 262.571656 -184.651802 
L 257.234265 -190.480365 
L 252.382091 -190.288276 
L 246.074265 -190.239052 
L 241.222091 -190.148699 
L 234.332004 -190.47824 
L 228.994613 -195.305576 
L 223.172004 -199.128932 
L 217.640526 -195.230656 
L 211.720874 -177.939348 
L 205.995308 -165.502005 
L 198.717048 -161.687856 
L 191.2447 -161.790039 
L 185.033917 -163.025532 
L 178.14383 -159.018481 
L 171.836004 -163.359005 
L 166.98383 -169.828704 
L 162.325743 -189.512538 
L 157.861743 -189.339799 
L 153.494787 -183.965633 
L 148.8367 -186.523831 
L 144.566787 -184.516622 
L 141.073221 -184.313067 
L 137.385569 -183.936056 
L 133.406787 -187.891769 
L 130.398439 -189.585598 
L 127.778265 -190.359542 
L 125.061048 -186.55426 
L 122.0527 -185.199811 
L 119.335482 -184.853845 
L 116.715308 -184.614833 
L 114.289221 -181.096373 
L 110.504526 -179.61005 
L 107.010961 -179.203958 
L 103.517395 -165.883092 
L 100.606091 -165.205562 
L 97.597743 -165.424991 
L 95.850961 -164.390794 
L 93.230787 -146.97507 
L 91.872178 -150.380692 
L 90.125395 -151.691843 
L 88.184526 -151.595875 
L 86.049569 -151.105872 
L 84.690961 -174.911419 
L 83.138265 -172.961206 
L 81.8767 -172.861958 
L 80.226961 -172.490485 
L 78.674265 -174.77949 
L 76.345221 -174.206384 
z
" style="stroke: #1f77b4; stroke-opacity: 0.1"/>
    </defs>
    <g clip-path="url(#p1931a7dbfb)">
     <use xlink:href="#me59670f0e8" x="0" y="602.360937" style="fill: #1f77b4; fill-opacity: 0.1; stroke: #1f77b4; stroke-opacity: 0.1"/>
    </g>
   </g>
   <g id="matplotlib.axis_5">
    <g id="xtick_11">
     <g id="line2d_23">
      <g>
       <use xlink:href="#m88625c30a3" x="104.1967" y="555.810469" style="stroke: #000000; stroke-width: 0.8"/>
      </g>
     </g>
     <g id="text_25">
      <!-- 100 -->
      <g transform="translate(92.518731 572.831406)scale(0.14 -0.14)">
       <use xlink:href="#ArialMT-31"/>
       <use xlink:href="#ArialMT-30" x="55.615234"/>
       <use xlink:href="#ArialMT-30" x="111.230469"/>
      </g>
     </g>
    </g>
    <g id="xtick_12">
     <g id="line2d_24">
      <g>
       <use xlink:href="#m88625c30a3" x="152.718439" y="555.810469" style="stroke: #000000; stroke-width: 0.8"/>
      </g>
     </g>
     <g id="text_26">
      <!-- 200 -->
      <g transform="translate(141.04047 572.831406)scale(0.14 -0.14)">
       <use xlink:href="#ArialMT-32"/>
       <use xlink:href="#ArialMT-30" x="55.615234"/>
       <use xlink:href="#ArialMT-30" x="111.230469"/>
      </g>
     </g>
    </g>
    <g id="xtick_13">
     <g id="line2d_25">
      <g>
       <use xlink:href="#m88625c30a3" x="201.240178" y="555.810469" style="stroke: #000000; stroke-width: 0.8"/>
      </g>
     </g>
     <g id="text_27">
      <!-- 300 -->
      <g transform="translate(189.562209 572.831406)scale(0.14 -0.14)">
       <use xlink:href="#ArialMT-33"/>
       <use xlink:href="#ArialMT-30" x="55.615234"/>
       <use xlink:href="#ArialMT-30" x="111.230469"/>
      </g>
     </g>
    </g>
    <g id="xtick_14">
     <g id="line2d_26">
      <g>
       <use xlink:href="#m88625c30a3" x="249.761917" y="555.810469" style="stroke: #000000; stroke-width: 0.8"/>
      </g>
     </g>
     <g id="text_28">
      <!-- 400 -->
      <g transform="translate(238.083948 572.831406)scale(0.14 -0.14)">
       <use xlink:href="#ArialMT-34"/>
       <use xlink:href="#ArialMT-30" x="55.615234"/>
       <use xlink:href="#ArialMT-30" x="111.230469"/>
      </g>
     </g>
    </g>
    <g id="xtick_15">
     <g id="line2d_27">
      <g>
       <use xlink:href="#m88625c30a3" x="298.283656" y="555.810469" style="stroke: #000000; stroke-width: 0.8"/>
      </g>
     </g>
     <g id="text_29">
      <!-- 500 -->
      <g transform="translate(286.605687 572.831406)scale(0.14 -0.14)">
       <use xlink:href="#ArialMT-35"/>
       <use xlink:href="#ArialMT-30" x="55.615234"/>
       <use xlink:href="#ArialMT-30" x="111.230469"/>
      </g>
     </g>
    </g>
    <g id="text_30">
     <!-- Number of Nodes -->
     <g transform="translate(120.074203 591.782187)scale(0.17 -0.17)">
      <defs>
       <path id="ArialMT-4e" d="M 488 0 
L 488 4581 
L 1109 4581 
L 3516 984 
L 3516 4581 
L 4097 4581 
L 4097 0 
L 3475 0 
L 1069 3600 
L 1069 0 
L 488 0 
z
" transform="scale(0.015625)"/>
       <path id="ArialMT-6d" d="M 422 0 
L 422 3319 
L 925 3319 
L 925 2853 
Q 1081 3097 1340 3245 
Q 1600 3394 1931 3394 
Q 2300 3394 2536 3241 
Q 2772 3088 2869 2813 
Q 3263 3394 3894 3394 
Q 4388 3394 4653 3120 
Q 4919 2847 4919 2278 
L 4919 0 
L 4359 0 
L 4359 2091 
Q 4359 2428 4304 2576 
Q 4250 2725 4106 2815 
Q 3963 2906 3769 2906 
Q 3419 2906 3187 2673 
Q 2956 2441 2956 1928 
L 2956 0 
L 2394 0 
L 2394 2156 
Q 2394 2531 2256 2718 
Q 2119 2906 1806 2906 
Q 1569 2906 1367 2781 
Q 1166 2656 1075 2415 
Q 984 2175 984 1722 
L 984 0 
L 422 0 
z
" transform="scale(0.015625)"/>
       <path id="ArialMT-72" d="M 416 0 
L 416 3319 
L 922 3319 
L 922 2816 
Q 1116 3169 1280 3281 
Q 1444 3394 1641 3394 
Q 1925 3394 2219 3213 
L 2025 2691 
Q 1819 2813 1613 2813 
Q 1428 2813 1281 2702 
Q 1134 2591 1072 2394 
Q 978 2094 978 1738 
L 978 0 
L 416 0 
z
" transform="scale(0.015625)"/>
       <path id="ArialMT-66" d="M 556 0 
L 556 2881 
L 59 2881 
L 59 3319 
L 556 3319 
L 556 3672 
Q 556 4006 616 4169 
Q 697 4388 901 4523 
Q 1106 4659 1475 4659 
Q 1713 4659 2000 4603 
L 1916 4113 
Q 1741 4144 1584 4144 
Q 1328 4144 1222 4034 
Q 1116 3925 1116 3625 
L 1116 3319 
L 1763 3319 
L 1763 2881 
L 1116 2881 
L 1116 0 
L 556 0 
z
" transform="scale(0.015625)"/>
       <path id="ArialMT-64" d="M 2575 0 
L 2575 419 
Q 2259 -75 1647 -75 
Q 1250 -75 917 144 
Q 584 363 401 755 
Q 219 1147 219 1656 
Q 219 2153 384 2558 
Q 550 2963 881 3178 
Q 1213 3394 1622 3394 
Q 1922 3394 2156 3267 
Q 2391 3141 2538 2938 
L 2538 4581 
L 3097 4581 
L 3097 0 
L 2575 0 
z
M 797 1656 
Q 797 1019 1065 703 
Q 1334 388 1700 388 
Q 2069 388 2326 689 
Q 2584 991 2584 1609 
Q 2584 2291 2321 2609 
Q 2059 2928 1675 2928 
Q 1300 2928 1048 2622 
Q 797 2316 797 1656 
z
" transform="scale(0.015625)"/>
       <path id="ArialMT-73" d="M 197 991 
L 753 1078 
Q 800 744 1014 566 
Q 1228 388 1613 388 
Q 2000 388 2187 545 
Q 2375 703 2375 916 
Q 2375 1106 2209 1216 
Q 2094 1291 1634 1406 
Q 1016 1563 777 1677 
Q 538 1791 414 1992 
Q 291 2194 291 2438 
Q 291 2659 392 2848 
Q 494 3038 669 3163 
Q 800 3259 1026 3326 
Q 1253 3394 1513 3394 
Q 1903 3394 2198 3281 
Q 2494 3169 2634 2976 
Q 2775 2784 2828 2463 
L 2278 2388 
Q 2241 2644 2061 2787 
Q 1881 2931 1553 2931 
Q 1166 2931 1000 2803 
Q 834 2675 834 2503 
Q 834 2394 903 2306 
Q 972 2216 1119 2156 
Q 1203 2125 1616 2013 
Q 2213 1853 2448 1751 
Q 2684 1650 2818 1456 
Q 2953 1263 2953 975 
Q 2953 694 2789 445 
Q 2625 197 2315 61 
Q 2006 -75 1616 -75 
Q 969 -75 630 194 
Q 291 463 197 991 
z
" transform="scale(0.015625)"/>
      </defs>
      <use xlink:href="#ArialMT-4e"/>
      <use xlink:href="#ArialMT-75" x="72.216797"/>
      <use xlink:href="#ArialMT-6d" x="127.832031"/>
      <use xlink:href="#ArialMT-62" x="211.132812"/>
      <use xlink:href="#ArialMT-65" x="266.748047"/>
      <use xlink:href="#ArialMT-72" x="322.363281"/>
      <use xlink:href="#ArialMT-20" x="355.664062"/>
      <use xlink:href="#ArialMT-6f" x="383.447266"/>
      <use xlink:href="#ArialMT-66" x="439.0625"/>
      <use xlink:href="#ArialMT-20" x="466.845703"/>
      <use xlink:href="#ArialMT-4e" x="494.628906"/>
      <use xlink:href="#ArialMT-6f" x="566.845703"/>
      <use xlink:href="#ArialMT-64" x="622.460938"/>
      <use xlink:href="#ArialMT-65" x="678.076172"/>
      <use xlink:href="#ArialMT-73" x="733.691406"/>
     </g>
    </g>
   </g>
   <g id="matplotlib.axis_6">
    <g id="ytick_13">
     <g id="line2d_28">
      <g>
       <use xlink:href="#md1a38b5ce3" x="75.083656" y="395.928116" style="stroke: #000000; stroke-width: 0.8"/>
      </g>
     </g>
     <g id="text_31">
      <!-- 0 -->
      <g transform="translate(60.298344 400.938585)scale(0.14 -0.14)">
       <use xlink:href="#ArialMT-30"/>
      </g>
     </g>
    </g>
    <g id="ytick_14">
     <g id="line2d_29">
      <g>
       <use xlink:href="#md1a38b5ce3" x="75.083656" y="427.904586" style="stroke: #000000; stroke-width: 0.8"/>
      </g>
     </g>
     <g id="text_32">
      <!-- 20 -->
      <g transform="translate(52.513031 432.915055)scale(0.14 -0.14)">
       <use xlink:href="#ArialMT-32"/>
       <use xlink:href="#ArialMT-30" x="55.615234"/>
      </g>
     </g>
    </g>
    <g id="ytick_15">
     <g id="line2d_30">
      <g>
       <use xlink:href="#md1a38b5ce3" x="75.083656" y="459.881057" style="stroke: #000000; stroke-width: 0.8"/>
      </g>
     </g>
     <g id="text_33">
      <!-- 40 -->
      <g transform="translate(52.513031 464.891526)scale(0.14 -0.14)">
       <use xlink:href="#ArialMT-34"/>
       <use xlink:href="#ArialMT-30" x="55.615234"/>
      </g>
     </g>
    </g>
    <g id="ytick_16">
     <g id="line2d_31">
      <g>
       <use xlink:href="#md1a38b5ce3" x="75.083656" y="491.857528" style="stroke: #000000; stroke-width: 0.8"/>
      </g>
     </g>
     <g id="text_34">
      <!-- 60 -->
      <g transform="translate(52.513031 496.867996)scale(0.14 -0.14)">
       <use xlink:href="#ArialMT-36"/>
       <use xlink:href="#ArialMT-30" x="55.615234"/>
      </g>
     </g>
    </g>
    <g id="ytick_17">
     <g id="line2d_32">
      <g>
       <use xlink:href="#md1a38b5ce3" x="75.083656" y="523.833998" style="stroke: #000000; stroke-width: 0.8"/>
      </g>
     </g>
     <g id="text_35">
      <!-- 80 -->
      <g transform="translate(52.513031 528.844467)scale(0.14 -0.14)">
       <use xlink:href="#ArialMT-38"/>
       <use xlink:href="#ArialMT-30" x="55.615234"/>
      </g>
     </g>
    </g>
    <g id="ytick_18">
     <g id="line2d_33">
      <g>
       <use xlink:href="#md1a38b5ce3" x="75.083656" y="555.810469" style="stroke: #000000; stroke-width: 0.8"/>
      </g>
     </g>
     <g id="text_36">
      <!-- 100 -->
      <g transform="translate(44.727719 560.820938)scale(0.14 -0.14)">
       <use xlink:href="#ArialMT-31"/>
       <use xlink:href="#ArialMT-30" x="55.615234"/>
       <use xlink:href="#ArialMT-30" x="111.230469"/>
      </g>
     </g>
    </g>
    <g id="text_37">
     <!-- Shox2 -->
     <g transform="translate(19.368281 499.969449)rotate(-90)scale(0.17 -0.17)">
      <defs>
       <path id="ArialMT-53" d="M 288 1472 
L 859 1522 
Q 900 1178 1048 958 
Q 1197 738 1509 602 
Q 1822 466 2213 466 
Q 2559 466 2825 569 
Q 3091 672 3220 851 
Q 3350 1031 3350 1244 
Q 3350 1459 3225 1620 
Q 3100 1781 2813 1891 
Q 2628 1963 1997 2114 
Q 1366 2266 1113 2400 
Q 784 2572 623 2826 
Q 463 3081 463 3397 
Q 463 3744 659 4045 
Q 856 4347 1234 4503 
Q 1613 4659 2075 4659 
Q 2584 4659 2973 4495 
Q 3363 4331 3572 4012 
Q 3781 3694 3797 3291 
L 3216 3247 
Q 3169 3681 2898 3903 
Q 2628 4125 2100 4125 
Q 1550 4125 1298 3923 
Q 1047 3722 1047 3438 
Q 1047 3191 1225 3031 
Q 1400 2872 2139 2705 
Q 2878 2538 3153 2413 
Q 3553 2228 3743 1945 
Q 3934 1663 3934 1294 
Q 3934 928 3725 604 
Q 3516 281 3123 101 
Q 2731 -78 2241 -78 
Q 1619 -78 1198 103 
Q 778 284 539 648 
Q 300 1013 288 1472 
z
" transform="scale(0.015625)"/>
      </defs>
      <use xlink:href="#ArialMT-53"/>
      <use xlink:href="#ArialMT-68" x="66.699219"/>
      <use xlink:href="#ArialMT-6f" x="122.314453"/>
      <use xlink:href="#ArialMT-78" x="177.929688"/>
      <use xlink:href="#ArialMT-32" x="227.929688"/>
     </g>
     <!-- Rank Quantile -->
     <g transform="translate(37.348969 529.730074)rotate(-90)scale(0.17 -0.17)">
      <use xlink:href="#ArialMT-52"/>
      <use xlink:href="#ArialMT-61" x="72.216797"/>
      <use xlink:href="#ArialMT-6e" x="127.832031"/>
      <use xlink:href="#ArialMT-6b" x="183.447266"/>
      <use xlink:href="#ArialMT-20" x="233.447266"/>
      <use xlink:href="#ArialMT-51" x="261.230469"/>
      <use xlink:href="#ArialMT-75" x="339.013672"/>
      <use xlink:href="#ArialMT-61" x="394.628906"/>
      <use xlink:href="#ArialMT-6e" x="450.244141"/>
      <use xlink:href="#ArialMT-74" x="505.859375"/>
      <use xlink:href="#ArialMT-69" x="533.642578"/>
      <use xlink:href="#ArialMT-6c" x="555.859375"/>
      <use xlink:href="#ArialMT-65" x="578.076172"/>
     </g>
    </g>
   </g>
   <g id="patch_13">
    <path d="M 75.083656 555.810469 
L 75.083656 395.928116 
" style="fill: none; stroke: #000000; stroke-width: 0.8; stroke-linejoin: miter; stroke-linecap: square"/>
   </g>
   <g id="patch_14">
    <path d="M 298.283656 555.810469 
L 298.283656 395.928116 
" style="fill: none"/>
   </g>
   <g id="patch_15">
    <path d="M 75.083656 555.810469 
L 298.283656 555.810469 
" style="fill: none; stroke: #000000; stroke-width: 0.8; stroke-linejoin: miter; stroke-linecap: square"/>
   </g>
   <g id="patch_16">
    <path d="M 75.083656 395.928116 
L 298.283656 395.928116 
" style="fill: none"/>
   </g>
  </g>
 </g>
 <defs>
  <clipPath id="p70b1169759">
   <rect x="75.083656" y="12.210469" width="223.2" height="159.882353"/>
  </clipPath>
  <clipPath id="p60fadc847e">
   <rect x="75.083656" y="204.069292" width="223.2" height="159.882353"/>
  </clipPath>
  <clipPath id="p1931a7dbfb">
   <rect x="75.083656" y="395.928116" width="223.2" height="159.882353"/>
  </clipPath>
 </defs>
</svg>
